<?xml version="1.0" ?><!DOCTYPE svg  PUBLIC '-//W3C//DTD SVG 1.1//EN'  'http://www.w3.org/Graphics/SVG/1.1/DTD/svg11.dtd'><svg enable-background="new 0 0 66 66" id="Layer_1" version="1.1" viewBox="0 0 66 66" xml:space="preserve" xmlns="http://www.w3.org/2000/svg" xmlns:xlink="http://www.w3.org/1999/xlink"><g><g><g><path d="M1.939,30.727c-0.079,0-0.16-0.019-0.234-0.059c-0.244-0.13-0.337-0.433-0.207-0.676     c2.247-4.221,7.054-5.826,11.294-7.243c2.457-0.82,9.591-2.894,10.743-8.452c1.478-7.128-7.434-8.406-11.849-5.567     c-3.68,2.366-3.134,6.705-0.54,7.847c1.364,0.599,3.265-0.025,3.795-1.432c0.097-0.259,0.386-0.391,0.644-0.292     c0.259,0.097,0.39,0.385,0.292,0.644c-0.741,1.973-3.273,2.814-5.133,1.996c-3.311-1.457-3.971-6.792,0.401-9.603     c5.342-3.434,15.008-1.29,13.369,6.611c-1.157,5.581-7.336,7.838-11.405,9.198c-4.063,1.357-8.668,2.896-10.728,6.764     C2.291,30.631,2.118,30.727,1.939,30.727z"/></g><g><path d="M15.678,28.406c-0.035,0-0.071-0.001-0.106-0.001c-5.754,0-10.864,2.222-13.685,5.956     c-0.166,0.221-0.482,0.265-0.7,0.098c-0.221-0.167-0.264-0.48-0.098-0.7c3.009-3.982,8.417-6.353,14.483-6.353     c0.037,0,0.074,0.001,0.111,0.001c14.478,0.069,33.453,15.053,45.54,3.091c5.812-5.752,1.315-11.614-2.366-10.615     c-0.263,0.072-0.541-0.086-0.613-0.353c-0.072-0.267,0.086-0.541,0.353-0.613c4.694-1.262,9.866,5.824,3.33,12.292     C49.376,43.63,29.624,28.472,15.678,28.406z"/></g><g><path d="M3.458,39.12c-0.246-0.126-0.342-0.427-0.216-0.673c2.242-4.369,7.402-7.09,12.859-6.763     c4.654,0.276,9.366,2.623,13.267,6.607c0.193,0.197,0.189,0.514-0.008,0.707c-0.196,0.194-0.513,0.19-0.707-0.008     c-3.726-3.806-8.205-6.047-12.611-6.309c-4.977-0.303-9.877,2.262-11.91,6.222C4.005,39.15,3.702,39.246,3.458,39.12z"/></g><g><path d="M30.196,51.512c0.212-0.179,0.527-0.151,0.705,0.06c0.178,0.211,0.151,0.527-0.06,0.705     c-3.361,2.83-0.968,9.351,4.813,8.447c4.507-0.712,6.574-5.738,4.339-9.435c-2.94-4.862-10.291-4.153-15.199-5.894     c-3.311-1.174-5.609-3.458-6.147-6.111c-0.055-0.271,0.12-0.535,0.391-0.59c0.275-0.05,0.535,0.121,0.59,0.391     c0.468,2.306,2.524,4.313,5.501,5.368c4.767,1.691,12.504,1,15.72,6.319c2.603,4.304,0.173,10.118-5.038,10.94     C28.957,62.791,26.136,54.931,30.196,51.512z"/></g><g><path d="M39.53,16.983L39.53,16.983c-1.185,0-2.352-0.428-3.203-1.173c-2.992-2.622-2.166-11.622,8.782-11.622     c0.216,0,0.431,0.003,0.644,0.006c0.238,0.004,0.44,0.177,0.483,0.411c0.042,0.235-0.087,0.466-0.309,0.554     c-1.379,0.544-2.327,2.013-2.253,3.494c0.046,0.932,0.542,2.115,0.619,3.196C44.47,14.312,42.555,16.983,39.53,16.983z      M44.075,5.209c-8.741,0.381-9.441,7.787-7.088,9.849c2.53,2.217,6.552,0.247,6.309-3.137     C43.181,10.327,41.575,7.686,44.075,5.209z"/></g><g><path d="M25.263,24.304c-1.509-3.684,2.435-8.469,8.506-6.609c2.013,0.617,3.84,1.866,5.146,3.517     c0.17,0.215,0.135,0.528-0.079,0.7c-0.214,0.173-0.526,0.139-0.7-0.073c-0.024-0.029-0.096-0.118-0.337-0.118     c-0.474,0-1.116,0.338-1.439,0.651c-0.524,0.508-0.897,1.436-1.312,2.075C32.582,28.258,26.663,27.719,25.263,24.304z      M26.189,23.925c0.638,1.558,2.505,2.141,3.911,2.166l0.079,0.501v-0.5c3.763,0,4.264-3.256,5.485-4.438     c0.347-0.335,0.918-0.69,1.521-0.849c-1.053-0.984-2.333-1.732-3.708-2.154C28.217,17.037,24.995,21.011,26.189,23.925z"/></g><g><path d="M43.573,45.07c-0.078,0-0.157-0.018-0.23-0.057c-0.227-0.118-0.328-0.388-0.235-0.625     c0.123-0.313,0.038-0.617-0.055-0.815c-0.595-1.278-2.143-1.197-3.549-1.098c-1.379,0.098-2.86,0.208-3.962-0.886     c-0.725-0.719-1.658-2.389,0.227-5.498c0.078-0.128,0.21-0.215,0.359-0.236c3.63-0.507,7.066,1.196,8.346,4.073     c0.721,1.621,0.55,3.368-0.483,4.92C43.894,44.991,43.735,45.07,43.573,45.07z M42.25,41.641     c0.631,0.213,1.202,0.668,1.553,1.224c0.208-0.84,0.128-1.696-0.244-2.531c-1.072-2.413-3.936-3.869-7.057-3.519     c-1.021,1.775-1.113,3.212-0.256,4.063c0.801,0.795,2.032,0.681,3.187,0.599C40.375,41.41,41.354,41.338,42.25,41.641z"/></g><g><path d="M55.011,50.381c-2.969-0.502-5.58-3.058-6.208-6.079c-0.019-0.093-0.012-0.19,0.022-0.279     c1.199-3.17,5.261-4.041,7.663-1.707c1.395,1.355,1.862,3.562,3.462,4.244c0.626,0.267,1.476,0.112,1.81-0.343l0.084-0.136     c0.139-0.233,0.439-0.311,0.675-0.178c0.236,0.133,0.323,0.431,0.195,0.67c-0.037,0.07-0.078,0.137-0.123,0.201     C60.978,49.304,57.911,50.868,55.011,50.381z M49.814,44.243c0.594,2.53,2.874,4.731,5.364,5.152     c1.826,0.311,3.851-0.374,5.329-1.699c-0.331-0.016-0.656-0.09-0.95-0.215c-1.991-0.849-2.487-3.204-3.767-4.447     C53.938,41.234,50.822,41.857,49.814,44.243z"/></g></g><g><path d="M26.418,24.371c-0.234,0-0.474-0.036-0.72-0.118c-0.131-0.044-0.202-0.186-0.158-0.316    c0.044-0.13,0.186-0.201,0.316-0.158c1.102,0.369,2.115-0.444,3.011-1.161c2.869-2.295,6.243-2.753,9.1-1.882    c0.132,0.04,0.206,0.18,0.167,0.312c-0.041,0.132-0.182,0.206-0.312,0.167c-2.714-0.829-5.91-0.393-8.642,1.794    C28.405,23.628,27.476,24.371,26.418,24.371z"/></g><g><path d="M37.828,16.522c-0.079,0-0.157-0.038-0.206-0.107c-0.079-0.113-0.05-0.269,0.063-0.348    c0.77-0.534,0.735-1.545,0.637-2.445c-0.159-1.47-0.426-3.93,1.623-6.297c1.242-1.435,3.04-2.333,4.933-2.463    c0.132-0.02,0.257,0.095,0.267,0.232c0.009,0.138-0.095,0.257-0.232,0.267c-1.761,0.121-3.434,0.957-4.589,2.292    c-1.906,2.203-1.664,4.438-1.503,5.917c0.116,1.074,0.1,2.251-0.849,2.91C37.927,16.507,37.877,16.522,37.828,16.522z"/></g><g><path d="M58.071,48.375c-3.885,0-6.02-4.452-8.737-3.981c-0.133,0.023-0.266-0.068-0.289-0.204    c-0.023-0.136,0.068-0.266,0.204-0.289c3.793-0.646,5.987,6.392,11.838,3.071c0.12-0.07,0.273-0.026,0.341,0.094    c0.068,0.12,0.026,0.273-0.094,0.341C60.112,48.099,59.037,48.375,58.071,48.375z"/></g><g><path d="M43.801,43.262c-0.115,0-0.218-0.079-0.244-0.196c-0.284-1.281-1.265-2.397-2.499-2.843    c-0.501-0.181-1.043-0.261-1.617-0.345c-0.921-0.135-1.874-0.274-2.65-0.87c-0.601-0.46-1.103-1.314-0.874-2.184    c0.035-0.133,0.172-0.215,0.305-0.178c0.134,0.035,0.213,0.172,0.178,0.306c-0.17,0.644,0.241,1.312,0.695,1.66    c0.673,0.516,1.521,0.64,2.418,0.771c0.573,0.084,1.166,0.171,1.714,0.369c1.391,0.503,2.497,1.761,2.817,3.206    c0.03,0.135-0.055,0.269-0.19,0.298C43.837,43.26,43.819,43.262,43.801,43.262z"/></g></g></svg>