<svg width="64" height="42" viewBox="0 0 64 42" fill="none" xmlns="http://www.w3.org/2000/svg">
<path d="M52.584 27.4259C52.376 27.2449 52.354 26.9289 52.535 26.7199C52.716 26.5119 53.032 26.4899 53.24 26.6709C54.24 27.5389 56.83 26.8449 56.539 23.0939C56.225 19.0769 53.156 15.3069 49.075 13.9259C41.603 11.3989 32.295 17.0409 33.829 21.8709C34.189 23.0049 35.221 23.8439 36.283 23.8659C36.558 23.8719 36.778 24.0999 36.772 24.3759C36.766 24.6509 36.579 24.8439 36.261 24.8659C34.785 24.8349 33.361 23.7029 32.875 22.1739C31.021 16.3379 41.347 10.2579 49.395 12.9789C53.844 14.4839 57.191 18.6119 57.535 23.0169C57.907 27.7909 54.177 28.8079 52.584 27.4259Z" fill="white"/>
<path d="M19.4289 26.0751C19.4019 23.1831 22.0059 19.3051 26.2619 18.0821C28.6219 17.4021 31.2379 17.6431 33.4339 18.7431C33.6809 18.8671 33.7809 19.1671 33.6579 19.4141C33.5339 19.6621 33.2319 19.7621 32.9869 19.6381C31.0119 18.6501 28.6619 18.4321 26.5389 19.0431C22.7339 20.1371 20.4049 23.5401 20.4299 26.0651C20.4559 28.7451 22.9169 29.9911 24.4109 28.9241C24.6329 28.7631 24.9459 28.8131 25.1079 29.0391C25.2689 29.2641 25.2169 29.5761 24.9929 29.7371C22.8679 31.2611 19.4629 29.6091 19.4289 26.0751Z" fill="white"/>
<path d="M40.4669 41.9691C34.1999 41.9691 27.9189 41.1391 21.7459 40.3201C19.1079 39.9701 16.1189 39.5741 13.7179 37.9011C11.3449 36.2471 9.72188 32.8871 11.1169 30.1281C12.8749 26.6471 17.5059 26.6371 19.7309 26.6331H19.9559C20.2119 26.6251 20.4569 26.8541 20.4579 27.1311C20.4589 27.4071 20.2359 27.6321 19.9599 27.6331H19.7339C17.5519 27.6371 13.4919 27.6451 12.0099 30.5791C10.8759 32.8241 12.3109 35.7021 14.2909 37.0811C16.4919 38.6151 19.3539 38.9941 21.8779 39.3291C32.8639 40.7851 44.9299 42.4101 56.0849 38.7001C57.9879 38.0681 60.3529 37.0991 61.7609 35.2131C63.1279 33.3811 63.3889 30.7621 62.4079 28.6961C61.4289 26.6301 59.2349 25.1751 56.9519 25.0751C56.6759 25.0631 56.4619 24.8291 56.4729 24.5541C56.4849 24.2791 56.6979 24.0591 56.9949 24.0761C59.6379 24.1911 62.1779 25.8761 63.3119 28.2671C64.4459 30.6591 64.1449 33.6911 62.5609 35.8111C60.9869 37.9201 58.4419 38.9701 56.4009 39.6491C51.7149 41.2071 46.4899 41.9691 40.4669 41.9691Z" fill="white"/>
<path d="M47.0079 13.366C46.9729 13.366 46.9379 13.363 46.9019 13.355C46.6319 13.296 46.4619 13.03 46.5199 12.76C46.7909 11.514 46.0459 10.274 45.5799 9.64495C42.4209 5.39595 35.9839 5.13795 32.5359 9.29795C32.0449 9.88995 31.6879 10.734 32.0639 11.19C32.3869 11.582 33.1689 11.659 33.9799 10.799C34.1709 10.599 34.4869 10.589 34.6869 10.779C34.8869 10.968 34.8959 11.285 34.7069 11.485C33.4739 12.791 31.9939 12.674 31.2929 11.826C30.4999 10.866 31.0529 9.51995 31.7669 8.65895C35.6409 3.98595 42.8529 4.29795 46.3829 9.04795C47.3639 10.369 47.7599 11.762 47.4969 12.971C47.4459 13.207 47.2389 13.366 47.0079 13.366Z" fill="white"/>
<path d="M11.9189 16.557C11.0549 16.557 10.2069 16.092 9.6529 15.299C9.1289 14.548 8.8829 13.593 8.8769 12.291C8.8549 8.46802 10.7519 4.68202 13.8289 2.41102C16.9859 0.0810168 20.9579 -0.576983 24.7269 0.612017C28.4919 1.79802 31.3699 4.61002 32.6229 8.32902C32.7109 8.59102 32.5699 8.87402 32.3089 8.96202C32.0479 9.05202 31.7649 8.91002 31.6759 8.64802C30.5259 5.23502 27.8839 2.65402 24.4269 1.56502C20.9679 0.476016 17.3209 1.07802 14.4229 3.21502C11.5989 5.29902 9.8569 8.77502 9.8769 12.285C9.8829 13.374 10.0719 14.15 10.4739 14.727C10.8689 15.293 11.4949 15.62 12.0809 15.547C13.3679 15.396 13.5499 13.699 13.6449 12.699C13.6719 12.424 13.9199 12.226 14.1909 12.249C14.4659 12.275 14.6669 12.52 14.6409 12.794C14.4539 14.732 13.8639 16.557 11.9189 16.557Z" fill="white"/>
<path d="M18.146 27.5619C18.129 27.5619 18.114 27.5619 18.097 27.5599C14.955 27.2609 5.43397 26.1419 2.78197 24.3099C-1.07703 21.6419 -0.923032 15.7449 3.30797 13.3849C5.27697 12.2849 7.61797 12.2759 9.57297 13.3569C9.81397 13.4909 9.90197 13.7949 9.76797 14.0369C9.63397 14.2779 9.32997 14.3649 9.08797 14.2319C7.43997 13.3199 5.46097 13.3289 3.79497 14.2579C0.219968 16.2519 0.0879681 21.2309 3.34997 23.4869C5.79297 25.1739 15.336 26.2919 18.193 26.5639C18.467 26.5899 18.67 26.8339 18.643 27.1089C18.618 27.3679 18.4 27.5619 18.146 27.5619Z" fill="white"/>
<path d="M19.498 39.1779L17.678 37.3579C17.58 37.2599 17.58 37.1019 17.678 37.0039C17.776 36.9059 17.934 36.9059 18.032 37.0039L19.852 38.8239C20.088 39.0609 19.727 39.4069 19.498 39.1779Z" fill="white"/>
<path d="M23.1379 39.926L19.7739 36.562C19.6759 36.464 19.6759 36.306 19.7739 36.208C19.8719 36.11 20.0299 36.11 20.1269 36.208L23.4909 39.572C23.5889 39.67 23.5889 39.828 23.4909 39.926C23.3949 40.023 23.2369 40.024 23.1379 39.926Z" fill="white"/>
<path d="M27.554 40.1489L23.678 36.2729C23.58 36.1749 23.58 36.0169 23.678 35.9199C23.776 35.8219 23.934 35.8219 24.032 35.9199L27.908 39.7959C28.006 39.8939 28.006 40.0519 27.908 40.1499C27.811 40.2459 27.653 40.2469 27.554 40.1489Z" fill="white"/>
<path d="M32.153 40.4809L27.584 35.9109C27.486 35.8129 27.486 35.6549 27.584 35.5569C27.682 35.4589 27.84 35.4589 27.938 35.5569L32.507 40.1269C32.605 40.2249 32.605 40.3829 32.507 40.4799C32.409 40.5779 32.251 40.5789 32.153 40.4809Z" fill="white"/>
<path d="M36.319 40.164L31.416 35.261C31.318 35.163 31.318 35.005 31.416 34.907C31.514 34.809 31.672 34.809 31.77 34.907L36.673 39.81C36.771 39.908 36.771 40.066 36.673 40.164C36.575 40.261 36.417 40.262 36.319 40.164Z" fill="white"/>
<path d="M41.7631 40.257L36.5491 35.043C36.4511 34.945 36.4511 34.787 36.5491 34.69C36.6471 34.592 36.8051 34.592 36.9031 34.69L42.1171 39.904C42.2151 40.002 42.2151 40.16 42.1171 40.258C42.0201 40.355 41.8621 40.356 41.7631 40.257Z" fill="white"/>
<path d="M46.7099 38.986L41.8279 34.104C41.7299 34.006 41.7299 33.848 41.8279 33.75C41.9259 33.652 42.0839 33.652 42.1809 33.75L47.0629 38.632C47.1609 38.73 47.1609 38.888 47.0629 38.986C46.9659 39.083 46.8079 39.084 46.7099 38.986Z" fill="white"/>
<path d="M51.8069 38.7319L46.7449 33.6699C46.6469 33.5719 46.6469 33.4139 46.7449 33.3159C46.8429 33.2179 47.0009 33.2179 47.0979 33.3159L52.1609 38.3779C52.2589 38.4759 52.2589 38.6339 52.1609 38.7319C52.0639 38.8289 51.9059 38.8299 51.8069 38.7319Z" fill="white"/>
<path d="M56.777 37.7731L52.24 33.2361C52.142 33.1381 52.142 32.9801 52.24 32.8821C52.338 32.7841 52.496 32.7841 52.594 32.8821L57.131 37.4191C57.229 37.5171 57.229 37.6751 57.131 37.7721C57.034 37.8701 56.875 37.8711 56.777 37.7731Z" fill="white"/>
<path d="M60.211 36.0719L56.218 32.0779C56.12 31.9799 56.12 31.8219 56.218 31.7239C56.316 31.6259 56.474 31.6259 56.572 31.7239L60.565 35.7179C60.663 35.8159 60.663 35.9739 60.565 36.0719C60.467 36.1689 60.309 36.1709 60.211 36.0719Z" fill="white"/>
<path d="M62.234 33.034L59.471 30.271C59.373 30.173 59.373 30.015 59.471 29.918C59.569 29.82 59.727 29.82 59.825 29.918L62.588 32.681C62.686 32.779 62.686 32.937 62.588 33.035C62.491 33.131 62.332 33.132 62.234 33.034Z" fill="white"/>
<path d="M62.3489 29.606L60.7009 27.957C60.6029 27.859 60.6029 27.701 60.7009 27.603C60.7989 27.505 60.9569 27.505 61.0539 27.603L62.7029 29.252C62.8009 29.35 62.8009 29.508 62.7029 29.605C62.6059 29.703 62.4479 29.704 62.3489 29.606Z" fill="white"/>
<path d="M45.8461 40.5809L40.0921 34.8269C39.9941 34.7289 39.9941 34.5709 40.0921 34.4729C40.1901 34.3749 40.3481 34.3749 40.4461 34.4729L46.2001 40.2269C46.2981 40.3249 46.2981 40.4829 46.2001 40.5809C46.1031 40.6779 45.9451 40.6789 45.8461 40.5809Z" fill="white"/>
<path d="M39.0129 40.9049L34.2359 36.1279C34.1379 36.0299 34.1379 35.8719 34.2359 35.7739C34.3339 35.6759 34.4919 35.6759 34.5899 35.7739L39.3669 40.5509C39.4649 40.6489 39.4649 40.8069 39.3669 40.9049C39.2699 41.0019 39.1119 41.0039 39.0129 40.9049Z" fill="white"/>
<path d="M33.166 39.6861L30.259 36.7791C30.161 36.6811 30.161 36.5231 30.259 36.4251C30.357 36.3271 30.515 36.3271 30.613 36.4251L33.52 39.3321C33.618 39.4301 33.618 39.5881 33.52 39.6861C33.422 39.7831 33.264 39.7851 33.166 39.6861Z" fill="white"/>
<path d="M17.2429 39.31C17.1449 39.212 17.1449 39.054 17.2429 38.956L21.3039 34.896C21.4019 34.798 21.5599 34.798 21.6579 34.896C21.7559 34.994 21.7559 35.152 21.6579 35.25L17.5969 39.31C17.4989 39.407 17.3409 39.408 17.2429 39.31Z" fill="white"/>
<path d="M19.4849 39.9611C19.3869 39.8631 19.3869 39.7051 19.4849 39.6071L24.2219 34.8701C24.3199 34.7721 24.4779 34.7721 24.5759 34.8701C24.6739 34.9681 24.6739 35.1261 24.5759 35.2241L19.8389 39.9611C19.7419 40.0581 19.5829 40.0591 19.4849 39.9611Z" fill="white"/>
<path d="M22.8831 40.257L28.1091 35.031C28.2071 34.933 28.3651 34.933 28.4631 35.031C28.5611 35.129 28.5611 35.287 28.4631 35.385L23.2371 40.611C23.0031 40.845 22.6511 40.49 22.8831 40.257Z" fill="white"/>
<path d="M26.8599 40.684C26.7619 40.586 26.7619 40.428 26.8599 40.33L32.8019 34.388C32.8999 34.29 33.0579 34.29 33.1559 34.388C33.2539 34.486 33.2539 34.644 33.1559 34.742L27.2139 40.684C27.1169 40.781 26.9579 40.782 26.8599 40.684Z" fill="white"/>
<path d="M30.186 41.262C30.088 41.164 30.088 41.006 30.186 40.908L37.271 33.823C37.369 33.725 37.527 33.725 37.625 33.823C37.723 33.921 37.723 34.079 37.625 34.177L30.54 41.262C30.443 41.359 30.284 41.36 30.186 41.262Z" fill="white"/>
<path d="M34.886 41.1171C34.788 41.0191 34.788 40.8611 34.886 40.7631L42.005 33.6441C42.103 33.5461 42.261 33.5461 42.359 33.6441C42.457 33.7421 42.457 33.9001 42.359 33.9981L35.24 41.1171C35.143 41.2141 34.985 41.2161 34.886 41.1171Z" fill="white"/>
<path d="M39.3699 41.624C39.2719 41.526 39.2719 41.368 39.3699 41.27L47.0559 33.583C47.1539 33.485 47.3119 33.485 47.4099 33.583C47.5079 33.681 47.5079 33.839 47.4099 33.937L39.7229 41.624C39.6259 41.721 39.4679 41.722 39.3699 41.624Z" fill="white"/>
<path d="M44.504 40.764L52.204 33.064C52.302 32.966 52.46 32.966 52.557 33.064C52.655 33.162 52.655 33.32 52.557 33.417L44.857 41.117C44.623 41.352 44.271 40.996 44.504 40.764Z" fill="white"/>
<path d="M50.2879 39.7431C50.1899 39.6451 50.1899 39.4871 50.2879 39.3891L56.3689 33.3081C56.4669 33.2101 56.6249 33.2101 56.7219 33.3081C56.8199 33.4061 56.8199 33.5641 56.7219 33.6621L50.6409 39.7431C50.5439 39.8401 50.3859 39.8421 50.2879 39.7431Z" fill="white"/>
<path d="M55.3489 38.2979C55.2509 38.1999 55.2509 38.0419 55.3489 37.9439L60.7379 32.5559C60.8359 32.4579 60.9939 32.4579 61.0919 32.5559C61.1899 32.6539 61.1899 32.8119 61.0919 32.9099L55.7029 38.2979C55.6059 38.3949 55.4479 38.3959 55.3489 38.2979Z" fill="white"/>
<path d="M59.0379 32.0789C58.9399 31.9809 58.9399 31.8229 59.0379 31.7249L61.4669 29.2959C61.5649 29.1979 61.7229 29.1979 61.8209 29.2959C61.9189 29.3939 61.9189 29.5519 61.8209 29.6499L59.3919 32.0789C59.2939 32.1759 59.1359 32.1769 59.0379 32.0789Z" fill="white"/>
<path d="M61.7129 31.573C61.6149 31.475 61.6149 31.317 61.7129 31.219L62.6169 30.314C62.7149 30.216 62.8729 30.216 62.9709 30.314C63.0689 30.412 63.0689 30.57 62.9709 30.667L62.0669 31.572C61.9689 31.67 61.8109 31.671 61.7129 31.573Z" fill="white"/>
<path d="M14.929 38.0799C14.831 37.9819 14.831 37.8239 14.929 37.7259L17.537 35.1189C17.635 35.0209 17.793 35.0209 17.89 35.1189C17.988 35.2169 17.988 35.3749 17.89 35.4729L15.283 38.0799C15.186 38.1769 15.028 38.1789 14.929 38.0799Z" fill="white"/>
<path d="M13.0059 36.809C12.9079 36.711 12.9079 36.553 13.0059 36.455L14.4389 35.022C14.5369 34.924 14.6949 34.924 14.7929 35.022C14.8909 35.12 14.8909 35.278 14.7929 35.376L13.3599 36.809C13.2619 36.906 13.1039 36.907 13.0059 36.809Z" fill="white"/>
<path d="M15.3169 37.542L13.3479 35.573C13.2499 35.475 13.2499 35.317 13.3479 35.219C13.4459 35.121 13.6039 35.121 13.7019 35.219L15.6709 37.188C15.7689 37.286 15.7689 37.444 15.6709 37.541C15.5739 37.639 15.4149 37.64 15.3169 37.542Z" fill="white"/>
<path d="M17.3229 37.6591L15.5459 35.8821C15.4479 35.7841 15.4479 35.6261 15.5459 35.5281C15.6439 35.4301 15.8019 35.4301 15.8999 35.5281L17.6769 37.3051C17.7749 37.4031 17.7749 37.5611 17.6769 37.6591C17.5789 37.7561 17.4209 37.7581 17.3229 37.6591Z" fill="white"/>
<path d="M19.8271 37.2799L18.3941 35.8469C18.2961 35.7489 18.2961 35.5909 18.3941 35.4929C18.4921 35.3949 18.6501 35.3949 18.7471 35.4929L20.1801 36.9259C20.2781 37.0239 20.2781 37.1819 20.1801 37.2799C20.0831 37.3769 19.9251 37.3789 19.8271 37.2799Z" fill="white"/>
<path d="M35.926 21.299C35.902 21.299 35.876 21.296 35.852 21.288C35.72 21.247 35.647 21.107 35.687 20.975C36.339 18.872 37.822 17.062 39.753 16.009C41.686 14.956 44.008 14.689 46.131 15.28C46.264 15.317 46.342 15.455 46.305 15.588C46.267 15.721 46.126 15.8 45.996 15.762C44.001 15.206 41.81 15.457 39.993 16.449C38.174 17.441 36.778 19.145 36.165 21.125C36.132 21.23 36.033 21.299 35.926 21.299Z" fill="white"/>
<path d="M22.276 26.0071C22.261 26.0071 22.247 26.0061 22.231 26.0031C22.095 25.9781 22.005 25.8481 22.03 25.7121C22.273 24.3791 22.951 23.1341 23.938 22.2051C24.925 21.2771 26.21 20.6781 27.556 20.5181C27.688 20.4971 27.818 20.5991 27.833 20.7371C27.85 20.8741 27.752 20.9981 27.614 21.0141C26.374 21.1611 25.189 21.7141 24.279 22.5691C23.37 23.4251 22.745 24.5731 22.521 25.8011C22.5 25.9221 22.395 26.0071 22.276 26.0071Z" fill="white"/>
<path d="M12.89 7.95004C12.835 7.95004 12.781 7.93204 12.736 7.89604C12.627 7.81004 12.608 7.65304 12.694 7.54504C14.295 5.51404 16.68 4.13204 19.24 3.75504C21.8 3.37704 24.483 4.01004 26.602 5.49104C26.715 5.57004 26.743 5.72604 26.664 5.83904C26.585 5.95304 26.429 5.97904 26.315 5.90104C24.298 4.49104 21.746 3.88904 19.312 4.24904C16.878 4.60804 14.609 5.92204 13.086 7.85404C13.038 7.91704 12.965 7.95004 12.89 7.95004Z" fill="white"/>
<path d="M41.0079 9.88304C40.9509 9.88304 40.8939 9.86404 40.8469 9.82404C39.5759 8.75404 37.6128 8.58304 36.1748 9.41904C36.0538 9.48904 35.9019 9.44804 35.8329 9.32904C35.7639 9.20904 35.8039 9.05704 35.9229 8.98704C37.5359 8.04704 39.7408 8.23904 41.1688 9.44104C41.2738 9.53004 41.2879 9.68804 41.1989 9.79304C41.1499 9.85304 41.0799 9.88304 41.0079 9.88304Z" fill="white"/>
</svg>
