<svg width="100" height="100" viewBox="0 0 100 100" fill="none" xmlns="http://www.w3.org/2000/svg">
<g clip-path="url(#clip0)">
<path d="M75.7299 58.2823C75.4699 58.0561 75.4424 57.6611 75.6687 57.3998C75.8949 57.1398 76.2899 57.1123 76.5499 57.3386C77.7999 58.4236 81.0374 57.5561 80.6737 52.8673C80.2812 47.8461 76.4449 43.1336 71.3437 41.4073C62.0037 38.2486 50.3687 45.3011 52.2862 51.3386C52.7362 52.7561 54.0262 53.8048 55.3537 53.8323C55.6974 53.8398 55.9724 54.1248 55.9649 54.4698C55.9574 54.8136 55.7237 55.0548 55.3262 55.0823C53.4812 55.0436 51.7012 53.6286 51.0937 51.7173C48.7762 44.4223 61.6837 36.8223 71.7437 40.2236C77.3049 42.1048 81.4887 47.2648 81.9187 52.7711C82.3837 58.7386 77.7212 60.0098 75.7299 58.2823Z" fill="white"/>
<path d="M34.2861 56.5938C34.2524 52.9788 37.5074 48.1313 42.8274 46.6026C45.7774 45.7526 49.0474 46.0538 51.7924 47.4288C52.1011 47.5838 52.2262 47.9588 52.0724 48.2676C51.9174 48.5776 51.5399 48.7026 51.2337 48.5476C48.7649 47.3126 45.8274 47.0401 43.1737 47.8038C38.4174 49.1713 35.5061 53.4251 35.5374 56.5813C35.5699 59.9313 38.6461 61.4888 40.5136 60.1551C40.7911 59.9538 41.1824 60.0163 41.3849 60.2988C41.5862 60.5801 41.5212 60.9701 41.2412 61.1713C38.5849 63.0763 34.3286 61.0113 34.2861 56.5938Z" fill="white"/>
<path d="M60.5835 76.4614C52.7498 76.4614 44.8985 75.4239 37.1823 74.4001C33.8848 73.9626 30.1485 73.4676 27.1473 71.3764C24.181 69.3089 22.1523 65.1089 23.896 61.6601C26.0935 57.3089 31.8823 57.2964 34.6635 57.2914H34.9448C35.2648 57.2814 35.571 57.5676 35.5723 57.9139C35.5735 58.2589 35.2948 58.5401 34.9498 58.5414H34.6673C31.9398 58.5464 26.8648 58.5564 25.0123 62.2239C23.5948 65.0301 25.3885 68.6276 27.8635 70.3514C30.6148 72.2689 34.1923 72.7427 37.3473 73.1614C51.0798 74.9814 66.1623 77.0126 80.106 72.3751C82.4848 71.5851 85.441 70.3739 87.201 68.0164C88.9098 65.7264 89.2361 62.4526 88.0098 59.8701C86.7861 57.2876 84.0436 55.4689 81.1898 55.3439C80.8448 55.3289 80.5773 55.0364 80.5911 54.6926C80.6061 54.3489 80.8723 54.0739 81.2435 54.0951C84.5473 54.2389 87.7223 56.3451 89.1398 59.3339C90.5573 62.3239 90.1811 66.1139 88.2011 68.7639C86.2336 71.4001 83.0523 72.7127 80.5011 73.5614C74.6436 75.5089 68.1123 76.4614 60.5835 76.4614Z" fill="white"/>
<path d="M68.7599 40.7075C68.7161 40.7075 68.6724 40.7038 68.6274 40.6938C68.2899 40.62 68.0774 40.2875 68.1499 39.95C68.4886 38.3925 67.5574 36.8425 66.9749 36.0562C63.0261 30.7449 54.9799 30.4224 50.6699 35.6224C50.0561 36.3624 49.6099 37.4175 50.0799 37.9875C50.4836 38.4775 51.4611 38.5738 52.4749 37.4988C52.7136 37.2488 53.1086 37.2363 53.3586 37.4738C53.6086 37.71 53.6199 38.1063 53.3836 38.3563C51.8424 39.9888 49.9924 39.8425 49.1161 38.7825C48.1249 37.5825 48.8161 35.8999 49.7086 34.8237C54.5511 28.9824 63.5661 29.3724 67.9786 35.3099C69.2049 36.9613 69.6999 38.7025 69.3711 40.2138C69.3074 40.5088 69.0486 40.7075 68.7599 40.7075Z" fill="white"/>
<path d="M24.8987 44.6963C23.8187 44.6963 22.7587 44.1151 22.0662 43.1238C21.4112 42.1851 21.1037 40.9913 21.0962 39.3638C21.0687 34.5851 23.4399 29.8526 27.2862 27.0138C31.2324 24.1013 36.1974 23.2788 40.9087 24.7651C45.6149 26.2476 49.2124 29.7626 50.7787 34.4113C50.8887 34.7388 50.7124 35.0926 50.3862 35.2026C50.0599 35.3151 49.7062 35.1376 49.5949 34.8101C48.1574 30.5438 44.8549 27.3176 40.5337 25.9563C36.2099 24.5951 31.6512 25.3476 28.0287 28.0188C24.4987 30.6238 22.3212 34.9688 22.3462 39.3563C22.3537 40.7176 22.5899 41.6876 23.0924 42.4088C23.5862 43.1163 24.3687 43.5251 25.1012 43.4338C26.7099 43.2451 26.9374 41.1238 27.0562 39.8738C27.0899 39.5301 27.3999 39.2826 27.7387 39.3113C28.0824 39.3438 28.3337 39.6501 28.3012 39.9926C28.0674 42.4151 27.3299 44.6963 24.8987 44.6963Z" fill="white"/>
<path d="M32.6825 58.4523C32.6612 58.4523 32.6425 58.4523 32.6213 58.4498C28.6938 58.0761 16.7925 56.6773 13.4775 54.3873C8.65371 51.0523 8.84621 43.6811 14.135 40.7311C16.5962 39.3561 19.5225 39.3448 21.9662 40.6961C22.2675 40.8636 22.3775 41.2436 22.21 41.5461C22.0425 41.8473 21.6625 41.9561 21.36 41.7898C19.3 40.6498 16.8262 40.6611 14.7437 41.8223C10.275 44.3148 10.11 50.5386 14.1875 53.3586C17.2412 55.4673 29.17 56.8648 32.7413 57.2048C33.0838 57.2373 33.3375 57.5423 33.3037 57.8861C33.2725 58.2098 33 58.4523 32.6825 58.4523Z" fill="white"/>
<path d="M34.3725 72.9723L32.0975 70.6973C31.975 70.5748 31.975 70.3773 32.0975 70.2548C32.22 70.1323 32.4175 70.1323 32.54 70.2548L34.815 72.5298C35.11 72.8261 34.6587 73.2586 34.3725 72.9723Z" fill="white"/>
<path d="M38.9224 73.9075L34.7174 69.7025C34.5949 69.58 34.5949 69.3825 34.7174 69.26C34.8399 69.1375 35.0374 69.1375 35.1586 69.26L39.3636 73.465C39.4861 73.5875 39.4861 73.785 39.3636 73.9075C39.2436 74.0287 39.0461 74.03 38.9224 73.9075Z" fill="white"/>
<path d="M44.4425 74.1861L39.5975 69.3411C39.475 69.2186 39.475 69.0211 39.5975 68.8999C39.72 68.7774 39.9175 68.7774 40.04 68.8999L44.885 73.7449C45.0075 73.8674 45.0075 74.0649 44.885 74.1874C44.7637 74.3074 44.5662 74.3086 44.4425 74.1861Z" fill="white"/>
<path d="M50.1913 74.6011L44.4801 68.8886C44.3576 68.7661 44.3576 68.5686 44.4801 68.4461C44.6026 68.3236 44.8001 68.3236 44.9226 68.4461L50.6338 74.1586C50.7563 74.2811 50.7563 74.4786 50.6338 74.5999C50.5113 74.7224 50.3138 74.7236 50.1913 74.6011Z" fill="white"/>
<path d="M55.3988 74.205L49.2701 68.0762C49.1476 67.9537 49.1476 67.7562 49.2701 67.6337C49.3926 67.5112 49.5901 67.5112 49.7126 67.6337L55.8413 73.7625C55.9638 73.885 55.9638 74.0825 55.8413 74.205C55.7188 74.3262 55.5213 74.3275 55.3988 74.205Z" fill="white"/>
<path d="M62.2039 74.3213L55.6864 67.8038C55.5639 67.6813 55.5639 67.4838 55.6864 67.3625C55.8089 67.24 56.0064 67.24 56.1289 67.3625L62.6464 73.88C62.7689 74.0025 62.7689 74.2 62.6464 74.3225C62.5251 74.4438 62.3276 74.445 62.2039 74.3213Z" fill="white"/>
<path d="M68.3874 72.7325L62.2849 66.63C62.1624 66.5075 62.1624 66.31 62.2849 66.1875C62.4074 66.065 62.6049 66.065 62.7261 66.1875L68.8286 72.29C68.9511 72.4125 68.9511 72.61 68.8286 72.7325C68.7074 72.8537 68.5099 72.855 68.3874 72.7325Z" fill="white"/>
<path d="M74.7586 72.4149L68.4311 66.0874C68.3086 65.9649 68.3086 65.7674 68.4311 65.6449C68.5536 65.5224 68.7511 65.5224 68.8724 65.6449L75.2011 71.9724C75.3236 72.0949 75.3236 72.2924 75.2011 72.4149C75.0799 72.5361 74.8824 72.5374 74.7586 72.4149Z" fill="white"/>
<path d="M80.9713 71.2164L75.3 65.5451C75.1775 65.4226 75.1775 65.2251 75.3 65.1026C75.4225 64.9801 75.62 64.9801 75.7425 65.1026L81.4138 70.7739C81.5363 70.8964 81.5363 71.0939 81.4138 71.2151C81.2925 71.3376 81.0938 71.3389 80.9713 71.2164Z" fill="white"/>
<path d="M85.2638 69.0899L80.2725 64.0974C80.15 63.9749 80.15 63.7774 80.2725 63.6549C80.395 63.5324 80.5925 63.5324 80.715 63.6549L85.7063 68.6474C85.8288 68.7699 85.8288 68.9674 85.7063 69.0899C85.5838 69.2111 85.3863 69.2136 85.2638 69.0899Z" fill="white"/>
<path d="M87.7925 65.2925L84.3387 61.8388C84.2162 61.7163 84.2162 61.5188 84.3387 61.3975C84.4612 61.275 84.6587 61.275 84.7812 61.3975L88.235 64.8513C88.3575 64.9738 88.3575 65.1713 88.235 65.2938C88.1137 65.4138 87.915 65.415 87.7925 65.2925Z" fill="white"/>
<path d="M87.9362 61.0075L85.8762 58.9462C85.7537 58.8237 85.7537 58.6262 85.8762 58.5037C85.9987 58.3812 86.1962 58.3812 86.3174 58.5037L88.3787 60.565C88.5012 60.6875 88.5012 60.885 88.3787 61.0062C88.2574 61.1287 88.0599 61.13 87.9362 61.0075Z" fill="white"/>
<path d="M67.3076 74.7261L60.1151 67.5336C59.9926 67.4111 59.9926 67.2136 60.1151 67.0911C60.2376 66.9686 60.4351 66.9686 60.5576 67.0911L67.7501 74.2836C67.8726 74.4061 67.8726 74.6036 67.7501 74.7261C67.6288 74.8474 67.4313 74.8486 67.3076 74.7261Z" fill="white"/>
<path d="M58.766 75.1311L52.7948 69.1599C52.6723 69.0374 52.6723 68.8399 52.7948 68.7174C52.9173 68.5949 53.1148 68.5949 53.2373 68.7174L59.2085 74.6886C59.331 74.8111 59.331 75.0086 59.2085 75.1311C59.0873 75.2524 58.8898 75.2549 58.766 75.1311Z" fill="white"/>
<path d="M51.4576 73.6076L47.8238 69.9738C47.7013 69.8513 47.7013 69.6538 47.8238 69.5313C47.9463 69.4088 48.1438 69.4088 48.2663 69.5313L51.9001 73.1651C52.0226 73.2876 52.0226 73.4851 51.9001 73.6076C51.7776 73.7288 51.5801 73.7313 51.4576 73.6076Z" fill="white"/>
<path d="M31.5535 73.1375C31.431 73.015 31.431 72.8175 31.5535 72.695L36.6298 67.62C36.7523 67.4975 36.9498 67.4975 37.0723 67.62C37.1948 67.7425 37.1948 67.94 37.0723 68.0625L31.996 73.1375C31.8735 73.2587 31.676 73.26 31.5535 73.1375Z" fill="white"/>
<path d="M34.356 73.9514C34.2335 73.8289 34.2335 73.6314 34.356 73.5089L40.2773 67.5876C40.3998 67.4651 40.5973 67.4651 40.7198 67.5876C40.8423 67.7101 40.8423 67.9076 40.7198 68.0301L34.7985 73.9514C34.6773 74.0726 34.4785 74.0739 34.356 73.9514Z" fill="white"/>
<path d="M38.604 74.3213L45.1365 67.7888C45.259 67.6663 45.4565 67.6663 45.579 67.7888C45.7015 67.9113 45.7015 68.1088 45.579 68.2313L39.0465 74.7638C38.754 75.0563 38.314 74.6125 38.604 74.3213Z" fill="white"/>
<path d="M43.5748 74.8549C43.4523 74.7324 43.4523 74.5349 43.5748 74.4124L51.0023 66.9849C51.1248 66.8624 51.3223 66.8624 51.4448 66.9849C51.5673 67.1074 51.5673 67.3049 51.4448 67.4274L44.0173 74.8549C43.896 74.9762 43.6973 74.9774 43.5748 74.8549Z" fill="white"/>
<path d="M47.7325 75.5775C47.61 75.455 47.61 75.2575 47.7325 75.135L56.5887 66.2788C56.7112 66.1563 56.9087 66.1563 57.0312 66.2788C57.1537 66.4013 57.1537 66.5988 57.0312 66.7213L48.175 75.5775C48.0538 75.6988 47.855 75.7 47.7325 75.5775Z" fill="white"/>
<path d="M53.6075 75.3964C53.485 75.2739 53.485 75.0764 53.6075 74.9539L62.5062 66.0551C62.6287 65.9326 62.8262 65.9326 62.9487 66.0551C63.0712 66.1776 63.0712 66.3751 62.9487 66.4976L54.05 75.3964C53.9288 75.5176 53.7312 75.5201 53.6075 75.3964Z" fill="white"/>
<path d="M59.2124 76.03C59.0899 75.9075 59.0899 75.71 59.2124 75.5875L68.8199 65.9787C68.9424 65.8562 69.1399 65.8562 69.2624 65.9787C69.3849 66.1012 69.3849 66.2987 69.2624 66.4212L59.6536 76.03C59.5324 76.1512 59.3349 76.1525 59.2124 76.03Z" fill="white"/>
<path d="M65.63 74.955L75.255 65.33C75.3775 65.2075 75.575 65.2075 75.6963 65.33C75.8188 65.4525 75.8188 65.65 75.6963 65.7713L66.0713 75.3963C65.7788 75.69 65.3388 75.245 65.63 74.955Z" fill="white"/>
<path d="M72.8598 73.6788C72.7373 73.5563 72.7373 73.3588 72.8598 73.2363L80.4611 65.6351C80.5836 65.5126 80.7811 65.5126 80.9023 65.6351C81.0248 65.7576 81.0248 65.9551 80.9023 66.0776L73.3011 73.6788C73.1798 73.8001 72.9823 73.8026 72.8598 73.6788Z" fill="white"/>
<path d="M79.1861 71.8724C79.0636 71.7499 79.0636 71.5524 79.1861 71.4299L85.9224 64.6949C86.0449 64.5724 86.2424 64.5724 86.3649 64.6949C86.4874 64.8174 86.4874 65.0149 86.3649 65.1374L79.6286 71.8724C79.5074 71.9937 79.3099 71.9949 79.1861 71.8724Z" fill="white"/>
<path d="M83.7973 64.0986C83.6748 63.9761 83.6748 63.7786 83.7973 63.6561L86.8336 60.6198C86.9561 60.4973 87.1536 60.4973 87.2761 60.6198C87.3986 60.7423 87.3986 60.9398 87.2761 61.0623L84.2398 64.0986C84.1173 64.2198 83.9198 64.2211 83.7973 64.0986Z" fill="white"/>
<path d="M87.1411 63.4663C87.0186 63.3438 87.0186 63.1463 87.1411 63.0238L88.2711 61.8925C88.3936 61.77 88.5911 61.77 88.7136 61.8925C88.8361 62.015 88.8361 62.2125 88.7136 62.3338L87.5836 63.465C87.4611 63.5875 87.2636 63.5888 87.1411 63.4663Z" fill="white"/>
<path d="M28.6612 71.5999C28.5387 71.4774 28.5387 71.2799 28.6612 71.1574L31.9212 67.8986C32.0437 67.7761 32.2412 67.7761 32.3625 67.8986C32.485 68.0211 32.485 68.2186 32.3625 68.3411L29.1037 71.5999C28.9825 71.7211 28.785 71.7236 28.6612 71.5999Z" fill="white"/>
<path d="M26.2574 70.0113C26.1349 69.8888 26.1349 69.6913 26.2574 69.5688L28.0487 67.7775C28.1712 67.655 28.3687 67.655 28.4912 67.7775C28.6137 67.9 28.6137 68.0975 28.4912 68.22L26.6999 70.0113C26.5774 70.1325 26.3799 70.1338 26.2574 70.0113Z" fill="white"/>
<path d="M29.1461 70.9275L26.6849 68.4663C26.5624 68.3438 26.5624 68.1463 26.6849 68.0238C26.8074 67.9013 27.0049 67.9013 27.1274 68.0238L29.5886 70.485C29.7111 70.6075 29.7111 70.805 29.5886 70.9263C29.4674 71.0488 29.2686 71.05 29.1461 70.9275Z" fill="white"/>
<path d="M31.6537 71.0739L29.4325 68.8526C29.31 68.7301 29.31 68.5326 29.4325 68.4101C29.555 68.2876 29.7525 68.2876 29.875 68.4101L32.0962 70.6314C32.2187 70.7539 32.2187 70.9514 32.0962 71.0739C31.9737 71.1951 31.7762 71.1976 31.6537 71.0739Z" fill="white"/>
<path d="M34.7838 70.5999L32.9925 68.8087C32.87 68.6862 32.87 68.4887 32.9925 68.3662C33.115 68.2437 33.3125 68.2437 33.4338 68.3662L35.225 70.1574C35.3475 70.2799 35.3475 70.4774 35.225 70.5999C35.1038 70.7212 34.9063 70.7237 34.7838 70.5999Z" fill="white"/>
<path d="M54.9074 50.6238C54.8774 50.6238 54.8449 50.62 54.8149 50.61C54.6499 50.5588 54.5586 50.3838 54.6086 50.2188C55.4236 47.59 57.2774 45.3275 59.6911 44.0113C62.1074 42.695 65.0099 42.3613 67.6636 43.1C67.8299 43.1463 67.9274 43.3188 67.8811 43.485C67.8336 43.6513 67.6574 43.75 67.4949 43.7025C65.0011 43.0075 62.2624 43.3213 59.9911 44.5613C57.7174 45.8013 55.9724 47.9313 55.2061 50.4063C55.1649 50.5375 55.0411 50.6238 54.9074 50.6238Z" fill="white"/>
<path d="M37.8449 56.5088C37.8262 56.5088 37.8087 56.5076 37.7887 56.5038C37.6187 56.4726 37.5062 56.3101 37.5374 56.1401C37.8412 54.4738 38.6887 52.9176 39.9224 51.7563C41.1562 50.5963 42.7624 49.8476 44.4449 49.6476C44.6099 49.6213 44.7724 49.7488 44.7912 49.9213C44.8124 50.0926 44.6899 50.2476 44.5174 50.2676C42.9674 50.4513 41.4862 51.1426 40.3487 52.2113C39.2124 53.2813 38.4312 54.7163 38.1512 56.2513C38.1249 56.4026 37.9937 56.5088 37.8449 56.5088Z" fill="white"/>
<path d="M26.1124 33.9375C26.0437 33.9375 25.9762 33.915 25.9199 33.87C25.7837 33.7625 25.7599 33.5663 25.8674 33.4313C27.8687 30.8925 30.8499 29.165 34.0499 28.6938C37.2499 28.2213 40.6037 29.0125 43.2524 30.8638C43.3937 30.9625 43.4287 31.1575 43.3299 31.2988C43.2312 31.4413 43.0362 31.4738 42.8937 31.3763C40.3724 29.6138 37.1824 28.8613 34.1399 29.3113C31.0974 29.76 28.2612 31.4025 26.3574 33.8175C26.2974 33.8963 26.2062 33.9375 26.1124 33.9375Z" fill="white"/>
<path d="M61.2598 36.3538C61.1885 36.3538 61.1173 36.3301 61.0585 36.2801C59.4698 34.9426 57.0159 34.7288 55.2184 35.7738C55.0671 35.8613 54.8773 35.8101 54.791 35.6613C54.7048 35.5113 54.7548 35.3213 54.9035 35.2338C56.9198 34.0588 59.6759 34.2988 61.4609 35.8013C61.5921 35.9126 61.6098 36.1101 61.4985 36.2413C61.4373 36.3163 61.3498 36.3538 61.2598 36.3538Z" fill="white"/>
</g>
<defs>
<clipPath id="clip0">
<rect x="10" y="24" width="80" height="52.5" fill="white"/>
</clipPath>
</defs>
</svg>
