<svg width="56" height="64" viewBox="0 0 56 64" fill="none" xmlns="http://www.w3.org/2000/svg">
<path d="M15.4291 33.633C13.2691 25.915 14.9411 17.284 19.7911 11.108C24.1461 5.56496 30.5951 2.28396 35.7271 0.0449605C35.9321 -0.0440396 36.1721 0.0119605 36.3131 0.18596C36.4561 0.35796 36.4651 0.60496 36.3381 0.78796C30.6691 8.97596 22.1691 21.311 31.7251 36.285C34.9001 41.26 41.2641 47.72 53.5501 50.238C53.7651 50.282 53.9261 50.461 53.9471 50.68C53.9681 50.899 53.8431 51.105 53.6411 51.19C37.7291 57.803 19.8471 49.422 15.4291 33.633ZM34.5081 1.68496C29.8031 3.84896 24.3531 6.91996 20.5781 11.726C15.9201 17.656 14.3161 25.947 16.3911 33.364C20.4131 47.735 36.3541 56.185 51.7161 50.854C40.1491 48.046 34.0161 41.735 30.8811 36.823C26.9061 30.595 25.5401 23.17 27.1321 16.452C28.3721 11.221 31.3681 6.30296 34.5081 1.68496Z" fill="white"/>
<path d="M50.2131 34.747C49.0321 34.747 47.6401 32.503 47.0121 31.367C46.2601 31.634 44.6591 32.151 43.5491 32.151C42.8951 32.151 42.4421 31.968 42.2031 31.607C41.4951 30.536 43.2401 28.413 44.3071 27.275C43.3451 26.047 41.7951 23.777 42.5961 22.774C43.4311 21.722 46.1221 22.871 47.3641 23.44C48.1161 22.327 49.8681 19.953 51.1191 20.418C52.3211 20.869 52.1571 23.612 51.9621 25.159C53.4621 25.587 56.0501 26.514 55.9921 27.796C55.9351 29.078 53.2751 29.771 51.7441 30.064C51.8001 31.589 51.7431 34.747 50.2131 34.747ZM47.6901 30.517C48.5901 32.238 49.7681 33.747 50.2141 33.747V34.247L50.2181 33.747C50.5541 33.614 50.8501 31.808 50.7271 29.678C50.7121 29.424 50.8911 29.198 51.1431 29.156C53.2471 28.801 54.9421 28.109 54.9971 27.751C54.9751 27.391 53.3481 26.551 51.2831 26.01C51.0371 25.945 50.8781 25.705 50.9161 25.453C51.2291 23.342 51.0941 21.516 50.7701 21.354H50.7691C50.2451 21.354 48.8741 22.931 47.9661 24.347C47.8281 24.562 47.5501 24.637 47.3221 24.525C46.7801 24.256 43.7911 22.958 43.3791 23.398C43.1851 23.702 44.0071 25.338 45.3591 26.988C45.5211 27.185 45.5071 27.473 45.3301 27.655C43.8361 29.179 42.8721 30.735 43.0391 31.057C43.0391 31.057 43.1361 31.152 43.5501 31.152C44.8241 31.152 47.0431 30.292 47.0661 30.283C47.3091 30.188 47.5741 30.296 47.6901 30.517Z" fill="white"/>
<path d="M4.98707 29.8581C3.72507 30.3411 0.95607 31.3241 0.18507 30.2161C-0.54893 29.1631 1.14207 26.9971 2.18107 25.8331C1.18907 24.6291 -0.41593 22.3981 0.35907 21.3751C1.17207 20.3021 3.87207 21.3781 5.14307 21.9221C5.86507 20.7951 7.55907 18.3741 8.82107 18.8081C10.0341 19.2281 9.93907 21.9751 9.78307 23.5271C11.2931 23.9181 13.9021 24.7791 13.8771 26.0631C13.8531 27.3461 11.2111 28.1041 9.68607 28.4351C9.78107 29.9921 9.76707 32.7401 8.54007 33.1131C7.26107 33.4961 5.66507 31.0141 4.98707 29.8581ZM5.64307 28.9901C6.57907 30.6771 7.79407 32.1571 8.24407 32.1561H8.25007C8.58307 32.0151 8.83407 30.2011 8.65807 28.0751C8.63707 27.8211 8.81007 27.5921 9.06007 27.5431C11.1551 27.1351 12.8311 26.4011 12.8761 26.0431C12.8461 25.6831 11.1981 24.8831 9.12207 24.3951C8.87307 24.3361 8.70907 24.1011 8.74007 23.8471C9.00007 21.7281 8.81907 19.9071 8.49207 19.7531C7.97507 19.7531 6.64207 21.3661 5.76407 22.8151C5.63007 23.0331 5.35207 23.1161 5.12507 23.0091C4.57207 22.7511 1.57307 21.5361 1.15407 21.9801C0.96807 22.2891 1.83107 23.9041 3.22307 25.5201C3.38907 25.7131 3.38307 26.0001 3.20907 26.1871C1.75407 27.7491 0.82807 29.3281 1.00307 29.6451C1.00407 29.6451 1.09207 29.7281 1.45407 29.7281C2.50007 29.7281 4.37507 29.0381 5.01007 28.7711C5.24307 28.6741 5.51707 28.7641 5.64307 28.9901Z" fill="white"/>
<path d="M33.6881 62.331C32.8521 62.827 31.2901 63.672 30.6081 62.996C30.0021 62.391 30.5771 61.054 31.2651 59.913C30.2571 59.043 29.2951 57.95 29.6841 57.187C30.1231 56.324 31.8661 56.655 32.8161 56.864C33.1881 55.983 33.9761 54.373 34.9211 54.513C35.7661 54.646 36.0871 56.066 36.2011 57.392C37.5271 57.504 38.9471 57.823 39.0831 58.667C39.2171 59.512 37.9671 60.256 36.7401 60.774C37.0441 62.071 37.1781 63.52 36.4171 63.909C35.5641 64.344 34.3181 63.052 33.6881 62.331ZM34.1801 61.363C34.8291 62.16 35.6491 62.9 35.9731 62.992C36.0541 62.735 35.9361 61.615 35.6661 60.604C35.6011 60.357 35.7311 60.101 35.9691 60.009C36.8991 59.649 37.8271 59.119 38.0541 58.832C37.7491 58.629 36.7021 58.415 35.7061 58.361C35.4511 58.347 35.2471 58.144 35.2331 57.889C35.1771 56.893 34.9601 55.846 34.7581 55.542C34.4711 55.769 33.9441 56.699 33.5841 57.629C33.4921 57.866 33.2381 57.999 32.9891 57.932C32.4331 57.793 31.1691 57.524 30.6121 57.663C30.7441 58.008 31.4631 58.793 32.2331 59.42C32.4301 59.581 32.4761 59.865 32.3371 60.079C31.8021 60.909 31.3651 61.872 31.3431 62.246C31.8861 62.193 32.9131 61.65 33.5191 61.259C33.7311 61.123 34.0161 61.163 34.1801 61.363Z" fill="white"/>
<path d="M24.7881 46.8449L26.5751 45.0569C26.6731 44.9589 26.8311 44.9589 26.9291 45.0569C27.0271 45.1549 27.0271 45.3129 26.9291 45.4109L25.1421 47.1989C24.9081 47.4329 24.5561 47.0779 24.7881 46.8449Z" fill="white"/>
<path d="M26.421 47.877L28.11 46.188C28.208 46.09 28.366 46.09 28.464 46.188C28.562 46.286 28.562 46.444 28.464 46.542L26.774 48.231C26.54 48.464 26.189 48.109 26.421 47.877Z" fill="white"/>
<path d="M28.6571 49.253L30.9731 46.938C31.0721 46.839 31.2301 46.841 31.3271 46.938C31.4251 47.036 31.4251 47.194 31.3271 47.292L29.0121 49.607C28.7771 49.839 28.4231 49.486 28.6571 49.253Z" fill="white"/>
<path d="M31.3221 50.5421L33.3971 48.4671C33.4951 48.3691 33.6531 48.3691 33.7511 48.4671C33.8491 48.5651 33.8491 48.7231 33.7511 48.8211L31.6761 50.8961C31.4411 51.1301 31.0891 50.7751 31.3221 50.5421Z" fill="white"/>
<path d="M33.9872 51.5729L35.7922 49.7689C36.0252 49.5359 36.3802 49.8879 36.1462 50.1229L34.3412 51.9269C34.1072 52.1599 33.7532 51.8069 33.9872 51.5729Z" fill="white"/>
<path d="M37.512 52.2711C37.414 52.1731 37.414 52.0151 37.512 51.9171L39.661 49.7691C39.759 49.6711 39.917 49.6711 40.015 49.7691C40.113 49.8671 40.113 50.0251 40.015 50.1231L37.866 52.2711C37.769 52.3681 37.61 52.3691 37.512 52.2711Z" fill="white"/>
<path d="M40.693 52.691L43.125 50.259C43.223 50.161 43.381 50.161 43.479 50.259C43.577 50.357 43.577 50.515 43.479 50.613L41.047 53.045C40.813 53.278 40.459 52.924 40.693 52.691Z" fill="white"/>
<path d="M44.3041 52.3469L47.2401 49.4109C47.3381 49.3129 47.4961 49.3129 47.5941 49.4109C47.6921 49.5089 47.6921 49.6669 47.5941 49.7649L44.6581 52.7009C44.4231 52.9349 44.0721 52.5799 44.3041 52.3469Z" fill="white"/>
<path d="M48.688 51.7458L50.194 50.2409C50.293 50.1429 50.451 50.1439 50.548 50.2409C50.646 50.3389 50.646 50.4969 50.548 50.5949L49.042 52.0998C48.807 52.3338 48.455 51.9778 48.688 51.7458Z" fill="white"/>
<path d="M43.7061 49.5069C43.6421 49.5069 43.5781 49.4829 43.5291 49.4339C43.4311 49.3359 43.4311 49.1779 43.5291 49.0799L44.2611 48.3479C44.3601 48.2489 44.5181 48.2509 44.6151 48.3479C44.7131 48.4459 44.7131 48.6039 44.6151 48.7019L43.8831 49.4339C43.8341 49.4829 43.7701 49.5069 43.7061 49.5069Z" fill="white"/>
<path d="M41.5571 48.131C41.4931 48.131 41.4291 48.107 41.3801 48.058C41.2821 47.96 41.2821 47.802 41.3801 47.704L42.1541 46.931C42.2531 46.833 42.4111 46.834 42.5081 46.931C42.6061 47.029 42.6061 47.187 42.5081 47.284L41.7341 48.058C41.6851 48.107 41.6201 48.131 41.5571 48.131Z" fill="white"/>
<path d="M39.5762 46.8549C39.4782 46.7569 39.4782 46.5989 39.5762 46.5009L40.3932 45.6829C40.4912 45.5859 40.6492 45.5839 40.7472 45.6829C40.8452 45.7809 40.8452 45.9389 40.7472 46.0369L39.9302 46.8549C39.8302 46.9539 39.6722 46.9509 39.5762 46.8549Z" fill="white"/>
<path d="M23.0689 45.297L24.3219 44.044C24.4199 43.946 24.5779 43.946 24.6759 44.044C24.7739 44.142 24.7739 44.3 24.6759 44.398L23.4229 45.651C23.1889 45.884 22.8349 45.531 23.0689 45.297Z" fill="white"/>
<path d="M21.005 43.32L22.252 42.072C22.35 41.974 22.508 41.974 22.606 42.072C22.704 42.17 22.704 42.328 22.606 42.426L21.359 43.674C21.124 43.908 20.773 43.553 21.005 43.32Z" fill="white"/>
<path d="M19.801 41.7819C19.703 41.6839 19.703 41.5259 19.801 41.4279L20.661 40.5679C20.894 40.3349 21.249 40.6869 21.015 40.9219L20.155 41.7819C20.058 41.8789 19.9 41.8809 19.801 41.7819Z" fill="white"/>
<path d="M20.2031 41.927C18.2151 39.938 18.2301 40.5071 19.4991 39.2381C19.5971 39.1401 19.7551 39.1401 19.8531 39.2381C19.9511 39.3361 19.9511 39.4941 19.8531 39.5921L19.2141 40.2311L20.5571 41.5741C20.6551 41.6721 20.6551 41.8301 20.5571 41.9281C20.4601 42.0241 20.3021 42.025 20.2031 41.927Z" fill="white"/>
<path d="M23.1651 43.9251C23.1011 43.9251 23.0371 43.9011 22.9881 43.8521L21.4341 42.2991C21.3361 42.2011 21.3361 42.0431 21.4341 41.9451C21.5321 41.8471 21.6901 41.8471 21.7881 41.9451L23.3421 43.4981C23.4401 43.5961 23.4401 43.7541 23.3421 43.8521C23.2931 43.9001 23.2301 43.9251 23.1651 43.9251Z" fill="white"/>
<path d="M26.5062 46.6819L24.7012 44.8779C24.6032 44.7799 24.6032 44.6219 24.7012 44.5249C24.7992 44.4269 24.9572 44.4269 25.0552 44.5249L26.8602 46.3289C26.9582 46.4269 26.9582 46.5849 26.8602 46.6829C26.7632 46.7789 26.6042 46.7799 26.5062 46.6819Z" fill="white"/>
<path d="M30.722 49.4359L28.313 47.0269C28.215 46.9289 28.215 46.7709 28.313 46.6729C28.411 46.5749 28.569 46.5749 28.667 46.6729L31.076 49.0819C31.174 49.1799 31.174 49.3379 31.076 49.4359C30.978 49.5329 30.82 49.5339 30.722 49.4359Z" fill="white"/>
<path d="M34.549 51.2859L32.009 48.7459C31.911 48.6479 31.911 48.4899 32.009 48.3919C32.107 48.2939 32.265 48.2939 32.363 48.3919L34.903 50.9319C35.001 51.0299 35.001 51.1879 34.903 51.2859C34.806 51.3829 34.647 51.3839 34.549 51.2859Z" fill="white"/>
<path d="M39.1131 52.3239L36.9111 50.1209C36.8131 50.0229 36.8131 49.8649 36.9111 49.7669C37.0091 49.6689 37.1671 49.6689 37.2651 49.7669L39.4671 51.9699C39.7011 52.2049 39.3451 52.5569 39.1131 52.3239Z" fill="white"/>
<path d="M43.067 52.066L40.6069 49.606C40.5089 49.508 40.5089 49.35 40.6069 49.252C40.7049 49.154 40.8629 49.154 40.9609 49.252L43.421 51.712C43.655 51.946 43.299 52.298 43.067 52.066Z" fill="white"/>
<path d="M42.2022 48.261C42.1382 48.261 42.0742 48.237 42.0252 48.188L40.6922 46.855C40.5942 46.757 40.5942 46.599 40.6922 46.501C40.7912 46.402 40.9492 46.404 41.0462 46.501L42.3792 47.834C42.4772 47.932 42.4772 48.09 42.3792 48.188C42.3302 48.237 42.2662 48.261 42.2022 48.261Z" fill="white"/>
<path d="M47.232 52.191L44.562 49.521C44.464 49.423 44.464 49.265 44.562 49.167C44.66 49.069 44.818 49.069 44.916 49.167L47.586 51.837C47.684 51.935 47.684 52.093 47.586 52.191C47.488 52.288 47.33 52.289 47.232 52.191Z" fill="white"/>
<path d="M50.419 52.3509C50.25 52.3509 48.12 50.1559 48 50.0359C47.902 49.9379 47.902 49.7799 48 49.6819C48.098 49.5839 48.256 49.5839 48.354 49.6819L50.596 51.9239C50.694 52.0219 50.694 52.1799 50.596 52.2779C50.547 52.3259 50.484 52.3509 50.419 52.3509Z" fill="white"/>
<path d="M33.129 3.9649L32.355 3.1909C32.257 3.0929 32.257 2.9349 32.355 2.8379C32.453 2.7399 32.611 2.7399 32.709 2.8379L33.483 3.6119C33.717 3.8459 33.362 4.1969 33.129 3.9649Z" fill="white"/>
<path d="M32.07 5.84387L30.804 4.57787C30.706 4.47987 30.706 4.32187 30.804 4.22487C30.903 4.12587 31.061 4.12787 31.158 4.22487L32.424 5.49087C32.522 5.58887 32.522 5.74687 32.424 5.84487C32.327 5.93987 32.169 5.94287 32.07 5.84387Z" fill="white"/>
<path d="M30.859 7.97906L29.336 6.45606C29.238 6.35806 29.238 6.20006 29.336 6.10206C29.434 6.00406 29.592 6.00406 29.689 6.10206L31.212 7.62506C31.31 7.72306 31.31 7.88106 31.212 7.97906C31.115 8.07606 30.957 8.07706 30.859 7.97906Z" fill="white"/>
<path d="M28.9831 10.815C28.9191 10.815 28.8551 10.791 28.8061 10.742L27.5391 9.47495C27.4411 9.37695 27.4411 9.21895 27.5391 9.12195C27.6381 9.02395 27.7961 9.02495 27.8931 9.12195L29.1601 10.389C29.2581 10.487 29.2581 10.645 29.1601 10.743C29.1111 10.791 29.0461 10.815 28.9831 10.815Z" fill="white"/>
<path d="M27.95 13.2319L26.479 11.7599C26.381 11.6619 26.381 11.5039 26.479 11.4069C26.578 11.3089 26.736 11.3099 26.833 11.4069L28.304 12.8789C28.537 13.1119 28.182 13.4639 27.95 13.2319Z" fill="white"/>
<path d="M26.971 16.823L25.417 15.269C25.319 15.171 25.319 15.013 25.417 14.916C25.515 14.818 25.673 14.818 25.771 14.916L27.325 16.47C27.423 16.568 27.423 16.726 27.325 16.823C27.228 16.92 27.069 16.922 26.971 16.823Z" fill="white"/>
<path d="M26.614 19.73L24.928 18.044C24.83 17.946 24.83 17.788 24.928 17.69C25.026 17.592 25.184 17.592 25.281 17.69L26.967 19.375C27.065 19.473 27.065 19.631 26.967 19.729C26.87 19.827 26.712 19.828 26.614 19.73Z" fill="white"/>
<path d="M26.4601 23.087L24.6831 21.309C24.5851 21.211 24.5851 21.053 24.6831 20.955C24.7821 20.857 24.9401 20.858 25.0361 20.955L26.8131 22.733C26.9111 22.831 26.9111 22.989 26.8131 23.087C26.7171 23.183 26.5591 23.185 26.4601 23.087Z" fill="white"/>
<path d="M27.0212 26.83L25.2542 25.063C25.1562 24.965 25.1562 24.807 25.2542 24.71C25.3522 24.612 25.5102 24.612 25.6082 24.71L27.3752 26.477C27.4732 26.575 27.4732 26.733 27.3752 26.83C27.2772 26.927 27.1192 26.928 27.0212 26.83Z" fill="white"/>
<path d="M27.884 29.325L26.234 27.675C26.002 27.442 26.353 27.087 26.588 27.321L28.238 28.971C28.336 29.069 28.336 29.227 28.238 29.325C28.141 29.422 27.982 29.424 27.884 29.325Z" fill="white"/>
<path d="M27.876 31.522L26.642 30.287C26.41 30.055 26.761 29.699 26.996 29.934L28.23 31.169C28.328 31.267 28.328 31.425 28.23 31.523C28.133 31.618 27.975 31.621 27.876 31.522Z" fill="white"/>
<path d="M25.499 29.2249C25.401 29.1269 25.401 28.9689 25.499 28.8709L27.068 27.3009C27.3 27.0689 27.656 27.4199 27.422 27.6549L25.853 29.2249C25.756 29.3219 25.598 29.3229 25.499 29.2249Z" fill="white"/>
<path d="M24.846 26.043C24.748 25.945 24.748 25.787 24.846 25.69L26.162 24.374C26.261 24.275 26.419 24.277 26.516 24.374C26.614 24.472 26.614 24.63 26.516 24.728L25.2 26.043C25.103 26.139 24.945 26.141 24.846 26.043Z" fill="white"/>
<path d="M24.3572 22.125C24.2592 22.027 24.2592 21.869 24.3572 21.771L26.2412 19.887C26.3392 19.789 26.4972 19.789 26.5942 19.887C26.6922 19.985 26.6922 20.143 26.5942 20.241L24.7102 22.125C24.6132 22.222 24.4552 22.223 24.3572 22.125Z" fill="white"/>
<path d="M24.846 17.3099C24.748 17.2119 24.748 17.0539 24.846 16.9559L27.181 14.6209C27.413 14.3879 27.769 14.7399 27.535 14.9739L25.2 17.3099C25.103 17.4069 24.944 17.4079 24.846 17.3099Z" fill="white"/>
<path d="M26.5601 11.7329L29.3831 8.90993C29.4811 8.81193 29.6391 8.81193 29.7371 8.90993C29.8351 9.00793 29.8351 9.16593 29.7371 9.26393L26.9141 12.0869C26.6791 12.3209 26.3271 11.9649 26.5601 11.7329Z" fill="white"/>
<path d="M29.0901 7.35289C28.9921 7.25489 28.9921 7.09689 29.0901 6.99989L31.9761 4.11489C32.2081 3.88289 32.5641 4.23389 32.3301 4.46789L29.4441 7.35289C29.3471 7.44989 29.1881 7.45089 29.0901 7.35289Z" fill="white"/>
<path d="M32.6812 3.43495C32.5832 3.33695 32.5832 3.17895 32.6812 3.08095C32.9442 2.81795 33.2822 2.33595 33.5312 2.58495C33.6292 2.68295 33.6292 2.84095 33.5312 2.93895C33.2682 3.20195 32.9302 3.68395 32.6812 3.43495Z" fill="white"/>
<path d="M18.247 31.4419C18.132 31.4419 18.029 31.3629 18.003 31.2459C16.893 26.2479 17.522 20.9639 19.774 16.3679C19.836 16.2429 19.985 16.1949 20.109 16.2529C20.233 16.3139 20.284 16.4629 20.223 16.5869C18.021 21.0829 17.406 26.2499 18.491 31.1369C18.521 31.2719 18.436 31.4049 18.302 31.4349C18.284 31.4399 18.265 31.4419 18.247 31.4419Z" fill="white"/>
<path d="M19.652 18.974C19.57 18.974 19.49 18.934 19.442 18.859C19.186 18.461 18.756 18.17 18.291 18.081C18.155 18.055 18.066 17.924 18.093 17.788C18.118 17.652 18.251 17.563 18.385 17.59C18.982 17.705 19.534 18.078 19.863 18.589C19.938 18.705 19.904 18.86 19.788 18.935C19.745 18.961 19.699 18.974 19.652 18.974Z" fill="white"/>
<path d="M18.763 21.6001C18.711 21.6001 18.659 21.5841 18.614 21.5511L17.481 20.7071C17.371 20.6241 17.347 20.4681 17.43 20.3571C17.512 20.2471 17.669 20.2251 17.78 20.3061L18.913 21.1501C19.023 21.2331 19.047 21.3891 18.964 21.5001C18.914 21.5661 18.839 21.6001 18.763 21.6001Z" fill="white"/>
<path d="M18.618 24.5979C18.577 24.5979 18.535 24.5879 18.496 24.5659L17.136 23.8069C17.016 23.7399 16.973 23.5869 17.039 23.4669C17.106 23.3469 17.257 23.3029 17.38 23.3709L18.74 24.1299C18.86 24.1969 18.903 24.3499 18.837 24.4699C18.79 24.5509 18.705 24.5979 18.618 24.5979Z" fill="white"/>
<path d="M18.0481 27.138C17.7811 27.138 17.5131 27.081 17.2661 26.968C17.1411 26.911 17.0851 26.763 17.1431 26.637C17.2011 26.511 17.3491 26.455 17.4751 26.514C17.7611 26.646 18.0981 26.674 18.4011 26.593C18.5331 26.557 18.6711 26.637 18.7071 26.77C18.7431 26.904 18.6631 27.041 18.5301 27.076C18.3711 27.117 18.2101 27.138 18.0481 27.138Z" fill="white"/>
<path d="M17.6931 29.8509C17.4821 29.8509 17.2711 29.8019 17.0821 29.7019C16.9601 29.6379 16.9131 29.4869 16.9771 29.3649C17.0411 29.2439 17.1931 29.1969 17.3151 29.2599C17.5731 29.3959 17.9101 29.3769 18.1501 29.2159C18.2641 29.1379 18.4201 29.1699 18.4981 29.2839C18.5741 29.3989 18.5441 29.5539 18.4301 29.6309C18.2091 29.7759 17.9521 29.8509 17.6931 29.8509Z" fill="white"/>
</svg>
