<svg width="100" height="100" viewBox="0 0 100 100" fill="none" xmlns="http://www.w3.org/2000/svg">
<path d="M62.1832 72.8466L60.7548 71.4183C60.6293 71.2927 60.6293 71.0903 60.7548 70.9648C60.8803 70.8392 61.0828 70.8392 61.2083 70.9648L62.6367 72.3931C62.7622 72.5187 62.7622 72.7211 62.6367 72.8466C62.5111 72.9709 62.3087 72.9709 62.1832 72.8466Z" fill="white"/>
<path d="M63.7846 71.682L62.3934 70.292C62.2678 70.1665 62.2678 69.9641 62.3934 69.8385C62.5189 69.713 62.7213 69.713 62.8468 69.8385L64.2381 71.2285C64.3636 71.354 64.3636 71.5564 64.2381 71.682C64.1125 71.8063 63.9101 71.8063 63.7846 71.682Z" fill="white"/>
<path d="M65.4153 70.3433L63.8268 68.7547C63.7013 68.6292 63.7013 68.4268 63.8268 68.3025C63.9524 68.177 64.1548 68.177 64.2803 68.3025L65.8688 69.891C65.9944 70.0166 65.9944 70.219 65.8688 70.3445C65.7433 70.4688 65.5409 70.4688 65.4153 70.3433Z" fill="white"/>
<path d="M67.3612 68.9098L65.6702 67.2188C65.5447 67.0933 65.5447 66.8908 65.6702 66.7653C65.7958 66.6398 65.9982 66.6398 66.1237 66.7653L67.8147 68.4563C67.9402 68.5818 67.9402 68.7843 67.8147 68.9098C67.6892 69.0341 67.4868 69.0341 67.3612 68.9098Z" fill="white"/>
<path d="M69.6915 66.7345L67.9236 64.9666C67.7981 64.8411 67.7981 64.6386 67.9236 64.5131C68.0492 64.3876 68.2516 64.3876 68.3771 64.5131L70.145 66.281C70.2705 66.4065 70.2705 66.6089 70.145 66.7345C70.0194 66.8587 69.817 66.8587 69.6915 66.7345Z" fill="white"/>
<path d="M70.5996 64.5711L69.0495 63.021C68.9239 62.8955 68.9239 62.6931 69.0495 62.5675C69.175 62.442 69.3774 62.442 69.503 62.5675L71.0531 64.1176C71.1786 64.2432 71.1786 64.4456 71.0531 64.5711C70.9275 64.6954 70.7251 64.6954 70.5996 64.5711Z" fill="white"/>
<path d="M25.9394 64.5568C25.8138 64.4313 25.8138 64.2289 25.9394 64.1033L27.3229 62.7198C27.4485 62.5942 27.6509 62.5942 27.7764 62.7198C27.902 62.8453 27.902 63.0477 27.7764 63.1733L26.3929 64.5568C26.2673 64.6811 26.0649 64.6811 25.9394 64.5568Z" fill="white"/>
<path d="M27.2707 66.4002C27.1451 66.2747 27.1451 66.0722 27.2707 65.9467L28.2942 64.9231C28.4198 64.7976 28.6222 64.7976 28.7477 64.9231C28.8733 65.0487 28.8733 65.2511 28.7477 65.3766L27.7242 66.4002C27.5986 66.5245 27.3962 66.5245 27.2707 66.4002Z" fill="white"/>
<path d="M29.1356 68.3374C29.0536 68.3374 28.9716 68.3066 28.9089 68.2438C28.7833 68.1183 28.7833 67.9159 28.9089 67.7903L29.7928 66.9064C29.9183 66.7809 30.1207 66.7809 30.2463 66.9064C30.3718 67.032 30.3718 67.2344 30.2463 67.3599L29.3624 68.2438C29.2996 68.3066 29.2176 68.3374 29.1356 68.3374Z" fill="white"/>
<path d="M29.7277 70.4958C29.6022 70.3703 29.6022 70.1679 29.7277 70.0423L30.8038 68.9662C30.9293 68.8407 31.1317 68.8407 31.2573 68.9662C31.3828 69.0918 31.3828 69.2942 31.2573 69.4197L30.1812 70.4958C30.0557 70.6214 29.8532 70.6214 29.7277 70.4958Z" fill="white"/>
<path d="M31.9811 71.3156C31.8556 71.1901 31.8556 70.9877 31.9811 70.8621L33.3173 69.5273C33.4428 69.4017 33.6452 69.4017 33.7695 69.5273C33.895 69.6528 33.895 69.8552 33.7695 69.9808L32.4346 71.3156C32.3091 71.4399 32.1054 71.4399 31.9811 71.3156Z" fill="white"/>
<path d="M33.3119 72.1344C33.1864 72.0088 33.1864 71.8064 33.3119 71.6809L34.388 70.6048C34.5136 70.4792 34.716 70.4792 34.8415 70.6048C34.9671 70.7303 34.9671 70.9327 34.8415 71.0583L33.7654 72.1344C33.6399 72.2599 33.4362 72.2599 33.3119 72.1344Z" fill="white"/>
<path d="M35.769 73.3629C35.6434 73.2374 35.6434 73.0349 35.769 72.9094L37.2755 71.4029C37.401 71.2773 37.6034 71.2773 37.729 71.4029C37.8545 71.5284 37.8545 71.7308 37.729 71.8564L36.2225 73.3629C36.0969 73.4884 35.8945 73.4884 35.769 73.3629Z" fill="white"/>
<path d="M37.7148 74.3878C37.5892 74.2623 37.5892 74.0599 37.7148 73.9343L38.8459 72.8031C38.9715 72.6776 39.1739 72.6776 39.2982 72.8031C39.4237 72.9287 39.4237 73.1311 39.2982 73.2566L38.167 74.3878C38.0427 74.5121 37.8403 74.5121 37.7148 74.3878Z" fill="white"/>
<path d="M39.6607 74.5492L40.8598 73.3501C40.9853 73.2246 41.1877 73.2246 41.3132 73.3501C41.4388 73.4757 41.4388 73.6781 41.3132 73.8036L40.1142 75.0027C39.8157 75.2999 39.3609 74.849 39.6607 74.5492Z" fill="white"/>
<path d="M41.9142 75.5136C41.7887 75.3881 41.7887 75.1857 41.9142 75.0601L43.4682 73.5049C43.5937 73.3794 43.7961 73.3794 43.9216 73.5049C44.0472 73.6305 44.0472 73.8329 43.9216 73.9584L42.3677 75.5136C42.2422 75.6392 42.0385 75.6392 41.9142 75.5136Z" fill="white"/>
<path d="M55.328 75.0012C55.2025 74.8756 55.2025 74.6732 55.328 74.5477L56.6629 73.2128C56.7885 73.0873 56.9909 73.0873 57.1164 73.2128C57.2419 73.3384 57.2419 73.5408 57.1164 73.6663L55.7815 75.0012C55.656 75.1267 55.4536 75.1267 55.328 75.0012Z" fill="white"/>
<path d="M59.2201 73.4654C59.0946 73.3399 59.0946 73.1375 59.2201 73.0119L60.0387 72.1921C60.1643 72.0665 60.3667 72.0665 60.4922 72.1921C60.6178 72.3176 60.6178 72.52 60.4922 72.6456L59.6736 73.4654C59.5481 73.591 59.3457 73.591 59.2201 73.4654Z" fill="white"/>
<path d="M47.7289 74.9014C45.1515 74.9014 42.6239 74.5376 40.2155 73.8202C33.1454 71.7154 27.9904 66.85 25.6985 60.1193C20.8767 45.9546 29.6839 27.4907 47.0269 25.2885C51.2352 24.7543 55.6075 25.35 59.3482 26.9693C67.1652 30.3525 72.83 38.0773 73.7819 46.6515C74.7106 55.0322 70.9968 63.892 64.3187 69.2238C59.7312 72.8838 53.8396 74.9014 47.7289 74.9014ZM50.1079 26.3736C42.3844 26.3736 35.0836 30.3205 30.8535 36.1788C25.8446 43.1196 24.3329 52.1344 26.9104 59.7055C29.0639 66.0326 33.9191 70.6099 40.5793 72.593C42.8686 73.2745 45.2744 73.6204 47.7277 73.6204C53.5488 73.6204 59.1573 71.7026 63.518 68.2207C69.8605 63.1567 73.3886 54.7452 72.5072 46.7911C71.6054 38.6666 66.2403 31.3466 58.837 28.144C56.1634 26.9859 53.144 26.3736 50.1079 26.3736Z" fill="white"/>
<path d="M49.1291 90.9864C49.1266 90.9864 49.1227 90.9864 49.1189 90.9864C48.7884 90.9813 48.5155 90.7238 48.4911 90.3946C48.2964 87.8107 47.6149 84.9821 46.4069 81.7474C46.0315 80.7418 45.5767 79.7246 44.794 79.102C43.6193 78.1669 41.5235 78.2629 39.9862 79.2481C38.4066 80.2601 37.2729 81.9652 36.2724 83.4679C36.1199 83.6972 35.8368 83.8022 35.5704 83.7318C35.3039 83.6588 35.1143 83.4243 35.0989 83.1489C35.0118 81.5911 35.5358 79.9245 35.6741 78.4897C35.8048 77.1254 35.5524 76.016 34.9619 75.3677C34.019 74.3288 32.1269 74.4351 29.6288 75.6457L21.3699 79.6529C21.0983 79.7861 20.7703 79.7093 20.5846 79.4697C20.3988 79.2314 20.4052 78.8945 20.6 78.6639C22.7034 76.1646 25.9842 69.3468 24.4943 65.7624C23.9614 64.48 22.8533 63.7844 21.1085 63.6384C19.7519 63.5282 18.3671 63.8395 17.0309 64.1405C16.7132 64.2148 16.3865 64.0304 16.2828 63.7178C16.1777 63.4052 16.3276 63.0657 16.6274 62.9312C19.2984 61.7296 20.9586 59.7029 21.0688 57.5098C21.1675 55.5382 20.0158 53.7127 17.9084 52.4995C15.7178 51.239 12.9892 50.9815 10.5808 50.7547C10.2682 50.7253 10.0235 50.4742 10.0017 50.1616C9.97868 49.849 10.1875 49.5659 10.4924 49.4942C12.8342 48.9356 14.9005 47.9595 17.0886 46.9269C19.2356 45.9136 21.4941 45.1206 22.0757 43.3886C22.5215 42.0589 21.7683 40.587 20.8229 39.7197C19.7122 38.6987 18.2236 38.1388 16.7837 37.5982C16.5031 37.4919 16.3327 37.2075 16.375 36.9103C16.416 36.6144 16.6568 36.3851 16.9553 36.3607C18.7539 36.2096 20.5487 35.8662 22.3934 35.7112C24.0037 35.5754 24.9312 35.2321 25.4013 34.5993C25.874 33.9626 25.9496 32.9313 25.6319 31.4466C24.8966 28.0057 23.2376 24.8299 20.8318 22.2639C20.6179 22.0346 20.6 21.6836 20.7921 21.435C20.9817 21.1878 21.3263 21.1148 21.603 21.2621C22.9391 21.9834 24.2881 22.6547 25.6357 23.3272C27.0001 24.0075 28.3644 24.6877 29.7172 25.4166C30.6485 25.9188 31.7041 26.4876 32.7661 26.4876C34.721 26.4351 36.0815 24.5839 36.4095 22.8686C36.7656 21.0046 36.2929 19.0676 35.6857 16.9103C35.6037 16.6182 35.7382 16.3082 36.0072 16.1686C36.2737 16.0277 36.6068 16.0969 36.7989 16.3326C37.3856 17.0538 37.8942 17.743 38.4041 18.4309C38.9024 19.1035 39.4007 19.7773 39.9747 20.4832C41.7028 22.6086 42.6905 22.6611 44.2329 20.7125C46.7387 17.5483 48.3387 13.5937 48.7397 9.57755C48.7691 9.27906 49.0023 9.04206 49.3008 9.00491C49.5967 8.96776 49.8811 9.14455 49.9823 9.42766C50.4691 10.8086 51.0212 12.1742 51.5554 13.4963C52.0948 14.8312 52.652 16.2109 53.1491 17.6175C53.7755 19.3943 54.5147 21.1801 56.0328 21.8104C57.2895 22.3318 59.0151 21.8476 60.2231 20.6869C61.435 19.5237 62.1511 17.9185 62.8429 16.3659C62.9799 16.0584 63.3374 15.9098 63.6487 16.0251C63.9651 16.1417 64.1367 16.4837 64.0419 16.8078C63.094 20.0207 63.1503 22.6893 64.2021 24.3213C64.7465 25.1681 65.551 25.7036 66.4683 25.8317C67.6955 26.0046 68.8779 25.4077 70.2115 24.6787C71.4337 24.0113 72.7096 23.4784 73.9445 22.9634C75.1487 22.4599 76.3965 21.9386 77.5597 21.3031C77.8185 21.1635 78.1375 21.2147 78.336 21.4299C78.5359 21.6451 78.5628 21.968 78.4039 22.214C76.3043 25.4435 74.6389 28.937 73.4513 32.5983C72.9581 34.1214 72.962 35.1104 73.4654 35.71C73.9573 36.2967 75.232 36.6195 77.055 36.6195C78.9202 36.6195 80.9314 36.2787 82.0972 35.9405C82.3406 35.8701 82.6071 35.9508 82.7698 36.1494C82.9325 36.3466 82.9619 36.6221 82.8441 36.8501C82.3598 37.7917 81.4208 38.5795 80.4267 39.4135C78.8228 40.7612 77.306 42.0346 77.7993 43.7832C78.5102 46.3056 85.7674 48.6833 89.4569 49.2495C89.7375 49.293 89.9552 49.5134 89.9937 49.7939C90.0334 50.0745 89.8835 50.3474 89.626 50.4639C87.0562 51.6387 85.0488 52.4957 83.4692 53.1708C80.1103 54.6056 78.7203 55.1987 78.0593 56.2402C77.2638 57.4944 77.7519 59.2712 78.646 60.3768C79.6811 61.6591 81.2876 62.488 82.7032 63.2194C82.9888 63.3668 83.1208 63.705 83.0106 64.0073C82.9004 64.3096 82.5815 64.4839 82.2689 64.4134C81.1339 64.1585 79.5043 64.0816 78.0747 64.1726C76.6258 64.2635 75.5612 64.749 74.9092 65.615C74.1034 66.6847 73.9343 68.3155 74.407 70.46C75.0578 73.4141 76.3209 76.2837 78.0593 78.7613C78.2297 79.0047 78.2118 79.3339 78.0132 79.5555C77.8146 79.7772 77.4892 79.8322 77.2292 79.6913C75.1526 78.5627 73.1183 77.5853 71.0391 76.4554C69.4237 75.5766 67.7724 74.8246 66.3325 75.1679C64.9912 75.4869 63.86 76.75 63.4501 78.3859C63.0363 80.0346 63.3258 81.7833 63.664 83.277C63.7345 83.5896 63.5641 83.906 63.2631 84.0187C62.9659 84.1302 62.6264 84.0047 62.4752 83.7228C61.7527 82.3841 60.6548 81.0057 59.4622 79.9437C57.1729 77.903 54.7248 78.409 52.8596 81.4169C51.1775 84.1289 50.1053 87.2406 49.7607 90.4138C49.7312 90.7405 49.4558 90.9864 49.1291 90.9864ZM42.702 77.1459C43.8089 77.1459 44.8081 77.4751 45.5908 78.099C46.617 78.9163 47.1653 80.1205 47.6047 81.2991C48.308 83.1822 48.8396 84.936 49.206 86.5911C49.785 84.5337 50.651 82.5532 51.7758 80.7418C53.4886 77.9798 55.3653 77.3995 56.6374 77.3995C57.88 77.3995 59.1534 77.9478 60.3192 78.9867C60.9059 79.5094 61.4721 80.1038 61.9897 80.7315C61.9423 79.8617 61.9897 78.9573 62.2126 78.0746C62.7378 75.9801 64.2405 74.3506 66.0404 73.9227C67.9966 73.4577 69.89 74.3711 71.6553 75.3306C73.076 76.1031 74.4467 76.7884 75.7278 77.4508C74.5505 75.3537 73.6742 73.0695 73.1605 70.7354C72.6046 68.2092 72.8492 66.2261 73.8895 64.8451C74.7644 63.6832 76.1851 63.0081 77.9978 62.8953C78.4757 62.8646 78.9842 62.8454 79.4979 62.8543C78.8215 62.3855 78.1861 61.8423 77.6532 61.1826C76.5092 59.767 75.811 57.4009 76.9819 55.5549C77.8556 54.1764 79.3532 53.5372 82.9709 51.9935C84.1533 51.4875 85.5778 50.8803 87.2996 50.1129C83.7293 49.2585 77.4393 47.2126 76.5707 44.1316C75.8533 41.5862 77.935 39.8375 79.6081 38.4335C79.9514 38.1453 80.2871 37.8634 80.5907 37.5854C79.5082 37.7686 78.254 37.9018 77.0588 37.9018C74.7875 37.9018 73.2502 37.4419 72.4893 36.535C71.4196 35.2603 71.8334 33.4527 72.2382 32.205C73.231 29.142 74.5505 26.193 76.1697 23.4105C75.592 23.668 75.0129 23.9101 74.4429 24.1471C73.24 24.6506 71.9935 25.1707 70.8316 25.8061C69.5415 26.5107 68.2682 27.1435 66.8885 27.1435C66.6925 27.1435 66.4939 27.1307 66.2966 27.1025C65.0053 26.9219 63.8818 26.1814 63.1311 25.0182C62.5457 24.1087 62.0089 22.6675 62.0973 20.4794C61.8039 20.8803 61.4798 21.2634 61.1147 21.6144C59.5467 23.1197 57.2587 23.709 55.5447 22.998C53.5411 22.1653 52.6354 20.0067 51.9436 18.0479C51.4568 16.6669 50.9047 15.3013 50.3705 13.9793C50.1271 13.3759 49.8798 12.7648 49.6364 12.1448C48.9088 15.5422 47.3882 18.7999 45.2424 21.5106C43.185 24.1087 41.2672 24.0997 38.9857 21.2941C38.4989 20.6933 38.0633 20.1168 37.638 19.5442C37.8443 20.7497 37.8993 21.9232 37.6726 23.112C37.2498 25.318 35.4307 27.7008 32.8878 27.7712C32.8866 27.7712 32.884 27.7712 32.8827 27.7712C31.3826 27.7712 30.1246 27.0935 29.1138 26.5478C27.7726 25.8253 26.421 25.1515 25.0682 24.4763C24.6147 24.2496 24.1587 24.0241 23.7052 23.7948C25.2348 26.0162 26.3198 28.5258 26.8873 31.1827C27.2858 33.0492 27.1372 34.4174 26.4326 35.3666C25.5256 36.59 23.8564 36.8783 22.5036 36.991C21.4954 37.0756 20.5282 37.2152 19.5303 37.3523C20.2989 37.7289 21.0445 38.185 21.6927 38.7807C22.943 39.9285 23.923 41.9269 23.294 43.8011C22.5151 46.1173 19.9107 47.0166 17.6381 48.0901C16.3148 48.7153 15.0337 49.3199 13.7014 49.8311C15.363 50.0924 17.0412 50.5267 18.549 51.3953C21.0868 52.8557 22.4728 55.1103 22.3485 57.5789C22.2602 59.3571 21.3776 61.0288 19.8851 62.3611C20.3271 62.3304 20.7703 62.3291 21.2161 62.3663C24.0011 62.5981 25.1797 64.0752 25.678 65.2743C27.0564 68.5909 25.0618 74.0085 23.0121 77.4354L29.0703 74.4966C32.1499 73.0016 34.5686 73.0324 35.9099 74.5082C36.7579 75.442 37.1166 76.8615 36.9488 78.6152C36.8822 79.3096 36.7297 80.0731 36.6055 80.7597C37.3549 79.7848 38.2196 78.8612 39.2944 78.1733C40.3231 77.5097 41.5337 77.1459 42.702 77.1459Z" fill="white"/>
<path d="M71.818 62.5123L70.3807 61.075C70.2551 60.9495 70.2551 60.747 70.3807 60.6215C70.5062 60.496 70.7086 60.496 70.8342 60.6215L72.2715 62.0589C72.397 62.1844 72.397 62.3868 72.2715 62.5123C72.146 62.6379 71.9435 62.6379 71.818 62.5123Z" fill="white"/>
<path d="M72.5328 60.0513L71.3042 58.8228C71.1787 58.6973 71.1787 58.4948 71.3042 58.3693C71.4298 58.2438 71.6322 58.2438 71.7577 58.3693L72.9863 59.5978C73.1118 59.7234 73.1118 59.9258 72.9863 60.0513C72.8594 60.1756 72.657 60.1756 72.5328 60.0513Z" fill="white"/>
<path d="M73.3682 57.8146L72.123 56.5694C71.9974 56.4438 71.9974 56.2414 72.123 56.1159C72.2485 55.9903 72.4509 55.9903 72.5765 56.1159L73.8217 57.3611C73.9472 57.4866 73.9472 57.689 73.8217 57.8146C73.6961 57.9401 73.4937 57.9401 73.3682 57.8146Z" fill="white"/>
<path d="M74.3993 55.1589L72.9414 53.7011C72.8159 53.5756 72.8159 53.3731 72.9414 53.2476C73.067 53.1221 73.2694 53.1221 73.3949 53.2476L74.8528 54.7054C74.9783 54.831 74.9783 55.0334 74.8528 55.1589C74.726 55.2845 74.5236 55.2845 74.3993 55.1589Z" fill="white"/>
<path d="M74.484 51.9677L73.3503 50.834C73.2247 50.7084 73.2247 50.506 73.3503 50.3818C73.4758 50.2562 73.6782 50.2562 73.8038 50.3818L74.9375 51.5155C75.063 51.641 75.063 51.8434 74.9375 51.9677C74.8119 52.0933 74.6095 52.0933 74.484 51.9677Z" fill="white"/>
<path d="M74.8452 48.0272L73.5564 46.7384C73.4309 46.6129 73.4309 46.4105 73.5564 46.285C73.682 46.1594 73.8844 46.1594 74.0099 46.285L75.2987 47.5737C75.4242 47.6992 75.4242 47.9017 75.2987 48.0259C75.1731 48.1527 74.9707 48.1527 74.8452 48.0272Z" fill="white"/>
<path d="M74.0176 45.8686L72.6341 44.485C72.5085 44.3595 72.5085 44.1571 72.6341 44.0315C72.7596 43.906 72.962 43.906 73.0876 44.0315L74.4711 45.4151C74.5967 45.5406 74.5967 45.743 74.4711 45.8686C74.3456 45.9941 74.1432 45.9941 74.0176 45.8686Z" fill="white"/>
<path d="M73.4681 43.1681L71.918 41.6193C71.6208 41.3221 72.0704 40.866 72.3715 41.1658L73.9216 42.7146C74.0471 42.8401 74.0471 43.0425 73.9216 43.1681C73.7948 43.2936 73.5923 43.2936 73.4681 43.1681Z" fill="white"/>
<path d="M71.3029 40.1412L72.6941 38.7499C72.8197 38.6244 73.0221 38.6244 73.1476 38.7499C73.2732 38.8755 73.2732 39.0779 73.1476 39.2034L71.7564 40.5934C71.4579 40.8919 71.0031 40.4422 71.3029 40.1412Z" fill="white"/>
<path d="M70.382 38.0939L71.2262 37.2497C71.3518 37.1241 71.5542 37.1241 71.6797 37.2497C71.8053 37.3752 71.8053 37.5776 71.6797 37.7032L70.8355 38.5474C70.537 38.8446 70.081 38.3937 70.382 38.0939Z" fill="white"/>
<path d="M68.9485 36.3953C68.823 36.2698 68.823 36.0674 68.9485 35.9418L69.7671 35.1232C69.8927 34.9977 70.0951 34.9977 70.2206 35.1232C70.3462 35.2488 70.3462 35.4512 70.2206 35.5754L69.402 36.394C69.2765 36.5208 69.0728 36.5208 68.9485 36.3953Z" fill="white"/>
<path d="M67.9236 34.5531C67.7981 34.4276 67.7981 34.2252 67.9236 34.0996L68.796 33.2272C68.9216 33.1017 69.124 33.1017 69.2495 33.2272C69.3751 33.3528 69.3751 33.5552 69.2495 33.6807L68.3771 34.5531C68.2516 34.6787 68.0492 34.6787 67.9236 34.5531Z" fill="white"/>
<path d="M65.9776 32.4022C65.852 32.2767 65.852 32.0743 65.9776 31.95L67.0216 30.9059C67.1472 30.7804 67.3496 30.7804 67.4751 30.9059C67.6007 31.0315 67.6007 31.2339 67.4751 31.3594L66.4311 32.4035C66.3055 32.5277 66.1031 32.5277 65.9776 32.4022Z" fill="white"/>
<path d="M64.1342 30.8663C64.0087 30.7407 64.0087 30.5383 64.1342 30.4128L65.0412 29.5058C65.1667 29.3802 65.3691 29.3802 65.4947 29.5058C65.6202 29.6313 65.6202 29.8337 65.4947 29.9593L64.5877 30.8663C64.4621 30.9918 64.2597 30.9918 64.1342 30.8663Z" fill="white"/>
<path d="M61.882 29.1251C61.7565 28.9995 61.7565 28.7971 61.882 28.6716L63.0695 27.4841C63.1951 27.3585 63.3975 27.3585 63.523 27.4841C63.6486 27.6096 63.6486 27.812 63.523 27.9375L62.3355 29.1251C62.21 29.2506 62.0075 29.2506 61.882 29.1251Z" fill="white"/>
<path d="M59.2201 28.3066C59.0946 28.1811 59.0946 27.9787 59.2201 27.8532L60.4487 26.6233C60.5742 26.4978 60.7766 26.4978 60.9022 26.6233C61.0277 26.7489 61.0277 26.9513 60.9022 27.0768L59.6736 28.3066C59.5481 28.4322 59.3457 28.4322 59.2201 28.3066Z" fill="white"/>
<path d="M56.3532 26.6681C56.2276 26.5426 56.2276 26.3402 56.3532 26.2159L57.9481 24.621C58.0737 24.4955 58.2761 24.4955 58.4016 24.621C58.5271 24.7466 58.5271 24.949 58.4016 25.0745L56.8067 26.6694C56.6811 26.7924 56.4775 26.7924 56.3532 26.6681Z" fill="white"/>
<path d="M53.8947 26.1556C53.7692 26.0301 53.7692 25.8277 53.8947 25.7021L55.4896 24.1072C55.6152 23.9817 55.8176 23.9817 55.9431 24.1072C56.0687 24.2328 56.0687 24.4352 55.9431 24.5607L54.3482 26.1556C54.2226 26.2812 54.0202 26.2812 53.8947 26.1556Z" fill="white"/>
<path d="M51.2326 25.8483C51.107 25.7227 51.107 25.5203 51.2326 25.396L52.6161 24.0125C52.7417 23.8869 52.9441 23.8869 53.0696 24.0125C53.1952 24.138 53.1952 24.3404 53.0696 24.4647L51.6861 25.8483C51.5593 25.9738 51.3568 25.9738 51.2326 25.8483Z" fill="white"/>
<path d="M48.4668 25.7034L49.7979 24.3711C49.9234 24.2456 50.1258 24.2456 50.2513 24.3711C50.3769 24.4967 50.3769 24.6991 50.2513 24.8233L48.9203 26.1557C48.6218 26.4541 48.1671 26.0032 48.4668 25.7034Z" fill="white"/>
<path d="M45.805 25.7036L47.5459 23.9627C47.6715 23.8371 47.8739 23.8371 47.9994 23.9627C48.125 24.0882 48.125 24.2906 47.9994 24.4162L46.2585 26.1571C45.96 26.4544 45.5052 26.0034 45.805 25.7036Z" fill="white"/>
<path d="M43.0402 26.6681C42.9147 26.5426 42.9147 26.3402 43.0402 26.2159L44.8862 24.3699C45.0118 24.2444 45.2142 24.2444 45.3397 24.3699C45.4653 24.4955 45.4653 24.6979 45.3397 24.8234L43.4937 26.6694C43.3682 26.7924 43.1657 26.7924 43.0402 26.6681Z" fill="white"/>
<path d="M46.0555 33.5035C45.8954 33.4292 45.8249 33.2383 45.8992 33.0782C45.9748 32.918 46.1644 32.8476 46.3245 32.9219L47.4519 33.4433L48.7432 32.1532C48.8687 32.0277 49.0711 32.0277 49.1967 32.1532C49.3222 32.2788 49.3222 32.4812 49.1967 32.6067C47.2508 34.5501 48.0104 34.4053 46.0555 33.5035Z" fill="white"/>
<path d="M37.1526 29.3826L35.974 28.204C35.8485 28.0785 35.8485 27.8761 35.974 27.7505C36.0996 27.625 36.302 27.625 36.4275 27.7505L37.6061 28.9291C37.7317 29.0546 37.7317 29.2571 37.6061 29.3826C37.4806 29.5069 37.2782 29.5069 37.1526 29.3826Z" fill="white"/>
<path d="M34.2869 31.0211L33.4145 30.1487C33.2889 30.0232 33.2889 29.8208 33.4145 29.6952C33.54 29.5697 33.7424 29.5697 33.8667 29.6952L34.7391 30.5676C34.8646 30.6932 34.8646 30.8956 34.7391 31.0198C34.6135 31.1467 34.4111 31.1467 34.2869 31.0211Z" fill="white"/>
<path d="M32.0438 32.9763L30.9574 31.8899C30.8319 31.7644 30.8319 31.562 30.9574 31.4364C31.083 31.3109 31.2854 31.3109 31.4109 31.4364L32.4973 32.5228C32.7996 32.8277 32.3371 33.2696 32.0438 32.9763Z" fill="white"/>
<path d="M29.8351 35.5832L28.9076 34.6557C28.7821 34.5301 28.7821 34.3277 28.9076 34.2022C29.0332 34.0766 29.2356 34.0766 29.3611 34.2022L30.2886 35.1297C30.4142 35.2552 30.4142 35.4576 30.2886 35.5832C30.1631 35.7074 29.9607 35.7074 29.8351 35.5832Z" fill="white"/>
<path d="M28.1493 39.0151L26.6569 37.5214C26.5314 37.3959 26.5314 37.1935 26.6569 37.0679C26.7824 36.9424 26.9849 36.9424 27.1104 37.0679L28.6028 38.5616C28.7284 38.6872 28.7284 38.8896 28.6028 39.0151C28.476 39.1407 28.2736 39.1407 28.1493 39.0151Z" fill="white"/>
<path d="M27.1716 41.0071L25.7343 39.5697C25.6088 39.4442 25.6088 39.2418 25.7343 39.1163C25.8598 38.9907 26.0622 38.9907 26.1878 39.1163L27.6251 40.5536C27.7507 40.6791 27.7507 40.8816 27.6251 41.0071C27.4996 41.1326 27.2972 41.1326 27.1716 41.0071Z" fill="white"/>
<path d="M26.2621 43.0669L24.9145 41.7205C24.7889 41.595 24.7889 41.3926 24.9145 41.267C25.04 41.1415 25.2424 41.1415 25.368 41.267L26.7156 42.6134C26.8412 42.7389 26.8412 42.9414 26.7156 43.0669C26.5901 43.1924 26.3877 43.1924 26.2621 43.0669Z" fill="white"/>
<path d="M25.172 45.5626L23.686 44.0766C23.5604 43.951 23.5604 43.7486 23.686 43.6231C23.8115 43.4975 24.0139 43.4975 24.1395 43.6231L25.6255 45.1091C25.751 45.2347 25.751 45.4371 25.6255 45.5626C25.4999 45.6869 25.2962 45.6869 25.172 45.5626Z" fill="white"/>
<path d="M24.4548 49.043L23.0712 47.6595C22.9457 47.5339 22.9457 47.3315 23.0712 47.206C23.1968 47.0804 23.3992 47.0804 23.5234 47.206L24.907 48.5895C25.0325 48.7151 25.0325 48.9175 24.907 49.0417C24.7827 49.1686 24.5803 49.1686 24.4548 49.043Z" fill="white"/>
<path d="M24.6237 52.4891L23.2773 51.1414C23.1517 51.0159 23.1517 50.8135 23.2773 50.6879C23.4028 50.5624 23.6052 50.5624 23.7308 50.6879L25.0772 52.0356C25.2027 52.1611 25.2027 52.3635 25.0772 52.4878C24.9503 52.6146 24.7479 52.6146 24.6237 52.4891Z" fill="white"/>
<path d="M24.6596 55.9047L23.276 54.5212C23.1505 54.3956 23.1505 54.1932 23.276 54.0677C23.4016 53.9421 23.604 53.9421 23.7295 54.0677L25.1131 55.4512C25.2386 55.5768 25.2386 55.7792 25.1131 55.9047C24.9875 56.0303 24.7851 56.0303 24.6596 55.9047Z" fill="white"/>
<path d="M25.0709 58.9777L24.4035 58.3102C24.2779 58.1847 24.2779 57.9823 24.4035 57.8567C24.529 57.7312 24.7314 57.7312 24.857 57.8567C25.199 58.1988 25.8472 58.6536 25.5244 58.9777C25.3989 59.1019 25.1952 59.1019 25.0709 58.9777Z" fill="white"/>
<path d="M26.1856 62.3443L25.0173 61.1773C24.8917 61.0517 24.8917 60.8493 25.0173 60.7238C25.1428 60.5983 25.3452 60.5983 25.4695 60.7238L26.6378 61.8908C26.7633 62.0164 26.7633 62.2188 26.6378 62.3443C26.5135 62.4699 26.3098 62.4699 26.1856 62.3443Z" fill="white"/>
<path d="M29.9312 46.5977C29.9043 46.5977 29.8761 46.5939 29.8479 46.5862C29.6776 46.5401 29.5764 46.3633 29.6225 46.1929C31.2866 40.0797 35.6998 34.8158 41.4287 32.1102C47.1589 29.4059 54.028 29.3431 59.8055 31.9424C59.967 32.0154 60.0387 32.205 59.9657 32.3664C59.8927 32.5291 59.7005 32.5996 59.5416 32.5265C53.9332 30.0029 47.264 30.0631 41.7016 32.6892C36.1392 35.3154 31.8541 40.4256 30.2387 46.3594C30.2015 46.5042 30.0734 46.5977 29.9312 46.5977Z" fill="white"/>
<path d="M31.6322 43.8752L29.9463 43.4332C29.7759 43.3884 29.6735 43.2141 29.7183 43.0425C29.7631 42.8721 29.9348 42.7658 30.109 42.8145L31.7936 43.2564C31.9653 43.3013 32.0678 43.4755 32.0229 43.6471C31.9768 43.8227 31.7949 43.9213 31.6322 43.8752Z" fill="white"/>
<path d="M32.5268 41.8781L31.2663 41.0224C31.1202 40.9224 31.0818 40.7239 31.1804 40.5778C31.2816 40.4318 31.4802 40.3946 31.625 40.492L32.8855 41.3465C33.0316 41.4464 33.07 41.645 32.9714 41.791C32.8714 41.9383 32.6741 41.978 32.5268 41.8781Z" fill="white"/>
<path d="M34.6647 39.0432L33.3196 38.1272C33.1735 38.0273 33.1364 37.8288 33.235 37.6827C33.3362 37.5354 33.5348 37.4995 33.6796 37.5982L35.0247 38.5141C35.1707 38.6141 35.2079 38.8126 35.1092 38.9587C35.0119 39.1034 34.812 39.1444 34.6647 39.0432Z" fill="white"/>
<path d="M36.2586 37.2127L34.8135 36.0264C34.6777 35.915 34.6572 35.7126 34.7687 35.5755C34.8801 35.4397 35.0813 35.4192 35.2196 35.5307L36.6647 36.7169C36.8005 36.8296 36.8209 37.0308 36.7095 37.1678C36.5968 37.3049 36.3944 37.3241 36.2586 37.2127Z" fill="white"/>
<path d="M38.0173 35.4731L36.8605 33.8639C36.7567 33.7204 36.7901 33.5194 36.9335 33.4169C37.0757 33.3132 37.2781 33.3451 37.3806 33.4898L38.5374 35.099C38.6412 35.2425 38.6079 35.4422 38.4644 35.5459C38.3235 35.6471 38.1236 35.6191 38.0173 35.4731Z" fill="white"/>
<path d="M40.2526 34.243L39.0932 32.4495C38.9971 32.3009 39.0394 32.1024 39.188 32.0063C39.3353 31.9128 39.5352 31.9525 39.6313 32.1011L40.7906 33.8946C40.8867 34.0432 40.8431 34.2417 40.6958 34.3378C40.5485 34.4339 40.3499 34.3929 40.2526 34.243Z" fill="white"/>
<path d="M43.5334 32.8994C43.0364 32.2934 42.7622 31.4966 42.7815 30.7113C42.7853 30.5346 42.9634 30.3949 43.1094 30.3988C43.2862 30.4026 43.4258 30.5499 43.422 30.7267C43.4053 31.3596 43.627 32.0039 44.0279 32.492C44.1394 32.6291 44.1202 32.8302 43.9831 32.9429C43.8511 33.0544 43.6487 33.0377 43.5334 32.8994Z" fill="white"/>
<path d="M45.888 32.3804C45.5447 31.6412 45.3282 30.856 45.2436 30.045C45.2257 29.8695 45.3538 29.712 45.5293 29.694C45.7048 29.6684 45.8624 29.8042 45.8803 29.9797C45.9572 30.7202 46.1545 31.4376 46.467 32.1127C46.5413 32.2728 46.4722 32.4624 46.312 32.538C46.157 32.6097 45.9636 32.5431 45.888 32.3804Z" fill="white"/>
<path d="M48.8051 31.622L48.4926 29.7876C48.4631 29.6133 48.5809 29.4481 48.7552 29.4173C48.9281 29.3904 49.0947 29.5057 49.1241 29.68L49.4367 31.5144C49.4662 31.6887 49.3496 31.8539 49.1741 31.8847C49.0037 31.9128 48.8346 31.7988 48.8051 31.622Z" fill="white"/>
<path d="M52.2589 31.886C52.2537 31.886 52.2499 31.886 52.2448 31.886C52.068 31.8783 51.9309 31.7284 51.9399 31.5516L52.0283 29.6262C52.0359 29.4494 52.1807 29.3072 52.3626 29.3213C52.5394 29.329 52.6765 29.4788 52.6675 29.6556L52.5791 31.5798C52.5714 31.7527 52.4292 31.886 52.2589 31.886Z" fill="white"/>
<path d="M55.2078 32.0743C55.2001 32.0743 55.1911 32.0743 55.1821 32.0743C55.0066 32.0602 54.8734 31.9065 54.8875 31.731L55.0105 30.0899C55.0233 29.9132 55.1642 29.7748 55.3538 29.794C55.5293 29.8081 55.6625 29.9618 55.6484 30.1386L55.5255 31.7797C55.5127 31.9462 55.373 32.0743 55.2078 32.0743Z" fill="white"/>
<path d="M57.2689 32.7211C57.1229 32.6212 57.0845 32.4226 57.1831 32.2766C57.4701 31.8526 57.62 31.3376 57.6033 30.8251C57.5982 30.6484 57.7365 30.4998 57.9133 30.4946C58.1119 30.4998 58.2374 30.6279 58.2438 30.8046C58.2643 31.4516 58.076 32.1024 57.7135 32.6366C57.6136 32.7813 57.4163 32.8198 57.2689 32.7211Z" fill="white"/>
</svg>
