<svg width="64" height="64" viewBox="0 0 64 64" fill="none" xmlns="http://www.w3.org/2000/svg">
<path d="M30.225 51.4441C28.213 51.4441 26.24 51.1601 24.36 50.6001C18.841 48.9571 14.817 45.1591 13.028 39.9051C9.26404 28.8481 16.139 14.4351 29.677 12.7161C32.962 12.2991 36.375 12.7641 39.295 14.0281C45.397 16.6691 49.819 22.6991 50.562 29.3921C51.287 35.9341 48.388 42.8501 43.175 47.0121C39.594 49.8691 34.995 51.4441 30.225 51.4441ZM32.082 13.5631C26.053 13.5631 20.354 16.6441 17.052 21.2171C13.142 26.6351 11.962 33.6721 13.974 39.5821C15.655 44.5211 19.445 48.0941 24.644 49.6421C26.431 50.1741 28.309 50.4441 30.224 50.4441C34.768 50.4441 39.146 48.9471 42.55 46.2291C47.501 42.2761 50.255 35.7101 49.567 29.5011C48.863 23.1591 44.675 17.4451 38.896 14.9451C36.809 14.0411 34.452 13.5631 32.082 13.5631Z" fill="white"/>
<path d="M31.318 64.0001C31.316 64.0001 31.313 64.0001 31.31 64.0001C31.052 63.9961 30.839 63.7951 30.82 63.5381C30.668 61.5211 30.136 59.3131 29.193 56.7881C28.9 56.0031 28.545 55.2091 27.934 54.7231C27.017 53.9931 25.381 54.0681 24.181 54.8371C22.948 55.6271 22.063 56.9581 21.282 58.1311C21.163 58.3101 20.942 58.3921 20.734 58.3371C20.526 58.2801 20.378 58.0971 20.366 57.8821C20.298 56.6661 20.707 55.3651 20.815 54.2451C20.917 53.1801 20.72 52.3141 20.259 51.8081C19.523 50.9971 18.046 51.0801 16.096 52.0251L9.64904 55.1531C9.43704 55.2571 9.18104 55.1971 9.03604 55.0101C8.89104 54.8241 8.89604 54.5611 9.04804 54.3811C10.69 52.4301 13.251 47.1081 12.088 44.3101C11.672 43.3091 10.807 42.7661 9.44504 42.6521C8.38604 42.5661 7.30504 42.8091 6.26204 43.0441C6.01404 43.1021 5.75904 42.9581 5.67804 42.7141C5.59604 42.4701 5.71304 42.2051 5.94704 42.1001C8.03204 41.1621 9.32804 39.5801 9.41404 37.8681C9.49104 36.3291 8.59204 34.9041 6.94704 33.9571C5.23704 32.9731 3.10704 32.7721 1.22704 32.5951C0.983038 32.5721 0.792038 32.3761 0.775038 32.1321C0.757038 31.8881 0.920038 31.6671 1.15804 31.6111C2.98604 31.1751 4.59904 30.4131 6.30704 29.6071C7.98304 28.8161 9.74604 28.1971 10.2 26.8451C10.548 25.8071 9.96004 24.6581 9.22204 23.9811C8.35504 23.1841 7.19304 22.7471 6.06904 22.3251C5.85004 22.2421 5.71704 22.0201 5.75004 21.7881C5.78204 21.5571 5.97004 21.3781 6.20304 21.3591C7.60704 21.2411 9.00804 20.9731 10.448 20.8521C11.705 20.7461 12.429 20.4781 12.796 19.9841C13.165 19.4871 13.224 18.6821 12.976 17.5231C12.402 14.8371 11.107 12.3581 9.22904 10.3551C9.06204 10.1761 9.04804 9.90205 9.19804 9.70805C9.34604 9.51505 9.61504 9.45805 9.83104 9.57305C10.874 10.1361 11.927 10.6601 12.979 11.1851C14.044 11.7161 15.109 12.2471 16.165 12.8161C16.892 13.2081 17.716 13.6521 18.545 13.6521C20.071 13.6111 21.133 12.1661 21.389 10.8271C21.667 9.37205 21.298 7.86005 20.824 6.17605C20.76 5.94805 20.865 5.70605 21.075 5.59705C21.283 5.48705 21.543 5.54105 21.693 5.72505C22.151 6.28805 22.548 6.82605 22.946 7.36305C23.335 7.88805 23.724 8.41405 24.172 8.96505C25.521 10.6241 26.292 10.6651 27.496 9.14405C29.452 6.67405 30.701 3.58705 31.014 0.452055C31.037 0.219055 31.219 0.0340545 31.452 0.00505452C31.683 -0.0239455 31.905 0.114055 31.984 0.335055C32.364 1.41305 32.795 2.47905 33.212 3.51105C33.633 4.55305 34.068 5.63005 34.456 6.72805C34.945 8.11505 35.522 9.50905 36.707 10.0011C37.688 10.4081 39.035 10.0301 39.978 9.12405C40.924 8.21605 41.483 6.96305 42.023 5.75105C42.13 5.51105 42.409 5.39505 42.652 5.48505C42.899 5.57605 43.033 5.84305 42.959 6.09605C42.219 8.60405 42.263 10.6871 43.084 11.9611C43.509 12.6221 44.137 13.0401 44.853 13.1401C45.811 13.2751 46.734 12.8091 47.775 12.2401C48.729 11.7191 49.725 11.3031 50.689 10.9011C51.629 10.5081 52.603 10.1011 53.511 9.60505C53.713 9.49605 53.962 9.53605 54.117 9.70405C54.273 9.87205 54.294 10.1241 54.17 10.3161C52.531 12.8371 51.231 15.5641 50.304 18.4221C49.919 19.6111 49.922 20.3831 50.315 20.8511C50.699 21.3091 51.694 21.5611 53.117 21.5611C54.573 21.5611 56.143 21.2951 57.053 21.0311C57.243 20.9761 57.451 21.0391 57.578 21.1941C57.705 21.3481 57.728 21.5631 57.636 21.7411C57.258 22.4761 56.525 23.0911 55.749 23.7421C54.497 24.7941 53.313 25.7881 53.698 27.1531C54.253 29.1221 59.918 30.9781 62.798 31.4201C63.017 31.4541 63.187 31.6261 63.217 31.8451C63.248 32.0641 63.131 32.2771 62.93 32.3681C60.924 33.2851 59.357 33.9541 58.124 34.4811C55.502 35.6011 54.417 36.0641 53.901 36.8771C53.28 37.8561 53.661 39.2431 54.359 40.1061C55.167 41.1071 56.421 41.7541 57.526 42.3251C57.749 42.4401 57.852 42.7041 57.766 42.9401C57.68 43.1761 57.431 43.3121 57.187 43.2571C56.301 43.0581 55.029 42.9981 53.913 43.0691C52.782 43.1401 51.951 43.5191 51.442 44.1951C50.813 45.0301 50.681 46.3031 51.05 47.9771C51.558 50.2831 52.544 52.5231 53.901 54.4571C54.034 54.6471 54.02 54.9041 53.865 55.0771C53.71 55.2501 53.456 55.2931 53.253 55.1831C51.632 54.3021 50.044 53.5391 48.421 52.6571C47.16 51.9711 45.871 51.3841 44.747 51.6521C43.7 51.9011 42.817 52.8871 42.497 54.1641C42.174 55.4511 42.4 56.8161 42.664 57.9821C42.719 58.2261 42.586 58.4731 42.351 58.5611C42.119 58.6481 41.854 58.5501 41.736 58.3301C41.172 57.2851 40.315 56.2091 39.384 55.3801C37.597 53.7871 35.686 54.1821 34.23 56.5301C32.917 58.6471 32.08 61.0761 31.811 63.5531C31.788 63.8081 31.573 64.0001 31.318 64.0001ZM26.301 53.1961C27.165 53.1961 27.945 53.4531 28.556 53.9401C29.357 54.5781 29.785 55.5181 30.128 56.4381C30.677 57.9081 31.092 59.2771 31.378 60.5691C31.83 58.9631 32.506 57.4171 33.384 56.0031C34.721 53.8471 36.186 53.3941 37.179 53.3941C38.149 53.3941 39.143 53.8221 40.053 54.6331C40.511 55.0411 40.953 55.5051 41.357 55.9951C41.32 55.3161 41.357 54.6101 41.531 53.9211C41.941 52.2861 43.114 51.0141 44.519 50.6801C46.046 50.3171 47.524 51.0301 48.902 51.7791C50.011 52.3821 51.081 52.9171 52.081 53.4341C51.162 51.7971 50.478 50.0141 50.077 48.1921C49.643 46.2201 49.834 44.6721 50.646 43.5941C51.329 42.6871 52.438 42.1601 53.853 42.0721C54.226 42.0481 54.623 42.0331 55.024 42.0401C54.496 41.6741 54 41.2501 53.584 40.7351C52.691 39.6301 52.146 37.7831 53.06 36.3421C53.742 35.2661 54.911 34.7671 57.735 33.5621C58.658 33.1671 59.77 32.6931 61.114 32.0941C58.327 31.4271 53.417 29.8301 52.739 27.4251C52.179 25.4381 53.804 24.0731 55.11 22.9771C55.378 22.7521 55.64 22.5321 55.877 22.3151C55.032 22.4581 54.053 22.5621 53.12 22.5621C51.347 22.5621 50.147 22.2031 49.553 21.4951C48.718 20.5001 49.041 19.0891 49.357 18.1151C50.132 15.7241 51.162 13.4221 52.426 11.2501C51.975 11.4511 51.523 11.6401 51.078 11.8251C50.139 12.2181 49.166 12.6241 48.259 13.1201C47.252 13.6701 46.258 14.1641 45.181 14.1641C45.028 14.1641 44.873 14.1541 44.719 14.1321C43.711 13.9911 42.834 13.4131 42.248 12.5051C41.791 11.7951 41.372 10.6701 41.441 8.96205C41.212 9.27505 40.959 9.57405 40.674 9.84805C39.45 11.0231 37.664 11.4831 36.326 10.9281C34.762 10.2781 34.055 8.59305 33.515 7.06405C33.135 5.98605 32.704 4.92005 32.287 3.88805C32.097 3.41705 31.904 2.94005 31.714 2.45605C31.146 5.10805 29.959 7.65105 28.284 9.76705C26.678 11.7951 25.181 11.7881 23.4 9.59805C23.02 9.12905 22.68 8.67905 22.348 8.23205C22.509 9.17305 22.552 10.0891 22.375 11.0171C22.045 12.7391 20.625 14.5991 18.64 14.6541C18.639 14.6541 18.637 14.6541 18.636 14.6541C17.465 14.6541 16.483 14.1251 15.694 13.6991C14.647 13.1351 13.592 12.6091 12.536 12.0821C12.182 11.9051 11.826 11.7291 11.472 11.5501C12.666 13.2841 13.513 15.2431 13.956 17.3171C14.267 18.7741 14.151 19.8421 13.601 20.5831C12.893 21.5381 11.59 21.7631 10.534 21.8511C9.74704 21.9171 8.99204 22.0261 8.21304 22.1331C8.81304 22.4271 9.39504 22.7831 9.90104 23.2481C10.877 24.1441 11.642 25.7041 11.151 27.1671C10.543 28.9751 8.51004 29.6771 6.73604 30.5151C5.70304 31.0031 4.70304 31.4751 3.66304 31.8741C4.96004 32.0781 6.27004 32.4171 7.44704 33.0951C9.42804 34.2351 10.51 35.9951 10.413 37.9221C10.344 39.3101 9.65504 40.6151 8.49004 41.6551C8.83504 41.6311 9.18104 41.6301 9.52904 41.6591C11.703 41.8401 12.623 42.9931 13.012 43.9291C14.088 46.5181 12.531 50.7471 10.931 53.4221L15.66 51.1281C18.064 49.9611 19.952 49.9851 20.999 51.1371C21.661 51.8661 21.941 52.9741 21.81 54.3431C21.758 54.8851 21.639 55.4811 21.542 56.0171C22.127 55.2561 22.802 54.5351 23.641 53.9981C24.444 53.4801 25.389 53.1961 26.301 53.1961Z" fill="white"/>
<path d="M41.5081 49.8401L40.3931 48.7251C40.2951 48.6271 40.2951 48.4691 40.3931 48.3711C40.4911 48.2731 40.6491 48.2731 40.7471 48.3711L41.8621 49.4861C41.9601 49.5841 41.9601 49.7421 41.8621 49.8401C41.7641 49.9371 41.6061 49.9371 41.5081 49.8401Z" fill="white"/>
<path d="M42.7581 48.931L41.6721 47.846C41.5741 47.748 41.5741 47.59 41.6721 47.492C41.7701 47.394 41.9281 47.394 42.0261 47.492L43.1121 48.577C43.2101 48.675 43.2101 48.833 43.1121 48.931C43.0141 49.028 42.8561 49.028 42.7581 48.931Z" fill="white"/>
<path d="M44.031 47.886L42.791 46.646C42.693 46.548 42.693 46.39 42.791 46.293C42.889 46.195 43.047 46.195 43.145 46.293L44.385 47.533C44.483 47.631 44.483 47.789 44.385 47.887C44.287 47.984 44.129 47.984 44.031 47.886Z" fill="white"/>
<path d="M45.55 46.767L44.23 45.447C44.132 45.349 44.132 45.191 44.23 45.093C44.328 44.995 44.486 44.995 44.584 45.093L45.904 46.413C46.002 46.511 46.002 46.669 45.904 46.767C45.806 46.864 45.648 46.864 45.55 46.767Z" fill="white"/>
<path d="M47.369 45.069L45.989 43.689C45.891 43.591 45.891 43.433 45.989 43.335C46.087 43.237 46.245 43.237 46.343 43.335L47.723 44.715C47.821 44.813 47.821 44.971 47.723 45.069C47.625 45.166 47.467 45.166 47.369 45.069Z" fill="white"/>
<path d="M48.0779 43.3802L46.8679 42.1702C46.7699 42.0722 46.7699 41.9142 46.8679 41.8162C46.9659 41.7182 47.1239 41.7182 47.2219 41.8162L48.4319 43.0262C48.5299 43.1242 48.5299 43.2822 48.4319 43.3802C48.3339 43.4772 48.1759 43.4772 48.0779 43.3802Z" fill="white"/>
<path d="M49.029 41.7731L47.907 40.6511C47.809 40.5531 47.809 40.3951 47.907 40.2971C48.005 40.1991 48.163 40.1991 48.261 40.2971L49.383 41.4191C49.481 41.5171 49.481 41.6751 49.383 41.7731C49.285 41.8711 49.127 41.8711 49.029 41.7731Z" fill="white"/>
<path d="M49.5869 39.8521L48.6279 38.8931C48.5299 38.7951 48.5299 38.6371 48.6279 38.5391C48.7259 38.4411 48.8839 38.4411 48.9819 38.5391L49.9409 39.4981C50.0389 39.5961 50.0389 39.7541 49.9409 39.8521C49.8419 39.9491 49.6839 39.9491 49.5869 39.8521Z" fill="white"/>
<path d="M50.2391 38.106L49.2671 37.134C49.1691 37.036 49.1691 36.878 49.2671 36.78C49.3651 36.682 49.5231 36.682 49.6211 36.78L50.5931 37.752C50.6911 37.85 50.6911 38.008 50.5931 38.106C50.4951 38.204 50.3371 38.204 50.2391 38.106Z" fill="white"/>
<path d="M51.044 36.033L49.906 34.895C49.808 34.797 49.808 34.639 49.906 34.541C50.004 34.443 50.162 34.443 50.26 34.541L51.398 35.679C51.496 35.777 51.496 35.935 51.398 36.033C51.299 36.131 51.141 36.131 51.044 36.033Z" fill="white"/>
<path d="M51.1101 33.542L50.2251 32.657C50.1271 32.559 50.1271 32.401 50.2251 32.304C50.3231 32.206 50.4811 32.206 50.5791 32.304L51.4641 33.189C51.5621 33.287 51.5621 33.445 51.4641 33.542C51.3661 33.64 51.2081 33.64 51.1101 33.542Z" fill="white"/>
<path d="M51.392 30.466L50.386 29.46C50.288 29.362 50.288 29.204 50.386 29.106C50.484 29.008 50.642 29.008 50.74 29.106L51.746 30.112C51.844 30.21 51.844 30.368 51.746 30.465C51.648 30.564 51.49 30.564 51.392 30.466Z" fill="white"/>
<path d="M50.746 28.7809L49.666 27.7009C49.568 27.6029 49.568 27.4449 49.666 27.3469C49.764 27.2489 49.922 27.2489 50.02 27.3469L51.1 28.4269C51.198 28.5249 51.198 28.6829 51.1 28.7809C51.002 28.8789 50.844 28.8789 50.746 28.7809Z" fill="white"/>
<path d="M50.3171 26.673L49.1071 25.464C48.8751 25.232 49.2261 24.876 49.4611 25.11L50.6711 26.319C50.7691 26.417 50.7691 26.575 50.6711 26.673C50.5721 26.771 50.4141 26.771 50.3171 26.673Z" fill="white"/>
<path d="M48.6269 24.3101L49.7129 23.2241C49.8109 23.1261 49.9689 23.1261 50.0669 23.2241C50.1649 23.3221 50.1649 23.4801 50.0669 23.5781L48.9809 24.6631C48.7479 24.8961 48.3929 24.5451 48.6269 24.3101Z" fill="white"/>
<path d="M47.9081 22.712L48.5671 22.053C48.6651 21.955 48.8231 21.955 48.9211 22.053C49.0191 22.151 49.0191 22.309 48.9211 22.407L48.2621 23.066C48.0291 23.298 47.6731 22.946 47.9081 22.712Z" fill="white"/>
<path d="M46.7891 21.3861C46.6911 21.2881 46.6911 21.1301 46.7891 21.0321L47.4281 20.3931C47.5261 20.2951 47.6841 20.2951 47.7821 20.3931C47.8801 20.4911 47.8801 20.6491 47.7821 20.7461L47.1431 21.3851C47.0451 21.4841 46.8861 21.4841 46.7891 21.3861Z" fill="white"/>
<path d="M45.989 19.9481C45.891 19.8501 45.891 19.6921 45.989 19.5941L46.67 18.9131C46.768 18.8151 46.926 18.8151 47.024 18.9131C47.122 19.0111 47.122 19.1691 47.024 19.2671L46.343 19.9481C46.245 20.0461 46.087 20.0461 45.989 19.9481Z" fill="white"/>
<path d="M44.47 18.2691C44.372 18.1711 44.372 18.0131 44.47 17.9161L45.285 17.1011C45.383 17.0031 45.541 17.0031 45.639 17.1011C45.737 17.1991 45.737 17.3571 45.639 17.4551L44.824 18.2701C44.726 18.3671 44.568 18.3671 44.47 18.2691Z" fill="white"/>
<path d="M43.031 17.0701C42.933 16.9721 42.933 16.8141 43.031 16.7161L43.739 16.0081C43.837 15.9101 43.995 15.9101 44.093 16.0081C44.191 16.1061 44.191 16.2641 44.093 16.3621L43.385 17.0701C43.287 17.1681 43.129 17.1681 43.031 17.0701Z" fill="white"/>
<path d="M41.273 15.7109C41.175 15.6129 41.175 15.4549 41.273 15.3569L42.2 14.4299C42.298 14.3319 42.456 14.3319 42.554 14.4299C42.652 14.5279 42.652 14.6859 42.554 14.7839L41.627 15.7109C41.529 15.8089 41.371 15.8089 41.273 15.7109Z" fill="white"/>
<path d="M39.1951 15.0721C39.0971 14.9741 39.0971 14.8161 39.1951 14.7181L40.1541 13.7581C40.2521 13.6601 40.4101 13.6601 40.5081 13.7581C40.6061 13.8561 40.6061 14.0141 40.5081 14.1121L39.5491 15.0721C39.4511 15.1701 39.2931 15.1701 39.1951 15.0721Z" fill="white"/>
<path d="M36.957 13.7931C36.859 13.6951 36.859 13.5371 36.957 13.4401L38.202 12.1951C38.3 12.0971 38.458 12.0971 38.556 12.1951C38.654 12.2931 38.654 12.4511 38.556 12.5491L37.311 13.7941C37.213 13.8901 37.054 13.8901 36.957 13.7931Z" fill="white"/>
<path d="M35.0381 13.393C34.9401 13.295 34.9401 13.137 35.0381 13.039L36.2831 11.794C36.3811 11.696 36.5391 11.696 36.6371 11.794C36.7351 11.892 36.7351 12.05 36.6371 12.148L35.3921 13.393C35.2941 13.491 35.1361 13.491 35.0381 13.393Z" fill="white"/>
<path d="M32.96 13.153C32.862 13.055 32.862 12.897 32.96 12.8L34.04 11.72C34.138 11.622 34.296 11.622 34.394 11.72C34.492 11.818 34.492 11.976 34.394 12.073L33.314 13.153C33.215 13.251 33.057 13.251 32.96 13.153Z" fill="white"/>
<path d="M30.801 13.04L31.84 12C31.938 11.902 32.096 11.902 32.194 12C32.292 12.098 32.292 12.256 32.194 12.353L31.155 13.393C30.922 13.626 30.567 13.274 30.801 13.04Z" fill="white"/>
<path d="M28.7231 13.0402L30.0821 11.6812C30.1801 11.5832 30.3381 11.5832 30.4361 11.6812C30.5341 11.7792 30.5341 11.9372 30.4361 12.0352L29.0771 13.3942C28.8441 13.6262 28.4891 13.2742 28.7231 13.0402Z" fill="white"/>
<path d="M26.565 13.793C26.467 13.695 26.467 13.537 26.565 13.44L28.006 11.999C28.104 11.901 28.262 11.901 28.36 11.999C28.458 12.097 28.458 12.255 28.36 12.353L26.919 13.794C26.821 13.89 26.663 13.89 26.565 13.793Z" fill="white"/>
<path d="M23.1991 14.1631C23.0741 14.1051 23.0191 13.9561 23.0771 13.8311C23.1361 13.7061 23.2841 13.6511 23.4091 13.7091L24.2891 14.1161L25.2971 13.1091C25.3951 13.0111 25.5531 13.0111 25.6511 13.1091C25.7491 13.2071 25.7491 13.3651 25.6511 13.4631C24.1321 14.9801 24.7251 14.8671 23.1991 14.1631Z" fill="white"/>
<path d="M21.9691 15.912L21.0491 14.992C20.9511 14.894 20.9511 14.736 21.0491 14.638C21.1471 14.54 21.3051 14.54 21.4031 14.638L22.3231 15.558C22.4211 15.656 22.4211 15.814 22.3231 15.912C22.2251 16.009 22.0671 16.009 21.9691 15.912Z" fill="white"/>
<path d="M19.732 17.191L19.051 16.51C18.953 16.412 18.953 16.254 19.051 16.156C19.149 16.058 19.307 16.058 19.404 16.156L20.085 16.837C20.183 16.935 20.183 17.093 20.085 17.19C19.987 17.289 19.829 17.289 19.732 17.191Z" fill="white"/>
<path d="M17.9811 18.7172L17.1331 17.8692C17.0351 17.7712 17.0351 17.6132 17.1331 17.5152C17.2311 17.4172 17.3891 17.4172 17.4871 17.5152L18.3351 18.3632C18.5711 18.6012 18.2101 18.9462 17.9811 18.7172Z" fill="white"/>
<path d="M16.257 20.7521L15.533 20.0281C15.435 19.9301 15.435 19.7721 15.533 19.6741C15.631 19.5761 15.789 19.5761 15.887 19.6741L16.611 20.3981C16.709 20.4961 16.709 20.6541 16.611 20.7521C16.513 20.8491 16.355 20.8491 16.257 20.7521Z" fill="white"/>
<path d="M14.9411 23.4311L13.7761 22.2651C13.6781 22.1671 13.6781 22.0091 13.7761 21.9111C13.8741 21.8131 14.0321 21.8131 14.1301 21.9111L15.2951 23.0771C15.3931 23.1751 15.3931 23.3331 15.2951 23.4311C15.1961 23.5291 15.0381 23.5291 14.9411 23.4311Z" fill="white"/>
<path d="M14.1779 24.986L13.0559 23.864C12.9579 23.766 12.9579 23.608 13.0559 23.51C13.1539 23.412 13.3119 23.412 13.4099 23.51L14.5319 24.632C14.6299 24.73 14.6299 24.888 14.5319 24.986C14.4339 25.084 14.2759 25.084 14.1779 24.986Z" fill="white"/>
<path d="M13.468 26.594L12.416 25.543C12.318 25.445 12.318 25.287 12.416 25.189C12.514 25.091 12.672 25.091 12.77 25.189L13.822 26.24C13.92 26.338 13.92 26.496 13.822 26.594C13.724 26.692 13.566 26.692 13.468 26.594Z" fill="white"/>
<path d="M12.617 28.5421L11.457 27.3821C11.359 27.2841 11.359 27.1261 11.457 27.0281C11.555 26.9301 11.713 26.9301 11.811 27.0281L12.971 28.1881C13.069 28.2861 13.069 28.4441 12.971 28.5421C12.873 28.6391 12.714 28.6391 12.617 28.5421Z" fill="white"/>
<path d="M12.0571 31.259L10.9771 30.179C10.8791 30.081 10.8791 29.923 10.9771 29.825C11.0751 29.727 11.2331 29.727 11.3301 29.825L12.4101 30.905C12.5081 31.003 12.5081 31.161 12.4101 31.258C12.3131 31.357 12.1551 31.357 12.0571 31.259Z" fill="white"/>
<path d="M12.189 33.949L11.138 32.897C11.04 32.799 11.04 32.641 11.138 32.543C11.236 32.445 11.394 32.445 11.492 32.543L12.543 33.595C12.641 33.693 12.641 33.851 12.543 33.948C12.444 34.047 12.286 34.047 12.189 33.949Z" fill="white"/>
<path d="M12.217 36.6152L11.137 35.5352C11.039 35.4372 11.039 35.2792 11.137 35.1812C11.235 35.0832 11.393 35.0832 11.491 35.1812L12.571 36.2612C12.669 36.3592 12.669 36.5172 12.571 36.6152C12.473 36.7132 12.315 36.7132 12.217 36.6152Z" fill="white"/>
<path d="M12.5381 39.0139L12.0171 38.4929C11.9191 38.3949 11.9191 38.2369 12.0171 38.1389C12.1151 38.0409 12.2731 38.0409 12.3711 38.1389C12.6381 38.4059 13.1441 38.7609 12.8921 39.0139C12.7941 39.1109 12.6351 39.1109 12.5381 39.0139Z" fill="white"/>
<path d="M13.4081 41.642L12.4961 40.731C12.3981 40.633 12.3981 40.475 12.4961 40.377C12.5941 40.279 12.7521 40.279 12.8491 40.377L13.7611 41.288C13.8591 41.386 13.8591 41.544 13.7611 41.642C13.6641 41.74 13.5051 41.74 13.4081 41.642Z" fill="white"/>
<path d="M13.2161 43.3691C13.1181 43.2711 13.1181 43.1131 13.2161 43.0151L14.2961 41.9351C14.3941 41.8371 14.5521 41.8371 14.6501 41.9351C14.7481 42.0331 14.7481 42.1911 14.6501 42.2891L13.5701 43.3691C13.4721 43.4661 13.3141 43.4661 13.2161 43.3691Z" fill="white"/>
<path d="M14.2551 44.808C14.1571 44.71 14.1571 44.552 14.2551 44.454L15.0541 43.655C15.1521 43.557 15.3101 43.557 15.4081 43.655C15.5061 43.753 15.5061 43.911 15.4081 44.009L14.6091 44.808C14.5111 44.905 14.3531 44.905 14.2551 44.808Z" fill="white"/>
<path d="M15.7109 46.3201C15.6469 46.3201 15.5829 46.2961 15.5339 46.2471C15.4359 46.1491 15.4359 45.9911 15.5339 45.8931L16.2239 45.2031C16.3219 45.1051 16.4799 45.1051 16.5779 45.2031C16.6759 45.3011 16.6759 45.4591 16.5779 45.5571L15.8879 46.2471C15.8389 46.2961 15.7749 46.3201 15.7109 46.3201Z" fill="white"/>
<path d="M16.1731 48.005C16.0751 47.907 16.0751 47.749 16.1731 47.651L17.0131 46.811C17.1111 46.713 17.2691 46.713 17.3671 46.811C17.4651 46.909 17.4651 47.067 17.3671 47.165L16.5271 48.005C16.4291 48.103 16.2711 48.103 16.1731 48.005Z" fill="white"/>
<path d="M17.9321 48.645C17.8341 48.547 17.8341 48.389 17.9321 48.291L18.9751 47.249C19.0731 47.151 19.2311 47.151 19.3281 47.249C19.4261 47.347 19.4261 47.505 19.3281 47.603L18.2861 48.645C18.1881 48.742 18.0291 48.742 17.9321 48.645Z" fill="white"/>
<path d="M18.971 49.2841C18.873 49.1861 18.873 49.0281 18.971 48.9301L19.811 48.0901C19.909 47.9921 20.067 47.9921 20.165 48.0901C20.263 48.1881 20.263 48.3461 20.165 48.4441L19.325 49.2841C19.227 49.3821 19.068 49.3821 18.971 49.2841Z" fill="white"/>
<path d="M20.8889 50.2431C20.7909 50.1451 20.7909 49.9871 20.8889 49.8891L22.0649 48.7131C22.1629 48.6151 22.3209 48.6151 22.4189 48.7131C22.5169 48.8111 22.5169 48.9691 22.4189 49.0671L21.2429 50.2431C21.1449 50.3411 20.9869 50.3411 20.8889 50.2431Z" fill="white"/>
<path d="M22.408 51.0432C22.31 50.9452 22.31 50.7872 22.408 50.6892L23.291 49.8062C23.389 49.7082 23.547 49.7082 23.644 49.8062C23.742 49.9042 23.742 50.0622 23.644 50.1602L22.761 51.0432C22.664 51.1402 22.506 51.1402 22.408 51.0432Z" fill="white"/>
<path d="M23.927 51.1692L24.863 50.2332C24.961 50.1352 25.119 50.1352 25.217 50.2332C25.315 50.3312 25.315 50.4892 25.217 50.5872L24.281 51.5232C24.048 51.7552 23.693 51.4032 23.927 51.1692Z" fill="white"/>
<path d="M25.686 51.922C25.588 51.824 25.588 51.666 25.686 51.568L26.899 50.354C26.997 50.256 27.155 50.256 27.253 50.354C27.351 50.452 27.351 50.61 27.253 50.708L26.04 51.922C25.942 52.02 25.783 52.02 25.686 51.922Z" fill="white"/>
<path d="M27.7639 52.321C27.6659 52.223 27.6659 52.065 27.7639 51.967L28.6489 51.082C28.7469 50.984 28.9049 50.984 29.0029 51.082C29.1009 51.18 29.1009 51.338 29.0029 51.436L28.1179 52.321C28.0199 52.419 27.8609 52.419 27.7639 52.321Z" fill="white"/>
<path d="M30.322 52.1279L31.322 51.1279C31.42 51.0299 31.578 51.0299 31.676 51.1279C31.774 51.2259 31.774 51.3839 31.676 51.4819L30.676 52.4819C30.443 52.7139 30.088 52.3619 30.322 52.1279Z" fill="white"/>
<path d="M33.1201 52.242C33.0221 52.144 33.0221 51.986 33.1201 51.888L34.5161 50.492C34.6141 50.394 34.7721 50.394 34.8701 50.492C34.9681 50.59 34.9681 50.748 34.8701 50.846L33.4741 52.242C33.3761 52.34 33.2171 52.34 33.1201 52.242Z" fill="white"/>
<path d="M36.157 51.522C36.059 51.424 36.059 51.266 36.157 51.168L37.199 50.126C37.297 50.028 37.455 50.028 37.553 50.126C37.651 50.224 37.651 50.382 37.553 50.48L36.511 51.522C36.413 51.62 36.255 51.62 36.157 51.522Z" fill="white"/>
<path d="M39.1951 50.3231C39.0971 50.2251 39.0971 50.0671 39.1951 49.9691L39.8341 49.3291C39.9321 49.2311 40.0901 49.2311 40.1881 49.3291C40.2861 49.4271 40.2861 49.5851 40.1881 49.6831L39.5491 50.3231C39.4511 50.4211 39.2931 50.4211 39.1951 50.3231Z" fill="white"/>
<path d="M16.332 29.3501C16.311 29.3501 16.289 29.3471 16.267 29.3411C16.134 29.3051 16.055 29.1671 16.091 29.0341C17.39 24.2621 20.835 20.1531 25.307 18.0411C29.78 15.9301 35.142 15.8811 39.652 17.9101C39.778 17.9671 39.834 18.1151 39.777 18.2411C39.72 18.3681 39.57 18.4231 39.446 18.3661C35.068 16.3961 29.862 16.4431 25.52 18.4931C21.178 20.5431 17.833 24.5321 16.572 29.1641C16.543 29.2771 16.443 29.3501 16.332 29.3501Z" fill="white"/>
<path d="M17.6599 27.2249L16.3439 26.8799C16.2109 26.8449 16.1309 26.7089 16.1659 26.5749C16.2009 26.4419 16.3349 26.3589 16.4709 26.3969L17.7859 26.7419C17.9199 26.7769 17.9999 26.9129 17.9649 27.0469C17.9289 27.1839 17.7869 27.2609 17.6599 27.2249Z" fill="white"/>
<path d="M18.3581 25.666L17.3741 24.998C17.2601 24.92 17.2301 24.765 17.3071 24.651C17.3861 24.537 17.5411 24.508 17.6541 24.584L18.6381 25.251C18.7521 25.329 18.7821 25.484 18.7051 25.598C18.6271 25.713 18.4731 25.744 18.3581 25.666Z" fill="white"/>
<path d="M20.0269 23.453L18.9769 22.738C18.8629 22.66 18.8339 22.505 18.9109 22.391C18.9899 22.276 19.1449 22.248 19.2579 22.325L20.3079 23.04C20.4219 23.118 20.4509 23.273 20.3739 23.387C20.2979 23.5 20.1419 23.532 20.0269 23.453Z" fill="white"/>
<path d="M21.2711 22.0242L20.1431 21.0982C20.0371 21.0112 20.0211 20.8532 20.1081 20.7462C20.1951 20.6402 20.3521 20.6242 20.4601 20.7112L21.5881 21.6372C21.6941 21.7252 21.7101 21.8822 21.6231 21.9892C21.5351 22.0962 21.3771 22.1112 21.2711 22.0242Z" fill="white"/>
<path d="M22.644 20.6662L21.741 19.4101C21.66 19.2981 21.686 19.1412 21.798 19.0612C21.909 18.9802 22.067 19.0051 22.147 19.1181L23.05 20.3742C23.131 20.4862 23.105 20.6421 22.993 20.7231C22.883 20.8021 22.727 20.7802 22.644 20.6662Z" fill="white"/>
<path d="M24.389 19.7059L23.484 18.3059C23.409 18.1899 23.442 18.0349 23.558 17.9599C23.673 17.8869 23.829 17.9179 23.904 18.0339L24.809 19.4339C24.884 19.5499 24.85 19.7049 24.735 19.7799C24.62 19.8549 24.465 19.8229 24.389 19.7059Z" fill="white"/>
<path d="M26.95 18.6571C26.562 18.1841 26.348 17.5621 26.363 16.9491C26.366 16.8111 26.505 16.7021 26.619 16.7051C26.757 16.7081 26.866 16.8231 26.863 16.9611C26.85 17.4551 27.023 17.9581 27.336 18.3391C27.423 18.4461 27.408 18.6031 27.301 18.6911C27.198 18.7781 27.04 18.7651 26.95 18.6571Z" fill="white"/>
<path d="M28.788 18.252C28.52 17.675 28.351 17.062 28.285 16.429C28.271 16.292 28.371 16.169 28.508 16.155C28.645 16.135 28.768 16.241 28.782 16.378C28.842 16.956 28.996 17.516 29.24 18.043C29.298 18.168 29.244 18.316 29.119 18.375C28.998 18.431 28.847 18.379 28.788 18.252Z" fill="white"/>
<path d="M31.0652 17.6601L30.8212 16.2281C30.7982 16.0921 30.8902 15.9631 31.0262 15.9391C31.1612 15.9181 31.2912 16.0081 31.3142 16.1441L31.5582 17.5761C31.5812 17.7121 31.4902 17.8411 31.3532 17.8651C31.2202 17.8871 31.0882 17.7981 31.0652 17.6601Z" fill="white"/>
<path d="M33.761 17.866C33.757 17.866 33.754 17.866 33.75 17.866C33.612 17.86 33.505 17.743 33.512 17.605L33.581 16.102C33.587 15.964 33.7 15.853 33.842 15.864C33.98 15.87 34.087 15.987 34.08 16.125L34.011 17.627C34.005 17.762 33.894 17.866 33.761 17.866Z" fill="white"/>
<path d="M36.0631 18.0131C36.0571 18.0131 36.0501 18.0131 36.0431 18.0131C35.9061 18.0021 35.8021 17.8821 35.8131 17.7451L35.9091 16.4641C35.9191 16.3261 36.0291 16.2181 36.1771 16.2331C36.3141 16.2441 36.4181 16.3641 36.4071 16.5021L36.3111 17.7831C36.3011 17.9131 36.1921 18.0131 36.0631 18.0131Z" fill="white"/>
<path d="M37.672 18.518C37.558 18.44 37.528 18.285 37.605 18.171C37.829 17.84 37.946 17.438 37.933 17.038C37.929 16.9 38.037 16.784 38.175 16.78C38.33 16.784 38.428 16.884 38.433 17.022C38.449 17.527 38.302 18.035 38.019 18.452C37.941 18.565 37.787 18.595 37.672 18.518Z" fill="white"/>
</svg>
