<svg width="100" height="100" viewBox="0 0 100 100" fill="none" xmlns="http://www.w3.org/2000/svg">
<path d="M32.0382 52.0536C28.9518 41.0254 31.3409 28.6925 38.271 19.8677C44.4939 11.9472 53.7089 7.25901 61.042 4.05971C61.3349 3.93254 61.6778 4.01256 61.8793 4.26118C62.0836 4.50695 62.0965 4.85989 61.915 5.12138C53.8146 16.8212 41.669 34.4467 55.3235 55.843C59.8603 62.9518 68.9538 72.1825 86.5092 75.7804C86.8164 75.8433 87.0465 76.0991 87.0765 76.412C87.1065 76.7249 86.9279 77.0193 86.6392 77.1408C63.9026 86.5901 38.3511 74.6145 32.0382 52.0536ZM59.3001 6.4031C52.5772 9.49524 44.7897 13.8834 39.3956 20.7507C32.7398 29.2241 30.4478 41.0711 33.4128 51.6692C39.1598 72.2039 61.9379 84.2781 83.8886 76.6606C67.3605 72.6483 58.5971 63.6305 54.1175 56.6118C48.4376 47.7126 46.4858 37.103 48.7606 27.5037C50.5324 20.0291 54.8134 13.0018 59.3001 6.4031Z" fill="white"/>
<path d="M81.741 53.6454C80.0535 53.6454 78.0644 50.439 77.1671 48.8157C76.0926 49.1973 73.8049 49.936 72.2188 49.936C71.2843 49.936 70.637 49.6745 70.2955 49.1587C69.2839 47.6283 71.7773 44.5948 73.3019 42.9687C71.9273 41.214 69.7125 37.9704 70.8571 36.5372C72.0502 35.034 75.8954 36.6758 77.6701 37.4889C78.7446 35.8985 81.248 32.5063 83.0356 33.1707C84.7531 33.8152 84.5188 37.7346 84.2401 39.9451C86.3835 40.5567 90.0815 41.8813 89.9986 43.7131C89.9172 45.545 86.1163 46.5352 83.9286 46.9539C84.0087 49.133 83.9272 53.6454 81.741 53.6454ZM78.1359 47.6012C79.4219 50.0603 81.1051 52.2165 81.7424 52.2165V52.931L81.7482 52.2165C82.2283 52.0265 82.6512 49.4459 82.4755 46.4023C82.454 46.0394 82.7098 45.7165 83.0699 45.6564C86.0763 45.1492 88.4983 44.1604 88.5769 43.6488C88.5454 43.1344 86.2206 41.9342 83.2699 41.1611C82.9184 41.0683 82.6912 40.7253 82.7455 40.3652C83.1928 37.3488 82.9999 34.7397 82.5369 34.5082H82.5355C81.7867 34.5082 79.8277 36.7616 78.5303 38.7849C78.3331 39.0921 77.9359 39.1993 77.6101 39.0392C76.8356 38.6548 72.5646 36.8001 71.9759 37.4289C71.6987 37.8632 72.8733 40.2009 74.8051 42.5586C75.0366 42.8401 75.0166 43.2516 74.7637 43.5117C72.6289 45.6893 71.2515 47.9127 71.4901 48.3728C71.4901 48.3728 71.6287 48.5085 72.2203 48.5085C74.0407 48.5085 77.2114 47.2797 77.2443 47.2668C77.5915 47.1311 77.9701 47.2854 78.1359 47.6012Z" fill="white"/>
<path d="M17.1176 46.6596C15.3144 47.3498 11.3578 48.7544 10.2561 47.1712C9.20726 45.6665 11.6235 42.5715 13.1082 40.9083C11.6907 39.1879 9.39731 36 10.5047 34.5383C11.6664 33.0051 15.5244 34.5426 17.3406 35.3199C18.3722 33.7095 20.7928 30.2502 22.596 30.8703C24.3293 31.4704 24.1935 35.3956 23.9706 37.6133C26.1283 38.172 29.8563 39.4023 29.8206 41.237C29.7863 43.0702 26.0111 44.1533 23.832 44.6263C23.9678 46.8511 23.9478 50.7777 22.1945 51.3107C20.367 51.858 18.0864 48.3114 17.1176 46.6596ZM18.055 45.4193C19.3924 47.8299 21.1286 49.9447 21.7716 49.9432H21.7801C22.256 49.7418 22.6146 47.1497 22.3631 44.1119C22.3331 43.749 22.5803 43.4217 22.9375 43.3517C25.9311 42.7687 28.326 41.7199 28.3903 41.2084C28.3474 40.694 25.9926 39.5509 23.0261 38.8536C22.6703 38.7693 22.436 38.4335 22.4803 38.0705C22.8518 35.0427 22.5932 32.4407 22.1259 32.2206C21.3872 32.2206 19.4825 34.5254 18.2279 36.5959C18.0364 36.9074 17.6392 37.026 17.3148 36.8731C16.5246 36.5044 12.2394 34.7683 11.6407 35.4028C11.3749 35.8443 12.608 38.152 14.5971 40.4611C14.8343 40.7368 14.8257 41.1469 14.5771 41.4141C12.498 43.6461 11.1749 45.9023 11.4249 46.3553C11.4263 46.3553 11.5521 46.4739 12.0693 46.4739C13.564 46.4739 16.2432 45.4879 17.1505 45.1064C17.4834 44.9678 17.875 45.0964 18.055 45.4193Z" fill="white"/>
<path d="M58.1283 93.0601C56.9338 93.7688 54.7019 94.9762 53.7273 94.0103C52.8614 93.1458 53.683 91.2354 54.6661 89.605C53.2258 88.3619 51.8512 86.8001 52.407 85.7098C53.0343 84.4767 55.5249 84.9496 56.8823 85.2483C57.4139 83.9894 58.5399 81.6889 59.8902 81.8889C61.0976 82.079 61.5563 84.108 61.7192 86.0027C63.6139 86.1628 65.6429 86.6186 65.8373 87.8246C66.0287 89.032 64.2426 90.0951 62.4893 90.8353C62.9237 92.6886 63.1152 94.759 62.0278 95.3149C60.809 95.9364 59.0286 94.0903 58.1283 93.0601ZM58.8314 91.6769C59.7587 92.8157 60.9304 93.8731 61.3934 94.0046C61.5091 93.6373 61.3405 92.037 60.9547 90.5924C60.8618 90.2394 61.0476 89.8736 61.3877 89.7422C62.7165 89.2278 64.0426 88.4705 64.3669 88.0604C63.9311 87.7703 62.435 87.4645 61.0119 87.3873C60.6475 87.3673 60.356 87.0773 60.336 86.7129C60.256 85.2897 59.9459 83.7937 59.6573 83.3593C59.2472 83.6836 58.4941 85.0125 57.9797 86.3414C57.8483 86.68 57.4853 86.8701 57.1295 86.7743C56.3351 86.5757 54.529 86.1914 53.7331 86.39C53.9217 86.8829 54.949 88.0046 56.0493 88.9005C56.3308 89.1306 56.3965 89.5364 56.1979 89.8422C55.4334 91.0282 54.809 92.4042 54.7776 92.9386C55.5535 92.8629 57.021 92.087 57.8869 91.5283C58.1898 91.334 58.597 91.3911 58.8314 91.6769Z" fill="white"/>
<path d="M45.4112 70.9321L47.9647 68.3772C48.1047 68.2372 48.3305 68.2372 48.4705 68.3772C48.6106 68.5173 48.6106 68.743 48.4705 68.8831L45.9171 71.4379C45.5827 71.7723 45.0797 71.265 45.4112 70.9321Z" fill="white"/>
<path d="M47.7447 72.4069L50.1581 69.9935C50.2981 69.8534 50.5239 69.8534 50.6639 69.9935C50.804 70.1335 50.804 70.3592 50.6639 70.4993L48.2491 72.9127C47.9147 73.2456 47.4132 72.7384 47.7447 72.4069Z" fill="white"/>
<path d="M50.9397 74.373L54.2491 71.0651C54.3905 70.9236 54.6163 70.9265 54.7549 71.0651C54.8949 71.2051 54.8949 71.4309 54.7549 71.5709L51.447 74.8788C51.1112 75.2103 50.6054 74.7059 50.9397 74.373Z" fill="white"/>
<path d="M54.7477 76.2149L57.7127 73.2499C57.8527 73.1099 58.0785 73.1099 58.2185 73.2499C58.3585 73.39 58.3585 73.6157 58.2185 73.7558L55.2535 76.7207C54.9177 77.0551 54.4148 76.5478 54.7477 76.2149Z" fill="white"/>
<path d="M58.5557 77.6879L61.1349 75.1101C61.4678 74.7772 61.9751 75.2802 61.6407 75.616L59.0616 78.1937C58.7272 78.5266 58.2214 78.0222 58.5557 77.6879Z" fill="white"/>
<path d="M63.5923 78.6855C63.4523 78.5455 63.4523 78.3197 63.5923 78.1797L66.663 75.1104C66.8031 74.9704 67.0288 74.9704 67.1689 75.1104C67.3089 75.2504 67.3089 75.4762 67.1689 75.6162L64.0982 78.6855C63.9596 78.8241 63.7324 78.8255 63.5923 78.6855Z" fill="white"/>
<path d="M68.1378 79.2856L71.6128 75.8105C71.7529 75.6704 71.9786 75.6704 72.1187 75.8105C72.2587 75.9505 72.2587 76.1763 72.1187 76.3163L68.6436 79.7914C68.3092 80.1243 67.8034 79.6185 68.1378 79.2856Z" fill="white"/>
<path d="M73.2977 78.7938L77.4929 74.5986C77.6329 74.4585 77.8587 74.4585 77.9987 74.5986C78.1388 74.7386 78.1388 74.9644 77.9987 75.1044L73.8035 79.2996C73.4677 79.634 72.9661 79.1267 73.2977 78.7938Z" fill="white"/>
<path d="M79.5619 77.9349L81.7138 75.7845C81.8553 75.6445 82.0811 75.6459 82.2197 75.7845C82.3597 75.9246 82.3597 76.1503 82.2197 76.2904L80.0677 78.4407C79.7319 78.7751 79.229 78.2664 79.5619 77.9349Z" fill="white"/>
<path d="M72.4431 74.7359C72.3517 74.7359 72.2602 74.7016 72.1902 74.6315C72.0502 74.4915 72.0502 74.2657 72.1902 74.1257L73.2362 73.0798C73.3776 72.9383 73.6034 72.9412 73.742 73.0798C73.882 73.2198 73.882 73.4456 73.742 73.5856L72.6961 74.6315C72.626 74.7016 72.5346 74.7359 72.4431 74.7359Z" fill="white"/>
<path d="M69.3726 72.7699C69.2811 72.7699 69.1897 72.7356 69.1197 72.6655C68.9796 72.5255 68.9796 72.2997 69.1197 72.1597L70.2256 71.0552C70.3671 70.9151 70.5929 70.9166 70.7315 71.0552C70.8715 71.1952 70.8715 71.421 70.7315 71.5596L69.6255 72.6655C69.5555 72.7356 69.4626 72.7699 69.3726 72.7699Z" fill="white"/>
<path d="M66.542 70.9463C66.402 70.8063 66.402 70.5805 66.542 70.4405L67.7094 69.2717C67.8495 69.133 68.0752 69.1302 68.2153 69.2717C68.3553 69.4117 68.3553 69.6375 68.2153 69.7775L67.0479 70.9463C66.905 71.0878 66.6792 71.0835 66.542 70.9463Z" fill="white"/>
<path d="M42.9549 68.7201L44.7453 66.9297C44.8853 66.7897 45.1111 66.7897 45.2511 66.9297C45.3912 67.0698 45.3912 67.2955 45.2511 67.4356L43.4607 69.226C43.1264 69.5589 42.6205 69.0545 42.9549 68.7201Z" fill="white"/>
<path d="M40.0057 65.8954L41.7875 64.1121C41.9275 63.9721 42.1533 63.9721 42.2933 64.1121C42.4334 64.2521 42.4334 64.4779 42.2933 64.6179L40.5115 66.4012C40.1757 66.7356 39.6742 66.2283 40.0057 65.8954Z" fill="white"/>
<path d="M38.2852 63.6976C38.1452 63.5576 38.1452 63.3318 38.2852 63.1918L39.5141 61.9629C39.847 61.63 40.3542 62.1329 40.0199 62.4687L38.791 63.6976C38.6524 63.8362 38.4267 63.839 38.2852 63.6976Z" fill="white"/>
<path d="M38.8599 63.9048C36.0193 61.0628 36.0407 61.8759 37.854 60.0627C37.994 59.9226 38.2198 59.9226 38.3598 60.0627C38.4998 60.2027 38.4998 60.4285 38.3598 60.5685L37.4467 61.4816L39.3658 63.4006C39.5058 63.5406 39.5058 63.7664 39.3658 63.9064C39.2271 64.0436 39.0014 64.0449 38.8599 63.9048Z" fill="white"/>
<path d="M43.0921 66.7599C43.0007 66.7599 42.9092 66.7256 42.8392 66.6556L40.6187 64.4365C40.4787 64.2965 40.4787 64.0707 40.6187 63.9307C40.7587 63.7907 40.9845 63.7907 41.1245 63.9307L43.345 66.1498C43.4851 66.2898 43.4851 66.5156 43.345 66.6556C43.275 66.7242 43.185 66.7599 43.0921 66.7599Z" fill="white"/>
<path d="M47.8663 70.6991L45.2872 68.1214C45.1471 67.9814 45.1471 67.7556 45.2872 67.617C45.4272 67.477 45.653 67.477 45.793 67.617L48.3721 70.1947C48.5122 70.3348 48.5122 70.5605 48.3721 70.7006C48.2335 70.8377 48.0063 70.8392 47.8663 70.6991Z" fill="white"/>
<path d="M53.8903 74.6342L50.448 71.192C50.308 71.052 50.308 70.8262 50.448 70.6862C50.5881 70.5462 50.8138 70.5462 50.9539 70.6862L54.3961 74.1284C54.5361 74.2684 54.5361 74.4942 54.3961 74.6342C54.2561 74.7728 54.0303 74.7743 53.8903 74.6342Z" fill="white"/>
<path d="M59.3587 77.2777L55.7293 73.6483C55.5893 73.5083 55.5893 73.2825 55.7293 73.1425C55.8693 73.0025 56.0951 73.0025 56.2351 73.1425L59.8645 76.7719C60.0046 76.9119 60.0046 77.1377 59.8645 77.2777C59.7259 77.4163 59.4987 77.4178 59.3587 77.2777Z" fill="white"/>
<path d="M65.8804 78.7609L62.7339 75.6131C62.5939 75.473 62.5939 75.2473 62.7339 75.1072C62.874 74.9672 63.0997 74.9672 63.2398 75.1072L66.3862 78.2551C66.7206 78.5909 66.2119 79.0938 65.8804 78.7609Z" fill="white"/>
<path d="M71.5302 78.3924L68.0149 74.8773C67.8749 74.7373 67.8749 74.5115 68.0149 74.3715C68.155 74.2315 68.3807 74.2315 68.5208 74.3715L72.036 77.8866C72.3704 78.221 71.8617 78.7239 71.5302 78.3924Z" fill="white"/>
<path d="M70.2942 72.9555C70.2027 72.9555 70.1113 72.9212 70.0412 72.8511L68.1365 70.9464C67.9965 70.8064 67.9965 70.5806 68.1365 70.4406C68.278 70.2991 68.5037 70.302 68.6423 70.4406L70.5471 72.3453C70.6871 72.4854 70.6871 72.7111 70.5471 72.8511C70.4771 72.9212 70.3856 72.9555 70.2942 72.9555Z" fill="white"/>
<path d="M77.4813 78.571L73.6662 74.7559C73.5261 74.6158 73.5261 74.3901 73.6662 74.25C73.8062 74.11 74.032 74.11 74.172 74.25L77.9872 78.0652C78.1272 78.2052 78.1272 78.431 77.9872 78.571C77.8471 78.7096 77.6214 78.7111 77.4813 78.571Z" fill="white"/>
<path d="M82.0353 78.7996C81.7938 78.7996 78.7502 75.6632 78.5788 75.4917C78.4387 75.3517 78.4387 75.1259 78.5788 74.9859C78.7188 74.8459 78.9446 74.8459 79.0846 74.9859L82.2882 78.1895C82.4282 78.3295 82.4282 78.5553 82.2882 78.6953C82.2182 78.7639 82.1282 78.7996 82.0353 78.7996Z" fill="white"/>
<path d="M57.3296 9.66095L56.2237 8.55498C56.0836 8.41495 56.0836 8.18918 56.2237 8.05058C56.3637 7.91055 56.5895 7.91055 56.7295 8.05058L57.8355 9.15655C58.1698 9.49091 57.6626 9.99245 57.3296 9.66095Z" fill="white"/>
<path d="M55.8164 12.3458L54.0074 10.5368C53.8673 10.3968 53.8673 10.171 54.0074 10.0324C54.1488 9.89093 54.3746 9.89379 54.5132 10.0324L56.3222 11.8414C56.4622 11.9814 56.4622 12.2072 56.3222 12.3472C56.1836 12.483 55.9578 12.4872 55.8164 12.3458Z" fill="white"/>
<path d="M54.0859 15.3967L51.9097 13.2205C51.7697 13.0804 51.7697 12.8547 51.9097 12.7146C52.0497 12.5746 52.2755 12.5746 52.4141 12.7146L54.5903 14.8909C54.7304 15.0309 54.7304 15.2567 54.5903 15.3967C54.4517 15.5353 54.226 15.5367 54.0859 15.3967Z" fill="white"/>
<path d="M51.4054 19.449C51.314 19.449 51.2225 19.4147 51.1525 19.3447L49.3421 17.5342C49.2021 17.3942 49.2021 17.1684 49.3421 17.0298C49.4835 16.8897 49.7093 16.8912 49.8479 17.0298L51.6583 18.8403C51.7984 18.9803 51.7984 19.2061 51.6583 19.3461C51.5883 19.4147 51.4954 19.449 51.4054 19.449Z" fill="white"/>
<path d="M49.9293 22.9024L47.8274 20.7991C47.6874 20.659 47.6874 20.4333 47.8274 20.2947C47.9689 20.1546 48.1947 20.1561 48.3333 20.2947L50.4352 22.398C50.7681 22.7309 50.2609 23.2339 49.9293 22.9024Z" fill="white"/>
<path d="M48.5304 28.0339L46.3099 25.8134C46.1698 25.6734 46.1698 25.4476 46.3099 25.309C46.4499 25.169 46.6757 25.169 46.8157 25.309L49.0362 27.5295C49.1762 27.6695 49.1762 27.8953 49.0362 28.0339C48.8976 28.1725 48.6704 28.1754 48.5304 28.0339Z" fill="white"/>
<path d="M48.0203 32.1876L45.6111 29.7785C45.4711 29.6384 45.4711 29.4127 45.6111 29.2726C45.7512 29.1326 45.9769 29.1326 46.1155 29.2726L48.5246 31.6803C48.6647 31.8204 48.6647 32.0461 48.5246 32.1861C48.386 32.3262 48.1603 32.3276 48.0203 32.1876Z" fill="white"/>
<path d="M47.8004 36.9844L45.2613 34.4438C45.1212 34.3038 45.1212 34.078 45.2613 33.938C45.4027 33.798 45.6285 33.7994 45.7657 33.938L48.3048 36.4786C48.4449 36.6186 48.4449 36.8444 48.3048 36.9844C48.1677 37.1216 47.9419 37.1244 47.8004 36.9844Z" fill="white"/>
<path d="M48.6021 42.3328L46.0772 39.8079C45.9372 39.6679 45.9372 39.4421 46.0772 39.3035C46.2172 39.1635 46.443 39.1635 46.583 39.3035L49.1079 41.8284C49.2479 41.9684 49.2479 42.1942 49.1079 42.3328C48.9679 42.4714 48.7421 42.4728 48.6021 42.3328Z" fill="white"/>
<path d="M49.835 45.8979L47.4773 43.5403C47.1458 43.2073 47.6474 42.7001 47.9832 43.0344L50.3409 45.3921C50.4809 45.5321 50.4809 45.7579 50.3409 45.8979C50.2023 46.0366 49.9751 46.0394 49.835 45.8979Z" fill="white"/>
<path d="M49.8236 49.0372L48.0603 47.2725C47.7288 46.941 48.2304 46.4323 48.5662 46.7681L50.3294 48.5328C50.4695 48.6728 50.4695 48.8986 50.3294 49.0386C50.1908 49.1743 49.9651 49.1786 49.8236 49.0372Z" fill="white"/>
<path d="M46.427 45.7549C46.287 45.6148 46.287 45.3891 46.427 45.249L48.669 43.0057C49.0005 42.6742 49.5092 43.1757 49.1748 43.5115L46.9329 45.7549C46.7943 45.8935 46.5685 45.8949 46.427 45.7549Z" fill="white"/>
<path d="M45.4939 41.2084C45.3539 41.0683 45.3539 40.8426 45.4939 40.704L47.3744 38.8235C47.5158 38.6821 47.7416 38.6849 47.8802 38.8235C48.0202 38.9636 48.0202 39.1893 47.8802 39.3294L45.9998 41.2084C45.8612 41.3455 45.6354 41.3484 45.4939 41.2084Z" fill="white"/>
<path d="M44.7955 35.6098C44.6554 35.4698 44.6554 35.244 44.7955 35.104L47.4875 32.4119C47.6275 32.2719 47.8533 32.2719 47.9919 32.4119C48.1319 32.5519 48.1319 32.7777 47.9919 32.9177L45.2999 35.6098C45.1612 35.7484 44.9355 35.7498 44.7955 35.6098Z" fill="white"/>
<path d="M45.4939 28.7296C45.3539 28.5895 45.3539 28.3638 45.4939 28.2237L48.8304 24.8872C49.1619 24.5543 49.6706 25.0573 49.3362 25.3916L45.9998 28.7296C45.8612 28.8682 45.634 28.8696 45.4939 28.7296Z" fill="white"/>
<path d="M47.9433 20.7606L51.977 16.7269C52.1171 16.5868 52.3428 16.5868 52.4829 16.7269C52.6229 16.8669 52.6229 17.0926 52.4829 17.2327L48.4491 21.2664C48.1133 21.6008 47.6103 21.0921 47.9433 20.7606Z" fill="white"/>
<path d="M51.5584 14.502C51.4184 14.3619 51.4184 14.1362 51.5584 13.9976L55.6822 9.87518C56.0137 9.54368 56.5224 10.0452 56.188 10.3796L52.0642 14.502C51.9256 14.6406 51.6984 14.642 51.5584 14.502Z" fill="white"/>
<path d="M56.6897 8.9037C56.5497 8.76367 56.5497 8.53791 56.6897 8.39787C57.0655 8.02207 57.5485 7.33334 57.9043 7.68914C58.0443 7.82917 58.0443 8.05494 57.9043 8.19497C57.5285 8.57077 57.0455 9.2595 56.6897 8.9037Z" fill="white"/>
<path d="M36.0648 48.9228C35.9005 48.9228 35.7533 48.8099 35.7162 48.6427C34.1301 41.5011 35.0289 33.9508 38.2468 27.3836C38.3354 27.2049 38.5483 27.1364 38.7254 27.2192C38.9026 27.3064 38.9755 27.5193 38.8883 27.6965C35.7419 34.1208 34.8631 41.5039 36.4135 48.487C36.4564 48.6799 36.3349 48.8699 36.1434 48.9128C36.1177 48.9199 36.0906 48.9228 36.0648 48.9228Z" fill="white"/>
<path d="M38.0722 31.1074C37.955 31.1074 37.8407 31.0503 37.7721 30.9431C37.4063 30.3744 36.7919 29.9586 36.1275 29.8314C35.9331 29.7943 35.806 29.6071 35.8445 29.4127C35.8803 29.2184 36.0703 29.0912 36.2618 29.1298C37.1148 29.2941 37.9036 29.8271 38.3737 30.5573C38.4809 30.723 38.4323 30.9445 38.2665 31.0517C38.2051 31.0888 38.1394 31.1074 38.0722 31.1074Z" fill="white"/>
<path d="M36.802 34.8598C36.7277 34.8598 36.6534 34.8369 36.5891 34.7898L34.9701 33.5838C34.813 33.4652 34.7787 33.2423 34.8973 33.0837C35.0144 32.9265 35.2388 32.895 35.3974 33.0108L37.0163 34.2168C37.1735 34.3354 37.2078 34.5583 37.0892 34.7169C37.0178 34.8112 36.9106 34.8598 36.802 34.8598Z" fill="white"/>
<path d="M36.5949 39.1434C36.5363 39.1434 36.4763 39.1291 36.4205 39.0977L34.4772 38.0132C34.3058 37.9174 34.2443 37.6988 34.3386 37.5273C34.4344 37.3559 34.6501 37.293 34.8259 37.3902L36.7692 38.4747C36.9406 38.5704 37.0021 38.7891 36.9078 38.9605C36.8406 39.0763 36.7192 39.1434 36.5949 39.1434Z" fill="white"/>
<path d="M35.7805 42.7729C35.399 42.7729 35.0161 42.6915 34.6631 42.53C34.4845 42.4485 34.4045 42.2371 34.4874 42.057C34.5702 41.877 34.7817 41.797 34.9618 41.8813C35.3704 42.0699 35.852 42.1099 36.2849 41.9942C36.4735 41.9427 36.6707 42.057 36.7222 42.2471C36.7736 42.4385 36.6593 42.6343 36.4692 42.6843C36.242 42.7429 36.012 42.7729 35.7805 42.7729Z" fill="white"/>
<path d="M35.2732 46.6494C34.9717 46.6494 34.6702 46.5794 34.4001 46.4365C34.2258 46.3451 34.1587 46.1293 34.2501 45.955C34.3416 45.7821 34.5587 45.7149 34.7331 45.805C35.1017 45.9993 35.5833 45.9722 35.9262 45.7421C36.0891 45.6306 36.312 45.6764 36.4235 45.8393C36.5321 46.0036 36.4892 46.2251 36.3263 46.3351C36.0105 46.5423 35.6433 46.6494 35.2732 46.6494Z" fill="white"/>
</svg>
