<?xml version="1.0" ?><!DOCTYPE svg  PUBLIC '-//W3C//DTD SVG 1.1//EN'  'http://www.w3.org/Graphics/SVG/1.1/DTD/svg11.dtd'><svg enable-background="new 0 0 66 66" id="Layer_1" version="1.1" viewBox="0 0 66 66" xml:space="preserve" xmlns="http://www.w3.org/2000/svg" xmlns:xlink="http://www.w3.org/1999/xlink"><g><g><g><path d="M53.584,39.426c-0.208-0.181-0.23-0.497-0.049-0.706c0.181-0.208,0.497-0.23,0.705-0.049c1,0.868,3.59,0.174,3.299-3.577     c-0.314-4.017-3.383-7.787-7.464-9.168c-7.472-2.527-16.78,3.115-15.246,7.945c0.36,1.134,1.392,1.973,2.454,1.995     c0.275,0.006,0.495,0.234,0.489,0.51c-0.006,0.275-0.193,0.468-0.511,0.49c-1.476-0.031-2.9-1.163-3.386-2.692     c-1.854-5.836,8.472-11.916,16.52-9.195c4.449,1.505,7.796,5.633,8.14,10.038C58.907,39.791,55.177,40.808,53.584,39.426z"/></g><g><path d="M20.429,38.075c-0.027-2.892,2.577-6.77,6.833-7.993c2.36-0.68,4.976-0.439,7.172,0.661     c0.247,0.124,0.347,0.424,0.224,0.671c-0.124,0.248-0.426,0.348-0.671,0.224c-1.975-0.988-4.325-1.206-6.448-0.595     c-3.805,1.094-6.134,4.497-6.109,7.022c0.026,2.68,2.487,3.926,3.981,2.859c0.222-0.161,0.535-0.111,0.697,0.115     c0.161,0.225,0.109,0.537-0.115,0.698C23.868,43.261,20.463,41.609,20.429,38.075z"/></g><g><path d="M41.467,53.969c-6.267,0-12.548-0.83-18.721-1.649c-2.638-0.35-5.627-0.746-8.028-2.419     c-2.373-1.654-3.996-5.014-2.601-7.773c1.758-3.481,6.389-3.491,8.614-3.495l0.225,0c0.256-0.008,0.501,0.221,0.502,0.498     c0.001,0.276-0.222,0.501-0.498,0.502l-0.226,0c-2.182,0.004-6.242,0.012-7.724,2.946c-1.134,2.245,0.301,5.123,2.281,6.502     c2.201,1.534,5.063,1.913,7.587,2.248C33.864,52.785,45.93,54.41,57.085,50.7c1.903-0.632,4.268-1.601,5.676-3.487     c1.367-1.832,1.628-4.451,0.647-6.517c-0.979-2.066-3.173-3.521-5.456-3.621c-0.276-0.012-0.49-0.246-0.479-0.521     c0.012-0.275,0.225-0.495,0.522-0.478c2.643,0.115,5.183,1.8,6.317,4.191c1.134,2.392,0.833,5.424-0.751,7.544     c-1.574,2.109-4.119,3.159-6.16,3.838C52.715,53.207,47.49,53.969,41.467,53.969z"/></g><g><path d="M48.008,25.366c-0.035,0-0.07-0.003-0.106-0.011c-0.27-0.059-0.44-0.325-0.382-0.595c0.271-1.246-0.474-2.486-0.94-3.115     c-3.159-4.249-9.596-4.507-13.044-0.347c-0.491,0.592-0.848,1.436-0.472,1.892c0.323,0.392,1.105,0.469,1.916-0.391     c0.191-0.2,0.507-0.21,0.707-0.02c0.2,0.189,0.209,0.506,0.02,0.706c-1.233,1.306-2.713,1.189-3.414,0.341     c-0.793-0.96-0.24-2.306,0.474-3.167c3.874-4.673,11.086-4.361,14.616,0.389c0.981,1.321,1.377,2.714,1.114,3.923     C48.446,25.207,48.239,25.366,48.008,25.366z"/></g><g><path d="M12.919,28.557c-0.864,0-1.712-0.465-2.266-1.258c-0.524-0.751-0.77-1.706-0.776-3.008     c-0.022-3.823,1.875-7.609,4.952-9.88c3.157-2.33,7.129-2.988,10.898-1.799c3.765,1.186,6.643,3.998,7.896,7.717     c0.088,0.262-0.053,0.545-0.314,0.633c-0.261,0.09-0.544-0.052-0.633-0.314c-1.15-3.413-3.792-5.994-7.249-7.083     c-3.459-1.089-7.106-0.487-10.004,1.65c-2.824,2.084-4.566,5.56-4.546,9.07c0.006,1.089,0.195,1.865,0.597,2.442     c0.395,0.566,1.021,0.893,1.607,0.82c1.287-0.151,1.469-1.848,1.564-2.848c0.027-0.275,0.275-0.473,0.546-0.45     c0.275,0.026,0.476,0.271,0.45,0.545C15.454,26.732,14.864,28.557,12.919,28.557z"/></g><g><path d="M19.146,39.562c-0.017,0-0.032,0-0.049-0.002c-3.142-0.299-12.663-1.418-15.315-3.25     c-3.859-2.668-3.705-8.565,0.526-10.925c1.969-1.1,4.31-1.109,6.265-0.028c0.241,0.134,0.329,0.438,0.195,0.68     c-0.134,0.241-0.438,0.328-0.68,0.195c-1.648-0.912-3.627-0.903-5.293,0.026c-3.575,1.994-3.707,6.973-0.445,9.229     c2.443,1.687,11.986,2.805,14.843,3.077c0.274,0.026,0.477,0.27,0.45,0.545C19.618,39.368,19.4,39.562,19.146,39.562z"/></g></g><g><path d="M20.498,51.178l-1.82-1.82c-0.098-0.098-0.098-0.256,0-0.354c0.098-0.098,0.256-0.098,0.354,0l1.82,1.82    C21.088,51.061,20.727,51.407,20.498,51.178z"/></g><g><path d="M24.138,51.926l-3.364-3.364c-0.098-0.098-0.098-0.256,0-0.354c0.098-0.098,0.256-0.098,0.353,0l3.364,3.364    c0.098,0.098,0.098,0.256,0,0.354C24.395,52.023,24.237,52.024,24.138,51.926z"/></g><g><path d="M28.554,52.149l-3.876-3.876c-0.098-0.098-0.098-0.256,0-0.353c0.098-0.098,0.256-0.098,0.354,0l3.876,3.876    c0.098,0.098,0.098,0.256,0,0.354C28.811,52.246,28.653,52.247,28.554,52.149z"/></g><g><path d="M33.153,52.481l-4.569-4.57c-0.098-0.098-0.098-0.256,0-0.354c0.098-0.098,0.256-0.098,0.354,0l4.569,4.57    c0.098,0.098,0.098,0.256,0,0.353C33.409,52.578,33.251,52.579,33.153,52.481z"/></g><g><path d="M37.319,52.164l-4.903-4.903c-0.098-0.098-0.098-0.256,0-0.354c0.098-0.098,0.256-0.098,0.354,0l4.903,4.903    c0.098,0.098,0.098,0.256,0,0.354C37.575,52.261,37.417,52.262,37.319,52.164z"/></g><g><path d="M42.763,52.257l-5.214-5.214c-0.098-0.098-0.098-0.256,0-0.353c0.098-0.098,0.256-0.098,0.354,0l5.214,5.214    c0.098,0.098,0.098,0.256,0,0.354C43.02,52.355,42.862,52.356,42.763,52.257z"/></g><g><path d="M47.71,50.986l-4.882-4.882c-0.098-0.098-0.098-0.256,0-0.354c0.098-0.098,0.256-0.098,0.353,0l4.882,4.882    c0.098,0.098,0.098,0.256,0,0.354C47.966,51.083,47.808,51.084,47.71,50.986z"/></g><g><path d="M52.807,50.732l-5.062-5.062c-0.098-0.098-0.098-0.256,0-0.354c0.098-0.098,0.256-0.098,0.353,0l5.063,5.062    c0.098,0.098,0.098,0.256,0,0.354C53.064,50.829,52.906,50.83,52.807,50.732z"/></g><g><path d="M57.777,49.773l-4.537-4.537c-0.098-0.098-0.098-0.256,0-0.354c0.098-0.098,0.256-0.098,0.354,0l4.537,4.537    c0.098,0.098,0.098,0.256,0,0.353C58.034,49.87,57.875,49.871,57.777,49.773z"/></g><g><path d="M61.211,48.072l-3.993-3.994c-0.098-0.098-0.098-0.256,0-0.354c0.098-0.098,0.256-0.098,0.354,0l3.993,3.994    c0.098,0.098,0.098,0.256,0,0.354C61.467,48.169,61.309,48.171,61.211,48.072z"/></g><g><path d="M63.234,45.034l-2.763-2.763c-0.098-0.098-0.098-0.256,0-0.353c0.098-0.098,0.256-0.098,0.354,0l2.763,2.763    c0.098,0.098,0.098,0.256,0,0.354C63.491,45.131,63.332,45.132,63.234,45.034z"/></g><g><path d="M63.349,41.606l-1.648-1.649c-0.098-0.098-0.098-0.256,0-0.354c0.098-0.098,0.256-0.098,0.353,0l1.649,1.649    c0.098,0.098,0.098,0.256,0,0.353C63.606,41.703,63.448,41.704,63.349,41.606z"/></g><g><path d="M46.846,52.581l-5.754-5.754c-0.098-0.098-0.098-0.256,0-0.354c0.098-0.098,0.256-0.098,0.354,0l5.754,5.754    c0.098,0.098,0.098,0.256,0,0.354C47.103,52.678,46.945,52.679,46.846,52.581z"/></g><g><path d="M40.013,52.905l-4.777-4.777c-0.098-0.098-0.098-0.256,0-0.354c0.098-0.098,0.256-0.098,0.354,0l4.777,4.777    c0.098,0.098,0.098,0.256,0,0.354C40.27,53.002,40.112,53.004,40.013,52.905z"/></g><g><path d="M34.166,51.686l-2.907-2.907c-0.098-0.098-0.098-0.256,0-0.354c0.098-0.098,0.256-0.098,0.354,0l2.907,2.907    c0.098,0.098,0.098,0.256,0,0.354C34.422,51.783,34.264,51.785,34.166,51.686z"/></g><g><path d="M18.243,51.31c-0.098-0.098-0.098-0.256,0-0.354l4.061-4.06c0.098-0.098,0.256-0.098,0.354,0    c0.098,0.098,0.098,0.256,0,0.354l-4.061,4.06C18.499,51.407,18.341,51.408,18.243,51.31z"/></g><g><path d="M20.485,51.961c-0.098-0.098-0.098-0.256,0-0.354l4.737-4.737c0.098-0.098,0.256-0.098,0.354,0    c0.098,0.098,0.098,0.256,0,0.354l-4.737,4.737C20.742,52.058,20.583,52.059,20.485,51.961z"/></g><g><path d="M23.883,52.257l5.226-5.226c0.098-0.098,0.256-0.098,0.354,0c0.098,0.098,0.098,0.256,0,0.354l-5.226,5.226    C24.003,52.845,23.651,52.49,23.883,52.257z"/></g><g><path d="M27.86,52.684c-0.098-0.098-0.098-0.256,0-0.354l5.942-5.942c0.098-0.098,0.256-0.098,0.354,0    c0.098,0.098,0.098,0.256,0,0.354l-5.942,5.942C28.117,52.781,27.958,52.782,27.86,52.684z"/></g><g><path d="M31.186,53.262c-0.098-0.098-0.098-0.256,0-0.354l7.085-7.085c0.098-0.098,0.256-0.098,0.354,0    c0.098,0.098,0.098,0.256,0,0.354l-7.085,7.085C31.443,53.359,31.284,53.36,31.186,53.262z"/></g><g><path d="M35.886,53.117c-0.098-0.098-0.098-0.256,0-0.354l7.119-7.119c0.098-0.098,0.256-0.098,0.354,0    c0.098,0.098,0.098,0.256,0,0.354l-7.119,7.119C36.143,53.214,35.985,53.216,35.886,53.117z"/></g><g><path d="M40.37,53.624c-0.098-0.098-0.098-0.256,0-0.354l7.686-7.687c0.098-0.098,0.256-0.098,0.354,0    c0.098,0.098,0.098,0.256,0,0.354l-7.687,7.687C40.626,53.721,40.468,53.722,40.37,53.624z"/></g><g><path d="M45.504,52.764l7.7-7.7c0.098-0.098,0.256-0.098,0.353,0c0.098,0.098,0.098,0.256,0,0.353l-7.7,7.7    C45.623,53.352,45.271,52.996,45.504,52.764z"/></g><g><path d="M51.288,51.743c-0.098-0.098-0.098-0.256,0-0.354l6.081-6.081c0.098-0.098,0.256-0.098,0.353,0    c0.098,0.098,0.098,0.256,0,0.354l-6.081,6.081C51.544,51.84,51.386,51.842,51.288,51.743z"/></g><g><path d="M56.349,50.298c-0.098-0.098-0.098-0.256,0-0.354l5.389-5.388c0.098-0.098,0.256-0.098,0.354,0    c0.098,0.098,0.098,0.256,0,0.354l-5.389,5.388C56.606,50.395,56.448,50.396,56.349,50.298z"/></g><g><path d="M60.038,44.079c-0.098-0.098-0.098-0.256,0-0.354l2.429-2.429c0.098-0.098,0.256-0.098,0.354,0    c0.098,0.098,0.098,0.256,0,0.354l-2.429,2.429C60.294,44.176,60.136,44.177,60.038,44.079z"/></g><g><path d="M62.713,43.573c-0.098-0.098-0.098-0.256,0-0.354l0.904-0.905c0.098-0.098,0.256-0.098,0.354,0    c0.098,0.098,0.098,0.256,0,0.353l-0.904,0.905C62.969,43.67,62.811,43.671,62.713,43.573z"/></g><g><path d="M15.929,50.08c-0.098-0.098-0.098-0.256,0-0.354l2.608-2.607c0.098-0.098,0.256-0.098,0.353,0    c0.098,0.098,0.098,0.256,0,0.354l-2.607,2.607C16.186,50.177,16.028,50.179,15.929,50.08z"/></g><g><path d="M14.006,48.809c-0.098-0.098-0.098-0.256,0-0.354l1.433-1.433c0.098-0.098,0.256-0.098,0.354,0    c0.098,0.098,0.098,0.256,0,0.354l-1.433,1.433C14.262,48.906,14.104,48.907,14.006,48.809z"/></g><g><path d="M16.317,49.542l-1.969-1.969c-0.098-0.098-0.098-0.256,0-0.354c0.098-0.098,0.256-0.098,0.354,0l1.969,1.969    c0.098,0.098,0.098,0.256,0,0.353C16.574,49.639,16.415,49.64,16.317,49.542z"/></g><g><path d="M18.323,49.659l-1.777-1.777c-0.098-0.098-0.098-0.256,0-0.354c0.098-0.098,0.256-0.098,0.354,0l1.777,1.777    c0.098,0.098,0.098,0.256,0,0.354C18.579,49.756,18.421,49.758,18.323,49.659z"/></g><g><path d="M20.827,49.28l-1.433-1.433c-0.098-0.098-0.098-0.256,0-0.354c0.098-0.098,0.256-0.098,0.353,0l1.433,1.433    c0.098,0.098,0.098,0.256,0,0.354C21.083,49.377,20.925,49.379,20.827,49.28z"/></g><g><path d="M36.926,33.299c-0.024,0-0.05-0.003-0.074-0.011c-0.132-0.041-0.205-0.181-0.165-0.313    c0.652-2.103,2.135-3.913,4.066-4.966c1.933-1.053,4.255-1.32,6.378-0.729c0.133,0.037,0.211,0.175,0.174,0.308    c-0.038,0.133-0.179,0.212-0.309,0.174c-1.995-0.556-4.186-0.305-6.003,0.687c-1.819,0.992-3.215,2.696-3.828,4.676    C37.132,33.23,37.033,33.299,36.926,33.299z"/></g><g><path d="M23.276,38.007c-0.015,0-0.029-0.001-0.045-0.004c-0.136-0.025-0.226-0.155-0.201-0.291    c0.243-1.333,0.921-2.578,1.908-3.507c0.987-0.928,2.272-1.527,3.618-1.687c0.132-0.021,0.262,0.081,0.277,0.219    c0.017,0.137-0.081,0.261-0.219,0.277c-1.24,0.147-2.425,0.7-3.335,1.555c-0.909,0.856-1.534,2.004-1.758,3.232    C23.5,37.922,23.395,38.007,23.276,38.007z"/></g><g><path d="M13.89,19.95c-0.055,0-0.109-0.018-0.154-0.054c-0.109-0.086-0.128-0.243-0.042-0.351c1.601-2.031,3.986-3.413,6.546-3.79    c2.56-0.378,5.243,0.255,7.362,1.736c0.113,0.079,0.141,0.235,0.062,0.348c-0.079,0.114-0.235,0.14-0.349,0.062    c-2.017-1.41-4.569-2.012-7.003-1.652c-2.434,0.359-4.703,1.673-6.226,3.605C14.038,19.917,13.965,19.95,13.89,19.95z"/></g><g><path d="M42.008,21.883c-0.057,0-0.114-0.019-0.161-0.059c-1.271-1.07-3.234-1.241-4.672-0.405    c-0.121,0.07-0.273,0.029-0.342-0.09c-0.069-0.12-0.029-0.272,0.09-0.342c1.613-0.94,3.818-0.748,5.246,0.454    c0.105,0.089,0.119,0.247,0.03,0.352C42.15,21.853,42.08,21.883,42.008,21.883z"/></g></g></svg>