<svg width="64" height="50" viewBox="0 0 64 50" fill="none" xmlns="http://www.w3.org/2000/svg">
<path d="M27.6813 19.8197C27.6503 19.8197 27.6183 19.8167 27.5863 19.8107C27.3233 19.7587 27.1533 19.5037 27.2053 19.2417C29.1693 9.30473 36.3303 4.08073 45.5873 0.0397298C45.7853 -0.0452702 46.0173 0.00872895 46.1543 0.176729C46.2923 0.343729 46.3013 0.581729 46.1793 0.759729C41.9943 6.80373 38.5183 12.3517 38.3573 19.0347C38.3503 19.3017 38.1193 19.5167 37.8623 19.5067C37.5953 19.4997 37.3833 19.2787 37.3893 19.0107C37.5433 12.5967 40.5803 7.26773 44.4073 1.63073C36.1703 5.43973 29.9273 10.4587 28.1533 19.4307C28.1093 19.6597 27.9073 19.8197 27.6813 19.8197Z" fill="white"/>
<path d="M44.0263 46.3608C43.7703 46.2848 43.6243 46.0158 43.7003 45.7588C43.7763 45.5028 44.0433 45.3568 44.3023 45.4318C49.2173 46.8908 54.7163 46.7518 59.6233 45.0818C56.3093 44.2578 53.2363 43.0258 50.4713 41.4088C50.2393 41.2738 50.1623 40.9778 50.2973 40.7468C50.4323 40.5158 50.7293 40.4378 50.9593 40.5738C54.0683 42.3918 57.5803 43.7098 61.3993 44.4918C61.6073 44.5338 61.7633 44.7078 61.7843 44.9198C61.8043 45.1318 61.6843 45.3318 61.4883 45.4128C56.1403 47.6358 49.7823 48.0678 44.0263 46.3608Z" fill="white"/>
<path d="M19.5623 49.9348C16.3623 49.9348 13.2563 49.7098 10.4843 49.1688C8.24526 48.7318 4.99926 47.9038 2.65926 45.7538C0.24426 43.5338 -0.64774 40.1918 0.49026 37.6238C1.28126 35.8378 2.91426 34.5888 4.85626 34.2828C6.80826 33.9778 8.73726 34.6658 10.0383 36.1238C10.2163 36.3228 10.1993 36.6288 9.99926 36.8068C9.79926 36.9848 9.49426 36.9678 9.31626 36.7678C8.23526 35.5558 6.62226 34.9868 5.00626 35.2388C3.39026 35.4928 2.03226 36.5308 1.37426 38.0158C0.29026 40.4618 1.52926 43.4008 3.31226 45.0408C4.97926 46.5718 7.24726 47.5518 10.6693 48.2188C22.3083 50.4878 40.6593 46.9478 45.2893 44.8468C46.9273 44.1038 49.1443 42.7358 50.4093 40.4428C51.5583 38.3598 51.5973 35.8598 50.5093 34.0758C49.3403 32.1598 46.7803 31.2788 44.9193 32.1558C44.6783 32.2688 44.3893 32.1658 44.2753 31.9238C44.1613 31.6818 44.2653 31.3938 44.5073 31.2798C46.8323 30.1848 49.8963 31.2128 51.3353 33.5718C52.6013 35.6468 52.5703 38.5268 51.2563 40.9098C49.8643 43.4348 47.4603 44.9228 45.6903 45.7268C41.9583 47.4218 30.2433 49.9338 19.5623 49.9348Z" fill="white"/>
<path d="M22.2923 31.5048C19.8733 30.0868 20.8193 23.4828 25.6633 19.9978C28.2473 18.1388 31.6423 17.3388 34.9743 17.8048C38.0743 18.2368 41.1193 19.7518 43.5483 22.0698C46.4093 24.8028 47.7813 28.2478 47.2203 31.2858C47.1723 31.5478 46.9133 31.7208 46.6573 31.6738C46.3943 31.6248 46.2203 31.3728 46.2693 31.1098C46.7703 28.3938 45.5033 25.2758 42.8793 22.7698C40.5973 20.5898 37.7413 19.1668 34.8403 18.7628C31.7493 18.3338 28.6123 19.0688 26.2283 20.7828C21.8213 23.9538 21.1963 29.7398 22.7813 30.6698C23.2983 30.9718 24.0623 30.7488 24.0203 30.1788C24.0003 29.9118 24.2013 29.6798 24.4673 29.6608C24.7293 29.6428 24.9663 29.8408 24.9863 30.1078C25.0843 31.4438 23.5203 32.2238 22.2923 31.5048Z" fill="white"/>
<path d="M6.90624 35.2277C6.89724 35.2277 6.88724 35.2277 6.87824 35.2267C6.61224 35.2107 6.40724 34.9827 6.42324 34.7157C6.58724 31.8937 7.84624 29.1457 9.87524 27.1777C11.9052 25.2097 14.6902 24.0357 17.5162 23.9587C19.4702 23.9067 21.1012 24.4607 22.0962 25.5247C22.2782 25.7197 22.2682 26.0257 22.0732 26.2087C21.8762 26.3917 21.5712 26.3807 21.3892 26.1857C20.3052 25.0267 18.5062 24.9017 17.5422 24.9267C14.9552 24.9977 12.4062 26.0717 10.5472 27.8727C8.69024 29.6737 7.53924 32.1887 7.38824 34.7727C7.37424 35.0287 7.16224 35.2277 6.90624 35.2277Z" fill="white"/>
<path d="M10.4332 32.8957C10.4082 32.8957 10.3832 32.8917 10.3582 32.8837C10.2302 32.8417 10.1612 32.7057 10.2032 32.5787C11.1952 29.5327 14.1232 27.2917 17.3222 27.1297C17.4462 27.1187 17.5702 27.2247 17.5762 27.3587C17.5832 27.4917 17.4802 27.6057 17.3462 27.6127C14.3902 27.7627 11.5792 29.9147 10.6612 32.7297C10.6292 32.8307 10.5352 32.8957 10.4332 32.8957Z" fill="white"/>
<path d="M24.7482 26.9787C24.6272 26.9227 24.5732 26.7797 24.6292 26.6577C26.0592 23.5507 29.1792 21.2877 32.5752 20.8927C35.9732 20.4977 39.5272 21.9867 41.6312 24.6847C41.7132 24.7897 41.6942 24.9427 41.5892 25.0247C41.4852 25.1057 41.3322 25.0877 41.2502 24.9827C39.2492 22.4147 35.8632 20.9957 32.6332 21.3747C29.3992 21.7497 26.4302 23.9037 25.0702 26.8607C25.0132 26.9817 24.8702 27.0347 24.7482 26.9787Z" fill="white"/>
<path d="M53.1583 20.8617C52.1793 20.8617 51.0823 19.1557 50.5003 18.1097C49.3963 18.4957 47.1643 19.2137 46.5323 18.2557C45.9463 17.3697 47.2183 15.7327 48.2203 14.6607C47.3183 13.5037 46.1973 11.7607 46.8593 10.9297C47.5743 10.0317 49.7533 10.9507 50.7983 11.4277C51.3993 10.5477 52.6413 8.91968 53.6043 8.91968C54.9913 8.91968 54.8433 11.5097 54.6743 12.8777C56.0833 13.2827 58.0163 14.0347 57.9683 15.0957C57.9213 16.1567 55.9293 16.7327 54.4893 17.0117C54.5353 18.3167 54.4743 20.8617 53.1583 20.8617ZM50.7273 17.0277C50.9033 17.0277 51.0703 17.1237 51.1563 17.2877C51.8503 18.6157 52.7903 19.8447 53.1453 19.8937C53.4123 19.6897 53.5903 18.1437 53.5033 16.6387C53.4893 16.3927 53.6623 16.1747 53.9063 16.1337C55.4023 15.8817 56.8793 15.3577 57.0053 15.0347C56.9073 14.7377 55.4823 14.0847 54.0153 13.7007C53.7773 13.6377 53.6233 13.4057 53.6603 13.1617C53.8813 11.6617 53.8393 10.0947 53.5713 9.87568C53.2523 9.88868 52.1913 11.0407 51.3783 12.3067C51.2453 12.5137 50.9753 12.5867 50.7553 12.4787C50.2813 12.2437 48.0513 11.2697 47.6033 11.5467C47.5083 11.8447 48.2763 13.2107 49.2373 14.3837C49.3943 14.5747 49.3813 14.8527 49.2093 15.0297C48.1553 16.1057 47.2733 17.3857 47.3463 17.7327C47.3713 17.7257 47.4553 17.7697 47.6973 17.7687C48.7273 17.7687 50.5333 17.0697 50.5513 17.0627C50.6093 17.0387 50.6693 17.0277 50.7273 17.0277Z" fill="white"/>
<path d="M61.0602 24.9636C60.4752 24.9636 59.8922 24.2056 59.4542 23.4466C58.7292 23.6856 57.5442 24.0276 57.1242 23.3896C56.8142 22.9226 57.1032 22.1936 57.9832 21.2216C57.1932 20.1756 56.9702 19.4246 57.3202 18.9856C57.4282 18.8496 57.6392 18.6886 58.0322 18.6886C58.5212 18.6886 59.2142 18.9506 59.6452 19.1376C60.0842 18.5156 60.7342 17.7656 61.3122 17.7656C62.2472 17.7656 62.2482 19.1456 62.1472 20.0706C63.4012 20.4526 64.0232 20.9296 63.9982 21.4906C63.9742 22.0506 63.3122 22.4706 62.0292 22.7396C62.0472 23.6246 61.9422 24.9636 61.0602 24.9636ZM59.6802 22.3686C59.8552 22.3686 60.0232 22.4646 60.1092 22.6286C60.3752 23.1376 60.7312 23.6546 60.9612 23.8856C61.0402 23.5676 61.0802 22.9416 61.0472 22.3686C61.0332 22.1226 61.2062 21.9046 61.4502 21.8636C62.0162 21.7686 62.6182 21.5896 62.9092 21.4416C62.6322 21.2686 62.0482 21.0366 61.4922 20.8916C61.2542 20.8286 61.1002 20.5966 61.1372 20.3526C61.2202 19.7846 61.2362 19.1566 61.1862 18.8346C60.9362 19.0446 60.5352 19.5286 60.2252 20.0116C60.0922 20.2186 59.8222 20.2916 59.6022 20.1836C59.2392 20.0036 58.5782 19.7296 58.1742 19.6696C58.2982 19.9726 58.6322 20.5016 58.9952 20.9446C59.1512 21.1356 59.1392 21.4136 58.9672 21.5906C58.5662 21.9996 58.1852 22.4966 58.0352 22.7876C58.4982 22.7606 59.2422 22.5046 59.5042 22.4036C59.5622 22.3796 59.6222 22.3686 59.6802 22.3686Z" fill="white"/>
<path d="M11.4113 31.4348L10.5933 30.7578C10.4903 30.6718 10.4763 30.5198 10.5613 30.4168C10.6463 30.3138 10.7983 30.2988 10.9013 30.3838L11.7193 31.0608C11.8223 31.1468 11.8363 31.2988 11.7513 31.4018C11.6683 31.5038 11.5153 31.5208 11.4113 31.4348Z" fill="white"/>
<path d="M12.7942 30.2549L11.7032 29.3628C11.6002 29.2778 11.5842 29.1258 11.6692 29.0218C11.7532 28.9188 11.9042 28.9028 12.0092 28.9878L13.1002 29.8799C13.2032 29.9649 13.2192 30.1168 13.1342 30.2208C13.0532 30.3208 12.9012 30.3409 12.7942 30.2549Z" fill="white"/>
<path d="M14.0543 29.2287L13.4393 28.3027C13.3653 28.1917 13.3973 28.0417 13.5083 27.9677C13.6183 27.8937 13.7683 27.9237 13.8443 28.0367L14.4573 28.9617C14.5313 29.0727 14.5003 29.2227 14.3903 29.2967C14.2763 29.3717 14.1273 29.3397 14.0543 29.2287Z" fill="white"/>
<path d="M15.5053 28.2858L14.8723 27.1848C14.8063 27.0688 14.8463 26.9208 14.9613 26.8548C15.0763 26.7888 15.2253 26.8268 15.2923 26.9438L15.9253 28.0448C15.9913 28.1608 15.9513 28.3088 15.8363 28.3748C15.7143 28.4438 15.5693 28.3978 15.5053 28.2858Z" fill="white"/>
<path d="M26.6762 25.9178C26.0552 25.6728 25.4962 25.2758 25.0622 24.7708C24.9752 24.6698 24.9862 24.5168 25.0882 24.4298C25.1902 24.3428 25.3412 24.3548 25.4292 24.4558C25.8132 24.9018 26.3062 25.2518 26.8542 25.4688C26.9782 25.5178 27.0392 25.6578 26.9902 25.7828C26.9402 25.9078 26.7982 25.9668 26.6762 25.9178Z" fill="white"/>
<path d="M28.0832 24.0588L27.0422 23.1148C26.9432 23.0248 26.9352 22.8718 27.0252 22.7728C27.1162 22.6748 27.2682 22.6668 27.3672 22.7558L28.4082 23.6998C28.5072 23.7898 28.5152 23.9428 28.4252 24.0418C28.3342 24.1418 28.1812 24.1478 28.0832 24.0588Z" fill="white"/>
<path d="M30.9163 22.4918L30.1373 21.4168C30.0593 21.3088 30.0823 21.1578 30.1913 21.0788C30.2983 20.9998 30.4493 21.0238 30.5283 21.1318L31.3073 22.2068C31.3853 22.3148 31.3623 22.4658 31.2533 22.5448C31.1463 22.6238 30.9953 22.6008 30.9163 22.4918Z" fill="white"/>
<path d="M33.6922 22.0368L33.4072 20.4998C33.3822 20.3688 33.4692 20.2418 33.6012 20.2178C33.7392 20.1898 33.8592 20.2798 33.8842 20.4108L34.1692 21.9488C34.1932 22.0798 34.1062 22.2068 33.9742 22.2308C33.8342 22.2538 33.7152 22.1618 33.6922 22.0368Z" fill="white"/>
<path d="M37.0303 23.1157C36.9013 23.0767 36.8303 22.9417 36.8683 22.8137L37.3233 21.3187C37.3633 21.1897 37.5033 21.1207 37.6243 21.1577C37.7533 21.1967 37.8243 21.3317 37.7863 21.4597L37.3313 22.9547C37.2913 23.0857 37.1523 23.1537 37.0303 23.1157Z" fill="white"/>
<path d="M38.5183 24.5678C38.4123 24.4858 38.3933 24.3338 38.4763 24.2278L39.9263 22.3598C40.0073 22.2538 40.1583 22.2348 40.2653 22.3178C40.3713 22.3998 40.3903 22.5508 40.3073 22.6568L38.8573 24.5248C38.7783 24.6278 38.6263 24.6498 38.5183 24.5678Z" fill="white"/>
<path d="M39.6762 24.6237L40.9342 23.6167C41.0392 23.5347 41.1902 23.5507 41.2742 23.6547C41.3572 23.7587 41.3402 23.9117 41.2362 23.9947L39.9782 25.0017C39.7282 25.2017 39.4282 24.8237 39.6762 24.6237Z" fill="white"/>
<path d="M3.32327 41.9366C3.21827 41.9366 3.12127 41.8676 3.09127 41.7616C2.52027 39.7736 3.67927 37.7006 5.66227 37.1366C5.79127 37.0976 5.92527 37.1746 5.96127 37.3026C5.99827 37.4316 5.92327 37.5646 5.79527 37.6016C4.06927 38.0926 3.06027 39.8996 3.55727 41.6286C3.59427 41.7566 3.52027 41.8906 3.39227 41.9276C3.36727 41.9336 3.34427 41.9366 3.32327 41.9366Z" fill="white"/>
<path d="M3.6663 40.7487C3.3303 40.3767 2.9423 40.0597 2.5123 39.8057C2.3973 39.7377 2.3593 39.5897 2.4273 39.4747C2.4933 39.3597 2.6423 39.3197 2.7583 39.3887C3.2303 39.6667 3.6573 40.0157 4.0253 40.4247C4.1153 40.5237 4.1063 40.6767 4.0083 40.7667C3.9093 40.8547 3.7573 40.8497 3.6663 40.7487Z" fill="white"/>
<path d="M4.65322 39.1917L3.87222 37.7407C3.80922 37.6227 3.85222 37.4767 3.97022 37.4137C4.08622 37.3507 4.23522 37.3937 4.29722 37.5127L5.07822 38.9627C5.14122 39.0807 5.09822 39.2277 4.98022 39.2907C4.86422 39.3527 4.71722 39.3107 4.65322 39.1917Z" fill="white"/>
<path d="M47.9043 43.4017L43.9493 39.4467C43.8553 39.3517 43.8553 39.1987 43.9493 39.1047C44.0443 39.0097 44.1973 39.0097 44.2913 39.1047L48.2463 43.0597C48.3403 43.1547 48.3403 43.3077 48.2463 43.4017C48.1523 43.4957 47.9993 43.4967 47.9043 43.4017Z" fill="white"/>
<path d="M48.8263 41.1298L46.2313 38.5348C46.1363 38.4408 46.1363 38.2868 46.2313 38.1928C46.3253 38.0988 46.4793 38.0988 46.5733 38.1928L49.1683 40.7878C49.2633 40.8818 49.2633 41.0358 49.1683 41.1298C49.0743 41.2228 48.9213 41.2248 48.8263 41.1298Z" fill="white"/>
<path d="M50.4033 38.7517L48.2843 36.6327C48.0593 36.4077 48.3993 36.0637 48.6263 36.2907L50.7453 38.4097C50.8403 38.5047 50.8403 38.6577 50.7453 38.7517C50.6513 38.8457 50.4983 38.8467 50.4033 38.7517Z" fill="white"/>
<path d="M50.9842 36.5948L49.3482 34.9597C49.2542 34.8647 49.2542 34.7118 49.3482 34.6178C49.4422 34.5238 49.5952 34.5228 49.6902 34.6178L51.3262 36.2527C51.4202 36.3477 51.4202 36.5008 51.3262 36.5948C51.2312 36.6908 51.0782 36.6888 50.9842 36.5948Z" fill="white"/>
<path d="M44.7273 44.4067L41.2883 40.9677C41.1943 40.8727 41.1943 40.7197 41.2883 40.6257C41.3833 40.5307 41.5363 40.5307 41.6303 40.6257L45.0693 44.0647C45.1633 44.1587 45.1633 44.3127 45.0693 44.4067C44.9753 44.5007 44.8223 44.5017 44.7273 44.4067Z" fill="white"/>
<path d="M41.7093 45.0387L39.0833 42.4127C38.9893 42.3187 38.9893 42.1647 39.0833 42.0707C39.1783 41.9767 39.3313 41.9767 39.4253 42.0707L42.0513 44.6967C42.1463 44.7907 42.1463 44.9447 42.0513 45.0387C41.9573 45.1327 41.8043 45.1347 41.7093 45.0387Z" fill="white"/>
<path d="M38.8752 46.1597L35.8882 43.1737C35.7942 43.0787 35.7942 42.9257 35.8882 42.8317C35.9832 42.7367 36.1362 42.7367 36.2302 42.8317L39.2172 45.8177C39.3112 45.9127 39.3112 46.0657 39.2172 46.1597C39.1232 46.2537 38.9702 46.2547 38.8752 46.1597Z" fill="white"/>
<path d="M36.3533 46.9836L33.6833 44.3136C33.5893 44.2186 33.5893 44.0656 33.6833 43.9716C33.7783 43.8766 33.9313 43.8766 34.0253 43.9716L36.6953 46.6416C36.7903 46.7356 36.7903 46.8896 36.6953 46.9836C36.6013 47.0776 36.4483 47.0786 36.3533 46.9836Z" fill="white"/>
<path d="M33.1582 47.4387L30.9462 45.2267C30.8522 45.1317 30.8522 44.9787 30.9462 44.8847C31.0412 44.7897 31.1942 44.7897 31.2882 44.8847L33.5002 47.0967C33.5942 47.1907 33.5942 47.3447 33.5002 47.4387C33.4062 47.5327 33.2532 47.5337 33.1582 47.4387Z" fill="white"/>
<path d="M29.3392 47.9548L27.2952 45.9108C27.2012 45.8158 27.2012 45.6628 27.2952 45.5688C27.3902 45.4738 27.5432 45.4738 27.6372 45.5688L29.6812 47.6128C29.7762 47.7068 29.7762 47.8608 29.6812 47.9548C29.5882 48.0488 29.4352 48.0498 29.3392 47.9548Z" fill="white"/>
<path d="M26.1933 48.6107L24.1003 46.5187C24.0063 46.4237 24.0063 46.2707 24.1003 46.1767C24.1953 46.0817 24.3483 46.0817 24.4423 46.1767L26.5343 48.2687C26.6283 48.3637 26.6283 48.5167 26.5343 48.6107C26.4413 48.7047 26.2883 48.7067 26.1933 48.6107Z" fill="white"/>
<path d="M22.7853 49.3098L20.9073 47.4318C20.8133 47.3368 20.8133 47.1838 20.9073 47.0898C21.0023 46.9948 21.1553 46.9948 21.2493 47.0898L23.1273 48.9678C23.2213 49.0618 23.2213 49.2158 23.1273 49.3098C23.0333 49.4038 22.8803 49.4048 22.7853 49.3098Z" fill="white"/>
<path d="M18.8163 49.9028L16.8773 47.9638C16.7823 47.8688 16.7823 47.7158 16.8773 47.6218C16.9723 47.5268 17.1253 47.5268 17.2193 47.6218L19.1583 49.5608C19.2533 49.6548 19.2533 49.8088 19.1583 49.9028C19.0643 49.9968 18.9113 49.9978 18.8163 49.9028Z" fill="white"/>
<path d="M14.9842 49.2417C14.8242 49.2417 13.6442 48.0007 13.5302 47.8877C13.4352 47.7927 13.4352 47.6397 13.5302 47.5457C13.6252 47.4507 13.7792 47.4517 13.8722 47.5457L15.1552 48.8287C15.2492 48.9237 15.2492 49.0767 15.1552 49.1707C15.1082 49.2177 15.0462 49.2417 14.9842 49.2417Z" fill="white"/>
<path d="M13.7582 48.9526C13.6642 48.8576 13.6642 48.7046 13.7582 48.6106L15.3262 47.0436C15.4212 46.9496 15.5742 46.9496 15.6682 47.0436C15.7622 47.1386 15.7622 47.2916 15.6682 47.3856L14.1002 48.9536C14.0072 49.0456 13.8542 49.0476 13.7582 48.9526Z" fill="white"/>
<path d="M16.1922 49.3327C16.0972 49.2387 16.0972 49.0847 16.1922 48.9907L17.4932 47.6887C17.5882 47.5937 17.7412 47.5937 17.8352 47.6887C17.9302 47.7837 17.9302 47.9367 17.8352 48.0307L16.5342 49.3327C16.4402 49.4267 16.2872 49.4277 16.1922 49.3327Z" fill="white"/>
<path d="M18.2463 49.5608C18.1523 49.4658 18.1523 49.3128 18.2463 49.2188L20.9883 46.4758C21.0833 46.3808 21.2363 46.3808 21.3303 46.4758C21.4243 46.5698 21.4243 46.7238 21.3303 46.8178L18.5883 49.5608C18.4943 49.6548 18.3413 49.6558 18.2463 49.5608Z" fill="white"/>
<path d="M21.5163 49.4087C21.4223 49.3147 21.4223 49.1607 21.5163 49.0667L25.5183 45.0647C25.6133 44.9697 25.7663 44.9697 25.8603 45.0647C25.9553 45.1587 25.9553 45.3127 25.8603 45.4067L21.8583 49.4087C21.7643 49.5027 21.6113 49.5037 21.5163 49.4087Z" fill="white"/>
<path d="M25.0893 49.1046C24.9953 49.0096 24.9953 48.8566 25.0893 48.7626L29.7653 44.0866C29.8593 43.9926 30.0133 43.9926 30.1073 44.0866C30.2013 44.1816 30.2013 44.3346 30.1073 44.4286L25.4313 49.1046C25.3383 49.1986 25.1843 49.1996 25.0893 49.1046Z" fill="white"/>
<path d="M28.7403 48.9528C28.6453 48.8578 28.6453 48.7048 28.7403 48.6108L34.6343 42.7168C34.7293 42.6218 34.8823 42.6218 34.9763 42.7168C35.0703 42.8118 35.0703 42.9648 34.9763 43.0588L29.0823 48.9528C28.9883 49.0468 28.8353 49.0478 28.7403 48.9528Z" fill="white"/>
<path d="M33.9873 47.3937L40.2963 41.0847C40.3913 40.9897 40.5443 40.9897 40.6383 41.0847C40.7333 41.1787 40.7333 41.3327 40.6383 41.4267L34.3293 47.7357C34.1033 47.9627 33.7623 47.6187 33.9873 47.3937Z" fill="white"/>
<path d="M39.4622 46.4046L46.4572 39.4096C46.5522 39.3146 46.7052 39.3146 46.7992 39.4096C46.8942 39.5046 46.8942 39.6576 46.7992 39.7516L39.8042 46.7466C39.5782 46.9736 39.2382 46.6296 39.4622 46.4046Z" fill="white"/>
<path d="M41.2122 43.1728C41.1182 43.0778 41.1182 42.9248 41.2122 42.8308L46.4022 37.6408C46.4972 37.5458 46.6502 37.5458 46.7442 37.6408C46.8392 37.7348 46.8392 37.8888 46.7442 37.9828L41.5542 43.1728C41.4602 43.2668 41.3072 43.2678 41.2122 43.1728Z" fill="white"/>
<path d="M44.9373 43.6678L48.4763 40.1298C48.5703 40.0348 48.7243 40.0348 48.8183 40.1298C48.9123 40.2238 48.9123 40.3778 48.8183 40.4718L45.2793 44.0098C45.0533 44.2368 44.7133 43.8928 44.9373 43.6678Z" fill="white"/>
<path d="M48.4362 39.0666C48.3412 38.9726 48.3412 38.8186 48.4362 38.7246L50.8342 36.3266C50.9282 36.2316 51.0822 36.2316 51.1762 36.3266C51.2712 36.4206 51.2712 36.5746 51.1762 36.6686L48.7782 39.0666C48.6842 39.1606 48.5312 39.1616 48.4362 39.0666Z" fill="white"/>
<path d="M49.5192 35.8677C49.4572 35.8677 49.3952 35.8437 49.3482 35.7967C49.2542 35.7027 49.2542 35.5487 49.3482 35.4547L50.2382 34.5647C50.3322 34.4697 50.4862 34.4697 50.5802 34.5647C50.6742 34.6587 50.6742 34.8127 50.5802 34.9067L49.6902 35.7967C49.6432 35.8437 49.5822 35.8677 49.5192 35.8677Z" fill="white"/>
</svg>
