<svg width="66" height="44" viewBox="0 0 66 44" fill="none" xmlns="http://www.w3.org/2000/svg">
<path d="M19.312 24.157C19.046 24.157 18.825 23.949 18.813 23.68C18.658 20.397 19.659 17.084 21.631 14.351C23.709 11.47 27.088 9.47904 30.668 9.02404C32.912 8.74004 35.151 9.04504 37.144 9.90804C39.433 10.898 41.457 12.666 42.841 14.885C43.19 15.443 42.344 15.978 41.993 15.414C40.714 13.365 38.85 11.736 36.747 10.826C34.918 10.034 32.863 9.75404 30.794 10.017C27.484 10.437 24.361 12.277 22.442 14.937C20.602 17.487 19.668 20.576 19.811 23.634C19.825 23.91 19.612 24.144 19.335 24.157C19.327 24.157 19.32 24.157 19.312 24.157Z" fill="white"/>
<path d="M30.989 35.067C29.659 35.067 28.347 34.882 27.111 34.514C26.846 34.435 26.696 34.157 26.774 33.892C26.853 33.628 27.13 33.476 27.396 33.556C33.291 35.309 41.039 32.586 43.28 25.124C43.359 24.86 43.639 24.711 43.902 24.789C44.167 24.869 44.317 25.147 44.237 25.412C42.289 31.897 36.491 35.067 30.989 35.067Z" fill="white"/>
<path d="M31.7801 43.4209C31.7771 43.4209 31.7741 43.4209 31.7711 43.4209C31.5131 43.4169 31.3001 43.2159 31.2811 42.9589C31.1821 41.6359 30.8321 40.1839 30.2111 38.5209C29.8971 37.6779 29.4541 37.1569 28.8971 36.9709C28.3781 36.7989 27.7361 36.9209 27.1311 37.3079C26.3411 37.8139 25.7641 38.6819 25.2541 39.4479C25.1351 39.6279 24.9101 39.7089 24.7071 39.6539C24.4991 39.5969 24.3511 39.4139 24.3391 39.1989C24.3101 38.6679 24.4091 38.1259 24.5051 37.6019C24.5591 37.3139 24.6111 37.0289 24.6371 36.7579C24.6901 36.2119 24.6091 35.7339 24.4081 35.4109C24.2621 35.1769 24.3341 34.8679 24.5681 34.7229C24.8031 34.5779 25.1121 34.6479 25.2571 34.8829C25.5731 35.3909 25.7061 36.0909 25.6331 36.8539C25.6171 37.0169 25.5931 37.1839 25.5651 37.3529C25.8661 37.0219 26.2021 36.7159 26.5921 36.4669C27.4511 35.9159 28.4071 35.7549 29.2121 36.0229C30.0711 36.3089 30.7231 37.0319 31.1491 38.1719C31.4321 38.9319 31.6631 39.6529 31.8411 40.3409C32.1351 39.4699 32.5281 38.6319 33.0111 37.8529C33.6671 36.7949 34.4491 36.1939 35.3331 36.0649C36.1271 35.9479 36.9471 36.2399 37.6941 36.9049C37.8941 37.0839 38.0891 37.2759 38.2731 37.4769C38.2821 37.1589 38.3201 36.8359 38.4001 36.5169C38.6881 35.3709 39.5161 34.4779 40.5091 34.2419C41.5421 33.9939 42.2991 34.2729 45.1491 35.7999C44.6691 34.8449 44.3041 33.8259 44.0761 32.7889C43.7681 31.3959 43.9011 30.3539 44.4811 29.6039C44.9671 28.9749 45.7901 28.5799 46.7371 28.5199C46.8231 28.5149 46.9241 28.5089 47.0341 28.5049C46.8201 28.3269 46.6181 28.1289 46.4371 27.9049C46.0831 27.4659 45.8451 26.9279 45.7671 26.3889C45.7281 26.1159 45.9171 25.8619 46.1911 25.8229C46.4561 25.7789 46.7171 25.9719 46.7571 26.2459C46.8101 26.6099 46.9721 26.9759 47.2151 27.2779C47.7291 27.9139 48.5101 28.3179 49.2661 28.7079C49.4901 28.8229 49.5921 29.0869 49.5061 29.3229C49.4211 29.5589 49.1781 29.6959 48.9271 29.6399C48.3631 29.5139 47.5841 29.4689 46.7991 29.5189C46.1391 29.5609 45.5821 29.8149 45.2721 30.2169C44.8841 30.7179 44.8131 31.4889 45.0521 32.5749C45.3851 34.0869 46.0311 35.5539 46.9181 36.8189C47.0521 37.0089 47.0361 37.2659 46.8821 37.4389C46.7271 37.6109 46.4751 37.6539 46.2701 37.5449C42.2531 35.3599 41.5531 35.0259 40.7401 35.2159C40.0191 35.3869 39.5331 36.1149 39.3711 36.7619C39.1651 37.5819 39.3111 38.4649 39.4821 39.2199C39.5381 39.4639 39.4041 39.7109 39.1711 39.7989C38.9371 39.8849 38.6741 39.7879 38.5551 39.5679C38.1901 38.8899 37.6331 38.1929 37.0291 37.6539C36.6681 37.3319 36.1101 36.9669 35.4761 37.0559C34.9061 37.1389 34.3471 37.5969 33.8611 38.3809C33.0021 39.7659 32.4541 41.3549 32.2781 42.9759C32.2491 43.2299 32.0351 43.4209 31.7801 43.4209Z" fill="white"/>
<path d="M15.7931 23.628C15.7001 23.562 15.6061 23.501 15.5111 23.446C14.4051 22.809 13.0101 22.678 11.7801 22.563C11.5371 22.54 11.3451 22.344 11.3281 22.1C11.3111 21.856 11.4731 21.635 11.7111 21.579C12.9081 21.293 13.9721 20.791 15.0991 20.259C15.9331 19.865 17.3071 19.385 17.5981 18.523C17.8051 17.905 17.4441 17.211 16.9941 16.797C16.4401 16.289 15.6851 16.005 14.9541 15.731C14.7351 15.649 14.6021 15.426 14.6351 15.194C14.6671 14.962 14.8561 14.784 15.0881 14.764C15.5531 14.725 16.0121 14.661 16.4721 14.598C16.9491 14.532 17.4251 14.467 17.9081 14.427C18.6791 14.362 19.1371 14.2 19.3461 13.918C19.5571 13.633 19.5871 13.128 19.4361 12.418C19.0611 10.664 18.2151 9.04501 16.9901 7.73701C16.8231 7.55801 16.8091 7.28401 16.9591 7.09001C17.1091 6.89501 17.3781 6.83901 17.5931 6.95501C18.9861 7.70501 20.3931 8.35201 21.8001 9.10801C22.3761 9.42001 22.8671 9.66001 23.3391 9.64301C24.1901 9.61901 24.8641 8.74001 25.0251 7.90301C25.2031 6.97501 24.9621 5.99001 24.6531 4.89101C24.5881 4.66201 24.6941 4.42101 24.9041 4.31201C25.1141 4.20201 25.3721 4.25601 25.5221 4.44001C25.8281 4.81701 26.0941 5.17501 26.3601 5.53401C26.7721 6.09101 27.5471 7.26901 28.2171 7.37501C28.4661 7.37301 28.7681 7.15001 29.1141 6.71201C30.3941 5.09601 31.2111 3.07701 31.4161 1.02601C31.4381 0.793008 31.6211 0.608008 31.8531 0.579008C32.0831 0.549008 32.3061 0.688008 32.3841 0.909008C32.6361 1.62301 32.9151 2.31401 33.1951 3.00601C33.4821 3.71501 33.7681 4.42401 34.0261 5.15601C34.3391 6.04101 34.7051 6.93001 35.4281 7.23101C36.1121 7.51601 36.9211 7.16101 37.4191 6.68201C38.0221 6.10401 38.3881 5.28601 38.7411 4.49401C38.8471 4.25401 39.1251 4.13901 39.3701 4.22901C39.6171 4.32001 39.7511 4.58701 39.6771 4.84001C39.4261 5.69001 39.2131 6.60801 39.3511 7.56701C39.4601 8.32701 40.0041 9.19401 40.7971 9.30401C41.5491 9.40901 42.0731 8.87901 44.5861 7.82801C45.2351 7.55601 45.8491 7.30001 46.4441 6.97501C46.6441 6.86601 46.8941 6.90701 47.0501 7.07401C47.2051 7.24201 47.2271 7.49401 47.1021 7.68701C46.0231 9.34601 45.1661 11.144 44.5531 13.03C44.4621 13.311 44.3441 13.725 44.3751 14.073C44.3991 14.348 44.1961 14.591 43.9221 14.615C43.6471 14.642 43.4041 14.438 43.3791 14.161C43.3311 13.631 43.4831 13.085 43.6021 12.721C44.0701 11.28 44.6741 9.88901 45.4061 8.56701C45.2601 8.62901 45.1151 8.68901 44.9711 8.75001C42.5641 9.75601 41.9241 10.473 40.6581 10.294C39.3681 10.114 38.5251 8.85701 38.3601 7.70901C38.3361 7.53601 38.3201 7.36501 38.3121 7.19701C38.2481 7.26701 38.1811 7.33601 38.1121 7.40301C37.3781 8.10701 36.1411 8.61101 35.0441 8.15401C33.9421 7.69601 33.4531 6.53701 33.0821 5.48801C32.8291 4.77101 32.5481 4.07501 32.2671 3.38001C32.2061 3.22901 32.1451 3.07801 32.0841 2.92701C31.6661 4.52501 30.9161 6.04501 29.8961 7.33201C29.3441 8.02901 28.7961 8.37001 28.2211 8.37401C28.2181 8.37401 28.2151 8.37401 28.2111 8.37401C27.2921 8.37401 26.6271 7.53501 26.0661 6.81201C26.0981 7.23101 26.0871 7.66101 26.0051 8.08901C25.7731 9.29701 24.7691 10.602 23.3641 10.641C22.5751 10.662 21.8811 10.287 21.3231 9.98601C20.6811 9.64001 19.7231 9.15701 19.0741 8.83801C19.7031 9.87301 20.1571 11.011 20.4131 12.207C20.6301 13.225 20.5431 13.979 20.1471 14.512C19.6361 15.2 18.7261 15.359 17.9901 15.421C17.6461 15.45 17.3061 15.492 16.9671 15.538C17.2141 15.686 17.4511 15.857 17.6691 16.058C18.5091 16.829 18.8531 17.92 18.5451 18.838C18.1181 20.11 16.7371 20.588 15.5261 21.16C15.0161 21.401 14.5191 21.636 14.0131 21.849C14.7001 21.994 15.3801 22.213 16.0101 22.576C16.1351 22.648 16.2561 22.726 16.3741 22.811C16.5991 22.972 16.6511 23.284 16.4911 23.508C16.3311 23.736 16.0191 23.789 15.7931 23.628Z" fill="white"/>
<path d="M33.1902 23.1881C31.4022 22.9601 30.7922 22.0261 30.9042 21.1571C31.0322 20.1841 32.0922 19.7431 32.4412 19.5981C33.7562 19.0521 35.1322 18.6501 36.5312 18.4051C36.7962 18.3591 37.0622 18.5391 37.1092 18.8111C37.1572 19.0831 36.9752 19.3421 36.7032 19.3901C35.3782 19.6221 34.0732 20.0031 32.8252 20.5211C32.2442 20.7631 31.9312 21.0211 31.8962 21.2861C31.8152 21.8971 32.7082 22.1181 33.3172 22.1961C35.3772 22.4601 37.5112 22.2641 39.4882 21.6331C39.7542 21.5501 40.0332 21.6951 40.1172 21.9581C40.2012 22.2211 40.0562 22.5021 39.7932 22.5861C37.7022 23.2531 35.4242 23.4731 33.1902 23.1881Z" fill="white"/>
<path d="M36.6261 19.957C36.3531 19.957 36.1311 19.739 36.1261 19.465C36.1021 18.036 36.7791 16.592 37.8931 15.695C39.0351 14.776 40.5141 14.442 41.9531 14.78C43.3891 15.118 44.5611 16.078 45.1731 17.412C45.2881 17.663 45.1781 17.96 44.9271 18.075C44.6771 18.188 44.3791 18.079 44.2651 17.829C43.2531 15.623 40.4121 14.949 38.5211 16.474C37.6431 17.182 37.1091 18.321 37.1281 19.448C37.1331 19.724 36.9121 19.951 36.6371 19.956C36.6321 19.957 36.6291 19.957 36.6261 19.957Z" fill="white"/>
<path d="M52.2282 18.41C52.0062 18.41 51.8032 18.262 51.7452 18.037C51.2622 16.195 49.8612 14.811 47.9992 14.335C46.1372 13.858 44.2432 14.401 42.9362 15.784C42.4832 16.264 41.7552 15.578 42.2092 15.096C43.7722 13.445 46.0312 12.798 48.2472 13.366C50.4662 13.933 52.1352 15.585 52.7122 17.783C52.7822 18.05 52.6232 18.323 52.3562 18.393C52.3122 18.405 52.2702 18.41 52.2282 18.41Z" fill="white"/>
<path d="M56.253 20.9881C56.155 20.7301 56.286 20.4411 56.545 20.3441C57.068 20.1461 57.466 19.6011 57.533 18.9871C57.643 17.9801 56.966 16.7271 55.205 16.1951C54.023 15.8381 52.707 15.9391 51.593 16.4741C51.344 16.5911 51.045 16.4881 50.926 16.2391C50.807 15.9901 50.912 15.6921 51.161 15.5721C52.498 14.9321 54.078 14.8111 55.494 15.2391C57.792 15.9321 58.677 17.7241 58.527 19.0961C58.371 20.5271 56.629 21.9881 56.253 20.9881Z" fill="white"/>
<path d="M56.434 23.5121C56.194 23.5121 55.981 23.3381 55.942 23.0921C55.897 22.8201 56.083 22.5631 56.355 22.5181L62.233 21.5651C63.404 21.3761 63.916 21.0891 64.002 20.5781C64.1 19.9911 63.497 19.4841 62.351 19.1861C60.91 18.8131 59.414 18.6391 57.941 18.6711C57.937 18.6711 57.933 18.6711 57.93 18.6711C57.659 18.6711 57.436 18.4541 57.43 18.1821C57.424 17.9061 57.644 17.6771 57.919 17.6711C59.504 17.6351 61.073 17.8221 62.601 18.2181C65.097 18.8651 65.06 20.3131 64.989 20.7411C64.75 22.1701 63.099 22.4371 62.394 22.5521L56.516 23.5051C56.488 23.5101 56.461 23.5121 56.434 23.5121Z" fill="white"/>
<path d="M51.8351 25.4591C51.0581 24.9551 50.5881 24.2051 50.5791 23.4511C50.5761 23.1751 50.7971 22.9491 51.0731 22.9451C51.3731 22.9001 51.5761 23.1621 51.5791 23.4391C51.5851 23.9321 51.9961 24.3721 52.3781 24.6191C53.1551 25.1231 54.1751 25.2231 55.0331 24.8791C55.8931 24.5361 56.5631 23.7641 56.7811 22.8631C56.8471 22.5951 57.1171 22.4271 57.3851 22.4951C57.6541 22.5601 57.8191 22.8301 57.7541 23.0991C57.4611 24.3091 56.5611 25.3481 55.4041 25.8081C54.2631 26.2641 52.8921 26.1431 51.8351 25.4591Z" fill="white"/>
<path d="M46.9761 26.863C46.4681 26.863 45.9601 26.802 45.4681 26.675C44.6081 26.455 43.8601 26.06 43.3061 25.533C42.6471 24.905 42.2501 24.069 42.2181 23.239C42.2081 22.963 42.4231 22.731 42.6981 22.721C43.0111 22.708 43.2061 22.926 43.2181 23.201C43.2391 23.773 43.5231 24.359 43.9951 24.809C44.4261 25.218 45.0201 25.529 45.7161 25.706C47.6001 26.188 49.7341 25.54 51.0291 24.092C51.2161 23.886 51.5331 23.87 51.7351 24.053C51.9411 24.237 51.9591 24.553 51.7751 24.759C50.5761 26.1 48.7711 26.863 46.9761 26.863Z" fill="white"/>
<path d="M40.7371 26.1941C40.2731 26.1941 39.8091 26.1221 39.3691 25.9721C37.9501 25.4921 36.8271 24.2371 36.5071 22.7741C36.4471 22.5041 36.6181 22.2381 36.8891 22.1791C37.1571 22.1201 37.4251 22.2911 37.4841 22.5601C37.7311 23.6881 38.5971 24.6551 39.6901 25.0251C40.7841 25.3951 42.0581 25.1521 42.9401 24.4071C43.1501 24.2301 43.4671 24.2551 43.6451 24.4661C43.8231 24.6771 43.7971 24.9921 43.5861 25.1711C42.7971 25.8371 41.7661 26.1941 40.7371 26.1941Z" fill="white"/>
<path d="M5.23211 32.8641C4.58711 32.8641 3.94411 32.8241 3.30611 32.7421C0.607108 32.3991 0.152108 30.1501 2.55911 29.1511C3.87211 28.6061 5.24711 28.2041 6.64711 27.9591C6.90211 27.9121 7.17811 28.0921 7.22511 28.3651C7.27311 28.6371 7.09111 28.8961 6.81911 28.9441C5.49211 29.1761 4.18811 29.5571 2.94311 30.0751C1.40311 30.7141 1.90711 31.5551 3.43311 31.7501C5.48911 32.0131 7.62511 31.8191 9.60411 31.1871C9.87211 31.1021 10.1481 31.2491 10.2331 31.5121C10.3171 31.7751 10.1721 32.0561 9.90911 32.1401C8.40411 32.6201 6.81511 32.8641 5.23211 32.8641Z" fill="white"/>
<path d="M6.74308 29.511C6.47008 29.511 6.24808 29.293 6.24308 29.019C6.21908 27.552 6.86508 26.179 8.01608 25.252C9.16408 24.328 10.6401 23.991 12.0701 24.328C13.4611 24.656 14.6951 25.667 15.2911 26.967C15.4051 27.218 15.2951 27.514 15.0441 27.63C14.7941 27.743 14.4971 27.635 14.3821 27.383C13.9121 26.358 12.9391 25.561 11.8411 25.302C10.7151 25.037 9.55008 25.303 8.64408 26.032C7.73508 26.763 7.22508 27.846 7.24408 29.003C7.24908 29.279 7.02808 29.507 6.75208 29.511C6.74808 29.511 6.74508 29.511 6.74308 29.511Z" fill="white"/>
<path d="M22.345 27.9639C22.123 27.9639 21.92 27.8159 21.862 27.5909C21.378 25.7489 19.977 24.3649 18.116 23.8889C16.253 23.4119 14.361 23.9529 13.052 25.3379C12.863 25.5379 12.546 25.5469 12.345 25.3579C12.145 25.1679 12.136 24.8519 12.325 24.6509C13.888 22.9999 16.147 22.3529 18.363 22.9209C20.582 23.4879 22.252 25.1389 22.829 27.3379C22.899 27.6049 22.74 27.8789 22.473 27.9479C22.43 27.9589 22.387 27.9639 22.345 27.9639Z" fill="white"/>
<path d="M26.8382 30.866C26.6362 30.866 26.4452 30.742 26.3702 30.542C26.2722 30.283 26.4032 29.995 26.6622 29.898C27.1252 29.723 27.4682 29.319 27.5992 28.79C27.7682 28.116 27.5652 27.388 27.0422 26.794C26.0332 25.646 23.7622 25.044 21.7082 26.028C21.4622 26.147 21.1602 26.043 21.0412 25.794C20.9222 25.545 21.0272 25.246 21.2762 25.127C23.7562 23.936 26.5372 24.706 27.7942 26.134C28.5352 26.978 28.8182 28.035 28.5682 29.032C28.3582 29.872 27.7772 30.546 27.0122 30.833C26.9562 30.855 26.8972 30.866 26.8382 30.866Z" fill="white"/>
<path d="M26.5512 33.0661C26.3112 33.0661 26.0982 32.8921 26.0592 32.6461C26.0142 32.3731 26.2002 32.1171 26.4722 32.0721L32.3492 31.1191C33.5842 30.9191 34.1912 30.3871 34.1532 29.9641C34.0872 29.2441 32.3512 28.1391 28.0562 28.2261C28.0522 28.2261 28.0482 28.2261 28.0452 28.2261C27.7742 28.2261 27.5512 28.0091 27.5452 27.7361C27.5392 27.4601 27.7592 27.2321 28.0342 27.2261C33.1002 27.1181 35.0312 28.5861 35.1482 29.8731C35.2472 30.9541 34.2102 31.8311 32.5082 32.1061L26.6312 33.0591C26.6052 33.0641 26.5782 33.0661 26.5512 33.0661Z" fill="white"/>
<path d="M24.0861 35.6331C23.3351 35.6331 22.5841 35.4231 21.9511 35.0131C21.1741 34.5101 20.7041 33.7591 20.6951 33.0051C20.6921 32.7291 20.9131 32.5031 21.1891 32.4991C21.4931 32.4701 21.6921 32.7171 21.6951 32.9931C21.7011 33.4861 22.1121 33.9261 22.4941 34.1731C23.2711 34.6761 24.2911 34.7761 25.1501 34.4331C26.0101 34.0901 26.6801 33.3181 26.8981 32.4171C26.9641 32.1501 27.2271 31.9831 27.5021 32.0491C27.7701 32.1141 27.9351 32.3841 27.8701 32.6531C27.5761 33.8631 26.6761 34.9021 25.5201 35.3621C25.0651 35.5441 24.5761 35.6331 24.0861 35.6331Z" fill="white"/>
<path d="M17.0811 36.4159C15.6391 36.4159 14.3161 35.9389 13.4231 35.0869C12.7631 34.4579 12.3661 33.6219 12.3351 32.7929C12.3251 32.5169 12.5401 32.2849 12.8171 32.2749C12.8241 32.2749 12.8301 32.2749 12.8351 32.2749C13.1031 32.2749 13.3241 32.4869 13.3351 32.7559C13.3561 33.3269 13.6401 33.9119 14.1121 34.3629C14.8651 35.0799 16.0451 35.4639 17.3041 35.4109C18.7951 35.3509 20.1951 34.7079 21.1441 33.6469C21.3321 33.4409 21.6471 33.4249 21.8501 33.6079C22.0561 33.7919 22.0741 34.1079 21.8901 34.3139C20.7601 35.5759 19.1041 36.3399 17.3441 36.4109C17.2571 36.4139 17.1691 36.4159 17.0811 36.4159Z" fill="white"/>
<path d="M9.49308 35.518C8.02408 35.021 6.95208 33.829 6.62308 32.328C6.56308 32.058 6.73408 31.792 7.00408 31.733C7.27708 31.675 7.54208 31.845 7.60008 32.114C7.85308 33.269 8.68108 34.187 9.81408 34.571C10.9441 34.954 12.1551 34.725 13.0561 33.962C13.2671 33.785 13.5831 33.81 13.7611 34.021C13.9401 34.231 13.9131 34.547 13.7031 34.726C12.5111 35.732 10.9321 36.006 9.49308 35.518Z" fill="white"/>
<path d="M22.4041 19.901C22.3821 19.901 22.3581 19.898 22.3351 19.891C22.2021 19.852 22.1261 19.714 22.1641 19.581C23.6861 14.311 28.9221 10.962 34.3451 11.797C34.4821 11.818 34.5751 11.945 34.5541 12.082C34.5331 12.219 34.4081 12.316 34.2691 12.291C29.1001 11.494 24.0981 14.689 22.6451 19.719C22.6131 19.83 22.5121 19.901 22.4041 19.901Z" fill="white"/>
</svg>
