<svg width="100" height="100" viewBox="0 0 100 100" fill="none" xmlns="http://www.w3.org/2000/svg">
<path d="M33.4085 52.2812C33.0861 52.2812 32.8182 52.0291 32.8036 51.7031C32.6158 47.7237 33.8291 43.7079 36.2194 40.3952C38.7382 36.9031 42.8339 34.4898 47.1733 33.9383C49.8933 33.594 52.6073 33.9637 55.023 35.0098C57.7976 36.2097 60.2509 38.3527 61.9285 41.0424C62.3515 41.7188 61.3261 42.3673 60.9006 41.6837C59.3503 39.2 57.0909 37.2255 54.5418 36.1224C52.3248 35.1624 49.8339 34.8231 47.3261 35.1418C43.3139 35.6509 39.5285 37.8812 37.2024 41.1055C34.9721 44.1964 33.84 47.9406 34.0133 51.6473C34.0303 51.9818 33.7721 52.2655 33.4364 52.2812C33.4267 52.2812 33.4182 52.2812 33.4085 52.2812Z" fill="white"/>
<path d="M47.5625 65.5055C45.9504 65.5055 44.3601 65.2813 42.8619 64.8352C42.5407 64.7394 42.3589 64.4025 42.4535 64.0813C42.5492 63.7613 42.885 63.577 43.2074 63.674C50.3529 65.7988 59.7444 62.4982 62.4607 53.4534C62.5565 53.1334 62.8959 52.9528 63.2147 53.0473C63.5359 53.1443 63.7177 53.4813 63.6207 53.8025C61.2595 61.6631 54.2316 65.5055 47.5625 65.5055Z" fill="white"/>
<path d="M48.5213 75.6313C48.5176 75.6313 48.514 75.6313 48.5104 75.6313C48.1976 75.6265 47.9395 75.3829 47.9164 75.0713C47.7964 73.4677 47.3722 71.7077 46.6195 69.6919C46.2388 68.6701 45.7019 68.0386 45.0267 67.8132C44.3976 67.6047 43.6195 67.7526 42.8861 68.2216C41.9285 68.835 41.2292 69.8871 40.611 70.8156C40.4667 71.0338 40.194 71.1319 39.9479 71.0653C39.6958 70.9962 39.5164 70.7744 39.5019 70.5138C39.4667 69.8701 39.5867 69.2132 39.7031 68.578C39.7685 68.2289 39.8316 67.8835 39.8631 67.555C39.9273 66.8932 39.8292 66.3138 39.5855 65.9222C39.4085 65.6386 39.4958 65.2641 39.7795 65.0883C40.0643 64.9126 40.4388 64.9974 40.6146 65.2822C40.9976 65.898 41.1588 66.7465 41.0704 67.6713C41.051 67.8689 41.0219 68.0713 40.9879 68.2762C41.3528 67.875 41.7601 67.5041 42.2328 67.2022C43.274 66.5344 44.4328 66.3392 45.4085 66.6641C46.4498 67.0107 47.2401 67.8871 47.7564 69.2689C48.0995 70.1901 48.3795 71.0641 48.5952 71.898C48.9516 70.8422 49.4279 69.8265 50.0134 68.8823C50.8085 67.5998 51.7564 66.8713 52.8279 66.715C53.7904 66.5732 54.7843 66.9271 55.6898 67.7332C55.9322 67.9501 56.1685 68.1829 56.3916 68.4265C56.4025 68.041 56.4485 67.6495 56.5455 67.2629C56.8946 65.8738 57.8982 64.7913 59.1019 64.5053C60.354 64.2047 61.2716 64.5429 64.7261 66.3938C64.1443 65.2362 63.7019 64.001 63.4255 62.7441C63.0522 61.0556 63.2134 59.7926 63.9164 58.8835C64.5055 58.121 65.5031 57.6422 66.651 57.5695C66.7552 57.5635 66.8776 57.5562 67.011 57.5513C66.7516 57.3356 66.5067 57.0956 66.2873 56.8241C65.8582 56.2919 65.5698 55.6398 65.4752 54.9865C65.4279 54.6556 65.657 54.3477 65.9891 54.3004C66.3104 54.2471 66.6267 54.481 66.6752 54.8132C66.7394 55.2544 66.9358 55.698 67.2304 56.0641C67.8534 56.835 68.8001 57.3247 69.7164 57.7974C69.9879 57.9368 70.1116 58.2568 70.0073 58.5429C69.9043 58.8289 69.6098 58.995 69.3055 58.9271C68.6219 58.7744 67.6776 58.7198 66.7261 58.7804C65.9261 58.8313 65.251 59.1392 64.8752 59.6265C64.4049 60.2338 64.3188 61.1683 64.6085 62.4847C65.0122 64.3174 65.7952 66.0956 66.8704 67.6289C67.0328 67.8592 67.0134 68.1707 66.8267 68.3804C66.6388 68.5889 66.3334 68.641 66.0849 68.5089C61.2158 65.8604 60.3673 65.4556 59.3819 65.6859C58.5079 65.8932 57.9188 66.7756 57.7225 67.5598C57.4728 68.5538 57.6498 69.6241 57.857 70.5392C57.9249 70.835 57.7625 71.1344 57.4801 71.241C57.1964 71.3453 56.8776 71.2277 56.7334 70.961C56.291 70.1392 55.6158 69.2944 54.8837 68.641C54.4461 68.2507 53.7698 67.8083 53.0013 67.9162C52.3104 68.0168 51.6328 68.5719 51.0437 69.5223C50.0025 71.201 49.3382 73.1271 49.1249 75.0919C49.0898 75.3998 48.8304 75.6313 48.5213 75.6313Z" fill="white"/>
<path d="M29.1431 51.64C29.0304 51.56 28.9164 51.486 28.8013 51.4194C27.4607 50.6473 25.7698 50.4885 24.2789 50.3491C23.9843 50.3212 23.7516 50.0836 23.731 49.7879C23.7104 49.4921 23.9067 49.2242 24.1952 49.1564C25.6461 48.8097 26.9358 48.2012 28.3019 47.5564C29.3128 47.0788 30.9782 46.497 31.331 45.4521C31.5819 44.703 31.1443 43.8618 30.5989 43.36C29.9273 42.7442 29.0122 42.4 28.1261 42.0679C27.8607 41.9685 27.6995 41.6982 27.7395 41.417C27.7782 41.1357 28.0073 40.92 28.2885 40.8957C28.8522 40.8485 29.4085 40.7709 29.9661 40.6945C30.5443 40.6145 31.1213 40.5357 31.7067 40.4873C32.6413 40.4085 33.1964 40.2121 33.4498 39.8703C33.7055 39.5248 33.7419 38.9127 33.5589 38.0521C33.1043 35.926 32.0789 33.9636 30.594 32.3782C30.3916 32.1612 30.3746 31.8291 30.5564 31.5939C30.7382 31.3576 31.0643 31.2897 31.3249 31.4303C33.0134 32.3394 34.7189 33.1236 36.4243 34.04C37.1225 34.4182 37.7176 34.7091 38.2898 34.6885C39.3213 34.6594 40.1382 33.5939 40.3334 32.5794C40.5492 31.4545 40.257 30.2606 39.8825 28.9285C39.8037 28.6509 39.9322 28.3588 40.1867 28.2267C40.4413 28.0933 40.754 28.1588 40.9358 28.3818C41.3067 28.8388 41.6292 29.2727 41.9516 29.7079C42.451 30.383 43.3904 31.8109 44.2025 31.9394C44.5043 31.937 44.8704 31.6667 45.2898 31.1358C46.8413 29.177 47.8316 26.7297 48.0801 24.2436C48.1067 23.9612 48.3286 23.737 48.6098 23.7018C48.8886 23.6655 49.1589 23.8339 49.2534 24.1018C49.5589 24.9673 49.897 25.8048 50.2364 26.6436C50.5843 27.503 50.931 28.3624 51.2437 29.2497C51.6231 30.3224 52.0667 31.4 52.9431 31.7648C53.7722 32.1103 54.7528 31.68 55.3564 31.0994C56.0873 30.3988 56.531 29.4073 56.9589 28.4473C57.0873 28.1564 57.4243 28.017 57.7213 28.1261C58.0207 28.2364 58.1831 28.56 58.0934 28.8667C57.7892 29.897 57.531 31.0097 57.6982 32.1721C57.8304 33.0933 58.4898 34.1442 59.451 34.2776C60.3625 34.4048 60.9976 33.7624 64.0437 32.4885C64.8304 32.1588 65.5746 31.8485 66.2958 31.4545C66.5382 31.3224 66.8413 31.3721 67.0304 31.5745C67.2182 31.7782 67.2449 32.0836 67.0934 32.3176C65.7855 34.3285 64.7467 36.5079 64.0037 38.7939C63.8934 39.1345 63.7504 39.6364 63.7879 40.0582C63.817 40.3915 63.571 40.686 63.2389 40.7151C62.9055 40.7479 62.611 40.5006 62.5807 40.1648C62.5225 39.5224 62.7067 38.8606 62.851 38.4194C63.4182 36.6727 64.1504 34.9867 65.0376 33.3842C64.8607 33.4594 64.6849 33.5321 64.5104 33.6061C61.5928 34.8255 60.817 35.6945 59.2825 35.4776C57.7189 35.2594 56.697 33.7358 56.497 32.3442C56.4679 32.1345 56.4485 31.9273 56.4389 31.7236C56.3613 31.8085 56.2801 31.8921 56.1964 31.9733C55.3067 32.8267 53.8073 33.4376 52.4776 32.8836C51.1419 32.3285 50.5492 30.9236 50.0995 29.6521C49.7928 28.783 49.4522 27.9394 49.1116 27.097C49.0376 26.9139 48.9637 26.7309 48.8898 26.5479C48.3831 28.4848 47.474 30.3273 46.2376 31.8873C45.5685 32.7321 44.9043 33.1455 44.2073 33.1503C44.2037 33.1503 44.2001 33.1503 44.1952 33.1503C43.0813 33.1503 42.2752 32.1333 41.5952 31.257C41.634 31.7648 41.6207 32.2861 41.5213 32.8048C41.2401 34.2691 40.0231 35.8509 38.3201 35.8982C37.3637 35.9236 36.5225 35.4691 35.8461 35.1042C35.0679 34.6848 33.9067 34.0994 33.1201 33.7127C33.8825 34.9673 34.4328 36.3467 34.7431 37.7964C35.0061 39.0303 34.9007 39.9442 34.4207 40.5903C33.8013 41.4242 32.6982 41.617 31.8061 41.6921C31.3892 41.7273 30.977 41.7782 30.5661 41.8339C30.8655 42.0133 31.1528 42.2206 31.417 42.4642C32.4352 43.3988 32.8522 44.7212 32.4789 45.8339C31.9613 47.3757 30.2873 47.9551 28.8195 48.6485C28.2013 48.9406 27.5989 49.2254 26.9855 49.4836C27.8182 49.6594 28.6425 49.9248 29.4061 50.3648C29.5576 50.4521 29.7043 50.5467 29.8473 50.6497C30.1201 50.8448 30.1831 51.223 29.9892 51.4945C29.7952 51.7709 29.417 51.8351 29.1431 51.64Z" fill="white"/>
<path d="M50.2305 51.1068C48.0633 50.8304 47.3239 49.6983 47.4596 48.645C47.6148 47.4656 48.8996 46.931 49.3227 46.7553C50.9166 46.0935 52.5845 45.6062 54.2802 45.3092C54.6015 45.2535 54.9239 45.4717 54.9809 45.8013C55.039 46.131 54.8184 46.445 54.4887 46.5032C52.8827 46.7844 51.3009 47.2462 49.7881 47.8741C49.0839 48.1674 48.7045 48.4801 48.6621 48.8014C48.5639 49.542 49.6463 49.8098 50.3845 49.9044C52.8815 50.2244 55.4681 49.9868 57.8645 49.222C58.1869 49.1214 58.5251 49.2971 58.6269 49.6159C58.7287 49.9347 58.553 50.2753 58.2342 50.3771C55.6996 51.1856 52.9384 51.4523 50.2305 51.1068Z" fill="white"/>
<path d="M54.3954 47.1903C54.0645 47.1903 53.7954 46.9261 53.7893 46.594C53.7602 44.8619 54.5808 43.1115 55.9311 42.0243C57.3154 40.9103 59.1081 40.5055 60.8524 40.9152C62.593 41.3249 64.0136 42.4885 64.7554 44.1055C64.8948 44.4097 64.7614 44.7697 64.4572 44.9091C64.1542 45.0461 63.793 44.914 63.6548 44.6109C62.4281 41.937 58.9845 41.12 56.6924 42.9685C55.6281 43.8267 54.9808 45.2073 55.0039 46.5734C55.0099 46.9079 54.7421 47.1831 54.4087 47.1891C54.4027 47.1903 54.399 47.1903 54.3954 47.1903Z" fill="white"/>
<path d="M73.307 45.3151C73.0379 45.3151 72.7919 45.1357 72.7216 44.863C72.1361 42.6303 70.4379 40.9527 68.1809 40.3757C65.924 39.7975 63.6282 40.4557 62.044 42.1321C61.4949 42.7139 60.6125 41.8824 61.1628 41.2982C63.0573 39.2969 65.7955 38.5127 68.4816 39.2012C71.1712 39.8885 73.1943 41.8909 73.8937 44.5551C73.9785 44.8788 73.7858 45.2097 73.4622 45.2945C73.4088 45.3091 73.3579 45.3151 73.307 45.3151Z" fill="white"/>
<path d="M78.1855 48.4401C78.0667 48.1274 78.2255 47.7771 78.5394 47.6595C79.1733 47.4195 79.6558 46.7589 79.737 46.0147C79.8703 44.7941 79.0497 43.2753 76.9152 42.6305C75.4824 42.1977 73.8873 42.3201 72.537 42.9686C72.2352 43.1104 71.8727 42.9856 71.7285 42.6838C71.5843 42.382 71.7115 42.0208 72.0133 41.8753C73.634 41.0995 75.5491 40.9529 77.2655 41.4717C80.0509 42.3117 81.1237 44.4838 80.9418 46.1468C80.7527 47.8814 78.6412 49.6523 78.1855 48.4401Z" fill="white"/>
<path d="M78.4048 51.4995C78.1139 51.4995 77.8557 51.2886 77.8084 50.9904C77.7539 50.6607 77.9793 50.3492 78.309 50.2946L85.4339 49.1395C86.8533 48.9104 87.4739 48.5625 87.5781 47.9431C87.6969 47.2316 86.966 46.6171 85.5769 46.2558C83.8303 45.8037 82.0169 45.5928 80.2315 45.6316C80.2266 45.6316 80.2218 45.6316 80.2181 45.6316C79.8896 45.6316 79.6193 45.3686 79.6121 45.0389C79.6048 44.7043 79.8715 44.4267 80.2048 44.4195C82.126 44.3758 84.0278 44.6025 85.88 45.0825C88.9054 45.8667 88.8606 47.6219 88.7745 48.1407C88.4848 49.8728 86.4836 50.1964 85.629 50.3358L78.5042 51.491C78.4702 51.4971 78.4375 51.4995 78.4048 51.4995Z" fill="white"/>
<path d="M72.8304 53.8595C71.8886 53.2486 71.3189 52.3395 71.308 51.4255C71.3044 51.091 71.5723 50.8171 71.9068 50.8122C72.2704 50.7577 72.5165 51.0752 72.5201 51.411C72.5274 52.0086 73.0256 52.5419 73.4886 52.8413C74.4304 53.4522 75.6668 53.5734 76.7068 53.1564C77.7492 52.7407 78.5614 51.8049 78.8256 50.7128C78.9056 50.388 79.2329 50.1843 79.5577 50.2668C79.8838 50.3455 80.0838 50.6728 80.005 50.9989C79.6498 52.4655 78.5589 53.7249 77.1565 54.2825C75.7735 54.8352 74.1117 54.6886 72.8304 53.8595Z" fill="white"/>
<path d="M66.9408 55.5612C66.325 55.5612 65.7093 55.4873 65.1129 55.3333C64.0705 55.0666 63.1638 54.5879 62.4923 53.9491C61.6935 53.1879 61.2123 52.1745 61.1735 51.1685C61.1614 50.8339 61.422 50.5527 61.7553 50.5406C62.1347 50.5248 62.3711 50.7891 62.3856 51.1224C62.4111 51.8157 62.7553 52.526 63.3274 53.0715C63.8499 53.5673 64.5699 53.9442 65.4135 54.1588C67.6971 54.743 70.2838 53.9576 71.8535 52.2024C72.0802 51.9527 72.4644 51.9333 72.7093 52.1551C72.959 52.3782 72.9808 52.7612 72.7577 53.0109C71.3044 54.6363 69.1165 55.5612 66.9408 55.5612Z" fill="white"/>
<path d="M59.3784 54.7504C58.816 54.7504 58.2535 54.6631 57.7202 54.4813C56.0002 53.8995 54.639 52.3783 54.2511 50.605C54.1784 50.2777 54.3857 49.9553 54.7141 49.8837C55.039 49.8122 55.3638 50.0195 55.4354 50.3456C55.7347 51.7128 56.7844 52.885 58.1093 53.3334C59.4354 53.7819 60.9796 53.4874 62.0487 52.5844C62.3032 52.3698 62.6875 52.4001 62.9032 52.6559C63.119 52.9116 63.0875 53.2934 62.8317 53.5104C61.8754 54.3177 60.6257 54.7504 59.3784 54.7504Z" fill="white"/>
<path d="M16.3418 62.8352C15.56 62.8352 14.7806 62.7867 14.0073 62.6873C10.7358 62.2716 10.1843 59.5455 13.1018 58.3346C14.6934 57.674 16.36 57.1867 18.057 56.8898C18.3661 56.8328 18.7006 57.051 18.7576 57.3819C18.8158 57.7116 18.5952 58.0255 18.2655 58.0837C16.657 58.3649 15.0764 58.8267 13.5673 59.4546C11.7006 60.2292 12.3115 61.2486 14.1612 61.4849C16.6534 61.8037 19.2425 61.5686 21.6412 60.8025C21.9661 60.6995 22.3006 60.8777 22.4037 61.1964C22.5055 61.5152 22.3297 61.8558 22.0109 61.9576C20.1867 62.5395 18.2606 62.8352 16.3418 62.8352Z" fill="white"/>
<path d="M18.1735 58.7709C17.8426 58.7709 17.5735 58.5067 17.5674 58.1745C17.5383 56.3964 18.3214 54.7321 19.7165 53.6085C21.108 52.4885 22.8972 52.08 24.6305 52.4885C26.3165 52.8861 27.8123 54.1115 28.5347 55.6873C28.6729 55.9915 28.5396 56.3503 28.2353 56.4909C27.9323 56.6279 27.5723 56.497 27.4329 56.1915C26.8632 54.9491 25.6838 53.983 24.3529 53.6691C22.9881 53.3479 21.5759 53.6703 20.4777 54.5539C19.3759 55.44 18.7577 56.7527 18.7808 58.1552C18.7868 58.4897 18.5189 58.7661 18.1844 58.7709C18.1796 58.7709 18.1759 58.7709 18.1735 58.7709Z" fill="white"/>
<path d="M37.0848 56.8957C36.8157 56.8957 36.5697 56.7163 36.4994 56.4436C35.9127 54.2109 34.2145 52.5333 31.9587 51.9563C29.7006 51.3781 27.4072 52.0339 25.8206 53.7127C25.5915 53.9551 25.2072 53.966 24.9636 53.7369C24.7212 53.5066 24.7103 53.1236 24.9394 52.8799C26.8339 50.8787 29.5721 50.0945 32.2581 50.783C34.9478 51.4702 36.9721 53.4715 37.6715 56.1369C37.7563 56.4605 37.5636 56.7927 37.24 56.8763C37.1878 56.8896 37.1357 56.8957 37.0848 56.8957Z" fill="white"/>
<path d="M42.5312 60.4134C42.2863 60.4134 42.0548 60.2631 41.9639 60.0206C41.8451 59.7067 42.0039 59.3576 42.3178 59.24C42.879 59.0279 43.2948 58.5382 43.4536 57.897C43.6584 57.08 43.4124 56.1976 42.7784 55.4776C41.5554 54.0861 38.8027 53.3564 36.313 54.5491C36.0148 54.6934 35.6487 54.5673 35.5045 54.2655C35.3603 53.9637 35.4875 53.6012 35.7893 53.457C38.7954 52.0134 42.1663 52.9467 43.69 54.6776C44.5881 55.7006 44.9312 56.9818 44.6281 58.1903C44.3736 59.2085 43.6693 60.0255 42.7421 60.3734C42.6742 60.4 42.6027 60.4134 42.5312 60.4134Z" fill="white"/>
<path d="M42.1834 63.0801C41.8925 63.0801 41.6343 62.8692 41.587 62.571C41.5325 62.2401 41.7579 61.9298 42.0876 61.8753L49.2112 60.7201C50.7082 60.4777 51.444 59.8328 51.3979 59.3201C51.3179 58.4474 49.2137 57.108 44.0076 57.2134C44.0028 57.2134 43.9979 57.2134 43.9943 57.2134C43.6658 57.2134 43.3955 56.9504 43.3882 56.6195C43.3809 56.285 43.6476 56.0086 43.9809 56.0013C50.1215 55.8704 52.4621 57.6498 52.604 59.2098C52.724 60.5201 51.467 61.5831 49.404 61.9165L42.2803 63.0716C42.2488 63.0777 42.2161 63.0801 42.1834 63.0801Z" fill="white"/>
<path d="M39.1953 66.1917C38.285 66.1917 37.3747 65.9371 36.6074 65.4402C35.6656 64.8305 35.0959 63.9202 35.085 63.0062C35.0814 62.6717 35.3492 62.3977 35.6838 62.3929C36.0523 62.3577 36.2935 62.6571 36.2971 62.9917C36.3044 63.5893 36.8026 64.1226 37.2656 64.422C38.2074 65.0317 39.4438 65.1529 40.485 64.7371C41.5274 64.3214 42.3395 63.3856 42.6038 62.2935C42.6838 61.9699 43.0026 61.7674 43.3359 61.8474C43.6608 61.9262 43.8608 62.2535 43.782 62.5796C43.4256 64.0462 42.3347 65.3056 40.9335 65.8632C40.382 66.0838 39.7892 66.1917 39.1953 66.1917Z" fill="white"/>
<path d="M30.7043 67.1405C28.9564 67.1405 27.3528 66.5623 26.2704 65.5296C25.4704 64.7672 24.9892 63.7538 24.9516 62.749C24.9395 62.4144 25.2001 62.1332 25.5358 62.1211C25.5443 62.1211 25.5516 62.1211 25.5576 62.1211C25.8825 62.1211 26.1504 62.3781 26.1637 62.7041C26.1892 63.3962 26.5334 64.1053 27.1055 64.652C28.0182 65.5211 29.4485 65.9866 30.9746 65.9223C32.7819 65.8496 34.4788 65.0702 35.6292 63.7841C35.857 63.5344 36.2388 63.515 36.4849 63.7369C36.7346 63.9599 36.7564 64.3429 36.5334 64.5926C35.1637 66.1223 33.1564 67.0484 31.0231 67.1344C30.9176 67.1381 30.811 67.1405 30.7043 67.1405Z" fill="white"/>
<path d="M21.5068 66.0521C19.7261 65.4497 18.4268 64.0048 18.028 62.1854C17.9552 61.8581 18.1625 61.5357 18.4898 61.4642C18.8207 61.3939 19.1419 61.5999 19.2122 61.926C19.5189 63.326 20.5225 64.4387 21.8958 64.9042C23.2656 65.3684 24.7334 65.0909 25.8256 64.166C26.0813 63.9515 26.4644 63.9818 26.6801 64.2375C26.8971 64.4921 26.8644 64.8751 26.6098 65.0921C25.165 66.3115 23.251 66.6436 21.5068 66.0521Z" fill="white"/>
<path d="M37.1565 47.1224C37.1299 47.1224 37.1008 47.1187 37.0729 47.1103C36.9117 47.063 36.8196 46.8957 36.8656 46.7345C38.7105 40.3466 45.0571 36.2872 51.6305 37.2994C51.7965 37.3248 51.9093 37.4787 51.8838 37.6448C51.8583 37.8109 51.7068 37.9284 51.5383 37.8981C45.2729 36.9321 39.2099 40.8048 37.4486 46.9018C37.4099 47.0363 37.2874 47.1224 37.1565 47.1224Z" fill="white"/>
</svg>
