<svg width="100" height="100" viewBox="0 0 100 100" fill="none" xmlns="http://www.w3.org/2000/svg">
<g clip-path="url(#clip0)">
<path d="M44.6016 43.7746C44.5628 43.7746 44.5228 43.7709 44.4828 43.7634C44.1541 43.6984 43.9416 43.3796 44.0066 43.0521C46.4616 30.6309 55.4128 24.1009 66.9841 19.0497C67.2316 18.9434 67.5216 19.0109 67.6928 19.2209C67.8653 19.4297 67.8766 19.7272 67.7241 19.9497C62.4928 27.5047 58.1478 34.4396 57.9466 42.7934C57.9378 43.1271 57.6491 43.3959 57.3278 43.3834C56.9941 43.3746 56.7291 43.0984 56.7366 42.7634C56.9291 34.7459 60.7253 28.0847 65.5091 21.0384C55.2128 25.7997 47.4091 32.0734 45.1916 43.2884C45.1366 43.5746 44.8841 43.7746 44.6016 43.7746Z" fill="white"/>
<path d="M65.033 76.951C64.713 76.856 64.5305 76.5197 64.6255 76.1985C64.7205 75.8785 65.0542 75.696 65.378 75.7897C71.5217 77.6135 78.3955 77.4397 84.5292 75.3522C80.3867 74.3222 76.5455 72.7822 73.0892 70.761C72.7992 70.5922 72.703 70.2222 72.8717 69.9335C73.0405 69.6447 73.4117 69.5472 73.6992 69.7172C77.5855 71.9897 81.9755 73.6372 86.7492 74.6147C87.0092 74.6672 87.2042 74.8847 87.2305 75.1497C87.2555 75.4147 87.1055 75.6647 86.8605 75.766C80.1755 78.5447 72.228 79.0847 65.033 76.951Z" fill="white"/>
<path d="M34.4529 81.4184C30.4529 81.4184 26.5704 81.1372 23.1054 80.461C20.3066 79.9147 16.2491 78.8797 13.3241 76.1922C10.3053 73.4172 9.19033 69.2397 10.6128 66.0297C11.6016 63.7972 13.6428 62.2359 16.0703 61.8534C18.5103 61.4722 20.9216 62.3322 22.5479 64.1547C22.7704 64.4034 22.7491 64.7859 22.4991 65.0084C22.2491 65.2309 21.8678 65.2097 21.6453 64.9597C20.2941 63.4447 18.2778 62.7334 16.2578 63.0484C14.2378 63.3659 12.5403 64.6634 11.7178 66.5197C10.3628 69.5772 11.9116 73.2509 14.1403 75.3009C16.2241 77.2147 19.0591 78.4397 23.3366 79.2735C37.8854 82.1097 60.8241 77.6847 66.6116 75.0585C68.6591 74.1297 71.4304 72.4197 73.0116 69.5534C74.4479 66.9497 74.4966 63.8247 73.1366 61.5947C71.6754 59.1997 68.4754 58.0984 66.1491 59.1947C65.8479 59.3359 65.4866 59.2072 65.3441 58.9047C65.2016 58.6022 65.3316 58.2422 65.6341 58.0997C68.5404 56.7309 72.3704 58.0159 74.1691 60.9647C75.7516 63.5584 75.7129 67.1585 74.0704 70.1372C72.3304 73.2935 69.3254 75.1534 67.1129 76.1584C62.4479 78.2772 47.8041 81.4172 34.4529 81.4184Z" fill="white"/>
<path d="M37.8652 58.381C34.8415 56.6085 36.024 48.3535 42.079 43.9972C45.309 41.6735 49.5527 40.6735 53.7177 41.256C57.5927 41.796 61.399 43.6897 64.4352 46.5872C68.0115 50.0035 69.7265 54.3097 69.0252 58.1072C68.9652 58.4347 68.6415 58.651 68.3215 58.5922C67.9927 58.531 67.7752 58.216 67.8365 57.8872C68.4627 54.4922 66.879 50.5947 63.599 47.4622C60.7465 44.7372 57.1765 42.9585 53.5502 42.4535C49.6865 41.9172 45.7652 42.836 42.7852 44.9785C37.2765 48.9422 36.4952 56.1747 38.4765 57.3372C39.1227 57.7147 40.0777 57.436 40.0252 56.7235C40.0002 56.3897 40.2515 56.0997 40.584 56.076C40.9115 56.0535 41.2077 56.301 41.2327 56.6347C41.3552 58.3047 39.4002 59.2797 37.8652 58.381Z" fill="white"/>
<path d="M18.6327 63.0347C18.6214 63.0347 18.6089 63.0347 18.5977 63.0334C18.2652 63.0134 18.0089 62.7284 18.0289 62.3947C18.2339 58.8672 19.8077 55.4322 22.3439 52.9722C24.8814 50.5122 28.3626 49.0447 31.8951 48.9484C34.3376 48.8834 36.3764 49.5759 37.6201 50.9059C37.8476 51.1497 37.8351 51.5322 37.5914 51.7609C37.3451 51.9897 36.9639 51.9759 36.7364 51.7322C35.3814 50.2834 33.1326 50.1272 31.9276 50.1584C28.6939 50.2472 25.5076 51.5897 23.1839 53.8409C20.8627 56.0922 19.4239 59.2359 19.2352 62.4659C19.2177 62.7859 18.9527 63.0347 18.6327 63.0347Z" fill="white"/>
<path d="M23.0414 60.1196C23.0101 60.1196 22.9789 60.1146 22.9476 60.1046C22.7876 60.0521 22.7014 59.8821 22.7539 59.7234C23.9939 55.9159 27.6539 53.1146 31.6526 52.9121C31.8076 52.8984 31.9626 53.0309 31.9701 53.1984C31.9789 53.3646 31.8501 53.5071 31.6826 53.5159C27.9876 53.7034 24.4739 56.3934 23.3264 59.9121C23.2864 60.0384 23.1689 60.1196 23.0414 60.1196Z" fill="white"/>
<path d="M40.9352 52.7234C40.784 52.6534 40.7165 52.4746 40.7865 52.3221C42.574 48.4384 46.474 45.6096 50.719 45.1159C54.9665 44.6221 59.409 46.4834 62.039 49.8559C62.1415 49.9871 62.1177 50.1784 61.9865 50.2809C61.8565 50.3821 61.6652 50.3596 61.5627 50.2284C59.0615 47.0184 54.829 45.2446 50.7915 45.7184C46.749 46.1871 43.0377 48.8796 41.3377 52.5759C41.2665 52.7271 41.0877 52.7934 40.9352 52.7234Z" fill="white"/>
<path d="M76.4479 45.0772C75.2242 45.0772 73.8529 42.9447 73.1254 41.6372C71.7454 42.1197 68.9554 43.0172 68.1654 41.8197C67.4329 40.7122 69.0229 38.6659 70.2754 37.3259C69.1479 35.8797 67.7467 33.7009 68.5742 32.6622C69.4679 31.5397 72.1917 32.6884 73.4979 33.2847C74.2492 32.1847 75.8017 30.1497 77.0054 30.1497C78.7392 30.1497 78.5542 33.3872 78.3429 35.0972C80.1042 35.6034 82.5204 36.5434 82.4604 37.8697C82.4017 39.1959 79.9117 39.9159 78.1117 40.2647C78.1692 41.8959 78.0929 45.0772 76.4479 45.0772ZM73.4092 40.2847C73.6292 40.2847 73.8379 40.4047 73.9454 40.6097C74.8129 42.2697 75.9879 43.8059 76.4317 43.8672C76.7654 43.6122 76.9879 41.6797 76.8792 39.7984C76.8617 39.4909 77.0779 39.2184 77.3829 39.1672C79.2529 38.8522 81.0992 38.1972 81.2567 37.7934C81.1342 37.4222 79.3529 36.6059 77.5192 36.1259C77.2217 36.0472 77.0292 35.7572 77.0754 35.4522C77.3517 33.5772 77.2992 31.6184 76.9642 31.3447C76.5654 31.3609 75.2392 32.8009 74.2229 34.3834C74.0567 34.6422 73.7192 34.7334 73.4442 34.5984C72.8517 34.3047 70.0642 33.0872 69.5042 33.4334C69.3854 33.8059 70.3454 35.5134 71.5467 36.9797C71.7429 37.2184 71.7267 37.5659 71.5117 37.7872C70.1942 39.1322 69.0917 40.7322 69.1829 41.1659C69.2142 41.1572 69.3192 41.2122 69.6217 41.2109C70.9092 41.2109 73.1667 40.3372 73.1892 40.3284C73.2617 40.2984 73.3367 40.2847 73.4092 40.2847Z" fill="white"/>
<path d="M86.3252 50.2045C85.594 50.2045 84.8652 49.257 84.3177 48.3083C83.4115 48.607 81.9302 49.0345 81.4052 48.237C81.0177 47.6533 81.379 46.742 82.479 45.527C81.4915 44.2195 81.2127 43.2808 81.6502 42.732C81.7852 42.562 82.049 42.3608 82.5402 42.3608C83.1515 42.3608 84.0177 42.6883 84.5565 42.922C85.1052 42.1445 85.9177 41.207 86.6402 41.207C87.809 41.207 87.8102 42.932 87.684 44.0883C89.2515 44.5658 90.029 45.162 89.9977 45.8633C89.9677 46.5633 89.1402 47.0883 87.5365 47.4245C87.559 48.5308 87.4277 50.2045 86.3252 50.2045ZM84.6002 46.9608C84.819 46.9608 85.029 47.0808 85.1365 47.2858C85.469 47.922 85.914 48.5683 86.2015 48.857C86.3002 48.4595 86.3502 47.677 86.309 46.9608C86.2915 46.6533 86.5077 46.3808 86.8127 46.3295C87.5202 46.2108 88.2727 45.987 88.6365 45.802C88.2902 45.5858 87.5602 45.2958 86.8652 45.1145C86.5677 45.0358 86.3752 44.7458 86.4215 44.4408C86.5252 43.7308 86.5452 42.9458 86.4827 42.5433C86.1702 42.8058 85.669 43.4108 85.2815 44.0145C85.1152 44.2733 84.7777 44.3645 84.5027 44.2295C84.049 44.0045 83.2227 43.662 82.7177 43.587C82.8727 43.9658 83.2902 44.627 83.744 45.1808C83.939 45.4195 83.924 45.767 83.709 45.9883C83.2077 46.4995 82.7315 47.1208 82.544 47.4845C83.1227 47.4508 84.0527 47.1308 84.3802 47.0045C84.4527 46.9745 84.5277 46.9608 84.6002 46.9608Z" fill="white"/>
<path d="M24.2643 58.2935L23.2418 57.4472C23.113 57.3397 23.0955 57.1497 23.2018 57.0209C23.308 56.8922 23.498 56.8734 23.6268 56.9797L24.6493 57.826C24.778 57.9335 24.7955 58.1235 24.6893 58.2522C24.5855 58.3797 24.3943 58.401 24.2643 58.2935Z" fill="white"/>
<path d="M25.9927 56.8187L24.629 55.7036C24.5002 55.5973 24.4802 55.4073 24.5865 55.2773C24.6915 55.1486 24.8802 55.1286 25.0115 55.2348L26.3752 56.3499C26.504 56.4562 26.524 56.6461 26.4177 56.7761C26.3165 56.9011 26.1265 56.9262 25.9927 56.8187Z" fill="white"/>
<path d="M27.568 55.5359L26.7992 54.3784C26.7067 54.2397 26.7467 54.0522 26.8855 53.9597C27.023 53.8672 27.2105 53.9047 27.3055 54.0459L28.0717 55.2022C28.1642 55.3409 28.1255 55.5284 27.988 55.6209C27.8455 55.7147 27.6592 55.6747 27.568 55.5359Z" fill="white"/>
<path d="M29.3816 54.3573L28.5903 52.981C28.5078 52.836 28.5578 52.651 28.7016 52.5685C28.8453 52.486 29.0316 52.5335 29.1153 52.6798L29.9066 54.056C29.9891 54.201 29.9391 54.386 29.7953 54.4685C29.6428 54.5548 29.4616 54.4973 29.3816 54.3573Z" fill="white"/>
<path d="M43.3453 51.3973C42.5691 51.091 41.8703 50.5948 41.3278 49.9635C41.2191 49.8373 41.2328 49.646 41.3603 49.5373C41.4878 49.4285 41.6766 49.4435 41.7866 49.5698C42.2666 50.1273 42.8828 50.5648 43.5678 50.836C43.7228 50.8973 43.7991 51.0723 43.7378 51.2285C43.6753 51.3848 43.4978 51.4585 43.3453 51.3973Z" fill="white"/>
<path d="M45.104 49.0735L43.8027 47.8935C43.679 47.781 43.669 47.5897 43.7815 47.466C43.8952 47.3435 44.0852 47.3335 44.209 47.4447L45.5102 48.6247C45.634 48.7372 45.644 48.9285 45.5315 49.0522C45.4177 49.1772 45.2265 49.1847 45.104 49.0735Z" fill="white"/>
<path d="M48.6454 47.1148L47.6716 45.771C47.5741 45.636 47.6029 45.4473 47.7391 45.3485C47.8729 45.2498 48.0616 45.2798 48.1604 45.4148L49.1341 46.7585C49.2316 46.8935 49.2029 47.0823 49.0666 47.181C48.9329 47.2798 48.7441 47.251 48.6454 47.1148Z" fill="white"/>
<path d="M52.1153 46.546L51.759 44.6248C51.7278 44.461 51.8365 44.3023 52.0015 44.2723C52.174 44.2373 52.324 44.3498 52.3553 44.5135L52.7115 46.436C52.7415 46.5998 52.6328 46.7585 52.4678 46.7885C52.2928 46.8173 52.144 46.7023 52.1153 46.546Z" fill="white"/>
<path d="M56.2878 47.8946C56.1265 47.8459 56.0378 47.6771 56.0853 47.5171L56.654 45.6484C56.704 45.4871 56.879 45.4009 57.0303 45.4471C57.1915 45.4959 57.2803 45.6646 57.2328 45.8246L56.664 47.6934C56.614 47.8571 56.4403 47.9421 56.2878 47.8946Z" fill="white"/>
<path d="M58.1479 49.7098C58.0154 49.6073 57.9917 49.4173 58.0954 49.2848L59.9079 46.9498C60.0092 46.8173 60.1979 46.7935 60.3317 46.8973C60.4642 46.9998 60.4879 47.1885 60.3842 47.321L58.5717 49.656C58.4729 49.7848 58.2829 49.8123 58.1479 49.7098Z" fill="white"/>
<path d="M59.5953 49.7796L61.1678 48.5208C61.299 48.4183 61.4878 48.4383 61.5928 48.5683C61.6965 48.6983 61.6753 48.8896 61.5453 48.9933L59.9728 50.2521C59.6603 50.5021 59.2853 50.0296 59.5953 49.7796Z" fill="white"/>
<path d="M14.154 71.4208C14.0228 71.4208 13.9015 71.3345 13.864 71.202C13.1503 68.717 14.599 66.1258 17.0778 65.4208C17.239 65.372 17.4065 65.4683 17.4515 65.6283C17.4978 65.7895 17.404 65.9558 17.244 66.002C15.0865 66.6158 13.8253 68.8745 14.4465 71.0358C14.4928 71.1958 14.4003 71.3633 14.2403 71.4095C14.209 71.417 14.1803 71.4208 14.154 71.4208Z" fill="white"/>
<path d="M14.5829 69.9359C14.1629 69.4709 13.6779 69.0746 13.1404 68.7571C12.9966 68.6721 12.9491 68.4871 13.0341 68.3434C13.1166 68.1996 13.3029 68.1496 13.4479 68.2359C14.0379 68.5834 14.5716 69.0196 15.0316 69.5309C15.1441 69.6546 15.1329 69.8459 15.0104 69.9584C14.8866 70.0684 14.6966 70.0621 14.5829 69.9359Z" fill="white"/>
<path d="M15.8166 67.9896L14.8404 66.1759C14.7616 66.0284 14.8154 65.8459 14.9629 65.7671C15.1079 65.6884 15.2941 65.7421 15.3716 65.8909L16.3479 67.7034C16.4266 67.8509 16.3729 68.0346 16.2254 68.1134C16.0804 68.1909 15.8966 68.1384 15.8166 67.9896Z" fill="white"/>
<path d="M69.8805 73.2521L64.9368 68.3083C64.8193 68.1896 64.8193 67.9983 64.9368 67.8808C65.0555 67.7621 65.2468 67.7621 65.3643 67.8808L70.308 72.8246C70.4255 72.9433 70.4255 73.1346 70.308 73.2521C70.1905 73.3696 69.9993 73.3708 69.8805 73.2521Z" fill="white"/>
<path d="M71.033 70.4122L67.7893 67.1685C67.6705 67.051 67.6705 66.8585 67.7893 66.741C67.9068 66.6235 68.0993 66.6235 68.2168 66.741L71.4605 69.9847C71.5793 70.1022 71.5793 70.2947 71.4605 70.4122C71.343 70.5285 71.1518 70.531 71.033 70.4122Z" fill="white"/>
<path d="M73.0042 67.4396L70.3555 64.7909C70.0742 64.5096 70.4992 64.0796 70.783 64.3634L73.4317 67.0121C73.5505 67.1309 73.5505 67.3221 73.4317 67.4396C73.3142 67.5571 73.123 67.5584 73.0042 67.4396Z" fill="white"/>
<path d="M73.7303 64.7434L71.6853 62.6996C71.5678 62.5808 71.5678 62.3897 71.6853 62.2722C71.8028 62.1547 71.994 62.1534 72.1128 62.2722L74.1578 64.3158C74.2753 64.4346 74.2753 64.6259 74.1578 64.7434C74.039 64.8634 73.8478 64.8609 73.7303 64.7434Z" fill="white"/>
<path d="M65.9091 74.5084L61.6103 70.2097C61.4928 70.0909 61.4928 69.8997 61.6103 69.7822C61.7291 69.6634 61.9203 69.6634 62.0378 69.7822L66.3366 74.0809C66.4541 74.1984 66.4541 74.3909 66.3366 74.5084C66.2191 74.6259 66.0278 74.6272 65.9091 74.5084Z" fill="white"/>
<path d="M62.1365 75.2984L58.854 72.0159C58.7365 71.8984 58.7365 71.7059 58.854 71.5884C58.9727 71.4709 59.164 71.4709 59.2815 71.5884L62.564 74.8709C62.6827 74.9884 62.6827 75.1809 62.564 75.2984C62.4465 75.4159 62.2552 75.4184 62.1365 75.2984Z" fill="white"/>
<path d="M58.5941 76.6996L54.8603 72.9671C54.7428 72.8484 54.7428 72.6571 54.8603 72.5396C54.9791 72.4209 55.1703 72.4209 55.2878 72.5396L59.0216 76.2721C59.1391 76.3909 59.1391 76.5821 59.0216 76.6996C58.9041 76.8171 58.7128 76.8184 58.5941 76.6996Z" fill="white"/>
<path d="M55.4417 77.7296L52.1042 74.392C51.9867 74.2733 51.9867 74.0821 52.1042 73.9646C52.223 73.8458 52.4142 73.8458 52.5317 73.9646L55.8692 77.3021C55.988 77.4196 55.988 77.6121 55.8692 77.7296C55.7517 77.8471 55.5605 77.8483 55.4417 77.7296Z" fill="white"/>
<path d="M51.4479 78.2984L48.6829 75.5334C48.5654 75.4147 48.5654 75.2234 48.6829 75.1059C48.8016 74.9872 48.9929 74.9872 49.1104 75.1059L51.8753 77.8709C51.9928 77.9884 51.9928 78.1809 51.8753 78.2984C51.7578 78.4159 51.5666 78.4172 51.4479 78.2984Z" fill="white"/>
<path d="M46.6739 78.9435L44.1189 76.3885C44.0014 76.2698 44.0014 76.0785 44.1189 75.961C44.2376 75.8423 44.4289 75.8423 44.5464 75.961L47.1014 78.516C47.2201 78.6335 47.2201 78.826 47.1014 78.9435C46.9851 79.061 46.7939 79.0623 46.6739 78.9435Z" fill="white"/>
<path d="M42.7417 79.7634L40.1255 77.1484C40.008 77.0296 40.008 76.8384 40.1255 76.7209C40.2442 76.6021 40.4355 76.6021 40.553 76.7209L43.168 79.3359C43.2855 79.4546 43.2855 79.6459 43.168 79.7634C43.0517 79.8809 42.8605 79.8834 42.7417 79.7634Z" fill="white"/>
<path d="M38.4818 80.6373L36.1343 78.2898C36.0168 78.171 36.0168 77.9798 36.1343 77.8623C36.253 77.7435 36.4443 77.7435 36.5618 77.8623L38.9093 80.2098C39.0268 80.3273 39.0268 80.5198 38.9093 80.6373C38.7918 80.7548 38.6005 80.756 38.4818 80.6373Z" fill="white"/>
<path d="M33.5204 81.3785L31.0966 78.9548C30.9779 78.836 30.9779 78.6448 31.0966 78.5273C31.2154 78.4085 31.4066 78.4085 31.5241 78.5273L33.9479 80.951C34.0666 81.0685 34.0666 81.261 33.9479 81.3785C33.8304 81.496 33.6391 81.4973 33.5204 81.3785Z" fill="white"/>
<path d="M28.7303 80.5521C28.5303 80.5521 27.0553 79.0008 26.9128 78.8596C26.794 78.7408 26.794 78.5496 26.9128 78.4321C27.0315 78.3134 27.224 78.3146 27.3403 78.4321L28.944 80.0359C29.0615 80.1546 29.0615 80.3459 28.944 80.4634C28.8853 80.5221 28.8078 80.5521 28.7303 80.5521Z" fill="white"/>
<path d="M27.1977 80.1908C27.0802 80.0721 27.0802 79.8808 27.1977 79.7633L29.1577 77.8046C29.2765 77.6871 29.4677 77.6871 29.5852 77.8046C29.7027 77.9233 29.7027 78.1146 29.5852 78.2321L27.6252 80.1921C27.509 80.3071 27.3177 80.3096 27.1977 80.1908Z" fill="white"/>
<path d="M30.2402 80.6659C30.1214 80.5484 30.1214 80.3559 30.2402 80.2384L31.8664 78.6109C31.9852 78.4922 32.1764 78.4922 32.2939 78.6109C32.4127 78.7297 32.4127 78.9209 32.2939 79.0384L30.6677 80.6659C30.5502 80.7834 30.3589 80.7847 30.2402 80.6659Z" fill="white"/>
<path d="M32.8079 80.951C32.6904 80.8323 32.6904 80.641 32.8079 80.5235L36.2354 77.0948C36.3541 76.976 36.5454 76.976 36.6629 77.0948C36.7804 77.2123 36.7804 77.4048 36.6629 77.5223L33.2354 80.951C33.1179 81.0685 32.9266 81.0698 32.8079 80.951Z" fill="white"/>
<path d="M36.8953 80.7609C36.7778 80.6434 36.7778 80.4509 36.8953 80.3334L41.8978 75.3309C42.0165 75.2121 42.2078 75.2121 42.3253 75.3309C42.444 75.4484 42.444 75.6409 42.3253 75.7584L37.3228 80.7609C37.2053 80.8784 37.014 80.8796 36.8953 80.7609Z" fill="white"/>
<path d="M41.3616 80.3808C41.2441 80.262 41.2441 80.0708 41.3616 79.9533L47.2066 74.1083C47.3241 73.9908 47.5166 73.9908 47.6341 74.1083C47.7516 74.227 47.7516 74.4183 47.6341 74.5358L41.7891 80.3808C41.6728 80.4983 41.4803 80.4995 41.3616 80.3808Z" fill="white"/>
<path d="M45.9252 80.1909C45.8065 80.0722 45.8065 79.8809 45.9252 79.7634L53.2927 72.3959C53.4115 72.2772 53.6027 72.2772 53.7202 72.3959C53.8377 72.5147 53.8377 72.7059 53.7202 72.8234L46.3527 80.1909C46.2352 80.3084 46.044 80.3097 45.9252 80.1909Z" fill="white"/>
<path d="M52.4842 78.2422L60.3705 70.3559C60.4892 70.2372 60.6805 70.2372 60.798 70.3559C60.9167 70.4734 60.9167 70.6659 60.798 70.7834L52.9117 78.6697C52.6292 78.9534 52.203 78.5234 52.4842 78.2422Z" fill="white"/>
<path d="M59.3277 77.0058L68.0715 68.262C68.1902 68.1433 68.3815 68.1433 68.499 68.262C68.6177 68.3808 68.6177 68.572 68.499 68.6895L59.7552 77.4333C59.4727 77.717 59.0477 77.287 59.3277 77.0058Z" fill="white"/>
<path d="M61.5151 72.966C61.3976 72.8472 61.3976 72.656 61.5151 72.5385L68.0026 66.051C68.1214 65.9322 68.3126 65.9322 68.4301 66.051C68.5489 66.1685 68.5489 66.361 68.4301 66.4785L61.9426 72.966C61.8251 73.0835 61.6339 73.0847 61.5151 72.966Z" fill="white"/>
<path d="M66.1717 73.5848L70.5955 69.1623C70.713 69.0436 70.9055 69.0436 71.023 69.1623C71.1405 69.2798 71.1405 69.4723 71.023 69.5898L66.5992 74.0123C66.3167 74.2961 65.8917 73.8661 66.1717 73.5848Z" fill="white"/>
<path d="M70.5454 67.8333C70.4266 67.7158 70.4266 67.5233 70.5454 67.4058L73.5429 64.4083C73.6604 64.2895 73.8529 64.2895 73.9704 64.4083C74.0891 64.5258 74.0891 64.7183 73.9704 64.8358L70.9729 67.8333C70.8554 67.9508 70.6641 67.952 70.5454 67.8333Z" fill="white"/>
<path d="M71.899 63.8346C71.8215 63.8346 71.744 63.8046 71.6853 63.7459C71.5678 63.6284 71.5678 63.4359 71.6853 63.3184L72.7978 62.2059C72.9153 62.0871 73.1078 62.0871 73.2253 62.2059C73.3428 62.3234 73.3428 62.5159 73.2253 62.6334L72.1128 63.7459C72.054 63.8046 71.9778 63.8346 71.899 63.8346Z" fill="white"/>
</g>
<defs>
<clipPath id="clip0">
<rect x="10" y="19" width="80" height="62.5" fill="white"/>
</clipPath>
</defs>
</svg>
