<svg width="71" height="45" viewBox="0 0 71 45" fill="none" xmlns="http://www.w3.org/2000/svg">
<path d="M21.6733 23.4183C14.9337 23.4183 8.19725 23.2585 1.48582 22.936C0.624979 22.8946 -0.0417821 22.1994 0.00204254 21.3829C0.0489975 20.5694 0.72515 19.9067 1.64234 19.9807C24.1369 21.0634 46.8788 20.315 69.2481 17.7619C70.0871 17.6584 70.8822 18.2412 70.9886 19.0547C71.0919 19.8683 70.4815 20.6049 69.6206 20.7025C53.753 22.51 37.6944 23.4183 21.6733 23.4183Z" fill="white"/>
<path d="M4.43352 5.66756C3.69689 5.66756 3.05789 5.11435 2.96914 4.36589C2.87152 3.55531 3.44839 2.81869 4.26194 2.72106C24.5827 0.280435 45.2526 -0.524227 65.6947 0.330731C66.5112 0.366231 67.1443 1.05552 67.1117 1.87202C67.0733 2.68556 66.3574 3.34823 65.5734 3.28906C45.2881 2.44298 24.7839 3.23877 4.61398 5.66165C4.55185 5.66461 4.49268 5.66756 4.43352 5.66756Z" fill="white"/>
<path d="M65.6376 38.4582C66.3743 38.4582 67.0133 39.0114 67.102 39.7598C67.1996 40.5704 66.6228 41.307 65.8092 41.4047C45.4884 43.8453 24.8186 44.65 4.37648 43.795C3.55998 43.7595 2.9269 43.0702 2.95944 42.2537C2.99789 41.4402 3.71381 40.7775 4.49777 40.8367C24.7831 41.6828 45.2873 40.887 65.4572 38.4641C65.5193 38.4611 65.5785 38.4582 65.6376 38.4582Z" fill="white"/>
<path d="M15.862 14.626C13.0996 14.626 10.344 14.5935 7.58496 14.5313C6.64126 14.5077 5.89317 13.8302 5.91719 13.0108C5.94464 12.209 6.70646 11.573 7.633 11.573C7.64673 11.573 7.66389 11.573 7.68104 11.573C25.1686 11.9783 42.8312 11.079 60.1609 8.89572C61.0737 8.75668 61.9659 9.33355 62.1066 10.1441C62.2439 10.9518 61.5953 11.7032 60.6551 11.8215C45.8648 13.6853 30.8308 14.626 15.862 14.626Z" fill="white"/>
<path d="M52.1796 29.5837C54.942 29.5837 57.6976 29.6163 60.4567 29.6784C61.4004 29.702 62.1485 30.3795 62.1244 31.199C62.097 32.0007 61.3352 32.6367 60.4086 32.6367C60.3949 32.6367 60.3777 32.6367 60.3606 32.6367C42.873 32.2314 25.2104 33.1308 7.88072 35.314C6.96791 35.453 6.07569 34.8762 5.93499 34.0656C5.79773 33.258 6.4463 32.5066 7.38656 32.3882C22.1769 30.5245 37.2108 29.5837 52.1796 29.5837Z" fill="white"/>
</svg>
