<svg width="100" height="100" viewBox="0 0 100 100" fill="none" xmlns="http://www.w3.org/2000/svg">
<path d="M34.4206 51.3868C26.8267 51.3868 19.2363 51.2068 11.6742 50.8434C10.7042 50.7967 9.95292 50.0134 10.0023 49.0934C10.0552 48.1768 10.8171 47.4301 11.8505 47.5135C37.1965 48.7334 62.8212 47.8902 88.026 45.0134C88.9714 44.8968 89.8673 45.5535 89.9872 46.4701C90.1036 47.3868 89.4158 48.2168 88.4457 48.3268C70.5668 50.3634 52.4726 51.3868 34.4206 51.3868Z" fill="white"/>
<path d="M15.0425 31.386C14.2125 31.386 13.4925 30.7626 13.3925 29.9193C13.2825 29.006 13.9325 28.176 14.8492 28.066C37.7458 25.316 61.0358 24.4093 84.0692 25.3727C84.9892 25.4127 85.7025 26.1893 85.6658 27.1093C85.6225 28.026 84.8159 28.7727 83.9325 28.706C61.0758 27.7527 37.9725 28.6493 15.2458 31.3793C15.1758 31.3827 15.1092 31.386 15.0425 31.386Z" fill="white"/>
<path d="M84.005 68.3333C84.8351 68.3333 85.5551 68.9566 85.655 69.7998C85.765 70.7132 85.1151 71.5432 84.1984 71.6533C61.3017 74.4032 38.0118 75.3099 14.9784 74.3465C14.0584 74.3065 13.3451 73.5299 13.3817 72.6099C13.425 71.6933 14.2317 70.9465 15.1151 71.0133C37.9718 71.9666 61.0751 71.0699 83.8017 68.3399C83.8717 68.3365 83.9384 68.3333 84.005 68.3333Z" fill="white"/>
<path d="M29.0933 41.48C25.9807 41.48 22.8758 41.4434 19.767 41.3733C18.7037 41.3467 17.8608 40.5833 17.8878 39.6601C17.9188 38.7566 18.7772 38.04 19.8211 38.04C19.8366 38.04 19.856 38.04 19.8753 38.04C39.5796 38.4967 59.4811 37.4834 79.0075 35.0233C80.036 34.8667 81.0413 35.5167 81.1999 36.43C81.3546 37.3401 80.6237 38.1867 79.5644 38.32C62.8992 40.4201 45.9595 41.48 29.0933 41.48Z" fill="white"/>
<path d="M70.0145 58.3337C73.127 58.3337 76.2319 58.3705 79.3408 58.4404C80.4041 58.467 81.247 59.2304 81.2199 60.1538C81.189 61.0571 80.3306 61.7737 79.2866 61.7737C79.2711 61.7737 79.2518 61.7737 79.2325 61.7737C59.5281 61.3171 39.6266 62.3305 20.1002 64.7904C19.0717 64.947 18.0664 64.2971 17.9079 63.3838C17.7532 62.4738 18.484 61.6271 19.5434 61.4937C36.2086 59.3938 53.1482 58.3337 70.0145 58.3337Z" fill="white"/>
</svg>
