<svg width="55" height="88" viewBox="0 0 55 88" fill="none" xmlns="http://www.w3.org/2000/svg">
<path d="M40.9115 68.752C40.8674 68.9435 40.6785 69.0865 40.4278 69.1078C35.735 69.5117 30.4535 66.973 28.1431 63.2021C23.9954 56.4341 28.0472 49.5153 31.3627 44.0666C34.473 38.9496 37.4659 32.6828 38.7171 27.2493C40.5628 19.2346 37.156 14.7877 32.7355 12.7897C27.1208 10.2523 20.3882 12.2255 19.2391 17.2154C18.0069 22.5662 23.7254 26.8827 28.4443 25.1177C32.774 23.4961 31.771 18.3613 28.2693 18.019C26.8846 17.8836 24.8835 18.7655 26.4719 22.7755C26.5543 22.982 26.469 23.1944 26.2589 23.3051C26.049 23.4149 25.7611 23.4003 25.5381 23.2678C23.5911 22.1081 22.5423 19.9441 22.9886 18.0059C23.7802 14.5683 28.5023 14.094 31.5438 15.5424C37.0645 18.1716 35.4932 26.2484 30.2471 28.4961C21.4643 32.2581 9.33482 23.1716 11.6246 13.2284C12.9485 7.47914 19.0058 3.47055 26.6855 3.51625C32.5139 3.55013 38.1609 5.91868 41.7925 9.85195C47.2806 15.7957 46.8022 24.1231 45.4346 30.0619C43.9235 36.6294 41.325 41.3869 38.0844 46.0816C34.9725 50.5901 31.6575 55.4836 33.1156 60.8834C34.0132 64.2124 36.9599 67.1286 40.4455 68.139C40.7272 68.2201 40.9232 68.4415 40.9183 68.6715C40.921 68.6994 40.9175 68.726 40.9115 68.752ZM29.2579 62.8437C30.869 65.4736 34.2292 67.4746 37.5937 68.0062C34.8289 66.4514 32.6665 63.8556 31.8934 60.9911C30.3369 55.217 33.8153 50.1048 36.9734 45.5258C40.1334 40.9494 42.6994 36.305 44.2024 29.7782C46.0709 21.6644 44.8679 14.778 40.8147 10.3889C37.4518 6.74547 32.2181 4.55218 26.8157 4.52013C19.6021 4.47737 14.0693 8.26927 12.8617 13.5132C10.7417 22.7193 21.8124 30.9215 29.5666 27.6006C34.1131 25.6529 35.4742 18.5229 30.9948 16.3908C26.9423 14.4604 22.6105 17.1355 24.6105 20.8258C24.3216 18.6422 25.6443 16.7659 28.2865 17.0238C33.1581 17.498 34.4498 24.027 29.0753 26.0362C23.5665 28.0977 16.5386 23.3023 18.0055 16.9323C19.2999 11.3111 26.9033 9.05706 33.2584 11.9302C38.1595 14.1452 41.9115 19.0233 39.9515 27.5345C38.6914 33.0066 35.6904 39.3425 32.5022 44.5833C29.3245 49.8064 25.3608 56.484 29.2579 62.8437Z" fill="white"/>
<path d="M35.5 82.5C35.5 85.2214 33.0794 87.5 30 87.5C26.9206 87.5 24.5 85.2214 24.5 82.5C24.5 79.7786 26.9206 77.5 30 77.5C33.0794 77.5 35.5 79.7786 35.5 82.5Z" fill="#F2F2F2" fill-opacity="0.01" stroke="white"/>
</svg>
