<svg width="100" height="100" viewBox="0 0 100 100" fill="none" xmlns="http://www.w3.org/2000/svg">
<path d="M61.1665 72.1414C61.1245 72.3238 60.9445 72.46 60.7057 72.4803C56.2356 72.8651 51.2046 70.4468 49.0038 66.8548C45.0529 60.4078 48.9125 53.8173 52.0707 48.627C55.0334 43.7528 57.8843 37.7833 59.0762 32.6075C60.8343 24.9731 57.5892 20.7371 53.3784 18.8339C48.03 16.4169 41.6168 18.2965 40.5222 23.0496C39.3485 28.1466 44.7957 32.2583 49.2907 30.5771C53.415 29.0324 52.4596 24.1412 49.124 23.8151C47.805 23.6861 45.8988 24.5262 47.4119 28.346C47.4904 28.5427 47.4091 28.745 47.209 28.8505C47.0091 28.955 46.7348 28.9411 46.5224 28.8149C44.6678 27.7102 43.6687 25.6489 44.0938 23.8026C44.8479 20.5281 49.346 20.0763 52.2432 21.456C57.502 23.9605 56.0052 31.6541 51.008 33.7952C42.6419 37.3787 31.0878 28.7233 33.2689 19.2518C34.53 13.7753 40.3 9.95684 47.6154 10.0004C53.1673 10.0326 58.5464 12.2888 62.0057 16.0355C67.2334 21.6973 66.7777 29.6296 65.475 35.2867C64.0356 41.5427 61.5604 46.0745 58.4735 50.5465C55.5092 54.8411 52.3515 59.5024 53.7404 64.6461C54.5954 67.8171 57.4024 70.595 60.7226 71.5575C60.9909 71.6347 61.1776 71.8456 61.173 72.0647C61.1755 72.0913 61.1722 72.1166 61.1665 72.1414ZM50.0657 66.5134C51.6004 69.0185 54.8012 70.9246 58.0061 71.431C55.3724 69.9499 53.3126 67.4773 52.5762 64.7487C51.0935 59.2485 54.4069 54.3788 57.4152 50.017C60.4253 45.6577 62.8696 41.2336 64.3013 35.0165C66.0811 27.2876 64.9352 20.7279 61.0743 16.547C57.8709 13.0764 52.8855 10.9872 47.7394 10.9566C40.868 10.9159 35.5977 14.5279 34.4473 19.5231C32.4279 28.2924 42.9734 36.1055 50.3598 32.9422C54.6906 31.0869 55.9871 24.2951 51.7202 22.2642C47.86 20.4253 43.7337 22.9735 45.6388 26.4888C45.3636 24.4088 46.6236 22.6215 49.1404 22.8671C53.7809 23.3188 55.0113 29.5381 49.8918 31.452C44.6443 33.4157 37.9498 28.8478 39.3471 22.78C40.5801 17.4254 47.8228 15.2783 53.8764 18.0152C58.545 20.1251 62.1191 24.7718 60.252 32.8792C59.0517 38.0917 56.1931 44.1271 53.1561 49.1192C50.1292 54.0946 46.3535 60.4554 50.0657 66.5134Z" fill="white"/>
<path d="M56.0116 85.2372C56.0116 87.8295 53.7058 90 50.7725 90C47.8392 90 45.5334 87.8295 45.5334 85.2372C45.5334 82.6449 47.8392 80.4744 50.7725 80.4744C53.7058 80.4744 56.0116 82.6449 56.0116 85.2372Z" fill="#F2F2F2" fill-opacity="0.01" stroke="white"/>
</svg>
