<svg width="100" height="100" viewBox="0 0 100 100" fill="none" xmlns="http://www.w3.org/2000/svg">
<g clip-path="url(#clip0)">
<path d="M41.5482 60.2568C25.8346 60.2568 19.8914 59.2645 15.7921 56.3522C11.1366 53.0451 8.96366 46.5871 10.6256 40.9961C12.2179 35.6426 16.7353 31.6877 22.4153 30.6697C28.4062 29.5987 34.4372 32.0129 38.1559 36.9729C38.3701 37.258 38.3121 37.6619 38.0269 37.8761C37.7404 38.089 37.3366 38.0322 37.1237 37.7471C33.6462 33.1097 28.2269 30.9406 22.6424 31.9406C17.445 32.8709 13.3146 36.4826 11.8617 41.3638C10.3521 46.4413 12.3185 52.3019 16.5391 55.2993C20.0411 57.7871 24.5495 58.2709 28.8682 58.5522C44.4191 59.5664 60.0824 58.7097 75.4282 56.0038C79.1895 55.3406 83.085 54.4761 85.7546 51.8864C92.1946 45.6387 87.2321 34.6193 78.2811 35.2993C74.3598 35.6 70.7495 38.569 69.6991 42.36C69.6037 42.7032 69.2475 42.9045 68.9043 42.809C68.5611 42.7135 68.3598 42.3574 68.4553 42.0142C69.6462 37.7174 73.7379 34.3522 78.183 34.0116C82.6269 33.6645 87.1843 36.3742 89.0166 40.4387C90.8475 44.5032 89.854 49.7071 86.654 52.8116C83.7224 55.6555 79.6114 56.5755 75.6527 57.2735C64.3985 59.2593 52.9727 60.2568 41.5482 60.2568Z" fill="white"/>
<path d="M77.8877 35.3989C77.8684 35.3989 77.849 35.3989 77.8297 35.3963C77.4748 35.3641 77.2129 35.0505 77.2451 34.6957C77.6348 30.3692 75.6374 25.8957 72.1561 23.2983C68.5845 20.6337 63.9639 20.0337 59.7922 21.6957C55.6206 23.3563 52.6735 26.9667 51.9109 31.3563C51.8503 31.706 51.5213 31.9396 51.1638 31.8815C50.8129 31.8209 50.578 31.4867 50.6387 31.1344C51.48 26.3008 54.7238 22.3241 59.3148 20.4969C63.9058 18.6711 68.9935 19.3305 72.9277 22.2647C76.7613 25.1241 78.96 30.0492 78.5316 34.8131C78.4993 35.1473 78.218 35.3989 77.8877 35.3989Z" fill="white"/>
<path d="M27.0012 31.5872C26.6683 31.5872 26.3857 31.3317 26.3586 30.9949C25.8425 24.693 27.9908 18.3408 32.1044 14.0027C36.4399 9.43237 43.0605 7.18334 48.9792 8.27496C55.187 9.41947 60.5354 14.3369 61.9857 20.2311C62.0708 20.5769 61.8592 20.9266 61.5134 21.0117C61.1715 21.102 60.8179 20.8866 60.7328 20.5395C59.3986 15.1201 54.4696 10.5988 48.7444 9.54334C43.2425 8.52657 37.0825 10.6285 33.0412 14.8904C29.1754 18.9653 27.1586 24.9459 27.645 30.8878C27.6747 31.2427 27.4089 31.5549 27.0541 31.5846C27.036 31.5859 27.0179 31.5872 27.0012 31.5872Z" fill="white"/>
<path d="M38.3147 90.2002C35.8811 90.2002 33.5779 89.3989 31.8282 87.946C29.3224 85.8635 28.0966 82.4235 28.7805 79.3886C30.0502 73.7447 35.4579 72.3215 42.4811 66.2815L43.5418 65.3718C43.6811 65.2531 43.8631 65.1964 44.0476 65.2235C44.2295 65.2493 44.3921 65.3499 44.4953 65.5009C44.974 66.2093 44.8179 67.0493 44.6914 67.7241C44.6489 67.9486 44.6063 68.1693 44.5947 68.3731C44.5392 69.3628 44.645 70.4583 44.9121 71.6312C45.436 73.9383 46.4321 76.1757 46.996 78.5589C48.4669 84.7783 45.7482 88.7718 40.725 89.928C39.9392 90.1086 39.1289 90.2002 38.3147 90.2002ZM43.4876 67.1176L43.3237 67.2583C36.2463 73.3447 31.1831 74.5951 30.0398 79.6712C29.4605 82.2467 30.5108 85.1718 32.6527 86.9525C37.3663 90.8686 48.1856 89.2002 45.7379 78.857C45.4734 77.7383 45.0953 76.6144 44.7302 75.528C44.3379 74.3602 43.9327 73.1538 43.6514 71.9177C43.3585 70.6273 43.2411 69.4106 43.3043 68.3009C43.3185 68.0454 43.3676 67.7693 43.4205 67.488C43.445 67.3641 43.4682 67.2389 43.4876 67.1176Z" fill="white"/>
<path d="M52.1946 74.5073C50.6888 72.9769 50.1133 70.6402 50.761 68.6918C51.952 65.1163 55.4591 64.5744 60.2939 61.1911L61.0191 60.6866C61.17 60.5808 61.3571 60.5473 61.5365 60.5898C61.7146 60.6324 61.8668 60.7498 61.9533 60.9111C62.2565 61.4711 62.0823 62.0673 61.9559 62.4995C61.9184 62.6286 61.8784 62.7537 61.8604 62.8737C61.6371 64.2828 61.9688 65.7124 62.2862 67.1073C64.7249 77.8118 55.4591 77.8208 52.1946 74.5073ZM60.61 62.5434C56.2913 65.5537 52.9868 66.0905 51.9855 69.0982C49.841 75.5395 62.6384 78.4505 61.4488 69.5318C61.2526 68.0582 60.7675 66.5898 60.5739 65.0337C60.4681 64.1795 60.472 63.3847 60.5855 62.6698C60.5933 62.6286 60.601 62.5873 60.61 62.5434Z" fill="white"/>
<path d="M65.7418 87.7251C63.5276 85.4761 62.6799 82.0425 63.6308 79.1806C65.4012 73.8658 70.6928 73.0516 78.0824 67.8812L79.1844 67.1135C79.3353 67.0077 79.5224 66.9741 79.7018 67.0167C79.8799 67.0593 80.0321 67.1767 80.1186 67.338C80.5147 68.0722 80.2812 68.8709 80.0941 69.5122C80.0321 69.7225 79.9702 69.9303 79.9392 70.1238C79.4166 73.4374 80.8063 76.6916 81.2657 80.1445C82.7702 91.4348 70.827 92.8877 65.7418 87.7251ZM78.9405 68.8567L78.8231 68.938C71.3986 74.1329 66.4437 74.818 64.8566 79.587C64.0528 82 64.7792 84.907 66.6618 86.8193C70.8708 91.0941 81.3263 90.3664 79.9882 80.3122C79.5392 76.9471 78.0966 73.5264 78.667 69.92C78.7057 69.6748 78.7792 69.4141 78.8579 69.1471C78.885 69.0516 78.9147 68.9535 78.9405 68.8567Z" fill="white"/>
<path d="M20.6732 78.4246C18.5003 78.4246 16.4358 77.5911 15.0074 76.1394C12.7416 73.8388 10.3894 67.9214 19.8384 63.3498C21.8784 62.3627 23.5326 61.1511 25.6126 59.702C25.9313 59.4801 26.3674 59.5911 26.5481 59.9265C26.8874 60.5536 26.6952 61.213 26.5403 61.7407C26.4939 61.902 26.4448 62.0582 26.4216 62.2065C26.3055 62.9459 26.3029 63.7459 26.4152 64.6543C26.8035 67.7665 28.8358 72.4156 26.3687 75.8091C25.1764 77.4465 23.0474 78.4246 20.6732 78.4246ZM25.259 61.5214C23.7016 62.6091 22.21 63.6362 20.3997 64.5111C17.8358 65.7511 15.3507 67.2362 14.5377 69.6788C13.921 71.5317 14.4797 73.764 15.9274 75.2336C19.1442 78.502 27.2216 78.0104 26.1868 70.2259C25.9494 68.4465 25.3648 66.6736 25.1339 64.8117C25.0061 63.782 25.01 62.8633 25.1468 62.004C25.17 61.8504 25.2113 61.6878 25.259 61.5214Z" fill="white"/>
<path d="M23.2697 58.5393L19.0736 54.3445C18.9471 54.218 18.9471 54.0141 19.0736 53.8877C19.2001 53.7612 19.4039 53.7612 19.5304 53.8877L23.7265 58.0825C23.853 58.209 23.853 58.4128 23.7265 58.5393C23.6001 58.6657 23.3962 58.6657 23.2697 58.5393Z" fill="white"/>
<path d="M27.4257 59.4129L22.5018 54.4903C22.3754 54.3639 22.3754 54.16 22.5018 54.0336C22.6283 53.9071 22.8321 53.9071 22.9586 54.0336L27.8825 58.9574C28.0089 59.0839 28.0089 59.2878 27.8825 59.4142C27.756 59.5394 27.5522 59.5394 27.4257 59.4129Z" fill="white"/>
<path d="M31.6204 59.5963L26.2953 54.2711C26.1688 54.1446 26.1688 53.9408 26.2953 53.8143C26.4217 53.6879 26.6256 53.6879 26.7521 53.8143L32.0772 59.1395C32.2037 59.2659 32.2037 59.4698 32.0772 59.5963C31.9508 59.7214 31.7456 59.7214 31.6204 59.5963Z" fill="white"/>
<path d="M35.139 58.9705C34.9313 58.9705 30.4538 54.4182 30.3068 54.2711C30.1803 54.1446 30.1803 53.9408 30.3068 53.8143C30.4332 53.6879 30.6371 53.6879 30.7635 53.8143L35.3674 58.4195C35.4938 58.5459 35.4938 58.7498 35.3674 58.8763C35.3042 58.9395 35.2216 58.9705 35.139 58.9705Z" fill="white"/>
<path d="M38.7406 58.1821L34.9755 54.417C34.849 54.2905 34.849 54.0866 34.9755 53.9602C35.1019 53.8337 35.3058 53.8337 35.4322 53.9602L39.1974 57.7254C39.3238 57.8518 39.3238 58.0557 39.1974 58.1821C39.0709 58.3086 38.8671 58.3086 38.7406 58.1821Z" fill="white"/>
<path d="M43.6903 58.5369L38.7677 53.6156C38.6412 53.4891 38.6412 53.2853 38.7677 53.1588C38.8941 53.0324 39.098 53.0324 39.2245 53.1588L44.1458 58.0801C44.4464 58.3794 43.9922 58.8388 43.6903 58.5369Z" fill="white"/>
<path d="M48.2644 58.9666C48.0567 58.9666 43.2192 54.0543 43.0721 53.9072C42.9457 53.7808 42.9457 53.5769 43.0721 53.4504C43.1986 53.324 43.4025 53.324 43.5276 53.4504L48.4928 58.4156C48.6192 58.542 48.6192 58.7459 48.4928 58.8724C48.4296 58.9343 48.347 58.9666 48.2644 58.9666Z" fill="white"/>
<path d="M52.9354 57.6427L48.3959 53.1034C48.2694 52.9769 48.2694 52.773 48.3959 52.6466C48.5223 52.5201 48.7262 52.5201 48.8526 52.6466L53.3921 57.1859C53.5186 57.3124 53.5186 57.5163 53.3921 57.6427C53.2657 57.7692 53.0618 57.7692 52.9354 57.6427Z" fill="white"/>
<path d="M58.854 57.2893L54.2308 52.6661C54.1044 52.5397 54.1044 52.3358 54.2308 52.2093C54.3573 52.0829 54.5611 52.0829 54.6876 52.2093L59.3108 56.8326C59.4373 56.959 59.4373 57.1629 59.3108 57.2893C59.1844 57.4158 58.9792 57.4158 58.854 57.2893Z" fill="white"/>
<path d="M64.2372 56.4002L59.1908 51.3537C59.0643 51.2273 59.0643 51.0234 59.1908 50.897C59.3172 50.7705 59.5211 50.7705 59.6476 50.897L64.694 55.9434C64.8205 56.0699 64.8205 56.2737 64.694 56.4002C64.5663 56.5254 64.3624 56.5254 64.2372 56.4002Z" fill="white"/>
<path d="M69.9211 57.3434L63.6398 51.0621C63.5133 50.9357 63.5133 50.7318 63.6398 50.6053C63.7662 50.4789 63.9701 50.4789 64.0965 50.6053L70.3778 56.8866C70.5043 57.0131 70.5043 57.217 70.3778 57.3434C70.2514 57.4699 70.0475 57.4699 69.9211 57.3434Z" fill="white"/>
<path d="M73.8826 54.8853L69.4762 50.479C69.3497 50.3525 69.3497 50.1487 69.4762 50.0222C69.6026 49.8958 69.8065 49.8958 69.933 50.0222L74.3394 54.4285C74.4659 54.555 74.4659 54.7589 74.3394 54.8853C74.213 55.0118 74.0078 55.0118 73.8826 54.8853Z" fill="white"/>
<path d="M79.032 54.7226C78.8243 54.7226 73.8527 49.6775 73.7056 49.5304C73.5791 49.4039 73.5791 49.2001 73.7056 49.0736C73.832 48.9471 74.0359 48.9471 74.1623 49.0736L79.2604 54.1717C79.3869 54.2981 79.3869 54.502 79.2604 54.6284C79.1972 54.6917 79.1146 54.7226 79.032 54.7226Z" fill="white"/>
<path d="M83.338 53.1083L77.5715 47.3419C77.4451 47.2154 77.4451 47.0116 77.5715 46.8851C77.698 46.7587 77.9018 46.7587 78.027 46.8851L83.7935 52.6516C83.9199 52.778 83.9199 52.9819 83.7935 53.1083C83.6683 53.2348 83.4644 53.2348 83.338 53.1083Z" fill="white"/>
<path d="M84.9456 50.2673L79.4669 44.7899C79.3405 44.6634 79.3405 44.4596 79.4669 44.3331C79.5934 44.2067 79.7972 44.2067 79.9237 44.3331L85.4024 49.8105C85.5289 49.937 85.5289 50.1409 85.4024 50.2673C85.2759 50.3938 85.0721 50.3938 84.9456 50.2673Z" fill="white"/>
<path d="M87.9858 47.3382C87.9032 47.3382 87.8206 47.3072 87.7574 47.244L82.8232 42.3098C82.6968 42.1833 82.6968 41.9795 82.8232 41.853C82.9497 41.7266 83.1536 41.7266 83.2787 41.853L88.2129 46.7872C88.3394 46.9137 88.3394 47.1175 88.2129 47.244C88.151 47.3059 88.0684 47.3382 87.9858 47.3382Z" fill="white"/>
<path d="M86.7651 42.604L83.4064 39.2453C83.2799 39.1189 83.2799 38.915 83.4064 38.7886C83.5328 38.6621 83.7367 38.6621 83.8631 38.7886L87.2218 42.1473C87.3483 42.2737 87.3483 42.4776 87.2218 42.604C87.0954 42.7305 86.8915 42.7305 86.7651 42.604Z" fill="white"/>
<path d="M18.783 56.5138L21.9301 53.3667C22.0566 53.2402 22.2604 53.2402 22.3869 53.3667C22.5133 53.4931 22.5133 53.697 22.3869 53.8235L19.2385 56.9706C18.9392 57.2699 18.4798 56.817 18.783 56.5138Z" fill="white"/>
<path d="M21.3355 57.8273L26.0129 53.1499C26.1393 53.0234 26.3432 53.0234 26.4697 53.1499C26.5961 53.2763 26.5961 53.4802 26.4697 53.6067L21.7922 58.2841C21.4916 58.5834 21.0335 58.1292 21.3355 57.8273Z" fill="white"/>
<path d="M24.4721 57.973L30.1366 52.3085C30.2631 52.182 30.4669 52.182 30.5934 52.3085C30.7198 52.4349 30.7198 52.6388 30.5934 52.7652L24.9289 58.4298C24.6269 58.7291 24.1702 58.2736 24.4721 57.973Z" fill="white"/>
<path d="M28.5559 58.5563L33.734 53.3783C33.8604 53.2518 34.0643 53.2518 34.1908 53.3783C34.3172 53.5047 34.3172 53.7086 34.1908 53.8338L29.0127 59.0118C28.712 59.3125 28.254 58.8583 28.5559 58.5563Z" fill="white"/>
<path d="M32.6409 59.431L38.9932 53.0775C39.1196 52.9511 39.3235 52.9511 39.4487 53.0775C39.5751 53.204 39.5751 53.4078 39.4487 53.5343L33.0964 59.8878C32.7971 60.1872 32.3377 59.7343 32.6409 59.431Z" fill="white"/>
<path d="M37.7561 59.8361C37.6735 59.8361 37.5909 59.8052 37.5277 59.7419C37.4012 59.6155 37.4012 59.4116 37.5277 59.2852L44.969 51.8439C45.0954 51.7174 45.2993 51.7174 45.4258 51.8439C45.5522 51.9703 45.5522 52.1742 45.4258 52.3006C45.2787 52.4477 37.9638 59.8361 37.7561 59.8361Z" fill="white"/>
<path d="M43.5096 58.9203L51.3057 51.1241C51.4322 50.9977 51.636 50.9977 51.7625 51.1241C51.8889 51.2506 51.8889 51.4545 51.7625 51.5809L43.9663 59.377C43.6657 59.6764 43.2063 59.2235 43.5096 58.9203Z" fill="white"/>
<path d="M47.885 59.7226L57.2024 50.4051C57.3289 50.2787 57.5328 50.2787 57.6592 50.4051C57.7857 50.5316 57.7857 50.7355 57.6592 50.8619L48.3418 60.1793C48.0411 60.4787 47.5831 60.0258 47.885 59.7226Z" fill="white"/>
<path d="M55.0333 59.3046C54.9069 59.1781 54.9069 58.9743 55.0333 58.8478L64.663 49.2181C64.7894 49.0917 64.9933 49.0917 65.1198 49.2181C65.2462 49.3446 65.2462 49.5485 65.1198 49.6749L55.4901 59.3046C55.3636 59.4297 55.1585 59.4297 55.0333 59.3046Z" fill="white"/>
<path d="M61.1598 58.3563C61.0333 58.2298 61.0333 58.0259 61.1598 57.8995L70.392 48.6672C70.5185 48.5408 70.7224 48.5408 70.8488 48.6672C70.9753 48.7937 70.9753 48.9975 70.8488 49.124L61.6166 58.3563C61.4901 58.4827 61.2862 58.4827 61.1598 58.3563Z" fill="white"/>
<path d="M67.2139 57.3885L77.4965 47.1059C77.6229 46.9795 77.8268 46.9795 77.9532 47.1059C78.0797 47.2324 78.0797 47.4363 77.9532 47.5627L67.6707 57.8453C67.37 58.1447 66.9119 57.6918 67.2139 57.3885Z" fill="white"/>
<path d="M76.6229 54.4712L83.232 47.8622C83.5313 47.5628 83.9907 48.0157 83.6887 48.319L77.0797 54.928C76.7791 55.2274 76.321 54.7732 76.6229 54.4712Z" fill="white"/>
<path d="M69.2565 52.7393C69.13 52.6129 69.13 52.409 69.2565 52.2826L75.0436 46.4955C75.17 46.369 75.3739 46.369 75.5003 46.4955C75.6268 46.6219 75.6268 46.8258 75.5003 46.9522L69.7132 52.7393C69.5868 52.8658 69.3816 52.8658 69.2565 52.7393Z" fill="white"/>
<path d="M77.9366 51.2815C77.8102 51.1551 77.8102 50.9512 77.9366 50.8248L82.8605 45.9009C83.1599 45.6015 83.6192 46.0544 83.3173 46.3577L78.3934 51.2828C78.267 51.4067 78.0618 51.4067 77.9366 51.2815Z" fill="white"/>
<path d="M84.1367 51.1164L87.8955 47.3577C88.0219 47.2312 88.2258 47.2312 88.3509 47.3577C88.4774 47.4841 88.4774 47.688 88.3509 47.8144L84.5922 51.5731C84.2916 51.8725 83.8322 51.4209 84.1367 51.1164Z" fill="white"/>
<path d="M83.6256 45.4454C83.4991 45.3189 83.4991 45.1151 83.6256 44.9886L86.2604 42.3538C86.5611 42.0544 87.0191 42.5073 86.7172 42.8093L84.0824 45.4441C83.9559 45.5718 83.7521 45.5718 83.6256 45.4454Z" fill="white"/>
<path d="M83.5521 41.3615C83.4257 41.2351 83.4257 41.0312 83.5521 40.9047L85.4463 39.0118C85.5728 38.8854 85.7766 38.8854 85.9031 39.0118C86.0295 39.1383 86.0295 39.3422 85.9031 39.4686L84.0089 41.3615C83.8824 41.4867 83.6786 41.4867 83.5521 41.3615Z" fill="white"/>
<path d="M85.4489 46.302L87.8953 43.8556C88.0218 43.7291 88.2256 43.7291 88.3521 43.8556C88.4785 43.982 88.4785 44.1859 88.3521 44.3124L85.9056 46.7588C85.605 47.0582 85.1469 46.604 85.4489 46.302Z" fill="white"/>
<path d="M81.0825 45.2479C80.9999 45.2479 80.9173 45.2169 80.8541 45.1537C80.7277 45.0272 80.7277 44.8233 80.8541 44.6969L83.8722 41.6788C83.9986 41.5524 84.2025 41.5524 84.3277 41.6788C84.4541 41.8053 84.4541 42.0091 84.3277 42.1356L81.3096 45.1537C81.2477 45.2169 81.1651 45.2479 81.0825 45.2479Z" fill="white"/>
<path d="M16.1468 55.2182L18.4371 52.9278C18.5636 52.8014 18.7674 52.8014 18.8939 52.9278C19.0203 53.0543 19.0203 53.2582 18.8939 53.3846L16.6036 55.6749C16.3029 55.9743 15.8436 55.5214 16.1468 55.2182Z" fill="white"/>
<path d="M16.8077 55.2532L14.9083 53.3539C14.7819 53.2274 14.7819 53.0235 14.9083 52.8971C15.0348 52.7706 15.2386 52.7706 15.3638 52.8971L17.2632 54.7964C17.3896 54.9229 17.3896 55.1268 17.2632 55.2532C17.138 55.3784 16.9341 55.3784 16.8077 55.2532Z" fill="white"/>
<path d="M18.939 55.604L17.2294 53.8956C17.1029 53.7692 17.1029 53.5653 17.2294 53.4388C17.3558 53.3124 17.5597 53.3124 17.6848 53.4388L19.3945 55.1472C19.521 55.2737 19.521 55.4775 19.3945 55.604C19.2694 55.7304 19.0642 55.7304 18.939 55.604Z" fill="white"/>
<path d="M30.7391 25.5974C30.7237 25.5974 30.7082 25.5961 30.6927 25.5935C30.5172 25.569 30.3946 25.4051 30.4191 25.2284C31.3443 18.7677 36.6527 13.111 43.0424 11.7781C43.2166 11.7381 43.3882 11.8542 43.4243 12.0271C43.4604 12.2013 43.3482 12.3729 43.1753 12.409C37.0424 13.689 31.9456 19.1174 31.0578 25.32C31.0346 25.4813 30.8966 25.5974 30.7391 25.5974Z" fill="white"/>
<path d="M55.2696 29.0144C55.2141 29.0144 55.1573 29.0002 55.1057 28.9692C54.9522 28.8789 54.9006 28.6815 54.9922 28.5279C57.3109 24.5847 62.156 22.7421 66.5109 24.1486C66.6799 24.204 66.7741 24.3847 66.7186 24.5537C66.6644 24.724 66.4825 24.8195 66.3135 24.7615C62.2438 23.4479 57.7161 25.1679 55.5483 28.8544C55.4877 28.9576 55.3793 29.0144 55.2696 29.0144Z" fill="white"/>
<path d="M14.2501 41.0026C14.205 41.0026 14.1585 40.9935 14.1159 40.9729C13.9533 40.8981 13.8837 40.7071 13.9572 40.5445C15.134 37.9884 17.2914 35.8813 19.8733 34.7639C22.4553 33.6464 25.467 33.5161 28.1366 34.4052C28.3057 34.4619 28.3973 34.6452 28.3405 34.8142C28.2837 34.9832 28.1031 35.0761 27.9328 35.0181C25.4128 34.1781 22.5675 34.3019 20.1301 35.3574C17.6914 36.4129 15.6553 38.4026 14.5443 40.8155C14.4888 40.9329 14.3727 41.0026 14.2501 41.0026Z" fill="white"/>
<path d="M36.5417 89.6274C36.4591 89.6274 36.3765 89.5964 36.3133 89.5332L34.0965 87.3164C33.9701 87.19 33.9701 86.9861 34.0965 86.861C34.223 86.7345 34.4269 86.7345 34.5533 86.861L36.7701 89.0777C36.8965 89.2042 36.8965 89.4081 36.7701 89.5345C36.7069 89.5964 36.6243 89.6274 36.5417 89.6274Z" fill="white"/>
<path d="M39.8307 89.5912C39.6127 89.5912 37.1598 87.0544 37.0062 86.9009C36.8798 86.7744 36.8798 86.5705 37.0062 86.4441C37.1327 86.3176 37.3365 86.3176 37.463 86.4441L40.0604 89.0402C40.1869 89.1667 40.1869 89.3705 40.0604 89.497C39.9959 89.5602 39.9133 89.5912 39.8307 89.5912Z" fill="white"/>
<path d="M41.9624 88.3252L39.4979 85.8607C39.3715 85.7342 39.3715 85.5304 39.4979 85.4039C39.6244 85.2775 39.8282 85.2775 39.9547 85.4039L42.4192 87.8684C42.5457 87.9949 42.5457 88.1988 42.4192 88.3252C42.2928 88.4517 42.0889 88.4517 41.9624 88.3252Z" fill="white"/>
<path d="M44.2439 86.4519L41.5756 83.7848C41.4491 83.6583 41.4491 83.4544 41.5756 83.328C41.702 83.2015 41.9059 83.2015 42.0323 83.328L44.7007 85.9951C44.8272 86.1215 44.8272 86.3254 44.7007 86.4519C44.573 86.5783 44.3691 86.5783 44.2439 86.4519Z" fill="white"/>
<path d="M45.3238 83.933L43.0297 81.6388C42.9032 81.5123 42.9032 81.3084 43.0297 81.182C43.1561 81.0555 43.36 81.0555 43.4864 81.182L45.7806 83.4762C45.9071 83.6026 45.9071 83.8065 45.7806 83.933C45.6542 84.0581 45.4503 84.0581 45.3238 83.933Z" fill="white"/>
<path d="M45.8839 82.1395L43.5135 79.7691C43.3871 79.6427 43.3871 79.4388 43.5135 79.3124C43.64 79.1859 43.8439 79.1859 43.9703 79.3124L46.3406 81.6827C46.4671 81.8091 46.4671 82.013 46.3406 82.1395C46.2142 82.2646 46.0103 82.2646 45.8839 82.1395Z" fill="white"/>
<path d="M34.0282 88.839C33.9017 88.7126 33.9017 88.5087 34.0282 88.3823L37.0024 85.4081C37.1288 85.2816 37.3327 85.2816 37.4592 85.4081C37.5856 85.5345 37.5856 85.7384 37.4592 85.8648L34.485 88.839C34.3572 88.9655 34.1533 88.9655 34.0282 88.839Z" fill="white"/>
<path d="M37.2811 88.9367L41.1895 85.0297C41.316 84.9032 41.5198 84.9032 41.645 85.0297C41.7714 85.1561 41.7714 85.36 41.645 85.4864L37.7366 89.3935C37.4385 89.6929 36.9792 89.2387 37.2811 88.9367Z" fill="white"/>
<path d="M41.9907 88.1755L44.8011 85.3664C44.9275 85.24 45.1314 85.24 45.2578 85.3664C45.3843 85.4929 45.3843 85.6968 45.2578 85.8232L42.4475 88.6323C42.1469 88.9316 41.6888 88.4774 41.9907 88.1755Z" fill="white"/>
<path d="M43.3756 83.9226C43.2491 83.7962 43.2491 83.5923 43.3756 83.4659L45.7769 81.0646C45.9033 80.9381 46.1072 80.9381 46.2337 81.0646C46.3601 81.191 46.3601 81.3949 46.2337 81.5213L43.8324 83.9226C43.7059 84.0491 43.5021 84.0491 43.3756 83.9226Z" fill="white"/>
<path d="M19.5237 77.6595L17.6166 75.7524C17.4901 75.626 17.4901 75.4221 17.6166 75.2956C17.743 75.1692 17.9469 75.1692 18.0733 75.2956L19.9804 77.2027C20.1069 77.3292 20.1069 77.5331 19.9804 77.6595C19.854 77.786 19.6488 77.786 19.5237 77.6595Z" fill="white"/>
<path d="M21.8772 77.1731L19.4166 74.7125C19.2902 74.5861 19.2902 74.3822 19.4166 74.2557C19.5431 74.1293 19.7469 74.1293 19.8734 74.2557L22.334 76.7164C22.4605 76.8428 22.4605 77.0467 22.334 77.1731C22.2076 77.2996 22.0037 77.2996 21.8772 77.1731Z" fill="white"/>
<path d="M24.0399 76.0827L21.4244 73.4673C21.298 73.3408 21.298 73.1369 21.4244 73.0105C21.5509 72.884 21.7548 72.884 21.8812 73.0105L24.4967 75.626C24.6231 75.7524 24.6231 75.9563 24.4967 76.0827C24.3702 76.2079 24.1663 76.2079 24.0399 76.0827Z" fill="white"/>
<path d="M25.2952 74.7059L22.6708 72.0814C22.5443 71.9549 22.5443 71.7511 22.6708 71.6246C22.7972 71.4982 23.001 71.4982 23.1262 71.6246L25.7507 74.2491C25.8772 74.3756 25.8772 74.5795 25.7507 74.7059C25.6256 74.8324 25.4217 74.8324 25.2952 74.7059Z" fill="white"/>
<path d="M26.0036 72.2983L23.641 69.9357C23.5145 69.8092 23.5145 69.6054 23.641 69.4802C23.7674 69.3538 23.9713 69.3538 24.0978 69.4802L26.4603 71.8428C26.5868 71.9692 26.5868 72.1731 26.4603 72.2996C26.3339 72.4247 26.1287 72.4247 26.0036 72.2983Z" fill="white"/>
<path d="M17.1314 76.4039L21.0604 72.4748C21.1868 72.3484 21.3907 72.3484 21.5172 72.4748C21.6436 72.6013 21.6436 72.8052 21.5172 72.9316L17.5881 76.8606C17.2875 77.16 16.8294 76.7058 17.1314 76.4039Z" fill="white"/>
<path d="M22.0476 76.4039L24.956 73.4955C25.0825 73.369 25.2863 73.369 25.4128 73.4955C25.5392 73.6219 25.5392 73.8258 25.4128 73.9522L22.5044 76.8606C22.2037 77.16 21.7457 76.7058 22.0476 76.4039Z" fill="white"/>
<path d="M22.6916 73.2157C22.6091 73.2157 22.5265 73.1847 22.4632 73.1215C22.3368 72.9951 22.3368 72.7912 22.4632 72.6647L25.2542 69.8738C25.3806 69.7473 25.5845 69.7473 25.7109 69.8738C25.8374 70.0002 25.8374 70.2041 25.7109 70.3305C25.5574 70.4841 22.9109 73.2157 22.6916 73.2157Z" fill="white"/>
<path d="M71.2217 90.3485L68.1288 87.2556C68.0023 87.1291 68.0023 86.9253 68.1288 86.7988C68.2552 86.6724 68.4591 86.6724 68.5855 86.7988L71.6785 89.8917C71.8049 90.0182 71.8049 90.222 71.6785 90.3485C71.552 90.4749 71.3468 90.4749 71.2217 90.3485Z" fill="white"/>
<path d="M74.7317 89.2735L71.5214 86.0632C71.3949 85.9368 71.3949 85.7329 71.5214 85.6064C71.6478 85.48 71.8517 85.48 71.9781 85.6064L75.1885 88.8168C75.3149 88.9432 75.3149 89.1471 75.1885 89.2735C75.062 89.3987 74.8581 89.3987 74.7317 89.2735Z" fill="white"/>
<path d="M77.9404 87.4402L74.8216 84.3215C74.6952 84.1951 74.6952 83.9912 74.8216 83.8647C74.9481 83.7383 75.152 83.7383 75.2784 83.8647L78.3971 86.9834C78.5236 87.1099 78.5236 87.3138 78.3971 87.4402C78.2707 87.5667 78.0655 87.5667 77.9404 87.4402Z" fill="white"/>
<path d="M79.3599 85.5589L76.3793 82.5782C76.2528 82.4518 76.2528 82.2479 76.3793 82.1215C76.5057 81.995 76.7096 81.995 76.836 82.1215L79.8167 85.1021C80.116 85.4027 79.6631 85.8621 79.3599 85.5589Z" fill="white"/>
<path d="M80.1302 82.8441L77.5727 80.2867C77.4463 80.1602 77.4463 79.9563 77.5727 79.8312C77.6992 79.7047 77.9031 79.7047 78.0295 79.8312L80.5869 82.3886C80.7134 82.515 80.7134 82.7189 80.5869 82.8454C80.4592 82.9705 80.2553 82.9705 80.1302 82.8441Z" fill="white"/>
<path d="M72.1172 89.1357L70.1456 87.164C70.0192 87.0376 70.0192 86.8337 70.1456 86.7073C70.2721 86.5808 70.4759 86.5808 70.6024 86.7073L72.574 88.6789C72.7005 88.8053 72.7005 89.0092 72.574 89.1357C72.4476 89.2621 72.2437 89.2621 72.1172 89.1357Z" fill="white"/>
<path d="M68.4036 88.5406L74.1856 82.7587C74.312 82.6322 74.5159 82.6322 74.6423 82.7587C74.7688 82.8851 74.7688 83.089 74.6423 83.2154L68.8604 88.9974C68.5597 89.2967 68.1004 88.8438 68.4036 88.5406Z" fill="white"/>
<path d="M74.8216 88.7226C74.6952 88.5961 74.6952 88.3923 74.8216 88.2658L78.9042 84.1845C79.2036 83.8839 79.6629 84.3381 79.361 84.64L75.2771 88.7226C75.152 88.8477 74.9468 88.8477 74.8216 88.7226Z" fill="white"/>
<path d="M74.9134 85.2375C74.787 85.1111 74.787 84.9072 74.9134 84.7808L78.2193 81.475C78.3457 81.3485 78.5496 81.3485 78.676 81.475C78.8025 81.6014 78.8025 81.8053 78.676 81.9317L75.3702 85.2375C75.2438 85.364 75.0399 85.364 74.9134 85.2375Z" fill="white"/>
<path d="M77.0218 80.9293C76.8954 80.8029 76.8954 80.599 77.0218 80.4725L78.7664 78.728C78.8928 78.6016 79.0967 78.6016 79.2231 78.728C79.3496 78.8545 79.3496 79.0583 79.2231 79.1848L77.4786 80.9293C77.3522 81.0545 77.1483 81.0545 77.0218 80.9293Z" fill="white"/>
<path d="M56.1752 75.6568L53.8939 73.3755C53.7675 73.249 53.7675 73.0451 53.8939 72.9187C54.0204 72.7922 54.2242 72.7922 54.3507 72.9187L56.6307 75.2C56.7571 75.3264 56.7571 75.5303 56.6307 75.6568C56.5055 75.7819 56.3017 75.7819 56.1752 75.6568Z" fill="white"/>
<path d="M58.7251 75.6674C58.507 75.6674 56.1225 73.1977 55.9676 73.0442C55.8412 72.9177 55.8412 72.7138 55.9676 72.5874C56.0941 72.4609 56.298 72.4609 56.4244 72.5874L58.9534 75.1164C59.0799 75.2429 59.0799 75.4468 58.9534 75.5732C58.8902 75.6364 58.8076 75.6674 58.7251 75.6674Z" fill="white"/>
<path d="M60.4604 73.4736L58.3727 71.3858C58.2462 71.2594 58.2462 71.0555 58.3727 70.9291C58.4991 70.8026 58.703 70.8026 58.8294 70.9291L60.9172 73.0168C61.0436 73.1433 61.0436 73.3471 60.9172 73.4736C60.7907 73.5987 60.5869 73.5987 60.4604 73.4736Z" fill="white"/>
<path d="M61.4658 72.1061C61.2516 72.1061 59.52 70.2932 59.369 70.1422C59.2426 70.0157 59.2426 69.8119 59.369 69.6854C59.4955 69.559 59.6993 69.559 59.8258 69.6854L61.6955 71.5551C61.8219 71.6815 61.8219 71.8854 61.6955 72.0119C61.6309 72.0751 61.5484 72.1061 61.4658 72.1061Z" fill="white"/>
<path d="M61.5575 69.5961L59.9471 67.9858C59.8207 67.8594 59.8207 67.6555 59.9471 67.529C60.0736 67.4026 60.2775 67.4026 60.4039 67.529L62.0142 69.1394C62.1407 69.2658 62.1407 69.4697 62.0142 69.5961C61.8878 69.7213 61.6839 69.7213 61.5575 69.5961Z" fill="white"/>
<path d="M54.1432 75.0337C54.0167 74.9073 54.0167 74.7034 54.1432 74.577L58.427 70.2931C58.5535 70.1666 58.7574 70.1666 58.8838 70.2931C59.0103 70.4195 59.0103 70.6234 58.8838 70.7499L54.6 75.0337C54.4735 75.1602 54.2696 75.1602 54.1432 75.0337Z" fill="white"/>
<path d="M59.3677 73.5836L61.4464 71.5035C61.7458 71.2042 62.2051 71.6571 61.9032 71.9603L59.8245 74.0403C59.5238 74.3397 59.0657 73.8855 59.3677 73.5836Z" fill="white"/>
<path d="M59.8437 69.9047C59.7612 69.9047 59.6786 69.8738 59.6153 69.8105C59.4889 69.6841 59.4889 69.4802 59.6153 69.3538L60.7766 68.1938C61.076 67.8931 61.5353 68.3473 61.2334 68.6505L60.0721 69.8105C60.0089 69.8738 59.9263 69.9047 59.8437 69.9047Z" fill="white"/>
</g>
<defs>
<clipPath id="clip0">
<rect x="10" y="8" width="80" height="82.5806" fill="white"/>
</clipPath>
</defs>
</svg>
