<svg width="62" height="64" viewBox="0 0 62 64" fill="none" xmlns="http://www.w3.org/2000/svg">
<path d="M24.4499 40.499C12.2719 40.499 7.6659 39.73 4.4889 37.473C0.8809 34.91 -0.8031 29.905 0.4849 25.572C1.7189 21.423 5.2199 18.358 9.6219 17.569C14.2649 16.739 18.9389 18.61 21.8209 22.454C21.9869 22.675 21.9419 22.988 21.7209 23.154C21.4989 23.319 21.1859 23.275 21.0209 23.054C18.3259 19.46 14.1259 17.779 9.7979 18.554C5.7699 19.275 2.5689 22.074 1.4429 25.857C0.2729 29.792 1.7969 34.334 5.0679 36.657C7.7819 38.585 11.2759 38.96 14.6229 39.178C26.6749 39.964 38.8139 39.3 50.7069 37.203C53.6219 36.689 56.6409 36.019 58.7099 34.012C63.7009 29.17 59.8549 20.63 52.9179 21.157C49.8789 21.39 47.0809 23.691 46.2669 26.629C46.1929 26.895 45.9169 27.051 45.6509 26.977C45.3849 26.903 45.2289 26.627 45.3029 26.361C46.2259 23.031 49.3969 20.423 52.8419 20.159C56.2859 19.89 59.8179 21.99 61.2379 25.14C62.6569 28.29 61.8869 32.323 59.4069 34.729C57.1349 36.933 53.9489 37.646 50.8809 38.187C42.1589 39.726 33.3039 40.499 24.4499 40.499Z" fill="white"/>
<path d="M52.6129 21.2342C52.5979 21.2342 52.5829 21.2342 52.5679 21.2322C52.2929 21.2072 52.0899 20.9642 52.1149 20.6892C52.4169 17.3362 50.8689 13.8692 48.1709 11.8562C45.4029 9.79117 41.8219 9.32617 38.5889 10.6142C35.3559 11.9012 33.0719 14.6992 32.4809 18.1012C32.4339 18.3722 32.1789 18.5532 31.9019 18.5082C31.6299 18.4612 31.4479 18.2022 31.4949 17.9292C32.1469 14.1832 34.6609 11.1012 38.2189 9.68517C41.7769 8.27017 45.7199 8.78117 48.7689 11.0552C51.7399 13.2712 53.4439 17.0882 53.1119 20.7802C53.0869 21.0392 52.8689 21.2342 52.6129 21.2342Z" fill="white"/>
<path d="M13.176 18.2801C12.918 18.2801 12.699 18.0821 12.678 17.8211C12.278 12.9371 13.943 8.01411 17.131 4.65211C20.491 1.11011 25.622 -0.632888 30.209 0.213112C35.02 1.10011 39.165 4.91111 40.289 9.47911C40.355 9.74711 40.191 10.0181 39.923 10.0841C39.658 10.1541 39.384 9.98711 39.318 9.71811C38.284 5.51811 34.464 2.01411 30.027 1.19611C25.763 0.408112 20.989 2.03711 17.857 5.34011C14.861 8.49811 13.298 13.1331 13.675 17.7381C13.698 18.0131 13.492 18.2551 13.217 18.2781C13.203 18.2791 13.189 18.2801 13.176 18.2801Z" fill="white"/>
<path d="M21.9439 63.7052C20.0579 63.7052 18.2729 63.0842 16.9169 61.9582C14.9749 60.3442 14.0249 57.6782 14.5549 55.3262C15.5389 50.9522 19.7299 49.8492 25.1729 45.1682L25.9949 44.4632C26.1029 44.3712 26.2439 44.3272 26.3869 44.3482C26.5279 44.3682 26.6539 44.4462 26.7339 44.5632C27.1049 45.1122 26.9839 45.7632 26.8859 46.2862C26.8529 46.4602 26.8199 46.6312 26.8109 46.7892C26.7679 47.5562 26.8499 48.4052 27.0569 49.3142C27.4629 51.1022 28.2349 52.8362 28.6719 54.6832C29.8119 59.5032 27.7049 62.5982 23.8119 63.4942C23.2029 63.6342 22.5749 63.7052 21.9439 63.7052ZM25.9529 45.8162L25.8259 45.9252C20.3409 50.6422 16.4169 51.6112 15.5309 55.5452C15.0819 57.5412 15.8959 59.8082 17.5559 61.1882C21.2089 64.2232 29.5939 62.9302 27.6969 54.9142C27.4919 54.0472 27.1989 53.1762 26.9159 52.3342C26.6119 51.4292 26.2979 50.4942 26.0799 49.5362C25.8529 48.5362 25.7619 47.5932 25.8109 46.7332C25.8219 46.5352 25.8599 46.3212 25.9009 46.1032C25.9199 46.0072 25.9379 45.9102 25.9529 45.8162Z" fill="white"/>
<path d="M32.7008 51.5431C31.5338 50.3571 31.0878 48.5461 31.5898 47.0361C32.5128 44.2651 35.2308 43.8451 38.9778 41.2231L39.5398 40.8321C39.6568 40.7501 39.8018 40.7241 39.9408 40.7571C40.0788 40.7901 40.1968 40.8811 40.2638 41.0061C40.4988 41.4401 40.3638 41.9021 40.2658 42.2371C40.2368 42.3371 40.2058 42.4341 40.1918 42.5271C40.0188 43.6191 40.2758 44.7271 40.5218 45.8081C42.4118 54.1041 35.2308 54.1111 32.7008 51.5431ZM39.2228 42.2711C35.8758 44.6041 33.3148 45.0201 32.5388 47.3511C30.8768 52.3431 40.7948 54.5991 39.8728 47.6871C39.7208 46.5451 39.3448 45.4071 39.1948 44.2011C39.1128 43.5391 39.1158 42.9231 39.2038 42.3691C39.2098 42.3371 39.2158 42.3051 39.2228 42.2711Z" fill="white"/>
<path d="M43.1999 61.787C41.4839 60.044 40.8269 57.383 41.5639 55.165C42.9359 51.046 47.0369 50.415 52.7639 46.408L53.6179 45.813C53.7349 45.731 53.8799 45.705 54.0189 45.738C54.1569 45.771 54.2749 45.862 54.3419 45.987C54.6489 46.556 54.4679 47.175 54.3229 47.672C54.2749 47.835 54.2269 47.996 54.2029 48.146C53.7979 50.714 54.8749 53.236 55.2309 55.912C56.3969 64.662 47.1409 65.788 43.1999 61.787ZM53.4289 47.164L53.3379 47.227C47.5839 51.253 43.7439 51.784 42.5139 55.48C41.8909 57.35 42.4539 59.603 43.9129 61.085C47.1749 64.398 55.2779 63.834 54.2409 56.042C53.8929 53.434 52.7749 50.783 53.2169 47.988C53.2469 47.798 53.3039 47.596 53.3649 47.389C53.3859 47.315 53.4089 47.239 53.4289 47.164Z" fill="white"/>
<path d="M8.27181 54.5791C6.58781 54.5791 4.98781 53.9331 3.88081 52.8081C2.12481 51.0251 0.301811 46.4391 7.62481 42.8961C9.20581 42.1311 10.4878 41.1921 12.0998 40.0691C12.3468 39.8971 12.6848 39.9831 12.8248 40.2431C13.0878 40.7291 12.9388 41.2401 12.8188 41.6491C12.7828 41.7741 12.7448 41.8951 12.7268 42.0101C12.6368 42.5831 12.6348 43.2031 12.7218 43.9071C13.0228 46.3191 14.5978 49.9221 12.6858 52.5521C11.7618 53.8211 10.1118 54.5791 8.27181 54.5791ZM11.8258 41.4791C10.6188 42.3221 9.46281 43.1181 8.05981 43.7961C6.07281 44.7571 4.14681 45.9081 3.51681 47.8011C3.03881 49.2371 3.47181 50.9671 4.59381 52.1061C7.08681 54.6391 13.3468 54.2581 12.5448 48.2251C12.3608 46.8461 11.9078 45.4721 11.7288 44.0291C11.6298 43.2311 11.6328 42.5191 11.7388 41.8531C11.7568 41.7341 11.7888 41.6081 11.8258 41.4791Z" fill="white"/>
<path d="M10.284 39.168L7.032 35.917C6.934 35.819 6.934 35.661 7.032 35.563C7.13 35.465 7.288 35.465 7.386 35.563L10.638 38.814C10.736 38.912 10.736 39.07 10.638 39.168C10.54 39.266 10.382 39.266 10.284 39.168Z" fill="white"/>
<path d="M13.505 39.845L9.68898 36.03C9.59098 35.932 9.59098 35.774 9.68898 35.676C9.78698 35.578 9.94498 35.578 10.043 35.676L13.859 39.492C13.957 39.59 13.957 39.748 13.859 39.846C13.761 39.943 13.603 39.943 13.505 39.845Z" fill="white"/>
<path d="M16.7559 39.9871L12.6289 35.8601C12.5309 35.7621 12.5309 35.6041 12.6289 35.5061C12.7269 35.4081 12.8849 35.4081 12.9829 35.5061L17.1099 39.6331C17.2079 39.7311 17.2079 39.8891 17.1099 39.9871C17.0119 40.0841 16.8529 40.0841 16.7559 39.9871Z" fill="white"/>
<path d="M19.4828 39.5021C19.3218 39.5021 15.8518 35.9741 15.7378 35.8601C15.6398 35.7621 15.6398 35.6041 15.7378 35.5061C15.8358 35.4081 15.9938 35.4081 16.0918 35.5061L19.6598 39.0751C19.7578 39.1731 19.7578 39.3311 19.6598 39.4291C19.6108 39.4781 19.5468 39.5021 19.4828 39.5021Z" fill="white"/>
<path d="M22.274 38.8912L19.356 35.9732C19.258 35.8752 19.258 35.7172 19.356 35.6192C19.454 35.5212 19.612 35.5212 19.71 35.6192L22.628 38.5372C22.726 38.6352 22.726 38.7932 22.628 38.8912C22.53 38.9892 22.372 38.9892 22.274 38.8912Z" fill="white"/>
<path d="M26.1099 39.1661L22.2949 35.3521C22.1969 35.2541 22.1969 35.0961 22.2949 34.9981C22.3929 34.9001 22.5509 34.9001 22.6489 34.9981L26.4629 38.8121C26.6959 39.0441 26.3439 39.4001 26.1099 39.1661Z" fill="white"/>
<path d="M29.6549 39.4991C29.4939 39.4991 25.7449 35.6921 25.6309 35.5781C25.5329 35.4801 25.5329 35.3221 25.6309 35.2241C25.7289 35.1261 25.8869 35.1261 25.9839 35.2241L29.8319 39.0721C29.9299 39.1701 29.9299 39.3281 29.8319 39.4261C29.7829 39.4741 29.7189 39.4991 29.6549 39.4991Z" fill="white"/>
<path d="M33.2749 38.4731L29.7568 34.9551C29.6588 34.8571 29.6588 34.6991 29.7568 34.6011C29.8548 34.5031 30.0128 34.5031 30.1108 34.6011L33.6289 38.1191C33.7269 38.2171 33.7269 38.3751 33.6289 38.4731C33.5309 38.5711 33.3729 38.5711 33.2749 38.4731Z" fill="white"/>
<path d="M37.8618 38.1992L34.2788 34.6162C34.1808 34.5182 34.1808 34.3602 34.2788 34.2622C34.3768 34.1642 34.5348 34.1642 34.6328 34.2622L38.2158 37.8452C38.3138 37.9432 38.3138 38.1012 38.2158 38.1992C38.1178 38.2972 37.9588 38.2972 37.8618 38.1992Z" fill="white"/>
<path d="M42.0338 37.5101L38.1228 33.5991C38.0248 33.5011 38.0248 33.3431 38.1228 33.2451C38.2208 33.1471 38.3788 33.1471 38.4768 33.2451L42.3878 37.1561C42.4858 37.2541 42.4858 37.4121 42.3878 37.5101C42.2888 37.6071 42.1308 37.6071 42.0338 37.5101Z" fill="white"/>
<path d="M46.4388 38.2411L41.5708 33.3731C41.4728 33.2751 41.4728 33.1171 41.5708 33.0191C41.6688 32.9211 41.8268 32.9211 41.9248 33.0191L46.7928 37.8871C46.8908 37.9851 46.8908 38.1431 46.7928 38.2411C46.6948 38.3391 46.5368 38.3391 46.4388 38.2411Z" fill="white"/>
<path d="M49.509 36.3361L46.094 32.9212C45.996 32.8232 45.996 32.6652 46.094 32.5672C46.192 32.4692 46.35 32.4692 46.448 32.5672L49.863 35.9821C49.961 36.0801 49.961 36.2381 49.863 36.3361C49.765 36.4341 49.606 36.4341 49.509 36.3361Z" fill="white"/>
<path d="M53.4998 36.21C53.3388 36.21 49.4858 32.3 49.3718 32.186C49.2738 32.088 49.2738 31.93 49.3718 31.832C49.4698 31.734 49.6278 31.734 49.7258 31.832L53.6768 35.783C53.7748 35.881 53.7748 36.039 53.6768 36.137C53.6278 36.186 53.5638 36.21 53.4998 36.21Z" fill="white"/>
<path d="M56.8369 34.959L52.3679 30.49C52.2699 30.392 52.2699 30.234 52.3679 30.136C52.4659 30.038 52.6239 30.038 52.7209 30.136L57.1899 34.605C57.2879 34.703 57.2879 34.861 57.1899 34.959C57.0929 35.057 56.9349 35.057 56.8369 34.959Z" fill="white"/>
<path d="M58.0829 32.7572L53.8369 28.5122C53.7389 28.4142 53.7389 28.2562 53.8369 28.1582C53.9349 28.0602 54.0929 28.0602 54.1909 28.1582L58.4369 32.4032C58.5349 32.5012 58.5349 32.6592 58.4369 32.7572C58.3389 32.8552 58.1809 32.8552 58.0829 32.7572Z" fill="white"/>
<path d="M60.439 30.4871C60.375 30.4871 60.311 30.4631 60.262 30.4141L56.438 26.5901C56.34 26.4921 56.34 26.3341 56.438 26.2361C56.536 26.1381 56.694 26.1381 56.791 26.2361L60.615 30.0601C60.713 30.1581 60.713 30.3161 60.615 30.4141C60.567 30.4621 60.503 30.4871 60.439 30.4871Z" fill="white"/>
<path d="M59.4929 26.8181L56.8899 24.2151C56.7919 24.1171 56.7919 23.9591 56.8899 23.8611C56.9879 23.7631 57.1459 23.7631 57.2439 23.8611L59.8469 26.4641C59.9449 26.5621 59.9449 26.7201 59.8469 26.8181C59.7489 26.9161 59.5909 26.9161 59.4929 26.8181Z" fill="white"/>
<path d="M6.8068 37.5982L9.2458 35.1592C9.3438 35.0612 9.5018 35.0612 9.5998 35.1592C9.6978 35.2572 9.6978 35.4152 9.5998 35.5132L7.1598 37.9522C6.9278 38.1842 6.5718 37.8332 6.8068 37.5982Z" fill="white"/>
<path d="M8.78489 38.6162L12.4099 34.9912C12.5079 34.8932 12.6659 34.8932 12.7639 34.9912C12.8619 35.0892 12.8619 35.2472 12.7639 35.3452L9.13889 38.9702C8.90589 39.2022 8.55089 38.8502 8.78489 38.6162Z" fill="white"/>
<path d="M11.2159 38.7291L15.6059 34.3391C15.7039 34.2411 15.8619 34.2411 15.9599 34.3391C16.0579 34.4371 16.0579 34.5951 15.9599 34.6931L11.5699 39.0831C11.3359 39.3151 10.9819 38.9621 11.2159 38.7291Z" fill="white"/>
<path d="M14.3808 39.1812L18.3938 35.1682C18.4918 35.0702 18.6498 35.0702 18.7478 35.1682C18.8458 35.2662 18.8458 35.4242 18.7478 35.5212L14.7348 39.5342C14.5018 39.7672 14.1468 39.4152 14.3808 39.1812Z" fill="white"/>
<path d="M17.5468 39.8591L22.4698 34.9351C22.5678 34.8371 22.7258 34.8371 22.8228 34.9351C22.9208 35.0331 22.9208 35.1911 22.8228 35.2891L17.8998 40.2131C17.6678 40.4451 17.3118 40.0941 17.5468 39.8591Z" fill="white"/>
<path d="M21.511 40.173C21.447 40.173 21.383 40.149 21.334 40.1C21.236 40.002 21.236 39.844 21.334 39.746L27.101 33.979C27.199 33.881 27.357 33.881 27.455 33.979C27.553 34.077 27.553 34.235 27.455 34.333C27.341 34.447 21.672 40.173 21.511 40.173Z" fill="white"/>
<path d="M25.9699 39.4632L32.0119 33.4212C32.1099 33.3232 32.2679 33.3232 32.3659 33.4212C32.4639 33.5192 32.4639 33.6772 32.3659 33.7752L26.3239 39.8172C26.0909 40.0492 25.7349 39.6982 25.9699 39.4632Z" fill="white"/>
<path d="M29.3608 40.085L36.5818 32.864C36.6798 32.766 36.8378 32.766 36.9358 32.864C37.0338 32.962 37.0338 33.12 36.9358 33.218L29.7148 40.439C29.4818 40.671 29.1268 40.32 29.3608 40.085Z" fill="white"/>
<path d="M34.9009 39.7611C34.8029 39.6631 34.8029 39.5051 34.9009 39.4071L42.3639 31.9441C42.4619 31.8461 42.6199 31.8461 42.7179 31.9441C42.8159 32.0421 42.8159 32.2001 42.7179 32.2981L35.2549 39.7611C35.1569 39.8581 34.9979 39.8581 34.9009 39.7611Z" fill="white"/>
<path d="M39.6489 39.0261C39.5509 38.9281 39.5509 38.7701 39.6489 38.6721L46.8039 31.5171C46.9019 31.4191 47.0599 31.4191 47.1579 31.5171C47.2559 31.6151 47.2559 31.7731 47.1579 31.8711L40.0029 39.0261C39.9049 39.1241 39.7469 39.1241 39.6489 39.0261Z" fill="white"/>
<path d="M44.3408 38.2761L52.3098 30.3071C52.4078 30.2091 52.5658 30.2091 52.6638 30.3071C52.7618 30.4051 52.7618 30.5631 52.6638 30.6611L44.6948 38.6301C44.4618 38.8621 44.1068 38.5111 44.3408 38.2761Z" fill="white"/>
<path d="M51.6328 36.0152L56.7548 30.8932C56.9868 30.6612 57.3428 31.0122 57.1088 31.2472L51.9868 36.3692C51.7538 36.6012 51.3988 36.2492 51.6328 36.0152Z" fill="white"/>
<path d="M45.9238 34.673C45.8258 34.575 45.8258 34.417 45.9238 34.319L50.4088 29.834C50.5068 29.736 50.6648 29.736 50.7628 29.834C50.8608 29.932 50.8608 30.09 50.7628 30.188L46.2778 34.673C46.1798 34.771 46.0208 34.771 45.9238 34.673Z" fill="white"/>
<path d="M52.6509 33.5432C52.5529 33.4452 52.5529 33.2872 52.6509 33.1892L56.4669 29.3732C56.6989 29.1412 57.0549 29.4922 56.8209 29.7272L53.0049 33.5442C52.9069 33.6402 52.7479 33.6402 52.6509 33.5432Z" fill="white"/>
<path d="M57.456 33.4152L60.369 30.5022C60.467 30.4042 60.625 30.4042 60.722 30.5022C60.82 30.6002 60.82 30.7582 60.722 30.8562L57.809 33.7692C57.576 34.0012 57.22 33.6512 57.456 33.4152Z" fill="white"/>
<path d="M57.0598 29.0202C56.9618 28.9222 56.9618 28.7642 57.0598 28.6662L59.1018 26.6242C59.3348 26.3922 59.6898 26.7432 59.4558 26.9772L57.4138 29.0192C57.3158 29.1182 57.1578 29.1182 57.0598 29.0202Z" fill="white"/>
<path d="M57.0029 25.8552C56.9049 25.7572 56.9049 25.5992 57.0029 25.5012L58.4709 24.0342C58.5689 23.9362 58.7269 23.9362 58.8249 24.0342C58.9229 24.1322 58.9229 24.2902 58.8249 24.3882L57.3569 25.8552C57.2589 25.9522 57.1009 25.9522 57.0029 25.8552Z" fill="white"/>
<path d="M58.4729 29.6841L60.3689 27.7881C60.4669 27.6901 60.6249 27.6901 60.7229 27.7881C60.8209 27.8861 60.8209 28.0441 60.7229 28.1421L58.8269 30.0381C58.5939 30.2701 58.2389 29.9181 58.4729 29.6841Z" fill="white"/>
<path d="M55.0889 28.8671C55.0249 28.8671 54.9609 28.8431 54.9119 28.7941C54.8139 28.6961 54.8139 28.5381 54.9119 28.4401L57.2509 26.1011C57.3489 26.0031 57.5069 26.0031 57.6039 26.1011C57.7019 26.1991 57.7019 26.3571 57.6039 26.4551L55.2649 28.7941C55.2169 28.8431 55.1529 28.8671 55.0889 28.8671Z" fill="white"/>
<path d="M4.76381 36.5941L6.53881 34.8191C6.63681 34.7211 6.79481 34.7211 6.89281 34.8191C6.99081 34.9171 6.99081 35.0751 6.89281 35.1731L5.11781 36.9481C4.88481 37.1801 4.52881 36.8291 4.76381 36.5941Z" fill="white"/>
<path d="M5.27597 36.6212L3.80397 35.1492C3.70597 35.0512 3.70597 34.8932 3.80397 34.7952C3.90197 34.6972 4.05997 34.6972 4.15697 34.7952L5.62897 36.2672C5.72697 36.3652 5.72697 36.5232 5.62897 36.6212C5.53197 36.7182 5.37397 36.7182 5.27597 36.6212Z" fill="white"/>
<path d="M6.9278 36.8931L5.6028 35.5691C5.5048 35.4711 5.5048 35.3131 5.6028 35.2151C5.7008 35.1171 5.8588 35.1171 5.9558 35.2151L7.2808 36.5391C7.3788 36.6371 7.3788 36.7951 7.2808 36.8931C7.1838 36.9911 7.0248 36.9911 6.9278 36.8931Z" fill="white"/>
<path d="M16.0729 13.638C16.0609 13.638 16.0489 13.637 16.0369 13.635C15.9009 13.616 15.8059 13.489 15.8249 13.352C16.5419 8.345 20.6559 3.961 25.6079 2.928C25.7429 2.897 25.8759 2.987 25.9039 3.121C25.9319 3.256 25.8449 3.389 25.7109 3.417C20.9579 4.409 17.0079 8.616 16.3199 13.423C16.3019 13.548 16.1949 13.638 16.0729 13.638Z" fill="white"/>
<path d="M35.0839 16.2861C35.0409 16.2861 34.9969 16.2751 34.9569 16.2511C34.8379 16.1811 34.7979 16.0281 34.8689 15.9091C36.6659 12.8531 40.4209 11.4251 43.7959 12.5151C43.9269 12.5581 43.9999 12.6981 43.9569 12.8291C43.9149 12.9611 43.7739 13.0351 43.6429 12.9901C40.4889 11.9721 36.9799 13.3051 35.2999 16.1621C35.2529 16.2421 35.1689 16.2861 35.0839 16.2861Z" fill="white"/>
<path d="M3.29385 25.577C3.25885 25.577 3.22285 25.57 3.18985 25.554C3.06385 25.496 3.00985 25.348 3.06685 25.222C3.97885 23.241 5.65085 21.608 7.65185 20.742C9.65285 19.876 11.9869 19.775 14.0559 20.464C14.1869 20.508 14.2579 20.65 14.2139 20.781C14.1699 20.912 14.0299 20.984 13.8979 20.939C11.9449 20.288 9.73985 20.384 7.85085 21.202C5.96085 22.02 4.38285 23.562 3.52185 25.432C3.47885 25.523 3.38885 25.577 3.29385 25.577Z" fill="white"/>
<path d="M20.5698 63.2612C20.5058 63.2612 20.4418 63.2372 20.3928 63.1882L18.6748 61.4702C18.5768 61.3722 18.5768 61.2142 18.6748 61.1172C18.7728 61.0192 18.9308 61.0192 19.0288 61.1172L20.7468 62.8352C20.8448 62.9332 20.8448 63.0912 20.7468 63.1892C20.6978 63.2372 20.6338 63.2612 20.5698 63.2612Z" fill="white"/>
<path d="M23.1189 63.2332C22.9499 63.2332 21.0489 61.2672 20.9299 61.1482C20.8319 61.0502 20.8319 60.8922 20.9299 60.7942C21.0279 60.6962 21.1859 60.6962 21.2839 60.7942L23.2969 62.8062C23.3949 62.9042 23.3949 63.0622 23.2969 63.1602C23.2469 63.2092 23.1829 63.2332 23.1189 63.2332Z" fill="white"/>
<path d="M24.7709 62.2521L22.8609 60.3421C22.7629 60.2441 22.7629 60.0861 22.8609 59.9881C22.9589 59.8901 23.1169 59.8901 23.2149 59.9881L25.1249 61.8981C25.2229 61.9961 25.2229 62.1541 25.1249 62.2521C25.0269 62.3501 24.8689 62.3501 24.7709 62.2521Z" fill="white"/>
<path d="M26.539 60.8002L24.471 58.7332C24.373 58.6352 24.373 58.4772 24.471 58.3792C24.569 58.2812 24.727 58.2812 24.825 58.3792L26.893 60.4462C26.991 60.5442 26.991 60.7022 26.893 60.8002C26.794 60.8982 26.636 60.8982 26.539 60.8002Z" fill="white"/>
<path d="M27.3759 58.8481L25.5979 57.0701C25.4999 56.9721 25.4999 56.8141 25.5979 56.7161C25.6959 56.6181 25.8539 56.6181 25.9519 56.7161L27.7299 58.4941C27.8279 58.5921 27.8279 58.7501 27.7299 58.8481C27.6319 58.9451 27.4739 58.9451 27.3759 58.8481Z" fill="white"/>
<path d="M27.8099 57.4581L25.9729 55.6211C25.8749 55.5231 25.8749 55.3651 25.9729 55.2671C26.0709 55.1691 26.2289 55.1691 26.3269 55.2671L28.1639 57.1041C28.2619 57.2021 28.2619 57.3601 28.1639 57.4581C28.0659 57.5551 27.9079 57.5551 27.8099 57.4581Z" fill="white"/>
<path d="M18.6218 62.6502C18.5238 62.5522 18.5238 62.3942 18.6218 62.2962L20.9268 59.9912C21.0248 59.8932 21.1828 59.8932 21.2808 59.9912C21.3788 60.0892 21.3788 60.2472 21.2808 60.3452L18.9758 62.6502C18.8768 62.7482 18.7188 62.7482 18.6218 62.6502Z" fill="white"/>
<path d="M21.1429 62.726L24.1719 59.698C24.2699 59.6 24.4279 59.6 24.5249 59.698C24.6229 59.796 24.6229 59.954 24.5249 60.052L21.4959 63.08C21.2649 63.312 20.9089 62.96 21.1429 62.726Z" fill="white"/>
<path d="M24.7929 62.136L26.9709 59.959C27.0689 59.861 27.2269 59.861 27.3249 59.959C27.4229 60.057 27.4229 60.215 27.3249 60.313L25.1469 62.49C24.9139 62.722 24.5589 62.37 24.7929 62.136Z" fill="white"/>
<path d="M25.866 58.84C25.768 58.742 25.768 58.584 25.866 58.486L27.727 56.625C27.825 56.527 27.983 56.527 28.081 56.625C28.179 56.723 28.179 56.881 28.081 56.979L26.22 58.84C26.122 58.938 25.964 58.938 25.866 58.84Z" fill="white"/>
<path d="M7.38085 53.9861L5.90285 52.5081C5.80485 52.4101 5.80485 52.2521 5.90285 52.1541C6.00085 52.0561 6.15885 52.0561 6.25685 52.1541L7.73485 53.6321C7.83285 53.7301 7.83285 53.8881 7.73485 53.9861C7.63685 54.0841 7.47785 54.0841 7.38085 53.9861Z" fill="white"/>
<path d="M9.20486 53.6092L7.29787 51.7022C7.19987 51.6042 7.19987 51.4462 7.29787 51.3482C7.39587 51.2502 7.55387 51.2502 7.65187 51.3482L9.55886 53.2552C9.65686 53.3532 9.65686 53.5112 9.55886 53.6092C9.46086 53.7072 9.30286 53.7072 9.20486 53.6092Z" fill="white"/>
<path d="M10.881 52.7641L8.85402 50.7371C8.75602 50.6391 8.75602 50.4811 8.85402 50.3831C8.95202 50.2851 9.11002 50.2851 9.20802 50.3831L11.235 52.4101C11.333 52.5081 11.333 52.6661 11.235 52.7641C11.137 52.8611 10.979 52.8611 10.881 52.7641Z" fill="white"/>
<path d="M11.8538 51.6971L9.81984 49.6631C9.72184 49.5651 9.72184 49.4071 9.81984 49.3091C9.91784 49.2111 10.0758 49.2111 10.1728 49.3091L12.2068 51.3431C12.3048 51.4411 12.3048 51.5991 12.2068 51.6971C12.1098 51.7951 11.9518 51.7951 11.8538 51.6971Z" fill="white"/>
<path d="M12.4028 49.8312L10.5718 48.0002C10.4738 47.9022 10.4738 47.7442 10.5718 47.6472C10.6698 47.5492 10.8278 47.5492 10.9258 47.6472L12.7568 49.4782C12.8548 49.5762 12.8548 49.7342 12.7568 49.8322C12.6588 49.9292 12.4998 49.9292 12.4028 49.8312Z" fill="white"/>
<path d="M5.52683 53.013L8.57183 49.968C8.66983 49.87 8.82783 49.87 8.92583 49.968C9.02383 50.066 9.02383 50.224 8.92583 50.322L5.88083 53.367C5.64783 53.599 5.29283 53.247 5.52683 53.013Z" fill="white"/>
<path d="M9.33689 53.013L11.5909 50.759C11.6889 50.661 11.8469 50.661 11.9449 50.759C12.0429 50.857 12.0429 51.015 11.9449 51.113L9.69089 53.367C9.45789 53.599 9.10289 53.247 9.33689 53.013Z" fill="white"/>
<path d="M9.83595 50.5422C9.77195 50.5422 9.70795 50.5182 9.65895 50.4692C9.56095 50.3712 9.56095 50.2132 9.65895 50.1152L11.8219 47.9522C11.9199 47.8542 12.0779 47.8542 12.1759 47.9522C12.2739 48.0502 12.2739 48.2082 12.1759 48.3062C12.0569 48.4252 10.0059 50.5422 9.83595 50.5422Z" fill="white"/>
<path d="M47.4468 63.8201L45.0498 61.4231C44.9518 61.3251 44.9518 61.1671 45.0498 61.0691C45.1478 60.9711 45.3058 60.9711 45.4038 61.0691L47.8008 63.4661C47.8988 63.5641 47.8988 63.7221 47.8008 63.8201C47.7028 63.9181 47.5438 63.9181 47.4468 63.8201Z" fill="white"/>
<path d="M50.167 62.987L47.679 60.499C47.581 60.401 47.581 60.243 47.679 60.145C47.777 60.047 47.935 60.047 48.033 60.145L50.521 62.633C50.619 62.731 50.619 62.889 50.521 62.987C50.423 63.084 50.265 63.084 50.167 62.987Z" fill="white"/>
<path d="M52.6538 61.5662L50.2368 59.1492C50.1388 59.0512 50.1388 58.8932 50.2368 58.7952C50.3348 58.6972 50.4928 58.6972 50.5908 58.7952L53.0078 61.2122C53.1058 61.3102 53.1058 61.4682 53.0078 61.5662C52.9098 61.6642 52.7508 61.6642 52.6538 61.5662Z" fill="white"/>
<path d="M53.7539 60.1081L51.4439 57.7981C51.3459 57.7001 51.3459 57.5421 51.4439 57.4441C51.5419 57.3461 51.6999 57.3461 51.7979 57.4441L54.1079 59.7541C54.3399 59.9871 53.9889 60.3431 53.7539 60.1081Z" fill="white"/>
<path d="M54.3509 58.0042L52.3689 56.0222C52.2709 55.9242 52.2709 55.7662 52.3689 55.6692C52.4669 55.5712 52.6249 55.5712 52.7229 55.6692L54.7049 57.6512C54.8029 57.7492 54.8029 57.9072 54.7049 58.0052C54.6059 58.1022 54.4479 58.1022 54.3509 58.0042Z" fill="white"/>
<path d="M48.1408 62.8801L46.6128 61.3521C46.5148 61.2541 46.5148 61.0961 46.6128 60.9981C46.7108 60.9001 46.8688 60.9001 46.9668 60.9981L48.4948 62.5261C48.5928 62.6241 48.5928 62.7821 48.4948 62.8801C48.3968 62.9781 48.2388 62.9781 48.1408 62.8801Z" fill="white"/>
<path d="M45.2628 62.419L49.7438 57.938C49.8418 57.84 49.9998 57.84 50.0978 57.938C50.1958 58.036 50.1958 58.194 50.0978 58.292L45.6168 62.773C45.3838 63.005 45.0278 62.654 45.2628 62.419Z" fill="white"/>
<path d="M50.2368 62.56C50.1388 62.462 50.1388 62.304 50.2368 62.206L53.4008 59.043C53.6328 58.81 53.9888 59.162 53.7548 59.396L50.5898 62.56C50.4928 62.657 50.3338 62.657 50.2368 62.56Z" fill="white"/>
<path d="M50.3079 59.8591C50.2099 59.7611 50.2099 59.6031 50.3079 59.5051L52.8699 56.9431C52.9679 56.8451 53.1259 56.8451 53.2239 56.9431C53.3219 57.0411 53.3219 57.1991 53.2239 57.2971L50.6619 59.8591C50.5639 59.9571 50.4059 59.9571 50.3079 59.8591Z" fill="white"/>
<path d="M51.9419 56.5202C51.8439 56.4222 51.8439 56.2642 51.9419 56.1662L53.2939 54.8142C53.3919 54.7162 53.5499 54.7162 53.6479 54.8142C53.7459 54.9122 53.7459 55.0702 53.6479 55.1682L52.2959 56.5202C52.1979 56.6172 52.0399 56.6172 51.9419 56.5202Z" fill="white"/>
<path d="M35.7858 52.434L34.0178 50.666C33.9198 50.568 33.9198 50.41 34.0178 50.312C34.1158 50.214 34.2738 50.214 34.3718 50.312L36.1388 52.08C36.2368 52.178 36.2368 52.336 36.1388 52.434C36.0418 52.531 35.8838 52.531 35.7858 52.434Z" fill="white"/>
<path d="M37.762 52.4422C37.593 52.4422 35.745 50.5282 35.625 50.4092C35.527 50.3112 35.527 50.1532 35.625 50.0552C35.723 49.9572 35.881 49.9572 35.979 50.0552L37.939 52.0152C38.037 52.1132 38.037 52.2712 37.939 52.3692C37.89 52.4182 37.826 52.4422 37.762 52.4422Z" fill="white"/>
<path d="M39.1068 50.742L37.4888 49.124C37.3908 49.026 37.3908 48.868 37.4888 48.77C37.5868 48.672 37.7448 48.672 37.8428 48.77L39.4608 50.388C39.5588 50.486 39.5588 50.644 39.4608 50.742C39.3628 50.839 39.2048 50.839 39.1068 50.742Z" fill="white"/>
<path d="M39.886 49.6822C39.72 49.6822 38.378 48.2772 38.261 48.1602C38.163 48.0622 38.163 47.9042 38.261 47.8062C38.359 47.7082 38.517 47.7082 38.615 47.8062L40.064 49.2552C40.162 49.3532 40.162 49.5112 40.064 49.6092C40.014 49.6582 39.95 49.6822 39.886 49.6822Z" fill="white"/>
<path d="M39.957 47.737L38.709 46.489C38.611 46.391 38.611 46.233 38.709 46.135C38.807 46.037 38.965 46.037 39.063 46.135L40.311 47.383C40.409 47.481 40.409 47.639 40.311 47.737C40.213 47.834 40.055 47.834 39.957 47.737Z" fill="white"/>
<path d="M34.211 51.9511C34.113 51.8531 34.113 51.6951 34.211 51.5971L37.531 48.2771C37.629 48.1791 37.787 48.1791 37.885 48.2771C37.983 48.3751 37.983 48.5331 37.885 48.6311L34.565 51.9511C34.467 52.0491 34.309 52.0491 34.211 51.9511Z" fill="white"/>
<path d="M38.26 50.8272L39.871 49.2152C40.103 48.9832 40.459 49.3342 40.225 49.5692L38.614 51.1812C38.381 51.4132 38.026 51.0612 38.26 50.8272Z" fill="white"/>
<path d="M38.6289 47.9762C38.5649 47.9762 38.5009 47.9522 38.4519 47.9032C38.3539 47.8052 38.3539 47.6472 38.4519 47.5492L39.3519 46.6502C39.5839 46.4172 39.9399 46.7692 39.7059 47.0042L38.8059 47.9032C38.7569 47.9522 38.6929 47.9762 38.6289 47.9762Z" fill="white"/>
</svg>
