<svg width="100" height="100" viewBox="0 0 100 100" fill="none" xmlns="http://www.w3.org/2000/svg">
<g clip-path="url(#clip0)">
<path d="M72.9045 50.7163C72.5929 50.4443 72.5599 49.9695 72.8311 49.6554C73.1023 49.3427 73.5758 49.3097 73.8874 49.5817C75.3857 50.8862 79.2665 49.8432 78.8304 44.2063C78.36 38.1696 73.7616 32.504 67.6469 30.4287C56.4513 26.6311 42.505 35.1099 44.8033 42.3683C45.3428 44.0725 46.8891 45.3334 48.4803 45.3664C48.8923 45.3754 49.2219 45.7181 49.2129 46.1328C49.2039 46.5461 48.9238 46.8361 48.4473 46.8693C46.2358 46.8226 44.1022 45.1215 43.374 42.8237C40.5961 34.0534 56.0678 24.9164 68.1264 29.0055C74.7924 31.2672 79.8074 37.4708 80.3227 44.0905C80.8801 51.2649 75.2913 52.7933 72.9045 50.7163Z" fill="white"/>
<path d="M23.2274 48.6863C23.187 44.3402 27.0885 38.5123 33.4655 36.6744C37.0015 35.6525 40.9211 36.0147 44.2115 37.6677C44.5816 37.8541 44.7314 38.3049 44.5471 38.6761C44.3613 39.0488 43.9088 39.1991 43.5417 39.0128C40.5826 37.528 37.0615 37.2004 33.8805 38.1186C28.1794 39.7626 24.6898 44.8766 24.7272 48.6712C24.7662 52.6987 28.4536 54.5712 30.6921 52.9676C31.0247 52.7257 31.4937 52.8009 31.7364 53.1405C31.9776 53.4786 31.8997 53.9475 31.5641 54.1895C28.3801 56.4797 23.2783 53.9971 23.2274 48.6863Z" fill="white"/>
<path d="M54.7492 72.5713C45.3591 72.5713 35.9482 71.324 26.699 70.0932C22.7463 69.5673 18.2679 68.9721 14.6704 66.4579C11.1148 63.9723 8.68304 58.923 10.7732 54.7768C13.4073 49.5456 20.346 49.5305 23.6798 49.5246H24.017C24.4005 49.5126 24.7676 49.8567 24.7691 50.2729C24.7706 50.6876 24.4364 51.0258 24.0229 51.0273H23.6843C20.415 51.0334 14.3317 51.0454 12.1112 55.4545C10.4121 58.8283 12.5622 63.1534 15.5289 65.2257C18.8267 67.531 23.115 68.1006 26.8967 68.604C43.3574 70.792 61.4362 73.2341 78.15 67.6587C81.0014 66.7089 84.5449 65.2528 86.6545 62.4185C88.7028 59.6654 89.0938 55.7296 87.624 52.6248C86.1572 49.52 82.8698 47.3335 79.4491 47.1832C79.0356 47.1651 78.715 46.8135 78.7314 46.4002C78.7494 45.987 79.0686 45.6563 79.5135 45.6819C83.4736 45.8547 87.2794 48.387 88.9785 51.9801C90.6775 55.5747 90.2266 60.1312 87.8532 63.3171C85.4949 66.4865 81.6816 68.0644 78.6235 69.0849C71.6023 71.4262 63.7735 72.5713 54.7492 72.5713Z" fill="white"/>
<path d="M23.3308 68.377L20.6038 65.6419C20.4569 65.4947 20.4569 65.2572 20.6038 65.11C20.7506 64.9627 20.9873 64.9627 21.1342 65.11L23.8611 67.8451C24.2147 68.2012 23.6738 68.7212 23.3308 68.377Z" fill="white"/>
<path d="M28.7848 69.5014L23.7444 64.4461C23.5976 64.2988 23.5976 64.0613 23.7444 63.9141C23.8912 63.7668 24.1279 63.7668 24.2733 63.9141L29.3136 68.9694C29.4605 69.1167 29.4605 69.3542 29.3136 69.5014C29.1698 69.6472 28.9331 69.6487 28.7848 69.5014Z" fill="white"/>
<path d="M35.4014 69.8365L29.5938 64.0117C29.4469 63.8644 29.4469 63.627 29.5938 63.4812C29.7406 63.3339 29.9774 63.3339 30.1242 63.4812L35.9317 69.306C36.0786 69.4533 36.0786 69.6908 35.9317 69.838C35.7864 69.9823 35.5497 69.9838 35.4014 69.8365Z" fill="white"/>
<path d="M42.2921 70.3352L35.4463 63.4676C35.2995 63.3202 35.2995 63.0828 35.4463 62.9356C35.5931 62.7882 35.8298 62.7882 35.9766 62.9356L42.8225 69.8033C42.9694 69.9505 42.9694 70.188 42.8225 70.3337C42.6757 70.481 42.4389 70.4825 42.2921 70.3352Z" fill="white"/>
<path d="M48.534 69.8591L41.1878 62.491C41.0409 62.3437 41.0409 62.1062 41.1878 61.959C41.3346 61.8117 41.5713 61.8117 41.7181 61.959L49.0644 69.3271C49.2113 69.4744 49.2113 69.7119 49.0644 69.8591C48.9176 70.0049 48.6808 70.0064 48.534 69.8591Z" fill="white"/>
<path d="M56.691 69.9989L48.8787 62.1633C48.7318 62.016 48.7318 61.7785 48.8787 61.6328C49.0255 61.4855 49.2622 61.4855 49.409 61.6328L57.2213 69.4684C57.3682 69.6157 57.3682 69.8531 57.2213 70.0004C57.076 70.1461 56.8393 70.1476 56.691 69.9989Z" fill="white"/>
<path d="M64.1032 68.0887L56.7883 60.7521C56.6415 60.6048 56.6415 60.3674 56.7883 60.2201C56.9352 60.0728 57.172 60.0728 57.3172 60.2201L64.6322 67.5567C64.779 67.704 64.779 67.9415 64.6322 68.0887C64.4868 68.2345 64.25 68.236 64.1032 68.0887Z" fill="white"/>
<path d="M71.7403 67.7068L64.1558 60.0998C64.0089 59.9524 64.0089 59.7151 64.1558 59.5678C64.3026 59.4204 64.5393 59.4204 64.6846 59.5678L72.2707 67.1748C72.4176 67.3222 72.4176 67.5596 72.2707 67.7068C72.1254 67.8527 71.8886 67.8542 71.7403 67.7068Z" fill="white"/>
<path d="M79.1866 66.2656L72.3887 59.4474C72.2419 59.3001 72.2419 59.0627 72.3887 58.9154C72.5355 58.7681 72.7722 58.7681 72.9191 58.9154L79.7171 65.7336C79.8639 65.8808 79.8639 66.1183 79.7171 66.2641C79.5717 66.4113 79.3334 66.4128 79.1866 66.2656Z" fill="white"/>
<path d="M84.3322 63.7094L78.3493 57.7072C78.2024 57.5599 78.2024 57.3225 78.3493 57.1752C78.4961 57.0279 78.7329 57.0279 78.8797 57.1752L84.8625 63.1774C85.0093 63.3246 85.0093 63.562 84.8625 63.7094C84.7157 63.8551 84.479 63.858 84.3322 63.7094Z" fill="white"/>
<path d="M87.3634 59.1441L83.2234 54.992C83.0766 54.8446 83.0766 54.6072 83.2234 54.4614C83.3702 54.3141 83.607 54.3141 83.7539 54.4614L87.8937 58.6137C88.0405 58.7609 88.0405 58.9984 87.8937 59.1457C87.7483 59.2899 87.5102 59.2914 87.3634 59.1441Z" fill="white"/>
<path d="M87.5357 53.9925L85.0665 51.5144C84.9197 51.3671 84.9197 51.1297 85.0665 50.9824C85.2134 50.8351 85.45 50.8351 85.5954 50.9824L88.0662 53.4605C88.213 53.6078 88.213 53.8452 88.0662 53.991C87.9208 54.1383 87.6841 54.1398 87.5357 53.9925Z" fill="white"/>
<path d="M62.8084 70.4856L54.187 61.8387C54.0402 61.6913 54.0402 61.4539 54.187 61.3067C54.3339 61.1593 54.5705 61.1593 54.7174 61.3067L63.3388 69.9537C63.4856 70.1009 63.4856 70.3384 63.3388 70.4856C63.1934 70.6315 62.9568 70.6329 62.8084 70.4856Z" fill="white"/>
<path d="M52.5706 70.9723L45.4131 63.7934C45.2663 63.6462 45.2663 63.4087 45.4131 63.2614C45.5599 63.1142 45.7966 63.1142 45.9434 63.2614L53.101 70.4403C53.2478 70.5876 53.2478 70.8249 53.101 70.9723C52.9556 71.118 52.7189 71.1211 52.5706 70.9723Z" fill="white"/>
<path d="M43.8098 69.1406L39.4541 64.7719C39.3073 64.6247 39.3073 64.3872 39.4541 64.2399C39.6009 64.0927 39.8377 64.0927 39.9846 64.2399L44.3402 68.6086C44.487 68.7558 44.487 68.9933 44.3402 69.1406C44.1933 69.2863 43.9566 69.2893 43.8098 69.1406Z" fill="white"/>
<path d="M19.9522 68.5756C19.8053 68.4282 19.8053 68.1909 19.9522 68.0436L26.0369 61.9422C26.1837 61.795 26.4204 61.795 26.5672 61.9422C26.7142 62.0895 26.7142 62.327 26.5672 62.4742L20.4826 68.5756C20.3357 68.7213 20.099 68.7229 19.9522 68.5756Z" fill="white"/>
<path d="M23.3111 69.5538C23.1642 69.4066 23.1642 69.1692 23.3111 69.0218L30.4086 61.9032C30.5555 61.7559 30.7922 61.7559 30.939 61.9032C31.0859 62.0504 31.0859 62.2879 30.939 62.4351L23.8415 69.5538C23.6962 69.6997 23.4579 69.7011 23.3111 69.5538Z" fill="white"/>
<path d="M28.4026 69.999L36.2329 62.1454C36.3797 61.9981 36.6164 61.9981 36.7632 62.1454C36.9101 62.2926 36.9101 62.5301 36.7632 62.6774L28.933 70.5309C28.5825 70.8825 28.0549 70.3491 28.4026 69.999Z" fill="white"/>
<path d="M34.3613 70.6403C34.2145 70.4931 34.2145 70.2556 34.3613 70.1083L43.2644 61.1788C43.4112 61.0315 43.648 61.0315 43.7948 61.1788C43.9417 61.326 43.9417 61.5635 43.7948 61.7108L34.8917 70.6403C34.7463 70.7862 34.5082 70.7876 34.3613 70.6403Z" fill="white"/>
<path d="M39.3448 71.5091C39.1979 71.3618 39.1979 71.1244 39.3448 70.9771L49.9605 60.3298C50.1073 60.1826 50.344 60.1826 50.4908 60.3298C50.6376 60.4771 50.6376 60.7146 50.4908 60.8618L39.8752 71.5091C39.7298 71.6548 39.4917 71.6564 39.3448 71.5091Z" fill="white"/>
<path d="M46.3872 71.2909C46.2404 71.1436 46.2404 70.9062 46.3872 70.7589L57.0538 60.0605C57.2006 59.9133 57.4373 59.9133 57.5841 60.0605C57.731 60.2078 57.731 60.4453 57.5841 60.5925L46.9176 71.2909C46.7722 71.4367 46.5355 71.4397 46.3872 71.2909Z" fill="white"/>
<path d="M53.1057 72.0533C52.9589 71.9059 52.9589 71.6685 53.1057 71.5213L64.6219 59.9693C64.7687 59.8219 65.0054 59.8219 65.1523 59.9693C65.2992 60.1166 65.2992 60.3539 65.1523 60.5013L53.6347 72.0533C53.4894 72.199 53.2526 72.2005 53.1057 72.0533Z" fill="white"/>
<path d="M60.7982 70.7605L72.3353 59.1891C72.4822 59.0418 72.7189 59.0418 72.8643 59.1891C73.0111 59.3364 73.0111 59.5738 72.8643 59.7196L61.3271 71.291C60.9765 71.6442 60.4491 71.1092 60.7982 70.7605Z" fill="white"/>
<path d="M69.4641 69.2262C69.3173 69.079 69.3173 68.8415 69.4641 68.6943L78.5754 59.5558C78.7222 59.4085 78.959 59.4085 79.1044 59.5558C79.2512 59.7031 79.2512 59.9405 79.1044 60.0878L69.993 69.2262C69.8476 69.372 69.611 69.375 69.4641 69.2262Z" fill="white"/>
<path d="M77.0473 67.0547C76.9004 66.9075 76.9004 66.67 77.0473 66.5227L85.1218 58.4257C85.2686 58.2785 85.5053 58.2785 85.6522 58.4257C85.799 58.573 85.799 58.8105 85.6522 58.9577L77.5777 67.0547C77.4323 67.2006 77.1957 67.202 77.0473 67.0547Z" fill="white"/>
<path d="M82.5747 57.7087C82.4279 57.5615 82.4279 57.324 82.5747 57.1768L86.2142 53.5265C86.3611 53.3792 86.5977 53.3792 86.7446 53.5265C86.8914 53.6737 86.8914 53.9112 86.7446 54.0585L83.1052 57.7087C82.9584 57.8545 82.7216 57.856 82.5747 57.7087Z" fill="white"/>
<path d="M86.5828 56.9483C86.4359 56.801 86.4359 56.5636 86.5828 56.4163L87.9372 55.0563C88.0841 54.909 88.3209 54.909 88.4677 55.0563C88.6145 55.2035 88.6145 55.441 88.4677 55.5868L87.1132 56.9468C86.9664 57.094 86.7296 57.0956 86.5828 56.9483Z" fill="white"/>
<path d="M16.4849 66.7271C16.338 66.5798 16.338 66.3424 16.4849 66.1951L20.3925 62.2773C20.5394 62.1301 20.7761 62.1301 20.9214 62.2773C21.0683 62.4246 21.0683 62.6621 20.9214 62.8093L17.0153 66.7271C16.8699 66.8728 16.6332 66.8759 16.4849 66.7271Z" fill="white"/>
<path d="M13.6035 64.8172C13.4567 64.6699 13.4567 64.4325 13.6035 64.2852L15.7506 62.1317C15.8975 61.9844 16.1342 61.9844 16.2811 62.1317C16.4279 62.279 16.4279 62.5164 16.2811 62.6637L14.1339 64.8172C13.9871 64.963 13.7504 64.9645 13.6035 64.8172Z" fill="white"/>
<path d="M17.0664 65.9186L14.1162 62.9597C13.9694 62.8125 13.9694 62.575 14.1162 62.4277C14.2631 62.2805 14.4998 62.2805 14.6466 62.4277L17.5968 65.3867C17.7437 65.5339 17.7437 65.7714 17.5968 65.9171C17.4515 66.0645 17.2133 66.0659 17.0664 65.9186Z" fill="white"/>
<path d="M20.072 66.0944L17.4094 63.424C17.2626 63.2767 17.2626 63.0393 17.4094 62.892C17.5563 62.7447 17.793 62.7447 17.9399 62.892L20.6024 65.5624C20.7492 65.7097 20.7492 65.9472 20.6024 66.0944C20.4555 66.2402 20.2188 66.2432 20.072 66.0944Z" fill="white"/>
<path d="M23.8236 65.5246L21.6765 63.3712C21.5297 63.224 21.5297 62.9865 21.6765 62.8392C21.8234 62.692 22.0601 62.692 22.2054 62.8392L24.3525 64.9928C24.4994 65.14 24.4994 65.3774 24.3525 65.5246C24.2073 65.6705 23.9705 65.6734 23.8236 65.5246Z" fill="white"/>
<path d="M47.9452 41.5089C47.9093 41.5089 47.8704 41.5044 47.8345 41.4923C47.6367 41.4307 47.5273 41.2203 47.5872 41.022C48.5641 37.8616 50.7861 35.1416 53.6794 33.5591C56.5756 31.9767 60.0548 31.5754 63.2357 32.4636C63.4349 32.5192 63.5519 32.7266 63.4965 32.9264C63.4395 33.1263 63.2282 33.245 63.0335 33.1879C60.0443 32.3524 56.7615 32.7296 54.039 34.2204C51.3135 35.7111 49.2219 38.2719 48.3034 41.2474C48.2539 41.4052 48.1056 41.5089 47.9452 41.5089Z" fill="white"/>
<path d="M27.493 48.5835C27.4705 48.5835 27.4496 48.582 27.4256 48.5775C27.2219 48.5399 27.087 48.3446 27.1244 48.1402C27.4885 46.137 28.5043 44.266 29.9832 42.8699C31.4621 41.4754 33.3874 40.5751 35.4042 40.3347C35.6019 40.3031 35.7968 40.4564 35.8192 40.6638C35.8446 40.8697 35.6978 41.0561 35.491 41.0801C33.6332 41.301 31.8577 42.1321 30.4941 43.417C29.1322 44.7034 28.1958 46.4285 27.8602 48.2739C27.8286 48.4558 27.6714 48.5835 27.493 48.5835Z" fill="white"/>
</g>
<defs>
<clipPath id="clip0">
<rect x="10" y="28" width="80" height="44.5714" fill="white"/>
</clipPath>
</defs>
</svg>
