<svg width="65" height="39" viewBox="0 0 65 39" fill="none" xmlns="http://www.w3.org/2000/svg">
<path d="M51.1099 19.8768C50.8567 19.6388 50.8299 19.2233 51.0503 18.9485C51.2706 18.6749 51.6553 18.646 51.9085 18.884C53.1259 20.0254 56.279 19.1128 55.9247 14.1805C55.5425 8.89836 51.8063 3.94103 46.8381 2.12509C37.7417 -1.19776 26.4103 6.22113 28.2777 12.5723C28.716 14.0634 29.9724 15.1667 31.2652 15.1956C31.6 15.2035 31.8678 15.5033 31.8605 15.8662C31.8532 16.2278 31.6256 16.4816 31.2384 16.5106C29.4416 16.4698 27.708 14.9813 27.1164 12.9707C24.8593 5.29673 37.4301 -2.69811 47.2277 0.879843C52.6438 2.85883 56.7185 8.28691 57.1372 14.0792C57.5901 20.3568 53.0492 21.6941 51.1099 19.8768Z" fill="white"/>
<path d="M10.7473 18.1005C10.7145 14.2977 13.8845 9.19831 19.0658 7.59014C21.9388 6.69598 25.1235 7.01288 27.7969 8.45931C28.0976 8.62237 28.2193 9.01685 28.0696 9.34164C27.9186 9.66774 27.551 9.79924 27.2527 9.63619C24.8484 8.33702 21.9875 8.05037 19.403 8.8538C14.7708 10.2923 11.9355 14.7671 11.9659 18.0873C11.9976 21.6114 14.9936 23.2498 16.8124 21.8467C17.0826 21.635 17.4637 21.7008 17.6609 21.998C17.8569 22.2938 17.7936 22.7041 17.5209 22.9158C14.9339 24.9198 10.7887 22.7475 10.7473 18.1005Z" fill="white"/>
<path d="M36.3587 38.9999C28.7293 38.9999 21.0829 37.9085 13.5679 36.8316C10.3564 36.3714 6.71763 35.8506 3.79467 33.6507C0.9058 31.4758 -1.07003 27.0576 0.628233 23.4297C2.76841 18.8524 8.40615 18.8392 11.1148 18.834H11.3888C11.7004 18.8235 11.9987 19.1246 11.9999 19.4888C12.0011 19.8517 11.7296 20.1476 11.3936 20.1489H11.1185C8.46215 20.1542 3.51954 20.1647 1.71536 24.0227C0.334843 26.9748 2.0818 30.7592 4.49224 32.5725C7.17172 34.5896 10.6559 35.088 13.7286 35.5285C27.1029 37.443 41.7919 39.5798 55.3719 34.7014C57.6886 33.8703 60.5677 32.5962 62.2818 30.1162C63.946 27.7072 64.2637 24.2634 63.0695 21.5467C61.8777 18.83 59.2067 16.9168 56.4274 16.7853C56.0914 16.7695 55.8309 16.4618 55.8443 16.1002C55.8589 15.7386 56.1182 15.4493 56.4797 15.4717C59.6973 15.6229 62.7895 17.8386 64.17 20.9826C65.5505 24.1279 65.1841 28.1148 63.2557 30.9025C61.3396 33.6757 58.2413 35.0564 55.7566 35.9493C50.0519 37.9979 43.691 38.9999 36.3587 38.9999Z" fill="white"/>
<path d="M10.8313 35.3298L8.6156 32.9366C8.4963 32.8078 8.4963 32.6 8.6156 32.4712C8.73491 32.3423 8.92725 32.3423 9.04656 32.4712L11.2622 34.8644C11.5495 35.176 11.11 35.631 10.8313 35.3298Z" fill="white"/>
<path d="M15.2627 36.3137L11.1674 31.8903C11.0481 31.7614 11.0481 31.5536 11.1674 31.4248C11.2867 31.2959 11.479 31.2959 11.5971 31.4248L15.6924 35.8482C15.8117 35.9771 15.8117 36.1849 15.6924 36.3137C15.5755 36.4413 15.3832 36.4426 15.2627 36.3137Z" fill="white"/>
<path d="M20.6387 36.607L15.92 31.5103C15.8007 31.3814 15.8007 31.1737 15.92 31.0461C16.0393 30.9172 16.2317 30.9172 16.351 31.0461L21.0696 36.1428C21.1889 36.2717 21.1889 36.4795 21.0696 36.6083C20.9515 36.7346 20.7592 36.7359 20.6387 36.607Z" fill="white"/>
<path d="M26.2374 37.0433L20.6752 31.0341C20.5559 30.9052 20.5559 30.6974 20.6752 30.5686C20.7945 30.4397 20.9868 30.4397 21.1061 30.5686L26.6684 36.5779C26.7877 36.7067 26.7877 36.9145 26.6684 37.042C26.5491 37.1709 26.3567 37.1722 26.2374 37.0433Z" fill="white"/>
<path d="M31.3088 36.6267L25.34 30.1796C25.2207 30.0507 25.2207 29.8429 25.34 29.7141C25.4593 29.5852 25.6516 29.5852 25.7709 29.7141L31.7398 36.1612C31.8591 36.2901 31.8591 36.4979 31.7398 36.6267C31.6205 36.7543 31.4281 36.7556 31.3088 36.6267Z" fill="white"/>
<path d="M37.9365 36.749L31.589 29.8929C31.4697 29.764 31.4697 29.5562 31.589 29.4287C31.7083 29.2998 31.9006 29.2998 32.0199 29.4287L38.3674 36.2848C38.4867 36.4137 38.4867 36.6214 38.3674 36.7503C38.2493 36.8778 38.057 36.8791 37.9365 36.749Z" fill="white"/>
<path d="M43.9588 35.0776L38.0155 28.6581C37.8962 28.5292 37.8962 28.3215 38.0155 28.1926C38.1348 28.0637 38.3272 28.0637 38.4452 28.1926L44.3886 34.6121C44.5079 34.741 44.5079 34.9488 44.3886 35.0776C44.2705 35.2052 44.0781 35.2065 43.9588 35.0776Z" fill="white"/>
<path d="M50.164 34.7435L44.0016 28.0873C43.8823 27.9584 43.8823 27.7507 44.0016 27.6218C44.1209 27.4929 44.3132 27.4929 44.4313 27.6218L50.595 34.278C50.7143 34.4069 50.7143 34.6147 50.595 34.7435C50.4769 34.8711 50.2845 34.8724 50.164 34.7435Z" fill="white"/>
<path d="M56.2141 33.4824L50.6908 27.5165C50.5715 27.3876 50.5715 27.1799 50.6908 27.051C50.8101 26.9221 51.0024 26.9221 51.1218 27.051L56.6451 33.0169C56.7644 33.1457 56.7644 33.3535 56.6451 33.4811C56.527 33.6099 56.3334 33.6112 56.2141 33.4824Z" fill="white"/>
<path d="M60.3949 31.2457L55.5338 25.9938C55.4145 25.8649 55.4145 25.6572 55.5338 25.5283C55.6531 25.3994 55.8455 25.3994 55.9648 25.5283L60.8258 30.7802C60.9451 30.909 60.9451 31.1168 60.8258 31.2457C60.7065 31.3732 60.5142 31.3758 60.3949 31.2457Z" fill="white"/>
<path d="M62.8577 27.2511L59.494 23.618C59.3747 23.4891 59.3747 23.2813 59.494 23.1538C59.6133 23.0249 59.8057 23.0249 59.925 23.1538L63.2886 26.787C63.4079 26.9158 63.4079 27.1236 63.2886 27.2525C63.1705 27.3787 62.977 27.38 62.8577 27.2511Z" fill="white"/>
<path d="M62.9978 22.7434L60.9916 20.5751C60.8723 20.4462 60.8723 20.2385 60.9916 20.1096C61.1109 19.9807 61.3032 19.9807 61.4213 20.1096L63.4288 22.2779C63.5481 22.4068 63.5481 22.6145 63.4288 22.7421C63.3107 22.871 63.1184 22.8723 62.9978 22.7434Z" fill="white"/>
<path d="M42.9069 37.1749L35.902 29.6088C35.7827 29.4799 35.7827 29.2721 35.902 29.1433C36.0213 29.0144 36.2136 29.0144 36.3329 29.1433L43.3378 36.7095C43.4571 36.8383 43.4571 37.0461 43.3378 37.1749C43.2197 37.3025 43.0274 37.3038 42.9069 37.1749Z" fill="white"/>
<path d="M34.5886 37.6007L28.7731 31.3192C28.6538 31.1904 28.6538 30.9826 28.7731 30.8537C28.8924 30.7249 29.0847 30.7249 29.204 30.8537L35.0195 37.1352C35.1388 37.2641 35.1388 37.4718 35.0195 37.6007C34.9014 37.7282 34.7091 37.7309 34.5886 37.6007Z" fill="white"/>
<path d="M27.4705 35.998L23.9315 32.1754C23.8122 32.0466 23.8122 31.8388 23.9315 31.7099C24.0508 31.5811 24.2432 31.5811 24.3625 31.7099L27.9014 35.5325C28.0207 35.6613 28.0207 35.8691 27.9014 35.998C27.7821 36.1255 27.5898 36.1281 27.4705 35.998Z" fill="white"/>
<path d="M8.08606 35.5036C7.96676 35.3747 7.96676 35.167 8.08606 35.0381L13.0299 29.6994C13.1492 29.5706 13.3415 29.5706 13.4608 29.6994C13.5802 29.8283 13.5802 30.0361 13.4608 30.1649L8.51702 35.5036C8.39771 35.6311 8.20536 35.6325 8.08606 35.5036Z" fill="white"/>
<path d="M10.8153 36.3596C10.696 36.2308 10.696 36.023 10.8153 35.8941L16.5821 29.6653C16.7014 29.5364 16.8937 29.5364 17.013 29.6653C17.1324 29.7941 17.1324 30.0019 17.013 30.1307L11.2463 36.3596C11.1282 36.4872 10.9346 36.4885 10.8153 36.3596Z" fill="white"/>
<path d="M14.9521 36.7491L21.3142 29.8772C21.4335 29.7483 21.6258 29.7483 21.7451 29.8772C21.8644 30.006 21.8644 30.2138 21.7451 30.3427L15.383 37.2145C15.0982 37.5222 14.6696 37.0554 14.9521 36.7491Z" fill="white"/>
<path d="M19.7936 37.3103C19.6743 37.1815 19.6743 36.9737 19.7936 36.8448L27.0273 29.0315C27.1466 28.9026 27.339 28.9026 27.4583 29.0315C27.5776 29.1603 27.5776 29.3681 27.4583 29.497L20.2245 37.3103C20.1064 37.4379 19.9129 37.4392 19.7936 37.3103Z" fill="white"/>
<path d="M23.8427 38.0704C23.7233 37.9415 23.7233 37.7338 23.8427 37.6049L32.4679 28.2885C32.5872 28.1597 32.7795 28.1597 32.8988 28.2885C33.0181 28.4174 33.0181 28.6252 32.8988 28.754L24.2736 38.0704C24.1555 38.1979 23.962 38.1993 23.8427 38.0704Z" fill="white"/>
<path d="M29.5646 37.8795C29.4453 37.7506 29.4453 37.5429 29.5646 37.414L38.2312 28.0529C38.3505 27.9241 38.5428 27.9241 38.6621 28.0529C38.7814 28.1818 38.7814 28.3896 38.6621 28.5184L29.9955 37.8795C29.8774 38.0071 29.6851 38.0097 29.5646 37.8795Z" fill="white"/>
<path d="M35.0233 38.5466C34.904 38.4177 34.904 38.2099 35.0233 38.0811L44.3802 27.9731C44.4995 27.8442 44.6918 27.8442 44.8111 27.9731C44.9305 28.102 44.9305 28.3097 44.8111 28.4386L35.4531 38.5466C35.335 38.6741 35.1426 38.6754 35.0233 38.5466Z" fill="white"/>
<path d="M41.2735 37.4155L50.6474 27.2905C50.7668 27.1616 50.9591 27.1616 51.0772 27.2905C51.1965 27.4194 51.1965 27.6271 51.0772 27.7547L41.7033 37.8797C41.4184 38.1887 40.9899 37.7206 41.2735 37.4155Z" fill="white"/>
<path d="M48.3146 36.0729C48.1953 35.9441 48.1953 35.7363 48.3146 35.6075L55.7175 27.6113C55.8368 27.4824 56.0292 27.4824 56.1473 27.6113C56.2666 27.7402 56.2666 27.9479 56.1473 28.0768L48.7443 36.0729C48.6262 36.2005 48.4339 36.2031 48.3146 36.0729Z" fill="white"/>
<path d="M54.476 34.1729C54.3566 34.0441 54.3566 33.8363 54.476 33.7074L61.0365 26.6225C61.1558 26.4937 61.3481 26.4937 61.4674 26.6225C61.5867 26.7514 61.5867 26.9592 61.4674 27.088L54.9069 34.1729C54.7888 34.3005 54.5965 34.3018 54.476 34.1729Z" fill="white"/>
<path d="M58.9669 25.9951C58.8476 25.8663 58.8476 25.6585 58.9669 25.5297L61.924 22.3357C62.0433 22.2068 62.2356 22.2068 62.3549 22.3357C62.4742 22.4645 62.4742 22.6723 62.3549 22.8012L59.3979 25.9951C59.2786 26.1227 59.0862 26.124 58.9669 25.9951Z" fill="white"/>
<path d="M62.2235 25.3298C62.1042 25.2009 62.1042 24.9932 62.2235 24.8643L63.324 23.6743C63.4433 23.5454 63.6357 23.5454 63.755 23.6743C63.8743 23.8031 63.8743 24.0109 63.755 24.1385L62.6545 25.3285C62.5352 25.4573 62.3428 25.4587 62.2235 25.3298Z" fill="white"/>
<path d="M5.26892 33.8862C5.14962 33.7573 5.14962 33.5496 5.26892 33.4207L8.44388 29.9926C8.56318 29.8638 8.75553 29.8638 8.87362 29.9926C8.99292 30.1215 8.99292 30.3293 8.87362 30.4581L5.69988 33.8862C5.58179 34.0137 5.38944 34.0164 5.26892 33.8862Z" fill="white"/>
<path d="M2.92786 32.215C2.80855 32.0861 2.80855 31.8784 2.92786 31.7495L4.67238 29.8652C4.79168 29.7363 4.98403 29.7363 5.10334 29.8652C5.22264 29.9941 5.22264 30.2018 5.10334 30.3307L3.35881 32.215C3.23951 32.3426 3.04716 32.3439 2.92786 32.215Z" fill="white"/>
<path d="M5.74141 33.1788L3.34436 30.5897C3.22506 30.4609 3.22506 30.2531 3.34436 30.1242C3.46367 29.9954 3.65601 29.9954 3.77532 30.1242L6.17236 32.7134C6.29167 32.8422 6.29167 33.05 6.17236 33.1775C6.05428 33.3064 5.86071 33.3077 5.74141 33.1788Z" fill="white"/>
<path d="M8.18345 33.3326L6.02014 30.996C5.90084 30.8671 5.90084 30.6594 6.02014 30.5305C6.13945 30.4016 6.33179 30.4016 6.4511 30.5305L8.6144 32.8671C8.73371 32.996 8.73371 33.2038 8.6144 33.3326C8.4951 33.4602 8.30275 33.4628 8.18345 33.3326Z" fill="white"/>
<path d="M11.2317 32.8341L9.48718 30.9498C9.36788 30.821 9.36788 30.6132 9.48718 30.4843C9.60649 30.3555 9.79884 30.3555 9.91692 30.4843L11.6614 32.3687C11.7808 32.4975 11.7808 32.7053 11.6614 32.8341C11.5434 32.9617 11.351 32.9643 11.2317 32.8341Z" fill="white"/>
<path d="M30.8306 11.8203C30.8014 11.8203 30.7698 11.8164 30.7406 11.8058C30.5799 11.7519 30.491 11.5678 30.5397 11.3943C31.3334 8.62894 33.1388 6.2489 35.4896 4.86426C37.8428 3.47963 40.6696 3.12854 43.2541 3.90567C43.416 3.95432 43.511 4.13578 43.466 4.31067C43.4197 4.48556 43.248 4.58944 43.0898 4.53947C40.6611 3.80836 37.9938 4.13841 35.7818 5.44284C33.5673 6.74726 31.8679 8.98792 31.1216 11.5915C31.0814 11.7296 30.9609 11.8203 30.8306 11.8203Z" fill="white"/>
<path d="M14.213 18.0106C14.1947 18.0106 14.1777 18.0093 14.1582 18.0054C13.9927 17.9725 13.8831 17.8016 13.9135 17.6227C14.2093 15.8699 15.0347 14.2328 16.2363 13.0112C17.4379 11.791 19.0022 11.0033 20.6408 10.7929C20.8015 10.7653 20.9598 10.8994 20.978 11.0809C20.9987 11.261 20.8794 11.4241 20.7114 11.4451C19.2019 11.6384 17.7593 12.3656 16.6514 13.4899C15.5448 14.6155 14.784 16.125 14.5113 17.7397C14.4857 17.8989 14.3579 18.0106 14.213 18.0106Z" fill="white"/>
</svg>
