<svg width="65" height="59" viewBox="0 0 65 59" fill="none" xmlns="http://www.w3.org/2000/svg">
<path d="M28.0896 43.2853C27.9916 42.4913 28.2306 41.6223 28.7586 40.8363C28.7686 40.8213 28.7796 40.8073 28.7906 40.7943C29.2886 40.0863 31.1716 38.2913 31.6666 38.0093C31.8426 37.9083 32.0596 37.9253 32.2206 38.0473C32.3796 38.1713 32.4506 38.3783 32.3976 38.5733C32.2766 39.0243 32.5076 40.0683 32.6316 40.6293L32.6866 40.8643C33.9146 46.0893 28.5036 46.6173 28.0896 43.2853ZM29.5576 41.4413C29.1846 42.0143 29.0156 42.6233 29.0816 43.1623C29.3356 45.1963 32.5866 44.8093 31.7126 41.0923L31.6556 40.8463C31.5516 40.3803 31.4576 39.9253 31.4056 39.5083C30.7526 40.1053 29.8996 40.9553 29.6156 41.3593C29.5996 41.3883 29.5806 41.4153 29.5576 41.4413Z" fill="white"/>
<path d="M25.6617 41.9691C25.4037 41.9691 25.1847 41.7711 25.1647 41.5091C25.1427 41.2341 25.3477 40.9931 25.6227 40.9701C26.7947 40.8761 27.9557 40.7511 29.1167 40.6171C29.3847 40.5791 29.6387 40.7811 29.6717 41.0561C29.7027 41.3301 29.5067 41.5781 29.2327 41.6101C28.0597 41.7461 26.8867 41.8711 25.7037 41.9661C25.6887 41.9691 25.6747 41.9691 25.6617 41.9691Z" fill="white"/>
<path d="M31.6486 40.8053C31.6106 40.5313 31.8006 40.2793 32.0746 40.2403C33.1586 40.0883 34.2436 39.9263 35.3266 39.7643C37.3376 39.4563 41.5126 38.9403 42.7756 35.8443C43.3646 34.3983 43.0646 32.7663 41.9936 31.5863C40.9226 30.4053 39.3776 29.9713 37.8586 30.4243C37.5906 30.5053 37.3156 30.3523 37.2356 30.0883C37.1566 29.8233 37.3066 29.5453 37.5716 29.4663C39.4406 28.9063 41.4166 29.4643 42.7346 30.9143C44.0666 32.3813 44.4376 34.4153 43.7016 36.2223C43.1176 37.6533 41.8466 38.8573 40.1206 39.6123C38.4936 40.3363 36.7986 40.5893 32.2136 41.2313C31.9466 41.2703 31.6876 41.0843 31.6486 40.8053Z" fill="white"/>
<path d="M19.1217 42.2442C16.6097 42.2442 14.7007 42.0542 13.3057 41.6652C9.28671 40.5762 7.76171 37.6042 8.04771 35.3052C8.33971 32.9352 10.0647 31.9302 11.4517 31.7902C13.0417 31.6362 14.3997 32.4692 14.8697 33.8722C14.9577 34.1342 14.8167 34.4172 14.5557 34.5052C14.2937 34.5922 14.0097 34.4522 13.9227 34.1902C13.5277 33.0142 12.3907 32.6972 11.5527 32.7852C10.5317 32.8882 9.25971 33.6422 9.03971 35.4272C8.80571 37.3132 10.1237 39.7672 13.5697 40.7012C15.0537 41.1142 17.1957 41.2922 20.0997 41.2352C20.4167 41.2122 20.6037 41.4502 20.6087 41.7262C20.6137 42.0022 20.3937 42.2302 20.1177 42.2352C19.7757 42.2412 19.4437 42.2442 19.1217 42.2442Z" fill="white"/>
<path d="M13.1027 33.0023C13.0997 33.0023 13.0957 33.0023 13.0917 33.0023C12.8167 32.9963 12.5967 32.7683 12.6027 32.4923C12.6697 29.2623 15.2127 26.2773 18.3907 25.6973C21.5767 25.1173 25.0027 27.0123 26.2057 30.0083C26.3087 30.2643 26.1847 30.5563 25.9287 30.6583C25.6717 30.7593 25.3817 30.6373 25.2787 30.3813C24.2457 27.8083 21.3027 26.1833 18.5707 26.6803C15.8427 27.1783 13.6607 29.7403 13.6027 32.5123C13.5967 32.7853 13.3737 33.0023 13.1027 33.0023Z" fill="white"/>
<path d="M39.8797 30.0252C39.6377 30.0252 39.4237 29.8482 39.3867 29.6002C39.0197 27.1862 37.5807 24.9462 35.5377 23.6072C33.4937 22.2692 30.8627 21.8462 28.5077 22.4732C26.1487 23.1012 24.0777 24.7752 22.9697 26.9522C22.8447 27.1992 22.5387 27.2932 22.2977 27.1712C22.0517 27.0462 21.9527 26.7442 22.0787 26.4982C23.3127 24.0732 25.6207 22.2072 28.2497 21.5072C30.8787 20.8062 33.8097 21.2802 36.0857 22.7712C38.3627 24.2632 39.9657 26.7602 40.3747 29.4502C40.4167 29.7232 40.2287 29.9782 39.9557 30.0192C39.9307 30.0232 39.9057 30.0252 39.8797 30.0252Z" fill="white"/>
<path d="M7.66174 23.3732C7.06874 23.0422 6.62374 22.4252 6.43874 21.6822C6.29874 21.1192 6.29874 20.4852 6.44074 19.7442C6.97274 16.9682 9.10974 14.5692 11.8837 13.6342C14.5127 12.7472 17.6207 13.2142 20.0037 14.8492C20.9457 15.4962 21.5997 16.1952 22.0017 16.9862C22.5157 17.9962 22.5637 19.1382 22.1307 20.0412C21.6207 21.1022 20.4337 21.7312 19.3607 21.4992C18.1767 21.2442 17.3587 19.8812 17.8287 18.7552C17.9367 18.5002 18.2307 18.3792 18.4827 18.4862C18.7377 18.5932 18.8577 18.8852 18.7527 19.1402C18.5287 19.6762 18.9897 20.3962 19.5717 20.5212C20.1877 20.6542 20.9197 20.2542 21.2287 19.6082C21.5287 18.9842 21.4847 18.1732 21.1117 17.4392C20.7867 16.8012 20.2397 16.2232 19.4377 15.6732C17.3107 14.2132 14.5387 13.7952 12.2037 14.5812C9.80274 15.3912 7.88174 17.5412 7.42374 19.9322C7.30974 20.5282 7.30474 21.0212 7.40974 21.4412C7.52774 21.9182 7.79774 22.3042 8.14974 22.5012C9.01574 22.9872 9.78074 22.1302 9.35174 21.6182C9.17474 21.4062 9.20374 21.0912 9.41474 20.9142C9.62374 20.7362 9.93974 20.7642 10.1187 20.9772C11.2737 22.3582 9.48074 24.3952 7.66174 23.3732Z" fill="white"/>
<path d="M8.7867 31.8253C6.0247 31.8253 3.0857 31.2183 1.1097 28.8143C-1.1303 26.0903 0.390704 23.3453 2.4107 22.2553C3.6977 21.5623 5.3437 21.3663 7.1707 21.6893C7.4437 21.7373 7.6237 21.9963 7.5757 22.2683C7.5277 22.5413 7.2647 22.7243 6.9967 22.6733C5.8777 22.4773 4.2567 22.3953 2.8857 23.1343C1.6717 23.7903 -0.0802956 25.7873 1.8817 28.1783C4.7167 31.6263 10.0737 30.8723 13.2757 30.4213C13.5407 30.3803 13.8007 30.5733 13.8397 30.8463C13.8777 31.1193 13.6877 31.3723 13.4137 31.4113C12.1157 31.5953 10.4847 31.8253 8.7867 31.8253Z" fill="white"/>
<path d="M21.8627 18.8362C21.7607 18.8362 21.6597 18.8062 21.5717 18.7432C21.3467 18.5822 21.2957 18.2702 21.4567 18.0452C22.5157 16.5652 24.1677 15.6242 25.9897 15.4642C27.8177 15.2992 29.6027 15.9422 30.9047 17.2152C31.1017 17.4082 31.1057 17.7252 30.9127 17.9222C30.7207 18.1202 30.4037 18.1242 30.2057 17.9302C29.1127 16.8612 27.6067 16.3232 26.0767 16.4602C24.5467 16.5942 23.1587 17.3842 22.2687 18.6272C22.1707 18.7642 22.0177 18.8362 21.8627 18.8362Z" fill="white"/>
<path d="M27.9378 58.7732C26.0938 58.7732 24.6598 57.1922 24.4248 55.3802C24.2568 54.0682 24.6628 52.6142 25.5698 51.2842C26.3418 50.1502 29.7198 46.9192 30.5598 46.4232C30.7328 46.3202 30.9538 46.3332 31.1158 46.4552C31.2768 46.5772 31.3488 46.7852 31.2978 46.9812C31.0568 47.8992 31.4758 49.7522 31.8128 51.2422C32.0618 52.3432 32.2578 53.2122 32.2268 53.7492C32.1658 54.7662 31.8858 56.2172 30.8978 57.3602C30.1298 58.2442 29.0238 58.7732 27.9378 58.7732ZM30.2338 47.9462C29.0048 49.0182 26.9588 51.0222 26.3958 51.8472C25.6268 52.9742 25.2808 54.1832 25.4178 55.2522C25.5708 56.4392 26.4158 57.4752 27.4268 57.7142C28.7908 58.0342 31.0288 57.0082 31.2288 53.6892C31.2518 53.2942 31.0508 52.4042 30.8368 51.4622C30.5718 50.2892 30.2818 49.0062 30.2338 47.9462Z" fill="white"/>
<path d="M20.7836 51.5422C19.0536 51.1322 17.6726 49.4812 17.4226 47.5262C17.1646 45.4952 17.9646 43.3772 19.7376 41.4012C21.2546 39.7302 24.1346 36.9972 25.0066 36.4882C25.1806 36.3852 25.3996 36.3992 25.5606 36.5212C25.7216 36.6432 25.7936 36.8502 25.7426 37.0452C25.4866 38.0292 25.8276 39.8692 26.1536 41.3622C26.2026 41.5882 26.2616 41.8302 26.3236 42.0882C26.8216 44.1492 27.5736 47.2632 25.2746 49.9222C24.1516 51.2212 22.3906 51.9172 20.7836 51.5422ZM24.6506 38.0162C23.4986 39.0012 21.6396 40.7912 20.4786 42.0712C19.3836 43.2922 18.1356 45.2102 18.4146 47.4002C19.0886 52.6652 27.6496 51.8432 25.3506 42.3242C25.2856 42.0582 25.2256 41.8072 25.1746 41.5752C24.9026 40.3272 24.6636 39.0652 24.6506 38.0162Z" fill="white"/>
<path d="M33.8477 40.5943L32.7827 39.5293C32.6847 39.4313 32.6847 39.2733 32.7827 39.1753C32.8807 39.0773 33.0387 39.0773 33.1357 39.1753L34.2007 40.2403C34.2987 40.3383 34.2987 40.4963 34.2007 40.5943C34.1047 40.6913 33.9457 40.6923 33.8477 40.5943Z" fill="white"/>
<path d="M35.2966 40.4191L34.1106 39.2341C34.0126 39.1361 34.0126 38.9781 34.1106 38.8801C34.2086 38.7821 34.3666 38.7821 34.4646 38.8801L35.6506 40.0651C35.7486 40.1631 35.7486 40.3211 35.6506 40.4181C35.5516 40.5181 35.3936 40.5151 35.2966 40.4191Z" fill="white"/>
<path d="M36.9736 39.7832L35.5386 38.3482C35.4406 38.2502 35.4406 38.0922 35.5386 37.9942C35.6366 37.8962 35.7946 37.8962 35.8926 37.9942L37.3266 39.4292C37.4246 39.5272 37.4246 39.6852 37.3266 39.7822C37.2306 39.8792 37.0726 39.8822 36.9736 39.7832Z" fill="white"/>
<path d="M38.9848 39.0871L37.5088 37.6091C37.4108 37.5111 37.4108 37.3531 37.5088 37.2551C37.6078 37.1561 37.7658 37.1581 37.8628 37.2551L39.3398 38.7331C39.4378 38.8311 39.4378 38.9891 39.3398 39.0871C39.2418 39.1831 39.0838 39.1861 38.9848 39.0871Z" fill="white"/>
<path d="M40.5587 38.0032L39.2307 36.6742C39.1327 36.5762 39.1327 36.4182 39.2307 36.3202C39.3297 36.2222 39.4877 36.2232 39.5847 36.3202L40.9127 37.6492C41.0107 37.7472 41.0107 37.9052 40.9127 38.0032C40.8157 38.1002 40.6577 38.1022 40.5587 38.0032Z" fill="white"/>
<path d="M41.5736 36.8522L40.2156 35.4932C40.1176 35.3952 40.1176 35.2372 40.2156 35.1392C40.3146 35.0402 40.4726 35.0422 40.5696 35.1392L41.9276 36.4982C42.0256 36.5962 42.0256 36.7542 41.9276 36.8522C41.8306 36.9492 41.6726 36.9512 41.5736 36.8522Z" fill="white"/>
<path d="M42.7146 34.8432L41.6906 33.8202C41.4546 33.5842 41.8146 33.2352 42.0446 33.4662L43.0686 34.4892C43.1666 34.5872 43.1666 34.7452 43.0686 34.8432C42.9696 34.9422 42.8116 34.9402 42.7146 34.8432Z" fill="white"/>
<path d="M42.8346 33.3892L41.8386 32.3922C41.7406 32.2942 41.7406 32.1362 41.8386 32.0382C41.9376 31.9402 42.0956 31.9412 42.1926 32.0382L43.1886 33.0352C43.2866 33.1332 43.2866 33.2912 43.1886 33.3892C43.0916 33.4862 42.9336 33.4882 42.8346 33.3892Z" fill="white"/>
<path d="M33.1568 40.2421C33.0928 40.2421 33.0287 40.2181 32.9797 40.1691C32.8818 40.0711 32.8818 39.9131 32.9797 39.8161L34.8428 37.9531C34.9408 37.8551 35.0988 37.8551 35.1968 37.9531C35.2948 38.0511 35.2948 38.2091 35.1968 38.3071L33.3338 40.1701C33.2848 40.2181 33.2208 40.2421 33.1568 40.2421Z" fill="white"/>
<path d="M35.5188 39.9473C35.4548 39.9473 35.3908 39.9233 35.3418 39.8743C35.2438 39.7763 35.2438 39.6183 35.3418 39.5203L37.9688 36.8943C38.0668 36.7963 38.2248 36.7963 38.3228 36.8943C38.4208 36.9923 38.4208 37.1503 38.3228 37.2483L35.6958 39.8743C35.6468 39.9223 35.5828 39.9473 35.5188 39.9473Z" fill="white"/>
<path d="M38.7388 39.0372C38.6408 38.9392 38.6408 38.7812 38.7388 38.6832L41.8758 35.5462C41.9738 35.4482 42.1318 35.4482 42.2298 35.5462C42.3278 35.6442 42.3278 35.8022 42.2298 35.9002L39.0928 39.0372C38.9948 39.1342 38.8368 39.1352 38.7388 39.0372Z" fill="white"/>
<path d="M41.2966 35.1002C41.1986 35.0022 41.1986 34.8442 41.2966 34.7462L42.7486 33.2942C42.8466 33.1962 43.0046 33.1962 43.1026 33.2942C43.2006 33.3922 43.2006 33.5502 43.1026 33.6482L41.6506 35.1002C41.5536 35.1972 41.3956 35.1982 41.2966 35.1002Z" fill="white"/>
<path d="M41.6906 32.7373C41.4286 32.4743 42.0226 32.0513 42.3066 31.7683C42.4056 31.6693 42.5636 31.6713 42.6606 31.7683C42.7586 31.8663 42.7586 32.0243 42.6606 32.1223L42.0446 32.7383C41.9476 32.8343 41.7896 32.8363 41.6906 32.7373Z" fill="white"/>
<path d="M15.7216 31.8973C15.7126 31.8973 15.7026 31.8973 15.6936 31.8953C15.5556 31.8793 15.4576 31.7553 15.4736 31.6183C15.6046 30.4843 16.1996 29.4353 17.1046 28.7423C18.0116 28.0483 19.1816 27.7453 20.3076 27.9173C20.4446 27.9383 20.5376 28.0643 20.5176 28.2013C20.4966 28.3373 20.3766 28.4343 20.2336 28.4113C19.2506 28.2633 18.1966 28.5363 17.4096 29.1403C16.6216 29.7433 16.0846 30.6913 15.9696 31.6773C15.9556 31.8043 15.8476 31.8973 15.7216 31.8973Z" fill="white"/>
<path d="M25.2676 26.6582C25.2196 26.6582 25.1716 26.6452 25.1296 26.6162C25.0146 26.5402 24.9826 26.3852 25.0586 26.2702C26.1676 24.5882 28.1066 23.4722 30.1186 23.3552C32.1326 23.2342 34.1856 24.1262 35.4806 25.6692C35.5696 25.7752 35.5556 25.9322 35.4506 26.0212C35.3446 26.1092 35.1866 26.0962 35.0986 25.9902C33.9036 24.5662 32.0076 23.7422 30.1486 23.8532C28.2906 23.9602 26.5006 24.9912 25.4766 26.5442C25.4276 26.6192 25.3486 26.6582 25.2676 26.6582Z" fill="white"/>
<path d="M8.99271 19.3962C8.96371 19.3962 8.93371 19.3912 8.90571 19.3802C8.77571 19.3322 8.71071 19.1882 8.75871 19.0582C10.2497 15.0492 15.2947 13.7212 18.5667 16.4562C18.6727 16.5442 18.6867 16.7022 18.5977 16.8082C18.5107 16.9142 18.3527 16.9282 18.2457 16.8402C15.2167 14.3082 10.5887 15.5702 9.22671 19.2332C9.18971 19.3342 9.09371 19.3962 8.99271 19.3962Z" fill="white"/>
<path d="M2.24768 26.8113C2.11168 26.8113 2.00068 26.7023 1.99768 26.5663C1.95268 24.3543 4.42068 22.9153 6.32768 24.1053C6.44468 24.1783 6.48068 24.3323 6.40768 24.4503C6.33568 24.5673 6.18068 24.6023 6.06368 24.5303C4.49868 23.5563 2.46068 24.7203 2.49768 26.5563C2.50068 26.6943 2.39068 26.8083 2.25268 26.8113C2.25068 26.8113 2.24968 26.8113 2.24768 26.8113Z" fill="white"/>
<path d="M28.1987 58.6472L26.3577 56.8062C26.2597 56.7082 26.2597 56.5502 26.3577 56.4522C26.4557 56.3542 26.6137 56.3542 26.7117 56.4522L28.5527 58.2932C28.6507 58.3912 28.6507 58.5492 28.5527 58.6472C28.4547 58.7442 28.2967 58.7452 28.1987 58.6472Z" fill="white"/>
<path d="M30.0917 57.2922C29.9267 57.2922 28.7127 56.0172 28.5957 55.9002C28.4977 55.8022 28.4977 55.6442 28.5957 55.5462C28.6937 55.4482 28.8517 55.4482 28.9497 55.5462L30.2687 56.8652C30.3667 56.9632 30.3667 57.1212 30.2687 57.2192C30.2197 57.2682 30.1567 57.2922 30.0917 57.2922Z" fill="white"/>
<path d="M30.7827 55.5813L29.5557 54.3543C29.4577 54.2563 29.4577 54.0983 29.5557 54.0003C29.6547 53.9013 29.8127 53.9033 29.9097 54.0003L31.1357 55.2273C31.3707 55.4623 31.0147 55.8143 30.7827 55.5813Z" fill="white"/>
<path d="M31.0028 54.4161L29.7688 53.1821C29.6708 53.0841 29.6708 52.9261 29.7688 52.8281C29.8668 52.7301 30.0248 52.7301 30.1228 52.8281L31.3568 54.0621C31.4548 54.1601 31.4548 54.3181 31.3568 54.4161C31.2598 54.5141 31.1018 54.5151 31.0028 54.4161Z" fill="white"/>
<path d="M28.6537 57.5563L27.6897 56.5933C27.5917 56.4953 27.5917 56.3373 27.6897 56.2393C27.7867 56.1423 27.9447 56.1403 28.0427 56.2393L29.0067 57.2023C29.1047 57.3003 29.1047 57.4583 29.0067 57.5563C28.9077 57.6553 28.7497 57.6533 28.6537 57.5563Z" fill="white"/>
<path d="M26.4107 57.9262C26.3127 57.8282 26.3127 57.6702 26.4107 57.5722L28.4497 55.5332C28.5487 55.4342 28.7067 55.4362 28.8027 55.5332C28.9007 55.6312 28.9007 55.7892 28.8027 55.8862L26.7637 57.9252C26.6677 58.0222 26.5087 58.0252 26.4107 57.9262Z" fill="white"/>
<path d="M29.5557 56.2732C29.4577 56.1752 29.4577 56.0172 29.5557 55.9192L30.6487 54.8262C30.8807 54.5932 31.2367 54.9452 31.0027 55.1802L29.9097 56.2732C29.8107 56.3722 29.6527 56.3702 29.5557 56.2732Z" fill="white"/>
<path d="M30.0518 54.2143C29.9878 54.2143 29.9238 54.1903 29.8748 54.1413C29.7768 54.0433 29.7768 53.8853 29.8748 53.7873L30.7578 52.9043C30.8558 52.8063 31.0138 52.8063 31.1118 52.9043C31.2098 53.0023 31.2098 53.1603 31.1118 53.2583L30.2288 54.1413C30.1798 54.1903 30.1168 54.2143 30.0518 54.2143Z" fill="white"/>
<path d="M30.7468 44.7143L29.8338 43.8013C29.7358 43.7033 29.7358 43.5453 29.8338 43.4473C29.9318 43.3493 30.0898 43.3493 30.1878 43.4473L31.1008 44.3603C31.1988 44.4583 31.1988 44.6163 31.1008 44.7143C31.0028 44.8113 30.8448 44.8133 30.7468 44.7143Z" fill="white"/>
<path d="M31.2427 44.1082L30.6087 43.4752C30.5107 43.3782 30.5107 43.2192 30.6087 43.1212C30.7057 43.0242 30.8637 43.0232 30.9627 43.1212C31.2507 43.4092 31.8597 43.8442 31.5967 44.1072C31.4967 44.2072 31.3387 44.2042 31.2427 44.1082Z" fill="white"/>
<path d="M31.7198 43.2393L30.8538 42.3733C30.7558 42.2753 30.7558 42.1173 30.8538 42.0193C30.9518 41.9213 31.1098 41.9213 31.2078 42.0193L32.0738 42.8853C32.1718 42.9833 32.1718 43.1413 32.0738 43.2393C31.9768 43.3363 31.8178 43.3373 31.7198 43.2393Z" fill="white"/>
<path d="M29.6697 44.4963C29.5717 44.3983 29.5717 44.2403 29.6697 44.1423L30.9687 42.8433C31.0667 42.7453 31.2247 42.7453 31.3227 42.8433C31.4207 42.9413 31.4207 43.0993 31.3227 43.1973L30.0237 44.4963C29.9267 44.5933 29.7687 44.5943 29.6697 44.4963Z" fill="white"/>
<path d="M21.3086 51.0322L19.5066 49.2302C19.4086 49.1322 19.4086 48.9742 19.5066 48.8772C19.6046 48.7792 19.7626 48.7792 19.8606 48.8772L21.6626 50.6792C21.7606 50.7772 21.7606 50.9352 21.6626 51.0332C21.5646 51.1292 21.4066 51.1302 21.3086 51.0322Z" fill="white"/>
<path d="M22.9348 50.5771L20.8538 48.4961C20.7558 48.3981 20.7558 48.2401 20.8538 48.1421C20.9518 48.0441 21.1098 48.0441 21.2078 48.1421L23.2888 50.2231C23.3868 50.3211 23.3868 50.4791 23.2888 50.5771C23.1908 50.6741 23.0328 50.6751 22.9348 50.5771Z" fill="white"/>
<path d="M24.1637 49.2743L22.2007 47.3113C22.1027 47.2133 22.1027 47.0553 22.2007 46.9573C22.2987 46.8593 22.4567 46.8593 22.5537 46.9573L24.5167 48.9203C24.6147 49.0183 24.6147 49.1763 24.5167 49.2743C24.4197 49.3713 24.2617 49.3733 24.1637 49.2743Z" fill="white"/>
<path d="M25.0497 47.7123L23.6697 46.3323C23.5717 46.2343 23.5717 46.0763 23.6697 45.9783C23.7677 45.8803 23.9257 45.8803 24.0237 45.9783L25.4037 47.3583C25.5017 47.4563 25.5017 47.6143 25.4037 47.7123C25.3067 47.8093 25.1477 47.8103 25.0497 47.7123Z" fill="white"/>
<path d="M25.6996 45.9942L24.5686 44.8632C24.4706 44.7652 24.4706 44.6072 24.5686 44.5092C24.6676 44.4112 24.8256 44.4122 24.9226 44.5092L26.0536 45.6402C26.1516 45.7382 26.1516 45.8962 26.0536 45.9942C25.9566 46.0912 25.7986 46.0932 25.6996 45.9942Z" fill="white"/>
<path d="M25.6798 44.5861L24.8128 43.7191C24.7148 43.6211 24.7148 43.4631 24.8128 43.3651C24.9108 43.2681 25.0688 43.2671 25.1668 43.3651L26.0338 44.2321C26.1318 44.3301 26.1318 44.4881 26.0338 44.5861C25.9348 44.6851 25.7768 44.6831 25.6798 44.5861Z" fill="white"/>
<path d="M19.8738 49.7342L23.1468 46.4602C23.2448 46.3622 23.4028 46.3622 23.5008 46.4602C23.5988 46.5582 23.5988 46.7162 23.5008 46.8142L20.2278 50.0872C19.9938 50.3222 19.6418 49.9662 19.8738 49.7342Z" fill="white"/>
<path d="M23.0167 48.9583L24.8947 47.0813C24.9927 46.9833 25.1507 46.9833 25.2487 47.0813C25.3467 47.1793 25.3467 47.3373 25.2487 47.4353L23.3707 49.3123C23.1357 49.5463 22.7847 49.1903 23.0167 48.9583Z" fill="white"/>
<path d="M24.5687 45.4071L25.5287 44.4461C25.7607 44.2131 26.1167 44.5651 25.8827 44.8001L24.9227 45.7611C24.6897 45.9931 24.3337 45.6421 24.5687 45.4071Z" fill="white"/>
<mask id="mask0" mask-type="alpha" maskUnits="userSpaceOnUse" x="23" y="0" width="42" height="41">
<path d="M42.8077 32.905C41.4545 32.905 40.1276 32.7233 38.8632 32.3651C35.1513 31.3142 32.445 28.8849 31.2418 25.5242C28.7103 18.4518 33.3341 9.23267 42.4391 8.13313C44.6485 7.86641 46.9439 8.16384 48.9078 8.97234C53.0117 10.6616 55.9858 14.5186 56.4855 18.7997C56.9731 22.9842 55.0233 27.4079 51.5173 30.0701C49.1089 31.8976 46.0158 32.905 42.8077 32.905ZM44.0566 8.67491C40.0018 8.67491 36.1689 10.6456 33.9481 13.5707C31.3184 17.0362 30.5248 21.5374 31.878 25.3176C33.0086 28.4768 35.5575 30.7622 39.0542 31.7524C40.256 32.0926 41.5191 32.2653 42.807 32.2653C45.8631 32.2653 48.8076 31.3078 51.097 29.5693C54.4268 27.0408 56.279 22.8409 55.8163 18.8694C55.3428 14.8129 52.5261 11.158 48.6394 9.55888C47.2358 8.98065 45.6506 8.67491 44.0566 8.67491Z" fill="white"/>
<path d="M43.5428 40.936C43.5415 40.936 43.5394 40.936 43.5374 40.936C43.3639 40.9334 43.2206 40.8049 43.2079 40.6405C43.1056 39.3503 42.7478 37.938 42.1136 36.3229C41.9166 35.8208 41.6778 35.313 41.2669 35.0021C40.6501 34.5352 39.5498 34.5831 38.7428 35.075C37.9135 35.5803 37.3183 36.4317 36.793 37.182C36.713 37.2965 36.5644 37.3489 36.4245 37.3137C36.2846 37.2773 36.185 37.1602 36.177 37.0227C36.1312 36.2449 36.4063 35.4127 36.4789 34.6963C36.5475 34.0151 36.415 33.4612 36.105 33.1376C35.61 32.6188 34.6166 32.6719 33.3051 33.2764L28.9692 35.2771C28.8266 35.3437 28.6544 35.3053 28.5569 35.1857C28.4594 35.0667 28.4627 34.8985 28.565 34.7833C29.6693 33.5354 31.3917 30.1313 30.6095 28.3416C30.3298 27.7013 29.748 27.354 28.832 27.281C28.1197 27.226 27.3927 27.3815 26.6912 27.5318C26.5244 27.5689 26.3529 27.4768 26.2985 27.3207C26.2433 27.1646 26.322 26.9951 26.4794 26.928C27.8817 26.328 28.7533 25.3161 28.8111 24.221C28.8629 23.2366 28.2583 22.3251 27.1519 21.7194C26.0019 21.09 24.5693 20.9614 23.3049 20.8482C23.1408 20.8335 23.0123 20.7081 23.0009 20.5521C22.9888 20.396 23.0984 20.2546 23.2585 20.2188C24.4879 19.9399 25.5728 19.4525 26.7215 18.937C27.8487 18.431 29.0344 18.0351 29.3398 17.1703C29.5738 16.5064 29.1783 15.7714 28.682 15.3384C28.0989 14.8286 27.3174 14.5491 26.5614 14.2791C26.4141 14.2261 26.3247 14.0841 26.3469 13.9357C26.3684 13.7879 26.4948 13.6734 26.6515 13.6613C27.5958 13.5858 28.5381 13.4144 29.5065 13.337C30.352 13.2692 30.8389 13.0977 31.0857 12.7818C31.3339 12.4639 31.3736 11.9489 31.2068 11.2076C30.8207 9.48954 29.9498 7.90388 28.6867 6.62269C28.5744 6.5082 28.565 6.33294 28.6659 6.20885C28.7654 6.0854 28.9463 6.04894 29.0916 6.1225C29.7931 6.48261 30.5013 6.81778 31.2088 7.15359C31.9251 7.49324 32.6413 7.83288 33.3516 8.19684C33.8405 8.44758 34.3947 8.73157 34.9522 8.73157C35.9786 8.70535 36.6928 7.78107 36.865 6.9246C37.052 5.99393 36.8038 5.0268 36.485 3.94965C36.4419 3.80381 36.5126 3.64902 36.6538 3.5793C36.7937 3.50894 36.9686 3.54348 37.0694 3.66117C37.3775 4.02129 37.6445 4.36541 37.9122 4.7089C38.1738 5.04471 38.4354 5.38116 38.7367 5.7336C39.644 6.79475 40.1625 6.82098 40.9723 5.84809C42.2878 4.26819 43.1278 2.29363 43.3383 0.28837C43.3538 0.139335 43.4762 0.0210017 43.6329 0.00245225C43.7883 -0.0160972 43.9376 0.0721727 43.9907 0.213532C44.2463 0.903061 44.5362 1.58491 44.8166 2.24502C45.0998 2.91152 45.3923 3.60041 45.6533 4.30273C45.9822 5.18991 46.3702 6.08156 47.1672 6.39626C47.827 6.65659 48.7329 6.41481 49.3671 5.8353C50.0034 5.25451 50.3793 4.45304 50.7425 3.6778C50.8145 3.52429 51.0021 3.45009 51.1656 3.50766C51.3317 3.56587 51.4218 3.73665 51.372 3.89848C50.8743 5.50269 50.9039 6.83505 51.4561 7.64995C51.7419 8.07275 52.1643 8.34012 52.6458 8.40408C53.2902 8.49043 53.9109 8.19236 54.6111 7.82841C55.2527 7.49516 55.9225 7.22907 56.5709 6.97193C57.2031 6.72056 57.8582 6.46022 58.4688 6.14296C58.6047 6.07324 58.7722 6.09883 58.8764 6.20629C58.9813 6.31375 58.9955 6.47494 58.9121 6.59775C57.8097 8.21027 56.9354 9.95456 56.312 11.7826C56.053 12.5432 56.055 13.037 56.3193 13.3363C56.5776 13.6293 57.2468 13.7905 58.2039 13.7905C59.1831 13.7905 60.239 13.6203 60.851 13.4515C60.9788 13.4163 61.1187 13.4566 61.2041 13.5557C61.2895 13.6542 61.305 13.7917 61.2431 13.9056C60.9889 14.3757 60.4959 14.7691 59.974 15.1855C59.132 15.8584 58.3357 16.4942 58.5946 17.3673C58.9679 18.6268 62.7779 19.8139 64.7149 20.0966C64.8622 20.1184 64.9765 20.2284 64.9967 20.3685C65.0175 20.5086 64.9388 20.6448 64.8036 20.703C63.4545 21.2896 62.4006 21.7175 61.5713 22.0546C59.8079 22.771 59.0782 23.0671 58.7311 23.5871C58.3135 24.2133 58.5697 25.1005 59.0392 25.6525C59.5826 26.2928 60.426 26.7066 61.1692 27.0719C61.3191 27.1454 61.3884 27.3143 61.3306 27.4653C61.2727 27.6162 61.1053 27.7032 60.9412 27.668C60.3453 27.5407 59.4898 27.5024 58.7392 27.5478C57.9785 27.5932 57.4197 27.8356 57.0773 28.268C56.6543 28.8021 56.5655 29.6164 56.8137 30.6871C57.1553 32.1621 57.8185 33.5949 58.7311 34.8319C58.8206 34.9535 58.8112 35.1179 58.7069 35.2285C58.6027 35.3392 58.4318 35.3667 58.2953 35.2963C57.2051 34.7328 56.1371 34.2448 55.0455 33.6806C54.1974 33.2418 53.3305 32.8663 52.5746 33.0378C51.8704 33.197 51.2765 33.8277 51.0613 34.6445C50.8441 35.4677 50.9961 36.3409 51.1736 37.0867C51.2106 37.2427 51.1212 37.4007 50.9631 37.457C50.8071 37.5127 50.6289 37.45 50.5495 37.3093C50.1702 36.6408 49.5938 35.9526 48.9676 35.4223C47.7658 34.4034 46.4805 34.656 45.5013 36.1579C44.6182 37.512 44.0553 39.0657 43.8744 40.6501C43.8589 40.8132 43.7143 40.936 43.5428 40.936ZM40.1686 34.0254C40.7497 34.0254 41.2743 34.1898 41.6852 34.5013C42.2239 34.9093 42.5118 35.5106 42.7425 36.0991C43.1117 37.0393 43.3908 37.915 43.5832 38.7414C43.8871 37.7142 44.3418 36.7253 44.9323 35.8208C45.8315 34.4418 46.8168 34.152 47.4847 34.152C48.137 34.152 48.8056 34.4258 49.4176 34.9445C49.7256 35.2055 50.0229 35.5023 50.2946 35.8157C50.2697 35.3814 50.2946 34.9298 50.4116 34.4891C50.6874 33.4433 51.4763 32.6297 52.4212 32.416C53.4482 32.1839 54.4422 32.6399 55.369 33.119C56.1149 33.5047 56.8345 33.8469 57.5071 34.1776C56.889 33.1305 56.429 31.99 56.1593 30.8246C55.8674 29.5633 55.9959 28.5731 56.542 27.8836C57.0013 27.3034 57.7472 26.9663 58.6989 26.91C58.9497 26.8947 59.2167 26.8851 59.4864 26.8896C59.1313 26.6555 58.7977 26.3843 58.5179 26.0549C57.9173 25.3481 57.5508 24.1666 58.1655 23.2449C58.6242 22.5567 59.4104 22.2375 61.3097 21.4667C61.9305 21.2141 62.6784 20.9109 63.5823 20.5278C61.7079 20.1011 58.4056 19.0796 57.9496 17.5413C57.573 16.2703 58.6659 15.3972 59.5443 14.6962C59.7245 14.5523 59.9007 14.4115 60.0601 14.2727C59.4918 14.3642 58.8334 14.4307 58.2059 14.4307C57.0134 14.4307 56.2064 14.2011 55.8069 13.7482C55.2453 13.1118 55.4625 12.2093 55.675 11.5863C56.1963 10.0569 56.889 8.58446 57.7391 7.19517C57.4358 7.32373 57.1318 7.44462 56.8325 7.56296C56.201 7.81433 55.5466 8.07403 54.9366 8.39129C54.2593 8.74309 53.5908 9.05907 52.8664 9.05907C52.7635 9.05907 52.6593 9.05267 52.5557 9.0386C51.8778 8.94841 51.288 8.5787 50.8938 7.99791C50.5865 7.54377 50.3047 6.82418 50.3511 5.73168C50.1971 5.93188 50.0269 6.12314 49.8352 6.2984C49.012 7.04997 47.8108 7.3442 46.911 6.9892C45.8591 6.57344 45.3836 5.49565 45.0204 4.51765C44.7648 3.82812 44.475 3.14627 44.1945 2.48616C44.0667 2.18489 43.9369 1.87979 43.8091 1.5702C43.4271 3.26652 42.6288 4.89311 41.5023 6.24659C40.4221 7.54377 39.4153 7.53929 38.2175 6.13849C37.9619 5.8385 37.7333 5.55066 37.51 5.26474C37.6183 5.86664 37.6472 6.45255 37.5281 7.04613C37.3062 8.14759 36.3512 9.33731 35.0161 9.37249C35.0155 9.37249 35.0141 9.37249 35.0134 9.37249C34.2259 9.37249 33.5654 9.03412 33.0348 8.76164C32.3306 8.40088 31.6211 8.06443 30.9108 7.72734C30.6728 7.61413 30.4333 7.50155 30.1952 7.38706C30.9983 8.49619 31.5679 9.74924 31.8659 11.0758C32.075 12.0078 31.997 12.6909 31.6271 13.1649C31.1509 13.7757 30.2746 13.9197 29.5644 13.976C29.0351 14.0182 28.5273 14.0879 28.0034 14.1563C28.4069 14.3444 28.7983 14.5721 29.1387 14.8695C29.7951 15.4426 30.3096 16.4405 29.9794 17.3763C29.5704 18.5327 28.2031 18.9818 27.01 19.5178C26.3153 19.8299 25.6427 20.1318 24.9433 20.387C25.8156 20.5175 26.6966 20.7344 27.4882 21.168C28.8205 21.8972 29.5482 23.023 29.483 24.2556C29.4366 25.1434 28.9732 25.9781 28.1897 26.6433C28.4217 26.628 28.6544 26.6273 28.8885 26.6459C30.3506 26.7617 30.9694 27.4992 31.231 28.0979C31.9547 29.7539 30.9075 32.4589 29.8314 34.1699L33.0119 32.7026C34.6287 31.9561 35.8985 31.9715 36.6027 32.7084C37.0479 33.1747 37.2362 33.8834 37.1481 34.759C37.1132 35.1057 37.0331 35.4869 36.9679 35.8298C37.3613 35.343 37.8153 34.8818 38.3796 34.5384C38.9196 34.207 39.5552 34.0254 40.1686 34.0254Z" fill="white"/>
<path d="M50.3963 31.879L49.6464 31.1658C49.5804 31.1031 49.5804 31.002 49.6464 30.9393C49.7123 30.8767 49.8185 30.8767 49.8844 30.9393L50.6343 31.6525C50.7003 31.7152 50.7003 31.8163 50.6343 31.879C50.5684 31.941 50.4622 31.941 50.3963 31.879Z" fill="white"/>
<path d="M51.2369 31.297L50.5065 30.603C50.4406 30.5404 50.4406 30.4393 50.5065 30.3766C50.5724 30.3139 50.6786 30.3139 50.7445 30.3766L51.4749 31.0706C51.5409 31.1333 51.5409 31.2344 51.4749 31.297C51.409 31.3591 51.3028 31.3591 51.2369 31.297Z" fill="white"/>
<path d="M52.0931 30.6289L51.2591 29.8358C51.1932 29.7731 51.1932 29.672 51.2591 29.61C51.3251 29.5473 51.4313 29.5473 51.4972 29.61L52.3312 30.4032C52.3971 30.4658 52.3971 30.5669 52.3312 30.6296C52.2653 30.6916 52.159 30.6916 52.0931 30.6289Z" fill="white"/>
<path d="M53.1147 29.9132L52.2269 29.0689C52.161 29.0062 52.161 28.9051 52.2269 28.8424C52.2928 28.7797 52.3991 28.7797 52.465 28.8424L53.3528 29.6867C53.4187 29.7494 53.4187 29.8505 53.3528 29.9132C53.2869 29.9752 53.1806 29.9752 53.1147 29.9132Z" fill="white"/>
<path d="M54.3379 28.827L53.4098 27.9443C53.3439 27.8817 53.3439 27.7806 53.4098 27.7179C53.4757 27.6552 53.582 27.6552 53.6479 27.7179L54.576 28.6006C54.6419 28.6633 54.6419 28.7644 54.576 28.827C54.5101 28.8891 54.4038 28.8891 54.3379 28.827Z" fill="white"/>
<path d="M54.8149 27.7466L54.0011 26.9727C53.9352 26.91 53.9352 26.8089 54.0011 26.7462C54.067 26.6835 54.1733 26.6835 54.2392 26.7462L55.053 27.5202C55.1189 27.5829 55.1189 27.6839 55.053 27.7466C54.9871 27.8087 54.8808 27.8087 54.8149 27.7466Z" fill="white"/>
<path d="M55.4544 26.7187L54.6998 26.001C54.6339 25.9383 54.6339 25.8372 54.6998 25.7746C54.7657 25.7119 54.872 25.7119 54.9379 25.7746L55.6925 26.4922C55.7584 26.5549 55.7584 26.656 55.6925 26.7187C55.6266 26.7813 55.5203 26.7813 55.4544 26.7187Z" fill="white"/>
<path d="M55.8297 25.4899L55.1847 24.8765C55.1188 24.8138 55.1188 24.7127 55.1847 24.65C55.2506 24.5874 55.3569 24.5874 55.4228 24.65L56.0678 25.2635C56.1337 25.3261 56.1337 25.4272 56.0678 25.4899C56.0012 25.5519 55.8949 25.5519 55.8297 25.4899Z" fill="white"/>
<path d="M56.2683 24.3732L55.6146 23.7515C55.5487 23.6888 55.5487 23.5877 55.6146 23.525C55.6805 23.4624 55.7868 23.4624 55.8527 23.525L56.5064 24.1468C56.5723 24.2095 56.5723 24.3105 56.5064 24.3732C56.4405 24.4359 56.3343 24.4359 56.2683 24.3732Z" fill="white"/>
<path d="M56.8097 23.0473L56.0443 22.3193C55.9784 22.2567 55.9784 22.1556 56.0443 22.0929C56.1102 22.0302 56.2165 22.0302 56.2824 22.0929L57.0478 22.8208C57.1137 22.8835 57.1137 22.9846 57.0478 23.0473C56.9812 23.1099 56.8749 23.1099 56.8097 23.0473Z" fill="white"/>
<path d="M56.8541 21.4544L56.2589 20.8883C56.193 20.8256 56.193 20.7245 56.2589 20.6625C56.3248 20.5998 56.4311 20.5998 56.497 20.6625L57.0922 21.2286C57.1581 21.2913 57.1581 21.3923 57.0922 21.4544C57.0263 21.517 56.92 21.517 56.8541 21.4544Z" fill="white"/>
<path d="M57.0439 19.4865L56.3673 18.843C56.3014 18.7803 56.3014 18.6793 56.3673 18.6166C56.4332 18.5539 56.5395 18.5539 56.6054 18.6166L57.282 19.2601C57.3479 19.3228 57.3479 19.4238 57.282 19.4859C57.2161 19.5492 57.1098 19.5492 57.0439 19.4865Z" fill="white"/>
<path d="M56.6093 18.4086L55.8829 17.7178C55.817 17.6551 55.817 17.554 55.8829 17.4913C55.9488 17.4287 56.0551 17.4287 56.121 17.4913L56.8474 18.1822C56.9133 18.2448 56.9133 18.3459 56.8474 18.4086C56.7815 18.4713 56.6752 18.4713 56.6093 18.4086Z" fill="white"/>
<path d="M56.3208 17.0602L55.507 16.2868C55.3509 16.1385 55.587 15.9107 55.7451 16.0604L56.5588 16.8337C56.6248 16.8964 56.6248 16.9975 56.5588 17.0602C56.4923 17.1229 56.386 17.1229 56.3208 17.0602Z" fill="white"/>
<path d="M55.1841 15.5488L55.9145 14.8541C55.9804 14.7915 56.0867 14.7915 56.1526 14.8541C56.2185 14.9168 56.2185 15.0179 56.1526 15.0806L55.4222 15.7746C55.2655 15.9236 55.0267 15.6991 55.1841 15.5488Z" fill="white"/>
<path d="M54.7005 14.5266L55.1437 14.1051C55.2096 14.0424 55.3159 14.0424 55.3818 14.1051C55.4477 14.1678 55.4477 14.2689 55.3818 14.3316L54.9386 14.7531C54.7819 14.9015 54.5424 14.6763 54.7005 14.5266Z" fill="white"/>
<path d="M53.9479 13.6785C53.882 13.6158 53.882 13.5148 53.9479 13.4521L54.3776 13.0434C54.4435 12.9807 54.5498 12.9807 54.6157 13.0434C54.6816 13.106 54.6816 13.2071 54.6157 13.2691L54.186 13.6779C54.12 13.7412 54.0131 13.7412 53.9479 13.6785Z" fill="white"/>
<path d="M53.4098 12.7591C53.3439 12.6964 53.3439 12.5953 53.4098 12.5327L53.8678 12.0971C53.9337 12.0344 54.04 12.0344 54.1059 12.0971C54.1718 12.1597 54.1718 12.2608 54.1059 12.3235L53.6479 12.7591C53.582 12.8218 53.4757 12.8218 53.4098 12.7591Z" fill="white"/>
<path d="M52.3883 11.685C52.3224 11.6223 52.3224 11.5212 52.3883 11.4592L52.9364 10.9379C53.0023 10.8752 53.1086 10.8752 53.1745 10.9379C53.2404 11.0006 53.2404 11.1016 53.1745 11.1643L52.6264 11.6856C52.5605 11.7477 52.4542 11.7477 52.3883 11.685Z" fill="white"/>
<path d="M51.4203 10.9177C51.3544 10.855 51.3544 10.754 51.4203 10.6913L51.8965 10.2384C51.9624 10.1757 52.0686 10.1757 52.1345 10.2384C52.2004 10.3011 52.2004 10.4022 52.1345 10.4649L51.6584 10.9177C51.5925 10.9804 51.4862 10.9804 51.4203 10.9177Z" fill="white"/>
<path d="M50.2382 10.0485C50.1722 9.98583 50.1722 9.88477 50.2382 9.82209L50.8616 9.22914C50.9275 9.16646 51.0338 9.16646 51.0997 9.22914C51.1656 9.29183 51.1656 9.39289 51.0997 9.45557L50.4762 10.0485C50.4103 10.1112 50.3041 10.1112 50.2382 10.0485Z" fill="white"/>
<path d="M48.8404 9.63994C48.7745 9.57725 48.7745 9.47619 48.8404 9.41351L49.4854 8.79945C49.5513 8.73677 49.6576 8.73677 49.7235 8.79945C49.7894 8.86214 49.7894 8.9632 49.7235 9.02589L49.0785 9.63994C49.0126 9.70262 48.9064 9.70262 48.8404 9.63994Z" fill="white"/>
<path d="M47.3353 8.82208C47.2694 8.7594 47.2694 8.65834 47.3353 8.59629L48.1727 7.79994C48.2386 7.73726 48.3448 7.73726 48.4107 7.79994C48.4766 7.86263 48.4766 7.96369 48.4107 8.02637L47.5734 8.82272C47.5075 8.88413 47.4006 8.88413 47.3353 8.82208Z" fill="white"/>
<path d="M46.0446 8.56589C45.9786 8.5032 45.9786 8.40214 46.0446 8.33945L46.8819 7.54311C46.9478 7.48042 47.0541 7.48042 47.12 7.54311C47.1859 7.60579 47.1859 7.70685 47.12 7.76954L46.2826 8.56589C46.2167 8.62857 46.1105 8.62857 46.0446 8.56589Z" fill="white"/>
<path d="M44.6471 8.41234C44.5812 8.34966 44.5812 8.2486 44.6471 8.18655L45.3735 7.49574C45.4394 7.43306 45.5456 7.43306 45.6115 7.49574C45.6774 7.55843 45.6774 7.65949 45.6115 7.72154L44.8852 8.41234C44.8186 8.47503 44.7123 8.47503 44.6471 8.41234Z" fill="white"/>
<path d="M43.1951 8.34041L43.8939 7.67519C43.9598 7.6125 44.0661 7.6125 44.132 7.67519C44.1979 7.73787 44.1979 7.83893 44.132 7.90098L43.4332 8.5662C43.2765 8.71524 43.0377 8.49008 43.1951 8.34041Z" fill="white"/>
<path d="M41.7976 8.34011L42.7116 7.47084C42.7776 7.40816 42.8838 7.40816 42.9497 7.47084C43.0156 7.53353 43.0156 7.63459 42.9497 7.69727L42.0357 8.56654C41.879 8.71493 41.6403 8.48978 41.7976 8.34011Z" fill="white"/>
<path d="M40.3461 8.82172C40.2802 8.75903 40.2802 8.65797 40.3461 8.59593L41.3152 7.67421C41.3811 7.61153 41.4874 7.61153 41.5533 7.67421C41.6192 7.73689 41.6192 7.83796 41.5533 7.90064L40.5841 8.82236C40.5182 8.88376 40.412 8.88376 40.3461 8.82172Z" fill="white"/>
<path d="M38.0825 9.05859C37.9984 9.02149 37.9614 8.92619 38.0004 8.84623C38.0401 8.76628 38.1396 8.7311 38.2237 8.7682L38.8155 9.02853L39.4935 8.38442C39.5594 8.32173 39.6657 8.32173 39.7316 8.38442C39.7975 8.4471 39.7975 8.54816 39.7316 8.61085C38.71 9.58118 39.1088 9.5089 38.0825 9.05859Z" fill="white"/>
<path d="M37.2551 10.1771L36.6363 9.58863C36.5704 9.52595 36.5704 9.42488 36.6363 9.3622C36.7023 9.29951 36.8085 9.29951 36.8744 9.3622L37.4932 9.95067C37.5591 10.0133 37.5591 10.1144 37.4932 10.1771C37.4273 10.2391 37.321 10.2391 37.2551 10.1771Z" fill="white"/>
<path d="M35.7506 10.9954L35.2926 10.5598C35.2267 10.4971 35.2267 10.3961 35.2926 10.3334C35.3585 10.2707 35.4648 10.2707 35.53 10.3334L35.988 10.769C36.0539 10.8317 36.0539 10.9327 35.988 10.9948C35.9221 11.0581 35.8158 11.0581 35.7506 10.9954Z" fill="white"/>
<path d="M34.5729 11.9714L34.0026 11.429C33.9366 11.3663 33.9366 11.2652 34.0026 11.2025C34.0685 11.1398 34.1747 11.1398 34.2406 11.2025L34.811 11.7449C34.9697 11.8972 34.7269 12.1179 34.5729 11.9714Z" fill="white"/>
<path d="M33.4136 13.2732L32.9266 12.8101C32.8607 12.7474 32.8607 12.6463 32.9266 12.5836C32.9925 12.5209 33.0988 12.5209 33.1647 12.5836L33.6516 13.0467C33.7176 13.1094 33.7176 13.2105 33.6516 13.2732C33.5857 13.3352 33.4795 13.3352 33.4136 13.2732Z" fill="white"/>
<path d="M32.5283 14.9868L31.7447 14.241C31.6788 14.1783 31.6788 14.0772 31.7447 14.0145C31.8107 13.9519 31.9169 13.9519 31.9828 14.0145L32.7664 14.7604C32.8323 14.823 32.8323 14.9241 32.7664 14.9868C32.6998 15.0495 32.5935 15.0495 32.5283 14.9868Z" fill="white"/>
<path d="M32.0152 15.9814L31.2606 15.2637C31.1947 15.201 31.1947 15.0999 31.2606 15.0372C31.3265 14.9746 31.4328 14.9746 31.4987 15.0372L32.2533 15.7549C32.3192 15.8176 32.3192 15.9187 32.2533 15.9814C32.1874 16.044 32.0811 16.044 32.0152 15.9814Z" fill="white"/>
<path d="M31.5377 17.0097L30.8302 16.3374C30.7643 16.2747 30.7643 16.1737 30.8302 16.111C30.8961 16.0483 31.0024 16.0483 31.0683 16.111L31.7758 16.7832C31.8417 16.8459 31.8417 16.947 31.7758 17.0097C31.7099 17.0724 31.6036 17.0724 31.5377 17.0097Z" fill="white"/>
<path d="M30.9653 18.2561L30.1852 17.5142C30.1193 17.4515 30.1193 17.3504 30.1852 17.2877C30.2511 17.2251 30.3573 17.2251 30.4233 17.2877L31.2034 18.0297C31.2693 18.0924 31.2693 18.1935 31.2034 18.2561C31.1375 18.3182 31.0306 18.3182 30.9653 18.2561Z" fill="white"/>
<path d="M30.5888 19.9938L29.8624 19.303C29.7965 19.2403 29.7965 19.1392 29.8624 19.0766C29.9283 19.0139 30.0346 19.0139 30.0998 19.0766L30.8262 19.7674C30.8921 19.83 30.8921 19.9311 30.8262 19.9932C30.761 20.0565 30.6547 20.0565 30.5888 19.9938Z" fill="white"/>
<path d="M30.6774 21.7142L29.9706 21.0413C29.9047 20.9786 29.9047 20.8775 29.9706 20.8148C30.0365 20.7522 30.1427 20.7522 30.2087 20.8148L30.9155 21.4877C30.9814 21.5504 30.9814 21.6515 30.9155 21.7135C30.8489 21.7769 30.7427 21.7769 30.6774 21.7142Z" fill="white"/>
<path d="M30.6962 23.4198L29.9698 22.729C29.9039 22.6663 29.9039 22.5653 29.9698 22.5026C30.0358 22.4399 30.142 22.4399 30.2079 22.5026L30.9343 23.1934C31.0002 23.2561 31.0002 23.3571 30.9343 23.4198C30.8684 23.4825 30.7621 23.4825 30.6962 23.4198Z" fill="white"/>
<path d="M30.9123 24.9544L30.5619 24.6211C30.496 24.5584 30.496 24.4574 30.5619 24.3947C30.6278 24.332 30.7341 24.332 30.8 24.3947C30.9795 24.5655 31.3199 24.7925 31.1504 24.9544C31.0845 25.0164 30.9775 25.0164 30.9123 24.9544Z" fill="white"/>
<path d="M31.4973 26.635L30.8839 26.0523C30.818 25.9896 30.818 25.8885 30.8839 25.8258C30.9498 25.7631 31.0561 25.7631 31.1213 25.8258L31.7347 26.4085C31.8006 26.4712 31.8006 26.5723 31.7347 26.635C31.6695 26.6976 31.5625 26.6976 31.4973 26.635Z" fill="white"/>
<path d="M31.3683 27.7394C31.3024 27.6767 31.3024 27.5757 31.3683 27.513L32.0946 26.8222C32.1606 26.7595 32.2668 26.7595 32.3327 26.8222C32.3986 26.8848 32.3986 26.9859 32.3327 27.0486L31.6064 27.7394C31.5405 27.8014 31.4342 27.8014 31.3683 27.7394Z" fill="white"/>
<path d="M32.067 28.6602C32.0011 28.5976 32.0011 28.4965 32.067 28.4338L32.6044 27.9227C32.6703 27.8601 32.7766 27.8601 32.8425 27.9227C32.9084 27.9854 32.9084 28.0865 32.8425 28.1492L32.3051 28.6602C32.2392 28.7223 32.1329 28.7223 32.067 28.6602Z" fill="white"/>
<path d="M33.0464 29.6272C33.0034 29.6272 32.9603 29.6119 32.9274 29.5805C32.8615 29.5178 32.8615 29.4168 32.9274 29.3541L33.3914 28.9127C33.4573 28.8501 33.5636 28.8501 33.6295 28.9127C33.6954 28.9754 33.6954 29.0765 33.6295 29.1392L33.1654 29.5805C33.1325 29.6119 33.0894 29.6272 33.0464 29.6272Z" fill="white"/>
<path d="M33.3568 30.705C33.2909 30.6423 33.2909 30.5413 33.3568 30.4786L33.9218 29.9413C33.9877 29.8786 34.0939 29.8786 34.1598 29.9413C34.2257 30.004 34.2257 30.105 34.1598 30.1677L33.5949 30.705C33.529 30.7677 33.4227 30.7677 33.3568 30.705Z" fill="white"/>
<path d="M34.5399 31.1145C34.474 31.0518 34.474 30.9508 34.5399 30.8881L35.2414 30.2216C35.3073 30.1589 35.4136 30.1589 35.4788 30.2216C35.5447 30.2843 35.5447 30.3853 35.4788 30.448L34.778 31.1145C34.7121 31.1766 34.6051 31.1766 34.5399 31.1145Z" fill="white"/>
<path d="M35.2389 31.5231C35.173 31.4605 35.173 31.3594 35.2389 31.2967L35.8038 30.7594C35.8697 30.6967 35.976 30.6967 36.0419 30.7594C36.1078 30.8221 36.1078 30.9232 36.0419 30.9858L35.477 31.5231C35.4111 31.5858 35.3041 31.5858 35.2389 31.5231Z" fill="white"/>
<path d="M36.5289 32.1365C36.463 32.0738 36.463 31.9727 36.5289 31.9101L37.3199 31.1579C37.3858 31.0952 37.492 31.0952 37.5579 31.1579C37.6238 31.2205 37.6238 31.3216 37.5579 31.3843L36.767 32.1365C36.7011 32.1992 36.5948 32.1992 36.5289 32.1365Z" fill="white"/>
<path d="M37.5504 32.6483C37.4845 32.5856 37.4845 32.4846 37.5504 32.4219L38.1443 31.8571C38.2102 31.7944 38.3164 31.7944 38.3817 31.8571C38.4476 31.9198 38.4476 32.0208 38.3817 32.0835L37.7878 32.6483C37.7226 32.7103 37.6163 32.7103 37.5504 32.6483Z" fill="white"/>
<path d="M38.5718 32.729L39.2013 32.1303C39.2672 32.0676 39.3735 32.0676 39.4394 32.1303C39.5053 32.1929 39.5053 32.294 39.4394 32.3567L38.8099 32.9554C38.6532 33.1038 38.4144 32.8786 38.5718 32.729Z" fill="white"/>
<path d="M39.755 33.2101C39.6891 33.1474 39.6891 33.0464 39.755 32.9837L40.5708 32.2072C40.6367 32.1445 40.743 32.1445 40.8089 32.2072C40.8748 32.2699 40.8748 32.3709 40.8089 32.4336L39.9931 33.2101C39.9272 33.2728 39.8202 33.2728 39.755 33.2101Z" fill="white"/>
<path d="M41.1527 33.4657C41.0868 33.4031 41.0868 33.302 41.1527 33.2393L41.7479 32.6732C41.8138 32.6105 41.9201 32.6105 41.986 32.6732C42.0519 32.7359 42.0519 32.837 41.986 32.8997L41.3908 33.4657C41.3249 33.5284 41.2179 33.5284 41.1527 33.4657Z" fill="white"/>
<path d="M42.8728 33.3422L43.5454 32.7025C43.6113 32.6398 43.7176 32.6398 43.7835 32.7025C43.8494 32.7652 43.8494 32.8663 43.7835 32.929L43.1109 33.5686C42.9542 33.717 42.7155 33.4918 42.8728 33.3422Z" fill="white"/>
<path d="M44.7548 33.4149C44.6888 33.3522 44.6888 33.2512 44.7548 33.1885L45.6936 32.2955C45.7596 32.2329 45.8658 32.2329 45.9317 32.2955C45.9976 32.3582 45.9976 32.4593 45.9317 32.522L44.9928 33.4149C44.9269 33.4776 44.82 33.4776 44.7548 33.4149Z" fill="white"/>
<path d="M46.7972 32.9544C46.7313 32.8917 46.7313 32.7906 46.7972 32.7279L47.498 32.0614C47.5639 31.9987 47.6702 31.9987 47.7361 32.0614C47.802 32.1241 47.802 32.2252 47.7361 32.2878L47.0353 32.9544C46.9694 33.017 46.8631 33.017 46.7972 32.9544Z" fill="white"/>
<path d="M48.8404 32.1877C48.7745 32.125 48.7745 32.024 48.8404 31.9613L49.2702 31.5519C49.3361 31.4892 49.4424 31.4892 49.5083 31.5519C49.5742 31.6146 49.5742 31.7156 49.5083 31.7783L49.0785 32.1877C49.0126 32.2504 48.9064 32.2504 48.8404 32.1877Z" fill="white"/>
<path d="M33.4638 18.7727C33.4497 18.7727 33.4349 18.7708 33.4201 18.767C33.3307 18.7439 33.2775 18.6557 33.3018 18.5706C34.1754 15.5182 36.4924 12.89 39.5 11.5391C42.5084 10.1888 46.1146 10.1574 49.1479 11.4553C49.2326 11.4917 49.2703 11.5864 49.2319 11.667C49.1936 11.7482 49.0927 11.7834 49.0093 11.7469C46.0649 10.4869 42.5635 10.5169 39.6433 11.8282C36.723 13.1394 34.4733 15.6909 33.6253 18.6537C33.6057 18.726 33.5385 18.7727 33.4638 18.7727Z" fill="white"/>
<path d="M34.3573 17.413L33.4722 17.1923C33.3827 17.1699 33.3289 17.0829 33.3525 16.9972C33.376 16.9121 33.4661 16.859 33.5576 16.8834L34.442 17.104C34.5321 17.1264 34.5859 17.2134 34.5624 17.2991C34.5382 17.3868 34.4427 17.436 34.3573 17.413Z" fill="white"/>
<path d="M34.8264 16.4161L34.1646 15.9889C34.0879 15.939 34.0677 15.8398 34.1195 15.7669C34.1727 15.694 34.2769 15.6754 34.3529 15.7241L35.0147 16.1507C35.0914 16.2006 35.1116 16.2997 35.0598 16.3726C35.0073 16.4462 34.9037 16.466 34.8264 16.4161Z" fill="white"/>
<path d="M35.9489 15.0007L35.2428 14.5433C35.1661 14.4934 35.1466 14.3943 35.1984 14.3214C35.2515 14.2478 35.3557 14.2299 35.4317 14.2791L36.1379 14.7365C36.2146 14.7864 36.2341 14.8855 36.1823 14.9584C36.1312 15.0307 36.0263 15.0512 35.9489 15.0007Z" fill="white"/>
<path d="M36.7858 14.0867L36.0271 13.4944C35.9558 13.4387 35.9451 13.3377 36.0036 13.2692C36.0621 13.2014 36.1677 13.1912 36.2403 13.2468L36.999 13.8391C37.0702 13.8954 37.081 13.9959 37.0225 14.0643C36.9633 14.1327 36.857 14.1423 36.7858 14.0867Z" fill="white"/>
<path d="M37.7091 13.2179L37.1018 12.4145C37.0473 12.3429 37.0648 12.2424 37.1401 12.1913C37.2148 12.1394 37.3211 12.1554 37.3749 12.2277L37.9822 13.0311C38.0367 13.1027 38.0192 13.2025 37.9439 13.2543C37.8699 13.3049 37.765 13.2908 37.7091 13.2179Z" fill="white"/>
<path d="M38.8828 12.6039L38.2741 11.7084C38.2237 11.6342 38.2458 11.535 38.3239 11.487C38.4012 11.4404 38.5061 11.4602 38.5566 11.5344L39.1652 12.4299C39.2157 12.5041 39.1928 12.6032 39.1155 12.6512C39.0381 12.6992 38.9339 12.6787 38.8828 12.6039Z" fill="white"/>
<path d="M40.6052 11.9332C40.3443 11.6306 40.2004 11.2328 40.2105 10.8407C40.2125 10.7524 40.306 10.6827 40.3826 10.6846C40.4754 10.6865 40.5488 10.7601 40.5467 10.8484C40.538 11.1643 40.6543 11.4861 40.8649 11.7298C40.9234 11.7982 40.9133 11.8986 40.8413 11.9549C40.772 12.0106 40.6658 12.0023 40.6052 11.9332Z" fill="white"/>
<path d="M41.8411 11.6739C41.6609 11.3049 41.5472 10.9128 41.5028 10.5079C41.4934 10.4202 41.5607 10.3416 41.6528 10.3326C41.745 10.3198 41.8277 10.3876 41.8371 10.4752C41.8774 10.845 41.981 11.2032 42.1451 11.5402C42.1841 11.6202 42.1478 11.7149 42.0637 11.7526C41.9824 11.7884 41.8808 11.7552 41.8411 11.6739Z" fill="white"/>
<path d="M43.3725 11.2954L43.2084 10.3794C43.193 10.2924 43.2548 10.2099 43.3463 10.1946C43.4371 10.1811 43.5245 10.2387 43.54 10.3257L43.7041 11.2417C43.7196 11.3286 43.6584 11.4112 43.5662 11.4265C43.4768 11.4406 43.388 11.3837 43.3725 11.2954Z" fill="white"/>
<path d="M45.186 11.4273C45.1833 11.4273 45.1813 11.4273 45.1786 11.4273C45.0858 11.4234 45.0138 11.3486 45.0185 11.2603L45.0649 10.299C45.069 10.2107 45.145 10.1397 45.2405 10.1467C45.3333 10.1506 45.4052 10.2254 45.4005 10.3137L45.3541 11.2744C45.3501 11.3608 45.2754 11.4273 45.186 11.4273Z" fill="white"/>
<path d="M46.7341 11.5208C46.7301 11.5208 46.7254 11.5208 46.7207 11.5208C46.6285 11.5138 46.5586 11.437 46.566 11.3494L46.6305 10.53C46.6373 10.4417 46.7112 10.3726 46.8108 10.3822C46.9029 10.3893 46.9729 10.466 46.9655 10.5543L46.9009 11.3737C46.8942 11.4568 46.8209 11.5208 46.7341 11.5208Z" fill="white"/>
<path d="M47.8162 11.8441C47.7395 11.7942 47.7194 11.6951 47.7711 11.6222C47.9218 11.4104 48.0005 11.1533 47.9917 10.8974C47.9891 10.8092 48.0617 10.735 48.1545 10.7324C48.2588 10.735 48.3247 10.7989 48.328 10.8872C48.3388 11.2102 48.2399 11.5352 48.0496 11.8019C47.9971 11.8742 47.8936 11.8934 47.8162 11.8441Z" fill="white"/>
</mask>
<g mask="url(#mask0)">
<rect x="11.8" y="-2.66284" width="56.9333" height="18.6406" fill="white"/>
<rect x="41.6665" y="15.9778" width="27.0667" height="33.7307" fill="white"/>
</g>
</svg>
