<svg width="100" height="100" viewBox="0 0 100 100" fill="none" xmlns="http://www.w3.org/2000/svg">
<g clip-path="url(#clip0)">
<path d="M70.7035 59.9227C67.6574 59.9227 64.5854 59.3529 61.65 58.1738C60.9041 57.8735 61.346 56.7289 62.1091 57.0316C70.2998 60.3215 79.6143 58.6193 86.0758 52.8569C80.7589 54.3362 74.7565 53.6273 69.538 50.8187C63.7238 47.6876 59.4161 41.6999 58.2961 35.1929C57.2365 29.0304 58.8229 22.3055 62.3651 17.5559C55.7497 19.2236 50.1706 24.8359 48.4894 31.7184C48.018 33.6519 47.8469 35.6766 47.9798 37.7369C48.002 38.0753 47.7448 38.3682 47.4051 38.3904C47.0961 38.4015 46.7737 38.1566 46.7515 37.8156C46.61 35.631 46.7921 33.4809 47.2943 31.4255C49.2291 23.5005 56.0352 17.1596 63.842 16.0064C64.0931 15.9695 64.3528 16.095 64.4758 16.3252C64.5977 16.5553 64.5632 16.8359 64.3897 17.0279C60.3208 21.5202 58.4069 28.5676 59.5109 34.9824C60.5669 41.1252 64.6334 46.7781 70.1226 49.7332C75.8801 52.8347 82.6309 53.2347 88.1792 50.8064C88.4426 50.6919 88.7528 50.7744 88.9226 51.0082C89.0925 51.2421 89.0777 51.5621 88.8857 51.7787C84.1989 57.0636 77.5195 59.9227 70.7035 59.9227Z" fill="white"/>
<path d="M44.5719 64.3511C44.4513 63.3739 44.7454 62.3044 45.3953 61.337C45.4076 61.3185 45.4211 61.3013 45.4347 61.2853C46.0476 60.4139 48.3651 58.2047 48.9744 57.8576C49.191 57.7333 49.4581 57.7542 49.6562 57.9044C49.8519 58.057 49.9393 58.3117 49.8741 58.5517C49.7251 59.1068 50.0094 60.3917 50.1621 61.0822L50.2297 61.3714C51.7411 67.8022 45.0814 68.4521 44.5719 64.3511ZM46.3787 62.0816C45.9196 62.7868 45.7116 63.5364 45.7928 64.1997C46.1054 66.7031 50.1067 66.2268 49.031 61.6521L48.9608 61.3493C48.8328 60.7757 48.7171 60.2157 48.6531 59.7025C47.8494 60.4373 46.7996 61.4834 46.4501 61.9807C46.4304 62.0164 46.407 62.0496 46.3787 62.0816Z" fill="white"/>
<path d="M41.5837 62.7312C41.2661 62.7312 40.9966 62.4875 40.972 62.165C40.9449 61.8266 41.1972 61.53 41.5357 61.5016C42.9781 61.386 44.407 61.2321 45.836 61.0672C46.1658 61.0204 46.4784 61.269 46.519 61.6075C46.5572 61.9447 46.316 62.25 45.9787 62.2893C44.535 62.4567 43.0913 62.6106 41.6353 62.7275C41.6169 62.7312 41.5997 62.7312 41.5837 62.7312Z" fill="white"/>
<path d="M48.9522 61.2989C48.9055 60.9616 49.1393 60.6515 49.4766 60.6035C50.8107 60.4164 52.1461 60.217 53.479 60.0176C55.9541 59.6386 61.0926 59.0035 62.647 55.193C63.3719 53.4133 63.0027 51.4047 61.6845 49.9524C60.3664 48.4989 58.4649 47.9647 56.5953 48.5223C56.2655 48.6219 55.927 48.4336 55.8285 48.1087C55.7313 47.7826 55.9159 47.4404 56.2421 47.3432C58.5424 46.6539 60.9744 47.3407 62.5966 49.1253C64.2359 50.9309 64.6925 53.4343 63.7867 55.6583C63.0679 57.4195 61.5036 58.9013 59.3793 59.8306C57.3769 60.7216 55.2907 61.033 49.6476 61.8232C49.319 61.8712 49.0002 61.6423 48.9522 61.2989Z" fill="white"/>
<path d="M33.5343 63.0698C30.4426 63.0698 28.0931 62.836 26.3762 62.3572C21.4297 61.0169 19.5528 57.359 19.9048 54.5295C20.2642 51.6126 22.3873 50.3756 24.0943 50.2033C26.0513 50.0138 27.7226 51.039 28.3011 52.7658C28.4094 53.0883 28.2359 53.4366 27.9146 53.5449C27.5922 53.652 27.2426 53.4796 27.1356 53.1572C26.6494 51.7098 25.25 51.3196 24.2186 51.428C22.962 51.5547 21.3965 52.4827 21.1257 54.6796C20.8377 57.0009 22.4599 60.0212 26.7011 61.1707C28.5276 61.679 31.1639 61.8981 34.738 61.828C35.1282 61.7996 35.3583 62.0926 35.3645 62.4323C35.3706 62.772 35.0999 63.0526 34.7602 63.0587C34.3393 63.0661 33.9306 63.0698 33.5343 63.0698Z" fill="white"/>
<path d="M26.1263 51.6951C26.1226 51.6951 26.1177 51.6951 26.1127 51.6951C25.7743 51.6878 25.5035 51.4071 25.5109 51.0675C25.5934 47.0921 28.7232 43.4182 32.6346 42.7044C36.5558 41.9905 40.7724 44.3228 42.253 48.0102C42.3798 48.3253 42.2272 48.6847 41.9121 48.8102C41.5958 48.9345 41.2389 48.7844 41.1121 48.4693C39.8407 45.3025 36.2186 43.3025 32.8561 43.9142C29.4986 44.5271 26.813 47.6804 26.7417 51.0921C26.7343 51.4281 26.4598 51.6951 26.1263 51.6951Z" fill="white"/>
<path d="M59.0828 48.0311C58.7849 48.0311 58.5215 47.8132 58.476 47.508C58.0243 44.5369 56.2532 41.78 53.7388 40.132C51.2231 38.4852 47.9849 37.9646 45.0865 38.7363C42.1831 39.5092 39.6342 41.5695 38.2705 44.2489C38.1166 44.5529 37.74 44.6686 37.4434 44.5184C37.1406 44.3646 37.0188 43.9929 37.1739 43.6901C38.6926 40.7055 41.5332 38.4089 44.7689 37.5474C48.0046 36.6846 51.612 37.268 54.4132 39.1031C57.2157 40.9394 59.1886 44.0126 59.692 47.3234C59.7437 47.6594 59.5123 47.9732 59.1763 48.0237C59.1455 48.0286 59.1148 48.0311 59.0828 48.0311Z" fill="white"/>
<path d="M19.4298 39.8439C18.7 39.4365 18.1523 38.6771 17.9246 37.7627C17.7523 37.0697 17.7523 36.2894 17.927 35.3774C18.5818 31.9608 21.212 29.0082 24.6261 27.8574C27.8618 26.7658 31.687 27.3405 34.6199 29.3528C35.7793 30.1491 36.5842 31.0094 37.079 31.983C37.7116 33.226 37.7707 34.6316 37.2378 35.743C36.6101 37.0488 35.1491 37.823 33.8285 37.5374C32.3713 37.2236 31.3645 35.546 31.943 34.1602C32.0759 33.8463 32.4378 33.6974 32.7479 33.8291C33.0618 33.9608 33.2095 34.3202 33.0802 34.634C32.8045 35.2937 33.3719 36.1799 34.0882 36.3337C34.8464 36.4974 35.7473 36.0051 36.1276 35.21C36.4968 34.442 36.4427 33.4439 35.9836 32.5405C35.5836 31.7553 34.9104 31.0439 33.9233 30.367C31.3055 28.57 27.8938 28.0556 25.0199 29.023C22.0649 30.0199 19.7006 32.666 19.1369 35.6088C18.9966 36.3423 18.9904 36.9491 19.1197 37.466C19.2649 38.0531 19.5972 38.5282 20.0304 38.7707C21.0963 39.3688 22.0378 38.314 21.5098 37.6839C21.292 37.423 21.3277 37.0353 21.5873 36.8174C21.8446 36.5983 22.2335 36.6328 22.4538 36.895C23.8753 38.5947 21.6686 41.1017 19.4298 39.8439Z" fill="white"/>
<path d="M20.8144 50.2465C17.415 50.2465 13.7978 49.4995 11.3658 46.5407C8.60887 43.1881 10.4809 39.8096 12.967 38.4681C14.551 37.6152 16.5769 37.3739 18.8255 37.7715C19.1615 37.8305 19.383 38.1493 19.3239 38.4841C19.2649 38.8201 18.9412 39.0453 18.6113 38.9825C17.2341 38.7413 15.239 38.6404 13.5516 39.5499C12.0575 40.3573 9.90118 42.8152 12.3159 45.7579C15.8052 50.0016 22.3984 49.0736 26.3393 48.5185C26.6655 48.4681 26.9855 48.7056 27.0335 49.0416C27.0803 49.3776 26.8464 49.689 26.5092 49.737C24.9116 49.9635 22.9043 50.2465 20.8144 50.2465Z" fill="white"/>
<path d="M36.908 34.26C36.7824 34.26 36.6581 34.2231 36.5498 34.1455C36.2729 33.9474 36.2101 33.5634 36.4083 33.2864C37.7117 31.4649 39.7449 30.3068 41.9874 30.1098C44.2372 29.9068 46.4341 30.6981 48.0366 32.2649C48.2791 32.5024 48.284 32.8926 48.0464 33.1351C47.8101 33.3788 47.42 33.3837 47.1763 33.1449C45.8311 31.8292 43.9775 31.1671 42.0944 31.3357C40.2114 31.5006 38.5031 32.4729 37.4077 34.0028C37.2871 34.1714 37.0988 34.26 36.908 34.26Z" fill="white"/>
<path d="M44.385 83.4131C42.1155 83.4131 40.3505 81.4673 40.0613 79.2371C39.8545 77.6224 40.3542 75.8328 41.4705 74.1959C42.4207 72.8002 46.5782 68.8236 47.6121 68.2131C47.825 68.0864 48.097 68.1024 48.2964 68.2525C48.4945 68.4027 48.5831 68.6587 48.5204 68.8999C48.2238 70.0297 48.7395 72.3104 49.1542 74.1442C49.4607 75.4993 49.7019 76.5688 49.6638 77.2297C49.5887 78.4814 49.2441 80.2673 48.0281 81.674C47.0828 82.762 45.7216 83.4131 44.385 83.4131ZM47.2108 70.0876C45.6982 71.407 43.1801 73.8734 42.4871 74.8888C41.5407 76.2759 41.1148 77.7639 41.2835 79.0796C41.4718 80.5405 42.5118 81.8156 43.7561 82.1097C45.4348 82.5036 48.1893 81.2408 48.4355 77.1559C48.4638 76.6697 48.2164 75.5744 47.953 74.415C47.6268 72.9713 47.2699 71.3922 47.2108 70.0876Z" fill="white"/>
<path d="M35.5799 74.5134C33.4507 74.0088 31.751 71.9768 31.4433 69.5707C31.1257 67.071 32.1104 64.4642 34.2925 62.0322C36.1596 59.9756 39.7042 56.6119 40.7774 55.9854C40.9916 55.8587 41.2611 55.8759 41.4593 56.026C41.6574 56.1762 41.746 56.431 41.6833 56.671C41.3682 57.882 41.7879 60.1467 42.1891 61.9842C42.2494 62.2624 42.322 62.5602 42.3984 62.8777C43.0113 65.4144 43.9368 69.247 41.1073 72.5196C39.7251 74.1184 37.5577 74.975 35.5799 74.5134ZM40.3393 57.866C38.9214 59.0784 36.6334 61.2814 35.2045 62.8568C33.8568 64.3596 32.3208 66.7202 32.6642 69.4156C33.4937 75.8956 44.0304 74.8839 41.2008 63.1682C41.1208 62.8408 41.047 62.5319 40.9842 62.2464C40.6494 60.7103 40.3553 59.1571 40.3393 57.866Z" fill="white"/>
<path d="M73.3303 35.4552C72.0848 35.4552 70.6891 33.2853 69.9494 31.9549C68.5377 32.4496 65.7069 33.3567 64.9032 32.1407C64.1574 31.0121 65.7758 28.9309 67.0497 27.5684C65.9014 26.0976 64.4761 23.881 65.3192 22.825C65.5777 22.5001 65.9912 22.3351 66.5488 22.3351C67.7106 22.3351 69.4657 23.0638 70.3285 23.4576C71.0928 22.3388 72.6718 20.2675 73.8965 20.2675C74.0392 20.2675 74.1771 20.2921 74.3063 20.3401C75.5715 20.8151 75.4866 23.449 75.2565 25.3013C77.0485 25.817 79.5063 26.7721 79.4448 28.1222C79.3845 29.4712 76.854 30.2047 75.0214 30.5579C75.0854 32.4225 74.9365 35.0539 73.6343 35.4145C73.5358 35.4404 73.4337 35.4552 73.3303 35.4552ZM70.2374 30.5776C70.4614 30.5776 70.6731 30.6995 70.7826 30.9087C71.6663 32.5998 72.8626 34.1629 73.3143 34.2232C73.654 33.9622 73.8805 31.9967 73.7697 30.0841C73.7512 29.7715 73.9715 29.4945 74.2817 29.4416C76.1832 29.1204 78.0614 28.4545 78.2214 28.0434C78.0958 27.6668 76.2854 26.8361 74.4183 26.3475C74.1155 26.2675 73.9198 25.9721 73.9666 25.6619C74.2485 23.753 74.1955 21.7616 73.8534 21.4822C73.4472 21.4982 72.0971 22.9641 71.0645 24.5739C70.8946 24.8385 70.5537 24.9321 70.2718 24.793C69.5838 24.4521 67.5765 23.5659 66.5475 23.5659C66.3309 23.5659 66.2645 23.6078 66.2645 23.6078C66.1426 23.9881 67.1198 25.7247 68.342 27.2164C68.5414 27.4588 68.5241 27.8133 68.3063 28.0373C66.966 29.4047 65.8448 31.0342 65.9371 31.4749C65.9605 31.4712 66.0749 31.5204 66.3826 31.5204C67.4718 31.5204 69.3721 30.8718 70.0121 30.6219C70.0872 30.5912 70.1623 30.5776 70.2374 30.5776Z" fill="white"/>
<path d="M83.3782 40.6711C82.6348 40.6711 81.8926 39.7074 81.3363 38.7412C80.8231 38.9111 80.0329 39.1351 79.436 39.1351C78.9351 39.1351 78.5769 38.9775 78.3739 38.6698C77.9813 38.0741 78.3493 37.1486 79.4668 35.9129C78.4625 34.5824 78.1782 33.6261 78.6237 33.0686C78.7603 32.8963 79.0286 32.6908 79.5283 32.6908C80.1523 32.6908 81.0323 33.0243 81.5813 33.2606C82.1388 32.4692 82.9646 31.5166 83.7019 31.5166C83.7757 31.5166 83.9579 31.5486 84.0268 31.5744C84.6951 31.8255 84.9425 32.7904 84.7653 34.4483C86.3591 34.9332 87.1505 35.54 87.1197 36.2526C87.0877 36.9664 86.2446 37.4994 84.6139 37.8415C84.6434 39.508 84.3123 40.4471 83.6243 40.6378C83.5689 40.6526 83.4323 40.6711 83.3782 40.6711ZM81.6231 37.3701C81.8459 37.3701 82.0588 37.492 82.1683 37.7012C82.5056 38.3486 82.9597 39.0058 83.2526 39.3C83.3536 38.8963 83.404 38.1 83.3622 37.3714C83.3437 37.0588 83.564 36.7806 83.8742 36.7289C84.5942 36.6071 85.3597 36.3794 85.7314 36.1911C85.3782 35.9708 84.636 35.6766 83.9296 35.492C83.6268 35.412 83.4311 35.1166 83.4766 34.8064C83.5837 34.084 83.6034 33.2852 83.5394 32.8754C83.2206 33.1424 82.7111 33.7578 82.3173 34.372C82.1474 34.6354 81.8065 34.7289 81.5246 34.5911C81.0631 34.3609 80.2225 34.0138 79.708 33.9375C79.8643 34.324 80.2914 34.996 80.7529 35.5597C80.9511 35.8021 80.9351 36.1554 80.7173 36.3806C80.2077 36.9012 79.7228 37.5326 79.5333 37.9031C80.1203 37.8686 81.068 37.5437 81.4003 37.4144C81.4729 37.3837 81.548 37.3701 81.6231 37.3701Z" fill="white"/>
<path d="M51.6588 61.0388L50.348 59.7281C50.2274 59.6074 50.2274 59.413 50.348 59.2924C50.4686 59.1718 50.6631 59.1718 50.7825 59.2924L52.0933 60.6031C52.2139 60.7238 52.2139 60.9182 52.0933 61.0388C51.9751 61.1582 51.7794 61.1594 51.6588 61.0388Z" fill="white"/>
<path d="M53.442 60.8235L51.9823 59.365C51.8617 59.2444 51.8617 59.0499 51.9823 58.9293C52.1029 58.8087 52.2974 58.8087 52.418 58.9293L53.8777 60.3878C53.9983 60.5084 53.9983 60.7029 53.8777 60.8222C53.7558 60.9453 53.5614 60.9416 53.442 60.8235Z" fill="white"/>
<path d="M55.506 60.0408L53.7399 58.2747C53.6193 58.1541 53.6193 57.9596 53.7399 57.839C53.8605 57.7184 54.055 57.7184 54.1756 57.839L55.9405 59.6051C56.0611 59.7258 56.0611 59.9202 55.9405 60.0396C55.8223 60.159 55.6279 60.1627 55.506 60.0408Z" fill="white"/>
<path d="M57.9813 59.1841L56.1647 57.365C56.0441 57.2444 56.0441 57.0499 56.1647 56.9293C56.2865 56.8075 56.481 56.8099 56.6004 56.9293L58.4182 58.7484C58.5388 58.869 58.5388 59.0635 58.4182 59.1841C58.2976 59.3023 58.1031 59.3059 57.9813 59.1841Z" fill="white"/>
<path d="M59.9185 57.8501L58.2841 56.2144C58.1634 56.0938 58.1634 55.8993 58.2841 55.7787C58.4059 55.6581 58.6004 55.6593 58.7198 55.7787L60.3542 57.4144C60.4748 57.535 60.4748 57.7295 60.3542 57.8501C60.2348 57.9695 60.0404 57.972 59.9185 57.8501Z" fill="white"/>
<path d="M61.1676 56.4335L59.4962 54.7609C59.3756 54.6403 59.3756 54.4458 59.4962 54.3252C59.6181 54.2034 59.8125 54.2058 59.9319 54.3252L61.6033 55.9978C61.7239 56.1184 61.7239 56.3129 61.6033 56.4335C61.4839 56.5529 61.2895 56.5554 61.1676 56.4335Z" fill="white"/>
<path d="M62.5717 53.9609L61.3114 52.7018C61.021 52.4113 61.464 51.9818 61.7471 52.2661L63.0074 53.5252C63.1281 53.6458 63.1281 53.8403 63.0074 53.9609C62.8856 54.0827 62.6911 54.0803 62.5717 53.9609Z" fill="white"/>
<path d="M62.7196 52.1713L61.4938 50.9443C61.3732 50.8237 61.3732 50.6292 61.4938 50.5086C61.6156 50.388 61.8101 50.3892 61.9295 50.5086L63.1553 51.7357C63.2759 51.8563 63.2759 52.0507 63.1553 52.1713C63.0359 52.2907 62.8415 52.2932 62.7196 52.1713Z" fill="white"/>
<path d="M50.8083 60.6057C50.7296 60.6057 50.6507 60.5762 50.5904 60.5158C50.4699 60.3952 50.4699 60.2008 50.5904 60.0814L52.8834 57.7885C53.004 57.6678 53.1985 57.6678 53.3191 57.7885C53.4397 57.9091 53.4397 58.1035 53.3191 58.2242L51.0262 60.5171C50.9659 60.5762 50.8871 60.6057 50.8083 60.6057Z" fill="white"/>
<path d="M53.7155 60.2428C53.6368 60.2428 53.558 60.2132 53.4977 60.1529C53.3771 60.0323 53.3771 59.8379 53.4977 59.7172L56.7309 56.4852C56.8515 56.3646 57.046 56.3646 57.1666 56.4852C57.2872 56.6059 57.2872 56.8003 57.1666 56.9209L53.9334 60.1529C53.8731 60.212 53.7943 60.2428 53.7155 60.2428Z" fill="white"/>
<path d="M57.6786 59.1227C57.558 59.0021 57.558 58.8076 57.6786 58.687L61.5395 54.8261C61.6601 54.7054 61.8546 54.7054 61.9752 54.8261C62.0958 54.9467 62.0958 55.1411 61.9752 55.2617L58.1143 59.1227C57.9937 59.2421 57.7992 59.2433 57.6786 59.1227Z" fill="white"/>
<path d="M60.8265 54.2772C60.7059 54.1566 60.7059 53.9621 60.8265 53.8415L62.6136 52.0545C62.7342 51.9338 62.9287 51.9338 63.0493 52.0545C63.1699 52.1751 63.1699 52.3695 63.0493 52.4901L61.2622 54.2772C61.1429 54.3966 60.9484 54.3978 60.8265 54.2772Z" fill="white"/>
<path d="M61.3116 51.3688C60.9892 51.0451 61.7203 50.5245 62.0698 50.1762C62.1916 50.0543 62.3861 50.0568 62.5055 50.1762C62.6261 50.2968 62.6261 50.4912 62.5055 50.6118L61.7473 51.37C61.6279 51.4882 61.4335 51.4906 61.3116 51.3688Z" fill="white"/>
<path d="M29.3496 50.3349C29.3385 50.3349 29.3262 50.3349 29.3151 50.3324C29.1453 50.3127 29.0246 50.1601 29.0443 49.9915C29.2056 48.5958 29.9379 47.3047 31.0517 46.4518C32.168 45.5976 33.608 45.2247 34.9939 45.4364C35.1625 45.4623 35.277 45.6173 35.2523 45.786C35.2265 45.9533 35.0788 46.0727 34.9028 46.0444C33.693 45.8623 32.3957 46.1983 31.4271 46.9416C30.4573 47.6838 29.7963 48.8506 29.6548 50.0641C29.6376 50.2204 29.5046 50.3349 29.3496 50.3349Z" fill="white"/>
<path d="M41.0986 43.887C41.0395 43.887 40.9804 43.871 40.9287 43.8353C40.7872 43.7418 40.7478 43.551 40.8413 43.4095C42.2062 41.3393 44.5927 39.9658 47.069 39.8218C49.5478 39.6729 52.0746 40.7707 53.6684 42.6698C53.7779 42.8003 53.7607 42.9935 53.6315 43.103C53.501 43.2113 53.3066 43.1953 53.1982 43.0649C51.7275 41.3122 49.3939 40.2981 47.1059 40.4347C44.8192 40.5664 42.6161 41.8353 41.3558 43.7467C41.2955 43.839 41.1982 43.887 41.0986 43.887Z" fill="white"/>
<path d="M21.0679 34.9491C21.0322 34.9491 20.9953 34.943 20.9609 34.9294C20.8009 34.8704 20.7209 34.6931 20.7799 34.5331C22.615 29.599 28.8242 27.9645 32.8513 31.3307C32.9818 31.439 32.999 31.6334 32.8895 31.7639C32.7824 31.8944 32.5879 31.9116 32.4562 31.8033C28.7282 28.687 23.0322 30.2402 21.3559 34.7485C21.3104 34.8728 21.1922 34.9491 21.0679 34.9491Z" fill="white"/>
<path d="M12.7664 44.0752C12.5991 44.0752 12.4624 43.9411 12.4588 43.7737C12.4034 41.0512 15.4409 39.2802 17.788 40.7448C17.932 40.8346 17.9763 41.0242 17.8864 41.1694C17.7978 41.3134 17.6071 41.3565 17.4631 41.2679C15.5369 40.0691 13.0286 41.5017 13.0741 43.7614C13.0778 43.9312 12.9424 44.0715 12.7726 44.0752C12.7701 44.0752 12.7689 44.0752 12.7664 44.0752Z" fill="white"/>
<path d="M44.7062 83.2581L42.4403 80.9922C42.3197 80.8716 42.3197 80.6771 42.4403 80.5565C42.5609 80.4359 42.7554 80.4359 42.876 80.5565L45.1418 82.8224C45.2625 82.943 45.2625 83.1375 45.1418 83.2581C45.0212 83.3775 44.8268 83.3787 44.7062 83.2581Z" fill="white"/>
<path d="M47.0359 81.5903C46.8329 81.5903 45.3387 80.0211 45.1947 79.8771C45.0741 79.7565 45.0741 79.562 45.1947 79.4414C45.3153 79.3208 45.5098 79.3208 45.6304 79.4414L47.2538 81.0648C47.3744 81.1854 47.3744 81.3799 47.2538 81.5005C47.1935 81.5608 47.1159 81.5903 47.0359 81.5903Z" fill="white"/>
<path d="M47.8865 79.4847L46.3764 77.9745C46.2557 77.8539 46.2557 77.6594 46.3764 77.5388C46.4982 77.417 46.6927 77.4194 46.812 77.5388L48.321 79.049C48.6102 79.3382 48.172 79.7714 47.8865 79.4847Z" fill="white"/>
<path d="M48.1573 78.0505L46.6386 76.5318C46.5179 76.4112 46.5179 76.2167 46.6386 76.0961C46.7592 75.9755 46.9536 75.9755 47.0742 76.0961L48.593 77.6148C48.7136 77.7355 48.7136 77.9299 48.593 78.0505C48.4736 78.1712 48.2792 78.1724 48.1573 78.0505Z" fill="white"/>
<path d="M45.2662 81.9155L44.0797 80.7303C43.9591 80.6096 43.9591 80.4152 44.0797 80.2946C44.1991 80.1752 44.3936 80.1727 44.5142 80.2946L45.7006 81.4798C45.8213 81.6004 45.8213 81.7949 45.7006 81.9155C45.5788 82.0373 45.3843 82.0349 45.2662 81.9155Z" fill="white"/>
<path d="M42.5055 82.3707C42.3849 82.25 42.3849 82.0556 42.5055 81.935L45.015 79.4254C45.1369 79.3036 45.3313 79.306 45.4495 79.4254C45.5701 79.546 45.5701 79.7405 45.4495 79.8599L42.94 82.3694C42.8218 82.4888 42.6261 82.4925 42.5055 82.3707Z" fill="white"/>
<path d="M46.3764 80.3362C46.2557 80.2156 46.2557 80.0212 46.3764 79.9005L47.7216 78.5553C48.0071 78.2685 48.4453 78.7018 48.1573 78.991L46.812 80.3362C46.6902 80.4581 46.4957 80.4556 46.3764 80.3362Z" fill="white"/>
<path d="M46.9868 77.802C46.908 77.802 46.8292 77.7725 46.7689 77.7122C46.6483 77.5916 46.6483 77.3971 46.7689 77.2765L47.8557 76.1897C47.9763 76.0691 48.1708 76.0691 48.2914 76.1897C48.412 76.3103 48.412 76.5048 48.2914 76.6254L47.2046 77.7122C47.1443 77.7725 47.0668 77.802 46.9868 77.802Z" fill="white"/>
<path d="M47.8421 66.1099L46.7184 64.9862C46.5978 64.8656 46.5978 64.6712 46.7184 64.5505C46.839 64.4299 47.0335 64.4299 47.1541 64.5505L48.2778 65.6742C48.3984 65.7949 48.3984 65.9893 48.2778 66.1099C48.1572 66.2293 47.9627 66.2318 47.8421 66.1099Z" fill="white"/>
<path d="M48.4526 65.364L47.6722 64.5849C47.5516 64.4655 47.5516 64.2698 47.6722 64.1492C47.7916 64.0298 47.9861 64.0286 48.1079 64.1492C48.4624 64.5037 49.2119 65.039 48.8882 65.3627C48.7652 65.4858 48.5707 65.4821 48.4526 65.364Z" fill="white"/>
<path d="M49.0399 64.2945L47.974 63.2287C47.8534 63.1081 47.8534 62.9136 47.974 62.793C48.0946 62.6724 48.2891 62.6724 48.4097 62.793L49.4755 63.8588C49.5962 63.9794 49.5962 64.1739 49.4755 64.2945C49.3562 64.4139 49.1605 64.4151 49.0399 64.2945Z" fill="white"/>
<path d="M46.5165 65.8416C46.3959 65.721 46.3959 65.5265 46.5165 65.4059L48.1153 63.8071C48.2359 63.6865 48.4303 63.6865 48.5509 63.8071C48.6716 63.9278 48.6716 64.1222 48.5509 64.2428L46.9522 65.8416C46.8328 65.961 46.6383 65.9622 46.5165 65.8416Z" fill="white"/>
<path d="M36.226 73.8858L34.0082 71.668C33.8876 71.5474 33.8876 71.3529 34.0082 71.2335C34.1288 71.1129 34.3233 71.1129 34.4439 71.2335L36.6617 73.4514C36.7823 73.572 36.7823 73.7664 36.6617 73.8871C36.5411 74.0052 36.3466 74.0064 36.226 73.8858Z" fill="white"/>
<path d="M38.2274 73.3257L35.6661 70.7644C35.5455 70.6438 35.5455 70.4494 35.6661 70.3287C35.7868 70.2081 35.9812 70.2081 36.1018 70.3287L38.6631 72.89C38.7837 73.0106 38.7837 73.205 38.6631 73.3257C38.5425 73.445 38.348 73.4463 38.2274 73.3257Z" fill="white"/>
<path d="M39.7399 71.7222L37.3239 69.3062C37.2032 69.1856 37.2032 68.9911 37.3239 68.8705C37.4445 68.7499 37.6389 68.7499 37.7583 68.8705L40.1743 71.2865C40.2949 71.4071 40.2949 71.6016 40.1743 71.7222C40.0549 71.8416 39.8605 71.844 39.7399 71.7222Z" fill="white"/>
<path d="M40.8304 69.7997L39.132 68.1012C39.0114 67.9806 39.0114 67.7862 39.132 67.6655C39.2526 67.5449 39.447 67.5449 39.5677 67.6655L41.2661 69.364C41.3867 69.4846 41.3867 69.6791 41.2661 69.7997C41.1467 69.9191 40.951 69.9203 40.8304 69.7997Z" fill="white"/>
<path d="M41.6302 67.6852L40.2382 66.2931C40.1176 66.1725 40.1176 65.9781 40.2382 65.8575C40.36 65.7368 40.5545 65.7381 40.6739 65.8575L42.0659 67.2495C42.1865 67.3701 42.1865 67.5645 42.0659 67.6852C41.9465 67.8045 41.752 67.807 41.6302 67.6852Z" fill="white"/>
<path d="M41.6058 65.9521L40.5387 64.8851C40.4181 64.7645 40.4181 64.57 40.5387 64.4494C40.6593 64.33 40.8538 64.3288 40.9744 64.4494L42.0415 65.5165C42.1621 65.6371 42.1621 65.8315 42.0415 65.9521C41.9196 66.074 41.7252 66.0715 41.6058 65.9521Z" fill="white"/>
<path d="M34.4602 72.2882L38.4885 68.2587C38.6091 68.1381 38.8035 68.1381 38.9242 68.2587C39.0448 68.3793 39.0448 68.5738 38.9242 68.6944L34.8959 72.7227C34.6079 73.0119 34.1746 72.5737 34.4602 72.2882Z" fill="white"/>
<path d="M38.3282 71.333L40.6396 69.0228C40.7602 68.9022 40.9547 68.9022 41.0753 69.0228C41.1959 69.1434 41.1959 69.3379 41.0753 69.4585L38.7639 71.7687C38.4747 72.0567 38.0427 71.6185 38.3282 71.333Z" fill="white"/>
<path d="M40.2384 66.9626L41.4199 65.7798C41.7055 65.493 42.1436 65.9263 41.8556 66.2155L40.6741 67.3983C40.3873 67.6838 39.9492 67.2518 40.2384 66.9626Z" fill="white"/>
</g>
<defs>
<clipPath id="clip0">
<rect x="10" y="16" width="80" height="67.6923" fill="white"/>
</clipPath>
</defs>
</svg>
