<svg width="65" height="55" viewBox="0 0 65 55" fill="none" xmlns="http://www.w3.org/2000/svg">
<path d="M49.3217 35.6872C46.8467 35.6872 44.3507 35.2242 41.9657 34.2662C41.3597 34.0222 41.7187 33.0922 42.3387 33.3382C48.9937 36.0112 56.5617 34.6282 61.8117 29.9462C57.4917 31.1482 52.6147 30.5722 48.3747 28.2902C43.6507 25.7462 40.1507 20.8812 39.2407 15.5942C38.3797 10.5872 39.6687 5.12318 42.5467 1.26418C37.1717 2.61918 32.6387 7.17919 31.2727 12.7712C30.8897 14.3422 30.7507 15.9872 30.8587 17.6612C30.8767 17.9362 30.6677 18.1742 30.3917 18.1922C30.1407 18.2012 29.8787 18.0022 29.8607 17.7252C29.7457 15.9502 29.8937 14.2032 30.3017 12.5332C31.8737 6.09418 37.4037 0.942185 43.7467 0.00518479C43.9507 -0.0248152 44.1617 0.0771846 44.2617 0.264185C44.3607 0.451185 44.3327 0.679185 44.1917 0.835185C40.8857 4.48518 39.3307 10.2112 40.2277 15.4232C41.0857 20.4142 44.3897 25.0072 48.8497 27.4082C53.5277 29.9282 59.0127 30.2532 63.5207 28.2802C63.7347 28.1872 63.9867 28.2542 64.1247 28.4442C64.2627 28.6342 64.2507 28.8942 64.0947 29.0702C60.2867 33.3642 54.8597 35.6872 49.3217 35.6872Z" fill="white"/>
<path d="M28.0896 39.2853C27.9916 38.4913 28.2306 37.6223 28.7586 36.8363C28.7686 36.8213 28.7796 36.8073 28.7906 36.7943C29.2886 36.0863 31.1716 34.2913 31.6666 34.0093C31.8426 33.9083 32.0596 33.9253 32.2206 34.0473C32.3796 34.1713 32.4506 34.3783 32.3976 34.5733C32.2766 35.0243 32.5076 36.0683 32.6316 36.6293L32.6866 36.8643C33.9146 42.0893 28.5036 42.6173 28.0896 39.2853ZM29.5576 37.4413C29.1846 38.0143 29.0156 38.6233 29.0816 39.1623C29.3356 41.1963 32.5866 40.8093 31.7126 37.0923L31.6556 36.8463C31.5516 36.3803 31.4576 35.9253 31.4056 35.5083C30.7526 36.1053 29.8996 36.9553 29.6156 37.3593C29.5996 37.3883 29.5806 37.4153 29.5576 37.4413Z" fill="white"/>
<path d="M25.6617 37.9691C25.4037 37.9691 25.1847 37.7711 25.1647 37.5091C25.1427 37.2341 25.3477 36.9931 25.6227 36.9701C26.7947 36.8761 27.9557 36.7511 29.1167 36.6171C29.3847 36.5791 29.6387 36.7811 29.6717 37.0561C29.7027 37.3301 29.5067 37.5781 29.2327 37.6101C28.0597 37.7461 26.8867 37.8711 25.7037 37.9661C25.6887 37.9691 25.6747 37.9691 25.6617 37.9691Z" fill="white"/>
<path d="M31.6486 36.8053C31.6106 36.5313 31.8006 36.2793 32.0746 36.2403C33.1586 36.0883 34.2436 35.9263 35.3266 35.7643C37.3376 35.4563 41.5126 34.9403 42.7756 31.8443C43.3646 30.3983 43.0646 28.7663 41.9936 27.5863C40.9226 26.4053 39.3776 25.9713 37.8586 26.4243C37.5906 26.5053 37.3156 26.3523 37.2356 26.0883C37.1566 25.8233 37.3066 25.5453 37.5716 25.4663C39.4406 24.9063 41.4166 25.4643 42.7346 26.9143C44.0666 28.3813 44.4376 30.4153 43.7016 32.2223C43.1176 33.6533 41.8466 34.8573 40.1206 35.6123C38.4936 36.3363 36.7986 36.5893 32.2136 37.2313C31.9466 37.2703 31.6876 37.0843 31.6486 36.8053Z" fill="white"/>
<path d="M19.1217 38.2442C16.6097 38.2442 14.7007 38.0542 13.3057 37.6652C9.28671 36.5762 7.76171 33.6042 8.04771 31.3052C8.33971 28.9352 10.0647 27.9302 11.4517 27.7902C13.0417 27.6362 14.3997 28.4692 14.8697 29.8722C14.9577 30.1342 14.8167 30.4172 14.5557 30.5052C14.2937 30.5922 14.0097 30.4522 13.9227 30.1902C13.5277 29.0142 12.3907 28.6972 11.5527 28.7852C10.5317 28.8882 9.25971 29.6422 9.03971 31.4272C8.80571 33.3132 10.1237 35.7672 13.5697 36.7012C15.0537 37.1142 17.1957 37.2922 20.0997 37.2352C20.4167 37.2122 20.6037 37.4502 20.6087 37.7262C20.6137 38.0022 20.3937 38.2302 20.1177 38.2352C19.7757 38.2412 19.4437 38.2442 19.1217 38.2442Z" fill="white"/>
<path d="M13.1027 29.0023C13.0997 29.0023 13.0957 29.0023 13.0917 29.0023C12.8167 28.9963 12.5967 28.7683 12.6027 28.4923C12.6697 25.2623 15.2127 22.2773 18.3907 21.6973C21.5767 21.1173 25.0027 23.0123 26.2057 26.0083C26.3087 26.2643 26.1847 26.5563 25.9287 26.6583C25.6717 26.7593 25.3817 26.6373 25.2787 26.3813C24.2457 23.8083 21.3027 22.1833 18.5707 22.6803C15.8427 23.1783 13.6607 25.7403 13.6027 28.5123C13.5967 28.7853 13.3737 29.0023 13.1027 29.0023Z" fill="white"/>
<path d="M39.8797 26.0252C39.6377 26.0252 39.4237 25.8482 39.3867 25.6002C39.0197 23.1862 37.5807 20.9462 35.5377 19.6072C33.4937 18.2692 30.8627 17.8462 28.5077 18.4732C26.1487 19.1012 24.0777 20.7752 22.9697 22.9522C22.8447 23.1992 22.5387 23.2932 22.2977 23.1712C22.0517 23.0462 21.9527 22.7442 22.0787 22.4982C23.3127 20.0732 25.6207 18.2072 28.2497 17.5072C30.8787 16.8062 33.8097 17.2802 36.0857 18.7712C38.3627 20.2632 39.9657 22.7602 40.3747 25.4502C40.4167 25.7232 40.2287 25.9782 39.9557 26.0192C39.9307 26.0232 39.9057 26.0252 39.8797 26.0252Z" fill="white"/>
<path d="M7.66174 19.3732C7.06874 19.0422 6.62374 18.4252 6.43874 17.6822C6.29874 17.1192 6.29874 16.4852 6.44074 15.7442C6.97274 12.9682 9.10974 10.5692 11.8837 9.63422C14.5127 8.74722 17.6207 9.21422 20.0037 10.8492C20.9457 11.4962 21.5997 12.1952 22.0017 12.9862C22.5157 13.9962 22.5637 15.1382 22.1307 16.0412C21.6207 17.1022 20.4337 17.7312 19.3607 17.4992C18.1767 17.2442 17.3587 15.8812 17.8287 14.7552C17.9367 14.5002 18.2307 14.3792 18.4827 14.4862C18.7377 14.5932 18.8577 14.8852 18.7527 15.1402C18.5287 15.6762 18.9897 16.3962 19.5717 16.5212C20.1877 16.6542 20.9197 16.2542 21.2287 15.6082C21.5287 14.9842 21.4847 14.1732 21.1117 13.4392C20.7867 12.8012 20.2397 12.2232 19.4377 11.6732C17.3107 10.2132 14.5387 9.79522 12.2037 10.5812C9.80274 11.3912 7.88174 13.5412 7.42374 15.9322C7.30974 16.5282 7.30474 17.0212 7.40974 17.4412C7.52774 17.9182 7.79774 18.3042 8.14974 18.5012C9.01574 18.9872 9.78074 18.1302 9.35174 17.6182C9.17474 17.4062 9.20374 17.0912 9.41474 16.9142C9.62374 16.7362 9.93974 16.7642 10.1187 16.9772C11.2737 18.3582 9.48074 20.3952 7.66174 19.3732Z" fill="white"/>
<path d="M8.7867 27.8253C6.0247 27.8253 3.0857 27.2183 1.1097 24.8143C-1.1303 22.0903 0.390704 19.3453 2.4107 18.2553C3.6977 17.5623 5.3437 17.3663 7.1707 17.6893C7.4437 17.7373 7.6237 17.9963 7.5757 18.2683C7.5277 18.5413 7.2647 18.7243 6.9967 18.6733C5.8777 18.4773 4.2567 18.3953 2.8857 19.1343C1.6717 19.7903 -0.0802956 21.7873 1.8817 24.1783C4.7167 27.6263 10.0737 26.8723 13.2757 26.4213C13.5407 26.3803 13.8007 26.5733 13.8397 26.8463C13.8777 27.1193 13.6877 27.3723 13.4137 27.4113C12.1157 27.5953 10.4847 27.8253 8.7867 27.8253Z" fill="white"/>
<path d="M21.8627 14.8362C21.7607 14.8362 21.6597 14.8062 21.5717 14.7432C21.3467 14.5822 21.2957 14.2702 21.4567 14.0452C22.5157 12.5652 24.1677 11.6242 25.9897 11.4642C27.8177 11.2992 29.6027 11.9422 30.9047 13.2152C31.1017 13.4082 31.1057 13.7252 30.9127 13.9222C30.7207 14.1202 30.4037 14.1242 30.2057 13.9302C29.1127 12.8612 27.6067 12.3232 26.0767 12.4602C24.5467 12.5942 23.1587 13.3842 22.2687 14.6272C22.1707 14.7642 22.0177 14.8362 21.8627 14.8362Z" fill="white"/>
<path d="M27.9378 54.7732C26.0938 54.7732 24.6598 53.1922 24.4248 51.3802C24.2568 50.0682 24.6628 48.6142 25.5698 47.2842C26.3418 46.1502 29.7198 42.9192 30.5598 42.4232C30.7328 42.3202 30.9538 42.3332 31.1158 42.4552C31.2768 42.5772 31.3488 42.7852 31.2978 42.9812C31.0568 43.8992 31.4758 45.7522 31.8128 47.2422C32.0618 48.3432 32.2578 49.2122 32.2268 49.7492C32.1658 50.7662 31.8858 52.2172 30.8978 53.3602C30.1298 54.2442 29.0238 54.7732 27.9378 54.7732ZM30.2338 43.9462C29.0048 45.0182 26.9588 47.0222 26.3958 47.8472C25.6268 48.9742 25.2808 50.1832 25.4178 51.2522C25.5708 52.4392 26.4158 53.4752 27.4268 53.7142C28.7908 54.0342 31.0288 53.0082 31.2288 49.6892C31.2518 49.2942 31.0508 48.4042 30.8368 47.4622C30.5718 46.2892 30.2818 45.0062 30.2338 43.9462Z" fill="white"/>
<path d="M20.7836 47.5422C19.0536 47.1322 17.6726 45.4812 17.4226 43.5262C17.1646 41.4952 17.9646 39.3772 19.7376 37.4012C21.2546 35.7302 24.1346 32.9972 25.0066 32.4882C25.1806 32.3852 25.3996 32.3992 25.5606 32.5212C25.7216 32.6432 25.7936 32.8502 25.7426 33.0452C25.4866 34.0292 25.8276 35.8692 26.1536 37.3622C26.2026 37.5882 26.2616 37.8302 26.3236 38.0882C26.8216 40.1492 27.5736 43.2632 25.2746 45.9222C24.1516 47.2212 22.3906 47.9172 20.7836 47.5422ZM24.6506 34.0162C23.4986 35.0012 21.6396 36.7912 20.4786 38.0712C19.3836 39.2922 18.1356 41.2102 18.4146 43.4002C19.0886 48.6652 27.6496 47.8432 25.3506 38.3242C25.2856 38.0582 25.2256 37.8072 25.1746 37.5752C24.9026 36.3272 24.6636 35.0652 24.6506 34.0162Z" fill="white"/>
<path d="M51.4558 15.8073C50.4438 15.8073 49.3098 14.0443 48.7088 12.9633C47.5618 13.3653 45.2618 14.1023 44.6088 13.1143C44.0028 12.1973 45.3178 10.5063 46.3528 9.39929C45.4198 8.20429 44.2618 6.40329 44.9468 5.54529C45.1568 5.28129 45.4928 5.14729 45.9458 5.14729C46.8898 5.14729 48.3158 5.73929 49.0168 6.05929C49.6378 5.15029 50.9208 3.46729 51.9158 3.46729C52.0318 3.46729 52.1438 3.48729 52.2488 3.52629C53.2768 3.91229 53.2078 6.05229 53.0208 7.55729C54.4768 7.97629 56.4738 8.75229 56.4238 9.84929C56.3748 10.9453 54.3188 11.5413 52.8298 11.8283C52.8818 13.3433 52.7608 15.4813 51.7028 15.7743C51.6228 15.7953 51.5398 15.8073 51.4558 15.8073ZM48.9428 11.8443C49.1248 11.8443 49.2968 11.9433 49.3858 12.1133C50.1038 13.4873 51.0758 14.7573 51.4428 14.8063C51.7188 14.5943 51.9028 12.9973 51.8128 11.4433C51.7978 11.1893 51.9768 10.9643 52.2288 10.9213C53.7738 10.6603 55.2998 10.1193 55.4298 9.78528C55.3278 9.47929 53.8568 8.80429 52.3398 8.40729C52.0938 8.34229 51.9348 8.10229 51.9728 7.85029C52.2018 6.29929 52.1588 4.68129 51.8808 4.45429C51.5508 4.46729 50.4538 5.65829 49.6148 6.96629C49.4768 7.18129 49.1998 7.25729 48.9708 7.14429C48.4118 6.86729 46.7808 6.14729 45.9448 6.14729C45.7688 6.14729 45.7148 6.18128 45.7148 6.18128C45.6158 6.49028 46.4098 7.90129 47.4028 9.11329C47.5648 9.31029 47.5508 9.59828 47.3738 9.78028C46.2848 10.8913 45.3738 12.2153 45.4488 12.5733C45.4678 12.5703 45.5608 12.6103 45.8108 12.6103C46.6958 12.6103 48.2398 12.0833 48.7598 11.8803C48.8208 11.8553 48.8818 11.8443 48.9428 11.8443Z" fill="white"/>
<path d="M59.6198 20.0452C59.0158 20.0452 58.4128 19.2622 57.9608 18.4772C57.5438 18.6152 56.9018 18.7972 56.4168 18.7972C56.0098 18.7972 55.7188 18.6692 55.5538 18.4192C55.2348 17.9352 55.5338 17.1832 56.4418 16.1792C55.6258 15.0982 55.3948 14.3212 55.7568 13.8682C55.8678 13.7282 56.0858 13.5612 56.4918 13.5612C56.9988 13.5612 57.7138 13.8322 58.1598 14.0242C58.6128 13.3812 59.2838 12.6072 59.8828 12.6072C59.9428 12.6072 60.0908 12.6332 60.1468 12.6542C60.6898 12.8582 60.8908 13.6422 60.7468 14.9892C62.0418 15.3832 62.6848 15.8762 62.6598 16.4552C62.6338 17.0352 61.9488 17.4682 60.6238 17.7462C60.6478 19.1002 60.3788 19.8632 59.8198 20.0182C59.7748 20.0302 59.6638 20.0452 59.6198 20.0452ZM58.1938 17.3632C58.3748 17.3632 58.5478 17.4622 58.6368 17.6322C58.9108 18.1582 59.2798 18.6922 59.5178 18.9312C59.5998 18.6032 59.6408 17.9562 59.6068 17.3642C59.5918 17.1102 59.7708 16.8842 60.0228 16.8422C60.6078 16.7432 61.2298 16.5582 61.5318 16.4052C61.2448 16.2262 60.6418 15.9872 60.0678 15.8372C59.8218 15.7722 59.6628 15.5322 59.6998 15.2802C59.7868 14.6932 59.8028 14.0442 59.7508 13.7112C59.4918 13.9282 59.0778 14.4282 58.7578 14.9272C58.6198 15.1412 58.3428 15.2172 58.1138 15.1052C57.7388 14.9182 57.0558 14.6362 56.6378 14.5742C56.7648 14.8882 57.1118 15.4342 57.4868 15.8922C57.6478 16.0892 57.6348 16.3762 57.4578 16.5592C57.0438 16.9822 56.6498 17.4952 56.4958 17.7962C56.9728 17.7682 57.7428 17.5042 58.0128 17.3992C58.0718 17.3742 58.1328 17.3632 58.1938 17.3632Z" fill="white"/>
<path d="M33.8477 36.5941L32.7827 35.5291C32.6847 35.4311 32.6847 35.2731 32.7827 35.1751C32.8807 35.0771 33.0387 35.0771 33.1357 35.1751L34.2007 36.2401C34.2987 36.3381 34.2987 36.4961 34.2007 36.5941C34.1047 36.6911 33.9457 36.6921 33.8477 36.5941Z" fill="white"/>
<path d="M35.2966 36.4191L34.1106 35.2341C34.0126 35.1361 34.0126 34.9781 34.1106 34.8801C34.2086 34.7821 34.3666 34.7821 34.4646 34.8801L35.6506 36.0651C35.7486 36.1631 35.7486 36.3211 35.6506 36.4181C35.5516 36.5181 35.3936 36.5151 35.2966 36.4191Z" fill="white"/>
<path d="M36.9736 35.7832L35.5386 34.3482C35.4406 34.2502 35.4406 34.0922 35.5386 33.9942C35.6366 33.8962 35.7946 33.8962 35.8926 33.9942L37.3266 35.4292C37.4246 35.5272 37.4246 35.6852 37.3266 35.7822C37.2306 35.8792 37.0726 35.8822 36.9736 35.7832Z" fill="white"/>
<path d="M38.9848 35.0871L37.5088 33.6091C37.4108 33.5111 37.4108 33.3531 37.5088 33.2551C37.6078 33.1561 37.7658 33.1581 37.8628 33.2551L39.3398 34.7331C39.4378 34.8311 39.4378 34.9891 39.3398 35.0871C39.2418 35.1831 39.0838 35.1861 38.9848 35.0871Z" fill="white"/>
<path d="M40.5587 34.0032L39.2307 32.6742C39.1327 32.5762 39.1327 32.4182 39.2307 32.3202C39.3297 32.2222 39.4877 32.2232 39.5847 32.3202L40.9127 33.6492C41.0107 33.7472 41.0107 33.9052 40.9127 34.0032C40.8157 34.1002 40.6577 34.1022 40.5587 34.0032Z" fill="white"/>
<path d="M41.5736 32.8522L40.2156 31.4932C40.1176 31.3952 40.1176 31.2372 40.2156 31.1392C40.3146 31.0402 40.4726 31.0422 40.5696 31.1392L41.9276 32.4982C42.0256 32.5962 42.0256 32.7542 41.9276 32.8522C41.8306 32.9492 41.6726 32.9512 41.5736 32.8522Z" fill="white"/>
<path d="M42.7146 30.8432L41.6906 29.8202C41.4546 29.5842 41.8146 29.2352 42.0446 29.4662L43.0686 30.4892C43.1666 30.5872 43.1666 30.7452 43.0686 30.8432C42.9696 30.9422 42.8116 30.9402 42.7146 30.8432Z" fill="white"/>
<path d="M42.8346 29.3892L41.8386 28.3922C41.7406 28.2942 41.7406 28.1362 41.8386 28.0382C41.9376 27.9402 42.0956 27.9412 42.1926 28.0382L43.1886 29.0352C43.2866 29.1332 43.2866 29.2912 43.1886 29.3892C43.0916 29.4862 42.9336 29.4882 42.8346 29.3892Z" fill="white"/>
<path d="M33.1568 36.2421C33.0928 36.2421 33.0287 36.2181 32.9797 36.1691C32.8818 36.0711 32.8818 35.9131 32.9797 35.8161L34.8428 33.9531C34.9408 33.8551 35.0988 33.8551 35.1968 33.9531C35.2948 34.0511 35.2948 34.2091 35.1968 34.3071L33.3338 36.1701C33.2848 36.2181 33.2208 36.2421 33.1568 36.2421Z" fill="white"/>
<path d="M35.5188 35.9473C35.4548 35.9473 35.3908 35.9233 35.3418 35.8743C35.2438 35.7763 35.2438 35.6183 35.3418 35.5203L37.9688 32.8943C38.0668 32.7963 38.2248 32.7963 38.3228 32.8943C38.4208 32.9923 38.4208 33.1503 38.3228 33.2483L35.6958 35.8743C35.6468 35.9223 35.5828 35.9473 35.5188 35.9473Z" fill="white"/>
<path d="M38.7388 35.0372C38.6408 34.9392 38.6408 34.7812 38.7388 34.6832L41.8758 31.5462C41.9738 31.4482 42.1318 31.4482 42.2298 31.5462C42.3278 31.6442 42.3278 31.8022 42.2298 31.9002L39.0928 35.0372C38.9948 35.1342 38.8368 35.1352 38.7388 35.0372Z" fill="white"/>
<path d="M41.2966 31.1002C41.1986 31.0022 41.1986 30.8442 41.2966 30.7462L42.7486 29.2942C42.8466 29.1962 43.0046 29.1962 43.1026 29.2942C43.2006 29.3922 43.2006 29.5502 43.1026 29.6482L41.6506 31.1002C41.5536 31.1972 41.3956 31.1982 41.2966 31.1002Z" fill="white"/>
<path d="M41.6906 28.7371C41.4286 28.4741 42.0226 28.0511 42.3066 27.7681C42.4056 27.6691 42.5636 27.6711 42.6606 27.7681C42.7586 27.8661 42.7586 28.0241 42.6606 28.1221L42.0446 28.7381C41.9476 28.8341 41.7896 28.8361 41.6906 28.7371Z" fill="white"/>
<path d="M15.7216 27.8971C15.7126 27.8971 15.7026 27.8971 15.6936 27.8951C15.5556 27.8791 15.4576 27.7551 15.4736 27.6181C15.6046 26.4841 16.1996 25.4351 17.1046 24.7421C18.0116 24.0481 19.1816 23.7451 20.3076 23.9171C20.4446 23.9381 20.5376 24.0641 20.5176 24.2011C20.4966 24.3371 20.3766 24.4341 20.2336 24.4111C19.2506 24.2631 18.1966 24.5361 17.4096 25.1401C16.6216 25.7431 16.0846 26.6911 15.9696 27.6771C15.9556 27.8041 15.8476 27.8971 15.7216 27.8971Z" fill="white"/>
<path d="M25.2676 22.6582C25.2196 22.6582 25.1716 22.6452 25.1296 22.6162C25.0146 22.5402 24.9826 22.3852 25.0586 22.2702C26.1676 20.5882 28.1066 19.4722 30.1186 19.3552C32.1326 19.2342 34.1856 20.1262 35.4806 21.6692C35.5696 21.7752 35.5556 21.9322 35.4506 22.0212C35.3446 22.1092 35.1866 22.0962 35.0986 21.9902C33.9036 20.5662 32.0076 19.7422 30.1486 19.8532C28.2906 19.9602 26.5006 20.9912 25.4766 22.5442C25.4276 22.6192 25.3486 22.6582 25.2676 22.6582Z" fill="white"/>
<path d="M8.99271 15.3962C8.96371 15.3962 8.93371 15.3912 8.90571 15.3802C8.77571 15.3322 8.71071 15.1882 8.75871 15.0582C10.2497 11.0492 15.2947 9.72119 18.5667 12.4562C18.6727 12.5442 18.6867 12.7022 18.5977 12.8082C18.5107 12.9142 18.3527 12.9282 18.2457 12.8402C15.2167 10.3082 10.5887 11.5702 9.22671 15.2332C9.18971 15.3342 9.09371 15.3962 8.99271 15.3962Z" fill="white"/>
<path d="M2.24768 22.8111C2.11168 22.8111 2.00068 22.7021 1.99768 22.5661C1.95268 20.3541 4.42068 18.9151 6.32768 20.1051C6.44468 20.1781 6.48068 20.3321 6.40768 20.4501C6.33568 20.5671 6.18068 20.6021 6.06368 20.5301C4.49868 19.5561 2.46068 20.7201 2.49768 22.5561C2.50068 22.6941 2.39068 22.8081 2.25268 22.8111C2.25068 22.8111 2.24968 22.8111 2.24768 22.8111Z" fill="white"/>
<path d="M28.1987 54.6472L26.3577 52.8062C26.2597 52.7082 26.2597 52.5502 26.3577 52.4522C26.4557 52.3542 26.6137 52.3542 26.7117 52.4522L28.5527 54.2932C28.6507 54.3912 28.6507 54.5492 28.5527 54.6472C28.4547 54.7442 28.2967 54.7452 28.1987 54.6472Z" fill="white"/>
<path d="M30.0917 53.2922C29.9267 53.2922 28.7127 52.0172 28.5957 51.9002C28.4977 51.8022 28.4977 51.6442 28.5957 51.5462C28.6937 51.4482 28.8517 51.4482 28.9497 51.5462L30.2687 52.8652C30.3667 52.9632 30.3667 53.1212 30.2687 53.2192C30.2197 53.2682 30.1567 53.2922 30.0917 53.2922Z" fill="white"/>
<path d="M30.7827 51.5813L29.5557 50.3543C29.4577 50.2563 29.4577 50.0983 29.5557 50.0003C29.6547 49.9013 29.8127 49.9033 29.9097 50.0003L31.1357 51.2273C31.3707 51.4623 31.0147 51.8143 30.7827 51.5813Z" fill="white"/>
<path d="M31.0028 50.4161L29.7688 49.1821C29.6708 49.0841 29.6708 48.9261 29.7688 48.8281C29.8668 48.7301 30.0248 48.7301 30.1228 48.8281L31.3568 50.0621C31.4548 50.1601 31.4548 50.3181 31.3568 50.4161C31.2598 50.5141 31.1018 50.5151 31.0028 50.4161Z" fill="white"/>
<path d="M28.6537 53.5563L27.6897 52.5933C27.5917 52.4953 27.5917 52.3373 27.6897 52.2393C27.7867 52.1423 27.9447 52.1403 28.0427 52.2393L29.0067 53.2023C29.1047 53.3003 29.1047 53.4583 29.0067 53.5563C28.9077 53.6553 28.7497 53.6533 28.6537 53.5563Z" fill="white"/>
<path d="M26.4107 53.9262C26.3127 53.8282 26.3127 53.6702 26.4107 53.5722L28.4497 51.5332C28.5487 51.4342 28.7067 51.4362 28.8027 51.5332C28.9007 51.6312 28.9007 51.7892 28.8027 51.8862L26.7637 53.9252C26.6677 54.0222 26.5087 54.0252 26.4107 53.9262Z" fill="white"/>
<path d="M29.5557 52.2732C29.4577 52.1752 29.4577 52.0172 29.5557 51.9192L30.6487 50.8262C30.8807 50.5932 31.2367 50.9452 31.0027 51.1802L29.9097 52.2732C29.8107 52.3722 29.6527 52.3702 29.5557 52.2732Z" fill="white"/>
<path d="M30.0518 50.2141C29.9878 50.2141 29.9238 50.1901 29.8748 50.1411C29.7768 50.0431 29.7768 49.8851 29.8748 49.7871L30.7578 48.9041C30.8558 48.8061 31.0138 48.8061 31.1118 48.9041C31.2098 49.0021 31.2098 49.1601 31.1118 49.2581L30.2288 50.1411C30.1798 50.1901 30.1168 50.2141 30.0518 50.2141Z" fill="white"/>
<path d="M30.7468 40.7143L29.8338 39.8013C29.7358 39.7033 29.7358 39.5453 29.8338 39.4473C29.9318 39.3493 30.0898 39.3493 30.1878 39.4473L31.1008 40.3603C31.1988 40.4583 31.1988 40.6163 31.1008 40.7143C31.0028 40.8113 30.8448 40.8133 30.7468 40.7143Z" fill="white"/>
<path d="M31.2427 40.1082L30.6087 39.4752C30.5107 39.3782 30.5107 39.2192 30.6087 39.1212C30.7057 39.0242 30.8637 39.0232 30.9627 39.1212C31.2507 39.4092 31.8597 39.8442 31.5967 40.1072C31.4967 40.2072 31.3387 40.2042 31.2427 40.1082Z" fill="white"/>
<path d="M31.7198 39.2393L30.8538 38.3733C30.7558 38.2753 30.7558 38.1173 30.8538 38.0193C30.9518 37.9213 31.1098 37.9213 31.2078 38.0193L32.0738 38.8853C32.1718 38.9833 32.1718 39.1413 32.0738 39.2393C31.9768 39.3363 31.8178 39.3373 31.7198 39.2393Z" fill="white"/>
<path d="M29.6697 40.4963C29.5717 40.3983 29.5717 40.2403 29.6697 40.1423L30.9687 38.8433C31.0667 38.7453 31.2247 38.7453 31.3227 38.8433C31.4207 38.9413 31.4207 39.0993 31.3227 39.1973L30.0237 40.4963C29.9267 40.5933 29.7687 40.5943 29.6697 40.4963Z" fill="white"/>
<path d="M21.3086 47.0322L19.5066 45.2302C19.4086 45.1322 19.4086 44.9742 19.5066 44.8772C19.6046 44.7792 19.7626 44.7792 19.8606 44.8772L21.6626 46.6792C21.7606 46.7772 21.7606 46.9352 21.6626 47.0332C21.5646 47.1292 21.4066 47.1302 21.3086 47.0322Z" fill="white"/>
<path d="M22.9348 46.5771L20.8538 44.4961C20.7558 44.3981 20.7558 44.2401 20.8538 44.1421C20.9518 44.0441 21.1098 44.0441 21.2078 44.1421L23.2888 46.2231C23.3868 46.3211 23.3868 46.4791 23.2888 46.5771C23.1908 46.6741 23.0328 46.6751 22.9348 46.5771Z" fill="white"/>
<path d="M24.1637 45.2743L22.2007 43.3113C22.1027 43.2133 22.1027 43.0553 22.2007 42.9573C22.2987 42.8593 22.4567 42.8593 22.5537 42.9573L24.5167 44.9203C24.6147 45.0183 24.6147 45.1763 24.5167 45.2743C24.4197 45.3713 24.2617 45.3733 24.1637 45.2743Z" fill="white"/>
<path d="M25.0497 43.7123L23.6697 42.3323C23.5717 42.2343 23.5717 42.0763 23.6697 41.9783C23.7677 41.8803 23.9257 41.8803 24.0237 41.9783L25.4037 43.3583C25.5017 43.4563 25.5017 43.6143 25.4037 43.7123C25.3067 43.8093 25.1477 43.8103 25.0497 43.7123Z" fill="white"/>
<path d="M25.6996 41.9942L24.5686 40.8632C24.4706 40.7652 24.4706 40.6072 24.5686 40.5092C24.6676 40.4112 24.8256 40.4122 24.9226 40.5092L26.0536 41.6402C26.1516 41.7382 26.1516 41.8962 26.0536 41.9942C25.9566 42.0912 25.7986 42.0932 25.6996 41.9942Z" fill="white"/>
<path d="M25.6798 40.5861L24.8128 39.7191C24.7148 39.6211 24.7148 39.4631 24.8128 39.3651C24.9108 39.2681 25.0688 39.2671 25.1668 39.3651L26.0338 40.2321C26.1318 40.3301 26.1318 40.4881 26.0338 40.5861C25.9348 40.6851 25.7768 40.6831 25.6798 40.5861Z" fill="white"/>
<path d="M19.8738 45.7342L23.1468 42.4602C23.2448 42.3622 23.4028 42.3622 23.5008 42.4602C23.5988 42.5582 23.5988 42.7162 23.5008 42.8142L20.2278 46.0872C19.9938 46.3222 19.6418 45.9662 19.8738 45.7342Z" fill="white"/>
<path d="M23.0167 44.9581L24.8947 43.0811C24.9927 42.9831 25.1507 42.9831 25.2487 43.0811C25.3467 43.1791 25.3467 43.3371 25.2487 43.4351L23.3707 45.3121C23.1357 45.5461 22.7847 45.1901 23.0167 44.9581Z" fill="white"/>
<path d="M24.5687 41.4071L25.5287 40.4461C25.7607 40.2131 26.1167 40.5651 25.8827 40.8001L24.9227 41.7611C24.6897 41.9931 24.3337 41.6421 24.5687 41.4071Z" fill="white"/>
</svg>
