<svg width="100" height="100" viewBox="0 0 100 100" fill="none" xmlns="http://www.w3.org/2000/svg">
<path d="M44.5719 67.2741C44.4513 66.2969 44.7454 65.2273 45.3953 64.2599C45.4076 64.2415 45.4211 64.2243 45.4347 64.2083C46.0476 63.3369 48.3651 61.1276 48.9744 60.7806C49.191 60.6563 49.4581 60.6772 49.6562 60.8273C49.8519 60.9799 49.9393 61.2347 49.8741 61.4747C49.7251 62.0298 50.0094 63.3147 50.1621 64.0052L50.2297 64.2944C51.7411 70.7252 45.0814 71.375 44.5719 67.2741ZM46.3787 65.0046C45.9196 65.7098 45.7116 66.4593 45.7928 67.1227C46.1054 69.6261 50.1067 69.1498 49.031 64.575L48.9608 64.2723C48.8328 63.6987 48.7171 63.1387 48.6531 62.6255C47.8494 63.3603 46.7996 64.4064 46.4501 64.9036C46.4304 64.9393 46.407 64.9726 46.3787 65.0046Z" fill="white"/>
<path d="M41.5837 65.6545C41.2661 65.6545 40.9966 65.4108 40.972 65.0884C40.9449 64.7499 41.1972 64.4533 41.5357 64.425C42.9781 64.3093 44.407 64.1554 45.836 63.9905C46.1658 63.9438 46.4784 64.1924 46.519 64.5308C46.5572 64.8681 46.316 65.1733 45.9787 65.2127C44.535 65.3801 43.0913 65.5339 41.6353 65.6508C41.6169 65.6545 41.5997 65.6545 41.5837 65.6545Z" fill="white"/>
<path d="M48.9522 64.2218C48.9055 63.8846 49.1393 63.5745 49.4765 63.5265C50.8107 63.3394 52.1461 63.14 53.479 62.9406C55.9541 62.5615 61.0925 61.9265 62.647 58.116C63.3719 56.3363 63.0027 54.3277 61.6845 52.8754C60.3664 51.4218 58.4649 50.8877 56.5953 51.4452C56.2655 51.5449 55.927 51.3566 55.8285 51.0317C55.7313 50.7055 55.9159 50.3634 56.2421 50.2662C58.5424 49.5769 60.9744 50.2637 62.5965 52.0483C64.2359 53.8538 64.6925 56.3572 63.7867 58.5812C63.0679 60.3425 61.5036 61.8243 59.3793 62.7535C57.3769 63.6446 55.2907 63.956 49.6476 64.7462C49.319 64.7942 49.0002 64.5652 48.9522 64.2218Z" fill="white"/>
<path d="M33.5344 65.9929C30.4427 65.9929 28.0931 65.7591 26.3762 65.2803C21.4297 63.94 19.5528 60.2821 19.9048 57.4526C20.2642 54.5357 22.3873 53.2987 24.0944 53.1264C26.0513 52.9369 27.7227 53.9621 28.3011 55.6889C28.4094 56.0114 28.2359 56.3597 27.9147 56.468C27.5922 56.575 27.2427 56.4027 27.1356 56.0803C26.6494 54.6329 25.25 54.2427 24.2187 54.351C22.962 54.4778 21.3965 55.4058 21.1257 57.6027C20.8377 59.924 22.4599 62.9443 26.7011 64.0938C28.5276 64.6021 31.1639 64.8212 34.738 64.751C35.1282 64.7227 35.3584 65.0157 35.3645 65.3554C35.3707 65.6951 35.0999 65.9757 34.7602 65.9818C34.3393 65.9892 33.9307 65.9929 33.5344 65.9929Z" fill="white"/>
<path d="M26.1263 54.6182C26.1226 54.6182 26.1177 54.6182 26.1127 54.6182C25.7743 54.6109 25.5035 54.3302 25.5109 53.9905C25.5934 50.0152 28.7232 46.3413 32.6346 45.6275C36.5558 44.9136 40.7724 47.2459 42.253 50.9333C42.3798 51.2484 42.2272 51.6078 41.9121 51.7333C41.5958 51.8576 41.2389 51.7075 41.1121 51.3924C39.8407 48.2256 36.2186 46.2256 32.8561 46.8373C29.4986 47.4502 26.813 50.6035 26.7417 54.0152C26.7343 54.3512 26.4598 54.6182 26.1263 54.6182Z" fill="white"/>
<path d="M59.0828 50.954C58.7849 50.954 58.5215 50.7362 58.476 50.431C58.0243 47.4599 56.2532 44.703 53.7388 43.055C51.2231 41.4082 47.9849 40.8876 45.0865 41.6593C42.1831 42.4322 39.6342 44.4925 38.2705 47.1719C38.1166 47.4759 37.74 47.5916 37.4434 47.4414C37.1406 47.2876 37.0188 46.9159 37.1739 46.6131C38.6926 43.6285 41.5332 41.3319 44.7689 40.4703C48.0046 39.6076 51.612 40.191 54.4132 42.026C57.2157 43.8623 59.1886 46.9356 59.692 50.2463C59.7437 50.5823 59.5123 50.8962 59.1763 50.9467C59.1455 50.9516 59.1148 50.954 59.0828 50.954Z" fill="white"/>
<path d="M19.4298 42.767C18.7 42.3596 18.1523 41.6002 17.9246 40.6858C17.7523 39.9928 17.7523 39.2125 17.927 38.3005C18.5818 34.8839 21.212 31.9313 24.6261 30.7805C27.8618 29.6888 31.687 30.2636 34.62 32.2759C35.7793 33.0722 36.5843 33.9325 37.079 34.9061C37.7117 36.1492 37.7707 37.5547 37.2378 38.6661C36.6101 39.9719 35.1492 40.7461 33.8286 40.4605C32.3713 40.1467 31.3646 38.4692 31.943 37.0833C32.076 36.7695 32.4378 36.6205 32.748 36.7522C33.0618 36.8839 33.2095 37.2433 33.0803 37.5572C32.8046 38.2168 33.372 39.103 34.0883 39.2569C34.8464 39.4205 35.7473 38.9282 36.1277 38.1332C36.4969 37.3652 36.4427 36.367 35.9837 35.4636C35.5837 34.6784 34.9104 33.967 33.9233 33.2901C31.3055 31.4932 27.8938 30.9787 25.02 31.9461C22.0649 32.943 19.7006 35.5892 19.1369 38.5319C18.9966 39.2655 18.9904 39.8722 19.1197 40.3892C19.2649 40.9762 19.5972 41.4513 20.0304 41.6938C21.0963 42.2919 22.0378 41.2372 21.5098 40.607C21.292 40.3461 21.3277 39.9584 21.5873 39.7405C21.8446 39.5215 22.2335 39.5559 22.4538 39.8181C23.8753 41.5178 21.6686 44.0248 19.4298 42.767Z" fill="white"/>
<path d="M20.8144 53.1695C17.415 53.1695 13.7978 52.4224 11.3658 49.4637C8.60887 46.1111 10.4809 42.7326 12.967 41.3911C14.551 40.5381 16.5769 40.2969 18.8255 40.6944C19.1615 40.7535 19.383 41.0723 19.3239 41.4071C19.2649 41.7431 18.9412 41.9683 18.6113 41.9055C17.2341 41.6643 15.239 41.5634 13.5516 42.4729C12.0575 43.2803 9.90117 45.7381 12.3159 48.6809C15.8052 52.9246 22.3984 51.9966 26.3393 51.4415C26.6655 51.3911 26.9855 51.6286 27.0335 51.9646C27.0803 52.3006 26.8464 52.612 26.5092 52.66C24.9116 52.8864 22.9043 53.1695 20.8144 53.1695Z" fill="white"/>
<path d="M36.908 37.183C36.7824 37.183 36.6581 37.146 36.5498 37.0685C36.2729 36.8703 36.2101 36.4863 36.4083 36.2094C37.7117 34.3879 39.7449 33.2297 41.9874 33.0328C44.2372 32.8297 46.4341 33.6211 48.0366 35.1879C48.2791 35.4254 48.284 35.8156 48.0464 36.058C47.8101 36.3017 47.42 36.3067 47.1763 36.0679C45.8311 34.7522 43.9775 34.09 42.0944 34.2587C40.2114 34.4236 38.5031 35.3959 37.4077 36.9257C37.2871 37.0943 37.0988 37.183 36.908 37.183Z" fill="white"/>
<path d="M44.385 86.3362C42.1155 86.3362 40.3505 84.3904 40.0613 82.1602C39.8545 80.5454 40.3542 78.7559 41.4705 77.119C42.4207 75.7233 46.5782 71.7467 47.6121 71.1362C47.825 71.0094 48.097 71.0254 48.2964 71.1756C48.4945 71.3258 48.5831 71.5818 48.5204 71.823C48.2238 72.9528 48.7395 75.2334 49.1542 77.0673C49.4607 78.4224 49.7019 79.4919 49.6638 80.1528C49.5887 81.4045 49.2441 83.1904 48.0281 84.5971C47.0828 85.6851 45.7216 86.3362 44.385 86.3362ZM47.2108 73.0107C45.6982 74.3301 43.1801 76.7965 42.4871 77.8119C41.5407 79.199 41.1148 80.687 41.2835 82.0027C41.4718 83.4636 42.5118 84.7387 43.7561 85.0328C45.4348 85.4267 48.1893 84.1639 48.4355 80.079C48.4638 79.5928 48.2164 78.4974 47.953 77.3381C47.6268 75.8944 47.2699 74.3153 47.2108 73.0107Z" fill="white"/>
<path d="M35.5799 77.4366C33.4507 76.932 31.751 74.9 31.4433 72.4939C31.1257 69.9942 32.1104 67.3874 34.2925 64.9554C36.1596 62.8988 39.7042 59.5351 40.7774 58.9086C40.9916 58.7819 41.2611 58.7991 41.4593 58.9493C41.6574 59.0994 41.746 59.3542 41.6833 59.5942C41.3682 60.8053 41.7879 63.0699 42.1891 64.9074C42.2494 65.1856 42.322 65.4834 42.3984 65.801C43.0113 68.3376 43.9368 72.1702 41.1073 75.4428C39.7251 77.0416 37.5577 77.8982 35.5799 77.4366ZM40.3393 60.7893C38.9214 62.0016 36.6334 64.2046 35.2045 65.78C33.8568 67.2828 32.3208 69.6434 32.6642 72.3388C33.4937 78.8188 44.0304 77.8071 41.2008 66.0914C41.1208 65.764 41.047 65.4551 40.9842 65.1696C40.6494 63.6336 40.3553 62.0803 40.3393 60.7893Z" fill="white"/>
<path d="M51.6588 63.962L50.348 62.6513C50.2274 62.5307 50.2274 62.3362 50.348 62.2156C50.4686 62.095 50.6631 62.095 50.7825 62.2156L52.0933 63.5264C52.2139 63.647 52.2139 63.8414 52.0933 63.962C51.9751 64.0814 51.7794 64.0827 51.6588 63.962Z" fill="white"/>
<path d="M53.442 63.7468L51.9823 62.2884C51.8617 62.1677 51.8617 61.9733 51.9823 61.8527C52.1029 61.7321 52.2974 61.7321 52.418 61.8527L53.8777 63.3111C53.9983 63.4317 53.9983 63.6262 53.8777 63.7456C53.7558 63.8687 53.5614 63.865 53.442 63.7468Z" fill="white"/>
<path d="M55.506 62.9641L53.7399 61.1979C53.6193 61.0773 53.6193 60.8828 53.7399 60.7622C53.8605 60.6416 54.055 60.6416 54.1756 60.7622L55.9405 62.5284C56.0611 62.649 56.0611 62.8434 55.9405 62.9628C55.8223 63.0822 55.6279 63.0859 55.506 62.9641Z" fill="white"/>
<path d="M57.9813 62.1074L56.1647 60.2884C56.0441 60.1677 56.0441 59.9733 56.1647 59.8527C56.2865 59.7308 56.481 59.7333 56.6004 59.8527L58.4182 61.6717C58.5388 61.7924 58.5388 61.9868 58.4182 62.1074C58.2976 62.2256 58.1031 62.2293 57.9813 62.1074Z" fill="white"/>
<path d="M59.9185 60.7732L58.2841 59.1375C58.1634 59.0169 58.1634 58.8224 58.2841 58.7018C58.4059 58.5812 58.6004 58.5824 58.7198 58.7018L60.3542 60.3375C60.4748 60.4581 60.4748 60.6526 60.3542 60.7732C60.2348 60.8926 60.0404 60.8951 59.9185 60.7732Z" fill="white"/>
<path d="M61.1676 59.3565L59.4962 57.6839C59.3756 57.5633 59.3756 57.3688 59.4962 57.2482C59.6181 57.1263 59.8125 57.1288 59.9319 57.2482L61.6033 58.9208C61.7239 59.0414 61.7239 59.2359 61.6033 59.3565C61.4839 59.4759 61.2895 59.4783 61.1676 59.3565Z" fill="white"/>
<path d="M62.5717 56.884L61.3114 55.6249C61.021 55.3344 61.464 54.9049 61.7471 55.1892L63.0074 56.4483C63.128 56.5689 63.128 56.7634 63.0074 56.884C62.8856 57.0058 62.6911 57.0034 62.5717 56.884Z" fill="white"/>
<path d="M62.7196 55.0944L61.4938 53.8674C61.3732 53.7468 61.3732 53.5523 61.4938 53.4317C61.6156 53.3111 61.8101 53.3123 61.9295 53.4317L63.1553 54.6587C63.2759 54.7794 63.2759 54.9738 63.1553 55.0944C63.0359 55.2138 62.8415 55.2163 62.7196 55.0944Z" fill="white"/>
<path d="M50.8083 63.5289C50.7295 63.5289 50.6508 63.4994 50.5905 63.4391C50.4698 63.3184 50.4698 63.124 50.5905 63.0046L52.8834 60.7117C53.004 60.5911 53.1985 60.5911 53.3191 60.7117C53.4397 60.8323 53.4397 61.0267 53.3191 61.1474L51.0262 63.4403C50.9658 63.4994 50.8871 63.5289 50.8083 63.5289Z" fill="white"/>
<path d="M53.7155 63.1658C53.6368 63.1658 53.558 63.1362 53.4977 63.0759C53.3771 62.9553 53.3771 62.7608 53.4977 62.6402L56.7309 59.4082C56.8515 59.2876 57.046 59.2876 57.1666 59.4082C57.2872 59.5288 57.2872 59.7233 57.1666 59.8439L53.9334 63.0759C53.8731 63.135 53.7943 63.1658 53.7155 63.1658Z" fill="white"/>
<path d="M57.6786 62.0459C57.558 61.9253 57.558 61.7308 57.6786 61.6102L61.5395 57.7493C61.6601 57.6287 61.8546 57.6287 61.9752 57.7493C62.0958 57.8699 62.0958 58.0644 61.9752 58.185L58.1143 62.0459C57.9937 62.1653 57.7992 62.1665 57.6786 62.0459Z" fill="white"/>
<path d="M60.8265 57.2002C60.7059 57.0796 60.7059 56.8851 60.8265 56.7645L62.6136 54.9774C62.7342 54.8568 62.9287 54.8568 63.0493 54.9774C63.1699 55.098 63.1699 55.2925 63.0493 55.4131L61.2622 57.2002C61.1429 57.3196 60.9484 57.3208 60.8265 57.2002Z" fill="white"/>
<path d="M61.3116 54.292C60.9892 53.9683 61.7203 53.4477 62.0698 53.0994C62.1916 52.9775 62.3861 52.98 62.5055 53.0994C62.6261 53.22 62.6261 53.4145 62.5055 53.5351L61.7473 54.2932C61.6279 54.4114 61.4335 54.4138 61.3116 54.292Z" fill="white"/>
<path d="M29.3498 53.2581C29.3387 53.2581 29.3264 53.2581 29.3154 53.2556C29.1455 53.2359 29.0249 53.0833 29.0446 52.9147C29.2058 51.519 29.9381 50.2279 31.052 49.375C32.1683 48.5209 33.6083 48.1479 34.9941 48.3596C35.1627 48.3855 35.2772 48.5406 35.2526 48.7092C35.2267 48.8766 35.079 48.9959 34.903 48.9676C33.6932 48.7855 32.396 49.1215 31.4274 49.8649C30.4575 50.607 29.7966 51.7738 29.655 52.9873C29.6378 53.1436 29.5049 53.2581 29.3498 53.2581Z" fill="white"/>
<path d="M41.0986 46.8102C41.0395 46.8102 40.9804 46.7942 40.9287 46.7585C40.7872 46.665 40.7478 46.4742 40.8413 46.3327C42.2062 44.2625 44.5927 42.889 47.069 42.745C49.5478 42.5961 52.0746 43.6939 53.6684 45.593C53.7779 45.7235 53.7607 45.9167 53.6315 46.0262C53.501 46.1345 53.3066 46.1185 53.1982 45.9881C51.7275 44.2355 49.3939 43.2213 47.1059 43.3579C44.8192 43.4896 42.6161 44.7585 41.3558 46.6699C41.2955 46.7622 41.1982 46.8102 41.0986 46.8102Z" fill="white"/>
<path d="M21.0679 37.8722C21.0322 37.8722 20.9953 37.8661 20.9608 37.8525C20.8008 37.7934 20.7209 37.6162 20.7799 37.4562C22.615 32.5221 28.8242 30.8876 32.8513 34.2538C32.9818 34.3621 32.999 34.5565 32.8895 34.687C32.7824 34.8174 32.5879 34.8347 32.4562 34.7264C28.7282 31.6101 23.0322 33.1633 21.3559 37.6716C21.3104 37.7959 21.1922 37.8722 21.0679 37.8722Z" fill="white"/>
<path d="M12.7664 46.9985C12.5991 46.9985 12.4624 46.8643 12.4588 46.6969C12.4034 43.9745 15.4409 42.2034 17.788 43.668C17.932 43.7578 17.9763 43.9474 17.8864 44.0926C17.7978 44.2366 17.6071 44.2797 17.4631 44.1911C15.5369 42.9923 13.0286 44.4249 13.0741 46.6846C13.0778 46.8545 12.9424 46.9948 12.7726 46.9985C12.7701 46.9985 12.7689 46.9985 12.7664 46.9985Z" fill="white"/>
<path d="M44.7062 86.1812L42.4403 83.9153C42.3197 83.7947 42.3197 83.6002 42.4403 83.4796C42.5609 83.359 42.7554 83.359 42.876 83.4796L45.1419 85.7455C45.2625 85.8661 45.2625 86.0605 45.1419 86.1812C45.0212 86.3005 44.8268 86.3018 44.7062 86.1812Z" fill="white"/>
<path d="M47.0359 84.5136C46.8329 84.5136 45.3387 82.9443 45.1947 82.8003C45.0741 82.6797 45.0741 82.4852 45.1947 82.3646C45.3153 82.244 45.5098 82.244 45.6304 82.3646L47.2538 83.988C47.3744 84.1086 47.3744 84.3031 47.2538 84.4237C47.1935 84.484 47.1159 84.5136 47.0359 84.5136Z" fill="white"/>
<path d="M47.8863 82.4076L46.3761 80.8975C46.2555 80.7769 46.2555 80.5824 46.3761 80.4618C46.498 80.34 46.6924 80.3424 46.8118 80.4618L48.3207 81.972C48.61 82.2612 48.1718 82.6944 47.8863 82.4076Z" fill="white"/>
<path d="M48.1573 80.9739L46.6386 79.4551C46.5179 79.3345 46.5179 79.14 46.6386 79.0194C46.7592 78.8988 46.9536 78.8988 47.0742 79.0194L48.593 80.5382C48.7136 80.6588 48.7136 80.8533 48.593 80.9739C48.4736 81.0945 48.2792 81.0957 48.1573 80.9739Z" fill="white"/>
<path d="M45.2662 84.8385L44.0797 83.6532C43.9591 83.5326 43.9591 83.3382 44.0797 83.2175C44.1991 83.0982 44.3936 83.0957 44.5142 83.2175L45.7006 84.4028C45.8213 84.5234 45.8213 84.7178 45.7006 84.8385C45.5788 84.9603 45.3843 84.9578 45.2662 84.8385Z" fill="white"/>
<path d="M42.5055 85.2938C42.3849 85.1731 42.3849 84.9787 42.5055 84.8581L45.015 82.3485C45.1369 82.2267 45.3313 82.2291 45.4495 82.3485C45.5701 82.4691 45.5701 82.6636 45.4495 82.783L42.94 85.2925C42.8218 85.4119 42.6261 85.4156 42.5055 85.2938Z" fill="white"/>
<path d="M46.3761 83.2593C46.2555 83.1387 46.2555 82.9442 46.3761 82.8236L47.7213 81.4784C48.0069 81.1916 48.445 81.6249 48.157 81.9141L46.8118 83.2593C46.69 83.3812 46.4955 83.3787 46.3761 83.2593Z" fill="white"/>
<path d="M46.9868 80.7251C46.908 80.7251 46.8292 80.6956 46.7689 80.6353C46.6483 80.5147 46.6483 80.3202 46.7689 80.1996L47.8557 79.1128C47.9763 78.9922 48.1708 78.9922 48.2914 79.1128C48.412 79.2334 48.412 79.4279 48.2914 79.5485L47.2046 80.6353C47.1443 80.6956 47.0668 80.7251 46.9868 80.7251Z" fill="white"/>
<path d="M47.8421 69.0329L46.7184 67.9092C46.5978 67.7886 46.5978 67.5941 46.7184 67.4735C46.839 67.3529 47.0335 67.3529 47.1541 67.4735L48.2778 68.5972C48.3984 68.7178 48.3984 68.9123 48.2778 69.0329C48.1572 69.1523 47.9627 69.1547 47.8421 69.0329Z" fill="white"/>
<path d="M48.4526 68.2871L47.6722 67.508C47.5516 67.3886 47.5516 67.1929 47.6722 67.0723C47.7916 66.9529 47.9861 66.9517 48.1079 67.0723C48.4624 67.4268 49.2119 67.9621 48.8882 68.2858C48.7652 68.4089 48.5707 68.4052 48.4526 68.2871Z" fill="white"/>
<path d="M49.0396 67.2175L47.9738 66.1516C47.8531 66.031 47.8531 65.8366 47.9738 65.7159C48.0944 65.5953 48.2888 65.5953 48.4095 65.7159L49.4753 66.7818C49.5959 66.9024 49.5959 67.0969 49.4753 67.2175C49.3559 67.3369 49.1602 67.3381 49.0396 67.2175Z" fill="white"/>
<path d="M46.5165 68.7647C46.3959 68.6441 46.3959 68.4496 46.5165 68.329L48.1153 66.7302C48.2359 66.6096 48.4303 66.6096 48.551 66.7302C48.6716 66.8508 48.6716 67.0453 48.551 67.1659L46.9522 68.7647C46.8328 68.8841 46.6383 68.8853 46.5165 68.7647Z" fill="white"/>
<path d="M36.226 76.8089L34.0082 74.5911C33.8876 74.4705 33.8876 74.276 34.0082 74.1566C34.1288 74.036 34.3233 74.036 34.4439 74.1566L36.6617 76.3745C36.7823 76.4951 36.7823 76.6895 36.6617 76.8102C36.5411 76.9283 36.3466 76.9295 36.226 76.8089Z" fill="white"/>
<path d="M38.2274 76.2489L35.6661 73.6877C35.5455 73.567 35.5455 73.3726 35.6661 73.252C35.7868 73.1313 35.9812 73.1313 36.1018 73.252L38.6631 75.8132C38.7837 75.9338 38.7837 76.1283 38.6631 76.2489C38.5425 76.3683 38.348 76.3695 38.2274 76.2489Z" fill="white"/>
<path d="M39.7399 74.6452L37.3239 72.2292C37.2032 72.1085 37.2032 71.9141 37.3239 71.7935C37.4445 71.6728 37.6389 71.6728 37.7583 71.7935L40.1743 74.2095C40.2949 74.3301 40.2949 74.5245 40.1743 74.6452C40.0549 74.7645 39.8605 74.767 39.7399 74.6452Z" fill="white"/>
<path d="M40.8304 72.7227L39.132 71.0242C39.0114 70.9036 39.0114 70.7091 39.132 70.5885C39.2526 70.4679 39.447 70.4679 39.5677 70.5885L41.2661 72.287C41.3867 72.4076 41.3867 72.602 41.2661 72.7227C41.1467 72.842 40.951 72.8433 40.8304 72.7227Z" fill="white"/>
<path d="M41.6304 70.6084L40.2384 69.2164C40.1178 69.0958 40.1178 68.9013 40.2384 68.7807C40.3603 68.6601 40.5547 68.6613 40.6741 68.7807L42.0661 70.1727C42.1867 70.2933 42.1867 70.4877 42.0661 70.6084C41.9467 70.7277 41.7523 70.7302 41.6304 70.6084Z" fill="white"/>
<path d="M41.6058 68.8754L40.5387 67.8083C40.4181 67.6877 40.4181 67.4932 40.5387 67.3726C40.6593 67.2532 40.8538 67.252 40.9744 67.3726L42.0415 68.4397C42.1621 68.5603 42.1621 68.7547 42.0415 68.8754C41.9196 68.9972 41.7252 68.9947 41.6058 68.8754Z" fill="white"/>
<path d="M34.4602 75.2113L38.4885 71.1818C38.6091 71.0612 38.8036 71.0612 38.9242 71.1818C39.0448 71.3024 39.0448 71.4968 38.9242 71.6175L34.8959 75.6458C34.6079 75.935 34.1746 75.4968 34.4602 75.2113Z" fill="white"/>
<path d="M38.3282 74.2562L40.6396 71.9461C40.7602 71.8254 40.9547 71.8254 41.0753 71.9461C41.1959 72.0667 41.1959 72.2611 41.0753 72.3817L38.7639 74.6919C38.4747 74.9799 38.0427 74.5417 38.3282 74.2562Z" fill="white"/>
<path d="M40.2384 69.8858L41.4199 68.703C41.7055 68.4162 42.1436 68.8495 41.8556 69.1387L40.6741 70.3215C40.3873 70.607 39.9492 70.175 40.2384 69.8858Z" fill="white"/>
<mask id="mask0" mask-type="alpha" maskUnits="userSpaceOnUse" x="38" y="14" width="52" height="51">
<path d="M62.6864 54.4984C61.0209 54.4984 59.3878 54.2748 57.8316 53.834C53.2632 52.5405 49.9323 49.5506 48.4514 45.4144C45.3357 36.7098 51.0266 25.3633 62.2328 24.01C64.952 23.6817 67.7771 24.0478 70.1942 25.0428C75.2452 27.122 78.9056 31.8691 79.5206 37.1381C80.1207 42.2882 77.721 47.7328 73.4059 51.0093C70.4417 53.2585 66.6348 54.4984 62.6864 54.4984ZM64.2236 24.6768C59.233 24.6768 54.5156 27.1023 51.7823 30.7024C48.5458 34.9676 47.569 40.5075 49.2345 45.1601C50.6259 49.0483 53.7631 51.8611 58.0667 53.0798C59.5459 53.4986 61.1004 53.7112 62.6856 53.7112C66.4469 53.7112 70.0709 52.5327 72.8886 50.3929C76.9868 47.281 79.2665 42.1119 78.697 37.2239C78.1142 32.2312 74.6476 27.7329 69.8639 25.7648C68.1364 25.0531 66.1854 24.6768 64.2236 24.6768Z" fill="white"/>
<path d="M63.5911 64.3828C63.5894 64.3828 63.5869 64.3828 63.5844 64.3828C63.3709 64.3796 63.1946 64.2214 63.1788 64.0191C63.053 62.4312 62.6126 60.693 61.8321 58.7052C61.5895 58.0872 61.2957 57.4621 60.7899 57.0795C60.0309 56.5048 58.6766 56.5639 57.6833 57.1692C56.6627 57.7912 55.9301 58.839 55.2836 59.7624C55.1851 59.9033 55.0022 59.9679 54.83 59.9246C54.6579 59.8797 54.5353 59.7357 54.5254 59.5664C54.4691 58.6091 54.8077 57.5849 54.8971 56.7032C54.9815 55.8648 54.8184 55.183 54.4368 54.7847C53.8276 54.1462 52.605 54.2116 50.9909 54.9555L45.6543 57.418C45.4788 57.4999 45.2669 57.4527 45.1469 57.3054C45.0269 57.159 45.031 56.952 45.1568 56.8103C46.516 55.2743 48.6359 51.0846 47.6732 48.8819C47.3289 48.0939 46.6128 47.6664 45.4854 47.5767C44.6088 47.509 43.714 47.7003 42.8507 47.8853C42.6454 47.9309 42.4343 47.8176 42.3673 47.6255C42.2994 47.4334 42.3962 47.2248 42.5899 47.1421C44.3158 46.4037 45.3886 45.1582 45.4598 43.8105C45.5235 42.5989 44.7794 41.4771 43.4177 40.7316C42.0022 39.9569 40.2391 39.7987 38.6829 39.6593C38.4809 39.6412 38.3228 39.4869 38.3087 39.2948C38.2938 39.1028 38.4288 38.9288 38.6258 38.8847C40.1389 38.5415 41.4741 37.9416 42.8879 37.3071C44.2752 36.6843 45.7346 36.197 46.1104 35.1327C46.3985 34.3155 45.9117 33.411 45.3008 32.878C44.5832 32.2506 43.6213 31.9065 42.6909 31.5743C42.5096 31.509 42.3995 31.3342 42.4269 31.1516C42.4533 30.9697 42.609 30.8288 42.8018 30.8139C43.964 30.721 45.1237 30.51 46.3157 30.4147C47.3562 30.3313 47.9555 30.1203 48.2593 29.7314C48.5647 29.3401 48.6135 28.7064 48.4083 27.794C47.9331 25.6794 46.8612 23.7279 45.3066 22.151C45.1684 22.0101 45.1568 21.7944 45.281 21.6417C45.4035 21.4897 45.6262 21.4448 45.8049 21.5354C46.6683 21.9786 47.5399 22.3911 48.4107 22.8044C49.2923 23.2224 50.1739 23.6405 51.048 24.0884C51.6498 24.397 52.3318 24.7466 53.0181 24.7466C54.2812 24.7143 55.1603 23.5767 55.3722 22.5226C55.6023 21.3771 55.2969 20.1868 54.9045 18.8611C54.8516 18.6816 54.9385 18.4911 55.1123 18.4053C55.2845 18.3187 55.4997 18.3612 55.6239 18.5061C56.003 18.9493 56.3316 19.3728 56.661 19.7956C56.983 20.2089 57.305 20.623 57.6759 21.0567C58.7925 22.3628 59.4307 22.3951 60.4274 21.1977C62.0465 19.2532 63.0803 16.8229 63.3394 14.3549C63.3585 14.1715 63.5091 14.0258 63.702 14.003C63.8932 13.9802 64.077 14.0888 64.1424 14.2628C64.4569 15.1115 64.8137 15.9507 65.1588 16.7631C65.5073 17.5834 65.8674 18.4313 66.1886 19.2957C66.5934 20.3876 67.071 21.485 68.0519 21.8723C68.8639 22.1927 69.9789 21.8952 70.7595 21.1819C71.5425 20.4671 72.0053 19.4807 72.4522 18.5265C72.5408 18.3376 72.7718 18.2463 72.9729 18.3171C73.1774 18.3888 73.2883 18.599 73.227 18.7981C72.6145 20.7725 72.6509 22.4124 73.3305 23.4153C73.6823 23.9357 74.2021 24.2648 74.7948 24.3435C75.5878 24.4498 76.3518 24.0829 77.2135 23.635C78.0032 23.2248 78.8277 22.8973 79.6256 22.5808C80.4037 22.2715 81.21 21.951 81.9616 21.5606C82.1288 21.4748 82.3349 21.5063 82.4632 21.6385C82.5923 21.7708 82.6097 21.9692 82.5071 22.1203C81.1504 24.1049 80.0743 26.2518 79.3069 28.5017C78.9883 29.4377 78.9907 30.0455 79.316 30.4139C79.6339 30.7745 80.4575 30.9729 81.6354 30.9729C82.8407 30.9729 84.1402 30.7635 84.8935 30.5556C85.0508 30.5123 85.223 30.5619 85.3281 30.684C85.4332 30.8052 85.4522 30.9744 85.3761 31.1146C85.0632 31.6932 84.4564 32.1774 83.8141 32.6899C82.7777 33.518 81.7977 34.3006 82.1164 35.3752C82.5758 36.9252 87.265 38.3864 89.649 38.7343C89.8303 38.7611 89.971 38.8965 89.9958 39.0689C90.0215 39.2413 89.9246 39.409 89.7583 39.4806C88.0978 40.2025 86.8007 40.7292 85.78 41.1441C83.6096 42.0258 82.7115 42.3903 82.2844 43.0303C81.7704 43.801 82.0857 44.8929 82.6635 45.5723C83.3323 46.3604 84.3704 46.8697 85.285 47.3192C85.4696 47.4098 85.5549 47.6176 85.4837 47.8034C85.4125 47.9892 85.2064 48.0962 85.0044 48.0529C84.271 47.8963 83.2181 47.849 82.2943 47.9049C81.3581 47.9608 80.6703 48.2592 80.2489 48.7914C79.7283 49.4487 79.619 50.4509 79.9245 51.7687C80.345 53.5841 81.1611 55.3476 82.2844 56.8701C82.3945 57.0197 82.3829 57.222 82.2546 57.3582C82.1263 57.4944 81.916 57.5282 81.748 57.4416C80.4062 56.7481 79.0917 56.1474 77.7483 55.4531C76.7045 54.913 75.6375 54.4509 74.7071 54.6619C73.8404 54.8579 73.1095 55.6341 72.8446 56.6394C72.5772 57.6526 72.7643 58.7272 72.9828 59.6451C73.0284 59.8372 72.9183 60.0317 72.7238 60.1009C72.5317 60.1694 72.3124 60.0923 72.2147 59.9191C71.7478 59.0964 71.0384 58.2493 70.2678 57.5967C68.7886 56.3426 67.2067 56.6536 66.0015 58.502C64.9147 60.1686 64.2218 62.0809 63.9991 64.0309C63.9801 64.2316 63.8021 64.3828 63.5911 64.3828ZM59.4382 55.8774C60.1534 55.8774 60.799 56.0797 61.3048 56.4631C61.9678 56.9653 62.3221 57.7054 62.606 58.4296C63.0605 59.5869 63.404 60.6646 63.6407 61.6817C64.0149 60.4174 64.5744 59.2003 65.3012 58.0872C66.4079 56.3899 67.6206 56.0332 68.4426 56.0332C69.2455 56.0332 70.0683 56.3702 70.8216 57.0086C71.2007 57.3298 71.5665 57.6951 71.901 58.0809C71.8703 57.5463 71.901 56.9905 72.045 56.4481C72.3844 55.161 73.3553 54.1596 74.5183 53.8967C75.7823 53.6109 77.0058 54.1722 78.1464 54.7618C79.0644 55.2366 79.9501 55.6577 80.7779 56.0647C80.0172 54.776 79.451 53.3724 79.119 51.938C78.7598 50.3856 78.9179 49.1669 79.59 48.3182C80.1554 47.6042 81.0734 47.1893 82.2447 47.1201C82.5534 47.1012 82.882 47.0894 83.214 47.0949C82.7769 46.8067 82.3664 46.4729 82.022 46.0675C81.2828 45.1976 80.8317 43.7436 81.5883 42.6091C82.1528 41.7621 83.1204 41.3692 85.458 40.4206C86.2221 40.1096 87.1425 39.7365 88.255 39.2649C85.9481 38.7398 81.8838 37.4826 81.3225 35.5893C80.859 34.025 82.2041 32.9504 83.2852 32.0876C83.507 31.9105 83.7239 31.7373 83.9201 31.5665C83.2206 31.679 82.4102 31.7609 81.6379 31.7609C80.1703 31.7609 79.177 31.4783 78.6853 30.9209C77.9941 30.1376 78.2615 29.0268 78.5231 28.26C79.1646 26.3777 80.0172 24.5655 81.0635 22.8556C80.6901 23.0138 80.316 23.1626 79.9476 23.3083C79.1704 23.6176 78.365 23.9373 77.6142 24.3277C76.7806 24.7607 75.9578 25.1496 75.0663 25.1496C74.9397 25.1496 74.8114 25.1417 74.6839 25.1244C73.8495 25.0134 73.1236 24.5584 72.6385 23.8436C72.2602 23.2846 71.9134 22.399 71.9705 21.0544C71.7809 21.3008 71.5715 21.5362 71.3356 21.7519C70.3224 22.6769 68.844 23.039 67.7365 22.6021C66.4419 22.0904 65.8566 20.7639 65.4097 19.5602C65.0951 18.7115 64.7383 17.8723 64.3932 17.0599C64.2359 16.6891 64.0761 16.3136 63.9189 15.9326C63.4487 18.0203 62.4661 20.0223 61.0796 21.6881C59.7502 23.2846 58.5111 23.2791 57.0368 21.5551C56.7223 21.1858 56.4409 20.8316 56.166 20.4797C56.2993 21.2205 56.3349 21.9416 56.1884 22.6722C55.9152 24.0278 54.7398 25.4921 53.0967 25.5354C53.0959 25.5354 53.0942 25.5354 53.0934 25.5354C52.1241 25.5354 51.3112 25.1189 50.6581 24.7836C49.7914 24.3395 48.9182 23.9255 48.044 23.5106C47.751 23.3712 47.4563 23.2327 47.1633 23.0918C48.1517 24.4568 48.8528 25.9991 49.2195 27.6318C49.4769 28.7788 49.3809 29.6196 48.9256 30.2029C48.3396 30.9548 47.261 31.1319 46.3869 31.2012C45.7354 31.2531 45.1105 31.3389 44.4656 31.4232C44.9623 31.6546 45.444 31.9349 45.8629 32.301C46.6708 33.0063 47.304 34.2344 46.8976 35.3862C46.3943 36.8095 44.7115 37.3622 43.243 38.0219C42.3879 38.406 41.5602 38.7776 40.6993 39.0917C41.7729 39.2523 42.8573 39.5192 43.8316 40.053C45.4714 40.9504 46.367 42.336 46.2867 43.853C46.2296 44.9457 45.6593 45.973 44.6949 46.7918C44.9805 46.7729 45.2669 46.7721 45.555 46.7949C47.3545 46.9374 48.1161 47.8451 48.4381 48.582C49.3287 50.6202 48.0399 53.9494 46.7155 56.0553L50.63 54.2494C52.6199 53.3306 54.1827 53.3495 55.0494 54.2564C55.5974 54.8303 55.8291 55.7026 55.7207 56.7803C55.6777 57.207 55.5792 57.6762 55.4989 58.0982C55.9831 57.4991 56.5418 56.9315 57.2363 56.5087C57.901 56.101 58.6833 55.8774 59.4382 55.8774Z" fill="white"/>
<path d="M72.0263 53.2357L71.1033 52.3579C71.0222 52.2808 71.0222 52.1564 71.1033 52.0792C71.1844 52.0021 71.3152 52.0021 71.3963 52.0792L72.3193 52.957C72.4004 53.0342 72.4004 53.1585 72.3193 53.2357C72.2382 53.3121 72.1074 53.3121 72.0263 53.2357Z" fill="white"/>
<path d="M73.0609 52.5196L72.1619 51.6654C72.0808 51.5883 72.0808 51.4639 72.1619 51.3867C72.243 51.3096 72.3738 51.3096 72.4549 51.3867L73.3539 52.2409C73.435 52.318 73.435 52.4424 73.3539 52.5196C73.2728 52.5959 73.142 52.5959 73.0609 52.5196Z" fill="white"/>
<path d="M74.1146 51.697L73.0882 50.7208C73.0071 50.6436 73.0071 50.5192 73.0882 50.4429C73.1693 50.3657 73.3001 50.3657 73.3812 50.4429L74.4076 51.4191C74.4888 51.4962 74.4888 51.6206 74.4076 51.6977C74.3265 51.7741 74.1957 51.7741 74.1146 51.697Z" fill="white"/>
<path d="M75.372 50.8163L74.2793 49.7771C74.1982 49.6999 74.1982 49.5756 74.2793 49.4984C74.3605 49.4213 74.4913 49.4213 74.5724 49.4984L75.665 50.5376C75.7461 50.6147 75.7461 50.7391 75.665 50.8163C75.5839 50.8926 75.4531 50.8926 75.372 50.8163Z" fill="white"/>
<path d="M76.8775 49.4796L75.7352 48.3932C75.654 48.316 75.654 48.1917 75.7352 48.1145C75.8163 48.0374 75.9471 48.0374 76.0282 48.1145L77.1705 49.2009C77.2516 49.2781 77.2516 49.4024 77.1705 49.4796C77.0894 49.5559 76.9586 49.5559 76.8775 49.4796Z" fill="white"/>
<path d="M77.4645 48.1497L76.4629 47.1971C76.3818 47.12 76.3818 46.9956 76.4629 46.9185C76.5441 46.8413 76.6748 46.8413 76.756 46.9185L77.7576 47.871C77.8387 47.9482 77.8387 48.0726 77.7576 48.1497C77.6764 48.2261 77.5457 48.2261 77.4645 48.1497Z" fill="white"/>
<path d="M78.2516 46.8845L77.3228 46.0012C77.2417 45.9241 77.2417 45.7997 77.3228 45.7225C77.4039 45.6454 77.5347 45.6454 77.6158 45.7225L78.5446 46.6058C78.6257 46.683 78.6257 46.8074 78.5446 46.8845C78.4635 46.9617 78.3327 46.9617 78.2516 46.8845Z" fill="white"/>
<path d="M78.7136 45.3722L77.9197 44.6172C77.8386 44.54 77.8386 44.4157 77.9197 44.3385C78.0008 44.2614 78.1316 44.2614 78.2128 44.3385L79.0066 45.0935C79.0877 45.1706 79.0877 45.295 79.0066 45.3722C78.9246 45.4485 78.7938 45.4485 78.7136 45.3722Z" fill="white"/>
<path d="M79.2532 43.998L78.4487 43.2328C78.3675 43.1556 78.3675 43.0313 78.4487 42.9541C78.5298 42.877 78.6606 42.877 78.7417 42.9541L79.5463 43.7193C79.6274 43.7965 79.6274 43.9208 79.5463 43.998C79.4651 44.0751 79.3344 44.0751 79.2532 43.998Z" fill="white"/>
<path d="M79.9196 42.3659L78.9776 41.47C78.8965 41.3928 78.8965 41.2684 78.9776 41.1913C79.0587 41.1141 79.1895 41.1141 79.2706 41.1913L80.2126 42.0872C80.2937 42.1643 80.2937 42.2887 80.2126 42.3659C80.1307 42.443 79.9999 42.443 79.9196 42.3659Z" fill="white"/>
<path d="M79.9742 40.4053L79.2416 39.7086C79.1605 39.6314 79.1605 39.507 79.2416 39.4307C79.3227 39.3535 79.4535 39.3535 79.5347 39.4307L80.2672 40.1274C80.3483 40.2045 80.3483 40.3289 80.2672 40.4053C80.1861 40.4824 80.0553 40.4824 79.9742 40.4053Z" fill="white"/>
<path d="M80.2078 37.9834L79.375 37.1914C79.2939 37.1143 79.2939 36.9899 79.375 36.9127C79.4562 36.8356 79.587 36.8356 79.6681 36.9127L80.5008 37.7047C80.5819 37.7818 80.5819 37.9062 80.5008 37.9826C80.4197 38.0605 80.2889 38.0605 80.2078 37.9834Z" fill="white"/>
<path d="M79.6728 36.6569L78.7789 35.8066C78.6977 35.7295 78.6977 35.6051 78.7789 35.528C78.86 35.4508 78.9908 35.4508 79.0719 35.528L79.9659 36.3782C80.047 36.4553 80.047 36.5797 79.9659 36.6569C79.8847 36.734 79.754 36.734 79.6728 36.6569Z" fill="white"/>
<path d="M79.3177 34.9972L78.3161 34.0455C78.1241 33.8628 78.4146 33.5826 78.6092 33.7668L79.6108 34.7186C79.6919 34.7957 79.6919 34.9201 79.6108 34.9972C79.5288 35.0744 79.398 35.0744 79.3177 34.9972Z" fill="white"/>
<path d="M77.9189 33.1369L78.8179 32.282C78.899 32.2048 79.0298 32.2048 79.1109 32.282C79.192 32.3591 79.192 32.4835 79.1109 32.5607L78.2119 33.4148C78.0191 33.5983 77.7252 33.3219 77.9189 33.1369Z" fill="white"/>
<path d="M77.3237 31.8789L77.8692 31.3601C77.9503 31.283 78.0811 31.283 78.1622 31.3601C78.2433 31.4373 78.2433 31.5616 78.1622 31.6388L77.6167 32.1576C77.4238 32.3402 77.1291 32.0631 77.3237 31.8789Z" fill="white"/>
<path d="M76.3974 30.8351C76.3163 30.7579 76.3163 30.6335 76.3974 30.5564L76.9263 30.0533C77.0074 29.9762 77.1382 29.9762 77.2194 30.0533C77.3005 30.1305 77.3005 30.2549 77.2194 30.3312L76.6904 30.8343C76.6093 30.9122 76.4777 30.9122 76.3974 30.8351Z" fill="white"/>
<path d="M75.7352 29.7033C75.654 29.6262 75.654 29.5018 75.7352 29.4247L76.2989 28.8886C76.38 28.8114 76.5108 28.8114 76.5919 28.8886C76.673 28.9657 76.673 29.0901 76.5919 29.1672L76.0282 29.7033C75.9471 29.7805 75.8163 29.7805 75.7352 29.7033Z" fill="white"/>
<path d="M74.478 28.3815C74.3968 28.3044 74.3968 28.18 74.478 28.1036L75.1526 27.462C75.2337 27.3849 75.3645 27.3849 75.4456 27.462C75.5267 27.5392 75.5267 27.6636 75.4456 27.7407L74.771 28.3823C74.6899 28.4587 74.5591 28.4587 74.478 28.3815Z" fill="white"/>
<path d="M73.2865 27.4374C73.2054 27.3602 73.2054 27.2358 73.2865 27.1587L73.8726 26.6013C73.9537 26.5242 74.0845 26.5242 74.1656 26.6013C74.2468 26.6785 74.2468 26.8029 74.1656 26.88L73.5796 27.4374C73.4985 27.5145 73.3677 27.5145 73.2865 27.4374Z" fill="white"/>
<path d="M71.8316 26.3673C71.7505 26.2902 71.7505 26.1658 71.8316 26.0887L72.5989 25.3589C72.68 25.2817 72.8108 25.2817 72.892 25.3589C72.9731 25.436 72.9731 25.5604 72.892 25.6376L72.1246 26.3673C72.0435 26.4445 71.9127 26.4445 71.8316 26.3673Z" fill="white"/>
<path d="M70.1114 25.8644C70.0303 25.7872 70.0303 25.6629 70.1114 25.5857L70.9052 24.83C70.9863 24.7528 71.1171 24.7528 71.1982 24.83C71.2793 24.9071 71.2793 25.0315 71.1982 25.1086L70.4044 25.8644C70.3233 25.9415 70.1925 25.9415 70.1114 25.8644Z" fill="white"/>
<path d="M68.2588 24.858C68.1777 24.7808 68.1777 24.6565 68.2588 24.5801L69.2894 23.6C69.3705 23.5228 69.5013 23.5228 69.5824 23.6C69.6635 23.6771 69.6635 23.8015 69.5824 23.8787L68.5519 24.8588C68.4707 24.9344 68.3391 24.9344 68.2588 24.858Z" fill="white"/>
<path d="M66.6702 24.5426C66.5891 24.4655 66.5891 24.3411 66.6702 24.2639L67.7008 23.2838C67.7819 23.2067 67.9127 23.2067 67.9938 23.2838C68.0749 23.361 68.0749 23.4853 67.9938 23.5625L66.9632 24.5426C66.8821 24.6198 66.7513 24.6198 66.6702 24.5426Z" fill="white"/>
<path d="M64.9502 24.3537C64.8691 24.2766 64.8691 24.1522 64.9502 24.0758L65.8442 23.2256C65.9253 23.1484 66.0561 23.1484 66.1373 23.2256C66.2184 23.3027 66.2184 23.4271 66.1373 23.5035L65.2433 24.3537C65.1613 24.4309 65.0305 24.4309 64.9502 24.3537Z" fill="white"/>
<path d="M63.1633 24.265L64.0233 23.4463C64.1045 23.3691 64.2352 23.3691 64.3164 23.4463C64.3975 23.5234 64.3975 23.6478 64.3164 23.7242L63.4563 24.5429C63.2634 24.7264 62.9696 24.4492 63.1633 24.265Z" fill="white"/>
<path d="M61.4433 24.2647L62.5682 23.1948C62.6494 23.1177 62.7802 23.1177 62.8613 23.1948C62.9424 23.272 62.9424 23.3964 62.8613 23.4735L61.7363 24.5434C61.5435 24.726 61.2496 24.4489 61.4433 24.2647Z" fill="white"/>
<path d="M59.6568 24.8575C59.5757 24.7804 59.5757 24.656 59.6568 24.5796L60.8496 23.4452C60.9307 23.368 61.0615 23.368 61.1426 23.4452C61.2237 23.5223 61.2237 23.6467 61.1426 23.7239L59.9498 24.8583C59.8687 24.9339 59.7379 24.9339 59.6568 24.8575Z" fill="white"/>
<path d="M56.8706 25.1491C56.7671 25.1034 56.7216 24.9861 56.7696 24.8877C56.8185 24.7893 56.941 24.746 57.0444 24.7917L57.7729 25.1121L58.6073 24.3193C58.6884 24.2422 58.8192 24.2422 58.9003 24.3193C58.9814 24.3965 58.9814 24.5209 58.9003 24.598C57.6429 25.7923 58.1338 25.7033 56.8706 25.1491Z" fill="white"/>
<path d="M55.8524 26.5258L55.0909 25.8015C55.0097 25.7244 55.0097 25.6 55.0909 25.5228C55.172 25.4457 55.3028 25.4457 55.3839 25.5228L56.1454 26.2471C56.2266 26.3242 56.2266 26.4486 56.1454 26.5258C56.0643 26.6021 55.9335 26.6021 55.8524 26.5258Z" fill="white"/>
<path d="M54.0008 27.5327L53.4371 26.9966C53.3559 26.9194 53.3559 26.795 53.4371 26.7179C53.5182 26.6407 53.649 26.6407 53.7293 26.7179L54.293 27.254C54.3741 27.3312 54.3741 27.4555 54.293 27.5319C54.2118 27.6098 54.0811 27.6098 54.0008 27.5327Z" fill="white"/>
<path d="M52.5514 28.734L51.8494 28.0664C51.7683 27.9893 51.7683 27.8649 51.8494 27.7877C51.9305 27.7106 52.0613 27.7106 52.1424 27.7877L52.8444 28.4553C53.0397 28.6427 52.7409 28.9143 52.5514 28.734Z" fill="white"/>
<path d="M51.1245 30.3362L50.5252 29.7662C50.4441 29.6891 50.4441 29.5647 50.5252 29.4876C50.6063 29.4104 50.7371 29.4104 50.8182 29.4876L51.4175 30.0575C51.4986 30.1347 51.4986 30.2591 51.4175 30.3362C51.3364 30.4126 51.2056 30.4126 51.1245 30.3362Z" fill="white"/>
<path d="M50.0347 32.4454L49.0704 31.5275C48.9892 31.4503 48.9892 31.3259 49.0704 31.2488C49.1515 31.1716 49.2823 31.1716 49.3634 31.2488L50.3277 32.1667C50.4089 32.2439 50.4089 32.3682 50.3277 32.4454C50.2458 32.5225 50.115 32.5225 50.0347 32.4454Z" fill="white"/>
<path d="M49.4034 33.6695L48.4747 32.7863C48.3935 32.7091 48.3935 32.5847 48.4747 32.5076C48.5558 32.4304 48.6866 32.4304 48.7677 32.5076L49.6964 33.3909C49.7776 33.468 49.7776 33.5924 49.6964 33.6695C49.6153 33.7467 49.4845 33.7467 49.4034 33.6695Z" fill="white"/>
<path d="M48.8157 34.9348L47.9449 34.1074C47.8638 34.0303 47.8638 33.9059 47.9449 33.8287C48.026 33.7516 48.1568 33.7516 48.2379 33.8287L49.1087 34.6561C49.1898 34.7333 49.1898 34.8577 49.1087 34.9348C49.0276 35.012 48.8968 35.012 48.8157 34.9348Z" fill="white"/>
<path d="M48.1111 36.469L47.1509 35.5558C47.0698 35.4786 47.0698 35.3543 47.1509 35.2771C47.232 35.2 47.3628 35.2 47.444 35.2771L48.4042 36.1903C48.4853 36.2675 48.4853 36.3918 48.4042 36.469C48.323 36.5454 48.1914 36.5454 48.1111 36.469Z" fill="white"/>
<path d="M47.6477 38.6078L46.7537 37.7576C46.6726 37.6804 46.6726 37.556 46.7537 37.4789C46.8348 37.4017 46.9656 37.4017 47.0459 37.4789L47.9399 38.3291C48.021 38.4063 48.021 38.5306 47.9399 38.607C47.8596 38.6849 47.7288 38.6849 47.6477 38.6078Z" fill="white"/>
<path d="M47.7567 40.7252L46.8868 39.897C46.8056 39.8198 46.8056 39.6954 46.8868 39.6183C46.9679 39.5411 47.0987 39.5411 47.1798 39.6183L48.0498 40.4465C48.1309 40.5236 48.1309 40.648 48.0498 40.7244C47.9678 40.8023 47.837 40.8023 47.7567 40.7252Z" fill="white"/>
<path d="M47.78 42.8242L46.886 41.974C46.8049 41.8968 46.8049 41.7725 46.886 41.6953C46.9672 41.6182 47.0979 41.6182 47.1791 41.6953L48.073 42.5455C48.1542 42.6227 48.1542 42.7471 48.073 42.8242C47.9919 42.9014 47.8611 42.9014 47.78 42.8242Z" fill="white"/>
<path d="M48.0458 44.713L47.6146 44.3029C47.5334 44.2257 47.5334 44.1013 47.6146 44.0242C47.6957 43.947 47.8265 43.947 47.9076 44.0242C48.1286 44.2344 48.5474 44.5138 48.3388 44.713C48.2577 44.7894 48.1261 44.7894 48.0458 44.713Z" fill="white"/>
<path d="M48.766 46.7815L48.011 46.0643C47.9299 45.9872 47.9299 45.8628 48.011 45.7856C48.0922 45.7085 48.2229 45.7085 48.3032 45.7856L49.0582 46.5028C49.1393 46.58 49.1393 46.7044 49.0582 46.7815C48.9779 46.8587 48.8462 46.8587 48.766 46.7815Z" fill="white"/>
<path d="M48.6072 48.141C48.5261 48.0638 48.5261 47.9395 48.6072 47.8623L49.5012 47.0121C49.5823 46.9349 49.7131 46.9349 49.7942 47.0121C49.8754 47.0892 49.8754 47.2136 49.7942 47.2908L48.9003 48.141C48.8191 48.2174 48.6883 48.2174 48.6072 48.141Z" fill="white"/>
<path d="M49.4671 49.2741C49.386 49.197 49.386 49.0726 49.4671 48.9955L50.1285 48.3665C50.2096 48.2893 50.3404 48.2893 50.4215 48.3665C50.5026 48.4436 50.5026 48.568 50.4215 48.6451L49.7601 49.2741C49.679 49.3505 49.5482 49.3505 49.4671 49.2741Z" fill="white"/>
<path d="M50.6724 50.4641C50.6195 50.4641 50.5665 50.4452 50.5259 50.4066C50.4448 50.3295 50.4448 50.2051 50.5259 50.1279L51.0971 49.5847C51.1782 49.5076 51.309 49.5076 51.3901 49.5847C51.4712 49.6619 51.4712 49.7863 51.3901 49.8634L50.819 50.4066C50.7784 50.4452 50.7254 50.4641 50.6724 50.4641Z" fill="white"/>
<path d="M51.0545 51.7909C50.9734 51.7138 50.9734 51.5894 51.0545 51.5122L51.7498 50.851C51.8309 50.7738 51.9617 50.7738 52.0428 50.851C52.124 50.9281 52.124 51.0525 52.0428 51.1296L51.3475 51.7909C51.2664 51.8681 51.1356 51.8681 51.0545 51.7909Z" fill="white"/>
<path d="M52.5105 52.2949C52.4294 52.2178 52.4294 52.0934 52.5105 52.0162L53.3739 51.1959C53.455 51.1188 53.5858 51.1188 53.6661 51.1959C53.7472 51.2731 53.7472 51.3975 53.6661 51.4746L52.8036 52.2949C52.7225 52.3713 52.5908 52.3713 52.5105 52.2949Z" fill="white"/>
<path d="M53.3709 52.7979C53.2898 52.7207 53.2898 52.5963 53.3709 52.5192L54.0662 51.8579C54.1473 51.7808 54.2781 51.7808 54.3592 51.8579C54.4404 51.9351 54.4404 52.0594 54.3592 52.1366L53.6639 52.7979C53.5828 52.875 53.4512 52.875 53.3709 52.7979Z" fill="white"/>
<path d="M54.9588 53.5526C54.8777 53.4755 54.8777 53.3511 54.9588 53.2739L55.9322 52.3481C56.0134 52.271 56.1441 52.271 56.2253 52.3481C56.3064 52.4253 56.3064 52.5497 56.2253 52.6268L55.2518 53.5526C55.1707 53.6298 55.0399 53.6298 54.9588 53.5526Z" fill="white"/>
<path d="M56.2159 54.1823C56.1347 54.1052 56.1347 53.9808 56.2159 53.9036L56.9468 53.2085C57.0279 53.1313 57.1587 53.1313 57.239 53.2085C57.3201 53.2856 57.3201 53.41 57.239 53.4872L56.5081 54.1823C56.4278 54.2587 56.297 54.2587 56.2159 54.1823Z" fill="white"/>
<path d="M57.4731 54.2818L58.2479 53.5449C58.329 53.4678 58.4598 53.4678 58.5409 53.5449C58.622 53.6221 58.622 53.7465 58.5409 53.8236L57.7661 54.5605C57.5733 54.7431 57.2794 54.466 57.4731 54.2818Z" fill="white"/>
<path d="M58.9292 54.8742C58.8481 54.797 58.8481 54.6726 58.9292 54.5955L59.9333 53.6398C60.0144 53.5626 60.1452 53.5626 60.2264 53.6398C60.3075 53.7169 60.3075 53.8413 60.2264 53.9185L59.2223 54.8742C59.1412 54.9513 59.0095 54.9513 58.9292 54.8742Z" fill="white"/>
<path d="M60.6495 55.1887C60.5683 55.1115 60.5683 54.9871 60.6495 54.91L61.382 54.2133C61.4632 54.1361 61.5939 54.1361 61.6751 54.2133C61.7562 54.2904 61.7562 54.4148 61.6751 54.4919L60.9425 55.1887C60.8614 55.2658 60.7298 55.2658 60.6495 55.1887Z" fill="white"/>
<path d="M62.7666 55.0365L63.5943 54.2493C63.6754 54.1721 63.8062 54.1721 63.8874 54.2493C63.9685 54.3264 63.9685 54.4508 63.8874 54.528L63.0596 55.3152C62.8667 55.4978 62.5729 55.2207 62.7666 55.0365Z" fill="white"/>
<path d="M65.0828 55.1261C65.0017 55.0489 65.0017 54.9246 65.0828 54.8474L66.2384 53.7484C66.3195 53.6713 66.4503 53.6713 66.5314 53.7484C66.6125 53.8256 66.6125 53.9499 66.5314 54.0271L65.3758 55.1261C65.2947 55.2032 65.1631 55.2032 65.0828 55.1261Z" fill="white"/>
<path d="M67.5965 54.5593C67.5154 54.4822 67.5154 54.3578 67.5965 54.2806L68.459 53.4603C68.5401 53.3832 68.6709 53.3832 68.752 53.4603C68.8332 53.5375 68.8332 53.6619 68.752 53.739L67.8895 54.5593C67.8084 54.6365 67.6776 54.6365 67.5965 54.5593Z" fill="white"/>
<path d="M70.1114 53.6155C70.0303 53.5384 70.0303 53.414 70.1114 53.3368L70.6403 52.833C70.7214 52.7559 70.8522 52.7559 70.9333 52.833C71.0145 52.9102 71.0145 53.0345 70.9333 53.1117L70.4044 53.6155C70.3233 53.6927 70.1925 53.6927 70.1114 53.6155Z" fill="white"/>
<path d="M51.1862 37.1049C51.1688 37.1049 51.1506 37.1025 51.1324 37.0978C51.0223 37.0695 50.9569 36.9608 50.9867 36.8561C52.062 33.0994 54.9136 29.8646 58.6153 28.202C62.3179 26.5401 66.7564 26.5015 70.4896 28.0988C70.5939 28.1437 70.6402 28.2602 70.5931 28.3594C70.5459 28.4594 70.4217 28.5027 70.3191 28.4578C66.6951 26.9069 62.3858 26.9439 58.7917 28.5578C55.1975 30.1716 52.4287 33.312 51.3848 36.9585C51.3608 37.0474 51.2781 37.1049 51.1862 37.1049Z" fill="white"/>
<path d="M52.286 35.4315L51.1966 35.1599C51.0865 35.1323 51.0203 35.0252 51.0493 34.9197C51.0783 34.815 51.1892 34.7497 51.3018 34.7796L52.3903 35.0512C52.5012 35.0788 52.5674 35.1858 52.5384 35.2913C52.5086 35.3992 52.3911 35.4598 52.286 35.4315Z" fill="white"/>
<path d="M52.8633 34.2046L52.0488 33.6788C51.9544 33.6174 51.9296 33.4953 51.9934 33.4056C52.0587 33.3158 52.187 33.293 52.2806 33.3528L53.0951 33.8779C53.1895 33.9393 53.2143 34.0614 53.1506 34.1511C53.086 34.2416 52.9585 34.2661 52.8633 34.2046Z" fill="white"/>
<path d="M54.2448 32.4624L53.3756 31.8995C53.2813 31.8381 53.2573 31.7161 53.321 31.6263C53.3864 31.5358 53.5147 31.5137 53.6082 31.5744L54.4774 32.1372C54.5718 32.1986 54.5958 32.3207 54.532 32.4104C54.4691 32.4994 54.34 32.5246 54.2448 32.4624Z" fill="white"/>
<path d="M55.2748 31.3375L54.3411 30.6085C54.2533 30.54 54.2401 30.4156 54.3121 30.3314C54.3841 30.2479 54.5141 30.2353 54.6035 30.3038L55.5372 31.0328C55.6249 31.1021 55.6382 31.2257 55.5661 31.3099C55.4933 31.3942 55.3625 31.406 55.2748 31.3375Z" fill="white"/>
<path d="M56.4113 30.2679L55.6638 29.2792C55.5968 29.191 55.6183 29.0674 55.711 29.0044C55.8029 28.9407 55.9337 28.9603 55.9999 29.0493L56.7474 30.0381C56.8144 30.1262 56.7929 30.2491 56.7002 30.3128C56.6091 30.375 56.48 30.3577 56.4113 30.2679Z" fill="white"/>
<path d="M57.8556 29.5124L57.1065 28.4103C57.0444 28.3189 57.0717 28.1969 57.1678 28.1379C57.2629 28.0804 57.3921 28.1048 57.4542 28.1961L58.2033 29.2983C58.2654 29.3896 58.2372 29.5116 58.142 29.5707C58.0468 29.6297 57.9185 29.6045 57.8556 29.5124Z" fill="white"/>
<path d="M59.9758 28.6869C59.6546 28.3145 59.4775 27.8249 59.4899 27.3423C59.4924 27.2336 59.6074 27.1478 59.7018 27.1502C59.816 27.1526 59.9062 27.2431 59.9038 27.3517C59.893 27.7406 60.0362 28.1366 60.2953 28.4366C60.3673 28.5208 60.3549 28.6444 60.2663 28.7137C60.1811 28.7822 60.0503 28.7719 59.9758 28.6869Z" fill="white"/>
<path d="M61.4968 28.3681C61.275 27.9139 61.1351 27.4313 61.0804 26.933C61.0688 26.8251 61.1516 26.7283 61.265 26.7172C61.3784 26.7015 61.4802 26.7849 61.4918 26.8928C61.5415 27.3478 61.669 27.7887 61.8709 28.2036C61.919 28.302 61.8743 28.4185 61.7708 28.4649C61.6706 28.509 61.5456 28.4681 61.4968 28.3681Z" fill="white"/>
<path d="M63.3816 27.902L63.1797 26.7747C63.1606 26.6676 63.2368 26.5661 63.3494 26.5472C63.4611 26.5307 63.5687 26.6015 63.5878 26.7086L63.7897 27.8359C63.8088 27.943 63.7334 28.0445 63.62 28.0634C63.51 28.0807 63.4007 28.0107 63.3816 27.902Z" fill="white"/>
<path d="M65.6136 28.0642C65.6103 28.0642 65.6078 28.0642 65.6045 28.0642C65.4903 28.0595 65.4017 27.9674 65.4075 27.8587L65.4646 26.6755C65.4696 26.5669 65.5631 26.4795 65.6807 26.4881C65.7949 26.4929 65.8835 26.585 65.8777 26.6936L65.8205 27.8761C65.8156 27.9823 65.7237 28.0642 65.6136 28.0642Z" fill="white"/>
<path d="M67.5189 28.1795C67.5139 28.1795 67.5081 28.1795 67.5023 28.1795C67.3889 28.1708 67.3028 28.0764 67.3119 27.9685L67.3914 26.9601C67.3997 26.8514 67.4907 26.7664 67.6132 26.7782C67.7266 26.7869 67.8127 26.8813 67.8036 26.99L67.7242 27.9984C67.7159 28.1008 67.6257 28.1795 67.5189 28.1795Z" fill="white"/>
<path d="M68.8508 28.5772C68.7564 28.5158 68.7316 28.3938 68.7954 28.304C68.9808 28.0435 69.0776 27.727 69.0669 27.4121C69.0635 27.3035 69.1529 27.2121 69.2672 27.209C69.3955 27.2121 69.4766 27.2909 69.4807 27.3995C69.494 27.7971 69.3723 28.197 69.138 28.5253C69.0735 28.6142 68.946 28.6378 68.8508 28.5772Z" fill="white"/>
</mask>
<g mask="url(#mask0)">
<rect x="24.5232" y="10.7227" width="70.0718" height="22.9423" fill="white"/>
<rect x="61.2817" y="33.6649" width="33.3128" height="41.5147" fill="white"/>
</g>
</svg>
