<svg width="100" height="100" viewBox="0 0 100 100" fill="none" xmlns="http://www.w3.org/2000/svg">
<path d="M53.1888 66.3719L51.6038 64.7859C51.5058 64.6879 51.5058 64.5299 51.6038 64.4319C51.7018 64.3339 51.8598 64.3339 51.9578 64.4319L53.5428 66.0179C53.6408 66.1159 53.6408 66.2739 53.5428 66.3719C53.4448 66.4689 53.2868 66.4689 53.1888 66.3719Z" fill="white"/>
<path d="M53.8688 64.88L52.4058 63.417C52.3078 63.319 52.3078 63.161 52.4058 63.063C52.5038 62.965 52.6618 62.965 52.7598 63.063L54.2228 64.526C54.3208 64.624 54.3208 64.782 54.2228 64.88C54.1248 64.978 53.9668 64.978 53.8688 64.88Z" fill="white"/>
<path d="M62.7007 65.4061L60.9487 63.6541C60.8507 63.5561 60.8507 63.3981 60.9487 63.3001C61.0467 63.2021 61.2047 63.2021 61.3027 63.3001L63.0547 65.0521C63.1527 65.1501 63.1527 65.3081 63.0547 65.4061C62.9567 65.5031 62.7987 65.5031 62.7007 65.4061Z" fill="white"/>
<path d="M63.9479 64.3871L62.4119 62.8511C62.3139 62.7531 62.3139 62.5951 62.4119 62.4971C62.5099 62.3991 62.6679 62.3991 62.7659 62.4971L64.3019 64.0331C64.3999 64.1311 64.3999 64.2891 64.3019 64.3871C64.2039 64.4841 64.0459 64.4841 63.9479 64.3871Z" fill="white"/>
<path d="M51.3677 65.919C51.2697 65.821 51.2697 65.663 51.3677 65.565L53.1927 63.74C53.2907 63.642 53.4487 63.642 53.5467 63.74C53.6447 63.838 53.6447 63.996 53.5467 64.094L51.7217 65.919C51.6237 66.017 51.4657 66.017 51.3677 65.919Z" fill="white"/>
<path d="M61.3269 65.117C61.2289 65.019 61.2289 64.861 61.3269 64.763L63.2439 62.846C63.3419 62.748 63.4999 62.748 63.5969 62.846C63.6949 62.944 63.6949 63.102 63.5969 63.2L61.6799 65.117C61.5829 65.214 61.4249 65.214 61.3269 65.117Z" fill="white"/>
<path d="M63.4978 64.2911L64.5878 63.2011C64.8208 62.9691 65.1758 63.3201 64.9418 63.5551L63.8518 64.6451C63.6188 64.8771 63.2638 64.5251 63.4978 64.2911Z" fill="white"/>
<path d="M71.3837 36.268L69.7527 34.637C69.6547 34.539 69.6547 34.381 69.7527 34.283C69.8507 34.185 70.0087 34.185 70.1067 34.283L71.7377 35.914C71.9697 36.147 71.6177 36.502 71.3837 36.268Z" fill="white"/>
<path d="M72.5829 34.8639L71.3389 33.6199C71.2409 33.5219 71.2409 33.3639 71.3389 33.2659C71.4369 33.1679 71.5949 33.1679 71.6929 33.2659L72.9369 34.5099C73.1689 34.7429 72.8179 35.0989 72.5829 34.8639Z" fill="white"/>
<path d="M72.1538 33.2551L71.5828 32.6841C71.4848 32.5861 71.4848 32.4281 71.5828 32.3311C71.6808 32.2331 71.8388 32.2331 71.9368 32.3311L72.5078 32.9021C72.6058 33.0001 72.6058 33.1581 72.5078 33.2561C72.4088 33.3531 72.2508 33.3531 72.1538 33.2551Z" fill="white"/>
<path d="M69.9558 36.032L71.5228 34.465C71.7548 34.233 72.1108 34.584 71.8768 34.819L70.3098 36.386C70.0768 36.618 69.7218 36.266 69.9558 36.032Z" fill="white"/>
<path d="M71.2717 34.1001C71.2077 34.1001 71.1437 34.0761 71.0947 34.0271C70.9967 33.9291 70.9967 33.7711 71.0947 33.6731L72.0717 32.6961C72.1697 32.5981 72.3277 32.5981 72.4257 32.6961C72.5237 32.7941 72.5237 32.9521 72.4257 33.0491L71.4487 34.0261C71.3997 34.0761 71.3357 34.1001 71.2717 34.1001Z" fill="white"/>
<path d="M33.7419 72.4719C33.5739 72.4719 32.0189 70.8519 31.8999 70.7329C31.8019 70.6349 31.8019 70.4769 31.8999 70.3789C31.9979 70.2809 32.1559 70.2809 32.2539 70.3789L33.9189 72.0449C34.0759 72.2029 33.9629 72.4719 33.7419 72.4719Z" fill="white"/>
<path d="M35.5019 73.2299L34.1089 71.8369C34.0109 71.7389 34.0109 71.5809 34.1089 71.4829C34.2069 71.3849 34.3649 71.3849 34.4629 71.4829L35.8549 72.8759C35.9529 72.9739 35.9529 73.1319 35.8549 73.2299C35.7579 73.3279 35.5989 73.3279 35.5019 73.2299Z" fill="white"/>
<path d="M36.8478 72.367L35.8858 71.405C35.7878 71.307 35.7878 71.149 35.8858 71.051C35.9838 70.953 36.1418 70.953 36.2398 71.051L37.2018 72.013C37.2998 72.111 37.2998 72.269 37.2018 72.367C37.1038 72.465 36.9458 72.465 36.8478 72.367Z" fill="white"/>
<path d="M37.7696 70.647L36.7986 69.676C36.7006 69.578 36.7006 69.42 36.7986 69.322C36.8966 69.224 37.0546 69.224 37.1526 69.322L38.1236 70.293C38.2216 70.391 38.2216 70.549 38.1236 70.647C38.0256 70.745 37.8666 70.745 37.7696 70.647Z" fill="white"/>
<path d="M38.3838 69.052L37.5188 68.187C37.4208 68.089 37.4208 67.931 37.5188 67.833C37.6168 67.735 37.7748 67.735 37.8728 67.833L38.7378 68.698C38.8358 68.796 38.8358 68.954 38.7378 69.052C38.6388 69.15 38.4808 69.15 38.3838 69.052Z" fill="white"/>
<path d="M38.7596 68.036L37.9026 67.179C37.8046 67.081 37.8046 66.923 37.9026 66.825C38.0006 66.727 38.1586 66.727 38.2566 66.825L39.1136 67.682C39.2116 67.78 39.2116 67.938 39.1136 68.036C39.0156 68.134 38.8576 68.134 38.7596 68.036Z" fill="white"/>
<path d="M32.3318 71.8681L33.2018 70.9981C33.2998 70.9001 33.4578 70.9001 33.5558 70.9981C33.6538 71.0961 33.6538 71.2541 33.5558 71.3521L32.6858 72.2221C32.4528 72.4541 32.0978 72.1021 32.3318 71.8681Z" fill="white"/>
<path d="M33.8689 72.9251L35.7439 71.0501C35.8419 70.9521 35.9999 70.9521 36.0979 71.0501C36.1959 71.1481 36.1959 71.3061 36.0979 71.4041L34.2219 73.2791C33.9899 73.5111 33.6349 73.1591 33.8689 72.9251Z" fill="white"/>
<path d="M36.5098 70.3011C36.4118 70.2031 36.4118 70.0451 36.5098 69.9471L37.9898 68.4661C38.0878 68.3681 38.2458 68.3681 38.3438 68.4661C38.4418 68.5641 38.4418 68.7221 38.3438 68.8201L36.8638 70.3011C36.7658 70.3981 36.6078 70.3981 36.5098 70.3011Z" fill="white"/>
<path d="M37.8396 67.8291C37.7756 67.8291 37.7116 67.8051 37.6626 67.7561C37.5646 67.6581 37.5646 67.5001 37.6626 67.4021L38.1926 66.8721C38.2906 66.7741 38.4486 66.7741 38.5466 66.8721C38.6446 66.9701 38.6446 67.1281 38.5466 67.2261L38.0166 67.7561C37.9676 67.8041 37.9036 67.8291 37.8396 67.8291Z" fill="white"/>
<path d="M44.9958 68.7419C44.8278 68.7419 43.3038 67.1539 43.1858 67.0349C43.0878 66.9369 43.0878 66.7789 43.1858 66.6809C43.2838 66.5829 43.4418 66.5829 43.5398 66.6809L45.1728 68.3139C45.2708 68.4119 45.2708 68.5699 45.1728 68.6679C45.1238 68.7169 45.0598 68.7419 44.9958 68.7419Z" fill="white"/>
<path d="M45.7796 67.8031L44.5786 66.6021C44.4806 66.5041 44.4806 66.3461 44.5786 66.2481C44.6766 66.1501 44.8346 66.1501 44.9316 66.2481L46.1326 67.4491C46.2306 67.5471 46.2306 67.7051 46.1326 67.8031C46.0346 67.9011 45.8766 67.9011 45.7796 67.8031Z" fill="white"/>
<path d="M46.3018 66.7891L45.0108 65.4981C44.9128 65.4001 44.9128 65.2421 45.0108 65.1441C45.1088 65.0461 45.2668 65.0461 45.3648 65.1441L46.6558 66.4351C46.7538 66.5331 46.7538 66.6911 46.6558 66.7891C46.5578 66.8871 46.3998 66.8871 46.3018 66.7891Z" fill="white"/>
<path d="M43.4258 68.0259L45.2068 66.2449C45.3048 66.1469 45.4628 66.1469 45.5608 66.2449C45.6588 66.3429 45.6588 66.5009 45.5608 66.5979L43.7798 68.3799C43.5468 68.6119 43.1918 68.2609 43.4258 68.0259Z" fill="white"/>
<path d="M45.4906 67.738C45.7776 67.451 46.2126 66.844 46.4756 67.107C46.7386 67.37 46.1306 67.805 45.8446 68.092C45.6126 68.324 45.2566 67.972 45.4906 67.738Z" fill="white"/>
<path d="M27.6499 64.5139L26.4729 63.3369C26.3749 63.2389 26.3749 63.0809 26.4729 62.9829C26.5709 62.8849 26.7289 62.8849 26.8259 62.9829L28.0029 64.1599C28.1009 64.2579 28.1009 64.4159 28.0029 64.5139C27.9049 64.6109 27.7469 64.6109 27.6499 64.5139Z" fill="white"/>
<path d="M29.5318 64.5159C29.3668 64.5159 28.2217 63.3099 28.1047 63.1929C28.0068 63.0949 28.0068 62.9369 28.1047 62.8389C28.2027 62.7409 28.3608 62.7409 28.4588 62.8389L29.7088 64.0889C29.8068 64.1869 29.8068 64.3449 29.7088 64.4419C29.6598 64.4909 29.5958 64.5159 29.5318 64.5159Z" fill="white"/>
<path d="M31.0916 64.1139L29.8826 62.9049C29.6496 62.6729 30.0016 62.3169 30.2366 62.5509L31.4456 63.7599C31.5436 63.8579 31.5436 64.0159 31.4456 64.1139C31.3476 64.2109 31.1896 64.2109 31.0916 64.1139Z" fill="white"/>
<path d="M32.7699 63.3431L31.9959 62.5691C31.7629 62.3361 32.1149 61.9811 32.3499 62.2151L33.1239 62.9901C33.2219 63.0881 33.2219 63.2461 33.1239 63.3441C33.0259 63.4401 32.8679 63.4401 32.7699 63.3431Z" fill="white"/>
<path d="M26.4729 63.992L28.2049 62.26C28.3029 62.162 28.4609 62.162 28.5589 62.26C28.6569 62.358 28.6569 62.516 28.5589 62.614L26.8269 64.346C26.5939 64.578 26.2389 64.226 26.4729 63.992Z" fill="white"/>
<path d="M28.9696 63.6559L30.3826 62.2429C30.4806 62.1449 30.6386 62.1449 30.7356 62.2429C30.8336 62.3409 30.8336 62.4989 30.7356 62.5969L29.3226 64.0099C29.0916 64.2419 28.7356 63.8899 28.9696 63.6559Z" fill="white"/>
<path d="M31.7557 62.8389L32.3597 62.2349C32.5917 62.0019 32.9477 62.3539 32.7137 62.5879L32.1097 63.1929C31.8767 63.4249 31.5197 63.0749 31.7557 62.8389Z" fill="white"/>
<path d="M41.9599 90.2188C40.4662 90.2188 38.4433 89.6934 37.6444 88.8155C36.4555 87.5074 36.9358 85.4782 37.1653 84.5038L38.7418 77.8293C37.1641 78.3059 35.5074 78.5668 34.1191 78.9505C29.2945 80.2812 28.3614 76.9126 29.5616 74.7969C31.0565 72.1632 37.7886 69.7703 40.6656 69.6851L42.3348 62.6193C40.3797 61.7264 38.664 60.4497 37.3484 58.9058C37.2556 58.7967 37.1653 58.6851 37.0776 58.5735C34.9706 59.3937 32.4875 60.1349 30.4483 60.713C29.7685 63.5825 28.3476 69.2398 26.0776 70.8589C24.1588 72.2284 20.2735 71.8283 21.3019 66.8733C21.5928 65.4762 21.9778 64.0816 22.4494 62.7184C15.2143 64.2911 13.4021 64.5469 11.9574 63.4822C10.6242 62.5002 9.59712 59.1868 10.1552 57.6705C10.7647 56.0101 12.7851 55.4971 13.7571 55.2501L20.4027 53.5583C19.1636 52.2903 18.381 51.1704 17.2699 49.979C16.2641 48.9004 15.2871 47.5987 15.6671 46.1276C16.0258 44.7405 17.4768 44.0144 18.7272 44.0144C20.1155 44.0608 21.2404 44.6916 22.176 45.3024C24.7947 47.0167 27.4873 49.6705 28.5144 51.4952L34.173 50.0555C34.1943 47.4231 34.9832 46.1501 35.2967 44.2113C35.3845 43.6695 35.5061 43.1402 35.6579 42.6311C33.9009 41.165 32.1815 39.4832 30.9687 38.2893C28.6486 38.9715 24.7533 39.9811 22.334 39.9811C18.845 39.9811 17.4505 37.4377 18.0775 35.6907C18.5528 34.3664 19.9299 33.7707 21.0774 33.3995C22.4394 32.958 23.844 32.6006 25.2662 32.336C23.6935 30.5902 22.2675 28.9235 20.9256 27.2668C20.0967 26.2422 19.2275 25.0294 19.3956 23.6022C19.59 21.9581 21.959 19.4247 23.5518 19.1576C25.0781 18.8993 26.3422 19.9502 27.4384 21.0877L32.199 26.024C32.6555 24.4312 33.3327 22.8911 33.7566 21.5292C34.1968 20.1208 34.8427 18.6271 36.3075 18.2283C37.5541 17.8884 39.0365 18.6497 39.715 19.9427C41.1209 22.6253 39.4604 29.6672 38.0094 32.0488L41.8119 35.9917C43.969 34.9571 46.565 34.2472 48.9353 34.0416C49.1899 32.4062 49.6188 30.3344 50.2421 27.7396C48.6719 26.2936 46.8961 24.5704 45.3385 22.6027C44.4919 21.5329 43.688 20.3503 43.5363 18.9595C43.3758 17.4796 44.2123 15.6812 45.8414 15.3576C47.2234 15.0855 48.4688 15.9797 49.3504 16.7484C50.4277 17.6865 51.4536 18.7049 52.4117 19.7847C53.0739 17.6251 53.785 15.5044 54.53 13.4614C54.9802 12.2248 55.5721 10.8553 56.8852 10.2634C57.2727 10.0878 57.7731 10 58.3738 10C59.8876 10 62.0246 10.5882 62.836 11.5388C63.9848 12.8845 63.4418 14.8974 63.1822 15.8643L61.4013 22.4873C62.1989 22.2729 67.2016 21.2219 68.0243 21.2219C68.9323 21.2219 69.6635 21.4828 70.2002 21.997C71.4544 23.2009 71.6789 26.0214 67.7321 28.0744C64.9956 29.4966 61.3449 30.5689 59.2404 30.5689C59.2367 30.5689 59.2329 30.5689 59.2292 30.5689L57.7769 35.9742C60.0958 37.3362 61.8879 39.2362 63.1157 41.6315C65.1499 40.7787 67.5327 39.9874 69.4979 39.3641C69.9256 37.2722 70.4849 34.8605 71.3653 32.5128C71.8444 31.2348 72.4426 29.9356 73.555 29.089C74.8367 28.1121 76.8521 28.1296 77.8303 29.2032C78.7772 30.2428 78.6593 31.739 78.4511 32.9267C78.2028 34.3338 77.8604 35.7397 77.4315 37.1167C79.62 36.5711 81.8034 36.0833 83.9404 35.6669C85.3087 35.3998 86.7447 35.2368 87.8947 36.0319C89.2554 36.9725 90.3854 40.2533 89.875 41.7858C89.3156 43.4626 87.3115 44.0382 86.3496 44.3154L79.7592 46.2091C80.4289 46.8537 81.0509 47.5523 81.6592 48.2358C82.1182 48.7512 82.5622 49.2503 82.9998 49.6918C84.0395 50.739 85.0566 52.0094 84.7218 53.4918C84.3982 54.9253 82.8857 55.6991 81.6266 55.6991C80.3398 55.694 79.1948 55.0983 78.2429 54.5152C75.5729 52.8835 72.8 50.3138 71.7177 48.5204L64.6833 50.5421C64.4237 52.6653 63.7453 54.5929 62.6178 56.4064C64.7084 57.88 66.7564 59.721 68.8383 61.6461C70.8699 60.9802 73.2453 60.2703 75.7259 59.8715C77.0929 59.6508 78.5025 59.5317 79.7855 60.0785C81.155 60.6604 82.3151 62.2682 81.8034 63.8484C81.1412 65.8913 77.7701 66.7567 74.7226 67.4226C80.1342 73.0724 81.002 74.3052 80.8565 75.9732C80.7136 77.6212 78.4235 80.2272 76.8383 80.5433C75.3158 80.8468 74.0216 79.8322 72.8941 78.7336L67.9855 73.9466C67.7572 74.847 67.4587 75.7337 67.1665 76.6003C66.3727 78.9543 66.0579 81.2732 64.1165 81.8639C62.8862 82.2376 61.3725 81.5177 60.6576 80.2548C60.0331 79.1474 59.9829 77.8569 60.0168 76.742C60.1133 73.613 60.9724 69.9321 61.9933 68.1036L56.0763 62.3334C54.4572 63.1523 52.7667 63.6841 51.0385 63.9198C50.8717 66.4833 50.3249 69.4129 49.7379 72.241C51.352 73.6393 53.1818 75.3085 54.7958 77.2249C55.675 78.2683 56.5152 79.4246 56.7084 80.8104C56.9153 82.2852 56.134 84.1075 54.5149 84.4825C52.3791 84.9728 49.7593 82.3216 47.8116 80.2586C47.2159 82.437 46.57 84.5803 45.8878 86.6446C45.4739 87.8962 44.9246 89.282 43.6329 89.9128C43.2077 90.1135 42.6446 90.2188 41.9599 90.2188ZM40.2242 77.0129L38.3869 84.791C38.0972 86.0175 37.9191 87.2516 38.5725 87.9714C39.261 88.7289 42.079 89.2695 43.0811 88.7804C44.3352 88.1671 45.1052 85.5924 46.8961 78.8239C46.955 78.6006 47.1331 78.4276 47.3589 78.3736C47.5834 78.321 47.8204 78.3962 47.9734 78.5693C49.136 79.8886 50.4089 81.1177 51.7583 82.2238C54.7093 84.638 55.6399 82.2326 55.4655 80.9784C55.3238 79.9664 54.7118 79.0672 53.8352 78.0262C52.1835 76.066 50.281 74.3567 48.6381 72.9433C48.465 72.794 48.386 72.5633 48.4337 72.34C49.0795 69.2561 49.6928 66.0293 49.8144 63.3254C49.8282 63.0144 50.069 62.761 50.3788 62.7297C59.1828 61.8455 52.64 57.2253 63.2298 67.553C63.4518 67.7687 63.4819 68.1149 63.3013 68.367C62.4071 69.6161 61.3762 73.2932 61.2696 76.7746C61.1705 80.0203 62.6617 80.9935 63.749 80.6574C65.0032 80.2749 65.3342 78.0977 65.9764 76.1927C67.8249 70.7097 65.8936 70.1503 73.7682 77.8293C74.6173 78.6571 75.6105 79.5074 76.5913 79.3067C77.5431 79.1173 79.5033 77.0242 79.6049 75.8579C79.714 74.6037 78.5327 73.1276 73.0233 67.464C72.8615 67.2985 72.8051 67.0564 72.8753 66.8357C72.9455 66.615 73.1324 66.4519 73.3594 66.4105C74.9308 66.1233 80.0915 65.046 80.6082 63.4558C81.0146 62.2017 79.7429 60.4886 75.9228 61.1043C73.3857 61.5119 70.9377 62.2644 68.8784 62.9466C68.6627 63.0181 68.4219 62.9667 68.2551 62.8112C65.95 60.6742 63.6913 58.6274 61.4076 57.0899C61.2696 56.9971 61.1731 56.8528 61.143 56.6898C61.1116 56.5268 61.1455 56.3562 61.2395 56.2195C62.5313 54.3132 63.2637 52.2753 63.4806 49.9915C63.5045 49.7344 63.6838 49.5187 63.9309 49.4472L71.8557 47.1698C72.1529 47.0857 72.469 47.2274 72.5981 47.5096C74.0717 50.7139 82.6023 57.1676 83.4965 53.2084C83.6971 52.3179 82.907 51.3736 82.1082 50.5684C81.6554 50.1119 81.1952 49.5965 80.7211 49.0635C76.8446 44.7079 75.4776 46.1276 86.0022 43.1039C87.2137 42.7552 88.3763 42.3063 88.6835 41.3832C88.9908 40.4627 88.143 37.7224 87.1811 37.0565C86.5064 36.5912 85.2849 36.674 84.18 36.8909C81.7056 37.3738 79.1672 37.9507 76.6326 38.6066C76.4069 38.6655 76.1699 38.594 76.0131 38.4235C75.8563 38.2529 75.8062 38.0109 75.8827 37.7927C76.4633 36.1322 76.9123 34.4203 77.2146 32.7022C77.3726 31.7979 77.4804 30.6768 76.901 30.0409C76.5637 29.6709 76.0934 29.5919 75.7573 29.5919C75.2531 29.5919 74.7126 29.7738 74.3125 30.0798C73.4998 30.6981 73.0158 31.6725 72.5379 32.9467C71.6375 35.3484 71.0794 37.8441 70.6517 39.9686C70.6066 40.1931 70.4435 40.3736 70.2253 40.4426C68.0519 41.1274 65.2728 42.0379 63.0643 43.0098C62.7495 43.1478 62.3858 43.0086 62.2428 42.6988C61.0602 40.1416 59.2091 38.1651 56.7435 36.8232C56.4889 36.684 56.3622 36.3893 56.4375 36.1096L58.1481 29.7462C58.2284 29.4465 58.5131 29.2496 58.8241 29.2859C61.997 29.6496 72.3548 25.7932 69.3311 22.8937C69.0327 22.6065 68.605 22.4685 68.0243 22.4685C67.4738 22.4685 62.2052 23.4731 60.7103 24.0048C60.4896 24.0838 60.245 24.0324 60.0744 23.8744C59.9039 23.7164 59.8336 23.4768 59.8938 23.2511L61.9694 15.5319C62.2968 14.3154 62.5125 13.0877 61.8804 12.3477C61.4552 11.8498 59.796 11.2491 58.3726 11.2491C57.9638 11.2491 57.6176 11.303 57.4006 11.4021C56.5328 11.7947 56.0725 12.8908 55.7088 13.8865C54.846 16.2506 54.0308 18.7237 53.2821 21.2357C53.2169 21.4577 53.0338 21.6245 52.8068 21.6709C52.576 21.7173 52.3453 21.6345 52.1985 21.4564C51.0761 20.1007 49.8408 18.8328 48.5265 17.689C47.8505 17.0996 46.9601 16.4111 46.0872 16.5829C45.1955 16.761 44.6851 17.9047 44.7842 18.8203C44.8945 19.8348 45.4789 20.7529 46.323 21.8201C47.9157 23.8317 49.7643 25.5975 51.3633 27.0599C51.5326 27.2141 51.6028 27.4486 51.5489 27.6706C50.8215 30.6742 50.3487 32.9781 50.1042 34.715C50.0628 35.011 49.817 35.2368 49.5185 35.2531C47.0278 35.3935 44.2047 36.1636 41.9674 37.3111C41.7203 37.4365 41.4218 37.3888 41.23 37.1882C32.8361 28.4871 38.2251 35.9679 38.9976 23.3928C39.0553 22.4522 39.0541 21.3749 38.6063 20.5221C38.1975 19.7445 37.3296 19.2492 36.6386 19.4348C35.7582 19.6743 35.2929 20.8143 34.9556 21.8991C34.4163 23.6248 33.5271 25.5348 33.1521 27.3972C33.1057 27.6267 32.9377 27.8098 32.7132 27.875C32.4875 27.939 32.2479 27.8763 32.0861 27.7082L26.5366 21.9543C25.7114 21.0977 24.747 20.2299 23.76 20.3904C22.8044 20.551 20.7789 22.5826 20.6422 23.7452C20.5318 24.6883 21.2341 25.649 21.9013 26.4742C23.4427 28.3792 25.0994 30.2968 26.9643 32.336C27.1211 32.5065 27.17 32.7498 27.0922 32.968C27.0145 33.1863 26.8238 33.3443 26.5956 33.3794C24.8511 33.644 23.1254 34.0516 21.4649 34.5896C20.5908 34.8731 19.5511 35.3007 19.2602 36.1121C18.9529 36.9674 19.6715 37.9933 20.508 38.3808C22.7153 39.4042 28.6423 37.6723 30.9687 36.98C31.1857 36.916 31.424 36.975 31.5883 37.1342C32.9415 38.4686 34.8678 40.3661 36.7828 41.93C36.986 42.0956 37.065 42.3702 36.9797 42.6185C36.7853 43.1867 36.6361 43.7886 36.537 44.4094C36.1846 46.6004 35.3569 47.7554 35.4347 50.522C35.4422 50.8155 35.2465 51.0751 34.9618 51.1478L28.3363 52.8346C28.0341 52.9149 27.7243 52.7569 27.6039 52.4709C27.0057 51.0563 24.4059 48.2596 21.4912 46.3521C20.7024 45.8354 19.7656 45.3036 18.8024 45.2697C18.8011 45.2697 18.7999 45.2697 18.7986 45.2697C17.9784 45.2697 17.0805 45.6811 16.8836 46.4411C16.6553 47.3253 17.4166 48.2934 18.1916 49.1237C19.4081 50.4267 20.6372 52.1599 22.0744 53.4128C22.25 53.5658 22.3265 53.8041 22.2726 54.0311C22.2186 54.2581 22.0431 54.4361 21.8173 54.4938L14.0706 56.4653C12.8491 56.7763 11.6727 57.189 11.3366 58.1032C11.0017 59.0137 11.7643 61.779 12.7061 62.4738C13.964 63.4006 17.705 62.514 23.2972 61.2473C23.5217 61.1946 23.7588 61.2736 23.9092 61.4492C24.061 61.6248 24.1036 61.8681 24.0209 62.0851C23.3888 63.728 22.8884 65.426 22.5347 67.1304C21.7985 70.6645 24.0986 70.7348 25.3527 69.8406C27.3104 68.4435 28.7665 62.4224 29.3158 60.0684C29.3685 59.8464 29.5365 59.6696 29.756 59.6069C31.9683 58.9836 34.7976 58.1509 37.0575 57.2328C37.3234 57.1225 37.6281 57.2103 37.7987 57.4435C37.9605 57.6655 38.1298 57.8837 38.3079 58.0932C39.6034 59.6144 41.3328 60.8535 43.3093 61.6737C43.5927 61.7916 43.7495 62.0976 43.6793 62.3973L41.773 70.4651C41.7015 70.7661 41.4118 70.968 41.1121 70.9454C38.7531 70.746 31.903 73.2142 30.6564 75.4139C29.9441 76.668 30.1799 78.7348 33.7892 77.739C35.5162 77.2612 37.6156 76.9753 39.3889 76.2817C39.858 76.0999 40.3395 76.5213 40.2242 77.0129Z" fill="white"/>
<path d="M49.4215 56.7074C43.4945 56.7074 39.1891 49.3381 43.3491 44.1624C44.6195 42.5809 46.512 41.555 48.5411 41.3494C52.1468 40.9932 55.7774 43.5127 56.7331 46.9415C57.9496 51.3046 54.6964 56.7074 49.4215 56.7074ZM49.2409 42.5684C49.0491 42.5684 48.8572 42.5772 48.6653 42.5972C46.9948 42.7665 45.372 43.6457 44.3248 44.9474C40.7969 49.3381 44.5769 55.4533 49.4203 55.4533C53.7282 55.4533 56.565 51.0111 55.5241 47.2789C54.7754 44.5938 52.0753 42.5684 49.2409 42.5684Z" fill="white"/>
<path d="M65.8859 77.0906L63.715 74.9197C63.5921 74.7968 63.5921 74.5986 63.715 74.4757C63.8379 74.3528 64.036 74.3528 64.1577 74.4757L66.3286 76.6466C66.4515 76.7695 66.4515 76.9677 66.3286 77.0906C66.2069 77.2135 66.0075 77.2135 65.8859 77.0906Z" fill="white"/>
<path d="M66.7651 74.6565L65.0758 72.9672C64.9529 72.8443 64.9529 72.6461 65.0758 72.5232C65.1987 72.4003 65.3969 72.4003 65.5198 72.5232L67.2091 74.2125C67.332 74.3354 67.332 74.5336 67.2091 74.6565C67.0862 74.7781 66.888 74.7781 66.7651 74.6565Z" fill="white"/>
<path d="M67.1576 73.154L65.4909 71.4873C65.368 71.3644 65.368 71.1663 65.4909 71.0434C65.6138 70.9204 65.8119 70.9204 65.9348 71.0434L67.6015 72.7101C67.8925 73.0023 67.4511 73.4475 67.1576 73.154Z" fill="white"/>
<path d="M78.555 76.8548L76.6199 74.9197C76.497 74.7968 76.497 74.5986 76.6199 74.4757C76.7428 74.3528 76.9409 74.3528 77.0638 74.4757L78.999 76.4108C79.1219 76.5337 79.1219 76.7319 78.999 76.8548C78.8761 76.9777 78.6767 76.9777 78.555 76.8548Z" fill="white"/>
<path d="M78.3658 74.4169L76.6777 72.7301C76.5548 72.6072 76.5548 72.4091 76.6777 72.2861C76.8007 72.1632 76.9988 72.1632 77.1217 72.2861L78.8098 73.9729C78.9327 74.0959 78.9327 74.294 78.8098 74.4169C78.6869 74.5398 78.4887 74.5398 78.3658 74.4169Z" fill="white"/>
<path d="M75.3472 67.1957L73.4234 65.2719C73.3005 65.149 73.3005 64.9508 73.4234 64.8279C73.5463 64.705 73.7444 64.705 73.8673 64.8279L75.7911 66.7517C75.914 66.8746 75.914 67.0728 75.7911 67.1957C75.6682 67.3186 75.4701 67.3186 75.3472 67.1957Z" fill="white"/>
<path d="M76.827 66.5435L75.1402 64.8567C75.0172 64.7338 75.0172 64.5356 75.1402 64.4127C75.2631 64.2898 75.4612 64.2898 75.5829 64.4127L77.2697 66.0995C77.3926 66.2224 77.3926 66.4206 77.2697 66.5435C77.148 66.6664 76.9499 66.6664 76.827 66.5435Z" fill="white"/>
<path d="M78.9125 65.7773C78.7056 65.7773 77.1793 64.1746 77.0326 64.0278C76.9097 63.9049 76.9097 63.7068 77.0326 63.5839C77.1555 63.461 77.3537 63.461 77.4766 63.5839L79.1345 65.2406C79.2574 65.3635 79.2574 65.5616 79.1345 65.6845C79.0731 65.7472 78.9928 65.7773 78.9125 65.7773Z" fill="white"/>
<path d="M80.3939 64.6536C80.1869 64.6536 78.6607 63.0508 78.5139 62.9028C78.391 62.7799 78.391 62.5818 78.5139 62.4589C78.6368 62.336 78.835 62.336 78.9579 62.4589L80.6157 64.1168C80.8139 64.3162 80.671 64.6536 80.3939 64.6536Z" fill="white"/>
<path d="M79.6098 62.8751L78.9288 62.1941C78.8059 62.0712 78.8059 61.873 78.9288 61.7501C79.0518 61.6272 79.2499 61.6272 79.3716 61.7501C79.7139 62.0925 80.3698 62.5578 80.0525 62.8751C79.9296 62.9967 79.7315 62.9967 79.6098 62.8751Z" fill="white"/>
<path d="M73.5262 66.1925C73.4459 66.1925 73.3657 66.1624 73.3042 66.1009C73.1813 65.978 73.1813 65.7798 73.3042 65.6569L75.4412 63.5199C75.5641 63.397 75.7623 63.397 75.8852 63.5199C76.0081 63.6428 76.0081 63.841 75.8852 63.9639L73.7482 66.1009C73.6867 66.1611 73.6065 66.1925 73.5262 66.1925Z" fill="white"/>
<path d="M76.0281 65.7156L79.0191 62.7245C79.3101 62.4336 79.7566 62.8738 79.4631 63.1685L76.4708 66.1596C76.1798 66.4505 75.7321 66.0116 76.0281 65.7156Z" fill="white"/>
<path d="M63.8781 76.4321C63.7979 76.4321 63.7176 76.402 63.6561 76.3406C63.5332 76.2177 63.5332 76.0195 63.6561 75.8966L65.7882 73.7646C66.0791 73.4736 66.5256 73.9138 66.2321 74.2085L64.1001 76.3406C64.0387 76.402 63.9584 76.4321 63.8781 76.4321Z" fill="white"/>
<path d="M65.5937 72.9394C65.5134 72.9394 65.4332 72.9093 65.3717 72.8479C65.2488 72.725 65.2488 72.5268 65.3717 72.4039L66.143 71.6326C66.434 71.3417 66.8804 71.7819 66.587 72.0766L65.8157 72.8479C65.7542 72.9093 65.674 72.9394 65.5937 72.9394Z" fill="white"/>
<path d="M76.9598 75.1894C76.8795 75.1894 76.7993 75.1593 76.7378 75.0979C76.6149 74.975 76.6149 74.7768 76.7378 74.6539L77.6257 73.766C77.7486 73.6431 77.9468 73.6431 78.0697 73.766C78.1926 73.8889 78.1926 74.0871 78.0697 74.21L77.1818 75.0979C77.1203 75.1593 77.0401 75.1894 76.9598 75.1894Z" fill="white"/>
<path d="M76.9598 73.7096C76.8795 73.7096 76.7993 73.6795 76.7378 73.6181C76.6149 73.4952 76.6149 73.297 76.7378 73.1741L77.5166 72.3953C77.8076 72.1044 78.254 72.5446 77.9606 72.8393L77.1818 73.6181C77.1203 73.6795 77.0401 73.7096 76.9598 73.7096Z" fill="white"/>
<path d="M81.1436 55.1585L79.1232 53.1381C79.0003 53.0152 79.0003 52.817 79.1232 52.6941C79.2461 52.5712 79.4442 52.5712 79.5671 52.6941L81.5875 54.7145C81.7104 54.8374 81.7104 55.0356 81.5875 55.1585C81.4646 55.2801 81.2665 55.2801 81.1436 55.1585Z" fill="white"/>
<path d="M82.8892 54.3772C82.6823 54.3772 81.1573 52.7744 81.0093 52.6277C80.8864 52.5048 80.8864 52.3066 81.0093 52.1837C81.1322 52.0608 81.3303 52.0608 81.4533 52.1837L83.1112 53.8417C83.3094 54.0398 83.1664 54.3772 82.8892 54.3772Z" fill="white"/>
<path d="M82.6437 52.8322L81.4699 51.6583C81.347 51.5354 81.347 51.3373 81.4699 51.2144C81.5928 51.0915 81.7909 51.0915 81.9126 51.2144L83.0877 52.3882C83.2106 52.5111 83.2106 52.7093 83.0877 52.8322C82.9648 52.9551 82.7666 52.9551 82.6437 52.8322Z" fill="white"/>
<path d="M81.0371 45.3613L79.8369 44.1611C79.714 44.0382 79.714 43.8401 79.8369 43.7172C79.9598 43.5943 80.158 43.5943 80.2809 43.7172L81.4811 44.9174C81.772 45.2096 81.3318 45.6561 81.0371 45.3613Z" fill="white"/>
<path d="M82.8982 44.4169L81.3682 42.8868C81.2453 42.7639 81.2453 42.5658 81.3682 42.4429C81.4911 42.32 81.6892 42.32 81.8121 42.4429L83.3422 43.9729C83.4651 44.0958 83.4651 44.294 83.3422 44.4169C83.2193 44.5385 83.0199 44.5385 82.8982 44.4169Z" fill="white"/>
<path d="M84.8833 43.8527L83.1012 42.0706C82.9783 41.9477 82.9783 41.7495 83.1012 41.6266C83.2241 41.5037 83.4223 41.5037 83.5452 41.6266L85.3273 43.4087C85.6182 43.7009 85.1768 44.1461 84.8833 43.8527Z" fill="white"/>
<path d="M79.2086 45.6234L78.2567 44.6715C78.1338 44.5486 78.1338 44.3505 78.2567 44.2276C78.3796 44.1046 78.5778 44.1046 78.7007 44.2276L79.6526 45.1794C79.7755 45.3023 79.7755 45.5005 79.6526 45.6234C79.5297 45.7463 79.3303 45.7463 79.2086 45.6234Z" fill="white"/>
<path d="M78.5626 45.4366C78.4397 45.3137 78.4397 45.1155 78.5626 44.9926L81.1725 42.384C81.2954 42.2611 81.4935 42.2611 81.6164 42.384C81.7393 42.507 81.7393 42.7051 81.6164 42.828L79.0066 45.4366C78.8824 45.5582 78.6843 45.5582 78.5626 45.4366Z" fill="white"/>
<path d="M81.9462 44.2528C81.866 44.2528 81.7857 44.2227 81.7243 44.1612C81.6014 44.0383 81.6014 43.8402 81.7243 43.7173L84.4858 40.9557C84.6087 40.8328 84.8069 40.8328 84.9298 40.9557C85.0527 41.0786 85.0527 41.2768 84.9298 41.3997L82.1682 44.1612C82.1068 44.2227 82.0265 44.2528 81.9462 44.2528Z" fill="white"/>
<path d="M79.4406 53.9582L81.831 51.5678C82.1232 51.2768 82.5684 51.717 82.2749 52.0118L79.8846 54.4021C79.5924 54.6931 79.1459 54.2516 79.4406 53.9582Z" fill="white"/>
<path d="M81.5828 53.9935C81.4599 53.8706 81.4599 53.6724 81.5828 53.5495L82.3227 52.8096C82.4456 52.6867 82.6438 52.6867 82.7667 52.8096C83.0927 53.1357 82.3779 53.6423 82.0267 53.9922C81.9038 54.1164 81.7057 54.1164 81.5828 53.9935Z" fill="white"/>
<path d="M24.5075 71.0999C24.2993 71.0999 22.5786 69.3002 22.4306 69.1522C22.1397 68.8613 22.5799 68.4148 22.8734 68.7083L24.7282 70.5644C24.8511 70.6873 24.8511 70.8854 24.7282 71.0083C24.668 71.0685 24.5877 71.0999 24.5075 71.0999Z" fill="white"/>
<path d="M25.8393 69.7489L24.2252 68.1361C24.1023 68.0132 24.1023 67.8151 24.2252 67.6922C24.3481 67.5692 24.5463 67.5692 24.6692 67.6922L26.2833 69.305C26.4062 69.4279 26.4062 69.626 26.2833 69.7489C26.1603 69.8718 25.9622 69.8718 25.8393 69.7489Z" fill="white"/>
<path d="M27.0819 66.852L25.5543 65.3245C25.4314 65.2016 25.4314 65.0034 25.5543 64.8805C25.6772 64.7576 25.8754 64.7576 25.9983 64.8805L27.5258 66.408C27.8218 66.7053 27.3691 67.1392 27.0819 66.852Z" fill="white"/>
<path d="M27.7935 65.298L26.2572 63.7617C26.1343 63.6388 26.1343 63.4407 26.2572 63.3178C26.3801 63.1949 26.5783 63.1949 26.7012 63.3178L28.2375 64.8541C28.5335 65.1513 28.0807 65.5852 27.7935 65.298Z" fill="white"/>
<path d="M28.7989 63.4935L27.1159 61.8092C26.993 61.6863 26.993 61.4882 27.1159 61.3652C27.2388 61.2423 27.4369 61.2423 27.5598 61.3652L29.2429 63.0495C29.3658 63.1724 29.3658 63.3706 29.2429 63.4935C29.12 63.6151 28.9218 63.6151 28.7989 63.4935Z" fill="white"/>
<path d="M22.3515 69.0981L24.91 66.5397C25.0329 66.4168 25.231 66.4168 25.3527 66.5397C25.4756 66.6626 25.4756 66.8607 25.3527 66.9836L22.7942 69.5421C22.5033 69.833 22.0568 69.3928 22.3515 69.0981Z" fill="white"/>
<path d="M26.2446 65.7284C26.1643 65.7284 26.0841 65.6983 26.0226 65.6368C25.8997 65.5139 25.8997 65.3158 26.0226 65.1929L27.6655 63.55C27.9565 63.259 28.4029 63.6992 28.1095 63.9939L26.4678 65.6368C26.4051 65.6983 26.3248 65.7284 26.2446 65.7284Z" fill="white"/>
<path d="M27.5851 61.4968C27.4622 61.3739 27.4622 61.1758 27.5851 61.0529C27.9112 60.7268 28.4191 61.4442 28.769 61.7941C28.8919 61.917 28.8919 62.1151 28.769 62.238C28.4429 62.5641 27.935 61.8467 27.5851 61.4968Z" fill="white"/>
<path d="M29.1089 60.8346L28.2875 60.0132C28.1646 59.8903 28.1646 59.6921 28.2875 59.5692C28.4104 59.4463 28.6085 59.4463 28.7302 59.5692L29.5516 60.3907C29.6746 60.5136 29.6746 60.7117 29.5516 60.8346C29.43 60.9563 29.2318 60.9563 29.1089 60.8346Z" fill="white"/>
<path d="M24.3821 68.9427L26.1391 67.1844C26.4301 66.8934 26.8766 67.3336 26.5818 67.6283L24.8248 69.3866C24.5351 69.6776 24.0886 69.2361 24.3821 68.9427Z" fill="white"/>
<path d="M13.8537 63.7743L12.3224 62.243C12.1995 62.1201 12.1995 61.922 12.3224 61.7991C12.4453 61.6762 12.6435 61.6762 12.7651 61.7991L14.2964 63.3304C14.4193 63.4533 14.4193 63.6514 14.2964 63.7743C14.1747 63.8972 13.9766 63.8972 13.8537 63.7743Z" fill="white"/>
<path d="M15.6559 63.511L14.1522 62.0073C14.0293 61.8844 14.0293 61.6863 14.1522 61.5634C14.2751 61.4405 14.4733 61.4405 14.5949 61.5634L16.0986 63.0671C16.2215 63.19 16.2215 63.3881 16.0986 63.511C15.977 63.6339 15.7788 63.6339 15.6559 63.511Z" fill="white"/>
<path d="M16.0985 61.7127C15.9756 61.5898 15.9756 61.3917 16.0985 61.27C16.2214 61.1471 16.4196 61.1471 16.5425 61.27L17.8781 62.6044C18.001 62.7273 18.001 62.9255 17.8781 63.0484C17.5495 63.3757 16.4334 62.0476 16.0985 61.7127Z" fill="white"/>
<path d="M19.3755 62.6292L18.0449 61.2986C17.7539 61.0076 18.1941 60.5612 18.4876 60.8546L19.8182 62.1853C19.9411 62.3082 19.9411 62.5063 19.8182 62.6292C19.6966 62.7521 19.4971 62.7521 19.3755 62.6292Z" fill="white"/>
<path d="M21.3808 62.0989L20.1681 60.8861C20.0452 60.7632 20.0452 60.5651 20.1681 60.4422C20.291 60.3192 20.4892 60.3192 20.6108 60.4422L21.8236 61.6549C21.9465 61.7778 21.9465 61.9759 21.8236 62.0989C21.7019 62.2218 21.5037 62.2218 21.3808 62.0989Z" fill="white"/>
<path d="M23.1518 61.8042L22.1159 60.7683C21.8249 60.4774 22.2651 60.0309 22.5599 60.3244L23.5958 61.3603C23.7187 61.4832 23.7187 61.6813 23.5958 61.8042C23.4729 61.9271 23.2747 61.9271 23.1518 61.8042Z" fill="white"/>
<path d="M12.913 62.9204L15.1341 60.6994C15.257 60.5765 15.4551 60.5765 15.5768 60.6994C15.6997 60.8223 15.6997 61.0204 15.5768 61.1433L13.3557 63.3644C13.0648 63.6553 12.6196 63.2151 12.913 62.9204Z" fill="white"/>
<path d="M15.9216 62.6257L17.74 60.8072C18.0323 60.5162 18.4775 60.9564 18.1828 61.2511L16.3643 63.0696C16.0733 63.3606 15.6281 62.9191 15.9216 62.6257Z" fill="white"/>
<path d="M18.693 62.0361L20.2958 60.4333C20.5868 60.1411 21.0332 60.5826 20.7398 60.876L19.137 62.4788C18.8448 62.771 18.3996 62.3296 18.693 62.0361Z" fill="white"/>
<path d="M21.2895 61.3277L22.4696 60.1476C22.5925 60.0247 22.7906 60.0247 22.9136 60.1476C23.0365 60.2705 23.0365 60.4687 22.9136 60.5903L21.7334 61.7704C21.4412 62.0626 20.996 61.6225 21.2895 61.3277Z" fill="white"/>
<path d="M21.7057 39.3655C21.6254 39.3655 21.5451 39.3354 21.4837 39.2739L20.1869 37.9772C20.064 37.8543 20.064 37.6561 20.1869 37.5332C20.3098 37.4103 20.508 37.4103 20.6296 37.5332L21.9264 38.83C22.0493 38.9529 22.0493 39.151 21.9264 39.2739C21.8662 39.3354 21.7859 39.3655 21.7057 39.3655Z" fill="white"/>
<path d="M23.627 39.0745L22.0092 37.4566C21.8863 37.3337 21.8863 37.1356 22.0092 37.0139C22.1321 36.891 22.3302 36.891 22.4519 37.0139L24.0697 38.6318C24.1926 38.7547 24.1926 38.9528 24.0697 39.0757C23.948 39.1961 23.7499 39.1961 23.627 39.0745Z" fill="white"/>
<path d="M26.2378 39.3416L24.1447 37.2484C24.0218 37.1255 24.0218 36.9274 24.1447 36.8045C24.2676 36.6816 24.4657 36.6816 24.5874 36.8045L26.6805 38.8988C26.8034 39.0218 26.8034 39.2199 26.6805 39.3428C26.5589 39.4645 26.3607 39.4645 26.2378 39.3416Z" fill="white"/>
<path d="M28.7188 38.7245C28.5107 38.7245 26.8439 36.98 26.6959 36.832C26.573 36.7091 26.573 36.511 26.6959 36.3881C26.8188 36.2652 27.017 36.2652 27.1399 36.3881L28.9408 38.189C29.0637 38.3119 29.0637 38.5101 28.9408 38.633C28.8794 38.6932 28.7991 38.7245 28.7188 38.7245Z" fill="white"/>
<path d="M30.1449 37.8843L29.0927 36.8308C28.9698 36.7079 28.9698 36.5098 29.0927 36.3869C29.2156 36.264 29.4137 36.264 29.5354 36.3869L30.5876 37.4403C30.7105 37.5632 30.7105 37.7614 30.5876 37.8843C30.4659 38.0072 30.2665 38.0072 30.1449 37.8843Z" fill="white"/>
<path d="M20.5519 38.6794L22.6764 36.5562C22.7993 36.4333 22.9975 36.4333 23.1204 36.5562C23.2433 36.6791 23.2433 36.8772 23.1204 37.0001L20.9959 39.1234C20.7037 39.4143 20.2572 38.9729 20.5519 38.6794Z" fill="white"/>
<path d="M23.4153 38.4186L25.3454 36.4885C25.4683 36.3656 25.6664 36.3656 25.7894 36.4885C25.9123 36.6114 25.9123 36.8096 25.7894 36.9325L23.8593 38.8626C23.5683 39.1536 23.1218 38.7121 23.4153 38.4186Z" fill="white"/>
<path d="M26.0715 37.8979L27.377 36.5911C27.4999 36.4682 27.6981 36.4682 27.821 36.5911C27.9439 36.714 27.9439 36.9121 27.821 37.035L26.5154 38.3418C26.2232 38.6328 25.778 38.1913 26.0715 37.8979Z" fill="white"/>
<path d="M28.0502 37.4817L29.3006 36.2313C29.4235 36.1084 29.6216 36.1084 29.7445 36.2313C29.8675 36.3542 29.8675 36.5524 29.7445 36.6753L28.4954 37.9257C28.202 38.2166 27.7555 37.7752 28.0502 37.4817Z" fill="white"/>
<path d="M37.0363 31.2375L36.1735 30.3746C36.0506 30.2517 36.0506 30.0536 36.1735 29.9307C36.2964 29.8078 36.4945 29.8078 36.6174 29.9307L37.4803 30.7935C37.6032 30.9164 37.6032 31.1146 37.4803 31.2362C37.3574 31.3604 37.158 31.3604 37.0363 31.2375Z" fill="white"/>
<path d="M37.8737 29.5756L36.9017 28.6036C36.7788 28.4807 36.7788 28.2826 36.9017 28.1597C37.0247 28.0368 37.2228 28.0368 37.3457 28.1597L38.3177 29.1316C38.4406 29.2545 38.4406 29.4527 38.3177 29.5756C38.1948 29.6985 37.9966 29.6985 37.8737 29.5756Z" fill="white"/>
<path d="M38.215 28.2501L37.0587 27.0938C36.9358 26.9709 36.9358 26.7728 37.0587 26.6511C37.1816 26.5282 37.3798 26.5282 37.5027 26.6511L38.659 27.8074C38.9499 28.0984 38.5085 28.5449 38.215 28.2501Z" fill="white"/>
<path d="M37.8388 25.792C37.7159 25.6691 37.7159 25.4709 37.8388 25.3493C37.9617 25.2264 38.1598 25.2264 38.2827 25.3493C38.6439 25.7104 39.4202 26.271 39.0904 26.5996C38.7405 26.9495 38.1912 26.1444 37.8388 25.792Z" fill="white"/>
<path d="M38.9624 25.092L37.9955 24.1251C37.8726 24.0022 37.8726 23.804 37.9955 23.6824C38.1184 23.5595 38.3166 23.5595 38.4395 23.6824L39.4064 24.6493C39.6973 24.9403 39.2559 25.3855 38.9624 25.092Z" fill="white"/>
<path d="M39.0742 23.5898L38.2565 22.7721C38.1336 22.6492 38.1336 22.451 38.2565 22.3281C38.3794 22.2052 38.5775 22.2052 38.7004 22.3281L39.5181 23.1458C39.641 23.2687 39.641 23.4669 39.5181 23.5898C39.3952 23.7127 39.1958 23.7127 39.0742 23.5898Z" fill="white"/>
<path d="M36.2912 31.2475C36.2109 31.2475 36.1307 31.2174 36.0692 31.1559C35.9463 31.033 35.9463 30.8348 36.0692 30.7119L37.8225 28.9587C38.1135 28.6677 38.5599 29.1079 38.2665 29.4026C38.1185 29.5494 36.4981 31.2475 36.2912 31.2475Z" fill="white"/>
<path d="M36.967 28.2788C36.8867 28.2788 36.8065 28.2487 36.745 28.1873C36.6221 28.0644 36.6221 27.8662 36.745 27.7433L38.2299 26.2597C38.5209 25.9687 38.9673 26.4089 38.6726 26.7037L37.1877 28.1873C37.1275 28.2487 37.0473 28.2788 36.967 28.2788Z" fill="white"/>
<path d="M37.6442 24.8425C37.564 24.8425 37.4837 24.8124 37.4223 24.751C37.2994 24.6281 37.2994 24.4299 37.4223 24.3083L38.7504 22.9802C39.0413 22.6892 39.4878 23.1294 39.1931 23.4241L37.865 24.7522C37.8048 24.8112 37.7245 24.8425 37.6442 24.8425Z" fill="white"/>
<path d="M38.4257 23.4881C38.3455 23.4881 38.2652 23.458 38.2038 23.3965C38.0808 23.2736 38.0808 23.0754 38.2038 22.9525C38.5298 22.6265 38.9374 22.0445 39.2472 22.3531C39.5557 22.6616 38.9738 23.0692 38.6477 23.3965C38.5863 23.458 38.506 23.4881 38.4257 23.4881Z" fill="white"/>
<path d="M60.1962 30.2854C59.9868 30.2854 58.2724 28.4907 58.1244 28.3427C58.0015 28.2198 58.0015 28.0217 58.1244 27.9C58.2473 27.7771 58.4455 27.7771 58.5671 27.9L60.4182 29.7511C60.6151 29.948 60.4734 30.2854 60.1962 30.2854Z" fill="white"/>
<path d="M62.1663 29.3573L60.4118 27.6028C60.2889 27.4799 60.2889 27.2817 60.4118 27.1588C60.5347 27.0359 60.7328 27.0359 60.8557 27.1588L62.6102 28.9146C62.7331 29.0375 62.7331 29.2357 62.6102 29.3573C62.4873 29.479 62.2892 29.479 62.1663 29.3573Z" fill="white"/>
<path d="M64.0788 28.1072L62.7658 26.7954C62.6429 26.6725 62.6429 26.4743 62.7658 26.3527C62.8887 26.2298 63.0868 26.2298 63.2097 26.3527L64.5228 27.6645C64.6457 27.7874 64.6457 27.9855 64.5228 28.1072C64.3999 28.2301 64.2017 28.2301 64.0788 28.1072Z" fill="white"/>
<path d="M66.0328 27.5714L64.3134 25.852C64.1905 25.7291 64.1905 25.531 64.3134 25.4093C64.4363 25.2864 64.6344 25.2864 64.7573 25.4093L66.4767 27.1287C66.7677 27.4197 66.3275 27.8649 66.0328 27.5714Z" fill="white"/>
<path d="M68.1196 26.0917L66.6686 24.642C66.5457 24.5191 66.5457 24.3209 66.6686 24.198C66.7915 24.0751 66.9897 24.0751 67.1126 24.198L68.5636 25.6478C68.8545 25.9387 68.4143 26.3852 68.1196 26.0917Z" fill="white"/>
<path d="M69.0452 24.9304L68.0155 23.9007C67.8926 23.7778 67.8926 23.5797 68.0155 23.458C68.1384 23.3351 68.3366 23.3351 68.4595 23.458L69.4891 24.4877C69.7801 24.7786 69.3386 25.2238 69.0452 24.9304Z" fill="white"/>
<path d="M58.661 29.1494C58.5381 29.0265 58.5381 28.8283 58.661 28.7054L61.6421 25.7244C61.765 25.6015 61.9631 25.6015 62.086 25.7244C62.2089 25.8473 62.2089 26.0454 62.086 26.1671L59.105 29.1481C58.9821 29.2723 58.7839 29.2723 58.661 29.1494Z" fill="white"/>
<path d="M62.2277 28.033L64.4212 25.8395C64.5441 25.7166 64.7422 25.7166 64.8651 25.8395C64.988 25.9624 64.988 26.1605 64.8651 26.2835L62.6717 28.4769C62.3795 28.7679 61.9342 28.3277 62.2277 28.033Z" fill="white"/>
<path d="M66.5343 26.5921C66.4114 26.4692 66.4114 26.271 66.5343 26.1481L68.2587 24.4237C68.3816 24.3008 68.5798 24.3008 68.7027 24.4237C68.8256 24.5466 68.8256 24.7448 68.7027 24.8677L66.9783 26.5921C66.8554 26.715 66.6572 26.715 66.5343 26.5921Z" fill="white"/>
<path d="M44.4615 49.9013L42.5502 47.99C42.4273 47.8671 42.4273 47.6689 42.5502 47.546C42.6731 47.4231 42.8712 47.4231 42.9941 47.546L44.9054 49.4573C45.0283 49.5802 45.0283 49.7784 44.9054 49.9013C44.7825 50.0242 44.5831 50.0242 44.4615 49.9013Z" fill="white"/>
<path d="M45.4688 47.9299L43.2628 45.7239C43.1399 45.601 43.1399 45.4028 43.2628 45.2799C43.3857 45.157 43.5839 45.157 43.7068 45.2799L45.9128 47.4859C46.2038 47.7781 45.7623 48.2234 45.4688 47.9299Z" fill="white"/>
<path d="M47.1582 46.2503L45.0111 44.1033C44.8882 43.9804 44.8882 43.7822 45.0111 43.6593C45.134 43.5364 45.3322 43.5364 45.4551 43.6593L47.6021 45.8064C47.725 45.9293 47.725 46.1274 47.6021 46.2503C47.4792 46.3732 47.2811 46.3732 47.1582 46.2503Z" fill="white"/>
<path d="M48.9178 45.5494L46.6303 43.2618C46.5074 43.1389 46.5074 42.9408 46.6303 42.8179C46.7532 42.695 46.9513 42.695 47.0742 42.8179L49.3617 45.1054C49.6527 45.3976 49.2125 45.8428 48.9178 45.5494Z" fill="white"/>
<path d="M51.2465 44.704L49.2211 42.6786C49.0982 42.5557 49.0982 42.3575 49.2211 42.2346C49.344 42.1117 49.5421 42.1117 49.665 42.2346L51.6905 44.26C51.8134 44.3829 51.8134 44.5811 51.6905 44.704C51.5675 44.8257 51.3694 44.8257 51.2465 44.704Z" fill="white"/>
<path d="M44.5284 52.1712L42.9382 50.581C42.6472 50.29 43.0874 49.8435 43.3821 50.1383L44.9724 51.7272C45.0953 51.8501 45.0953 52.0483 44.9724 52.1712C44.8495 52.2941 44.6513 52.2941 44.5284 52.1712Z" fill="white"/>
<path d="M43.1336 51.6935L45.1804 49.6467C45.3033 49.5238 45.5014 49.5238 45.6231 49.6467C45.746 49.7696 45.746 49.9678 45.6231 50.0907L43.5763 52.1374C43.2841 52.4296 42.8402 51.9857 43.1336 51.6935Z" fill="white"/>
<path d="M43.5488 48.9257C43.4685 48.9257 43.3882 48.8956 43.3268 48.8341C43.2039 48.7112 43.2039 48.5131 43.3268 48.3902L45.9605 45.7565C46.2514 45.4656 46.6979 45.9058 46.4044 46.2005C46.2539 46.3497 43.7607 48.9257 43.5488 48.9257Z" fill="white"/>
<path d="M46.6954 45.0753C46.5725 44.9524 46.5725 44.7543 46.6954 44.6314L48.1565 43.1703C48.2794 43.0474 48.4776 43.0474 48.6005 43.1703C48.7234 43.2932 48.7234 43.4914 48.6005 43.6143L47.1394 45.0753C47.0165 45.1982 46.8184 45.1982 46.6954 45.0753Z" fill="white"/>
<path d="M49.2865 44.4384L50.2597 43.4652C50.3826 43.3423 50.5808 43.3423 50.7037 43.4652C50.8266 43.5881 50.8266 43.7863 50.7037 43.9092L49.7305 44.8824C49.4383 45.1733 48.9931 44.7319 49.2865 44.4384Z" fill="white"/>
<path d="M55.1644 20.2198C55.1343 20.2198 55.103 20.216 55.0729 20.206C54.9073 20.1558 54.8145 19.9802 54.8647 19.8134L56.3997 14.7919C56.5954 14.1536 56.8387 13.3584 57.4306 12.8192C58.0765 12.2322 59.0848 12.0705 59.8824 12.4304C60.0392 12.5019 60.1107 12.6875 60.0392 12.8455C59.9677 13.0035 59.7834 13.0738 59.6241 13.0023C59.0472 12.7414 58.3185 12.8581 57.852 13.2832C57.3867 13.7058 57.181 14.3806 56.9992 14.975L55.4642 19.9965C55.4228 20.1332 55.2986 20.2198 55.1644 20.2198Z" fill="white"/>
<path d="M50.9306 21.4024C50.8528 21.4024 50.7751 21.3735 50.7136 21.3158L48.4675 19.17C48.1402 18.8577 47.7689 18.5041 47.3375 18.39C46.9926 18.3009 46.5324 18.4326 46.432 18.7461C46.3794 18.9117 46.2025 18.9982 46.0382 18.9493C45.8727 18.8966 45.7824 18.7198 45.8351 18.5555C46.0558 17.8682 46.871 17.6199 47.4968 17.7842C48.0862 17.9385 48.5377 18.3699 48.9014 18.7173L51.1488 20.8631C51.2742 20.9822 51.278 21.1804 51.1588 21.3058C51.0961 21.3697 51.0134 21.4024 50.9306 21.4024Z" fill="white"/>
<path d="M30.5022 27.9854C30.4382 27.9854 30.3743 27.9666 30.3191 27.9265C28.7602 26.8078 27.9726 24.9517 26.6558 23.7214C24.8661 22.0534 22.9549 22.4961 22.4018 23.6963C22.329 23.8531 22.1447 23.9221 21.9854 23.8493C21.8274 23.7766 21.7597 23.591 21.8312 23.4329C22.4808 22.017 24.8285 21.1567 27.0822 23.2624C28.463 24.5516 29.2255 26.3689 30.684 27.416C30.8245 27.5176 30.8571 27.7133 30.7555 27.8537C30.6953 27.9403 30.5988 27.9854 30.5022 27.9854Z" fill="white"/>
<path d="M23.4276 50.7152C23.3473 50.7152 23.2671 50.6851 23.2056 50.6237L20.4039 47.8144C20.1305 47.5398 19.8483 47.2563 19.5085 47.1146C19.2514 47.008 18.8789 46.9892 18.6644 47.1987C18.5415 47.3203 18.3434 47.3203 18.2205 47.1974C18.0988 47.0745 18.0988 46.8763 18.2217 46.7534C18.6394 46.3358 19.2902 46.3446 19.7493 46.534C20.2045 46.7233 20.5469 47.067 20.8491 47.3705L23.6508 50.1785C23.7725 50.3014 23.7725 50.4995 23.6508 50.6224C23.5881 50.6851 23.5079 50.7152 23.4276 50.7152Z" fill="white"/>
</svg>
