<svg width="64" height="64" viewBox="0 0 64 64" fill="none" xmlns="http://www.w3.org/2000/svg">
<path d="M25.4838 63.964C24.2928 63.964 22.6798 63.545 22.0428 62.845C21.0948 61.802 21.4778 60.184 21.6608 59.407L22.9178 54.085C21.6598 54.465 20.3388 54.673 19.2318 54.979C15.3848 56.04 14.6408 53.354 15.5978 51.667C16.7898 49.567 22.1578 47.659 24.4518 47.591L25.7828 41.957C24.2238 41.245 22.8558 40.227 21.8068 38.996C21.7328 38.909 21.6608 38.82 21.5908 38.731C19.9108 39.385 17.9308 39.976 16.3048 40.437C15.7628 42.725 14.6298 47.236 12.8198 48.527C11.2898 49.619 8.19176 49.3 9.01176 45.349C9.24376 44.235 9.55076 43.123 9.92676 42.036C4.15776 43.29 2.71276 43.494 1.56076 42.645C0.497757 41.862 -0.321243 39.22 0.123757 38.011C0.609757 36.687 2.22076 36.278 2.99576 36.081L8.29476 34.732C7.30676 33.721 6.68276 32.828 5.79676 31.878C4.99476 31.018 4.21576 29.98 4.51876 28.807C4.80476 27.701 5.96176 27.122 6.95876 27.122C8.06576 27.159 8.96276 27.662 9.70876 28.149C11.7968 29.516 13.9438 31.632 14.7628 33.087L19.2748 31.939C19.2918 29.84 19.9208 28.825 20.1708 27.279C20.2408 26.847 20.3378 26.425 20.4588 26.019C19.0578 24.85 17.6868 23.509 16.7198 22.557C14.8698 23.101 11.7638 23.906 9.83476 23.906C7.05276 23.906 5.94076 21.878 6.44076 20.485C6.81976 19.429 7.91776 18.954 8.83276 18.658C9.91876 18.306 11.0388 18.021 12.1728 17.81C10.9188 16.418 9.78176 15.089 8.71176 13.768C8.05076 12.951 7.35776 11.984 7.49176 10.846C7.64676 9.535 9.53576 7.515 10.8058 7.302C12.0228 7.096 13.0308 7.934 13.9048 8.841L17.7008 12.777C18.0648 11.507 18.6048 10.279 18.9428 9.193C19.2938 8.07 19.8088 6.879 20.9768 6.561C21.9708 6.29 23.1528 6.897 23.6938 7.928C24.8148 10.067 23.4908 15.682 22.3338 17.581L25.3658 20.725C27.0858 19.9 29.1558 19.334 31.0458 19.17C31.2488 17.866 31.5908 16.214 32.0878 14.145C30.8358 12.992 29.4198 11.618 28.1778 10.049C27.5028 9.196 26.8618 8.253 26.7408 7.144C26.6128 5.964 27.2798 4.53 28.5788 4.272C29.6808 4.055 30.6738 4.768 31.3768 5.381C32.2358 6.129 33.0538 6.941 33.8178 7.802C34.3458 6.08 34.9128 4.389 35.5068 2.76C35.8658 1.774 36.3378 0.682 37.3848 0.21C37.6938 0.07 38.0928 0 38.5718 0C39.7788 0 41.4828 0.469 42.1298 1.227C43.0458 2.3 42.6128 3.905 42.4058 4.676L40.9858 9.957C41.6218 9.786 45.6108 8.948 46.2668 8.948C46.9908 8.948 47.5738 9.156 48.0018 9.566C49.0018 10.526 49.1808 12.775 46.0338 14.412C43.8518 15.546 40.9408 16.401 39.2628 16.401C39.2598 16.401 39.2568 16.401 39.2538 16.401L38.0958 20.711C39.9448 21.797 41.3738 23.312 42.3528 25.222C43.9748 24.542 45.8748 23.911 47.4418 23.414C47.7828 21.746 48.2288 19.823 48.9308 17.951C49.3128 16.932 49.7898 15.896 50.6768 15.221C51.6988 14.442 53.3058 14.456 54.0858 15.312C54.8408 16.141 54.7468 17.334 54.5808 18.281C54.3828 19.403 54.1098 20.524 53.7678 21.622C55.5128 21.187 57.2538 20.798 58.9578 20.466C60.0488 20.253 61.1938 20.123 62.1108 20.757C63.1958 21.507 64.0968 24.123 63.6898 25.345C63.2438 26.682 61.6458 27.141 60.8788 27.362L55.6238 28.872C56.1578 29.386 56.6538 29.943 57.1388 30.488C57.5048 30.899 57.8588 31.297 58.2078 31.649C59.0368 32.484 59.8478 33.497 59.5808 34.679C59.3228 35.822 58.1168 36.439 57.1128 36.439C56.0868 36.435 55.1738 35.96 54.4148 35.495C52.2858 34.194 50.0748 32.145 49.2118 30.715L43.6028 32.327C43.3958 34.02 42.8548 35.557 41.9558 37.003C43.6228 38.178 45.2558 39.646 46.9158 41.181C48.5358 40.65 50.4298 40.084 52.4078 39.766C53.4978 39.59 54.6218 39.495 55.6448 39.931C56.7368 40.395 57.6618 41.677 57.2538 42.937C56.7258 44.566 54.0378 45.256 51.6078 45.787C55.9228 50.292 56.6148 51.275 56.4988 52.605C56.3848 53.919 54.5588 55.997 53.2948 56.249C52.0808 56.491 51.0488 55.682 50.1498 54.806L46.2358 50.989C46.0538 51.707 45.8158 52.414 45.5828 53.105C44.9498 54.982 44.6988 56.831 43.1508 57.302C42.1698 57.6 40.9628 57.026 40.3928 56.019C39.8948 55.136 39.8548 54.107 39.8818 53.218C39.9588 50.723 40.6438 47.788 41.4578 46.33L36.7398 41.729C35.4488 42.382 34.1008 42.806 32.7228 42.994C32.5898 45.038 32.1538 47.374 31.6858 49.629C32.9728 50.744 34.4318 52.075 35.7188 53.603C36.4198 54.435 37.0898 55.357 37.2438 56.462C37.4088 57.638 36.7858 59.091 35.4948 59.39C33.7918 59.781 31.7028 57.667 30.1498 56.022C29.6748 57.759 29.1598 59.468 28.6158 61.114C28.2858 62.112 27.8478 63.217 26.8178 63.72C26.4788 63.88 26.0298 63.964 25.4838 63.964ZM24.0998 53.434L22.6348 59.636C22.4038 60.614 22.2618 61.598 22.7828 62.172C23.3318 62.776 25.5788 63.207 26.3778 62.817C27.3778 62.328 27.9918 60.275 29.4198 54.878C29.4668 54.7 29.6088 54.562 29.7888 54.519C29.9678 54.477 30.1568 54.537 30.2788 54.675C31.2058 55.727 32.2208 56.707 33.2968 57.589C35.6498 59.514 36.3918 57.596 36.2528 56.596C36.1398 55.789 35.6518 55.072 34.9528 54.242C33.6358 52.679 32.1188 51.316 30.8088 50.189C30.6708 50.07 30.6078 49.886 30.6458 49.708C31.1608 47.249 31.6498 44.676 31.7468 42.52C31.7578 42.272 31.9498 42.07 32.1968 42.045C39.2168 41.34 33.9998 37.656 42.4438 45.891C42.6208 46.063 42.6448 46.339 42.5008 46.54C41.7878 47.536 40.9658 50.468 40.8808 53.244C40.8018 55.832 41.9908 56.608 42.8578 56.34C43.8578 56.035 44.1218 54.299 44.6338 52.78C46.1078 48.408 44.5678 47.962 50.8468 54.085C51.5238 54.745 52.3158 55.423 53.0978 55.263C53.8568 55.112 55.4198 53.443 55.5008 52.513C55.5878 51.513 54.6458 50.336 50.2528 45.82C50.1238 45.688 50.0788 45.495 50.1348 45.319C50.1908 45.143 50.3398 45.013 50.5208 44.98C51.7738 44.751 55.8888 43.892 56.3008 42.624C56.6248 41.624 55.6108 40.258 52.5648 40.749C50.5418 41.074 48.5898 41.674 46.9478 42.218C46.7758 42.275 46.5838 42.234 46.4508 42.11C44.6128 40.406 42.8118 38.774 40.9908 37.548C40.8808 37.474 40.8038 37.359 40.7798 37.229C40.7548 37.099 40.7818 36.963 40.8568 36.854C41.8868 35.334 42.4708 33.709 42.6438 31.888C42.6628 31.683 42.8058 31.511 43.0028 31.454L49.3218 29.638C49.5588 29.571 49.8108 29.684 49.9138 29.909C51.0888 32.464 57.8908 37.61 58.6038 34.453C58.7638 33.743 58.1338 32.99 57.4968 32.348C57.1358 31.984 56.7688 31.573 56.3908 31.148C53.2998 27.675 52.2098 28.807 60.6018 26.396C61.5678 26.118 62.4948 25.76 62.7398 25.024C62.9848 24.29 62.3088 22.105 61.5418 21.574C61.0038 21.203 60.0298 21.269 59.1488 21.442C57.1758 21.827 55.1518 22.287 53.1308 22.81C52.9508 22.857 52.7618 22.8 52.6368 22.664C52.5118 22.528 52.4718 22.335 52.5328 22.161C52.9958 20.837 53.3538 19.472 53.5948 18.102C53.7208 17.381 53.8068 16.487 53.3448 15.98C53.0758 15.685 52.7008 15.622 52.4328 15.622C52.0308 15.622 51.5998 15.767 51.2808 16.011C50.6328 16.504 50.2468 17.281 49.8658 18.297C49.1478 20.212 48.7028 22.202 48.3618 23.896C48.3258 24.075 48.1958 24.219 48.0218 24.274C46.2888 24.82 44.0728 25.546 42.3118 26.321C42.0608 26.431 41.7708 26.32 41.6568 26.073C40.7138 24.034 39.2378 22.458 37.2718 21.388C37.0688 21.277 36.9678 21.042 37.0278 20.819L38.3918 15.745C38.4558 15.506 38.6828 15.349 38.9308 15.378C41.4608 15.668 49.7198 12.593 47.3088 10.281C47.0708 10.052 46.7298 9.942 46.2668 9.942C45.8278 9.942 41.6268 10.743 40.4348 11.167C40.2588 11.23 40.0638 11.189 39.9278 11.063C39.7918 10.937 39.7358 10.746 39.7838 10.566L41.4388 4.411C41.6998 3.441 41.8718 2.462 41.3678 1.872C41.0288 1.475 39.7058 0.996 38.5708 0.996C38.2448 0.996 37.9688 1.039 37.7958 1.118C37.1038 1.431 36.7368 2.305 36.4468 3.099C35.7588 4.984 35.1088 6.956 34.5118 8.959C34.4598 9.136 34.3138 9.269 34.1328 9.306C33.9488 9.343 33.7648 9.277 33.6478 9.135C32.7528 8.054 31.7678 7.043 30.7198 6.131C30.1808 5.661 29.4708 5.112 28.7748 5.249C28.0638 5.391 27.6568 6.303 27.7358 7.033C27.8238 7.842 28.2898 8.574 28.9628 9.425C30.2328 11.029 31.7068 12.437 32.9818 13.603C33.1168 13.726 33.1728 13.913 33.1298 14.09C32.5498 16.485 32.1728 18.322 31.9778 19.707C31.9448 19.943 31.7488 20.123 31.5108 20.136C29.5248 20.248 27.2738 20.862 25.4898 21.777C25.2928 21.877 25.0548 21.839 24.9018 21.679C18.2088 14.741 22.5058 20.706 23.1218 10.679C23.1678 9.929 23.1668 9.07 22.8098 8.39C22.4838 7.77 21.7918 7.375 21.2408 7.523C20.5388 7.714 20.1678 8.623 19.8988 9.488C19.4688 10.864 18.7598 12.387 18.4608 13.872C18.4238 14.055 18.2898 14.201 18.1108 14.253C17.9308 14.304 17.7398 14.254 17.6108 14.12L13.1858 9.532C12.5278 8.849 11.7588 8.157 10.9718 8.285C10.2098 8.413 8.59476 10.033 8.48576 10.96C8.39776 11.712 8.95776 12.478 9.48976 13.136C10.7188 14.655 12.0398 16.184 13.5268 17.81C13.6518 17.946 13.6908 18.14 13.6288 18.314C13.5668 18.488 13.4148 18.614 13.2328 18.642C11.8418 18.853 10.4658 19.178 9.14176 19.607C8.44476 19.833 7.61576 20.174 7.38376 20.821C7.13876 21.503 7.71176 22.321 8.37876 22.63C10.1388 23.446 14.8648 22.065 16.7198 21.513C16.8928 21.462 17.0828 21.509 17.2138 21.636C18.2928 22.7 19.8288 24.213 21.3558 25.46C21.5178 25.592 21.5808 25.811 21.5128 26.009C21.3578 26.462 21.2388 26.942 21.1598 27.437C20.8788 29.184 20.2188 30.105 20.2808 32.311C20.2868 32.545 20.1308 32.752 19.9038 32.81L14.6208 34.155C14.3798 34.219 14.1328 34.093 14.0368 33.865C13.5598 32.737 11.4868 30.507 9.16276 28.986C8.53376 28.574 7.78676 28.15 7.01876 28.123C7.01776 28.123 7.01676 28.123 7.01576 28.123C6.36176 28.123 5.64576 28.451 5.48876 29.057C5.30676 29.762 5.91376 30.534 6.53176 31.196C7.50176 32.235 8.48176 33.617 9.62776 34.616C9.76776 34.738 9.82876 34.928 9.78576 35.109C9.74276 35.29 9.60276 35.432 9.42276 35.478L3.24576 37.05C2.27176 37.298 1.33376 37.627 1.06576 38.356C0.798756 39.082 1.40676 41.287 2.15776 41.841C3.16076 42.58 6.14376 41.873 10.6028 40.863C10.7818 40.821 10.9708 40.884 11.0908 41.024C11.2118 41.164 11.2458 41.358 11.1798 41.531C10.6758 42.841 10.2768 44.195 9.99476 45.554C9.40776 48.372 11.2418 48.428 12.2418 47.715C13.8028 46.601 14.9638 41.8 15.4018 39.923C15.4438 39.746 15.5778 39.605 15.7528 39.555C17.5168 39.058 19.7728 38.394 21.5748 37.662C21.7868 37.574 22.0298 37.644 22.1658 37.83C22.2948 38.007 22.4298 38.181 22.5718 38.348C23.6048 39.561 24.9838 40.549 26.5598 41.203C26.7858 41.297 26.9108 41.541 26.8548 41.78L25.3348 48.213C25.2778 48.453 25.0468 48.614 24.8078 48.596C22.9268 48.437 17.4648 50.405 16.4708 52.159C15.9028 53.159 16.0908 54.807 18.9688 54.013C20.3458 53.632 22.0198 53.404 23.4338 52.851C23.8078 52.706 24.1918 53.042 24.0998 53.434Z" fill="white"/>
<path d="M31.4337 37.243C26.7077 37.243 23.2747 31.367 26.5917 27.24C27.6047 25.979 29.1137 25.161 30.7317 24.997C33.6067 24.713 36.5017 26.722 37.2637 29.456C38.2337 32.935 35.6397 37.243 31.4337 37.243ZM31.2897 25.969C31.1367 25.969 30.9837 25.976 30.8307 25.992C29.4987 26.127 28.2047 26.828 27.3697 27.866C24.5567 31.367 27.5707 36.243 31.4327 36.243C34.8677 36.243 37.1297 32.701 36.2997 29.725C35.7027 27.584 33.5497 25.969 31.2897 25.969Z" fill="white"/>
<path d="M43.1888 56.3719L41.6038 54.7859C41.5058 54.6879 41.5058 54.5299 41.6038 54.4319C41.7018 54.3339 41.8598 54.3339 41.9578 54.4319L43.5428 56.0179C43.6408 56.1159 43.6408 56.2739 43.5428 56.3719C43.4448 56.4689 43.2868 56.4689 43.1888 56.3719Z" fill="white"/>
<path d="M43.8688 54.88L42.4058 53.417C42.3078 53.319 42.3078 53.161 42.4058 53.063C42.5038 52.965 42.6618 52.965 42.7598 53.063L44.2228 54.526C44.3208 54.624 44.3208 54.782 44.2228 54.88C44.1248 54.978 43.9668 54.978 43.8688 54.88Z" fill="white"/>
<path d="M44.5617 53.4959L42.8307 51.7649C42.7327 51.6669 42.7327 51.5089 42.8307 51.4109C42.9287 51.3129 43.0867 51.3129 43.1837 51.4109L44.9147 53.1419C45.0127 53.2399 45.0127 53.3979 44.9147 53.4959C44.8177 53.5939 44.6587 53.5939 44.5617 53.4959Z" fill="white"/>
<path d="M45.2628 51.555L43.9158 50.208C43.8178 50.11 43.8178 49.952 43.9158 49.854C44.0138 49.756 44.1718 49.756 44.2698 49.854L45.6168 51.201C45.7148 51.299 45.7148 51.457 45.6168 51.555C45.5188 51.652 45.3608 51.652 45.2628 51.555Z" fill="white"/>
<path d="M45.5757 50.3571L44.2467 49.0281C44.1487 48.9301 44.1487 48.7721 44.2467 48.6741C44.3447 48.5761 44.5027 48.5761 44.6007 48.6741L45.9297 50.0031C46.1617 50.2361 45.8097 50.5911 45.5757 50.3571Z" fill="white"/>
<path d="M52.7007 55.4061L50.9487 53.6541C50.8507 53.5561 50.8507 53.3981 50.9487 53.3001C51.0467 53.2021 51.2047 53.2021 51.3027 53.3001L53.0547 55.0521C53.1527 55.1501 53.1527 55.3081 53.0547 55.4061C52.9567 55.5031 52.7987 55.5031 52.7007 55.4061Z" fill="white"/>
<path d="M53.9478 54.3871L52.4118 52.8511C52.3138 52.7531 52.3138 52.5951 52.4118 52.4971C52.5098 52.3991 52.6678 52.3991 52.7658 52.4971L54.3018 54.0331C54.3998 54.1311 54.3998 54.2891 54.3018 54.3871C54.2038 54.4841 54.0458 54.4841 53.9478 54.3871Z" fill="white"/>
<path d="M54.6637 53.3079L53.1207 51.7649C53.0227 51.6669 53.0227 51.5089 53.1207 51.4109C53.2187 51.3129 53.3767 51.3129 53.4747 51.4109L55.0177 52.9539C55.1157 53.0519 55.1157 53.2099 55.0177 53.3079C54.9197 53.4059 54.7607 53.4059 54.6637 53.3079Z" fill="white"/>
<path d="M54.5128 51.3641L53.1668 50.0191C53.0688 49.9211 53.0688 49.7631 53.1668 49.6651C53.2648 49.5671 53.4228 49.5671 53.5208 49.6651L54.8668 51.0101C54.9648 51.1081 54.9648 51.2661 54.8668 51.3641C54.7688 51.4621 54.6108 51.4621 54.5128 51.3641Z" fill="white"/>
<path d="M52.1058 45.606L50.5718 44.072C50.4738 43.974 50.4738 43.816 50.5718 43.718C50.6698 43.62 50.8278 43.62 50.9258 43.718L52.4598 45.252C52.5578 45.35 52.5578 45.508 52.4598 45.606C52.3618 45.704 52.2038 45.704 52.1058 45.606Z" fill="white"/>
<path d="M53.2858 45.086L51.9408 43.741C51.8428 43.643 51.8428 43.485 51.9408 43.387C52.0388 43.289 52.1968 43.289 52.2938 43.387L53.6388 44.732C53.7368 44.83 53.7368 44.988 53.6388 45.086C53.5418 45.184 53.3838 45.184 53.2858 45.086Z" fill="white"/>
<path d="M54.9487 44.4751C54.7837 44.4751 53.5667 43.1971 53.4497 43.0801C53.3517 42.9821 53.3517 42.8241 53.4497 42.7261C53.5477 42.6281 53.7057 42.6281 53.8037 42.7261L55.1257 44.0471C55.2237 44.1451 55.2237 44.3031 55.1257 44.4011C55.0767 44.4511 55.0127 44.4751 54.9487 44.4751Z" fill="white"/>
<path d="M56.1298 43.5791C55.9648 43.5791 54.7478 42.3011 54.6308 42.1831C54.5328 42.0851 54.5328 41.9271 54.6308 41.8291C54.7288 41.7311 54.8868 41.7311 54.9848 41.8291L56.3067 43.1511C56.4647 43.3101 56.3508 43.5791 56.1298 43.5791Z" fill="white"/>
<path d="M55.5048 42.1609L54.9618 41.6179C54.8638 41.5199 54.8638 41.3619 54.9618 41.2639C55.0598 41.1659 55.2178 41.1659 55.3148 41.2639C55.5878 41.5369 56.1108 41.9079 55.8578 42.1609C55.7598 42.2579 55.6018 42.2579 55.5048 42.1609Z" fill="white"/>
<path d="M50.6537 44.8061C50.5897 44.8061 50.5257 44.7821 50.4767 44.7331C50.3787 44.6351 50.3787 44.4771 50.4767 44.3791L52.1807 42.6751C52.2787 42.5771 52.4367 42.5771 52.5347 42.6751C52.6327 42.7731 52.6327 42.9311 52.5347 43.0291L50.8307 44.7331C50.7817 44.7811 50.7177 44.8061 50.6537 44.8061Z" fill="white"/>
<path d="M52.6488 44.4259L55.0338 42.0409C55.2658 41.8089 55.6218 42.1599 55.3878 42.3949L53.0018 44.7799C52.7698 45.0119 52.4128 44.6619 52.6488 44.4259Z" fill="white"/>
<path d="M41.3678 55.919C41.2698 55.821 41.2698 55.663 41.3678 55.565L43.1928 53.74C43.2908 53.642 43.4488 53.642 43.5468 53.74C43.6448 53.838 43.6448 53.996 43.5468 54.094L41.7218 55.919C41.6238 56.017 41.4658 56.017 41.3678 55.919Z" fill="white"/>
<path d="M42.9607 52.9709C42.8967 52.9709 42.8327 52.9469 42.7837 52.8979C42.6857 52.7999 42.6857 52.6419 42.7837 52.5439L44.4837 50.8439C44.7157 50.6119 45.0717 50.9629 44.8377 51.1979L43.1377 52.8979C43.0887 52.9469 43.0247 52.9709 42.9607 52.9709Z" fill="white"/>
<path d="M44.3287 50.1859C44.2647 50.1859 44.2007 50.1619 44.1517 50.1129C44.0537 50.0149 44.0537 49.8569 44.1517 49.7589L44.7667 49.1439C44.9987 48.9119 45.3547 49.2629 45.1207 49.4979L44.5057 50.1129C44.4567 50.1619 44.3927 50.1859 44.3287 50.1859Z" fill="white"/>
<path d="M51.3268 55.117C51.2288 55.019 51.2288 54.861 51.3268 54.763L53.2438 52.846C53.3418 52.748 53.4998 52.748 53.5968 52.846C53.6948 52.944 53.6948 53.102 53.5968 53.2L51.6798 55.117C51.5828 55.214 51.4248 55.214 51.3268 55.117Z" fill="white"/>
<path d="M53.4978 54.2911L54.5878 53.2011C54.8208 52.9691 55.1758 53.3201 54.9418 53.5551L53.8518 54.6451C53.6188 54.8771 53.2638 54.5251 53.4978 54.2911Z" fill="white"/>
<path d="M53.3917 51.98C53.3277 51.98 53.2637 51.956 53.2147 51.907C53.1167 51.809 53.1167 51.651 53.2147 51.553L53.9227 50.845C54.0207 50.747 54.1787 50.747 54.2767 50.845C54.3747 50.943 54.3747 51.101 54.2767 51.199L53.5687 51.907C53.5197 51.956 53.4557 51.98 53.3917 51.98Z" fill="white"/>
<path d="M53.3917 50.8001C53.3277 50.8001 53.2637 50.7761 53.2147 50.7271C53.1167 50.6291 53.1167 50.4711 53.2147 50.3731L53.8357 49.7521C54.0677 49.5201 54.4237 49.8711 54.1897 50.1061L53.5687 50.7271C53.5197 50.7761 53.4557 50.8001 53.3917 50.8001Z" fill="white"/>
<path d="M56.7277 36.008L55.1167 34.397C55.0187 34.299 55.0187 34.141 55.1167 34.043C55.2147 33.945 55.3727 33.945 55.4707 34.043L57.0817 35.654C57.1797 35.752 57.1797 35.91 57.0817 36.008C56.9837 36.105 56.8257 36.105 56.7277 36.008Z" fill="white"/>
<path d="M58.1197 35.385C57.9547 35.385 56.7387 34.107 56.6207 33.99C56.5227 33.892 56.5227 33.734 56.6207 33.636C56.7187 33.538 56.8767 33.538 56.9747 33.636L58.2967 34.958C58.4547 35.116 58.3407 35.385 58.1197 35.385Z" fill="white"/>
<path d="M57.9238 34.1531L56.9878 33.2171C56.8898 33.1191 56.8898 32.9611 56.9878 32.8631C57.0858 32.7651 57.2438 32.7651 57.3408 32.8631L58.2778 33.7991C58.3758 33.8971 58.3758 34.0551 58.2778 34.1531C58.1798 34.2511 58.0218 34.2511 57.9238 34.1531Z" fill="white"/>
<path d="M56.6428 28.196L55.6858 27.239C55.5878 27.141 55.5878 26.983 55.6858 26.885C55.7838 26.787 55.9418 26.787 56.0398 26.885L56.9968 27.842C57.2288 28.075 56.8778 28.431 56.6428 28.196Z" fill="white"/>
<path d="M58.1268 27.4429L56.9068 26.2229C56.8088 26.1249 56.8088 25.9669 56.9068 25.8689C57.0048 25.7709 57.1628 25.7709 57.2608 25.8689L58.4808 27.0889C58.5788 27.1869 58.5788 27.3449 58.4808 27.4429C58.3828 27.5399 58.2238 27.5399 58.1268 27.4429Z" fill="white"/>
<path d="M59.7097 26.993L58.2887 25.572C58.1907 25.474 58.1907 25.316 58.2887 25.218C58.3867 25.12 58.5447 25.12 58.6427 25.218L60.0637 26.639C60.2957 26.872 59.9437 27.227 59.7097 26.993Z" fill="white"/>
<path d="M61.3837 26.268L59.7527 24.637C59.6547 24.539 59.6547 24.381 59.7527 24.283C59.8507 24.185 60.0087 24.185 60.1067 24.283L61.7377 25.914C61.9697 26.147 61.6177 26.502 61.3837 26.268Z" fill="white"/>
<path d="M62.5828 24.8639L61.3388 23.6199C61.2408 23.5219 61.2408 23.3639 61.3388 23.2659C61.4368 23.1679 61.5948 23.1679 61.6928 23.2659L62.9368 24.5099C63.1688 24.7429 62.8178 25.0989 62.5828 24.8639Z" fill="white"/>
<path d="M62.1538 23.2551L61.5828 22.6841C61.4848 22.5861 61.4848 22.4281 61.5828 22.3311C61.6808 22.2331 61.8388 22.2331 61.9368 22.3311L62.5078 22.9021C62.6058 23.0001 62.6058 23.1581 62.5078 23.2561C62.4088 23.3531 62.2508 23.3531 62.1538 23.2551Z" fill="white"/>
<path d="M55.1848 28.405L54.4258 27.646C54.3278 27.548 54.3278 27.39 54.4258 27.292C54.5238 27.194 54.6818 27.194 54.7798 27.292L55.5388 28.051C55.6368 28.149 55.6368 28.307 55.5388 28.405C55.4408 28.503 55.2818 28.503 55.1848 28.405Z" fill="white"/>
<path d="M54.6698 28.256C54.5718 28.158 54.5718 28 54.6698 27.902L56.7508 25.822C56.8488 25.724 57.0068 25.724 57.1048 25.822C57.2028 25.92 57.2028 26.078 57.1048 26.176L55.0238 28.256C54.9248 28.353 54.7668 28.353 54.6698 28.256Z" fill="white"/>
<path d="M57.3678 27.3121C57.3038 27.3121 57.2398 27.2881 57.1908 27.2391C57.0928 27.1411 57.0928 26.9831 57.1908 26.8851L59.3928 24.6831C59.4908 24.5851 59.6488 24.5851 59.7468 24.6831C59.8448 24.7811 59.8448 24.9391 59.7468 25.0371L57.5448 27.2391C57.4958 27.2881 57.4318 27.3121 57.3678 27.3121Z" fill="white"/>
<path d="M59.9558 26.032L61.5228 24.465C61.7548 24.233 62.1108 24.584 61.8768 24.819L60.3098 26.386C60.0768 26.618 59.7218 26.266 59.9558 26.032Z" fill="white"/>
<path d="M61.2717 24.1001C61.2077 24.1001 61.1437 24.0761 61.0947 24.0271C60.9967 23.9291 60.9967 23.7711 61.0947 23.6731L62.0717 22.6961C62.1697 22.5981 62.3277 22.5981 62.4257 22.6961C62.5237 22.7941 62.5237 22.9521 62.4257 23.0491L61.4487 24.0261C61.3997 24.0761 61.3357 24.1001 61.2717 24.1001Z" fill="white"/>
<path d="M55.3698 35.0509L57.2758 33.1449C57.5088 32.9129 57.8638 33.2639 57.6298 33.4989L55.7238 35.4049C55.4908 35.6369 55.1348 35.2849 55.3698 35.0509Z" fill="white"/>
<path d="M57.0778 35.079C56.9798 34.981 56.9798 34.823 57.0778 34.725L57.6678 34.135C57.7658 34.037 57.9238 34.037 58.0218 34.135C58.2818 34.395 57.7118 34.799 57.4318 35.078C57.3338 35.177 57.1758 35.177 57.0778 35.079Z" fill="white"/>
<path d="M23.7418 62.4719C23.5738 62.4719 22.0188 60.8519 21.8998 60.7329C21.8018 60.6349 21.8018 60.4769 21.8998 60.3789C21.9978 60.2809 22.1558 60.2809 22.2538 60.3789L23.9188 62.0449C24.0758 62.2029 23.9628 62.4719 23.7418 62.4719Z" fill="white"/>
<path d="M25.5018 63.2299L24.1088 61.8369C24.0108 61.7389 24.0108 61.5809 24.1088 61.4829C24.2068 61.3849 24.3648 61.3849 24.4628 61.4829L25.8548 62.8759C25.9528 62.9739 25.9528 63.1319 25.8548 63.2299C25.7578 63.3279 25.5988 63.3279 25.5018 63.2299Z" fill="white"/>
<path d="M26.8478 62.367L25.8858 61.405C25.7878 61.307 25.7878 61.149 25.8858 61.051C25.9838 60.953 26.1418 60.953 26.2398 61.051L27.2018 62.013C27.2998 62.111 27.2998 62.269 27.2018 62.367C27.1038 62.465 26.9458 62.465 26.8478 62.367Z" fill="white"/>
<path d="M27.7697 60.647L26.7987 59.676C26.7007 59.578 26.7007 59.42 26.7987 59.322C26.8967 59.224 27.0547 59.224 27.1527 59.322L28.1237 60.293C28.2217 60.391 28.2217 60.549 28.1237 60.647C28.0257 60.745 27.8667 60.745 27.7697 60.647Z" fill="white"/>
<path d="M28.3838 59.052L27.5188 58.187C27.4208 58.089 27.4208 57.931 27.5188 57.833C27.6168 57.735 27.7748 57.735 27.8728 57.833L28.7378 58.698C28.8358 58.796 28.8358 58.954 28.7378 59.052C28.6388 59.15 28.4808 59.15 28.3838 59.052Z" fill="white"/>
<path d="M28.7597 58.036L27.9027 57.179C27.8047 57.081 27.8047 56.923 27.9027 56.825C28.0007 56.727 28.1587 56.727 28.2567 56.825L29.1137 57.682C29.2117 57.78 29.2117 57.938 29.1137 58.036C29.0157 58.134 28.8577 58.134 28.7597 58.036Z" fill="white"/>
<path d="M22.3318 61.8681L23.2018 60.9981C23.2998 60.9001 23.4578 60.9001 23.5558 60.9981C23.6538 61.0961 23.6538 61.2541 23.5558 61.3521L22.6858 62.2221C22.4528 62.4541 22.0978 62.1021 22.3318 61.8681Z" fill="white"/>
<path d="M23.8688 62.9251L25.7438 61.0501C25.8418 60.9521 25.9998 60.9521 26.0978 61.0501C26.1958 61.1481 26.1958 61.3061 26.0978 61.4041L24.2218 63.2791C23.9898 63.5111 23.6348 63.1591 23.8688 62.9251Z" fill="white"/>
<path d="M26.5098 60.3011C26.4118 60.2031 26.4118 60.0451 26.5098 59.9471L27.9898 58.4661C28.0878 58.3681 28.2458 58.3681 28.3438 58.4661C28.4418 58.5641 28.4418 58.7221 28.3438 58.8201L26.8638 60.3011C26.7658 60.3981 26.6078 60.3981 26.5098 60.3011Z" fill="white"/>
<path d="M27.8397 57.8291C27.7757 57.8291 27.7117 57.8051 27.6627 57.7561C27.5647 57.6581 27.5647 57.5001 27.6627 57.4021L28.1927 56.8721C28.2907 56.7741 28.4487 56.7741 28.5467 56.8721C28.6447 56.9701 28.6447 57.1281 28.5467 57.2261L28.0167 57.7561C27.9677 57.8041 27.9037 57.8291 27.8397 57.8291Z" fill="white"/>
<path d="M34.9958 58.7419C34.8278 58.7419 33.3038 57.1539 33.1858 57.0349C33.0878 56.9369 33.0878 56.7789 33.1858 56.6809C33.2838 56.5829 33.4418 56.5829 33.5398 56.6809L35.1728 58.3139C35.2708 58.4119 35.2708 58.5699 35.1728 58.6679C35.1238 58.7169 35.0598 58.7419 34.9958 58.7419Z" fill="white"/>
<path d="M35.7797 57.8031L34.5787 56.6021C34.4807 56.5041 34.4807 56.3461 34.5787 56.2481C34.6767 56.1501 34.8347 56.1501 34.9317 56.2481L36.1327 57.4491C36.2307 57.5471 36.2307 57.7051 36.1327 57.8031C36.0347 57.9011 35.8767 57.9011 35.7797 57.8031Z" fill="white"/>
<path d="M36.3018 56.7891L35.0108 55.4981C34.9128 55.4001 34.9128 55.2421 35.0108 55.1441C35.1088 55.0461 35.2668 55.0461 35.3648 55.1441L36.6558 56.4351C36.7538 56.5331 36.7538 56.6911 36.6558 56.7891C36.5578 56.8871 36.3998 56.8871 36.3018 56.7891Z" fill="white"/>
<path d="M33.4258 58.0259L35.2068 56.2449C35.3048 56.1469 35.4628 56.1469 35.5608 56.2449C35.6588 56.3429 35.6588 56.5009 35.5608 56.5979L33.7798 58.3799C33.5468 58.6119 33.1918 58.2609 33.4258 58.0259Z" fill="white"/>
<path d="M35.4907 57.738C35.7777 57.451 36.2127 56.844 36.4757 57.107C36.7387 57.37 36.1307 57.805 35.8447 58.092C35.6127 58.324 35.2567 57.972 35.4907 57.738Z" fill="white"/>
<path d="M17.6498 54.5139L16.4728 53.3369C16.3748 53.2389 16.3748 53.0809 16.4728 52.9829C16.5708 52.8849 16.7288 52.8849 16.8258 52.9829L18.0028 54.1599C18.1008 54.2579 18.1008 54.4159 18.0028 54.5139C17.9048 54.6109 17.7468 54.6109 17.6498 54.5139Z" fill="white"/>
<path d="M19.5318 54.5159C19.3668 54.5159 18.2217 53.3099 18.1047 53.1929C18.0068 53.0949 18.0068 52.9369 18.1047 52.8389C18.2027 52.7409 18.3608 52.7409 18.4588 52.8389L19.7088 54.0889C19.8068 54.1869 19.8068 54.3449 19.7088 54.4419C19.6598 54.4909 19.5958 54.5159 19.5318 54.5159Z" fill="white"/>
<path d="M21.0917 54.1139L19.8827 52.9049C19.6497 52.6729 20.0017 52.3169 20.2367 52.5509L21.4457 53.7599C21.5437 53.8579 21.5437 54.0159 21.4457 54.1139C21.3477 54.2109 21.1897 54.2109 21.0917 54.1139Z" fill="white"/>
<path d="M22.7698 53.3431L21.9958 52.5691C21.7628 52.3361 22.1148 51.9811 22.3498 52.2151L23.1238 52.9901C23.2218 53.0881 23.2218 53.2461 23.1238 53.3441C23.0258 53.4401 22.8678 53.4401 22.7698 53.3431Z" fill="white"/>
<path d="M16.4728 53.992L18.2048 52.26C18.3028 52.162 18.4608 52.162 18.5588 52.26C18.6568 52.358 18.6568 52.516 18.5588 52.614L16.8268 54.346C16.5938 54.578 16.2388 54.226 16.4728 53.992Z" fill="white"/>
<path d="M18.9697 53.6559L20.3827 52.2429C20.4807 52.1449 20.6387 52.1449 20.7357 52.2429C20.8337 52.3409 20.8337 52.4989 20.7357 52.5969L19.3227 54.0099C19.0917 54.2419 18.7357 53.8899 18.9697 53.6559Z" fill="white"/>
<path d="M21.7558 52.8389L22.3598 52.2349C22.5918 52.0019 22.9478 52.3539 22.7138 52.5879L22.1098 53.1929C21.8768 53.4249 21.5198 53.0749 21.7558 52.8389Z" fill="white"/>
<path d="M11.5678 48.7191C11.4018 48.7191 10.0298 47.2841 9.91177 47.1661C9.67977 46.9341 10.0308 46.5781 10.2648 46.8121L11.7438 48.2921C11.8418 48.3901 11.8418 48.5481 11.7438 48.6461C11.6958 48.6941 11.6318 48.7191 11.5678 48.7191Z" fill="white"/>
<path d="M12.6298 47.642L11.3428 46.356C11.2448 46.258 11.2448 46.1 11.3428 46.002C11.4408 45.904 11.5988 45.904 11.6968 46.002L12.9838 47.288C13.0818 47.386 13.0818 47.544 12.9838 47.642C12.8858 47.74 12.7278 47.74 12.6298 47.642Z" fill="white"/>
<path d="M13.6207 45.332L12.4027 44.114C12.3047 44.016 12.3047 43.858 12.4027 43.76C12.5007 43.662 12.6587 43.662 12.7567 43.76L13.9747 44.978C14.2107 45.215 13.8497 45.561 13.6207 45.332Z" fill="white"/>
<path d="M14.1878 44.0929L12.9628 42.8679C12.8648 42.7699 12.8648 42.6119 12.9628 42.5139C13.0608 42.4159 13.2188 42.4159 13.3168 42.5139L14.5418 43.7389C14.7778 43.9759 14.4168 44.3219 14.1878 44.0929Z" fill="white"/>
<path d="M14.9897 42.654L13.6477 41.311C13.5497 41.213 13.5497 41.055 13.6477 40.957C13.7457 40.859 13.9037 40.859 14.0017 40.957L15.3437 42.3C15.4417 42.398 15.4417 42.556 15.3437 42.654C15.2457 42.751 15.0877 42.751 14.9897 42.654Z" fill="white"/>
<path d="M9.84879 47.123L11.8888 45.083C11.9868 44.985 12.1448 44.985 12.2418 45.083C12.3398 45.181 12.3398 45.339 12.2418 45.437L10.2018 47.477C9.96979 47.709 9.61379 47.358 9.84879 47.123Z" fill="white"/>
<path d="M12.9528 44.4361C12.8888 44.4361 12.8248 44.4121 12.7758 44.3631C12.6778 44.2651 12.6778 44.1071 12.7758 44.0091L14.0858 42.6991C14.3178 42.4671 14.6738 42.8181 14.4398 43.0531L13.1308 44.3631C13.0808 44.4121 13.0168 44.4361 12.9528 44.4361Z" fill="white"/>
<path d="M14.0217 41.0619C13.9237 40.9639 13.9237 40.8059 14.0217 40.7079C14.2817 40.4479 14.6867 41.0199 14.9657 41.2989C15.0637 41.3969 15.0637 41.5549 14.9657 41.6529C14.7057 41.9129 14.3007 41.3409 14.0217 41.0619Z" fill="white"/>
<path d="M15.2368 40.5339L14.5818 39.8789C14.4838 39.7809 14.4838 39.6229 14.5818 39.5249C14.6798 39.4269 14.8378 39.4269 14.9348 39.5249L15.5898 40.1799C15.6878 40.2779 15.6878 40.4359 15.5898 40.5339C15.4928 40.6309 15.3348 40.6309 15.2368 40.5339Z" fill="white"/>
<path d="M11.4678 46.9991L12.8688 45.5971C13.1008 45.3651 13.4568 45.7161 13.2218 45.9511L11.8208 47.3531C11.5898 47.5851 11.2338 47.2331 11.4678 46.9991Z" fill="white"/>
<path d="M3.0727 42.878L1.8517 41.657C1.7537 41.559 1.7537 41.401 1.8517 41.303C1.9497 41.205 2.1077 41.205 2.2047 41.303L3.4257 42.524C3.5237 42.622 3.5237 42.78 3.4257 42.878C3.3287 42.976 3.1707 42.976 3.0727 42.878Z" fill="white"/>
<path d="M4.50981 42.668L3.3108 41.469C3.2128 41.371 3.2128 41.213 3.3108 41.115C3.4088 41.017 3.5668 41.017 3.6638 41.115L4.8628 42.314C4.9608 42.412 4.9608 42.57 4.8628 42.668C4.7658 42.766 4.60781 42.766 4.50981 42.668Z" fill="white"/>
<path d="M4.86281 41.2341C4.76481 41.1361 4.76481 40.9781 4.86281 40.8811C4.96081 40.7831 5.11881 40.7831 5.21681 40.8811L6.28181 41.9451C6.37981 42.0431 6.37981 42.2011 6.28181 42.2991C6.01981 42.5601 5.12981 41.5011 4.86281 41.2341Z" fill="white"/>
<path d="M7.4757 41.9649L6.4147 40.9039C6.1827 40.6719 6.5337 40.3159 6.7677 40.5499L7.8287 41.6109C7.9267 41.7089 7.9267 41.8669 7.8287 41.9649C7.7317 42.0629 7.5727 42.0629 7.4757 41.9649Z" fill="white"/>
<path d="M9.0748 41.542L8.1078 40.575C8.0098 40.477 8.0098 40.319 8.1078 40.221C8.2058 40.123 8.3638 40.123 8.4608 40.221L9.4278 41.188C9.5258 41.286 9.5258 41.444 9.4278 41.542C9.3308 41.64 9.1728 41.64 9.0748 41.542Z" fill="white"/>
<path d="M10.4868 41.3071L9.66078 40.4811C9.42878 40.2491 9.77978 39.8931 10.0148 40.1271L10.8408 40.9531C10.9388 41.0511 10.9388 41.2091 10.8408 41.3071C10.7428 41.4051 10.5848 41.4051 10.4868 41.3071Z" fill="white"/>
<path d="M2.32274 42.197L4.09374 40.426C4.19174 40.328 4.34974 40.328 4.44674 40.426C4.54474 40.524 4.54474 40.682 4.44674 40.78L2.67574 42.551C2.44374 42.783 2.08874 42.432 2.32274 42.197Z" fill="white"/>
<path d="M4.72179 41.9621L6.17179 40.5121C6.40479 40.2801 6.75979 40.6311 6.52479 40.8661L5.07479 42.3161C4.84279 42.5481 4.48779 42.1961 4.72179 41.9621Z" fill="white"/>
<path d="M6.93174 41.4919L8.20974 40.2139C8.44174 39.9809 8.79774 40.3329 8.56374 40.5669L7.28574 41.8449C7.05274 42.0779 6.69774 41.7259 6.93174 41.4919Z" fill="white"/>
<path d="M9.00181 40.9271L9.94281 39.9861C10.0408 39.8881 10.1988 39.8881 10.2968 39.9861C10.3948 40.0841 10.3948 40.2421 10.2968 40.3391L9.35581 41.2801C9.12281 41.5131 8.76781 41.1621 9.00181 40.9271Z" fill="white"/>
<path d="M9.33382 23.4151C9.26982 23.4151 9.20582 23.3911 9.15682 23.3421L8.12282 22.3081C8.02482 22.2101 8.02482 22.0521 8.12282 21.9541C8.22082 21.8561 8.37882 21.8561 8.47582 21.9541L9.50982 22.9881C9.60782 23.0861 9.60782 23.2441 9.50982 23.3421C9.46182 23.3911 9.39782 23.4151 9.33382 23.4151Z" fill="white"/>
<path d="M10.8657 23.1831L9.5757 21.8931C9.4777 21.7951 9.4777 21.6371 9.5757 21.5401C9.6737 21.4421 9.8317 21.4421 9.9287 21.5401L11.2187 22.8301C11.3167 22.9281 11.3167 23.0861 11.2187 23.1841C11.1217 23.2801 10.9637 23.2801 10.8657 23.1831Z" fill="white"/>
<path d="M12.9477 23.3961L11.2787 21.7271C11.1807 21.6291 11.1807 21.4711 11.2787 21.3731C11.3767 21.2751 11.5347 21.2751 11.6317 21.3731L13.3007 23.0431C13.3987 23.1411 13.3987 23.2991 13.3007 23.3971C13.2037 23.4941 13.0457 23.4941 12.9477 23.3961Z" fill="white"/>
<path d="M14.9258 22.904C14.7598 22.904 13.4308 21.513 13.3128 21.395C13.2148 21.297 13.2148 21.139 13.3128 21.041C13.4108 20.943 13.5688 20.943 13.6668 21.041L15.1028 22.477C15.2008 22.575 15.2008 22.733 15.1028 22.831C15.0538 22.879 14.9898 22.904 14.9258 22.904Z" fill="white"/>
<path d="M16.0628 22.2341L15.2238 21.3941C15.1258 21.2961 15.1258 21.1381 15.2238 21.0401C15.3218 20.9421 15.4798 20.9421 15.5768 21.0401L16.4158 21.8801C16.5138 21.9781 16.5138 22.1361 16.4158 22.2341C16.3188 22.3321 16.1598 22.3321 16.0628 22.2341Z" fill="white"/>
<path d="M8.41372 22.8681L10.1077 21.1751C10.2057 21.0771 10.3637 21.0771 10.4617 21.1751C10.5597 21.2731 10.5597 21.4311 10.4617 21.5291L8.76772 23.2221C8.53472 23.4541 8.17872 23.1021 8.41372 22.8681Z" fill="white"/>
<path d="M10.6968 22.6601L12.2358 21.1211C12.3338 21.0231 12.4918 21.0231 12.5898 21.1211C12.6878 21.2191 12.6878 21.3771 12.5898 21.4751L11.0508 23.0141C10.8188 23.2461 10.4628 22.8941 10.6968 22.6601Z" fill="white"/>
<path d="M12.8148 22.2449L13.8558 21.2029C13.9538 21.1049 14.1118 21.1049 14.2098 21.2029C14.3078 21.3009 14.3078 21.4589 14.2098 21.5569L13.1688 22.5989C12.9358 22.8309 12.5808 22.4789 12.8148 22.2449Z" fill="white"/>
<path d="M14.3927 21.913L15.3897 20.916C15.4877 20.818 15.6457 20.818 15.7437 20.916C15.8417 21.014 15.8417 21.172 15.7437 21.27L14.7477 22.267C14.5137 22.499 14.1577 22.147 14.3927 21.913Z" fill="white"/>
<path d="M21.5578 16.9341L20.8698 16.2461C20.7718 16.1481 20.7718 15.9901 20.8698 15.8921C20.9678 15.7941 21.1258 15.7941 21.2238 15.8921L21.9118 16.5801C22.0098 16.6781 22.0098 16.8361 21.9118 16.9331C21.8138 17.0321 21.6548 17.0321 21.5578 16.9341Z" fill="white"/>
<path d="M22.2257 15.609L21.4507 14.834C21.3527 14.736 21.3527 14.578 21.4507 14.48C21.5487 14.382 21.7067 14.382 21.8047 14.48L22.5797 15.255C22.6777 15.353 22.6777 15.511 22.5797 15.609C22.4817 15.707 22.3237 15.707 22.2257 15.609Z" fill="white"/>
<path d="M22.4977 14.5521L21.5757 13.6301C21.4777 13.5321 21.4777 13.3741 21.5757 13.2771C21.6737 13.1791 21.8317 13.1791 21.9297 13.2771L22.8517 14.1991C23.0837 14.4311 22.7317 14.7871 22.4977 14.5521Z" fill="white"/>
<path d="M22.1978 12.592C22.0998 12.494 22.0998 12.336 22.1978 12.239C22.2958 12.141 22.4538 12.141 22.5518 12.239C22.8398 12.527 23.4588 12.974 23.1958 13.236C22.9168 13.515 22.4788 12.873 22.1978 12.592Z" fill="white"/>
<path d="M23.0938 12.0339L22.3228 11.2629C22.2248 11.1649 22.2248 11.0069 22.3228 10.9099C22.4208 10.8119 22.5788 10.8119 22.6768 10.9099L23.4478 11.6809C23.6798 11.9129 23.3278 12.2679 23.0938 12.0339Z" fill="white"/>
<path d="M23.1828 10.8361L22.5308 10.1841C22.4328 10.0861 22.4328 9.92809 22.5308 9.83009C22.6288 9.73209 22.7868 9.73209 22.8848 9.83009L23.5368 10.4821C23.6348 10.5801 23.6348 10.7381 23.5368 10.8361C23.4388 10.9341 23.2798 10.9341 23.1828 10.8361Z" fill="white"/>
<path d="M20.9638 16.9421C20.8998 16.9421 20.8358 16.9181 20.7868 16.8691C20.6888 16.7711 20.6888 16.6131 20.7868 16.5151L22.1848 15.1171C22.4168 14.8851 22.7728 15.2361 22.5388 15.4711C22.4208 15.5881 21.1288 16.9421 20.9638 16.9421Z" fill="white"/>
<path d="M21.5027 14.575C21.4387 14.575 21.3747 14.551 21.3257 14.502C21.2277 14.404 21.2277 14.246 21.3257 14.148L22.5097 12.965C22.7417 12.733 23.0977 13.084 22.8627 13.319L21.6787 14.502C21.6307 14.551 21.5667 14.575 21.5027 14.575Z" fill="white"/>
<path d="M22.0427 11.835C21.9787 11.835 21.9147 11.811 21.8657 11.762C21.7677 11.664 21.7677 11.506 21.8657 11.409L22.9247 10.35C23.1567 10.118 23.5127 10.469 23.2777 10.704L22.2187 11.763C22.1707 11.81 22.1067 11.835 22.0427 11.835Z" fill="white"/>
<path d="M22.6658 10.755C22.6018 10.755 22.5378 10.731 22.4888 10.682C22.3908 10.584 22.3908 10.426 22.4888 10.328C22.7488 10.068 23.0738 9.60399 23.3208 9.84999C23.5668 10.096 23.1028 10.421 22.8428 10.682C22.7938 10.731 22.7298 10.755 22.6658 10.755Z" fill="white"/>
<path d="M40.0248 16.175C39.8578 16.175 38.4908 14.744 38.3728 14.626C38.2748 14.528 38.2748 14.37 38.3728 14.273C38.4708 14.175 38.6288 14.175 38.7258 14.273L40.2018 15.749C40.3588 15.906 40.2458 16.175 40.0248 16.175Z" fill="white"/>
<path d="M41.5958 15.4349L40.1968 14.0359C40.0988 13.9379 40.0988 13.7799 40.1968 13.6819C40.2948 13.5839 40.4528 13.5839 40.5508 13.6819L41.9498 15.0819C42.0478 15.1799 42.0478 15.3379 41.9498 15.4349C41.8518 15.5319 41.6938 15.5319 41.5958 15.4349Z" fill="white"/>
<path d="M43.1207 14.4381L42.0737 13.3921C41.9757 13.2941 41.9757 13.1361 42.0737 13.0391C42.1717 12.9411 42.3297 12.9411 42.4277 13.0391L43.4747 14.0851C43.5727 14.1831 43.5727 14.3411 43.4747 14.4381C43.3767 14.5361 43.2187 14.5361 43.1207 14.4381Z" fill="white"/>
<path d="M44.6788 14.0109L43.3078 12.6399C43.2098 12.5419 43.2098 12.3839 43.3078 12.2869C43.4058 12.1889 43.5638 12.1889 43.6618 12.2869L45.0328 13.6579C45.2648 13.8899 44.9138 14.2449 44.6788 14.0109Z" fill="white"/>
<path d="M46.3428 12.8311L45.1858 11.6751C45.0878 11.5771 45.0878 11.4191 45.1858 11.3211C45.2838 11.2231 45.4418 11.2231 45.5398 11.3211L46.6968 12.4771C46.9288 12.7091 46.5778 13.0651 46.3428 12.8311Z" fill="white"/>
<path d="M47.0808 11.905L46.2598 11.084C46.1618 10.986 46.1618 10.828 46.2598 10.731C46.3578 10.633 46.5158 10.633 46.6138 10.731L47.4348 11.552C47.6668 11.784 47.3148 12.139 47.0808 11.905Z" fill="white"/>
<path d="M38.8008 15.2691C38.7028 15.1711 38.7028 15.0131 38.8008 14.9151L41.1778 12.5381C41.2758 12.4401 41.4338 12.4401 41.5318 12.5381C41.6298 12.6361 41.6298 12.7941 41.5318 12.8911L39.1548 15.2681C39.0568 15.3671 38.8988 15.3671 38.8008 15.2691Z" fill="white"/>
<path d="M41.6448 14.3789L43.3938 12.6299C43.4918 12.5319 43.6498 12.5319 43.7478 12.6299C43.8458 12.7279 43.8458 12.8859 43.7478 12.9839L41.9988 14.7329C41.7658 14.9649 41.4108 14.6139 41.6448 14.3789Z" fill="white"/>
<path d="M45.0787 13.23C44.9807 13.132 44.9807 12.974 45.0787 12.876L46.4537 11.501C46.5517 11.403 46.7097 11.403 46.8077 11.501C46.9057 11.599 46.9057 11.757 46.8077 11.855L45.4327 13.23C45.3347 13.328 45.1767 13.328 45.0787 13.23Z" fill="white"/>
<path d="M27.4787 31.816L25.9547 30.292C25.8567 30.194 25.8567 30.036 25.9547 29.938C26.0527 29.84 26.2107 29.84 26.3087 29.938L27.8327 31.462C27.9307 31.56 27.9307 31.718 27.8327 31.816C27.7347 31.914 27.5757 31.914 27.4787 31.816Z" fill="white"/>
<path d="M28.2817 30.2441L26.5227 28.4851C26.4247 28.3871 26.4247 28.2291 26.5227 28.1311C26.6207 28.0331 26.7787 28.0331 26.8767 28.1311L28.6357 29.8901C28.8677 30.1231 28.5157 30.4781 28.2817 30.2441Z" fill="white"/>
<path d="M29.6288 28.9049L27.9168 27.1929C27.8188 27.0949 27.8188 26.9369 27.9168 26.8389C28.0148 26.7409 28.1728 26.7409 28.2708 26.8389L29.9828 28.5509C30.0808 28.6489 30.0808 28.8069 29.9828 28.9049C29.8848 29.0029 29.7268 29.0029 29.6288 28.9049Z" fill="white"/>
<path d="M31.0318 28.346L29.2078 26.522C29.1098 26.424 29.1098 26.266 29.2078 26.168C29.3058 26.07 29.4638 26.07 29.5618 26.168L31.3858 27.992C31.6178 28.225 31.2668 28.58 31.0318 28.346Z" fill="white"/>
<path d="M32.8887 27.6719L31.2737 26.0569C31.1757 25.9589 31.1757 25.8009 31.2737 25.7029C31.3717 25.6049 31.5297 25.6049 31.6277 25.7029L33.2427 27.3179C33.3407 27.4159 33.3407 27.5739 33.2427 27.6719C33.1447 27.7689 32.9867 27.7689 32.8887 27.6719Z" fill="white"/>
<path d="M27.5318 33.626L26.2638 32.358C26.0318 32.126 26.3828 31.77 26.6178 32.005L27.8858 33.272C27.9838 33.37 27.9838 33.528 27.8858 33.626C27.7878 33.724 27.6298 33.724 27.5318 33.626Z" fill="white"/>
<path d="M26.4198 33.2451L28.0518 31.6131C28.1498 31.5151 28.3078 31.5151 28.4048 31.6131C28.5028 31.7111 28.5028 31.8691 28.4048 31.9671L26.7728 33.5991C26.5398 33.8321 26.1858 33.4781 26.4198 33.2451Z" fill="white"/>
<path d="M26.7507 31.0381C26.6867 31.0381 26.6227 31.0141 26.5737 30.9651C26.4757 30.8671 26.4757 30.7091 26.5737 30.6111L28.6737 28.5111C28.9057 28.2791 29.2617 28.6301 29.0277 28.8651C28.9077 28.9841 26.9197 31.0381 26.7507 31.0381Z" fill="white"/>
<path d="M29.2598 27.968C29.1618 27.87 29.1618 27.712 29.2598 27.614L30.4248 26.449C30.5228 26.351 30.6808 26.351 30.7788 26.449C30.8768 26.547 30.8768 26.705 30.7788 26.803L29.6138 27.968C29.5158 28.066 29.3578 28.066 29.2598 27.968Z" fill="white"/>
<path d="M31.3258 27.4601L32.1018 26.6841C32.1998 26.5861 32.3578 26.5861 32.4558 26.6841C32.5538 26.7821 32.5538 26.9401 32.4558 27.0381L31.6798 27.8141C31.4468 28.0461 31.0918 27.6941 31.3258 27.4601Z" fill="white"/>
<path d="M36.0128 8.14896C35.9888 8.14896 35.9638 8.14596 35.9398 8.13796C35.8078 8.09796 35.7338 7.95796 35.7738 7.82496L36.9978 3.82096C37.1538 3.31196 37.3478 2.67796 37.8198 2.24796C38.3348 1.77996 39.1388 1.65096 39.7748 1.93796C39.8998 1.99496 39.9568 2.14296 39.8998 2.26896C39.8428 2.39496 39.6958 2.45096 39.5688 2.39396C39.1088 2.18596 38.5278 2.27896 38.1558 2.61796C37.7848 2.95496 37.6208 3.49296 37.4758 3.96696L36.2518 7.97096C36.2188 8.07996 36.1198 8.14896 36.0128 8.14896Z" fill="white"/>
<path d="M32.6367 9.09193C32.5747 9.09193 32.5127 9.06893 32.4637 9.02293L30.6727 7.31192C30.4117 7.06292 30.1157 6.78093 29.7717 6.68993C29.4967 6.61893 29.1297 6.72393 29.0497 6.97393C29.0077 7.10593 28.8667 7.17493 28.7357 7.13593C28.6037 7.09393 28.5317 6.95293 28.5737 6.82193C28.7497 6.27393 29.3997 6.07593 29.8987 6.20693C30.3687 6.32993 30.7287 6.67393 31.0187 6.95093L32.8107 8.66193C32.9107 8.75693 32.9137 8.91493 32.8187 9.01493C32.7687 9.06593 32.7027 9.09193 32.6367 9.09193Z" fill="white"/>
<path d="M16.3478 14.341C16.2968 14.341 16.2458 14.326 16.2018 14.294C14.9588 13.402 14.3308 11.922 13.2808 10.941C11.8538 9.61097 10.3298 9.96397 9.88879 10.921C9.83079 11.046 9.68379 11.101 9.55679 11.043C9.43079 10.985 9.37679 10.837 9.43379 10.711C9.95179 9.58197 11.8238 8.89597 13.6208 10.575C14.7218 11.603 15.3298 13.052 16.4928 13.887C16.6048 13.968 16.6308 14.124 16.5498 14.236C16.5018 14.305 16.4248 14.341 16.3478 14.341Z" fill="white"/>
<path d="M10.7068 32.4651C10.6428 32.4651 10.5788 32.4411 10.5298 32.3921L8.2958 30.1521C8.0778 29.9331 7.8528 29.7071 7.5818 29.5941C7.3768 29.5091 7.0798 29.4941 6.9088 29.6611C6.8108 29.7581 6.6528 29.7581 6.5548 29.6601C6.4578 29.5621 6.4578 29.4041 6.5558 29.3061C6.8888 28.9731 7.4078 28.9801 7.7738 29.1311C8.1368 29.2821 8.4098 29.5561 8.6508 29.7981L10.8848 32.0371C10.9818 32.1351 10.9818 32.2931 10.8848 32.3911C10.8348 32.4411 10.7708 32.4651 10.7068 32.4651Z" fill="white"/>
</svg>
