<svg width="100" height="100" viewBox="0 0 100 100" fill="none" xmlns="http://www.w3.org/2000/svg">
<path d="M72.8132 59.9543C79.2382 58.9578 88.1122 57.9663 88.7344 49.9945C89.043 46.1921 86.8369 43.769 84.6704 42.7689C82.2288 41.6422 79.6063 42.055 77.8216 43.8459C77.5799 44.0888 77.1845 44.0876 76.9453 43.8471C76.7024 43.6054 76.7024 43.2138 76.9428 42.9709C79.0721 40.8342 82.3069 40.3111 85.1898 41.6435C88.3911 43.1208 90.2676 46.4375 89.9689 50.0924C89.2736 59.0607 79.439 60.1786 73.0053 61.1788C72.1848 61.3015 72.015 60.0795 72.8132 59.9543Z" fill="white"/>
<path d="M30.251 61.2098C23.6438 58.1745 22.9547 50.8472 27.8516 47.6718C30.1271 46.1945 32.9752 46.135 35.2793 47.5169C35.573 47.6929 35.6697 48.0734 35.4924 48.3659C35.3152 48.6596 34.9335 48.7538 34.6434 48.5791C32.7484 47.4438 30.4035 47.4934 28.5258 48.7104C24.5151 51.3107 24.9476 57.4073 30.7691 60.0831C36.3278 62.6388 54.1491 61.8976 60.5481 61.3969C60.8765 61.3758 61.1876 61.6249 61.2136 61.9658C61.2421 62.3066 60.9856 62.6053 60.6447 62.6326C54.1949 63.1445 36.1493 63.9216 30.251 61.2098Z" fill="white"/>
<path d="M32.7362 47.864C32.4511 47.864 32.1933 47.6644 32.1314 47.3732C31.3109 43.5112 32.5131 39.3555 35.267 36.5272C38.0222 33.6989 42.1507 32.3864 46.0262 33.1052C52.2195 34.2504 55.8447 40.3941 54.5285 40.9605C54.2162 41.0956 53.8493 40.9519 53.7142 40.6371C50.6789 33.5948 41.4107 31.996 36.1557 37.3923C33.7228 39.8897 32.6185 43.707 33.3435 47.1166C33.4154 47.4512 33.201 47.7809 32.8651 47.8516C32.823 47.8602 32.7796 47.864 32.7362 47.864Z" fill="white"/>
<path d="M81.5532 42.1776C81.4999 42.1776 81.4442 42.1702 81.3896 42.1553C81.0587 42.0648 80.8654 41.724 80.9546 41.3943C82.4865 35.796 74.7304 26.8091 64.5735 27.1066C58.9516 27.29 53.4251 30.5112 50.494 35.3114C50.3143 35.6039 49.9325 35.6968 49.6413 35.5171C49.35 35.3386 49.2571 34.9569 49.4355 34.6644C52.5786 29.5172 58.5042 26.0642 64.5326 25.8684C70.5412 25.6515 76.6985 28.7327 80.1701 33.6642C81.2942 35.263 83.0479 38.4347 82.1506 41.7203C82.0763 41.9967 81.8247 42.1776 81.5532 42.1776Z" fill="white"/>
<path d="M62.8063 88.0488C62.6984 88.0488 62.5919 88.0215 62.4977 87.967C62.3341 87.8728 62.2225 87.7117 62.194 87.5258C62.0416 86.5479 62.8063 85.6654 63.2153 84.8003C63.6404 83.8708 64.0605 82.9264 64.4509 81.9646C66.8715 76.1382 67.366 74.0746 66.5678 73.1302C66.2196 72.7175 65.7684 72.5328 65.1103 72.5328C63.69 72.5328 61.4566 73.4859 59.8491 72.9183C58.3742 72.4051 57.3294 70.7729 57.3071 68.9497C57.2364 64.9713 62.7666 57.1507 65.5329 53.9753C68.9314 50.07 72.0807 48.7785 75.0366 50.0093C76.9899 50.8273 78.1773 52.9417 77.7397 54.8218C77.4894 55.8877 76.7891 56.7578 76.2252 57.4556C71.922 62.7726 69.892 64.6849 71.057 66.347C72.2221 68.0363 75.6576 66.5676 77.5538 68.4428C79.1291 69.9933 78.8118 72.2155 76.6057 75.0451C71.3284 81.7961 64.3654 87.4874 63.0306 88.0079C62.9587 88.0352 62.8819 88.0488 62.8063 88.0488ZM65.1103 71.2922C66.139 71.2922 66.9248 71.6318 67.5135 72.3295C68.8211 73.8788 68.1815 76.2113 65.5961 82.4343C65.2764 83.2226 64.4622 85.1461 64.0334 85.8836C67.7528 82.9995 72.1465 78.7347 75.6279 74.2816C78.2714 70.8894 77.0754 69.7107 76.6825 69.324C75.2263 67.8838 71.6494 69.3885 70.0394 67.0534C68.241 64.4916 70.9937 61.9471 75.261 56.6735C75.7679 56.0439 76.3456 55.3263 76.5315 54.5368C76.8302 53.2503 75.9451 51.7308 74.557 51.1495C69.5449 49.0636 63.8277 57.5795 61.1344 62.3202C59.8641 64.5362 58.5118 67.0547 58.5452 68.9286C58.5589 70.0391 59.15 71.3591 60.2568 71.7445C61.3884 72.1424 63.6676 71.2922 65.1103 71.2922Z" fill="white"/>
<path d="M47.1912 28.7897C46.89 28.7897 46.626 28.5691 46.5801 28.2617C46.2232 25.8932 47.1614 23.2731 49.0255 21.4227C54.9771 15.5157 67.3661 17.9673 68.3563 26.679C68.3948 27.0186 68.1506 27.3259 67.8098 27.3644C67.4739 27.4065 67.1628 27.1599 67.1231 26.819C66.2543 19.162 55.1183 17.1195 49.8992 22.3039C48.3091 23.8817 47.5072 26.094 47.8047 28.0795C47.8555 28.4179 47.6237 28.7327 47.2841 28.7847C47.2531 28.7872 47.2222 28.7897 47.1912 28.7897Z" fill="white"/>
<path d="M27.404 46.8501C22.0387 46.8501 15.1898 46.1585 12.4433 43.6995C9.67076 41.2133 9.18987 36.4441 11.3501 32.8412C13.3071 29.5741 17.5285 27.5948 20.3729 28.6049C21.7226 29.0833 22.6993 30.262 22.8059 31.5373C22.8344 31.8782 22.5803 32.1781 22.2407 32.2066C21.8924 32.2302 21.5987 31.9823 21.5714 31.6402C21.5057 30.8544 20.8427 30.086 19.959 29.7724C17.8818 29.0325 14.2169 30.4677 12.4123 33.4782C10.5792 36.5371 10.9634 40.7076 13.27 42.7762C16.5209 45.6912 27.5465 45.9069 32.4533 45.3764C32.7954 45.3442 33.099 45.5847 33.1362 45.9255C33.1722 46.2651 32.9268 46.5712 32.5872 46.6084C31.2833 46.7497 29.4515 46.8501 27.404 46.8501Z" fill="white"/>
<path d="M20.4968 29.9126C20.2105 29.9126 19.954 29.7141 19.892 29.4241C17.4727 18.2832 27.901 8.45483 38.9043 11.5917C43.935 13.027 48.0585 17.2174 49.4119 22.2692C49.4999 22.6001 49.3041 22.9397 48.9732 23.0277C48.6385 23.1169 48.3039 22.9211 48.2134 22.5902C46.9703 17.9498 43.1827 14.1015 38.5647 12.784C28.476 9.90493 18.8757 18.9079 21.1016 29.1615C21.1748 29.4961 20.9628 29.8258 20.6282 29.8989C20.5836 29.9076 20.539 29.9126 20.4968 29.9126Z" fill="white"/>
<path d="M77.2178 59.9555L75.5409 58.2786C75.4195 58.1572 75.4195 57.9613 75.5409 57.8399C75.6636 57.7172 75.8594 57.7197 75.9797 57.8399L77.6566 59.5168C77.778 59.6382 77.778 59.8341 77.6566 59.9555C77.5364 60.0757 77.3405 60.0782 77.2178 59.9555Z" fill="white"/>
<path d="M79.9768 59.0383L78.0966 57.1594C77.9751 57.0379 77.9751 56.8421 78.0966 56.7206C78.218 56.5992 78.4139 56.5992 78.5353 56.7206L80.4155 58.5995C80.703 58.8883 80.2668 59.3283 79.9768 59.0383Z" fill="white"/>
<path d="M83.0132 57.8397L80.7339 55.5617C80.6125 55.4402 80.6125 55.2444 80.7339 55.1242C80.8554 55.004 81.0512 55.0015 81.1727 55.1242L83.4519 57.4022C83.5734 57.5237 83.5734 57.7195 83.4519 57.8409C83.3292 57.9624 83.1334 57.9587 83.0132 57.8397Z" fill="white"/>
<path d="M85.3769 55.9671L83.053 53.6432C82.9315 53.5218 82.9315 53.326 83.053 53.2045C83.1745 53.083 83.3703 53.083 83.4918 53.2045L85.8156 55.5284C85.9371 55.6498 85.9371 55.8457 85.8156 55.9671C85.6942 56.0873 85.4983 56.0886 85.3769 55.9671Z" fill="white"/>
<path d="M87.3734 53.8885L84.8116 51.3267C84.6901 51.2053 84.6901 51.0094 84.8116 50.888C84.933 50.7665 85.1288 50.7665 85.2503 50.888L87.8121 53.4498C87.9336 53.5713 87.9336 53.7671 87.8121 53.8885C87.6907 54.0088 87.4948 54.01 87.3734 53.8885Z" fill="white"/>
<path d="M88.4555 51.1346L86.0089 48.6893C85.8875 48.5678 85.8875 48.372 86.0089 48.2505C86.1304 48.1291 86.3262 48.1291 86.4477 48.2505L88.8943 50.6958C89.0157 50.8173 89.0157 51.0131 88.8943 51.1334C88.7728 51.2548 88.577 51.2561 88.4555 51.1346Z" fill="white"/>
<path d="M88.1442 48.506L85.7696 46.1313C85.6481 46.0098 85.6481 45.814 85.7696 45.6925C85.891 45.5711 86.0868 45.5711 86.2083 45.6925L88.583 48.0672C88.7044 48.1887 88.7044 48.3845 88.583 48.506C88.4615 48.6262 88.2657 48.6274 88.1442 48.506Z" fill="white"/>
<path d="M75.3005 58.56L78.6716 55.1901C78.7931 55.0686 78.9889 55.0686 79.1092 55.1901C79.2306 55.3116 79.2306 55.5074 79.1092 55.6276L75.738 58.9975C75.448 59.2888 75.0117 58.8476 75.3005 58.56Z" fill="white"/>
<path d="M79.9358 58.0009L83.773 54.1649C83.8945 54.0435 84.0903 54.0435 84.2117 54.1649C84.3332 54.2864 84.3332 54.4822 84.2117 54.6037L80.3746 58.4396C80.0833 58.7296 79.6483 58.2884 79.9358 58.0009Z" fill="white"/>
<path d="M83.5114 57.4109C83.4308 57.4109 83.3528 57.3812 83.292 57.3204C83.1706 57.199 83.1706 57.0032 83.292 56.8817L87.3448 52.8301C87.6336 52.5426 88.0736 52.9776 87.7836 53.2689C87.6262 53.4238 83.7109 57.4109 83.5114 57.4109Z" fill="white"/>
<path d="M86.0683 51.1769C85.989 51.1769 85.9096 51.1472 85.8489 51.0864C85.7274 50.965 85.7274 50.7692 85.8489 50.6477L88.4616 48.0351C88.7528 47.7463 89.1891 48.1838 88.9003 48.4738L86.2877 51.0852C86.2269 51.1459 86.1476 51.1769 86.0683 51.1769Z" fill="white"/>
<path d="M86.3881 47.341C86.3088 47.341 86.2295 47.3112 86.1687 47.2505C86.0473 47.1291 86.0473 46.9332 86.1687 46.8118L87.6473 45.3332C87.9349 45.0456 88.3761 45.4807 88.0861 45.7719L86.6075 47.2505C86.5467 47.3112 86.4674 47.341 86.3881 47.341Z" fill="white"/>
<path d="M50.8336 62.9028L48.5284 60.5963C48.4069 60.4748 48.4069 60.279 48.5284 60.1575C48.6498 60.0361 48.8456 60.0373 48.9671 60.1575L51.2724 62.464C51.3938 62.5855 51.3938 62.7813 51.2724 62.9028C51.1534 63.0218 50.9563 63.0255 50.8336 62.9028Z" fill="white"/>
<path d="M53.8454 62.3178L51.4856 59.9567C51.3642 59.8353 51.3642 59.6394 51.4856 59.518C51.6071 59.3965 51.8029 59.3965 51.9244 59.518L54.2842 61.879C54.4056 62.0005 54.4056 62.1963 54.2842 62.3178C54.164 62.438 53.9669 62.4392 53.8454 62.3178Z" fill="white"/>
<path d="M56.9401 61.7352L54.4414 59.2366C54.32 59.1152 54.32 58.9193 54.4414 58.7979C54.5629 58.6764 54.7587 58.6764 54.8802 58.7979L57.3788 61.2965C57.5003 61.418 57.5003 61.6138 57.3788 61.7352C57.2586 61.8555 57.0628 61.8579 56.9401 61.7352Z" fill="white"/>
<path d="M60.3759 60.5676C60.1689 60.5676 58.3445 58.6651 58.1983 58.5189C58.0768 58.3974 58.0768 58.2016 58.1983 58.0801C58.3197 57.9586 58.5156 57.9586 58.637 58.0801L60.5953 60.0384C60.7898 60.2342 60.6498 60.5676 60.3759 60.5676Z" fill="white"/>
<path d="M62.0043 58.0891L60.0362 56.1209C59.9147 55.9994 59.9147 55.8036 60.0362 55.6822C60.1576 55.5607 60.3534 55.5607 60.4749 55.6822L62.4431 57.6503C62.5645 57.7718 62.5645 57.9676 62.4431 58.0891C62.3229 58.2093 62.1258 58.2105 62.0043 58.0891Z" fill="white"/>
<path d="M65.0728 55.2447L63.5533 53.724C63.4318 53.6025 63.4318 53.4067 63.5533 53.2852C63.676 53.1638 63.8718 53.165 63.992 53.2852L65.5115 54.806C65.633 54.9274 65.633 55.1232 65.5115 55.2447C65.3913 55.3637 65.1955 55.3674 65.0728 55.2447Z" fill="white"/>
<path d="M66.9418 53.0681C66.7386 53.0681 65.3765 51.6304 65.2315 51.4854C65.11 51.364 65.11 51.1681 65.2315 51.0467C65.3542 50.9252 65.55 50.9265 65.6702 51.0467L67.1612 52.5389C67.2827 52.6604 67.2827 52.8562 67.1612 52.9777C67.1005 53.0384 67.0199 53.0681 66.9418 53.0681Z" fill="white"/>
<path d="M47.2962 62.1615L46.2105 61.0757C46.089 60.9543 46.089 60.7585 46.2105 60.637C46.3319 60.5155 46.5278 60.5155 46.648 60.637L47.7337 61.7227C47.8552 61.8442 47.8552 62.04 47.7337 62.1615C47.6135 62.2817 47.4177 62.2829 47.2962 62.1615Z" fill="white"/>
<path d="M46.6099 61.8369L49.4704 58.9763C49.5919 58.8549 49.7877 58.8549 49.9092 58.9763C50.0306 59.0978 50.0306 59.2936 49.9092 59.4151L47.0486 62.2756C46.7574 62.5656 46.3224 62.1244 46.6099 61.8369Z" fill="white"/>
<path d="M50.2857 61.6769L53.4077 58.5561C53.5292 58.4346 53.725 58.4346 53.8465 58.5561C53.9679 58.6775 53.9679 58.8733 53.8465 58.9948L50.7244 62.1156C50.4332 62.4056 49.9981 61.9644 50.2857 61.6769Z" fill="white"/>
<path d="M53.1625 61.4366L57.6776 56.9228C57.799 56.8013 57.9949 56.8013 58.1163 56.9228C58.2378 57.0442 58.2378 57.24 58.1163 57.3615L53.6025 61.8754C53.3112 62.1654 52.8749 61.7254 53.1625 61.4366Z" fill="white"/>
<path d="M57.9587 60.6384L61.0807 57.5176C61.2022 57.3961 61.398 57.3961 61.5195 57.5176C61.6409 57.6391 61.6409 57.8349 61.5195 57.9564L58.3974 61.0772C58.1074 61.3647 57.6662 60.9297 57.9587 60.6384Z" fill="white"/>
<path d="M61.9534 55.4825C61.8319 55.361 61.8319 55.1652 61.9534 55.0438L64.5549 52.4435C64.6764 52.3221 64.8722 52.3221 64.9936 52.4435C65.1151 52.565 65.1151 52.7608 64.9936 52.8823L62.3921 55.4825C62.2719 55.6027 62.0749 55.604 61.9534 55.4825Z" fill="white"/>
<path d="M65.5513 52.566L66.673 51.4444C66.7944 51.3229 66.9903 51.3229 67.1117 51.4444C67.2332 51.5658 67.2332 51.7617 67.1117 51.8831L65.9901 53.0048C65.6988 53.2948 65.2625 52.8536 65.5513 52.566Z" fill="white"/>
<path d="M76.0031 36.2147C74.4997 34.2267 72.7967 31.9747 70.4816 30.6907C68.0771 29.3584 65.0096 29.0993 62.0611 29.9768C59.4955 30.7415 56.9796 32.3701 54.7908 34.6841C54.6743 34.8068 54.4785 34.8142 54.3521 34.6965C54.2269 34.5787 54.2232 34.3829 54.3397 34.2577C56.604 31.8644 59.213 30.1789 61.8839 29.3819C64.991 28.4573 68.232 28.7362 70.7815 30.1479C73.2119 31.4939 74.957 33.8028 76.4963 35.8392C76.5992 35.9755 76.5732 36.1701 76.4356 36.273C76.2993 36.3783 76.1047 36.3498 76.0031 36.2147Z" fill="white"/>
<path d="M36.2209 44.0699C35.1984 43.8605 37.3897 38.6773 41.6024 37.0438C44.4146 35.9544 47.8081 36.3981 50.2484 38.1741C50.386 38.2758 50.417 38.4691 50.3166 38.6079C50.2162 38.7467 50.0229 38.7765 49.8828 38.6761C47.6098 37.0202 44.4481 36.6075 41.8267 37.6214C39.2066 38.6377 37.1492 41.0743 36.5866 43.8282C36.5519 43.998 36.3845 44.1034 36.2209 44.0699Z" fill="white"/>
<path d="M57.5637 33.3914C56.7754 33.0741 56.0925 32.5424 55.5918 31.8545C55.4914 31.7157 55.5212 31.5223 55.66 31.4207C55.7976 31.3191 55.9921 31.3488 56.0938 31.4889C56.5214 32.0751 57.125 32.5461 57.7967 32.8163C57.9554 32.8807 58.031 33.0604 57.9677 33.2191C57.9058 33.374 57.7298 33.457 57.5637 33.3914Z" fill="white"/>
<path d="M60.8614 31.5795L59.9901 29.6114C59.9207 29.4552 59.9913 29.2718 60.1475 29.2024C60.3036 29.1317 60.4871 29.2036 60.5565 29.361L61.4278 31.3292C61.4972 31.4853 61.4265 31.6688 61.2704 31.7382C61.113 31.8076 60.9295 31.7345 60.8614 31.5795Z" fill="white"/>
<path d="M65.4672 30.8471L65.2243 28.6286C65.2044 28.4588 65.3284 28.3051 65.4982 28.2865C65.6816 28.2679 65.8216 28.3906 65.839 28.5604L66.0819 30.7802C66.1017 30.95 65.9778 31.1037 65.808 31.1223C65.6395 31.1396 65.4858 31.0182 65.4672 30.8471Z" fill="white"/>
<path d="M69.5099 31.8597C69.4492 31.8597 69.3897 31.8424 69.3364 31.8064C69.1951 31.711 69.1579 31.5189 69.2534 31.3764C69.5706 30.9066 69.6933 30.3179 69.5892 29.7602C69.5595 29.5916 69.6686 29.4305 69.8371 29.3995C70.0131 29.3661 70.168 29.4801 70.199 29.6474C70.3316 30.3638 70.173 31.121 69.7652 31.7234C69.707 31.8126 69.6091 31.8597 69.5099 31.8597Z" fill="white"/>
<path d="M72.0981 33.3765C71.9444 33.3021 71.8799 33.1162 71.9555 32.9625L72.7636 31.3029C72.838 31.148 73.0251 31.0848 73.1776 31.1592C73.3312 31.2348 73.3957 31.4194 73.3201 31.5744L72.512 33.2352C72.4376 33.3851 72.2542 33.4521 72.0981 33.3765Z" fill="white"/>
<path d="M73.3769 34.9183C73.3062 34.7621 73.3757 34.5787 73.5318 34.508L75.1406 33.7842C75.2967 33.7136 75.4801 33.783 75.5496 33.9392C75.6202 34.0953 75.5508 34.2788 75.3946 34.3494L73.7859 35.0732C73.6322 35.1439 73.4463 35.0757 73.3769 34.9183Z" fill="white"/>
<path d="M38.1075 42.4007L36.1468 41.0894C36.0042 40.994 35.9658 40.8019 36.0613 40.6593C36.1579 40.518 36.3525 40.4796 36.4913 40.5738L38.452 41.8851C38.5946 41.9805 38.633 42.1726 38.5376 42.3152C38.4397 42.4589 38.2475 42.4949 38.1075 42.4007Z" fill="white"/>
<path d="M40.0138 40.3793L37.7333 38.9007C37.5895 38.8078 37.5486 38.6157 37.6416 38.4719C37.7345 38.3294 37.9254 38.2897 38.0704 38.3802L40.3509 39.8588C40.4947 39.9517 40.5356 40.1438 40.4426 40.2876C40.3497 40.4301 40.16 40.4735 40.0138 40.3793Z" fill="white"/>
<path d="M43.0117 38.5003L41.7797 36.6511C41.6855 36.5086 41.7227 36.3165 41.8652 36.221C42.0065 36.1256 42.1999 36.164 42.2953 36.3066L43.5273 38.1557C43.6214 38.2983 43.5843 38.4904 43.4417 38.5858C43.2942 38.6837 43.1034 38.6403 43.0117 38.5003Z" fill="white"/>
<path d="M46.233 38.1272C46.5168 37.5484 46.4932 36.811 46.1722 36.2496C46.088 36.1008 46.1388 35.9124 46.2875 35.8269C46.4337 35.7402 46.6246 35.7922 46.7101 35.9422C47.1377 36.6883 47.1675 37.6302 46.7895 38.4011C46.6073 38.768 46.0533 38.4941 46.233 38.1272Z" fill="white"/>
<path d="M47.9186 38.7718C48.2495 38.2636 48.4218 37.6514 48.4057 37.0466C48.4007 36.8755 48.5358 36.733 48.7068 36.728C48.7093 36.728 48.713 36.728 48.7155 36.728C48.8828 36.728 49.0204 36.8606 49.0254 37.0292C49.0452 37.758 48.837 38.4968 48.4391 39.109C48.2173 39.4523 47.6955 39.1151 47.9186 38.7718Z" fill="white"/>
<path d="M30.1121 25.013L26.3704 21.2725C26.2489 21.1511 26.2489 20.9552 26.3704 20.8338C26.4919 20.7123 26.6877 20.7123 26.8091 20.8338L30.5496 24.5742C30.6711 24.6957 30.6711 24.8915 30.5496 25.013C30.4294 25.1332 30.2336 25.1344 30.1121 25.013Z" fill="white"/>
<path d="M32.3704 24.0961L27.305 19.0307C27.1835 18.9092 27.1835 18.7134 27.305 18.5932C27.4264 18.4717 27.6222 18.4717 27.7437 18.5932L32.8091 23.6586C32.9306 23.7801 32.9306 23.9759 32.8091 24.0974C32.6877 24.2163 32.4918 24.2188 32.3704 24.0961Z" fill="white"/>
<path d="M33.2378 21.6953L29.5457 18.0031C29.4242 17.8816 29.4242 17.6858 29.5457 17.5656C29.6671 17.4441 29.863 17.4441 29.9844 17.5656L33.6766 21.2577C33.7981 21.3792 33.7981 21.575 33.6766 21.6965C33.5564 21.8155 33.3593 21.818 33.2378 21.6953Z" fill="white"/>
<path d="M27.1177 24.2907L33.3346 18.0751C33.456 17.9536 33.6518 17.9536 33.7721 18.0751C33.8935 18.1966 33.8935 18.3924 33.7721 18.5126L27.5553 24.7282C27.2652 25.0182 26.829 24.5782 27.1177 24.2907Z" fill="white"/>
</svg>
