<svg width="66" height="64" viewBox="0 0 66 64" fill="none" xmlns="http://www.w3.org/2000/svg">
<path d="M51.4071 40.4151C56.5911 39.6111 63.7511 38.8111 64.2531 32.3791C64.5021 29.3111 62.7221 27.3561 60.9741 26.5491C59.0041 25.6401 56.8881 25.9731 55.4481 27.4181C55.2531 27.6141 54.9341 27.6131 54.7411 27.4191C54.5451 27.2241 54.5451 26.9081 54.7391 26.7121C56.4571 24.9881 59.0671 24.5661 61.3931 25.6411C63.9761 26.8331 65.4901 29.5091 65.2491 32.4581C64.6881 39.6941 56.7531 40.5961 51.5621 41.4031C50.9001 41.5021 50.7631 40.5161 51.4071 40.4151Z" fill="white"/>
<path d="M17.066 41.428C11.735 38.979 11.179 33.067 15.13 30.505C16.966 29.313 19.264 29.265 21.123 30.38C21.36 30.522 21.438 30.829 21.295 31.065C21.152 31.302 20.844 31.378 20.61 31.237C19.081 30.321 17.189 30.361 15.674 31.343C12.438 33.441 12.787 38.36 17.484 40.519C21.969 42.581 36.348 41.983 41.511 41.579C41.776 41.562 42.027 41.763 42.048 42.038C42.071 42.313 41.864 42.554 41.589 42.576C36.385 42.989 21.825 43.616 17.066 41.428Z" fill="white"/>
<path d="M19.0711 30.66C18.8411 30.66 18.6331 30.499 18.5831 30.264C17.9211 27.148 18.8911 23.795 21.1131 21.513C23.3361 19.231 26.6671 18.172 29.7941 18.752C34.7911 19.676 37.7161 24.633 36.6541 25.09C36.4021 25.199 36.1061 25.083 35.9971 24.829C33.5481 19.147 26.0701 17.857 21.8301 22.211C19.8671 24.226 18.9761 27.306 19.5611 30.057C19.6191 30.327 19.4461 30.593 19.1751 30.65C19.1411 30.657 19.1061 30.66 19.0711 30.66Z" fill="white"/>
<path d="M58.4589 26.072C58.4159 26.072 58.3709 26.066 58.3269 26.054C58.0599 25.981 57.9039 25.706 57.9759 25.44C59.2119 20.923 52.9539 13.672 44.7589 13.912C40.2229 14.06 35.7639 16.659 33.3989 20.532C33.2539 20.768 32.9459 20.843 32.7109 20.698C32.4759 20.554 32.4009 20.246 32.5449 20.01C35.0809 15.857 39.8619 13.071 44.7259 12.913C49.5739 12.738 54.5419 15.224 57.3429 19.203C58.2499 20.493 59.6649 23.052 58.9409 25.703C58.8809 25.926 58.6779 26.072 58.4589 26.072Z" fill="white"/>
<path d="M43.333 63.0829C43.246 63.0829 43.16 63.0609 43.084 63.0169C42.952 62.9409 42.862 62.8109 42.839 62.6609C42.716 61.8719 43.333 61.1599 43.663 60.4619C44.006 59.7119 44.345 58.9499 44.66 58.1739C46.613 53.4729 47.012 51.8079 46.368 51.0459C46.087 50.7129 45.723 50.5639 45.192 50.5639C44.046 50.5639 42.244 51.3329 40.947 50.8749C39.757 50.4609 38.914 49.1439 38.896 47.6729C38.839 44.4629 43.301 38.1529 45.533 35.5909C48.275 32.4399 50.816 31.3979 53.201 32.3909C54.777 33.0509 55.735 34.7569 55.382 36.2739C55.18 37.1339 54.615 37.8359 54.16 38.3989C50.688 42.6889 49.0501 44.2319 49.9901 45.5729C50.9301 46.9359 53.702 45.7509 55.232 47.2639C56.503 48.5149 56.247 50.3079 54.467 52.5909C50.209 58.0379 44.591 62.6299 43.514 63.0499C43.456 63.0719 43.394 63.0829 43.333 63.0829ZM45.192 49.5629C46.022 49.5629 46.656 49.8369 47.131 50.3999C48.186 51.6499 47.67 53.5319 45.584 58.5529C45.326 59.1889 44.6691 60.7409 44.3231 61.3359C47.3241 59.0089 50.8691 55.5679 53.6781 51.9749C55.811 49.2379 54.846 48.2869 54.529 47.9749C53.354 46.8129 50.468 48.0269 49.169 46.1429C47.718 44.0759 49.939 42.0229 53.382 37.7679C53.791 37.2599 54.2571 36.6809 54.4071 36.0439C54.6481 35.0059 53.934 33.7799 52.814 33.3109C48.77 31.6279 44.1571 38.4989 41.9841 42.3239C40.9591 44.1119 39.868 46.1439 39.895 47.6559C39.906 48.5519 40.383 49.6169 41.276 49.9279C42.189 50.2489 44.028 49.5629 45.192 49.5629Z" fill="white"/>
<path d="M30.734 15.27C30.491 15.27 30.278 15.092 30.241 14.844C29.953 12.933 30.71 10.819 32.214 9.32599C37.016 4.55999 47.012 6.53799 47.811 13.567C47.842 13.841 47.645 14.089 47.37 14.12C47.099 14.154 46.848 13.955 46.816 13.68C46.115 7.50199 37.13 5.85399 32.919 10.037C31.636 11.31 30.989 13.095 31.229 14.697C31.27 14.97 31.083 15.224 30.809 15.266C30.784 15.268 30.759 15.27 30.734 15.27Z" fill="white"/>
<path d="M14.7689 29.8419C10.4399 29.8419 4.91391 29.2839 2.69791 27.2999C0.460913 25.2939 0.0729128 21.4459 1.81591 18.5389C3.39491 15.9029 6.80091 14.3059 9.09591 15.1209C10.1849 15.5069 10.9729 16.4579 11.0589 17.4869C11.0819 17.7619 10.8769 18.0039 10.6029 18.0269C10.3219 18.0459 10.0849 17.8459 10.0629 17.5699C10.0099 16.9359 9.47491 16.3159 8.76191 16.0629C7.08591 15.4659 4.12891 16.6239 2.67291 19.0529C1.19391 21.5209 1.50391 24.8859 3.36491 26.5549C5.98791 28.9069 14.8839 29.0809 18.8429 28.6529C19.1189 28.6269 19.3639 28.8209 19.3939 29.0959C19.4229 29.3699 19.2249 29.6169 18.9509 29.6469C17.8989 29.7609 16.4209 29.8419 14.7689 29.8419Z" fill="white"/>
<path d="M9.1959 16.176C8.9649 16.176 8.7579 16.0159 8.7079 15.7819C6.7559 6.79295 15.1699 -1.13705 24.0479 1.39395C28.1069 2.55195 31.4339 5.93295 32.5259 10.009C32.5969 10.276 32.4389 10.55 32.1719 10.621C31.9019 10.693 31.6319 10.535 31.5589 10.268C30.5559 6.52395 27.4999 3.41895 23.7739 2.35595C15.6339 0.0329502 7.8879 7.29695 9.6839 15.57C9.7429 15.84 9.5719 16.106 9.3019 16.165C9.2659 16.172 9.2299 16.176 9.1959 16.176Z" fill="white"/>
<path d="M54.9609 40.416L53.6079 39.063C53.5099 38.965 53.5099 38.807 53.6079 38.709C53.7069 38.61 53.8649 38.612 53.9619 38.709L55.3149 40.062C55.4129 40.16 55.4129 40.318 55.3149 40.416C55.2179 40.513 55.0599 40.515 54.9609 40.416Z" fill="white"/>
<path d="M57.1869 39.6759L55.6699 38.1599C55.5719 38.0619 55.5719 37.9039 55.6699 37.8059C55.7679 37.7079 55.9259 37.7079 56.0239 37.8059L57.5409 39.3219C57.7729 39.5549 57.4209 39.9099 57.1869 39.6759Z" fill="white"/>
<path d="M59.6369 38.7088L57.7979 36.8708C57.6999 36.7728 57.6999 36.6148 57.7979 36.5178C57.8959 36.4208 58.0539 36.4188 58.1519 36.5178L59.9909 38.3558C60.0889 38.4538 60.0889 38.6118 59.9909 38.7098C59.8919 38.8078 59.7339 38.8048 59.6369 38.7088Z" fill="white"/>
<path d="M61.544 37.198L59.669 35.323C59.571 35.225 59.571 35.067 59.669 34.969C59.767 34.871 59.925 34.871 60.023 34.969L61.898 36.844C61.996 36.942 61.996 37.1 61.898 37.198C61.8 37.295 61.642 37.296 61.544 37.198Z" fill="white"/>
<path d="M63.1549 35.5209L61.0879 33.4539C60.9899 33.3559 60.9899 33.1979 61.0879 33.0999C61.1859 33.0019 61.3439 33.0019 61.4419 33.0999L63.5089 35.1669C63.6069 35.2649 63.6069 35.4229 63.5089 35.5209C63.4109 35.6179 63.2529 35.6189 63.1549 35.5209Z" fill="white"/>
<path d="M64.028 33.2989L62.054 31.3259C61.956 31.2279 61.956 31.0699 62.054 30.9719C62.152 30.8739 62.31 30.8739 62.408 30.9719L64.382 32.9449C64.48 33.0429 64.48 33.2009 64.382 33.2979C64.284 33.3959 64.126 33.3969 64.028 33.2989Z" fill="white"/>
<path d="M63.7769 31.178L61.8609 29.262C61.7629 29.164 61.7629 29.006 61.8609 28.908C61.9589 28.81 62.1169 28.81 62.2149 28.908L64.1309 30.824C64.2289 30.922 64.2289 31.08 64.1309 31.178C64.0329 31.275 63.8749 31.276 63.7769 31.178Z" fill="white"/>
<path d="M53.4139 39.2901L56.1339 36.5711C56.2319 36.4731 56.3899 36.4731 56.4869 36.5711C56.5849 36.6691 56.5849 36.8271 56.4869 36.9241L53.7669 39.6431C53.5329 39.8781 53.1809 39.5221 53.4139 39.2901Z" fill="white"/>
<path d="M57.1539 38.8389L60.2499 35.7439C60.3479 35.6459 60.5059 35.6459 60.6039 35.7439C60.7019 35.8419 60.7019 35.9999 60.6039 36.0979L57.5079 39.1929C57.2729 39.4269 56.9219 39.0709 57.1539 38.8389Z" fill="white"/>
<path d="M60.0388 38.3629C59.9738 38.3629 59.9108 38.3389 59.8618 38.2899C59.7638 38.1919 59.7638 38.0339 59.8618 37.9359L63.1318 34.6669C63.3648 34.4349 63.7198 34.7859 63.4858 35.0209C63.3588 35.1459 60.1998 38.3629 60.0388 38.3629Z" fill="white"/>
<path d="M62.1018 33.333C62.0378 33.333 61.9738 33.309 61.9248 33.26C61.8268 33.162 61.8268 33.004 61.9248 32.906L64.0328 30.798C64.2678 30.565 64.6198 30.918 64.3868 31.152L62.2788 33.259C62.2298 33.308 62.1658 33.333 62.1018 33.333Z" fill="white"/>
<path d="M62.3599 30.2381C62.2959 30.2381 62.2319 30.2141 62.1829 30.1651C62.0849 30.0671 62.0849 29.9091 62.1829 29.8111L63.3759 28.6181C63.6079 28.3861 63.9639 28.7371 63.7299 28.9721L62.5369 30.1651C62.4879 30.2141 62.4239 30.2381 62.3599 30.2381Z" fill="white"/>
<path d="M33.673 42.794L31.813 40.933C31.715 40.835 31.715 40.677 31.813 40.579C31.911 40.481 32.069 40.482 32.167 40.579L34.027 42.44C34.125 42.538 34.125 42.696 34.027 42.794C33.931 42.89 33.772 42.893 33.673 42.794Z" fill="white"/>
<path d="M36.103 42.322L34.199 40.417C34.101 40.319 34.101 40.161 34.199 40.063C34.297 39.965 34.455 39.965 34.553 40.063L36.457 41.968C36.555 42.066 36.555 42.224 36.457 42.322C36.36 42.419 36.201 42.42 36.103 42.322Z" fill="white"/>
<path d="M38.6 41.8519L36.584 39.8359C36.486 39.7379 36.486 39.5799 36.584 39.4819C36.682 39.3839 36.84 39.3839 36.938 39.4819L38.954 41.4979C39.052 41.5959 39.052 41.7539 38.954 41.8519C38.857 41.9489 38.699 41.9509 38.6 41.8519Z" fill="white"/>
<path d="M41.372 40.9098C41.205 40.9098 39.733 39.3748 39.615 39.2568C39.517 39.1588 39.517 39.0008 39.615 38.9028C39.713 38.8048 39.871 38.8048 39.969 38.9028L41.549 40.4828C41.706 40.6408 41.593 40.9098 41.372 40.9098Z" fill="white"/>
<path d="M42.6859 38.91L41.0979 37.322C40.9999 37.224 40.9999 37.066 41.0979 36.968C41.1959 36.87 41.3539 36.87 41.4519 36.968L43.0399 38.556C43.1379 38.654 43.1379 38.812 43.0399 38.91C42.9429 39.007 42.7839 39.008 42.6859 38.91Z" fill="white"/>
<path d="M45.1618 36.6151L43.9358 35.3881C43.8378 35.2901 43.8378 35.1321 43.9358 35.0341C44.0348 34.9361 44.1928 34.9371 44.2898 35.0341L45.5158 36.2611C45.6138 36.3591 45.6138 36.5171 45.5158 36.6151C45.4188 36.7111 45.2608 36.7141 45.1618 36.6151Z" fill="white"/>
<path d="M46.6698 34.8589C46.5058 34.8589 45.4068 33.6989 45.2898 33.5819C45.1918 33.4839 45.1918 33.3259 45.2898 33.2279C45.3888 33.1299 45.5468 33.1309 45.6438 33.2279L46.8468 34.4319C46.9448 34.5299 46.9448 34.6879 46.8468 34.7859C46.7978 34.8349 46.7328 34.8589 46.6698 34.8589Z" fill="white"/>
<path d="M30.8189 42.1958L29.9429 41.3198C29.8449 41.2218 29.8449 41.0638 29.9429 40.9658C30.0409 40.8678 30.1989 40.8678 30.2959 40.9658L31.1719 41.8418C31.2699 41.9398 31.2699 42.0978 31.1719 42.1958C31.0749 42.2928 30.9169 42.2938 30.8189 42.1958Z" fill="white"/>
<path d="M30.265 41.934L32.573 39.626C32.671 39.528 32.829 39.528 32.927 39.626C33.025 39.724 33.025 39.882 32.927 39.98L30.619 42.288C30.384 42.522 30.033 42.166 30.265 41.934Z" fill="white"/>
<path d="M33.2308 41.8049L35.7498 39.2869C35.8478 39.1889 36.0058 39.1889 36.1038 39.2869C36.2018 39.3849 36.2018 39.5429 36.1038 39.6409L33.5848 42.1589C33.3498 42.3929 32.9988 42.0369 33.2308 41.8049Z" fill="white"/>
<path d="M35.552 41.611L39.195 37.969C39.293 37.871 39.451 37.871 39.549 37.969C39.647 38.067 39.647 38.225 39.549 38.323L35.907 41.965C35.672 42.199 35.32 41.844 35.552 41.611Z" fill="white"/>
<path d="M39.4218 40.967L41.9408 38.449C42.0388 38.351 42.1968 38.351 42.2948 38.449C42.3928 38.547 42.3928 38.705 42.2948 38.803L39.7758 41.321C39.5418 41.553 39.1858 41.202 39.4218 40.967Z" fill="white"/>
<path d="M42.6448 36.807C42.5468 36.709 42.5468 36.551 42.6448 36.453L44.7438 34.355C44.8418 34.257 44.9998 34.257 45.0978 34.355C45.1958 34.453 45.1958 34.611 45.0978 34.709L42.9988 36.807C42.9018 36.904 42.7428 36.905 42.6448 36.807Z" fill="white"/>
<path d="M45.5479 34.4538L46.4529 33.5488C46.5509 33.4508 46.7089 33.4508 46.8069 33.5488C46.9049 33.6468 46.9049 33.8048 46.8069 33.9028L45.9019 34.8078C45.6669 35.0418 45.3149 34.6858 45.5479 34.4538Z" fill="white"/>
<path d="M53.9808 21.2608C52.7678 19.6568 51.3938 17.8398 49.5258 16.8038C47.5858 15.7288 45.1108 15.5198 42.7318 16.2278C40.6618 16.8448 38.6318 18.1588 36.8658 20.0258C36.7718 20.1248 36.6138 20.1308 36.5118 20.0358C36.4108 19.9408 36.4078 19.7828 36.5018 19.6818C38.3288 17.7508 40.4338 16.3908 42.5888 15.7478C45.0958 15.0018 47.7108 15.2268 49.7678 16.3658C51.7288 17.4518 53.1368 19.3148 54.3788 20.9578C54.4618 21.0678 54.4408 21.2248 54.3298 21.3078C54.2198 21.3928 54.0628 21.3698 53.9808 21.2608Z" fill="white"/>
<path d="M21.8828 27.5988C21.0578 27.4298 22.8258 23.2478 26.2248 21.9298C28.4938 21.0508 31.2318 21.4088 33.2008 22.8418C33.3118 22.9238 33.3368 23.0798 33.2558 23.1918C33.1748 23.3038 33.0188 23.3278 32.9058 23.2468C31.0718 21.9108 28.5208 21.5778 26.4058 22.3958C24.2918 23.2158 22.6318 25.1818 22.1778 27.4038C22.1498 27.5408 22.0148 27.6258 21.8828 27.5988Z" fill="white"/>
<path d="M39.103 18.9828C38.467 18.7268 37.916 18.2978 37.512 17.7428C37.431 17.6308 37.455 17.4748 37.567 17.3928C37.678 17.3108 37.835 17.3348 37.917 17.4478C38.262 17.9208 38.749 18.3008 39.291 18.5188C39.419 18.5708 39.48 18.7158 39.429 18.8438C39.379 18.9688 39.237 19.0358 39.103 18.9828Z" fill="white"/>
<path d="M41.7638 17.521L41.0608 15.933C41.0048 15.807 41.0618 15.659 41.1878 15.603C41.3138 15.546 41.4618 15.604 41.5178 15.731L42.2208 17.319C42.2768 17.445 42.2198 17.593 42.0938 17.649C41.9668 17.705 41.8188 17.646 41.7638 17.521Z" fill="white"/>
<path d="M45.4799 16.9301L45.2839 15.1401C45.2679 15.0031 45.3679 14.8791 45.5049 14.8641C45.6529 14.8491 45.7659 14.9481 45.7799 15.0851L45.9759 16.8761C45.9919 17.0131 45.8919 17.1371 45.7549 17.1521C45.6189 17.1661 45.4949 17.0681 45.4799 16.9301Z" fill="white"/>
<path d="M48.7419 17.747C48.6929 17.747 48.6449 17.733 48.6019 17.704C48.4879 17.627 48.4579 17.472 48.5349 17.357C48.7909 16.978 48.8899 16.503 48.8059 16.053C48.7819 15.917 48.8699 15.787 49.0059 15.762C49.1479 15.735 49.2729 15.827 49.2979 15.962C49.4049 16.54 49.2769 17.151 48.9479 17.637C48.9009 17.709 48.8219 17.747 48.7419 17.747Z" fill="white"/>
<path d="M50.83 18.9708C50.706 18.9108 50.654 18.7608 50.715 18.6368L51.367 17.2978C51.427 17.1728 51.578 17.1218 51.701 17.1818C51.825 17.2428 51.877 17.3918 51.816 17.5168L51.164 18.8568C51.104 18.9778 50.956 19.0318 50.83 18.9708Z" fill="white"/>
<path d="M51.8619 20.2149C51.8049 20.0889 51.8609 19.9409 51.9869 19.8839L53.2849 19.2999C53.4109 19.2429 53.5589 19.2989 53.6149 19.4249C53.6719 19.5509 53.6159 19.6989 53.4899 19.7559L52.1919 20.3399C52.0679 20.3969 51.9179 20.3419 51.8619 20.2149Z" fill="white"/>
<path d="M23.405 26.252L21.823 25.194C21.708 25.117 21.677 24.962 21.754 24.847C21.832 24.733 21.989 24.702 22.101 24.778L23.683 25.836C23.798 25.913 23.829 26.068 23.752 26.183C23.673 26.299 23.518 26.328 23.405 26.252Z" fill="white"/>
<path d="M24.9429 24.621L23.1029 23.428C22.9869 23.353 22.9539 23.198 23.0289 23.082C23.1039 22.967 23.2579 22.935 23.3749 23.008L25.2149 24.201C25.3309 24.276 25.3639 24.431 25.2889 24.547C25.2139 24.662 25.0609 24.697 24.9429 24.621Z" fill="white"/>
<path d="M27.3618 23.105L26.3678 21.613C26.2918 21.498 26.3218 21.343 26.4368 21.266C26.5508 21.189 26.7068 21.22 26.7838 21.335L27.7778 22.827C27.8538 22.942 27.8238 23.097 27.7088 23.174C27.5898 23.253 27.4358 23.218 27.3618 23.105Z" fill="white"/>
<path d="M29.9609 22.804C30.1899 22.337 30.1709 21.742 29.9119 21.289C29.8439 21.169 29.8849 21.017 30.0049 20.948C30.1229 20.878 30.2769 20.92 30.3459 21.041C30.6909 21.643 30.7149 22.403 30.4099 23.025C30.2629 23.321 29.8159 23.1 29.9609 22.804Z" fill="white"/>
<path d="M31.3209 23.324C31.5879 22.914 31.7269 22.42 31.7139 21.932C31.7099 21.794 31.8189 21.679 31.9569 21.675C31.9589 21.675 31.9619 21.675 31.9639 21.675C32.0989 21.675 32.2099 21.782 32.2139 21.918C32.2299 22.506 32.0619 23.1021 31.7409 23.5961C31.5619 23.8731 31.1409 23.601 31.3209 23.324Z" fill="white"/>
<path d="M16.9538 12.2228L13.9348 9.20484C13.8368 9.10684 13.8368 8.94884 13.9348 8.85084C14.0328 8.75284 14.1908 8.75284 14.2888 8.85084L17.3068 11.8688C17.4048 11.9668 17.4048 12.1248 17.3068 12.2228C17.2098 12.3198 17.0518 12.3208 16.9538 12.2228Z" fill="white"/>
<path d="M18.776 11.483L14.689 7.39598C14.591 7.29798 14.591 7.13998 14.689 7.04298C14.787 6.94498 14.945 6.94498 15.043 7.04298L19.13 11.13C19.228 11.228 19.228 11.386 19.13 11.484C19.032 11.58 18.874 11.582 18.776 11.483Z" fill="white"/>
<path d="M19.4758 9.54588L16.4968 6.56688C16.3988 6.46888 16.3988 6.31088 16.4968 6.21388C16.5948 6.11588 16.7528 6.11588 16.8508 6.21388L19.8298 9.19288C19.9278 9.29088 19.9278 9.44888 19.8298 9.54688C19.7328 9.64288 19.5738 9.64488 19.4758 9.54588Z" fill="white"/>
<path d="M14.5379 11.64L19.5539 6.62501C19.6519 6.52701 19.8099 6.52701 19.9069 6.62501C20.0049 6.72301 20.0049 6.88101 19.9069 6.97801L14.8909 11.993C14.6569 12.227 14.3049 11.872 14.5379 11.64Z" fill="white"/>
</svg>
