<?xml version="1.0" ?><!DOCTYPE svg  PUBLIC '-//W3C//DTD SVG 1.1//EN'  'http://www.w3.org/Graphics/SVG/1.1/DTD/svg11.dtd'><svg enable-background="new 0 0 66 66" id="Layer_1" version="1.1" viewBox="0 0 66 66" xml:space="preserve" xmlns="http://www.w3.org/2000/svg" xmlns:xlink="http://www.w3.org/1999/xlink"><g><g><g><g><g><path d="M1.511,31.331c-0.233,0-0.442-0.164-0.489-0.403c-0.054-0.271,0.122-0.534,0.394-0.587       c12.459-2.468,20.881,1.281,23.18-4.416c1.614-3.999-3.564-7.705-7.097-4.569c-1.839,1.631-1.76,4.12-0.287,5.256       c1.895,1.457,4.238-0.409,3.457-2.176c-0.343-0.777-1.428-1.216-2.186-0.807c-0.242,0.132-0.546,0.043-0.679-0.2       c-0.586-1.079,2.782-1.659,3.778,0.602c1.198,2.706-2.255,5.475-4.98,3.372c-1.973-1.519-2.078-4.745,0.232-6.796       c4.37-3.879,10.674,0.768,8.688,5.691c-2.614,6.483-11.474,2.559-23.914,5.022C1.576,31.328,1.543,31.331,1.511,31.331z"/></g><g><path d="M17.424,41.196c-1.733,0-3.402-1.278-3.784-2.989c-0.273-1.229,0.087-2.385,0.966-3.092       c0.732-0.589,1.679-0.727,2.469-0.36c1.108,0.514,1.366,1.659,1.048,2.524c-0.297,0.809-1.041,1.226-1.807,1.017       c-0.379-0.104-0.701-0.412-0.843-0.802c-0.131-0.361-0.09-0.737,0.113-1.03c0.158-0.228,0.469-0.284,0.696-0.126       c0.227,0.157,0.283,0.469,0.126,0.696c-0.016,0.022-0.014,0.07,0.005,0.12c0.03,0.085,0.102,0.16,0.168,0.179       c0.378,0.105,0.547-0.243,0.603-0.397c0.155-0.422,0.056-1.001-0.53-1.272c-0.442-0.206-0.989-0.116-1.421,0.232       c-0.575,0.463-0.806,1.247-0.616,2.095c0.303,1.358,1.78,2.381,3.153,2.183c1.377-0.195,2.509-1.583,2.423-2.972       c-0.118-1.923-1.989-3.899-6.966-3.658c-2.636,0.125-5.267,0.531-7.818,1.207c-0.27,0.07-0.54-0.089-0.611-0.355       c-0.07-0.267,0.089-0.541,0.356-0.611c2.62-0.693,5.32-1.11,8.027-1.239c5.655-0.26,7.863,2.196,8.011,4.595       c0.119,1.913-1.384,3.756-3.28,4.024C17.748,41.185,17.586,41.196,17.424,41.196z"/></g></g><g><g><path d="M28.857,44.05c-2.723-1.431-4.62-3.69-5.208-6.198c-0.688-2.926,0.703-6.132,3.164-7.297       c2.279-1.082,5.285-0.278,6.697,1.787c0.155,0.228,0.097,0.539-0.131,0.695c-0.225,0.156-0.538,0.099-0.695-0.13       c-1.146-1.677-3.587-2.327-5.443-1.448c-2.052,0.972-3.202,3.68-2.619,6.166c0.522,2.226,2.235,4.246,4.7,5.542       c4.35,2.286,13.398,2.693,18.024,2.666c20.443-0.15,19.004-15.44,11.81-16.79c-2.458-0.456-5.066,1.139-5.593,3.421       c-0.063,0.27-0.325,0.439-0.6,0.375c-0.27-0.062-0.437-0.331-0.375-0.6c0.642-2.78,3.801-4.733,6.751-4.179       c5.367,1.007,7.897,8.295,3.121,13.709c-3.898,4.419-10.121,5.027-15.107,5.064C42.333,46.87,33.324,46.398,28.857,44.05z"/></g><g><path d="M36.854,30.757c-0.005,0-0.01,0-0.014,0c-0.276-0.008-0.494-0.238-0.486-0.514c0.324-11.419,17.525-13.657,21.489-1.98       c0.089,0.261-0.052,0.545-0.313,0.634c-0.262,0.087-0.545-0.051-0.635-0.313c-3.593-10.59-19.25-8.646-19.542,1.688       C37.347,30.542,37.124,30.757,36.854,30.757z"/></g><g><path d="M30.161,31.224c-0.029,0-0.058-0.003-0.087-0.007c-0.271-0.047-0.454-0.307-0.406-0.579       c0.746-4.284,6.383-5.59,7.928-2.616c0.128,0.245,0.032,0.547-0.213,0.674c-0.242,0.127-0.547,0.032-0.674-0.213       c-1.082-2.079-5.469-1.047-6.057,2.327C30.61,31.052,30.399,31.224,30.161,31.224z"/></g></g></g><g><path d="M33.891,45.273l-1.863-1.874c-0.097-0.098-0.097-0.256,0.001-0.354c0.099-0.097,0.256-0.096,0.354,0.001l1.863,1.874     c0.097,0.098,0.097,0.256-0.001,0.354C34.149,45.369,33.992,45.373,33.891,45.273z"/></g><g><path d="M36.631,45.467l-2.547-2.561c-0.097-0.098-0.097-0.256,0.001-0.354c0.099-0.097,0.256-0.097,0.354,0.001l2.547,2.561     C37.217,45.348,36.868,45.702,36.631,45.467z"/></g><g><path d="M40.374,46.421l-3.301-3.319c-0.097-0.098-0.097-0.256,0.001-0.354c0.099-0.097,0.256-0.097,0.355,0.001l3.301,3.319     c0.097,0.098,0.097,0.256-0.001,0.354C40.632,46.517,40.475,46.521,40.374,46.421z"/></g><g><path d="M43.093,46.344l-3.155-3.173c-0.097-0.098-0.097-0.256,0.001-0.354c0.099-0.097,0.256-0.097,0.354,0.001l3.155,3.173     c0.097,0.098,0.097,0.256-0.001,0.354C43.351,46.44,43.194,46.444,43.093,46.344z"/></g><g><path d="M46.612,46.28c-0.163,0-3.503-3.417-3.622-3.537c-0.097-0.098-0.097-0.256,0.001-0.354     c0.098-0.098,0.255-0.097,0.355,0.001l3.444,3.463c0.097,0.098,0.097,0.256-0.001,0.354C46.74,46.256,46.676,46.28,46.612,46.28z     "/></g><g><path d="M50.377,46.069c-0.064,0-0.128-0.024-0.178-0.074l-3.409-3.428c-0.097-0.098-0.097-0.256,0.001-0.354     c0.099-0.098,0.256-0.097,0.354,0.001l3.409,3.428c0.097,0.098,0.097,0.256-0.001,0.354     C50.505,46.044,50.44,46.069,50.377,46.069z"/></g><g><path d="M53.392,44.833l-3.173-3.19c-0.097-0.098-0.097-0.256,0.001-0.354c0.099-0.098,0.256-0.098,0.354,0.001l3.173,3.19     C53.978,44.713,53.628,45.067,53.392,44.833z"/></g><g><path d="M56.789,44.459c-0.163,0-3.588-3.504-3.703-3.619c-0.097-0.098-0.097-0.256,0.001-0.354     c0.098-0.098,0.255-0.097,0.354,0.001l3.525,3.545c0.097,0.098,0.097,0.256-0.001,0.354     C56.917,44.435,56.853,44.459,56.789,44.459z"/></g><g><path d="M58.348,42.821l-2.893-2.908c-0.097-0.098-0.097-0.256,0.001-0.354c0.099-0.098,0.256-0.097,0.354,0.001l2.893,2.908     c0.097,0.098,0.097,0.256-0.001,0.354C58.606,42.917,58.449,42.921,58.348,42.821z"/></g><g><path d="M60.838,41.515l-2.888-2.904c-0.097-0.098-0.097-0.256,0.001-0.354c0.098-0.098,0.257-0.097,0.354,0.001l2.888,2.904     C61.427,41.4,61.069,41.749,60.838,41.515z"/></g><g><path d="M61.874,39.809l-1.991-2.002c-0.097-0.098-0.097-0.256,0.001-0.353c0.098-0.097,0.255-0.097,0.354,0.001l1.991,2.002     c0.097,0.098,0.097,0.256-0.001,0.354C62.132,39.905,61.975,39.909,61.874,39.809z"/></g><g><path d="M63.393,37.796c-0.171,0-2.013-1.92-2.134-2.041c-0.097-0.098-0.097-0.256,0.001-0.354     c0.099-0.097,0.258-0.097,0.354,0.001l1.956,1.967c0.097,0.098,0.097,0.256-0.001,0.354     C63.521,37.772,63.456,37.796,63.393,37.796z"/></g><g><path d="M63.637,36.086l-1.379-1.387c-0.097-0.098-0.097-0.256,0.001-0.354c0.099-0.097,0.256-0.097,0.354,0.001l1.379,1.387     c0.097,0.098,0.097,0.256-0.001,0.354C63.895,36.182,63.738,36.186,63.637,36.086z"/></g><g><path d="M32.024,44.478l2.351-2.338c0.099-0.098,0.257-0.097,0.354,0.001c0.098,0.098,0.098,0.256,0,0.353l-2.351,2.338     C32.142,45.067,31.792,44.71,32.024,44.478z"/></g><g><path d="M34.451,45.108l2.978-2.961c0.099-0.097,0.256-0.096,0.354,0.001c0.097,0.098,0.097,0.256-0.001,0.354l-2.978,2.961     C34.569,45.695,34.218,45.34,34.451,45.108z"/></g><g><path d="M37.689,45.365l3.462-3.443c0.099-0.097,0.256-0.097,0.354,0.001c0.097,0.098,0.097,0.256-0.001,0.353l-3.462,3.443     C37.808,45.953,37.456,45.598,37.689,45.365z"/></g><g><path d="M40.928,45.374l4.898-4.872c0.099-0.098,0.256-0.097,0.354,0.001c0.097,0.098,0.097,0.256-0.001,0.354l-4.898,4.872     C41.046,45.962,40.694,45.606,40.928,45.374z"/></g><g><path d="M45.037,45.946l5.023-4.996c0.099-0.097,0.256-0.097,0.354,0.001c0.097,0.098,0.097,0.256-0.001,0.354L45.391,46.3     C45.155,46.533,44.803,46.178,45.037,45.946z"/></g><g><path d="M49.014,46.384c-0.064,0-0.128-0.025-0.177-0.074c-0.098-0.098-0.098-0.256,0-0.354l5.707-5.677     c0.099-0.097,0.257-0.096,0.354,0.001c0.098,0.098,0.098,0.256,0,0.354l-5.707,5.677C49.142,46.359,49.077,46.384,49.014,46.384z     "/></g><g><path d="M53.885,44.599l5.257-5.228c0.237-0.234,0.586,0.124,0.354,0.355l-5.257,5.228     C54.004,45.186,53.648,44.835,53.885,44.599z"/></g><g><path d="M58.5,42.494l3.161-3.144c0.233-0.233,0.588,0.121,0.354,0.355l-3.161,3.144C58.618,43.082,58.267,42.726,58.5,42.494z"/></g><g><path d="M59.624,38.066c-0.064,0-0.128-0.024-0.178-0.074c-0.097-0.098-0.097-0.256,0.001-0.354l2.033-2.022     c0.099-0.098,0.256-0.097,0.354,0.001c0.097,0.098,0.097,0.256-0.001,0.354l-2.033,2.022     C59.752,38.042,59.688,38.066,59.624,38.066z"/></g><g><path d="M61.627,37.832l1.617-1.608c0.237-0.234,0.586,0.124,0.354,0.354l-1.617,1.608C61.746,38.418,61.39,38.067,61.627,37.832     z"/></g></g><g><path d="M39.461,28.664c-0.03,0-0.061-0.005-0.092-0.017c-0.128-0.051-0.191-0.196-0.141-0.324c0.95-2.42,3.117-4.283,5.653-4.862    c2.535-0.577,5.295,0.159,7.203,1.927c0.102,0.094,0.107,0.252,0.014,0.354c-0.095,0.101-0.251,0.108-0.354,0.014    c-1.788-1.657-4.374-2.349-6.752-1.807c-2.378,0.543-4.408,2.289-5.3,4.558C39.655,28.604,39.561,28.664,39.461,28.664z"/></g><g><path d="M55.246,32.457c-0.043,0-0.087-0.011-0.126-0.034c-0.119-0.07-0.159-0.223-0.09-0.342    c0.694-1.189,1.937-1.939,3.322-2.008c1.373-0.074,2.692,0.554,3.503,1.668c0.081,0.112,0.057,0.268-0.055,0.349    c-0.114,0.081-0.27,0.056-0.35-0.055c-0.711-0.977-1.874-1.529-3.074-1.462c-1.216,0.061-2.306,0.719-2.915,1.761    C55.415,32.413,55.332,32.457,55.246,32.457z"/></g><g><path d="M25.799,36.056c-0.132,0-0.241-0.102-0.25-0.235c-0.086-1.428,0.679-2.684,1.995-3.278    c1.317-0.594,2.765-0.335,3.778,0.672c0.098,0.098,0.098,0.256,0,0.354c-0.098,0.098-0.256,0.099-0.353,0.001    c-1.031-1.027-2.339-0.969-3.219-0.571c-0.881,0.397-1.789,1.339-1.701,2.792c0.008,0.138-0.097,0.256-0.235,0.265    C25.809,36.056,25.804,36.056,25.799,36.056z"/></g></g></svg>