<svg width="66" height="39" viewBox="0 0 66 39" fill="none" xmlns="http://www.w3.org/2000/svg">
<path d="M21.6241 32.2695C20.2024 31.1549 19.6509 29.2176 20.3116 27.6614C20.4321 27.3794 20.7608 27.2484 21.0478 27.364C21.3348 27.4808 21.4699 27.8035 21.3517 28.0843C20.8789 29.1967 21.2887 30.5954 22.3287 31.4105C23.4803 32.3125 25.0302 32.2145 26.5847 31.1417C27.5899 30.449 28.3913 29.4676 29.168 28.5182C29.3627 28.2804 29.7196 28.2429 29.9593 28.4323C30.2025 28.6218 30.2407 28.9687 30.0471 29.2066C29.222 30.2155 28.3688 31.2585 27.2331 32.0416C25.4467 33.274 23.3069 33.5868 21.6241 32.2695Z" fill="white"/>
<path d="M26.5196 31.8301C26.6221 31.5437 26.9429 31.3917 27.2366 31.4919C27.5304 31.5922 27.6846 31.906 27.5822 32.1935C26.4037 35.4954 30.6259 39.8194 36.2326 36.9669C38.9296 35.5946 40.8139 33.0261 41.2743 30.0965C41.3215 29.7958 41.6041 29.5932 41.9159 29.6361C42.222 29.6824 42.4337 29.9632 42.3864 30.2639C41.8731 33.5405 39.7659 36.4118 36.7515 37.946C30.2376 41.2578 24.9989 36.0836 26.5196 31.8301Z" fill="white"/>
<path d="M40.6551 28.8223C40.5797 28.5271 40.7632 28.2275 41.0637 28.1538C41.3676 28.0778 41.6704 28.2595 41.747 28.5536C43.1968 34.197 51.8989 32.3566 50.8634 26.6438C50.8082 26.3442 51.0131 26.0589 51.3181 26.005C51.6254 25.9488 51.917 26.1515 51.971 26.451C52.3177 28.3542 51.5815 30.4105 50.1002 31.6892C46.8911 34.458 41.7155 32.9447 40.6551 28.8223Z" fill="white"/>
<path d="M57.2301 33.199C56.9588 33.199 56.6876 33.1869 56.4152 33.1626C54.165 32.9567 52.014 31.8905 50.5124 30.2352C50.0228 29.6966 50.8557 28.9565 51.3544 29.5038C56.36 35.0229 65.4291 31.0039 64.8945 24.5521C64.4363 19.0253 57.3562 17.6365 55.2029 21.8669C55.0655 22.14 54.7256 22.2502 54.4487 22.1147C54.1707 21.9792 54.057 21.6488 54.1954 21.3768C55.4201 18.9637 58.5268 17.7059 61.2632 18.5143C69.0919 20.8195 66.8519 33.199 57.2301 33.199Z" fill="white"/>
<path d="M61.1292 18.53C63.5448 18.4683 64.6637 15.4836 62.8289 13.9163C62.0286 13.2313 60.7623 13.0826 59.8156 13.5639C59.5399 13.7049 59.1999 13.6002 59.0558 13.3304C58.9118 13.0606 59.0198 12.7279 59.2945 12.5881C60.6576 11.8942 62.4136 12.0991 63.5696 13.0881C66.1709 15.3096 64.6097 19.5422 61.1596 19.6325C60.4167 19.6512 60.3863 18.5498 61.1292 18.53Z" fill="white"/>
<path d="M43.2622 15.1079C41.6774 13.2939 41.1022 10.6286 41.7595 8.15051C42.3505 5.92572 43.9241 3.84412 46.0774 2.43876C47.8334 1.29223 49.837 0.63911 51.8698 0.552101C63.3174 0.0917255 63.4221 13.8182 61.2215 13.1684C60.9232 13.0825 60.7532 12.7763 60.841 12.4844C62.5193 6.91366 58.0776 1.40897 51.9205 1.65238C44.6118 1.96847 40.0463 9.72988 44.1177 14.3931C44.3203 14.6244 44.2922 14.9713 44.0558 15.1696C43.8172 15.3678 43.4626 15.3381 43.2622 15.1079Z" fill="white"/>
<path d="M35.654 15.7235C33.1979 11.6451 38.3307 7.157 42.1972 10.0063C42.7882 10.4413 42.115 11.3257 41.5196 10.8863C38.6279 8.7595 34.7929 12.1275 36.622 15.1651C36.7807 15.4272 36.6918 15.7654 36.4228 15.9196C36.1526 16.0749 35.8093 15.9834 35.654 15.7235Z" fill="white"/>
<path d="M28.2248 13.3821C27.9817 12.1904 28.5929 10.8555 29.7095 10.1374C30.6798 9.51076 31.963 9.33674 33.2271 9.65724C34.3077 9.93039 36.9878 11.295 36.2347 12.1078C36.0254 12.3325 35.6697 12.349 35.44 12.1453C34.6161 11.4117 33.7764 10.9337 32.9457 10.7234C32.0013 10.4866 31.0231 10.6099 30.3286 11.0571C29.5958 11.5285 29.1748 12.4151 29.3279 13.1673C29.3887 13.4658 29.1906 13.7555 28.8856 13.8149C28.5895 13.8744 28.2856 13.6861 28.2248 13.3821Z" fill="white"/>
<path d="M11.4162 9.18691C11.8654 7.83001 12.8188 6.57774 14.2483 5.46535C17.0489 3.28242 20.8084 2.41453 24.0603 3.20532C27.5824 4.06109 30.4201 6.85199 31.1236 10.1484C31.1878 10.4458 30.9919 10.7376 30.688 10.7993C30.383 10.861 30.0847 10.6716 30.0216 10.3731C29.4048 7.48197 26.9003 5.03031 23.7891 4.27366C20.8658 3.56658 17.4822 4.35186 14.9484 6.32553C13.6945 7.30135 12.866 8.37849 12.4856 9.52613C11.6932 11.9183 12.9223 15.1729 14.2562 16.3194C14.4892 16.5199 14.5128 16.8679 14.308 17.097C13.2701 18.2435 10.1387 13.0417 11.4162 9.18691Z" fill="white"/>
<path d="M15.7812 28.4169C13.3577 28.4169 10.9354 28.3574 8.52207 28.2374C8.21253 28.222 7.97277 27.9631 7.98853 27.6592C8.00541 27.3563 8.24855 27.1096 8.57835 27.1371C16.6671 27.5402 24.8447 27.2616 32.8884 26.3111C33.19 26.2725 33.4759 26.4895 33.5142 26.7924C33.5514 27.0953 33.3319 27.3695 33.0223 27.4058C27.3166 28.0788 21.5421 28.4169 15.7812 28.4169Z" fill="white"/>
<path d="M0.0428056 25.158C-0.265614 25.158 -0.517753 24.9135 -0.520005 24.6106C-0.522256 24.3067 -0.271243 24.0589 0.0394285 24.0566L27.2986 23.9058C27.2997 23.9058 27.3008 23.9058 27.302 23.9058C27.6104 23.9058 27.8625 24.1503 27.8648 24.4531C27.867 24.7571 27.616 25.006 27.3053 25.0071L0.0461822 25.158C0.0450566 25.158 0.0439312 25.158 0.0428056 25.158Z" fill="white"/>
<path d="M0.640625 18.2941C0.360346 18.2941 0.117212 18.0881 0.0834434 17.8095C0.0462979 17.5077 0.265794 17.2335 0.57534 17.1971C8.30723 16.2885 16.1719 15.9889 23.95 16.3072C24.2606 16.3204 24.5015 16.577 24.4891 16.881C24.4745 17.1839 24.2021 17.4306 23.9038 17.4086C16.1854 17.0936 8.38377 17.3899 0.709289 18.2919C0.685651 18.293 0.663138 18.2941 0.640625 18.2941Z" fill="white"/>
<path d="M14.3325 20.5619C14.0275 20.5619 13.7776 20.324 13.7697 20.0244C13.7618 19.7204 14.0083 19.4682 14.319 19.4605L29.489 19.1047C29.8233 19.118 30.0574 19.3382 30.0653 19.6422C30.0732 19.9462 29.8267 20.1984 29.516 20.2061L14.346 20.5619C14.3415 20.5619 14.337 20.5619 14.3325 20.5619Z" fill="white"/>
<path d="M38.5357 20.2656C37.6295 20.2656 36.7257 20.2535 35.8207 20.2303C35.5111 20.2215 35.2657 19.9693 35.2736 19.6642C35.2826 19.3658 35.5325 19.129 35.8364 19.129C35.8409 19.129 35.8466 19.129 35.8522 19.129C41.5884 19.2799 47.3819 18.945 53.0663 18.1322C53.3657 18.0805 53.6584 18.2952 53.7045 18.597C53.7495 18.8977 53.5368 19.1774 53.2284 19.2215C48.377 19.9154 43.4456 20.2656 38.5357 20.2656Z" fill="white"/>
<path d="M6.12347 28.4048H5.96589C5.65522 28.4048 5.40308 28.1581 5.40308 27.8542C5.40308 27.5502 5.65522 27.3035 5.96589 27.3035H6.12347C6.43414 27.3035 6.68628 27.5502 6.68628 27.8542C6.68628 28.1581 6.43414 28.4048 6.12347 28.4048Z" fill="white"/>
<path d="M2.68254 28.7255C2.54183 28.7255 2.40226 28.6781 2.2987 28.5768C2.07921 28.362 2.05219 28.0393 2.27281 27.8234L2.32572 27.7717C2.54521 27.5569 2.90203 27.5569 3.12153 27.7717C3.34103 27.9864 3.34103 28.3356 3.12153 28.5503C3.00446 28.6649 2.84238 28.7255 2.68254 28.7255Z" fill="white"/>
<path d="M30.2839 37.7423L28.2341 35.7367C28.1238 35.6288 28.1238 35.4548 28.2341 35.3468C28.3444 35.2389 28.5223 35.2389 28.6326 35.3468L30.6823 37.3524C30.7926 37.4604 30.7926 37.6344 30.6823 37.7423C30.572 37.8503 30.3942 37.8514 30.2839 37.7423Z" fill="white"/>
<path d="M33.1182 37.8469L30.8186 35.5968C30.7083 35.4889 30.7083 35.3149 30.8186 35.2069C30.9289 35.099 31.1067 35.099 31.217 35.2069L33.5167 37.457C33.7801 37.7159 33.3805 38.1024 33.1182 37.8469Z" fill="white"/>
<path d="M36.2979 36.7664C36.1088 36.7664 34.4013 35.024 34.2673 34.893C34.157 34.785 34.157 34.611 34.2673 34.5031C34.3787 34.394 34.5566 34.3962 34.6646 34.5031L36.496 36.295C36.6063 36.403 36.6063 36.577 36.496 36.6849C36.442 36.74 36.37 36.7664 36.2979 36.7664Z" fill="white"/>
<path d="M38.806 35.0472L37.0681 33.3478C36.9578 33.2399 36.9578 33.0658 37.0681 32.9579C37.1773 32.8511 37.3551 32.8489 37.4666 32.9579L39.2045 34.6573C39.4657 34.914 39.0694 35.3049 38.806 35.0472Z" fill="white"/>
<path d="M39.6682 33.501L38.0034 31.871C37.8931 31.7631 37.8931 31.589 38.0034 31.4811C38.1137 31.3732 38.2915 31.3732 38.4019 31.4811L40.0666 33.1111C40.177 33.2191 40.177 33.3931 40.0666 33.501C39.9575 33.6079 39.7796 33.6101 39.6682 33.501Z" fill="white"/>
<path d="M40.7263 32.0064L39.2956 30.6066C39.1853 30.4986 39.1853 30.3246 39.2956 30.2167C39.4059 30.1088 39.5838 30.1088 39.6941 30.2167L41.1248 31.6165C41.3882 31.8754 40.9886 32.2631 40.7263 32.0064Z" fill="white"/>
<path d="M35.1271 37.1672C34.9391 37.1672 33.3948 35.5857 33.2619 35.4557C33.1516 35.3478 33.1516 35.1737 33.2619 35.0658C33.3722 34.9579 33.5501 34.9579 33.6604 35.0658L35.3263 36.697C35.4366 36.8049 35.4366 36.9789 35.3263 37.0857C35.2712 37.1397 35.1991 37.1672 35.1271 37.1672Z" fill="white"/>
<path d="M29.5263 37.2832C29.416 37.1753 29.416 37.0013 29.5263 36.8933L33.1385 33.359C33.2488 33.2511 33.4266 33.2511 33.5369 33.359C33.6472 33.467 33.6472 33.641 33.5369 33.7489L29.9248 37.2832C29.8145 37.3901 29.6366 37.3912 29.5263 37.2832Z" fill="white"/>
<path d="M32.831 37.4561L37.0363 33.3402C37.1466 33.2323 37.3244 33.2323 37.4347 33.3402C37.5451 33.4482 37.5451 33.6222 37.4347 33.7301L33.2294 37.846C32.9649 38.1037 32.5687 37.7127 32.831 37.4561Z" fill="white"/>
<path d="M37.5711 35.3479L39.5015 33.459C39.7627 33.2035 40.1634 33.5901 39.9 33.8489L37.9695 35.7378C37.7062 35.9955 37.3099 35.6034 37.5711 35.3479Z" fill="white"/>
<path d="M38.7202 31.8708C38.6099 31.7629 38.6099 31.5889 38.7202 31.481L39.7625 30.4611C39.8728 30.3531 40.0507 30.3531 40.161 30.4611C40.2713 30.569 40.2713 30.743 40.161 30.851L39.1187 31.8708C39.0083 31.9777 38.8305 31.9799 38.7202 31.8708Z" fill="white"/>
<path d="M46.4634 32.3048C46.2754 32.3048 44.6714 30.666 44.5385 30.536C44.4282 30.4281 44.4282 30.2541 44.5385 30.1461C44.6489 30.0382 44.8267 30.0382 44.9359 30.1461L46.6615 31.8345C46.8393 32.0086 46.7121 32.3048 46.4634 32.3048Z" fill="white"/>
<path d="M48.1067 31.4964L46.7661 30.1847C46.6558 30.0768 46.6558 29.9028 46.7661 29.7948C46.8764 29.6869 47.0542 29.6869 47.1646 29.7948L48.5052 31.1066C48.6155 31.2145 48.6155 31.3885 48.5052 31.4964C48.3949 31.6033 48.217 31.6044 48.1067 31.4964Z" fill="white"/>
<path d="M49.7109 30.2552L48.4187 28.9909C48.3084 28.8829 48.3084 28.7089 48.4187 28.601C48.529 28.493 48.7068 28.493 48.8171 28.601L50.1094 29.8654C50.2197 29.9733 50.2197 30.1473 50.1094 30.2552C49.999 30.3621 49.8212 30.3632 49.7109 30.2552Z" fill="white"/>
<path d="M50.3255 29.169L48.7058 27.5841C48.5955 27.4762 48.5955 27.3022 48.7058 27.1942C48.8161 27.0863 48.9939 27.0863 49.1042 27.1942L50.724 28.7791C50.9863 29.0379 50.5867 29.4245 50.3255 29.169Z" fill="white"/>
<path d="M44.3945 31.341L47.4955 28.3078C47.607 28.1987 47.7848 28.2009 47.894 28.3078C48.0043 28.4157 48.0043 28.5897 47.894 28.6976L44.7929 31.7308C44.5284 31.9886 44.1333 31.5976 44.3945 31.341Z" fill="white"/>
<path d="M47.8424 31.1308L49.8032 29.2122C50.0644 28.9567 50.4651 29.3433 50.2017 29.6021L48.2409 31.5207C47.9786 31.7773 47.5801 31.3874 47.8424 31.1308Z" fill="white"/>
<path d="M48.9035 28.7891C48.8315 28.7891 48.7595 28.7627 48.7043 28.7087C48.594 28.6008 48.594 28.4268 48.7043 28.3188L49.6408 27.4025C49.7511 27.2945 49.929 27.2945 50.0393 27.4025C50.1496 27.5104 50.1496 27.6844 50.0393 27.7924L49.1028 28.7087C49.0476 28.7627 48.9756 28.7891 48.9035 28.7891Z" fill="white"/>
<path d="M57.7726 32.8721L55.6733 30.818C55.563 30.7101 55.563 30.5361 55.6733 30.4281C55.7836 30.3202 55.9615 30.3202 56.0718 30.4281L58.1711 32.4822C58.2814 32.5901 58.2814 32.7641 58.1711 32.8721C58.0608 32.9789 57.8829 32.98 57.7726 32.8721Z" fill="white"/>
<path d="M59.5183 31.6284L57.6836 29.8331C57.5733 29.7252 57.5733 29.5512 57.6836 29.4433C57.7939 29.3353 57.9717 29.3353 58.082 29.4433L59.9168 31.2385C60.0271 31.3464 60.0271 31.5205 59.9168 31.6284C59.8065 31.7352 59.6286 31.7363 59.5183 31.6284Z" fill="white"/>
<path d="M61.4544 30.7121L59.479 28.7792C59.3687 28.6713 59.3687 28.4972 59.479 28.3893C59.5893 28.2814 59.7671 28.2814 59.8763 28.3893L61.8518 30.3222C62.1163 30.581 61.7167 30.9676 61.4544 30.7121Z" fill="white"/>
<path d="M62.8921 29.8688L60.7016 27.7244C60.5913 27.6164 60.5913 27.4424 60.7016 27.3356C60.8119 27.2277 60.9898 27.2277 61.1001 27.3356L63.2906 29.48C63.4009 29.5879 63.4009 29.7619 63.2906 29.8699C63.1814 29.9745 63.0035 29.9778 62.8921 29.8688Z" fill="white"/>
<path d="M64.0499 27.84L62.3525 26.1791C62.2422 26.0712 62.2422 25.8971 62.3525 25.7892C62.4628 25.6813 62.6407 25.6813 62.751 25.7892L64.4484 27.4501C64.5587 27.558 64.5587 27.732 64.4484 27.84C64.3381 27.9468 64.1603 27.9479 64.0499 27.84Z" fill="white"/>
<path d="M64.9753 26.1448L63.2148 24.4223C63.1045 24.3143 63.1045 24.1403 63.2148 24.0324C63.3251 23.9244 63.503 23.9244 63.6133 24.0324L65.3738 25.7549C65.4841 25.8629 65.4841 26.0369 65.3738 26.1448C65.2646 26.2516 65.0856 26.2527 64.9753 26.1448Z" fill="white"/>
<path d="M55.8074 32.0295C55.6217 32.0295 54.2957 30.6649 54.164 30.5361C53.9028 30.2794 54.2979 29.8885 54.5625 30.1462L56.0066 31.5592C56.1169 31.6672 56.1169 31.8412 56.0066 31.9491C55.9515 32.0031 55.8794 32.0295 55.8074 32.0295Z" fill="white"/>
<path d="M54.8819 31.6219L58.1237 28.4511C58.234 28.3431 58.4118 28.3431 58.5221 28.4511C58.6324 28.559 58.6324 28.733 58.5221 28.841L55.2803 32.0118C55.0169 32.2695 54.6207 31.8786 54.8819 31.6219Z" fill="white"/>
<path d="M58.3295 31.4115L61.2831 28.5226C61.5409 28.2671 61.9461 28.6526 61.6805 28.9125L58.7268 31.8014C58.4635 32.0592 58.0672 31.6671 58.3295 31.4115Z" fill="white"/>
<path d="M62.1931 27.525C62.1222 27.525 62.049 27.4985 61.9939 27.4445C61.8836 27.3366 61.8836 27.1626 61.9939 27.0547L63.4707 25.6097C63.7318 25.3541 64.1325 25.7407 63.8691 25.9995L62.3923 27.4445C62.3361 27.4974 62.2651 27.525 62.1931 27.525Z" fill="white"/>
<path d="M62.8545 28.4599L64.6285 26.7242C64.8897 26.4686 65.2904 26.8552 65.0259 27.114L63.2519 28.8498C62.9896 29.1075 62.5934 28.7154 62.8545 28.4599Z" fill="white"/>
<path d="M63.3579 24.9841C63.2476 24.8762 63.2476 24.7021 63.3579 24.5942C63.6584 24.3012 64.0535 23.7506 64.3349 24.0281C64.4452 24.136 64.4452 24.3101 64.3349 24.418L63.7552 24.9841C63.6472 25.0898 63.4693 25.092 63.3579 24.9841Z" fill="white"/>
<path d="M61.3059 18.6919L60.2715 17.6808C60.1611 17.5729 60.1611 17.3988 60.2715 17.2909C60.3818 17.183 60.5596 17.183 60.6699 17.2909L61.7044 18.3031C61.8147 18.411 61.8147 18.585 61.7044 18.6919C61.5952 18.7987 61.4173 18.7998 61.3059 18.6919Z" fill="white"/>
<path d="M62.3415 17.7845L61.3735 16.8373C61.2632 16.7294 61.2632 16.5553 61.3735 16.4474C61.4838 16.3395 61.6617 16.3395 61.772 16.4474L62.74 17.3946C62.8503 17.5025 62.8503 17.6765 62.74 17.7845C62.6308 17.8913 62.453 17.8924 62.3415 17.7845Z" fill="white"/>
<path d="M63.3577 16.8997L62.5417 16.1023C62.2805 15.8468 62.6756 15.4547 62.9401 15.7124L63.7562 16.5109C63.8665 16.6189 63.8665 16.7929 63.7562 16.9008C63.6459 17.0066 63.4681 17.0077 63.3577 16.8997Z" fill="white"/>
<path d="M63.5921 15.6267L62.6916 14.7467C62.4282 14.489 62.8267 14.1002 63.0901 14.3568L63.9906 15.2368C64.1009 15.3447 64.1009 15.5188 63.9906 15.6267C63.878 15.7357 63.7002 15.7324 63.5921 15.6267Z" fill="white"/>
<path d="M60.4459 18.0936L63.2397 15.3589C63.5009 15.1023 63.9016 15.49 63.6382 15.7477L60.8444 18.4824C60.5799 18.7412 60.1837 18.3502 60.4459 18.0936Z" fill="white"/>
<path d="M60.2984 12.3314L59.2854 11.3391C59.1751 11.2311 59.1751 11.0571 59.2854 10.9492C59.3957 10.8413 59.5735 10.8424 59.6838 10.9492L60.6969 11.9415C60.9592 12.1993 60.5607 12.5891 60.2984 12.3314Z" fill="white"/>
<path d="M60.7825 10.8268L59.9214 9.98422C59.811 9.87628 59.811 9.70226 59.9214 9.59543C60.0328 9.4875 60.2106 9.4886 60.3187 9.59543L61.1798 10.438C61.2901 10.5459 61.2901 10.7199 61.1798 10.8279C61.0717 10.9325 60.8939 10.9358 60.7825 10.8268Z" fill="white"/>
<path d="M60.9524 9.45443L60.071 8.59205C59.9607 8.48412 59.9607 8.3101 60.071 8.20327C60.1813 8.09533 60.3592 8.09533 60.4695 8.20327L61.3508 9.06565C61.4612 9.17358 61.4612 9.3476 61.3508 9.45553C61.2405 9.56127 61.0627 9.56237 60.9524 9.45443Z" fill="white"/>
<path d="M60.071 7.34633C59.9607 7.23839 59.9607 7.06438 60.071 6.95644C60.1802 6.84961 60.358 6.84741 60.4695 6.95644C60.7745 7.25491 61.3835 7.67454 61.0953 7.95759C60.806 8.23955 60.3772 7.6448 60.071 7.34633Z" fill="white"/>
<path d="M59.5588 12.446C59.4879 12.446 59.4147 12.4195 59.3596 12.3656C59.2493 12.2576 59.2493 12.0836 59.3596 11.9768L60.824 10.5439C61.0874 10.2862 61.4836 10.6772 61.2225 10.9327L59.7581 12.3656C59.7029 12.4195 59.6309 12.446 59.5588 12.446Z" fill="white"/>
<path d="M60.071 9.76411C59.9607 9.65618 59.9607 9.48216 60.071 9.37423L60.8815 8.58123C61.1449 8.32351 61.5411 8.7145 61.2799 8.97112L60.4695 9.76411C60.3569 9.87315 60.1791 9.87095 60.071 9.76411Z" fill="white"/>
<path d="M59.9956 8.18915C59.8853 8.08121 59.8853 7.9072 59.9956 7.80036L60.7002 7.1098C60.9636 6.85207 61.3598 7.24306 61.0987 7.49968L60.394 8.18915C60.2826 8.29819 60.1048 8.29488 59.9956 8.18915Z" fill="white"/>
<path d="M43.1193 13.3634L42.3977 12.6585C42.1355 12.403 42.5306 12.0109 42.7962 12.2697C43.1204 12.5869 43.8138 13.0737 43.5177 13.3634C43.4063 13.4724 43.2284 13.4691 43.1193 13.3634Z" fill="white"/>
<path d="M43.0166 10.8081L42.2107 10.0206C41.9473 9.76289 42.3457 9.3741 42.6091 9.63072L43.4151 10.4182C43.6762 10.6748 43.2811 11.0669 43.0166 10.8081Z" fill="white"/>
<path d="M43.3838 9.08007L42.3989 8.11526C42.1377 7.85974 42.5328 7.46765 42.7973 7.72647L43.7822 8.69018C43.8925 8.79811 43.8925 8.97213 43.7822 9.08007C43.6731 9.1858 43.4941 9.188 43.3838 9.08007Z" fill="white"/>
<path d="M44.0849 7.16378L43.1113 6.20999C42.8501 5.95447 43.2452 5.56238 43.5097 5.8212L44.4834 6.77499C44.5937 6.88293 44.5937 7.05695 44.4834 7.16488C44.3742 7.27061 44.1964 7.27282 44.0849 7.16378Z" fill="white"/>
<path d="M45.4964 6.3838L43.8969 4.81874C43.7866 4.7108 43.7866 4.53679 43.8969 4.42885C44.0073 4.32092 44.1851 4.32092 44.2954 4.42885L45.8949 5.99391C46.0052 6.10185 46.0052 6.27586 45.8949 6.3838C45.7846 6.49063 45.6068 6.49173 45.4964 6.3838Z" fill="white"/>
<path d="M47.1781 4.84216L45.7317 3.42689C45.6213 3.31896 45.6213 3.14494 45.7317 3.03701C45.842 2.92907 46.0198 2.92907 46.1301 3.03701L47.5766 4.45228C47.6869 4.56021 47.6869 4.73423 47.5766 4.84216C47.4662 4.949 47.2884 4.9501 47.1781 4.84216Z" fill="white"/>
<path d="M49.1627 4.03249C48.9758 4.03249 47.4731 2.49387 47.3403 2.36391C47.23 2.25597 47.23 2.08195 47.3403 1.97402C47.4506 1.86608 47.6285 1.86608 47.7388 1.97402L49.3619 3.56221C49.4722 3.67014 49.4722 3.84416 49.3619 3.95209C49.3068 4.00606 49.2358 4.03249 49.1627 4.03249Z" fill="white"/>
<path d="M51.1742 2.74503L49.9619 1.55885C49.8516 1.45091 49.8516 1.2769 49.9619 1.17006C50.0722 1.06213 50.25 1.06213 50.3604 1.17006L51.5726 2.35625C51.836 2.61287 51.4364 3.00055 51.1742 2.74503Z" fill="white"/>
<path d="M53.0437 2.41122L52.0217 1.41117C51.7605 1.15565 52.1556 0.763561 52.4201 1.02128L53.4422 2.02133C53.5525 2.12927 53.5525 2.30329 53.4422 2.41122C53.3319 2.51806 53.154 2.52026 53.0437 2.41122Z" fill="white"/>
<path d="M42.8108 13.5009C42.7004 13.393 42.7004 13.219 42.8108 13.111L44.0321 11.9161C44.2932 11.6605 44.6939 12.0471 44.4305 12.3059L43.2092 13.5009C43.0989 13.6078 42.9211 13.6089 42.8108 13.5009Z" fill="white"/>
<path d="M42.2865 11.2066L43.8624 9.66469C43.9727 9.55676 44.1506 9.55676 44.2609 9.66469C44.3712 9.77263 44.3712 9.94664 44.2609 10.0546L42.685 11.5965C42.4205 11.8542 42.0254 11.4621 42.2865 11.2066Z" fill="white"/>
<path d="M42.8852 7.87289L44.5162 6.277C44.6265 6.16906 44.8044 6.16906 44.9147 6.277C45.025 6.38493 45.025 6.55895 44.9147 6.66688L43.2836 8.26278C43.0191 8.5205 42.624 8.12841 42.8852 7.87289Z" fill="white"/>
<path d="M45.3557 5.16122L46.6964 3.85058C46.9575 3.59396 47.3582 3.98165 47.0937 4.24047L45.7542 5.55111C45.4908 5.80883 45.0946 5.41784 45.3557 5.16122Z" fill="white"/>
<path d="M48.5008 3.25698L50.295 1.50249C50.5573 1.24697 50.9569 1.63355 50.6935 1.89128L48.8992 3.64577C48.6358 3.9046 48.2396 3.5125 48.5008 3.25698Z" fill="white"/>
<path d="M53.5401 2.62808H51.6209C51.2505 2.62808 51.2483 2.07739 51.6209 2.07739H53.5401C53.6954 2.07739 53.8215 2.20075 53.8215 2.35274C53.8215 2.50473 53.6954 2.62808 53.5401 2.62808Z" fill="white"/>
<path d="M36.7877 14.6099L35.6858 13.5316C35.5754 13.4237 35.5754 13.2497 35.6858 13.1417C35.7961 13.0338 35.9739 13.0338 36.0831 13.1417L37.1851 14.22C37.2954 14.3279 37.2954 14.5019 37.1851 14.6099C37.077 14.7167 36.8981 14.7178 36.7877 14.6099Z" fill="white"/>
<path d="M36.3307 11.6805C36.0696 11.4249 36.4647 11.0328 36.7281 11.2906L37.8965 12.4338C38.0068 12.5417 38.0068 12.7158 37.8965 12.8237C37.6038 13.1111 36.6313 11.9745 36.3307 11.6805Z" fill="white"/>
<path d="M38.843 11.6563L37.5779 10.4172C37.4675 10.3093 37.4675 10.1353 37.5779 10.0273C37.6893 9.91938 37.8671 9.92048 37.9763 10.0273L39.2415 11.2664C39.3518 11.3743 39.3518 11.5483 39.2415 11.6563C39.1323 11.762 38.9545 11.7653 38.843 11.6563Z" fill="white"/>
<path d="M40.9817 11.1937C40.7994 11.1937 39.7301 10.0846 39.5984 9.9557C39.488 9.84777 39.488 9.67375 39.5984 9.56582C39.7075 9.45898 39.8854 9.45678 39.9968 9.56582L41.181 10.7234C41.2913 10.8313 41.2913 11.0053 41.181 11.1133C41.1258 11.1661 41.0538 11.1937 40.9817 11.1937Z" fill="white"/>
<path d="M35.9435 13.9845L37.794 12.1739C38.0552 11.9183 38.4559 12.3049 38.1925 12.5638L36.342 14.3733C36.0775 14.6321 35.6824 14.24 35.9435 13.9845Z" fill="white"/>
<path d="M37.2775 11.3755L38.6023 10.0791C38.8635 9.82362 39.2642 10.2102 39.0008 10.469L37.676 11.7653C37.4114 12.022 37.0152 11.631 37.2775 11.3755Z" fill="white"/>
<path d="M30.2049 13.6395L28.8047 12.2694C28.6943 12.1615 28.6943 11.9875 28.8047 11.8795C28.915 11.7716 29.0928 11.7716 29.2031 11.8795L30.6034 13.2496C30.7137 13.3576 30.7137 13.5316 30.6034 13.6395C30.4931 13.7464 30.3152 13.7475 30.2049 13.6395Z" fill="white"/>
<path d="M31.5173 12.4833L29.9651 10.9645C29.8547 10.8566 29.8547 10.6825 29.9651 10.5746C30.0754 10.4667 30.2532 10.4667 30.3624 10.5746L31.9146 12.0934C32.178 12.3522 31.7784 12.7399 31.5173 12.4833Z" fill="white"/>
<path d="M33.4522 11.6L32.4155 10.5867C32.3052 10.4787 32.3052 10.3047 32.4155 10.1979C32.5247 10.0911 32.7025 10.0889 32.814 10.1979L33.8507 11.2112C33.961 11.3191 33.961 11.4931 33.8507 11.6011C33.7392 11.709 33.5614 11.7057 33.4522 11.6Z" fill="white"/>
<path d="M29.4496 12.8898L32.0093 10.3842C32.1196 10.2762 32.2974 10.2762 32.4077 10.3842C32.518 10.4921 32.518 10.6661 32.4077 10.7741L29.8481 13.2797C29.5836 13.5374 29.1873 13.1453 29.4496 12.8898Z" fill="white"/>
<path d="M13.3321 13.8368L11.7292 12.2684C11.6189 12.1605 11.6189 11.9865 11.7292 11.8786C11.8395 11.7706 12.0174 11.7706 12.1277 11.8786L13.7306 13.4469C13.994 13.7057 13.5944 14.0934 13.3321 13.8368Z" fill="white"/>
<path d="M13.9691 10.925L12.3325 9.32362C12.2222 9.21569 12.2222 9.04167 12.3325 8.93373C12.4428 8.8258 12.6206 8.8258 12.731 8.93373L14.3676 10.5351C14.4779 10.6431 14.4779 10.8171 14.3676 10.9239C14.2573 11.0319 14.0794 11.033 13.9691 10.925Z" fill="white"/>
<path d="M15.0653 9.05381L13.2778 7.30482C13.1675 7.19689 13.1675 7.02287 13.2778 6.91494C13.3881 6.807 13.566 6.807 13.6763 6.91494L15.4638 8.66392C15.5741 8.77186 15.5741 8.94588 15.4638 9.05381C15.3546 9.16065 15.1767 9.16175 15.0653 9.05381Z" fill="white"/>
<path d="M17.9277 7.69997C17.7374 7.69997 15.691 5.62607 15.5571 5.49391C15.4468 5.38597 15.4468 5.21195 15.5571 5.10512C15.6674 4.99719 15.8453 4.99719 15.9556 5.10512L18.128 7.22968C18.3047 7.4037 18.1764 7.69997 17.9277 7.69997Z" fill="white"/>
<path d="M19.6131 6.13827L17.8796 4.44215C17.7693 4.33422 17.7693 4.1602 17.8796 4.05336C17.9899 3.94543 18.1678 3.94543 18.2781 4.05336L20.0115 5.74949C20.1218 5.85742 20.1218 6.03144 20.0115 6.13937C19.9023 6.24511 19.7245 6.24621 19.6131 6.13827Z" fill="white"/>
<path d="M22.1816 5.53588L20.2883 3.68446C20.178 3.57653 20.178 3.40251 20.2883 3.29457C20.3986 3.18664 20.5765 3.18664 20.6868 3.29457L22.5801 5.14599C22.8423 5.40481 22.4427 5.7925 22.1816 5.53588Z" fill="white"/>
<path d="M24.7627 5.49509L23.4277 4.18996C23.3174 4.08202 23.3174 3.908 23.4277 3.80117C23.538 3.69433 23.7159 3.69213 23.8262 3.80117L25.1612 5.1063C25.4234 5.36402 25.0238 5.75061 24.7627 5.49509Z" fill="white"/>
<path d="M27.2164 6.18338C27.0329 6.18338 25.923 5.03134 25.7924 4.90468C25.6821 4.79674 25.6821 4.62272 25.7924 4.51479C25.9028 4.40685 26.0806 4.40685 26.1909 4.51479L27.4156 5.71309C27.5259 5.82102 27.5259 5.99504 27.4156 6.10297C27.3604 6.15694 27.2895 6.18338 27.2164 6.18338Z" fill="white"/>
<path d="M12.2456 12.8477L14.0545 11.0789C14.3157 10.8222 14.7164 11.2099 14.4519 11.4687L12.6441 13.2376C12.3807 13.4953 11.9845 13.1032 12.2456 12.8477Z" fill="white"/>
<path d="M12.2727 10.9193C12.2007 10.9193 12.1286 10.8929 12.0735 10.8389C11.9631 10.731 11.9631 10.557 12.0735 10.4502L14.1592 8.4082C14.4204 8.15158 14.8211 8.53926 14.5577 8.79809L12.4719 10.8389C12.4168 10.8929 12.3447 10.9193 12.2727 10.9193Z" fill="white"/>
<path d="M16.0314 6.82995L17.4733 5.41909C17.5836 5.31115 17.7615 5.31115 17.8718 5.41909C17.9821 5.52702 17.9821 5.70104 17.8718 5.80787L16.4299 7.21874C16.1653 7.47756 15.7691 7.08657 16.0314 6.82995Z" fill="white"/>
<path d="M18.9983 6.6725C18.8879 6.56457 18.8879 6.39055 18.9983 6.28261L20.752 4.56777C20.8634 4.45873 21.0413 4.46094 21.1504 4.56777C21.2608 4.6757 21.2608 4.84972 21.1504 4.95766L19.3967 6.6725C19.2875 6.77823 19.1086 6.78154 18.9983 6.6725Z" fill="white"/>
<path d="M22.1817 5.14701L23.5898 3.76918C23.7002 3.66125 23.878 3.66125 23.9883 3.76918C24.0986 3.87712 24.0986 4.05114 23.9883 4.15907L22.5802 5.53689C22.3179 5.79241 21.9172 5.40473 22.1817 5.14701Z" fill="white"/>
<path d="M24.7186 5.31547L25.4739 4.57645C25.7351 4.32093 26.1358 4.70751 25.8724 4.96634L25.1171 5.70536C24.8526 5.96198 24.4564 5.57099 24.7186 5.31547Z" fill="white"/>
</svg>
