<svg width="100" height="100" viewBox="0 0 100 100" fill="none" xmlns="http://www.w3.org/2000/svg">
<g clip-path="url(#clip0)">
<path d="M36.2111 65.1116C34.4879 63.7952 33.8194 61.5072 34.6202 59.6692C34.7663 59.3362 35.1647 59.1815 35.5126 59.318C35.8605 59.4559 36.0242 59.8371 35.881 60.1687C35.3079 61.4825 35.8046 63.1344 37.0652 64.0971C38.4611 65.1624 40.3397 65.0466 42.224 63.7796C43.4424 62.9615 44.4138 61.8024 45.3553 60.6812C45.5913 60.4003 46.0239 60.356 46.3144 60.5797C46.6092 60.8035 46.6555 61.2132 46.4208 61.4942C45.4207 62.6857 44.3865 63.9176 43.0099 64.8424C40.8446 66.298 38.2509 66.6674 36.2111 65.1116Z" fill="white"/>
<path d="M42.1449 64.5927C42.2692 64.2545 42.658 64.0749 43.014 64.1933C43.3701 64.3117 43.557 64.6824 43.4329 65.0219C42.0044 68.9216 47.1223 74.0284 53.9183 70.6595C57.1873 69.0387 59.4713 66.0052 60.0294 62.5453C60.0866 62.1901 60.4292 61.9508 60.8071 62.0015C61.1781 62.0562 61.4347 62.3878 61.3774 62.743C60.7552 66.6128 58.201 70.0039 54.5472 71.8158C46.6516 75.7272 40.3017 69.6163 42.1449 64.5927Z" fill="white"/>
<path d="M59.2788 61.0403C59.1874 60.6917 59.4099 60.3378 59.7741 60.2508C60.1425 60.161 60.5095 60.3756 60.6023 60.723C62.3597 67.3881 72.9077 65.2145 71.6525 58.4674C71.5856 58.1136 71.834 57.7766 72.2037 57.713C72.5762 57.6466 72.9296 57.886 72.9951 58.2397C73.4153 60.4875 72.5229 62.916 70.7274 64.4262C66.8376 67.6963 60.5642 65.909 59.2788 61.0403Z" fill="white"/>
<path d="M79.3697 66.2094C79.0409 66.2094 78.7122 66.1951 78.382 66.1664C75.6545 65.9233 73.0472 64.664 71.2271 62.709C70.6336 62.0729 71.6432 61.1988 72.2477 61.8452C78.3151 68.3635 89.3079 63.6169 88.6599 55.9971C88.1045 49.4697 79.5226 47.8295 76.9125 52.8257C76.746 53.1483 76.334 53.2784 75.9983 53.1184C75.6614 52.9584 75.5236 52.5682 75.6913 52.2469C77.1758 49.3969 80.9415 47.9114 84.2583 48.8662C93.7477 51.5887 91.0325 66.2094 79.3697 66.2094Z" fill="white"/>
<path d="M84.096 48.8846C87.024 48.8118 88.3802 45.2867 86.1562 43.4357C85.1862 42.6267 83.6513 42.451 82.5038 43.0195C82.1696 43.186 81.7574 43.0623 81.5828 42.7437C81.4082 42.4251 81.5391 42.0321 81.8721 41.867C83.5244 41.0475 85.6528 41.2895 87.0541 42.4575C90.2071 45.0812 88.3148 50.0801 84.1328 50.1867C83.2324 50.2088 83.1955 48.908 84.096 48.8846Z" fill="white"/>
<path d="M62.4389 44.8431C60.5179 42.7006 59.8207 39.5528 60.6174 36.6261C61.3338 33.9985 63.2412 31.5401 65.8513 29.8803C67.9798 28.5262 70.4084 27.7548 72.8724 27.6521C86.7482 27.1083 86.8751 43.3199 84.2077 42.5524C83.8462 42.451 83.6401 42.0893 83.7465 41.7446C85.7808 35.1653 80.397 28.6641 72.9338 28.9515C64.0748 29.3248 58.5408 38.4914 63.4759 43.9988C63.7214 44.272 63.6874 44.6817 63.4008 44.9159C63.1116 45.15 62.6818 45.1149 62.4389 44.8431Z" fill="white"/>
<path d="M53.2171 45.5701C50.24 40.7533 56.4615 35.4527 61.1482 38.8178C61.8646 39.3316 61.0486 40.3761 60.3269 39.8572C56.8218 37.3453 52.1733 41.3231 54.3904 44.9106C54.5828 45.2202 54.475 45.6196 54.1489 45.8017C53.8214 45.9851 53.4053 45.877 53.2171 45.5701Z" fill="white"/>
<path d="M44.2119 42.8048C43.9172 41.3973 44.658 39.8208 46.0115 38.9726C47.1876 38.2326 48.743 38.027 50.2753 38.4056C51.5851 38.7282 54.8337 40.3398 53.9208 41.2998C53.6671 41.5652 53.236 41.5846 52.9576 41.3441C51.9589 40.4776 50.9411 39.9131 49.9342 39.6647C48.7894 39.3851 47.6037 39.5307 46.7619 40.0589C45.8737 40.6156 45.3634 41.6627 45.549 42.5511C45.6227 42.9036 45.3825 43.2458 45.0128 43.3159C44.6539 43.3862 44.2856 43.1638 44.2119 42.8048Z" fill="white"/>
<path d="M23.8378 37.8501C24.3823 36.2475 25.538 34.7686 27.2707 33.4548C30.6654 30.8766 35.2223 29.8516 39.164 30.7856C43.4332 31.7963 46.8729 35.0925 47.7256 38.9857C47.8034 39.3369 47.566 39.6815 47.1976 39.7544C46.8279 39.8273 46.4663 39.6036 46.3898 39.251C45.6422 35.8365 42.6064 32.941 38.8353 32.0473C35.2919 31.2123 31.1906 32.1397 28.1193 34.4707C26.5994 35.6232 25.5952 36.8953 25.1341 38.2507C24.1736 41.076 25.6634 44.9198 27.2803 46.2739C27.5627 46.5107 27.5913 46.9217 27.343 47.1922C26.085 48.5463 22.2894 42.4028 23.8378 37.8501Z" fill="white"/>
<path d="M29.1287 60.5615C26.1911 60.5615 23.255 60.4912 20.3297 60.3495C19.9545 60.3313 19.6639 60.0255 19.683 59.6666C19.7035 59.3089 19.9982 59.0175 20.398 59.05C30.2025 59.5261 40.1147 59.197 49.8647 58.0745C50.2303 58.0289 50.5768 58.2852 50.6232 58.6429C50.6683 59.0006 50.4023 59.3245 50.027 59.3674C43.111 60.1622 36.1116 60.5615 29.1287 60.5615Z" fill="white"/>
<path d="M10.0518 56.7127C9.678 56.7127 9.37238 56.4239 9.36965 56.0662C9.36692 55.7072 9.67118 55.4146 10.0477 55.4119L43.0892 55.2338C43.0905 55.2338 43.0918 55.2338 43.0933 55.2338C43.4671 55.2338 43.7727 55.5225 43.7755 55.8802C43.7781 56.2392 43.4739 56.5331 43.0973 56.5344L10.0559 56.7127C10.0546 56.7127 10.0532 56.7127 10.0518 56.7127Z" fill="white"/>
<path d="M10.7765 48.606C10.4368 48.606 10.1421 48.3627 10.1012 48.0337C10.0561 47.6773 10.3222 47.3534 10.6974 47.3104C20.0694 46.2373 29.6023 45.8835 39.0303 46.2594C39.4068 46.275 39.6988 46.5781 39.6838 46.9371C39.6661 47.2949 39.3359 47.5862 38.9743 47.5602C29.6187 47.1882 20.1622 47.5381 10.8598 48.6034C10.8311 48.6047 10.8038 48.606 10.7765 48.606Z" fill="white"/>
<path d="M27.3728 51.2845C27.0031 51.2845 26.7002 51.0035 26.6907 50.6497C26.6811 50.2906 26.9799 49.9928 27.3565 49.9837L45.7443 49.5635C46.1496 49.5792 46.4333 49.8393 46.4429 50.1983C46.4525 50.5573 46.1537 50.8552 45.7771 50.8643L27.3892 51.2845C27.3837 51.2845 27.3783 51.2845 27.3728 51.2845Z" fill="white"/>
<path d="M56.7099 50.9345C55.6115 50.9345 54.516 50.9202 53.419 50.8928C53.0437 50.8824 52.7463 50.5845 52.7558 50.2242C52.7667 49.8718 53.0697 49.5921 53.438 49.5921C53.4435 49.5921 53.4504 49.5921 53.4572 49.5921C60.4101 49.7703 67.4326 49.3748 74.3227 48.4149C74.6857 48.3538 75.0404 48.6074 75.0963 48.9638C75.1509 49.3189 74.8931 49.6493 74.5192 49.7014C68.6388 50.5209 62.6613 50.9345 56.7099 50.9345Z" fill="white"/>
<path d="M17.4223 60.5473H17.2313C16.8547 60.5473 16.5491 60.2559 16.5491 59.897C16.5491 59.5379 16.8547 59.2466 17.2313 59.2466H17.4223C17.7988 59.2466 18.1045 59.5379 18.1045 59.897C18.1045 60.2559 17.7988 60.5473 17.4223 60.5473Z" fill="white"/>
<path d="M13.2515 60.926C13.081 60.926 12.9118 60.87 12.7863 60.7504C12.5202 60.4967 12.4875 60.1156 12.7549 59.8606L12.819 59.7995C13.0851 59.5458 13.5176 59.5458 13.7837 59.7995C14.0497 60.0531 14.0497 60.4655 13.7837 60.7191C13.6418 60.8544 13.4453 60.926 13.2515 60.926Z" fill="white"/>
<path d="M46.7077 71.5751L44.2231 69.2065C44.0894 69.079 44.0894 68.8735 44.2231 68.746C44.3568 68.6185 44.5724 68.6185 44.7061 68.746L47.1906 71.1147C47.3243 71.2422 47.3243 71.4477 47.1906 71.5751C47.0569 71.7027 46.8414 71.704 46.7077 71.5751Z" fill="white"/>
<path d="M50.1433 71.6988L47.3559 69.0413C47.2222 68.9139 47.2222 68.7084 47.3559 68.5808C47.4896 68.4534 47.7051 68.4534 47.8388 68.5808L50.6263 71.2383C50.9456 71.544 50.4612 72.0005 50.1433 71.6988Z" fill="white"/>
<path d="M53.9974 70.4226C53.7682 70.4226 51.6985 68.3648 51.5361 68.2101C51.4024 68.0825 51.4024 67.877 51.5361 67.7496C51.6711 67.6207 51.8867 67.6233 52.0176 67.7496L54.2375 69.8659C54.3712 69.9935 54.3712 70.199 54.2375 70.3264C54.1721 70.3915 54.0848 70.4226 53.9974 70.4226Z" fill="white"/>
<path d="M57.0376 68.3922L54.9311 66.3852C54.7974 66.2577 54.7974 66.0521 54.9311 65.9247C55.0634 65.7985 55.279 65.7959 55.4141 65.9247L57.5207 67.9317C57.8373 68.2349 57.3569 68.6966 57.0376 68.3922Z" fill="white"/>
<path d="M58.0826 66.5661L56.0646 64.641C55.9309 64.5136 55.9309 64.308 56.0646 64.1805C56.1983 64.0531 56.4138 64.0531 56.5477 64.1805L58.5655 66.1056C58.6993 66.2332 58.6993 66.4387 58.5655 66.5661C58.4332 66.6924 58.2176 66.695 58.0826 66.5661Z" fill="white"/>
<path d="M59.3652 64.8008L57.631 63.1476C57.4973 63.0201 57.4973 62.8146 57.631 62.6871C57.7647 62.5597 57.9804 62.5597 58.1141 62.6871L59.8482 64.3404C60.1675 64.6461 59.6832 65.104 59.3652 64.8008Z" fill="white"/>
<path d="M52.5784 70.896C52.3505 70.896 50.4786 69.0282 50.3176 68.8747C50.1839 68.7472 50.1839 68.5416 50.3176 68.4142C50.4513 68.2867 50.6669 68.2867 50.8006 68.4142L52.8199 70.3407C52.9536 70.4681 52.9536 70.6736 52.8199 70.7998C52.7531 70.8635 52.6657 70.896 52.5784 70.896Z" fill="white"/>
<path d="M45.7895 71.033C45.6558 70.9055 45.6558 70.7 45.7895 70.5725L50.1679 66.3983C50.3016 66.2709 50.5171 66.2709 50.6508 66.3983C50.7845 66.5259 50.7845 66.7314 50.6508 66.8588L46.2725 71.033C46.1388 71.1592 45.9232 71.1605 45.7895 71.033Z" fill="white"/>
<path d="M49.795 71.2371L54.8924 66.3761C55.0261 66.2487 55.2416 66.2487 55.3753 66.3761C55.5091 66.5036 55.5091 66.7091 55.3753 66.8366L50.2779 71.6976C49.9573 72.002 49.4771 71.5402 49.795 71.2371Z" fill="white"/>
<path d="M55.5406 68.7473L57.8805 66.5164C58.1971 66.2147 58.6828 66.6712 58.3636 66.9769L56.0236 69.2078C55.7044 69.5121 55.224 69.049 55.5406 68.7473Z" fill="white"/>
<path d="M56.9335 64.6407C56.7998 64.5133 56.7998 64.3078 56.9335 64.1803L58.1969 62.9758C58.3306 62.8482 58.5463 62.8482 58.68 62.9758C58.8137 63.1032 58.8137 63.3087 58.68 63.4363L57.4166 64.6407C57.2827 64.767 57.0672 64.7696 56.9335 64.6407Z" fill="white"/>
<path d="M66.3192 65.1533C66.0913 65.1533 64.1471 63.2178 63.986 63.0642C63.8523 62.9368 63.8523 62.7313 63.986 62.6038C64.1198 62.4763 64.3353 62.4763 64.4677 62.6038L66.5593 64.5978C66.7749 64.8034 66.6207 65.1533 66.3192 65.1533Z" fill="white"/>
<path d="M68.3112 64.1985L66.6862 62.6493C66.5525 62.5219 66.5525 62.3164 66.6862 62.1888C66.8199 62.0614 67.0354 62.0614 67.1692 62.1888L68.7942 63.7381C68.9279 63.8656 68.9279 64.0711 68.7942 64.1985C68.6605 64.3248 68.4449 64.3261 68.3112 64.1985Z" fill="white"/>
<path d="M70.2557 62.7327L68.6894 61.2395C68.5557 61.112 68.5557 60.9064 68.6894 60.779C68.8231 60.6515 69.0386 60.6515 69.1723 60.779L70.7387 62.2723C70.8724 62.3998 70.8724 62.6053 70.7387 62.7327C70.6049 62.8589 70.3894 62.8602 70.2557 62.7327Z" fill="white"/>
<path d="M71.0006 61.4497L69.0373 59.5779C68.9036 59.4505 68.9036 59.245 69.0373 59.1174C69.171 58.99 69.3865 58.99 69.5202 59.1174L71.4836 60.9893C71.8015 61.2949 71.3172 61.7515 71.0006 61.4497Z" fill="white"/>
<path d="M63.8116 64.015L67.5704 60.4327C67.7055 60.3039 67.921 60.3064 68.0534 60.4327C68.1871 60.5601 68.1871 60.7656 68.0534 60.8931L64.2945 64.4754C63.9739 64.7799 63.495 64.3181 63.8116 64.015Z" fill="white"/>
<path d="M67.9907 63.7667L70.3675 61.5008C70.6841 61.199 71.1698 61.6556 70.8505 61.9613L68.4738 64.2272C68.1558 64.5303 67.6728 64.0698 67.9907 63.7667Z" fill="white"/>
<path d="M69.277 61.0011C69.1898 61.0011 69.1025 60.9699 69.0356 60.9062C68.9019 60.7787 68.9019 60.5732 69.0356 60.4457L70.1707 59.3635C70.3044 59.2359 70.5201 59.2359 70.6538 59.3635C70.7875 59.4909 70.7875 59.6964 70.6538 59.824L69.5186 60.9062C69.4517 60.9699 69.3644 61.0011 69.277 61.0011Z" fill="white"/>
<path d="M80.0274 65.8234L77.4828 63.3974C77.3491 63.2699 77.3491 63.0644 77.4828 62.9369C77.6165 62.8094 77.8322 62.8094 77.9659 62.9369L80.5105 65.3629C80.6442 65.4903 80.6442 65.6958 80.5105 65.8234C80.3768 65.9495 80.1611 65.9508 80.0274 65.8234Z" fill="white"/>
<path d="M82.1434 64.3545L79.9195 62.2341C79.7858 62.1067 79.7858 61.9012 79.9195 61.7738C80.0532 61.6462 80.2687 61.6462 80.4024 61.7738L82.6264 63.894C82.7601 64.0214 82.7601 64.227 82.6264 64.3545C82.4927 64.4806 82.2771 64.4819 82.1434 64.3545Z" fill="white"/>
<path d="M84.4902 63.2723L82.0958 60.9894C81.9621 60.862 81.9621 60.6564 82.0958 60.5289C82.2295 60.4015 82.445 60.4015 82.5773 60.5289L84.9719 62.8118C85.2925 63.1174 84.8081 63.574 84.4902 63.2723Z" fill="white"/>
<path d="M86.2329 62.2762L83.5777 59.7436C83.444 59.6161 83.444 59.4106 83.5777 59.2844C83.7114 59.157 83.927 59.157 84.0607 59.2844L86.7159 61.817C86.8496 61.9445 86.8496 62.15 86.7159 62.2775C86.5835 62.4011 86.3679 62.405 86.2329 62.2762Z" fill="white"/>
<path d="M87.6362 59.8802L85.5788 57.9186C85.4451 57.7912 85.4451 57.5856 85.5788 57.4581C85.7125 57.3307 85.9281 57.3307 86.0618 57.4581L88.1193 59.4197C88.253 59.5471 88.253 59.7526 88.1193 59.8802C87.9856 60.0063 87.7701 60.0076 87.6362 59.8802Z" fill="white"/>
<path d="M88.7579 57.8781L86.624 55.8437C86.4903 55.7162 86.4903 55.5107 86.624 55.3833C86.7577 55.2557 86.9733 55.2557 87.107 55.3833L89.2409 57.4176C89.3746 57.5452 89.3746 57.7507 89.2409 57.8781C89.1086 58.0042 88.8916 58.0055 88.7579 57.8781Z" fill="white"/>
<path d="M77.6454 64.8282C77.4203 64.8282 75.813 63.2166 75.6534 63.0644C75.3368 62.7613 75.8157 62.2996 76.1364 62.604L77.8868 64.2728C78.0205 64.4003 78.0205 64.6058 77.8868 64.7333C77.82 64.797 77.7326 64.8282 77.6454 64.8282Z" fill="white"/>
<path d="M76.5236 64.3467L80.453 60.6019C80.5867 60.4743 80.8022 60.4743 80.9359 60.6019C81.0696 60.7293 81.0696 60.9348 80.9359 61.0624L77.0065 64.8072C76.6872 65.1116 76.207 64.6499 76.5236 64.3467Z" fill="white"/>
<path d="M80.7024 64.0983L84.2825 60.6864C84.595 60.3846 85.0862 60.8399 84.7642 61.1469L81.184 64.5588C80.8648 64.8632 80.3844 64.4001 80.7024 64.0983Z" fill="white"/>
<path d="M85.3856 59.5081C85.2996 59.5081 85.2109 59.4768 85.1441 59.4131C85.0104 59.2856 85.0104 59.0801 85.1441 58.9527L86.9342 57.2461C87.2506 56.9442 87.7363 57.4008 87.4171 57.7065L85.627 59.4131C85.5589 59.4755 85.4728 59.5081 85.3856 59.5081Z" fill="white"/>
<path d="M86.1872 60.6123L88.3375 58.5624C88.6541 58.2605 89.1398 58.7171 88.8192 59.0227L86.6689 61.0728C86.351 61.3771 85.8707 60.9141 86.1872 60.6123Z" fill="white"/>
<path d="M86.7974 56.5072C86.6637 56.3798 86.6637 56.1742 86.7974 56.0467C87.1617 55.7007 87.6406 55.0504 87.9817 55.3781C88.1154 55.5056 88.1154 55.7112 87.9817 55.8386L87.279 56.5072C87.1481 56.6321 86.9324 56.6347 86.7974 56.5072Z" fill="white"/>
<path d="M84.3102 49.0759L83.0564 47.8817C82.9226 47.7543 82.9226 47.5487 83.0564 47.4213C83.1901 47.2938 83.4056 47.2938 83.5393 47.4213L84.7933 48.6167C84.927 48.7441 84.927 48.9496 84.7933 49.0759C84.6609 49.202 84.4453 49.2033 84.3102 49.0759Z" fill="white"/>
<path d="M85.5655 48.0042L84.3921 46.8855C84.2584 46.7581 84.2584 46.5525 84.3921 46.425C84.5258 46.2976 84.7415 46.2976 84.8752 46.425L86.0485 47.5437C86.1822 47.6712 86.1822 47.8767 86.0485 48.0042C85.9161 48.1304 85.7006 48.1316 85.5655 48.0042Z" fill="white"/>
<path d="M86.7973 46.9593L85.8082 46.0175C85.4916 45.7158 85.9705 45.2527 86.2911 45.557L87.2803 46.5001C87.414 46.6276 87.414 46.8331 87.2803 46.9606C87.1466 47.0855 86.9311 47.0868 86.7973 46.9593Z" fill="white"/>
<path d="M87.0814 45.4558L85.9899 44.4165C85.6706 44.1121 86.1536 43.6529 86.4729 43.956L87.5644 44.9953C87.6981 45.1227 87.6981 45.3284 87.5644 45.4558C87.4279 45.5845 87.2124 45.5806 87.0814 45.4558Z" fill="white"/>
<path d="M83.2677 48.3693L86.6542 45.1395C86.9708 44.8365 87.4565 45.2943 87.1372 45.5987L83.7508 48.8285C83.4302 49.1342 82.9499 48.6724 83.2677 48.3693Z" fill="white"/>
<path d="M83.089 41.5638L81.8611 40.3919C81.7274 40.2643 81.7274 40.0588 81.8611 39.9314C81.9948 39.804 82.2103 39.8053 82.344 39.9314L83.572 41.1033C83.89 41.4078 83.407 41.8682 83.089 41.5638Z" fill="white"/>
<path d="M83.6757 39.7868L82.632 38.7917C82.4982 38.6642 82.4982 38.4587 82.632 38.3325C82.767 38.2051 82.9825 38.2064 83.1136 38.3325L84.1573 39.3277C84.291 39.4551 84.291 39.6606 84.1573 39.7881C84.0263 39.9117 83.8108 39.9156 83.6757 39.7868Z" fill="white"/>
<path d="M83.8816 38.1661L82.8133 37.1475C82.6796 37.0201 82.6796 36.8146 82.8133 36.6884C82.947 36.5609 83.1626 36.5609 83.2963 36.6884L84.3645 37.7069C84.4984 37.8344 84.4984 38.0399 84.3645 38.1674C84.2309 38.2922 84.0153 38.2935 83.8816 38.1661Z" fill="white"/>
<path d="M82.8133 35.6763C82.6796 35.5488 82.6796 35.3433 82.8133 35.2158C82.9456 35.0897 83.1612 35.0871 83.2963 35.2158C83.666 35.5683 84.4042 36.0639 84.0549 36.3982C83.7042 36.7312 83.1844 36.0288 82.8133 35.6763Z" fill="white"/>
<path d="M82.1924 41.6993C82.1065 41.6993 82.0178 41.668 81.951 41.6043C81.8173 41.4768 81.8173 41.2713 81.951 41.1452L83.726 39.4528C84.0453 39.1485 84.5255 39.6103 84.2091 39.912L82.434 41.6043C82.3671 41.668 82.2798 41.6993 82.1924 41.6993Z" fill="white"/>
<path d="M82.8133 38.5319C82.6796 38.4044 82.6796 38.1989 82.8133 38.0714L83.7957 37.1348C84.115 36.8305 84.5952 37.2922 84.2786 37.5953L83.2963 38.5319C83.1598 38.6607 82.9443 38.6581 82.8133 38.5319Z" fill="white"/>
<path d="M82.722 36.6717C82.5883 36.5442 82.5883 36.3387 82.722 36.2125L83.576 35.3969C83.8953 35.0925 84.3756 35.5543 84.0591 35.8574L83.2049 36.6717C83.0699 36.8005 82.8543 36.7966 82.722 36.6717Z" fill="white"/>
<path d="M62.2657 42.7827L61.3911 41.9502C61.0733 41.6484 61.5522 41.1853 61.8741 41.491C62.2671 41.8656 63.1076 42.4405 62.7487 42.7827C62.6136 42.9114 62.398 42.9075 62.2657 42.7827Z" fill="white"/>
<path d="M62.1414 39.7649L61.1646 38.8348C60.8453 38.5304 61.3282 38.0713 61.6475 38.3743L62.6244 39.3044C62.9409 39.6074 62.462 40.0705 62.1414 39.7649Z" fill="white"/>
<path d="M62.5865 37.7239L61.3926 36.5844C61.076 36.2827 61.5549 35.8196 61.8755 36.1253L63.0694 37.2634C63.2031 37.3909 63.2031 37.5964 63.0694 37.7239C62.9371 37.8488 62.7202 37.8514 62.5865 37.7239Z" fill="white"/>
<path d="M63.4363 35.4607L62.2562 34.3342C61.9396 34.0324 62.4185 33.5693 62.7391 33.875L63.9193 35.0015C64.053 35.129 64.053 35.3345 63.9193 35.462C63.7869 35.5868 63.5714 35.5894 63.4363 35.4607Z" fill="white"/>
<path d="M65.1472 34.5395L63.2084 32.6911C63.0747 32.5636 63.0747 32.3581 63.2084 32.2306C63.3422 32.1031 63.5578 32.1031 63.6915 32.2306L65.6302 34.079C65.7639 34.2065 65.7639 34.412 65.6302 34.5395C65.4965 34.6657 65.281 34.667 65.1472 34.5395Z" fill="white"/>
<path d="M67.1856 32.7188L65.4324 31.0473C65.2986 30.9198 65.2986 30.7143 65.4324 30.5868C65.5661 30.4593 65.7816 30.4593 65.9153 30.5868L67.6686 32.2583C67.8023 32.3858 67.8023 32.5913 67.6686 32.7188C67.5348 32.845 67.3193 32.8463 67.1856 32.7188Z" fill="white"/>
<path d="M69.5912 31.7626C69.3647 31.7626 67.5432 29.9454 67.3823 29.7919C67.2486 29.6644 67.2486 29.4589 67.3823 29.3315C67.516 29.204 67.7316 29.204 67.8653 29.3315L69.8327 31.2072C69.9664 31.3346 69.9664 31.5402 69.8327 31.6676C69.7659 31.7314 69.6798 31.7626 69.5912 31.7626Z" fill="white"/>
<path d="M72.0294 30.242L70.56 28.841C70.4263 28.7136 70.4263 28.508 70.56 28.3819C70.6937 28.2544 70.9092 28.2544 71.043 28.3819L72.5124 29.7828C72.8316 30.0859 72.3473 30.5437 72.0294 30.242Z" fill="white"/>
<path d="M74.2955 29.8478L73.0567 28.6667C72.7401 28.3649 73.219 27.9018 73.5396 28.2062L74.7785 29.3873C74.9122 29.5148 74.9122 29.7203 74.7785 29.8478C74.6448 29.974 74.4292 29.9766 74.2955 29.8478Z" fill="white"/>
<path d="M61.8919 42.9451C61.758 42.8176 61.758 42.6121 61.8919 42.4846L63.3722 41.0734C63.6887 40.7715 64.1744 41.2281 63.8551 41.5337L62.3748 42.9451C62.2411 43.0713 62.0256 43.0726 61.8919 42.9451Z" fill="white"/>
<path d="M61.2563 40.2355L63.1665 38.4144C63.3002 38.287 63.5159 38.287 63.6496 38.4144C63.7832 38.5419 63.7832 38.7474 63.6496 38.8749L61.7394 40.696C61.4188 41.0004 60.9399 40.5373 61.2563 40.2355Z" fill="white"/>
<path d="M61.982 36.2982L63.959 34.4134C64.0927 34.2859 64.3083 34.2859 64.442 34.4134C64.5757 34.5408 64.5757 34.7464 64.442 34.8738L62.4649 36.7586C62.1443 37.063 61.6654 36.6 61.982 36.2982Z" fill="white"/>
<path d="M64.9766 33.0956L66.6017 31.5477C66.9182 31.2446 67.4039 31.7025 67.0833 32.0082L65.4597 33.5561C65.1404 33.8605 64.6601 33.3987 64.9766 33.0956Z" fill="white"/>
<path d="M68.789 30.8466L70.9637 28.7745C71.2817 28.4727 71.766 28.9293 71.4468 29.2337L69.2719 31.3058C68.9526 31.6115 68.4723 31.1484 68.789 30.8466Z" fill="white"/>
<path d="M74.8972 30.1039H72.5709C72.1219 30.1039 72.1192 29.4535 72.5709 29.4535H74.8972C75.0854 29.4535 75.2383 29.5992 75.2383 29.7787C75.2383 29.9582 75.0854 30.1039 74.8972 30.1039Z" fill="white"/>
<path d="M54.5913 44.2549L53.2556 42.9814C53.1218 42.8539 53.1218 42.6484 53.2556 42.5209C53.3893 42.3934 53.6048 42.3934 53.7372 42.5209L55.073 43.7944C55.2067 43.9218 55.2067 44.1273 55.073 44.2549C54.9419 44.381 54.7251 44.3823 54.5913 44.2549Z" fill="white"/>
<path d="M54.0371 40.7952C53.7206 40.4933 54.1995 40.0302 54.5188 40.3347L55.9351 41.6848C56.0687 41.8123 56.0687 42.0179 55.9351 42.1453C55.5803 42.4848 54.4015 41.1424 54.0371 40.7952Z" fill="white"/>
<path d="M57.0825 40.7666L55.5491 39.3032C55.4153 39.1757 55.4153 38.9702 55.5491 38.8427C55.6841 38.7152 55.8996 38.7165 56.032 38.8427L57.5656 40.3061C57.6993 40.4335 57.6993 40.639 57.5656 40.7666C57.4332 40.8914 57.2177 40.8953 57.0825 40.7666Z" fill="white"/>
<path d="M59.6748 40.2202C59.4538 40.2202 58.1577 38.9103 57.9981 38.7581C57.8643 38.6306 57.8643 38.4251 57.9981 38.2976C58.1303 38.1715 58.3459 38.1689 58.481 38.2976L59.9164 39.6648C60.0501 39.7922 60.0501 39.9977 59.9164 40.1253C59.8495 40.1876 59.7622 40.2202 59.6748 40.2202Z" fill="white"/>
<path d="M53.5679 43.5163L55.8109 41.3779C56.1275 41.076 56.6132 41.5326 56.2939 41.8384L54.0509 43.9755C53.7303 44.2812 53.2514 43.8181 53.5679 43.5163Z" fill="white"/>
<path d="M55.1849 40.4349L56.7907 38.9038C57.1074 38.6021 57.5931 39.0587 57.2738 39.3643L55.668 40.8953C55.3472 41.1985 54.867 40.7367 55.1849 40.4349Z" fill="white"/>
<path d="M46.612 43.1088L44.9148 41.4906C44.781 41.3632 44.781 41.1577 44.9148 41.0301C45.0485 40.9027 45.264 40.9027 45.3977 41.0301L47.0951 42.6483C47.2288 42.7758 47.2288 42.9813 47.0951 43.1088C46.9614 43.235 46.7457 43.2363 46.612 43.1088Z" fill="white"/>
<path d="M48.2028 41.7433L46.3213 39.9495C46.1875 39.8221 46.1875 39.6164 46.3213 39.489C46.455 39.3616 46.6705 39.3616 46.8029 39.489L48.6843 41.2828C49.0036 41.5884 48.5193 42.0463 48.2028 41.7433Z" fill="white"/>
<path d="M50.548 40.7001L49.2914 39.5034C49.1577 39.3758 49.1577 39.1703 49.2914 39.0442C49.4238 38.9181 49.6393 38.9155 49.7745 39.0442L51.0311 40.2409C51.1648 40.3684 51.1648 40.5739 51.0311 40.7014C50.8959 40.8289 50.6804 40.825 50.548 40.7001Z" fill="white"/>
<path d="M45.6964 42.2233L48.7991 39.2641C48.9328 39.1366 49.1483 39.1366 49.282 39.2641C49.4157 39.3916 49.4157 39.5971 49.282 39.7246L46.1794 42.6838C45.8588 42.9882 45.3784 42.5251 45.6964 42.2233Z" fill="white"/>
<path d="M26.1601 43.3419L24.2172 41.4895C24.0835 41.3621 24.0835 41.1566 24.2172 41.0291C24.3509 40.9016 24.5665 40.9016 24.7002 41.0291L26.6432 42.8814C26.9624 43.187 26.4781 43.6449 26.1601 43.3419Z" fill="white"/>
<path d="M26.9322 39.9028L24.9484 38.0115C24.8147 37.8841 24.8147 37.6785 24.9484 37.551C25.0821 37.4236 25.2976 37.4236 25.4314 37.551L27.4152 39.4423C27.5489 39.5699 27.5489 39.7754 27.4152 39.9015C27.2815 40.0291 27.0659 40.0304 26.9322 39.9028Z" fill="white"/>
<path d="M28.2611 37.693L26.0944 35.6274C25.9607 35.4999 25.9607 35.2944 26.0944 35.1669C26.2281 35.0394 26.4437 35.0394 26.5774 35.1669L28.7441 37.2325C28.8778 37.36 28.8778 37.5655 28.7441 37.693C28.6117 37.8192 28.3961 37.8205 28.2611 37.693Z" fill="white"/>
<path d="M31.7306 36.0939C31.4999 36.0939 29.0194 33.6446 28.8571 33.4885C28.7234 33.361 28.7234 33.1555 28.8571 33.0293C28.9908 32.9018 29.2064 32.9018 29.3401 33.0293L31.9734 35.5385C32.1875 35.744 32.032 36.0939 31.7306 36.0939Z" fill="white"/>
<path d="M33.7735 34.2496L31.6723 32.2464C31.5386 32.119 31.5386 31.9134 31.6723 31.7873C31.806 31.6598 32.0216 31.6598 32.1553 31.7873L34.2564 33.7905C34.3901 33.9179 34.3901 34.1234 34.2564 34.2509C34.124 34.3758 33.9085 34.3771 33.7735 34.2496Z" fill="white"/>
<path d="M36.8869 33.5381L34.592 31.3515C34.4583 31.224 34.4583 31.0185 34.592 30.891C34.7257 30.7635 34.9413 30.7635 35.075 30.891L37.3699 33.0776C37.6877 33.3833 37.2034 33.8412 36.8869 33.5381Z" fill="white"/>
<path d="M40.0153 33.4899L38.3971 31.9485C38.2635 31.821 38.2635 31.6155 38.3971 31.4893C38.5308 31.3631 38.7465 31.3605 38.8802 31.4893L40.4984 33.0307C40.8162 33.3351 40.3318 33.7917 40.0153 33.4899Z" fill="white"/>
<path d="M42.9897 34.3029C42.7672 34.3029 41.4219 32.9423 41.2636 32.7927C41.1299 32.6652 41.1299 32.4597 41.2636 32.3322C41.3974 32.2047 41.6129 32.2047 41.7466 32.3322L43.2311 33.7474C43.3648 33.8749 43.3648 34.0804 43.2311 34.2079C43.1642 34.2716 43.0783 34.3029 42.9897 34.3029Z" fill="white"/>
<path d="M24.8431 42.1737L27.0357 40.0846C27.3523 39.7815 27.838 40.2393 27.5174 40.545L25.3261 42.6341C25.0068 42.9385 24.5266 42.4754 24.8431 42.1737Z" fill="white"/>
<path d="M24.876 39.8961C24.7887 39.8961 24.7013 39.8649 24.6345 39.8012C24.5007 39.6737 24.5007 39.4682 24.6345 39.3421L27.1627 36.9304C27.4793 36.6273 27.965 37.0852 27.6457 37.3909L25.1175 39.8012C25.0507 39.8649 24.9633 39.8961 24.876 39.8961Z" fill="white"/>
<path d="M29.432 35.0665L31.1798 33.4002C31.3135 33.2727 31.5291 33.2727 31.6628 33.4002C31.7965 33.5276 31.7965 33.7332 31.6628 33.8593L29.915 35.5256C29.5943 35.8313 29.1141 35.3695 29.432 35.0665Z" fill="white"/>
<path d="M33.0283 34.8805C32.8945 34.753 32.8945 34.5475 33.0283 34.42L35.154 32.3947C35.2891 32.2659 35.5047 32.2685 35.6369 32.3947C35.7708 32.5222 35.7708 32.7277 35.6369 32.8552L33.5113 34.8805C33.3789 35.0053 33.162 35.0092 33.0283 34.8805Z" fill="white"/>
<path d="M36.8868 33.0788L38.5936 31.4516C38.7275 31.3241 38.943 31.3241 39.0767 31.4516C39.2104 31.579 39.2104 31.7846 39.0767 31.912L37.3699 33.5393C37.0519 33.8411 36.5662 33.3832 36.8868 33.0788Z" fill="white"/>
<path d="M39.962 33.2778L40.8775 32.405C41.1941 32.1032 41.6798 32.5598 41.3605 32.8654L40.445 33.7383C40.1244 34.0413 39.6441 33.5796 39.962 33.2778Z" fill="white"/>
</g>
<defs>
<clipPath id="clip0">
<rect x="10" y="27" width="80" height="46.0606" fill="white"/>
</clipPath>
</defs>
</svg>
